<?xml version="1.0" encoding="UTF-8"?>
<!--Generator: Apple Native CoreSVG 149-->
<!DOCTYPE svg
PUBLIC "-//W3C//DTD SVG 1.1//EN"
       "http://www.w3.org/Graphics/SVG/1.1/DTD/svg11.dtd">
<svg version="1.1" xmlns="http://www.w3.org/2000/svg" xmlns:xlink="http://www.w3.org/1999/xlink" width="3300" height="2200">
 <!--glyph: "uni1000D5.medium", point size: 100.000000, font version: "Version 16.0d18e1", template writer version: "8"-->
 <g id="Notes">
  <rect height="2200" id="artboard" style="fill:white;opacity:1" width="3300" x="0" y="0"/>
  <line id="" style="fill:none;stroke:black;opacity:1;stroke-width:0.5;" x1="263" x2="3036" y1="292" y2="292"/>
  <text style="stroke:none;fill:black;font-family:-apple-system,&quot;SF Pro Display&quot;,&quot;SF Pro Text&quot;,Helvetica,sans-serif;font-weight:bold;" transform="matrix(1 0 0 1 263 322)">Weight/Scale Variations</text>
  <text style="stroke:none;fill:black;font-family:-apple-system,&quot;SF Pro Display&quot;,&quot;SF Pro Text&quot;,Helvetica,sans-serif;text-anchor:middle;" transform="matrix(1 0 0 1 559.711 322)">Ultralight</text>
  <text style="stroke:none;fill:black;font-family:-apple-system,&quot;SF Pro Display&quot;,&quot;SF Pro Text&quot;,Helvetica,sans-serif;text-anchor:middle;" transform="matrix(1 0 0 1 856.422 322)">Thin</text>
  <text style="stroke:none;fill:black;font-family:-apple-system,&quot;SF Pro Display&quot;,&quot;SF Pro Text&quot;,Helvetica,sans-serif;text-anchor:middle;" transform="matrix(1 0 0 1 1153.13 322)">Light</text>
  <text style="stroke:none;fill:black;font-family:-apple-system,&quot;SF Pro Display&quot;,&quot;SF Pro Text&quot;,Helvetica,sans-serif;text-anchor:middle;" transform="matrix(1 0 0 1 1449.84 322)">Regular</text>
  <text style="stroke:none;fill:black;font-family:-apple-system,&quot;SF Pro Display&quot;,&quot;SF Pro Text&quot;,Helvetica,sans-serif;text-anchor:middle;" transform="matrix(1 0 0 1 1746.56 322)">Medium</text>
  <text style="stroke:none;fill:black;font-family:-apple-system,&quot;SF Pro Display&quot;,&quot;SF Pro Text&quot;,Helvetica,sans-serif;text-anchor:middle;" transform="matrix(1 0 0 1 2043.27 322)">Semibold</text>
  <text style="stroke:none;fill:black;font-family:-apple-system,&quot;SF Pro Display&quot;,&quot;SF Pro Text&quot;,Helvetica,sans-serif;text-anchor:middle;" transform="matrix(1 0 0 1 2339.98 322)">Bold</text>
  <text style="stroke:none;fill:black;font-family:-apple-system,&quot;SF Pro Display&quot;,&quot;SF Pro Text&quot;,Helvetica,sans-serif;text-anchor:middle;" transform="matrix(1 0 0 1 2636.69 322)">Heavy</text>
  <text style="stroke:none;fill:black;font-family:-apple-system,&quot;SF Pro Display&quot;,&quot;SF Pro Text&quot;,Helvetica,sans-serif;text-anchor:middle;" transform="matrix(1 0 0 1 2933.4 322)">Black</text>
  <line id="" style="fill:none;stroke:black;opacity:1;stroke-width:0.5;" x1="263" x2="3036" y1="1903" y2="1903"/>
  <g id="" transform="matrix(1 0 0 1 263 1933)">
   <path d="M9.24805 0.830078C13.5547 0.830078 17.1387-2.74414 17.1387-7.05078C17.1387-11.3574 13.5449-14.9316 9.23828-14.9316C4.94141-14.9316 1.36719-11.3574 1.36719-7.05078C1.36719-2.74414 4.95117 0.830078 9.24805 0.830078ZM9.24805-0.654297C5.70312-0.654297 2.87109-3.49609 2.87109-7.05078C2.87109-10.6055 5.69336-13.4473 9.23828-13.4473C12.793-13.4473 15.6348-10.6055 15.6445-7.05078C15.6543-3.49609 12.8027-0.654297 9.24805-0.654297ZM6.39648-6.31836L8.50586-6.31836L8.50586-4.19922C8.50586-3.75977 8.79883-3.45703 9.22852-3.45703C9.67773-3.45703 9.9707-3.75977 9.9707-4.19922L9.9707-6.31836L12.0996-6.31836C12.5391-6.31836 12.8418-6.61133 12.8418-7.04102C12.8418-7.48047 12.5391-7.7832 12.0996-7.7832L9.9707-7.7832L9.9707-9.89258C9.9707-10.3418 9.67773-10.6445 9.22852-10.6445C8.79883-10.6445 8.50586-10.3418 8.50586-9.89258L8.50586-7.7832L6.39648-7.7832C5.94727-7.7832 5.64453-7.48047 5.64453-7.04102C5.64453-6.61133 5.94727-6.31836 6.39648-6.31836Z"/>
  </g>
  <g id="" transform="matrix(1 0 0 1 281.506 1933)">
   <path d="M11.709 2.91016C17.1582 2.91016 21.6699-1.61133 21.6699-7.05078C21.6699-12.5 17.1484-17.0117 11.6992-17.0117C6.25977-17.0117 1.74805-12.5 1.74805-7.05078C1.74805-1.61133 6.26953 2.91016 11.709 2.91016ZM11.709 1.25C7.09961 1.25 3.41797-2.44141 3.41797-7.05078C3.41797-11.6602 7.08984-15.3516 11.6992-15.3516C16.3086-15.3516 20-11.6602 20.0098-7.05078C20.0195-2.44141 16.3184 1.25 11.709 1.25ZM7.98828-6.23047L10.8789-6.23047L10.8789-3.32031C10.8789-2.83203 11.2109-2.5 11.6895-2.5C12.1777-2.5 12.5195-2.83203 12.5195-3.32031L12.5195-6.23047L15.4297-6.23047C15.918-6.23047 16.25-6.5625 16.25-7.04102C16.25-7.5293 15.918-7.87109 15.4297-7.87109L12.5195-7.87109L12.5195-10.7617C12.5195-11.2695 12.1777-11.6016 11.6895-11.6016C11.2109-11.6016 10.8789-11.2598 10.8789-10.7617L10.8789-7.87109L7.98828-7.87109C7.48047-7.87109 7.14844-7.5293 7.14844-7.04102C7.14844-6.5625 7.49023-6.23047 7.98828-6.23047Z"/>
  </g>
  <g id="" transform="matrix(1 0 0 1 304.924 1933)">
   <path d="M14.9707 5.66406C21.9336 5.66406 27.6953-0.0976562 27.6953-7.05078C27.6953-14.0137 21.9238-19.7754 14.9609-19.7754C8.00781-19.7754 2.25586-14.0137 2.25586-7.05078C2.25586-0.0976562 8.01758 5.66406 14.9707 5.66406ZM14.9707 3.84766C8.93555 3.84766 4.08203-1.01562 4.08203-7.05078C4.08203-13.0957 8.92578-17.9492 14.9609-17.9492C21.0059-17.9492 25.8594-13.0957 25.8691-7.05078C25.8789-1.01562 21.0156 3.84766 14.9707 3.84766ZM10.0586-6.14258L14.0625-6.14258L14.0625-2.12891C14.0625-1.5918 14.4336-1.2207 14.9512-1.2207C15.4883-1.2207 15.8594-1.5918 15.8594-2.12891L15.8594-6.14258L19.8828-6.14258C20.4102-6.14258 20.791-6.51367 20.791-7.03125C20.791-7.56836 20.4199-7.94922 19.8828-7.94922L15.8594-7.94922L15.8594-11.9531C15.8594-12.5098 15.4883-12.8809 14.9512-12.8809C14.4336-12.8809 14.0625-12.5 14.0625-11.9531L14.0625-7.94922L10.0586-7.94922C9.50195-7.94922 9.13086-7.56836 9.13086-7.03125C9.13086-6.51367 9.51172-6.14258 10.0586-6.14258Z"/>
  </g>
  <text style="stroke:none;fill:black;font-family:-apple-system,&quot;SF Pro Display&quot;,&quot;SF Pro Text&quot;,Helvetica,sans-serif;font-weight:bold;" transform="matrix(1 0 0 1 263 1953)">Design Variations</text>
  <text style="stroke:none;fill:black;font-family:-apple-system,&quot;SF Pro Display&quot;,&quot;SF Pro Text&quot;,Helvetica,sans-serif;" transform="matrix(1 0 0 1 263 1971)">Symbols are supported in up to nine weights and three scales.</text>
  <text style="stroke:none;fill:black;font-family:-apple-system,&quot;SF Pro Display&quot;,&quot;SF Pro Text&quot;,Helvetica,sans-serif;" transform="matrix(1 0 0 1 263 1989)">For optimal layout with text and other symbols, vertically align</text>
  <text style="stroke:none;fill:black;font-family:-apple-system,&quot;SF Pro Display&quot;,&quot;SF Pro Text&quot;,Helvetica,sans-serif;" transform="matrix(1 0 0 1 263 2007)">symbols with the adjacent text.</text>
  <line id="" style="fill:none;stroke:#00AEEF;stroke-width:0.5;opacity:1.0;" x1="776" x2="776" y1="1919" y2="1933"/>
  <g id="" transform="matrix(1 0 0 1 776 1933)">
   <path d="M3.31055 0.126953C3.82812 0.126953 4.08203-0.0683594 4.26758-0.605469L5.52734-4.0625L11.2891-4.0625L12.5488-0.605469C12.7344-0.0683594 12.9883 0.126953 13.4961 0.126953C14.0137 0.126953 14.3457-0.185547 14.3457-0.673828C14.3457-0.839844 14.3164-0.986328 14.2383-1.20117L9.6582-13.3887C9.43359-13.9941 9.0332-14.2871 8.4082-14.2871C7.80273-14.2871 7.39258-13.9941 7.17773-13.3984L2.59766-1.19141C2.51953-0.976562 2.49023-0.830078 2.49023-0.664062C2.49023-0.175781 2.80273 0.126953 3.31055 0.126953ZM6.00586-5.53711L8.37891-12.1094L8.42773-12.1094L10.8008-5.53711Z"/>
  </g>
  <line id="" style="fill:none;stroke:#00AEEF;stroke-width:0.5;opacity:1.0;" x1="792.836" x2="792.836" y1="1919" y2="1933"/>
  <text style="stroke:none;fill:black;font-family:-apple-system,&quot;SF Pro Display&quot;,&quot;SF Pro Text&quot;,Helvetica,sans-serif;font-weight:bold;" transform="matrix(1 0 0 1 776 1953)">Margins</text>
  <text style="stroke:none;fill:black;font-family:-apple-system,&quot;SF Pro Display&quot;,&quot;SF Pro Text&quot;,Helvetica,sans-serif;" transform="matrix(1 0 0 1 776 1971)">Leading and trailing margins on the left and right side of each symbol</text>
  <text style="stroke:none;fill:black;font-family:-apple-system,&quot;SF Pro Display&quot;,&quot;SF Pro Text&quot;,Helvetica,sans-serif;" transform="matrix(1 0 0 1 776 1989)">can be adjusted by modifying the x-location of the margin guidelines.</text>
  <text style="stroke:none;fill:black;font-family:-apple-system,&quot;SF Pro Display&quot;,&quot;SF Pro Text&quot;,Helvetica,sans-serif;" transform="matrix(1 0 0 1 776 2007)">Modifications are automatically applied proportionally to all</text>
  <text style="stroke:none;fill:black;font-family:-apple-system,&quot;SF Pro Display&quot;,&quot;SF Pro Text&quot;,Helvetica,sans-serif;" transform="matrix(1 0 0 1 776 2025)">scales and weights.</text>
  <g id="" transform="matrix(1 0 0 1 1289 1933)">
   <path d="M2.8418 1.86523L4.54102 3.57422C5.40039 4.44336 6.38672 4.38477 7.31445 3.35938L17.4902-7.85156C17.7539-7.76367 18.0273-7.7832 18.3398-7.8418L19.4043-8.03711L20.0684-7.36328L20.0293-6.80664C19.9902-6.30859 20.1172-5.92773 20.6055-5.44922L21.3672-4.70703C21.8457-4.22852 22.4609-4.19922 22.9297-4.66797L25.8398-7.58789C26.3086-8.05664 26.2891-8.65234 25.8105-9.13086L25.0391-9.89258C24.5605-10.3711 24.1895-10.5273 23.7109-10.4883L23.1348-10.4395L22.4902-11.0742L22.7344-12.1973C22.8613-12.7637 22.7051-13.2031 22.1191-13.7891L19.9219-15.9766C16.582-19.2969 12.1484-19.2188 9.25781-16.3281C8.83789-15.918 8.80859-15.3418 9.04297-14.9512C9.27734-14.5898 9.73633-14.3555 10.3809-14.5215C11.8457-14.8633 13.3691-14.9219 14.7949-13.9844L14.209-12.5293C14.0137-12.0508 13.9844-11.6504 14.1113-11.2891L3.04688-0.898438C2.06055 0.0195312 1.98242 0.996094 2.8418 1.86523ZM10.752-15.957C13.1836-17.7344 16.4746-17.4316 18.7012-15.2051L21.1328-12.793C21.3672-12.5586 21.4062-12.373 21.3379-12.0312L21.0156-10.5469L22.5195-9.0625L23.5059-9.12109C23.7598-9.13086 23.8379-9.11133 24.0332-8.91602L24.6094-8.33984L22.168-5.89844L21.5918-6.47461C21.3965-6.66992 21.3672-6.74805 21.377-7.01172L21.4453-7.98828L19.9512-9.47266L18.4277-9.21875C18.1055-9.15039 17.959-9.17969 17.7148-9.41406L15.7129-11.416C15.459-11.6504 15.4297-11.8164 15.5859-12.1875L16.4648-14.2773C14.9023-15.7324 12.8711-16.3574 10.8398-15.7617C10.6836-15.7227 10.625-15.8496 10.752-15.957ZM5.27344 2.30469L4.10156 1.14258C3.63281 0.683594 3.74023 0.341797 4.14062-0.0195312L14.9512-10.1953L16.416-8.71094L6.42578 2.27539C6.07422 2.67578 5.74219 2.77344 5.27344 2.30469Z"/>
  </g>
  <text style="stroke:none;fill:black;font-family:-apple-system,&quot;SF Pro Display&quot;,&quot;SF Pro Text&quot;,Helvetica,sans-serif;font-weight:bold;" transform="matrix(1 0 0 1 1289 1953)">Exporting</text>
  <text style="stroke:none;fill:black;font-family:-apple-system,&quot;SF Pro Display&quot;,&quot;SF Pro Text&quot;,Helvetica,sans-serif;" transform="matrix(1 0 0 1 1289 1971)">Symbols should be outlined when exporting to ensure the</text>
  <text style="stroke:none;fill:black;font-family:-apple-system,&quot;SF Pro Display&quot;,&quot;SF Pro Text&quot;,Helvetica,sans-serif;" transform="matrix(1 0 0 1 1289 1989)">design is preserved when submitting to Xcode.</text>
  <text id="template-version" style="stroke:none;fill:black;font-family:-apple-system,&quot;SF Pro Display&quot;,&quot;SF Pro Text&quot;,Helvetica,sans-serif;text-anchor:end;" transform="matrix(1 0 0 1 3036 1933)">Template v.2.0</text>
  <text style="stroke:none;fill:black;font-family:-apple-system,&quot;SF Pro Display&quot;,&quot;SF Pro Text&quot;,Helvetica,sans-serif;text-anchor:end;" transform="matrix(1 0 0 1 3036 1951)">Requires Xcode 12 or greater</text>
  <text style="stroke:none;fill:black;font-family:-apple-system,&quot;SF Pro Display&quot;,&quot;SF Pro Text&quot;,Helvetica,sans-serif;text-anchor:end;" transform="matrix(1 0 0 1 3036 1969)">Generated from 6.square.fill</text>
  <text style="stroke:none;fill:black;font-family:-apple-system,&quot;SF Pro Display&quot;,&quot;SF Pro Text&quot;,Helvetica,sans-serif;text-anchor:end;" transform="matrix(1 0 0 1 3036 1987)">Typeset at 100 points</text>
  <text style="stroke:none;fill:black;font-family:-apple-system,&quot;SF Pro Display&quot;,&quot;SF Pro Text&quot;,Helvetica,sans-serif;" transform="matrix(1 0 0 1 263 726)">Small</text>
  <text style="stroke:none;fill:black;font-family:-apple-system,&quot;SF Pro Display&quot;,&quot;SF Pro Text&quot;,Helvetica,sans-serif;" transform="matrix(1 0 0 1 263 1156)">Medium</text>
  <text style="stroke:none;fill:black;font-family:-apple-system,&quot;SF Pro Display&quot;,&quot;SF Pro Text&quot;,Helvetica,sans-serif;" transform="matrix(1 0 0 1 263 1586)">Large</text>
 </g>
 <g id="Guides">
  <g id="H-reference" style="fill:#27AAE1;stroke:none;" transform="matrix(1 0 0 1 339 696)">
   <path d="M0.976562 0L3.66211 0L12.9883-24.4629L45.752-24.4629L55.127 0L57.7637 0L30.6152-70.459L28.125-70.459ZM29.3457-67.1387L29.4434-67.1387L44.873-26.709L13.8672-26.709Z"/>
  </g>
  <line id="Baseline-S" style="fill:none;stroke:#27AAE1;opacity:1;stroke-width:0.5;" x1="263" x2="3036" y1="696" y2="696"/>
  <line id="Capline-S" style="fill:none;stroke:#27AAE1;opacity:1;stroke-width:0.5;" x1="263" x2="3036" y1="625.541" y2="625.541"/>
  <g id="H-reference" style="fill:#27AAE1;stroke:none;" transform="matrix(1 0 0 1 339 1126)">
   <path d="M0.976562 0L3.66211 0L12.9883-24.4629L45.752-24.4629L55.127 0L57.7637 0L30.6152-70.459L28.125-70.459ZM29.3457-67.1387L29.4434-67.1387L44.873-26.709L13.8672-26.709Z"/>
  </g>
  <line id="Baseline-M" style="fill:none;stroke:#27AAE1;opacity:1;stroke-width:0.5;" x1="263" x2="3036" y1="1126" y2="1126"/>
  <line id="Capline-M" style="fill:none;stroke:#27AAE1;opacity:1;stroke-width:0.5;" x1="263" x2="3036" y1="1055.54" y2="1055.54"/>
  <g id="H-reference" style="fill:#27AAE1;stroke:none;" transform="matrix(1 0 0 1 339 1556)">
   <path d="M0.976562 0L3.66211 0L12.9883-24.4629L45.752-24.4629L55.127 0L57.7637 0L30.6152-70.459L28.125-70.459ZM29.3457-67.1387L29.4434-67.1387L44.873-26.709L13.8672-26.709Z"/>
  </g>
  <line id="Baseline-L" style="fill:none;stroke:#27AAE1;opacity:1;stroke-width:0.5;" x1="263" x2="3036" y1="1556" y2="1556"/>
  <line id="Capline-L" style="fill:none;stroke:#27AAE1;opacity:1;stroke-width:0.5;" x1="263" x2="3036" y1="1485.54" y2="1485.54"/>
  <line id="left-margin" style="fill:none;stroke:#00AEEF;stroke-width:0.5;opacity:1.0;" x1="1392.45" x2="1392.45" y1="1030.79" y2="1150.12"/>
  <line id="right-margin" style="fill:none;stroke:#00AEEF;stroke-width:0.5;opacity:1.0;" x1="1507.24" x2="1507.24" y1="1030.79" y2="1150.12"/>
 </g>
 <g id="Symbols">
  <g id="Black-L" transform="matrix(1 0 0 1 2855.62 1556)">
   <path d="M39.9902 26.5137L115.576 26.5137C130.811 26.5137 139.502 17.8711 139.502 2.68555L139.502-73.0957C139.502-88.2812 130.811-96.875 115.576-96.875L39.9902-96.875C24.7559-96.875 16.0645-88.2812 16.0645-73.0957L16.0645 2.68555C16.0645 17.8711 24.7559 26.5137 39.9902 26.5137ZM79.0527-4.15039C68.8477-4.15039 60.9375-8.05664 56.3477-15.4297C53.125-20.5078 51.416-27.1973 51.416-35.5469C51.416-55.5664 62.3535-66.4062 80.7129-66.4062C89.502-66.4062 96.9238-63.4277 99.8535-58.6914C100.83-57.1777 101.416-55.5664 101.416-53.7109C101.416-49.8047 98.5352-47.168 94.0918-47.168C90.6738-47.168 88.8672-48.3887 86.8652-49.7559C85.0586-50.8789 83.4961-52.0508 80.4688-52.0508C74.5117-52.0508 70.8496-46.8262 70.8496-39.5996C70.8496-38.8184 70.8984-38.0371 70.9961-37.1582L71.6797-37.1582C74.0723-41.1133 79.4434-44.1406 85.9375-44.1406C96.6797-44.1406 104.688-37.207 104.688-26.0742C104.688-12.5 94.3848-4.15039 79.0527-4.15039ZM78.0762-18.5059C82.2754-18.5059 85.1074-21.3867 85.1074-25.5859C85.1074-29.6387 82.1777-32.5195 78.0762-32.5195C73.9258-32.5195 71.0449-29.6387 71.0449-25.5859C71.0449-21.3867 73.9746-18.5059 78.0762-18.5059Z"/>
  </g>
  <g id="Heavy-L" transform="matrix(1 0 0 1 2559.93 1556)">
   <path d="M38.8184 25.4883L114.697 25.4883C129.346 25.4883 137.451 17.4316 137.451 2.88086L137.451-73.2422C137.451-87.793 129.346-95.8496 114.697-95.8496L38.8184-95.8496C24.2188-95.8496 16.0645-87.793 16.0645-73.2422L16.0645 2.88086C16.0645 17.4316 24.2188 25.4883 38.8184 25.4883ZM77.832-4.29688C68.2617-4.29688 60.5957-7.95898 56.1523-15.2344C53.0762-20.0684 51.4648-26.709 51.4648-35.1074C51.4648-55.3711 61.9629-66.2598 79.4434-66.2598C88.1836-66.2598 95.459-62.8906 98.1445-58.2031C98.9746-56.8359 99.4629-55.4199 99.4629-53.8086C99.4629-50.3418 96.875-47.998 93.0664-47.998C89.9902-47.998 88.3301-49.1699 86.377-50.6348C84.5703-52.1973 82.666-53.5645 79.248-53.5645C72.4609-53.5645 68.2129-47.4609 68.2129-38.623C68.2129-37.9883 68.2617-37.3047 68.3594-36.5723L68.9453-36.5723C71.3379-40.8203 76.6602-44.1406 83.6426-44.1406C94.2871-44.1406 102.539-37.1582 102.539-25.8789C102.539-12.5 92.5781-4.29688 77.832-4.29688ZM77.0508-16.8945C82.0801-16.8945 85.498-20.3125 85.498-25.3906C85.498-30.2734 82.0312-33.7402 77.0508-33.7402C72.0703-33.7402 68.5547-30.2734 68.5547-25.4395C68.5547-20.4102 72.0703-16.8945 77.0508-16.8945Z"/>
  </g>
  <g id="Bold-L" transform="matrix(1 0 0 1 2264.37 1556)">
   <path d="M37.5 24.3652L113.721 24.3652C127.637 24.3652 135.156 16.8945 135.156 3.07617L135.156-73.3887C135.156-87.207 127.637-94.7266 113.721-94.7266L37.5-94.7266C23.6328-94.7266 16.0645-87.2559 16.0645-73.3887L16.0645 3.07617C16.0645 16.8945 23.6328 24.3652 37.5 24.3652ZM76.5137-4.49219C67.627-4.49219 60.2539-7.91016 55.957-14.9414C53.0273-19.6289 51.4648-26.1719 51.4648-34.6191C51.4648-55.1758 61.4746-66.0645 78.0762-66.0645C86.7188-66.0645 93.8477-62.2559 96.1914-57.6172C96.875-56.4453 97.2656-55.2734 97.2656-53.9062C97.2656-50.9766 95.0684-48.9258 91.8945-48.9258C89.209-48.9258 87.7441-50.0488 85.8887-51.6602C84.0332-53.6133 81.6895-55.2734 77.832-55.2734C70.166-55.2734 65.2832-48.1934 65.2832-37.5C65.2832-37.0117 65.2832-36.5234 65.332-35.9375L65.918-35.9375C68.2617-40.4297 73.5352-44.1406 81.1035-44.1406C91.6504-44.1406 100.098-37.1582 100.098-25.6348C100.098-12.4512 90.5273-4.49219 76.5137-4.49219ZM75.8789-15.0879C81.9336-15.0879 85.9375-19.1406 85.9375-25.1953C85.9375-31.0059 81.7871-35.1074 75.8789-35.1074C69.9707-35.1074 65.7715-30.957 65.7715-25.2441C65.7715-19.2871 70.0195-15.0879 75.8789-15.0879Z"/>
  </g>
  <g id="Semibold-L" transform="matrix(1 0 0 1 1968.44 1556)">
   <path d="M36.6211 23.584L113.037 23.584C126.514 23.584 133.594 16.5039 133.594 3.17383L133.594-73.5352C133.594-86.8164 126.514-93.9453 113.037-93.9453L36.6211-93.9453C23.1934-93.9453 16.0645-86.8652 16.0645-73.5352L16.0645 3.17383C16.0645 16.5527 23.1934 23.584 36.6211 23.584ZM75.5859-4.63867C67.1875-4.63867 59.9609-7.86133 55.8105-14.7949C53.0273-19.2871 51.4648-25.7812 51.4648-34.2773C51.4648-55.0781 61.1816-65.918 77.0996-65.918C85.7422-65.918 92.7246-61.8652 94.873-57.2266C95.4102-56.2012 95.752-55.1758 95.752-53.9551C95.752-51.3672 93.7988-49.6094 91.0645-49.6094C88.6719-49.6094 87.3535-50.6836 85.5469-52.3438C83.6426-54.5898 81.0547-56.4453 76.8555-56.4453C68.6035-56.4453 63.2324-48.7305 63.2324-36.7676C63.2324-36.3281 63.2812-35.9863 63.2812-35.498L63.8184-35.498C66.1621-40.2344 71.3867-44.1406 79.3457-44.1406C89.7949-44.1406 98.4375-37.1094 98.4375-25.4883C98.4375-12.4512 89.1113-4.63867 75.5859-4.63867ZM75.0488-13.8184C81.7871-13.8184 86.2305-18.3105 86.2305-25.0488C86.2305-31.4941 81.6406-36.0352 75.0977-36.0352C68.5547-36.0352 63.8672-31.4453 63.8672-25.0977C63.8672-18.5547 68.5547-13.8184 75.0488-13.8184Z"/>
  </g>
  <g id="Medium-L" transform="matrix(1 0 0 1 1672.31 1556)">
   <path d="M35.9375 22.998L112.5 22.998C125.635 22.998 132.422 16.2109 132.422 3.27148L132.422-73.6328C132.422-86.5234 125.635-93.3105 112.5-93.3105L35.9375-93.3105C22.9004-93.3105 16.0645-86.5723 16.0645-73.6328L16.0645 3.27148C16.0645 16.2598 22.9004 22.998 35.9375 22.998ZM74.8535-4.73633C66.8457-4.73633 59.7656-7.8125 55.6641-14.6484C52.9785-19.043 51.4648-25.4883 51.4648-34.0332C51.4648-54.9805 60.9375-65.8203 76.3672-65.8203C84.9609-65.8203 91.8945-61.5234 93.8965-56.9336C94.3359-56.0059 94.5801-55.0781 94.5801-54.0527C94.5801-51.709 92.8223-50.0977 90.4785-50.0977C88.2812-50.0977 87.0605-51.123 85.2539-52.8809C83.3984-55.3711 80.5664-57.3242 76.123-57.3242C67.4316-57.3242 61.7188-49.1211 61.7188-36.1816C61.7188-35.8398 61.7188-35.5469 61.7188-35.1562L62.207-35.1562C64.5508-40.0391 69.7754-44.1406 78.0273-44.1406C88.3789-44.1406 97.168-37.1094 97.168-25.3906C97.168-12.4512 88.0371-4.73633 74.8535-4.73633ZM74.4141-12.8906C81.7383-12.8906 86.4746-17.6758 86.4746-24.9512C86.4746-31.8848 81.543-36.7188 74.4629-36.7188C67.4316-36.7188 62.4512-31.7871 62.4512-25C62.4512-17.9688 67.4805-12.8906 74.4141-12.8906Z"/>
  </g>
  <g id="Regular-L" transform="matrix(1 0 0 1 1376.38 1556)">
   <path d="M35.0586 22.2168L111.816 22.2168C124.463 22.2168 130.859 15.8691 130.859 3.41797L130.859-73.7305C130.859-86.1816 124.463-92.5293 111.816-92.5293L35.0586-92.5293C22.4609-92.5293 16.0645-86.2305 16.0645-73.7305L16.0645 3.41797C16.0645 15.918 22.4609 22.2168 35.0586 22.2168ZM73.9258-4.83398C66.4062-4.83398 59.5215-7.76367 55.5176-14.502C52.9785-18.7012 51.4648-25.1465 51.4648-33.7402C51.4648-54.834 60.5957-65.6738 75.4395-65.6738C83.9844-65.6738 90.7715-61.1328 92.5781-56.543C92.9199-55.7129 93.0664-54.9805 93.0664-54.1016C93.0664-52.0996 91.6016-50.7324 89.6973-50.7324C87.7441-50.7324 86.6699-51.7578 84.9121-53.5645C83.0078-56.3477 79.8828-58.4961 75.1465-58.4961C65.8691-58.4961 59.7168-49.6094 59.7168-35.4492L59.7168-34.7168L60.1562-34.7168C62.4512-39.7949 67.627-44.1406 76.3184-44.1406C86.5723-44.1406 95.5078-37.1094 95.5078-25.2441C95.5078-12.4512 86.6211-4.83398 73.9258-4.83398ZM73.6328-11.6699C81.5918-11.6699 86.7676-16.8457 86.7676-24.8047C86.7676-32.373 81.3965-37.6465 73.6816-37.6465C66.0156-37.6465 60.5469-32.2754 60.5469-24.9023C60.5469-17.2363 66.0156-11.6699 73.6328-11.6699Z"/>
  </g>
  <g id="Light-L" transform="matrix(1 0 0 1 1080.5 1556)">
   <path d="M34.0332 21.4355L111.23 21.4355C123.096 21.4355 129.199 15.2344 129.199 3.56445L129.199-73.8281C129.199-85.5469 123.096-91.6992 111.23-91.6992L34.0332-91.6992C22.168-91.6992 16.0645-85.6445 16.0645-73.8281L16.0645 3.56445C16.0645 15.3809 22.168 21.4355 34.0332 21.4355ZM73.0469-5.56641C65.625-5.56641 59.0332-8.64258 55.3711-15.1367C53.0273-19.1895 51.709-25.5371 51.709-33.5938C51.709-54.0039 60.2539-64.9902 74.3652-64.9902C83.0566-64.9902 89.502-60.0098 91.0156-55.7129C91.2598-55.0781 91.4062-54.541 91.4062-53.8086C91.4062-52.1973 90.2344-51.1719 88.6719-51.1719C87.1582-51.1719 86.3281-51.9531 85.0586-53.4668C83.1055-56.8359 79.248-59.2773 74.1699-59.2773C64.3066-59.2773 58.0078-49.9023 58.0078-34.5215L58.0078-33.7891L58.3984-33.7891C60.9863-39.3555 66.3574-43.6035 74.9512-43.6035C85.2051-43.6035 93.6035-36.4258 93.6035-25.1953C93.6035-13.0859 85.2051-5.56641 73.0469-5.56641ZM72.9004-10.9375C81.3477-10.9375 86.8652-16.4551 86.8652-24.8047C86.8652-32.8613 81.2012-38.3789 72.998-38.3789C64.7949-38.3789 58.9355-32.7148 58.9355-24.9023C58.9355-16.7969 64.7949-10.9375 72.9004-10.9375Z"/>
  </g>
  <g id="Thin-L" transform="matrix(1 0 0 1 784.889 1556)">
   <path d="M32.666 20.3613L110.352 20.3613C121.24 20.3613 127.002 14.4531 127.002 3.75977L127.002-73.9746C127.002-84.7168 121.24-90.5762 110.352-90.5762L32.666-90.5762C21.7773-90.5762 16.0645-84.8633 16.0645-73.9746L16.0645 3.75977C16.0645 14.6484 21.7773 20.3613 32.666 20.3613ZM71.875-6.49414C64.5996-6.49414 58.3984-9.86328 55.127-15.9668C53.125-19.7754 51.9531-26.0254 51.9531-33.4473C51.9531-52.8809 59.8145-64.0625 72.998-64.0625C81.8848-64.0625 87.8418-58.4961 88.916-54.6387C89.0625-54.248 89.1602-53.9062 89.1602-53.4668C89.1602-52.3438 88.4766-51.709 87.3535-51.709C86.4258-51.709 85.9375-52.1973 85.2539-53.3203C83.252-57.5195 78.418-60.3027 72.9004-60.3027C62.3047-60.3027 55.8105-50.293 55.8105-33.3496L55.8105-32.6172L56.1035-32.6172C59.0332-38.7207 64.6484-42.9199 73.1934-42.9199C83.3984-42.9199 91.1133-35.498 91.1133-25.1465C91.1133-13.916 83.3496-6.49414 71.875-6.49414ZM71.9238-10.0098C81.0059-10.0098 86.9629-15.8691 86.9629-24.8047C86.9629-33.4961 80.9082-39.3555 72.0703-39.3555C63.2324-39.3555 56.8359-33.252 56.8359-24.9023C56.8359-16.2598 63.1836-10.0098 71.9238-10.0098Z"/>
  </g>
  <g id="Ultralight-L" transform="matrix(1 0 0 1 488.739 1556)">
   <path d="M31.9824 19.7754L109.961 19.7754C120.312 19.7754 125.879 14.0625 125.879 3.85742L125.879-74.0723C125.879-84.2773 120.312-89.9902 109.961-89.9902L31.9824-89.9902C21.582-89.9902 16.0645-84.4727 16.0645-74.0723L16.0645 3.85742C16.0645 14.2578 21.582 19.7754 31.9824 19.7754ZM71.2891-6.93359C64.0625-6.93359 58.0566-10.498 55.0293-16.4062C53.1738-20.0684 52.0996-26.3184 52.0996-33.3984C52.0996-52.2949 59.5703-63.5742 72.2656-63.5742C81.25-63.5742 87.0117-57.7637 87.8906-54.0527C87.9395-53.8086 87.9883-53.6133 87.9883-53.2715C87.9883-52.4414 87.5488-51.9531 86.6699-51.9531C86.0352-51.9531 85.6934-52.2949 85.3516-53.2715C83.3496-57.8613 77.9785-60.8398 72.2168-60.8398C61.2793-60.8398 54.6875-50.4883 54.6875-32.7148L54.6875-31.9824L54.9316-31.9824C58.0566-38.4277 63.7695-42.5781 72.2656-42.5781C82.4707-42.5781 89.8438-35.0586 89.8438-25.1465C89.8438-14.3066 82.373-6.93359 71.2891-6.93359ZM71.4355-9.57031C80.8105-9.57031 87.0605-15.5762 87.0605-24.8047C87.0605-33.8379 80.7617-39.8438 71.582-39.8438C62.4023-39.8438 55.7617-33.5449 55.7617-24.9023C55.7617-16.0156 62.3047-9.57031 71.4355-9.57031Z"/>
  </g>
  <g id="Black-M" transform="matrix(1 0 0 1 2872.19 1126)">
   <path d="M31.9824 13.5742L90.4297 13.5742C102.686 13.5742 109.961 6.29883 109.961-5.95703L109.961-64.4043C109.961-76.6602 102.686-83.9355 90.4297-83.9355L31.9824-83.9355C19.7266-83.9355 12.4512-76.6602 12.4512-64.4043L12.4512-5.95703C12.4512 6.29883 19.7266 13.5742 31.9824 13.5742ZM62.4023-11.2793C53.7109-11.2793 47.4609-14.7461 43.8477-20.5566C41.2598-24.6094 39.9414-29.834 39.9414-35.9863C39.9414-50.7812 48.6816-59.2285 63.6719-59.2285C70.6543-59.2285 76.3672-57.2266 78.8574-53.6621C79.7852-52.3438 80.3711-50.8789 80.3711-49.2676C80.3711-45.8496 77.832-43.5547 73.7793-43.5547C70.8984-43.5547 69.4336-44.4824 67.9688-45.166C66.6016-45.9473 65.5273-46.6797 63.5254-46.6797C59.668-46.6797 57.5684-43.5059 57.5684-39.4531C57.5684-38.6719 57.6172-37.8418 57.7637-37.0117L58.3008-37.0117C60.3027-39.9414 64.6484-41.8457 68.9453-41.8457C77.4414-41.8457 83.0566-36.4258 83.0566-28.3691C83.0566-17.9688 74.8535-11.2793 62.4023-11.2793ZM61.5234-24.0723C63.8184-24.0723 65.4785-25.6836 65.4785-27.9785C65.4785-30.2734 63.8184-31.9336 61.5234-31.9336C59.1797-31.9336 57.5195-30.2734 57.5195-27.9785C57.5195-25.6348 59.1797-24.0723 61.5234-24.0723Z"/>
  </g>
  <g id="Heavy-M" transform="matrix(1 0 0 1 2576.39 1126)">
   <path d="M31.0059 12.6465L89.6484 12.6465C101.416 12.6465 108.154 5.9082 108.154-5.81055L108.154-64.5508C108.154-76.2695 101.416-83.0566 89.6484-83.0566L31.0059-83.0566C19.2383-83.0566 12.4512-76.3184 12.4512-64.5508L12.4512-5.81055C12.4512 5.9082 19.2383 12.6465 31.0059 12.6465ZM61.3281-11.2793C53.2715-11.2793 47.2168-14.4531 43.6523-20.1172C41.2109-24.0234 39.9414-29.1992 39.9414-35.5469C39.9414-50.7812 48.3398-59.2285 62.5977-59.2285C69.4824-59.2285 75.1465-56.9336 77.3926-53.3203C78.1738-52.1484 78.6621-50.8789 78.6621-49.4629C78.6621-46.4355 76.416-44.3359 72.9004-44.3359C70.3125-44.3359 68.8965-45.2637 67.4805-46.1914C66.0645-47.168 64.7461-48.0957 62.4023-48.0957C57.8613-48.0957 55.127-44.1406 55.127-38.623C55.127-37.9883 55.1758-37.3047 55.2734-36.6211L55.7617-36.6211C57.7148-39.7461 61.9141-41.9922 66.7969-41.9922C75.1465-41.9922 81.1523-36.5723 81.1523-28.1738C81.1523-17.7734 73.2422-11.2793 61.3281-11.2793ZM60.5957-22.4609C63.7207-22.4609 65.8691-24.6582 65.8691-27.7832C65.8691-30.8594 63.6719-33.0566 60.5957-33.0566C57.4219-33.0566 55.2246-30.8594 55.2246-27.7832C55.2246-24.6582 57.4707-22.4609 60.5957-22.4609Z"/>
  </g>
  <g id="Bold-M" transform="matrix(1 0 0 1 2280.68 1126)">
   <path d="M29.8828 11.6699L88.7207 11.6699C99.9512 11.6699 106.152 5.46875 106.152-5.66406L106.152-64.6973C106.152-75.8789 99.9512-82.0312 88.7207-82.0312L29.8828-82.0312C18.6523-82.0312 12.4512-75.8789 12.4512-64.6973L12.4512-5.66406C12.4512 5.51758 18.6523 11.6699 29.8828 11.6699ZM60.1074-11.2793C52.7832-11.2793 46.9238-14.0625 43.457-19.6777C41.1133-23.3887 39.8926-28.5156 39.8926-35.0586C39.8926-50.8301 47.9492-59.2285 61.377-59.2285C68.1152-59.2285 73.7305-56.5918 75.7324-52.9297C76.3672-51.9043 76.709-50.8789 76.709-49.6582C76.709-47.0703 74.8047-45.2637 71.9238-45.2637C69.6289-45.2637 68.3594-46.1914 66.8457-47.3633C65.4297-48.584 63.916-49.707 61.1816-49.707C55.8105-49.707 52.3926-44.8242 52.3926-37.6953C52.3926-37.207 52.3926-36.7188 52.4902-36.1816L52.9297-36.1816C54.7852-39.502 58.8867-42.1387 64.4043-42.1387C72.6562-42.1387 79.0527-36.7188 79.0527-27.9297C79.0527-17.5781 71.3867-11.2793 60.1074-11.2793ZM59.5215-20.7031C63.623-20.7031 66.3086-23.4863 66.3086-27.5879C66.3086-31.4941 63.5254-34.2773 59.5215-34.2773C55.5176-34.2773 52.6855-31.4941 52.6855-27.5879C52.6855-23.584 55.5176-20.7031 59.5215-20.7031Z"/>
  </g>
  <g id="Semibold-M" transform="matrix(1 0 0 1 1984.65 1126)">
   <path d="M29.1016 10.9863L88.0859 10.9863C98.9746 10.9863 104.785 5.17578 104.785-5.56641L104.785-64.8438C104.785-75.5859 98.9746-81.3477 88.0859-81.3477L29.1016-81.3477C18.2617-81.3477 12.4512-75.5859 12.4512-64.8438L12.4512-5.56641C12.4512 5.22461 18.2617 10.9863 29.1016 10.9863ZM59.2773-11.2793C52.4902-11.2793 46.7285-13.8672 43.3594-19.3359C41.0645-22.9492 39.8438-28.0273 39.8438-34.7168C39.8438-50.8789 47.6562-59.2285 60.5469-59.2285C67.1875-59.2285 72.7539-56.3477 74.6094-52.6855C75.1465-51.7578 75.3906-50.8301 75.3906-49.7559C75.3906-47.5098 73.6816-45.8984 71.2402-45.8984C69.1406-45.8984 67.9688-46.8262 66.4551-48.1445C65.0391-49.5605 63.3301-50.8301 60.3027-50.8301C54.3945-50.8301 50.4883-45.3125 50.4883-37.0117C50.4883-36.6699 50.5371-36.3281 50.5371-35.8887L50.9766-35.8887C52.7344-39.3066 56.7871-42.2363 62.793-42.2363C70.8984-42.2363 77.6367-36.8652 77.6367-27.7832C77.6367-17.4316 70.166-11.2793 59.2773-11.2793ZM58.7891-19.4824C63.5254-19.4824 66.6504-22.6562 66.6504-27.4414C66.6504-31.9824 63.4277-35.1562 58.7891-35.1562C54.1992-35.1562 50.9277-31.9336 50.9277-27.4414C50.9277-22.8027 54.1992-19.4824 58.7891-19.4824Z"/>
  </g>
  <g id="Medium-M" transform="matrix(1 0 0 1 1688.47 1126)">
   <path d="M28.5156 10.4492L87.6465 10.4492C98.2422 10.4492 103.711 4.98047 103.711-5.46875L103.711-64.8926C103.711-75.3418 98.2422-80.8105 87.6465-80.8105L28.5156-80.8105C17.9688-80.8105 12.4512-75.3906 12.4512-64.8926L12.4512-5.46875C12.4512 4.98047 17.9688 10.4492 28.5156 10.4492ZM58.6426-11.2793C52.2461-11.2793 46.582-13.6719 43.2617-19.0918C41.0645-22.6074 39.7949-27.6855 39.7949-34.4727C39.7949-50.8789 47.4609-59.2285 59.9121-59.2285C66.5039-59.2285 72.0215-56.1523 73.7793-52.4902C74.1699-51.6602 74.4141-50.8301 74.4141-49.9023C74.4141-47.8027 72.8516-46.3867 70.752-46.3867C68.7988-46.3867 67.7246-47.3145 66.1621-48.7305C64.6973-50.3418 62.8906-51.709 59.668-51.709C53.3203-51.709 49.0723-45.7031 49.0723-36.5234C49.0723-36.2305 49.0723-35.9863 49.1211-35.6445L49.5117-35.6445C51.2207-39.209 55.2246-42.334 61.5234-42.334C69.5801-42.334 76.5137-36.9629 76.5137-27.6367C76.5137-17.334 69.1895-11.2793 58.6426-11.2793ZM58.2031-18.5547C63.4766-18.5547 66.8945-22.0215 66.8945-27.2949C66.8945-32.3242 63.3301-35.8398 58.252-35.8398C53.1738-35.8398 49.5605-32.2754 49.5605-27.3438C49.5605-22.2656 53.1738-18.5547 58.2031-18.5547Z"/>
  </g>
  <g id="Regular-M" transform="matrix(1 0 0 1 1392.45 1126)">
   <path d="M27.7832 9.76562L87.0117 9.76562C97.2656 9.76562 102.344 4.6875 102.344-5.37109L102.344-64.9902C102.344-75.0488 97.2656-80.127 87.0117-80.127L27.7832-80.127C17.5781-80.127 12.4512-75.0977 12.4512-64.9902L12.4512-5.37109C12.4512 4.73633 17.5781 9.76562 27.7832 9.76562ZM57.8125-11.2793C51.9043-11.2793 46.3867-13.4277 43.1152-18.7988C41.0156-22.168 39.7949-27.1973 39.7949-34.1309C39.7949-50.9277 47.168-59.2285 59.082-59.2285C65.5762-59.2285 71.0449-55.957 72.6562-52.2461C72.9492-51.5137 73.0957-50.8301 73.0957-50C73.0957-48.2422 71.7285-47.0215 70.0684-47.0215C68.3105-47.0215 67.334-47.9004 65.7227-49.5117C64.2578-51.2695 62.3047-52.7832 58.7891-52.7832C51.9043-52.7832 47.2168-46.1914 47.2168-35.8887L47.2168-35.3516L47.6074-35.3516C49.2188-39.0137 53.1738-42.4316 59.9121-42.4316C67.8711-42.4316 75.0977-37.0605 75.0977-27.4902C75.0977-17.1875 67.9688-11.2793 57.8125-11.2793ZM57.4707-17.334C63.3789-17.334 67.1875-21.2402 67.1875-27.1484C67.1875-32.7637 63.2324-36.6699 57.5195-36.6699C51.8555-36.6699 47.8027-32.7148 47.8027-27.1973C47.8027-21.4844 51.9043-17.334 57.4707-17.334Z"/>
  </g>
  <g id="Light-M" transform="matrix(1 0 0 1 1096.47 1126)">
   <path d="M26.8555 9.0332L86.4746 9.0332C95.9961 9.0332 100.879 4.15039 100.879-5.22461L100.879-65.0879C100.879-74.5117 95.9961-79.3945 86.4746-79.3945L26.8555-79.3945C17.334-79.3945 12.4512-74.5605 12.4512-65.0879L12.4512-5.22461C12.4512 4.19922 17.334 9.0332 26.8555 9.0332ZM57.0312-11.9141C51.2207-11.9141 45.9473-14.2578 42.9688-19.3848C41.0645-22.6074 39.9902-27.5391 39.9902-34.0332C39.9902-50.1465 46.875-58.5938 58.1055-58.5938C64.7949-58.5938 69.9219-54.9316 71.2402-51.4648C71.4355-50.9277 71.582-50.3906 71.582-49.7559C71.582-48.3398 70.5566-47.4121 69.1895-47.4121C67.8223-47.4121 67.041-48.0957 65.8691-49.4141C64.3555-51.7578 61.7188-53.5156 57.9102-53.5156C50.5371-53.5156 45.7031-46.4844 45.7031-35.1074L45.7031-34.5215L46.0449-34.5215C47.9004-38.623 52.002-41.9434 58.6914-41.9434C66.6504-41.9434 73.3887-36.4746 73.3887-27.4902C73.3887-17.7734 66.6992-11.9141 57.0312-11.9141ZM56.8359-16.748C63.1348-16.748 67.2852-20.8496 67.2852-27.1484C67.2852-33.1543 63.0371-37.3535 56.8848-37.3535C50.7812-37.3535 46.3867-33.1055 46.3867-27.1973C46.3867-21.1426 50.7812-16.748 56.8359-16.748Z"/>
  </g>
  <g id="Thin-M" transform="matrix(1 0 0 1 800.758 1126)">
   <path d="M25.6348 8.05664L85.7422 8.05664C94.3848 8.05664 98.877 3.4668 98.877-5.0293L98.877-65.2344C98.877-73.7305 94.3848-78.3691 85.7422-78.3691L25.6348-78.3691C16.9922-78.3691 12.4512-73.877 12.4512-65.2344L12.4512-5.0293C12.4512 3.56445 16.9922 8.05664 25.6348 8.05664ZM55.957-12.7441C50.293-12.7441 45.4102-15.332 42.7734-20.1172C41.1621-23.0957 40.2344-27.9785 40.2344-33.8867C40.2344-49.1211 46.4355-57.7637 56.8848-57.7637C63.7207-57.7637 68.457-53.6133 69.3848-50.4883C69.4824-50.1465 69.5801-49.8535 69.5801-49.4141C69.5801-48.4863 68.9453-47.8516 67.9688-47.8516C67.1387-47.8516 66.6992-48.291 66.0645-49.2676C64.502-52.3438 60.9375-54.4434 56.7871-54.4434C48.7305-54.4434 43.75-46.8262 43.75-34.0332L43.75-33.4473L43.9941-33.4473C46.1914-38.0859 50.4395-41.3574 57.0801-41.3574C65.0391-41.3574 71.1426-35.6445 71.1426-27.4414C71.1426-18.5059 64.9902-12.7441 55.957-12.7441ZM55.957-15.918C62.8418-15.918 67.3828-20.3613 67.3828-27.1484C67.3828-33.7402 62.7441-38.2324 56.0547-38.2324C49.3652-38.2324 44.5312-33.5938 44.5312-27.1973C44.5312-20.6543 49.3164-15.918 55.957-15.918Z"/>
  </g>
  <g id="Ultralight-M" transform="matrix(1 0 0 1 504.535 1126)">
   <path d="M25 7.56836L85.3516 7.56836C93.5059 7.56836 97.9004 3.125 97.9004-4.98047L97.9004-65.2832C97.9004-73.3887 93.5059-77.832 85.3516-77.832L25-77.832C16.7969-77.832 12.4512-73.4863 12.4512-65.2832L12.4512-4.98047C12.4512 3.22266 16.7969 7.56836 25 7.56836ZM55.4199-13.1836C49.8047-13.1836 45.1172-15.8691 42.6758-20.5078C41.2109-23.3887 40.332-28.2227 40.332-33.8379C40.332-48.6328 46.2402-57.373 56.25-57.373C63.1348-57.373 67.6758-52.8809 68.4082-50C68.457-49.7559 68.5547-49.5605 68.5547-49.2676C68.5547-48.5352 68.1152-48.0957 67.3828-48.0957C66.7969-48.0957 66.5039-48.4375 66.1133-49.2188C64.5508-52.6855 60.5469-54.9316 56.1523-54.9316C47.8027-54.9316 42.7246-46.9727 42.7246-33.4473L42.7246-32.9102L42.9199-32.9102C45.3125-37.793 49.6582-41.0156 56.2988-41.0156C64.209-41.0156 70.0195-35.2051 70.0195-27.3926C70.0195-18.8965 64.1113-13.1836 55.4199-13.1836ZM55.5176-15.4785C62.6953-15.4785 67.4316-20.1172 67.4316-27.1484C67.4316-34.0332 62.6465-38.6719 55.6152-38.6719C48.6328-38.6719 43.5547-33.8379 43.5547-27.1973C43.5547-20.4102 48.5352-15.4785 55.5176-15.4785Z"/>
  </g>
  <g id="Black-S" transform="matrix(1 0 0 1 2885.5 696)">
   <path d="M25 2.92969L70.8008 2.92969C80.3711 2.92969 86.0352-2.73438 86.0352-12.3047L86.0352-58.1055C86.0352-67.6758 80.3711-73.3398 70.8008-73.3398L25-73.3398C15.4297-73.3398 9.76562-67.6758 9.76562-58.1055L9.76562-12.3047C9.76562-2.73438 15.4297 2.92969 25 2.92969ZM48.8281-16.4551C42.041-16.4551 37.1582-19.1406 34.3262-23.6816C32.3242-26.8555 31.2988-30.957 31.2988-35.791C31.2988-47.4121 38.1348-54.0527 49.8047-54.0527C55.2734-54.0527 59.7656-52.4414 61.6699-49.6582C62.4023-48.6328 62.8418-47.5098 62.8418-46.2402C62.8418-43.6035 60.8887-41.7969 57.7637-41.7969C55.5176-41.7969 54.3457-42.5293 53.2227-43.1152C52.1484-43.7012 51.2695-44.2871 49.707-44.2871C46.6309-44.2871 44.9219-41.748 44.9219-38.4766C44.9219-37.8906 44.9707-37.2559 45.0684-36.6211L45.5078-36.6211C47.0703-38.916 50.4395-40.4297 53.8574-40.4297C60.498-40.4297 64.9414-36.1816 64.9414-29.834C64.9414-21.6797 58.5449-16.4551 48.8281-16.4551ZM48.1445-26.3672C50-26.3672 51.3184-27.6855 51.3184-29.541C51.3184-31.3965 50-32.7148 48.1445-32.7148C46.2402-32.7148 44.9219-31.3965 44.9219-29.541C44.9219-27.6367 46.2402-26.3672 48.1445-26.3672Z"/>
  </g>
  <g id="Heavy-S" transform="matrix(1 0 0 1 2589.4 696)">
   <path d="M24.3652 2.34375L70.2637 2.34375C79.541 2.34375 84.8145-2.97852 84.8145-12.207L84.8145-58.2031C84.8145-67.4316 79.541-72.7539 70.2637-72.7539L24.3652-72.7539C15.0879-72.7539 9.76562-67.4316 9.76562-58.2031L9.76562-12.207C9.76562-2.97852 15.0879 2.34375 24.3652 2.34375ZM48.0957-16.4062C41.7969-16.4062 37.0117-18.7988 34.2285-23.291C32.2754-26.3672 31.25-30.4199 31.25-35.4492C31.25-47.5098 37.8906-54.1016 49.0723-54.1016C54.4434-54.1016 58.9355-52.3438 60.6934-49.4629C61.3281-48.5352 61.7188-47.5586 61.7188-46.3867C61.7188-44.043 59.9121-42.3828 57.1777-42.3828C55.127-42.3828 54.0039-43.1152 52.7832-43.8965C51.709-44.6289 50.7324-45.3125 48.9258-45.3125C45.3613-45.3125 43.2129-42.1875 43.2129-37.9395C43.2129-37.4512 43.2617-36.9141 43.3105-36.4258L43.75-36.4258C45.2148-38.8184 48.4863-40.5762 52.3438-40.5762C58.8867-40.5762 63.6719-36.377 63.6719-29.6875C63.6719-21.4844 57.4219-16.4062 48.0957-16.4062ZM47.5098-25.2441C49.9512-25.2441 51.6113-26.9043 51.6113-29.3945C51.6113-31.7871 49.9023-33.4961 47.5098-33.4961C45.0195-33.4961 43.3105-31.7871 43.3105-29.3945C43.3105-26.9531 45.0684-25.2441 47.5098-25.2441Z"/>
  </g>
  <g id="Bold-S" transform="matrix(1 0 0 1 2293.35 696)">
   <path d="M23.6328 1.66016L69.6289 1.66016C78.6133 1.66016 83.4961-3.22266 83.4961-12.1094L83.4961-58.3008C83.4961-67.1875 78.6133-72.0703 69.6289-72.0703L23.6328-72.0703C14.6973-72.0703 9.76562-67.1875 9.76562-58.3008L9.76562-12.1094C9.76562-3.22266 14.6973 1.66016 23.6328 1.66016ZM47.2656-16.3086C41.5039-16.3086 36.8652-18.457 34.082-22.8516C32.2266-25.8301 31.2012-29.8828 31.2012-35.1074C31.2012-47.6562 37.6465-54.1992 48.291-54.1992C53.5156-54.1992 58.0078-52.1973 59.6191-49.2676C60.1562-48.4375 60.4492-47.5586 60.4492-46.582C60.4492-44.4824 58.8379-43.0664 56.543-43.0664C54.6387-43.0664 53.6133-43.7988 52.3438-44.7754C51.2207-45.6543 50.1953-46.4844 48.0957-46.4844C43.9941-46.4844 41.3086-42.7246 41.3086-37.3047C41.3086-36.9629 41.3574-36.5723 41.4062-36.1816L41.7969-36.1816C43.1152-38.6719 46.3379-40.7715 50.6836-40.7715C57.1289-40.7715 62.3047-36.5723 62.3047-29.4922C62.3047-21.2402 56.2012-16.3086 47.2656-16.3086ZM46.7285-23.9746C49.9023-23.9746 51.9531-26.0742 51.9531-29.248C51.9531-32.2266 49.8047-34.375 46.7773-34.375C43.7012-34.375 41.5527-32.2266 41.5527-29.248C41.5527-26.123 43.7012-23.9746 46.7285-23.9746Z"/>
  </g>
  <g id="Semibold-S" transform="matrix(1 0 0 1 1997.1 696)">
   <path d="M23.0957 1.17188L69.1895 1.17188C77.9297 1.17188 82.5684-3.36914 82.5684-12.0117L82.5684-58.3984C82.5684-67.041 77.9297-71.582 69.1895-71.582L23.0957-71.582C14.4043-71.582 9.76562-67.041 9.76562-58.3984L9.76562-12.0117C9.76562-3.36914 14.4043 1.17188 23.0957 1.17188ZM46.6797-16.2598C41.3574-16.2598 36.7676-18.2129 34.0332-22.5586C32.1777-25.4883 31.1523-29.4434 31.1523-34.8633C31.1523-47.7539 37.4512-54.248 47.7051-54.248C52.8809-54.248 57.373-52.0996 58.8867-49.1699C59.3262-48.3887 59.5703-47.6074 59.5703-46.7285C59.5703-44.8242 58.1055-43.5059 56.1035-43.5059C54.3457-43.5059 53.3691-44.2871 52.002-45.4102C50.8789-46.3379 49.7559-47.2656 47.5098-47.2656C43.0176-47.2656 39.9902-43.0664 39.9902-36.9141C39.9902-36.6211 40.0391-36.3281 40.0391-35.9863L40.4297-35.9863C41.6992-38.5742 44.8242-40.8691 49.5117-40.8691C55.9082-40.8691 61.3281-36.7188 61.3281-29.3945C61.3281-21.0938 55.3223-16.2598 46.6797-16.2598ZM46.2402-23.0469C49.8535-23.0469 52.1973-25.4883 52.1973-29.1016C52.1973-32.5195 49.7559-34.9609 46.2402-34.9609C42.7734-34.9609 40.332-32.5195 40.332-29.1504C40.332-25.5859 42.7734-23.0469 46.2402-23.0469Z"/>
  </g>
  <g id="Medium-S" transform="matrix(1 0 0 1 1700.75 696)">
   <path d="M22.7051 0.830078L68.8965 0.830078C77.4414 0.830078 81.8359-3.51562 81.8359-11.9629L81.8359-58.4473C81.8359-66.8945 77.4414-71.2402 68.8965-71.2402L22.7051-71.2402C14.209-71.2402 9.76562-66.8945 9.76562-58.4473L9.76562-11.9629C9.76562-3.51562 14.209 0.830078 22.7051 0.830078ZM46.2402-16.2109C41.2109-16.2109 36.6699-18.0176 33.9355-22.3633C32.1289-25.1953 31.1035-29.1504 31.1035-34.668C31.1035-47.8027 37.3047-54.2969 47.2656-54.2969C52.3926-54.2969 56.8359-52.0508 58.3496-49.0234C58.6914-48.3398 58.8867-47.6074 58.8867-46.8262C58.8867-45.0684 57.5195-43.8477 55.7617-43.8477C54.1016-43.8477 53.125-44.6289 51.7578-45.8496C50.6348-46.875 49.4629-47.8516 47.0703-47.8516C42.2852-47.8516 39.0137-43.3594 39.0137-36.5723C39.0137-36.3281 39.0137-36.1328 39.0137-35.8887L39.4043-35.8887C40.625-38.5254 43.7012-40.9668 48.6816-40.9668C54.9805-40.9668 60.5957-36.8164 60.5957-29.2969C60.5957-20.9961 54.6875-16.2109 46.2402-16.2109ZM45.8496-22.4121C49.8047-22.4121 52.3926-25.0488 52.3926-29.0039C52.3926-32.7637 49.707-35.4492 45.8496-35.4492C42.041-35.4492 39.3555-32.7637 39.3555-29.0527C39.3555-25.1953 42.0898-22.4121 45.8496-22.4121Z"/>
  </g>
  <g id="Regular-S" transform="matrix(1 0 0 1 1404.51 696)">
   <path d="M22.2168 0.390625L68.457 0.390625C76.8066 0.390625 80.9082-3.71094 80.9082-11.9141L80.9082-58.4961C80.9082-66.6992 76.8066-70.8008 68.457-70.8008L22.2168-70.8008C13.916-70.8008 9.76562-66.6992 9.76562-58.4961L9.76562-11.9141C9.76562-3.71094 13.916 0.390625 22.2168 0.390625ZM45.6543-16.1621C41.0156-16.1621 36.5723-17.7734 33.8867-22.0703C32.0801-24.8047 31.1035-28.7598 31.1035-34.4238C31.1035-47.9004 37.1094-54.3457 46.7285-54.3457C51.7578-54.3457 56.2012-51.9531 57.6172-48.9258C57.8613-48.2422 58.0078-47.6562 58.0078-46.9238C58.0078-45.3613 56.7871-44.2871 55.3223-44.2871C53.7598-44.2871 52.8809-45.1172 51.416-46.4844C50.293-47.5586 49.0723-48.6328 46.4844-48.6328C41.3574-48.6328 37.6953-43.7012 37.6953-36.1328L37.6953-35.6934L38.0371-35.6934C39.209-38.4277 42.1875-41.1133 47.5098-41.1133C53.7598-41.1133 59.668-36.9629 59.668-29.1992C59.668-20.8496 53.8574-16.1621 45.6543-16.1621ZM45.3613-21.5332C49.7559-21.5332 52.5879-24.4629 52.5879-28.9062C52.5879-33.0566 49.6094-36.0352 45.3613-36.0352C41.1621-36.0352 38.1348-33.0566 38.1348-28.9551C38.1348-24.6582 41.1621-21.5332 45.3613-21.5332Z"/>
  </g>
  <g id="Light-S" transform="matrix(1 0 0 1 1108.46 696)">
   <path d="M21.3867-0.292969L67.9688-0.292969C75.7324-0.292969 79.5898-4.15039 79.5898-11.7676L79.5898-58.5938C79.5898-66.2109 75.7324-70.1172 67.9688-70.1172L21.3867-70.1172C13.6719-70.1172 9.76562-66.2598 9.76562-58.5938L9.76562-11.7676C9.76562-4.15039 13.6719-0.292969 21.3867-0.292969ZM44.9707-16.6992C40.3809-16.6992 36.1816-18.457 33.7402-22.5586C32.1289-25.1465 31.25-29.0527 31.25-34.3262C31.25-47.2168 36.8164-53.8086 45.8984-53.8086C51.0742-53.8086 55.2246-51.0254 56.3477-48.2422C56.543-47.7539 56.6895-47.2656 56.6895-46.7285C56.6895-45.459 55.7129-44.6289 54.541-44.6289C53.3203-44.6289 52.6367-45.2637 51.5625-46.3867C50.3906-47.998 48.584-49.2676 45.7031-49.2676C40.1367-49.2676 36.377-43.9453 36.377-35.4492L36.377-35.0098L36.6699-35.0098C38.0371-38.0371 41.1621-40.6738 46.4355-40.6738C52.6855-40.6738 58.1543-36.4258 58.1543-29.1504C58.1543-21.3379 52.7344-16.6992 44.9707-16.6992ZM44.7754-20.9961C49.5605-20.9961 52.6855-24.1211 52.6855-28.9062C52.6855-33.4473 49.4629-36.6211 44.8242-36.6211C40.1855-36.6211 36.9141-33.3984 36.9141-28.9551C36.9141-24.3164 40.1855-20.9961 44.7754-20.9961Z"/>
  </g>
  <g id="Thin-S" transform="matrix(1 0 0 1 812.599 696)">
   <path d="M20.3125-1.12305L67.334-1.12305C74.2676-1.12305 77.8809-4.78516 77.8809-11.6211L77.8809-58.6914C77.8809-65.5762 74.2676-69.2383 67.334-69.2383L20.3125-69.2383C13.3789-69.2383 9.76562-65.625 9.76562-58.6914L9.76562-11.6211C9.76562-4.6875 13.3789-1.12305 20.3125-1.12305ZM44.043-17.4316C39.5996-17.4316 35.6934-19.4336 33.5449-23.2422C32.2266-25.6348 31.4453-29.4922 31.4453-34.2285C31.4453-46.3379 36.4746-53.0762 44.7754-53.0762C50.0977-53.0762 53.9062-49.8535 54.6875-47.3633C54.834-47.0703 54.8828-46.7773 54.8828-46.4355C54.8828-45.5566 54.2969-45.0195 53.5156-45.0195C52.7344-45.0195 52.2949-45.4102 51.709-46.2891C50.4883-48.5352 47.9004-50.0977 44.6777-50.0977C38.5254-50.0977 34.668-44.2383 34.668-34.4727L34.668-34.0332L34.8633-34.0332C36.5234-37.5488 39.8438-40.1367 45.0195-40.1367C51.2695-40.1367 56.2012-35.6934 56.2012-29.1504C56.2012-21.9727 51.2207-17.4316 44.043-17.4316ZM43.9941-20.2637C49.3164-20.2637 52.7832-23.6816 52.7832-28.9062C52.7832-33.9355 49.2188-37.4023 44.0918-37.4023C38.916-37.4023 35.2539-33.8379 35.2539-28.9551C35.2539-23.9258 38.916-20.2637 43.9941-20.2637Z"/>
  </g>
  <g id="Ultralight-S" transform="matrix(1 0 0 1 516.352 696)">
   <path d="M19.7754-1.5625L66.9922-1.5625C73.5352-1.5625 76.9531-5.12695 76.9531-11.5234L76.9531-58.7891C76.9531-65.2344 73.5352-68.75 66.9922-68.75L19.7754-68.75C13.2324-68.75 9.76562-65.2832 9.76562-58.7891L9.76562-11.5234C9.76562-5.0293 13.2324-1.5625 19.7754-1.5625ZM43.5547-17.8223C39.1602-17.8223 35.4004-19.9219 33.4473-23.584C32.2754-25.8789 31.543-29.6875 31.543-34.1309C31.543-45.8496 36.2793-52.6855 44.2383-52.6855C49.6094-52.6855 53.2227-49.2676 53.8574-46.9238C53.9062-46.7285 53.9551-46.5332 53.9551-46.2891C53.9551-45.6543 53.5645-45.2637 52.9785-45.2637C52.3926-45.2637 52.1484-45.5566 51.8066-46.1914C50.5859-48.8281 47.5586-50.5371 44.1406-50.5371C37.6953-50.5371 33.7402-44.3848 33.7402-33.9844L33.7402-33.5449L33.8867-33.5449C35.7422-37.3047 39.1113-39.8438 44.2871-39.8438C50.4883-39.8438 55.1758-35.3516 55.1758-29.1016C55.1758-22.3145 50.4883-17.8223 43.5547-17.8223ZM43.6035-19.873C49.1699-19.873 52.832-23.4375 52.832-28.9062C52.832-34.2285 49.1211-37.793 43.7012-37.793C38.2812-37.793 34.375-34.082 34.375-28.9551C34.375-23.6816 38.2324-19.873 43.6035-19.873Z"/>
  </g>
 </g>
</svg>
