<?xml version="1.0" encoding="UTF-8"?>
<!--Generator: Apple Native CoreSVG 149-->
<!DOCTYPE svg
PUBLIC "-//W3C//DTD SVG 1.1//EN"
       "http://www.w3.org/Graphics/SVG/1.1/DTD/svg11.dtd">
<svg version="1.1" xmlns="http://www.w3.org/2000/svg" xmlns:xlink="http://www.w3.org/1999/xlink" width="3300" height="2200">
 <!--glyph: "uni10055A.medium", point size: 100.000000, font version: "Version 16.0d18e1", template writer version: "8"-->
 <g id="Notes">
  <rect height="2200" id="artboard" style="fill:white;opacity:1" width="3300" x="0" y="0"/>
  <line id="" style="fill:none;stroke:black;opacity:1;stroke-width:0.5;" x1="263" x2="3036" y1="292" y2="292"/>
  <text style="stroke:none;fill:black;font-family:-apple-system,&quot;SF Pro Display&quot;,&quot;SF Pro Text&quot;,Helvetica,sans-serif;font-weight:bold;" transform="matrix(1 0 0 1 263 322)">Weight/Scale Variations</text>
  <text style="stroke:none;fill:black;font-family:-apple-system,&quot;SF Pro Display&quot;,&quot;SF Pro Text&quot;,Helvetica,sans-serif;text-anchor:middle;" transform="matrix(1 0 0 1 559.711 322)">Ultralight</text>
  <text style="stroke:none;fill:black;font-family:-apple-system,&quot;SF Pro Display&quot;,&quot;SF Pro Text&quot;,Helvetica,sans-serif;text-anchor:middle;" transform="matrix(1 0 0 1 856.422 322)">Thin</text>
  <text style="stroke:none;fill:black;font-family:-apple-system,&quot;SF Pro Display&quot;,&quot;SF Pro Text&quot;,Helvetica,sans-serif;text-anchor:middle;" transform="matrix(1 0 0 1 1153.13 322)">Light</text>
  <text style="stroke:none;fill:black;font-family:-apple-system,&quot;SF Pro Display&quot;,&quot;SF Pro Text&quot;,Helvetica,sans-serif;text-anchor:middle;" transform="matrix(1 0 0 1 1449.84 322)">Regular</text>
  <text style="stroke:none;fill:black;font-family:-apple-system,&quot;SF Pro Display&quot;,&quot;SF Pro Text&quot;,Helvetica,sans-serif;text-anchor:middle;" transform="matrix(1 0 0 1 1746.56 322)">Medium</text>
  <text style="stroke:none;fill:black;font-family:-apple-system,&quot;SF Pro Display&quot;,&quot;SF Pro Text&quot;,Helvetica,sans-serif;text-anchor:middle;" transform="matrix(1 0 0 1 2043.27 322)">Semibold</text>
  <text style="stroke:none;fill:black;font-family:-apple-system,&quot;SF Pro Display&quot;,&quot;SF Pro Text&quot;,Helvetica,sans-serif;text-anchor:middle;" transform="matrix(1 0 0 1 2339.98 322)">Bold</text>
  <text style="stroke:none;fill:black;font-family:-apple-system,&quot;SF Pro Display&quot;,&quot;SF Pro Text&quot;,Helvetica,sans-serif;text-anchor:middle;" transform="matrix(1 0 0 1 2636.69 322)">Heavy</text>
  <text style="stroke:none;fill:black;font-family:-apple-system,&quot;SF Pro Display&quot;,&quot;SF Pro Text&quot;,Helvetica,sans-serif;text-anchor:middle;" transform="matrix(1 0 0 1 2933.4 322)">Black</text>
  <line id="" style="fill:none;stroke:black;opacity:1;stroke-width:0.5;" x1="263" x2="3036" y1="1903" y2="1903"/>
  <g id="" transform="matrix(1 0 0 1 263 1933)">
   <path d="M9.24805 0.830078C13.5547 0.830078 17.1387-2.74414 17.1387-7.05078C17.1387-11.3574 13.5449-14.9316 9.23828-14.9316C4.94141-14.9316 1.36719-11.3574 1.36719-7.05078C1.36719-2.74414 4.95117 0.830078 9.24805 0.830078ZM9.24805-0.654297C5.70312-0.654297 2.87109-3.49609 2.87109-7.05078C2.87109-10.6055 5.69336-13.4473 9.23828-13.4473C12.793-13.4473 15.6348-10.6055 15.6445-7.05078C15.6543-3.49609 12.8027-0.654297 9.24805-0.654297ZM6.39648-6.31836L8.50586-6.31836L8.50586-4.19922C8.50586-3.75977 8.79883-3.45703 9.22852-3.45703C9.67773-3.45703 9.9707-3.75977 9.9707-4.19922L9.9707-6.31836L12.0996-6.31836C12.5391-6.31836 12.8418-6.61133 12.8418-7.04102C12.8418-7.48047 12.5391-7.7832 12.0996-7.7832L9.9707-7.7832L9.9707-9.89258C9.9707-10.3418 9.67773-10.6445 9.22852-10.6445C8.79883-10.6445 8.50586-10.3418 8.50586-9.89258L8.50586-7.7832L6.39648-7.7832C5.94727-7.7832 5.64453-7.48047 5.64453-7.04102C5.64453-6.61133 5.94727-6.31836 6.39648-6.31836Z"/>
  </g>
  <g id="" transform="matrix(1 0 0 1 281.506 1933)">
   <path d="M11.709 2.91016C17.1582 2.91016 21.6699-1.61133 21.6699-7.05078C21.6699-12.5 17.1484-17.0117 11.6992-17.0117C6.25977-17.0117 1.74805-12.5 1.74805-7.05078C1.74805-1.61133 6.26953 2.91016 11.709 2.91016ZM11.709 1.25C7.09961 1.25 3.41797-2.44141 3.41797-7.05078C3.41797-11.6602 7.08984-15.3516 11.6992-15.3516C16.3086-15.3516 20-11.6602 20.0098-7.05078C20.0195-2.44141 16.3184 1.25 11.709 1.25ZM7.98828-6.23047L10.8789-6.23047L10.8789-3.32031C10.8789-2.83203 11.2109-2.5 11.6895-2.5C12.1777-2.5 12.5195-2.83203 12.5195-3.32031L12.5195-6.23047L15.4297-6.23047C15.918-6.23047 16.25-6.5625 16.25-7.04102C16.25-7.5293 15.918-7.87109 15.4297-7.87109L12.5195-7.87109L12.5195-10.7617C12.5195-11.2695 12.1777-11.6016 11.6895-11.6016C11.2109-11.6016 10.8789-11.2598 10.8789-10.7617L10.8789-7.87109L7.98828-7.87109C7.48047-7.87109 7.14844-7.5293 7.14844-7.04102C7.14844-6.5625 7.49023-6.23047 7.98828-6.23047Z"/>
  </g>
  <g id="" transform="matrix(1 0 0 1 304.924 1933)">
   <path d="M14.9707 5.66406C21.9336 5.66406 27.6953-0.0976562 27.6953-7.05078C27.6953-14.0137 21.9238-19.7754 14.9609-19.7754C8.00781-19.7754 2.25586-14.0137 2.25586-7.05078C2.25586-0.0976562 8.01758 5.66406 14.9707 5.66406ZM14.9707 3.84766C8.93555 3.84766 4.08203-1.01562 4.08203-7.05078C4.08203-13.0957 8.92578-17.9492 14.9609-17.9492C21.0059-17.9492 25.8594-13.0957 25.8691-7.05078C25.8789-1.01562 21.0156 3.84766 14.9707 3.84766ZM10.0586-6.14258L14.0625-6.14258L14.0625-2.12891C14.0625-1.5918 14.4336-1.2207 14.9512-1.2207C15.4883-1.2207 15.8594-1.5918 15.8594-2.12891L15.8594-6.14258L19.8828-6.14258C20.4102-6.14258 20.791-6.51367 20.791-7.03125C20.791-7.56836 20.4199-7.94922 19.8828-7.94922L15.8594-7.94922L15.8594-11.9531C15.8594-12.5098 15.4883-12.8809 14.9512-12.8809C14.4336-12.8809 14.0625-12.5 14.0625-11.9531L14.0625-7.94922L10.0586-7.94922C9.50195-7.94922 9.13086-7.56836 9.13086-7.03125C9.13086-6.51367 9.51172-6.14258 10.0586-6.14258Z"/>
  </g>
  <text style="stroke:none;fill:black;font-family:-apple-system,&quot;SF Pro Display&quot;,&quot;SF Pro Text&quot;,Helvetica,sans-serif;font-weight:bold;" transform="matrix(1 0 0 1 263 1953)">Design Variations</text>
  <text style="stroke:none;fill:black;font-family:-apple-system,&quot;SF Pro Display&quot;,&quot;SF Pro Text&quot;,Helvetica,sans-serif;" transform="matrix(1 0 0 1 263 1971)">Symbols are supported in up to nine weights and three scales.</text>
  <text style="stroke:none;fill:black;font-family:-apple-system,&quot;SF Pro Display&quot;,&quot;SF Pro Text&quot;,Helvetica,sans-serif;" transform="matrix(1 0 0 1 263 1989)">For optimal layout with text and other symbols, vertically align</text>
  <text style="stroke:none;fill:black;font-family:-apple-system,&quot;SF Pro Display&quot;,&quot;SF Pro Text&quot;,Helvetica,sans-serif;" transform="matrix(1 0 0 1 263 2007)">symbols with the adjacent text.</text>
  <line id="" style="fill:none;stroke:#00AEEF;stroke-width:0.5;opacity:1.0;" x1="776" x2="776" y1="1919" y2="1933"/>
  <g id="" transform="matrix(1 0 0 1 776 1933)">
   <path d="M3.31055 0.126953C3.82812 0.126953 4.08203-0.0683594 4.26758-0.605469L5.52734-4.0625L11.2891-4.0625L12.5488-0.605469C12.7344-0.0683594 12.9883 0.126953 13.4961 0.126953C14.0137 0.126953 14.3457-0.185547 14.3457-0.673828C14.3457-0.839844 14.3164-0.986328 14.2383-1.20117L9.6582-13.3887C9.43359-13.9941 9.0332-14.2871 8.4082-14.2871C7.80273-14.2871 7.39258-13.9941 7.17773-13.3984L2.59766-1.19141C2.51953-0.976562 2.49023-0.830078 2.49023-0.664062C2.49023-0.175781 2.80273 0.126953 3.31055 0.126953ZM6.00586-5.53711L8.37891-12.1094L8.42773-12.1094L10.8008-5.53711Z"/>
  </g>
  <line id="" style="fill:none;stroke:#00AEEF;stroke-width:0.5;opacity:1.0;" x1="792.836" x2="792.836" y1="1919" y2="1933"/>
  <text style="stroke:none;fill:black;font-family:-apple-system,&quot;SF Pro Display&quot;,&quot;SF Pro Text&quot;,Helvetica,sans-serif;font-weight:bold;" transform="matrix(1 0 0 1 776 1953)">Margins</text>
  <text style="stroke:none;fill:black;font-family:-apple-system,&quot;SF Pro Display&quot;,&quot;SF Pro Text&quot;,Helvetica,sans-serif;" transform="matrix(1 0 0 1 776 1971)">Leading and trailing margins on the left and right side of each symbol</text>
  <text style="stroke:none;fill:black;font-family:-apple-system,&quot;SF Pro Display&quot;,&quot;SF Pro Text&quot;,Helvetica,sans-serif;" transform="matrix(1 0 0 1 776 1989)">can be adjusted by modifying the x-location of the margin guidelines.</text>
  <text style="stroke:none;fill:black;font-family:-apple-system,&quot;SF Pro Display&quot;,&quot;SF Pro Text&quot;,Helvetica,sans-serif;" transform="matrix(1 0 0 1 776 2007)">Modifications are automatically applied proportionally to all</text>
  <text style="stroke:none;fill:black;font-family:-apple-system,&quot;SF Pro Display&quot;,&quot;SF Pro Text&quot;,Helvetica,sans-serif;" transform="matrix(1 0 0 1 776 2025)">scales and weights.</text>
  <g id="" transform="matrix(1 0 0 1 1289 1933)">
   <path d="M2.8418 1.86523L4.54102 3.57422C5.40039 4.44336 6.38672 4.38477 7.31445 3.35938L17.4902-7.85156C17.7539-7.76367 18.0273-7.7832 18.3398-7.8418L19.4043-8.03711L20.0684-7.36328L20.0293-6.80664C19.9902-6.30859 20.1172-5.92773 20.6055-5.44922L21.3672-4.70703C21.8457-4.22852 22.4609-4.19922 22.9297-4.66797L25.8398-7.58789C26.3086-8.05664 26.2891-8.65234 25.8105-9.13086L25.0391-9.89258C24.5605-10.3711 24.1895-10.5273 23.7109-10.4883L23.1348-10.4395L22.4902-11.0742L22.7344-12.1973C22.8613-12.7637 22.7051-13.2031 22.1191-13.7891L19.9219-15.9766C16.582-19.2969 12.1484-19.2188 9.25781-16.3281C8.83789-15.918 8.80859-15.3418 9.04297-14.9512C9.27734-14.5898 9.73633-14.3555 10.3809-14.5215C11.8457-14.8633 13.3691-14.9219 14.7949-13.9844L14.209-12.5293C14.0137-12.0508 13.9844-11.6504 14.1113-11.2891L3.04688-0.898438C2.06055 0.0195312 1.98242 0.996094 2.8418 1.86523ZM10.752-15.957C13.1836-17.7344 16.4746-17.4316 18.7012-15.2051L21.1328-12.793C21.3672-12.5586 21.4062-12.373 21.3379-12.0312L21.0156-10.5469L22.5195-9.0625L23.5059-9.12109C23.7598-9.13086 23.8379-9.11133 24.0332-8.91602L24.6094-8.33984L22.168-5.89844L21.5918-6.47461C21.3965-6.66992 21.3672-6.74805 21.377-7.01172L21.4453-7.98828L19.9512-9.47266L18.4277-9.21875C18.1055-9.15039 17.959-9.17969 17.7148-9.41406L15.7129-11.416C15.459-11.6504 15.4297-11.8164 15.5859-12.1875L16.4648-14.2773C14.9023-15.7324 12.8711-16.3574 10.8398-15.7617C10.6836-15.7227 10.625-15.8496 10.752-15.957ZM5.27344 2.30469L4.10156 1.14258C3.63281 0.683594 3.74023 0.341797 4.14062-0.0195312L14.9512-10.1953L16.416-8.71094L6.42578 2.27539C6.07422 2.67578 5.74219 2.77344 5.27344 2.30469Z"/>
  </g>
  <text style="stroke:none;fill:black;font-family:-apple-system,&quot;SF Pro Display&quot;,&quot;SF Pro Text&quot;,Helvetica,sans-serif;font-weight:bold;" transform="matrix(1 0 0 1 1289 1953)">Exporting</text>
  <text style="stroke:none;fill:black;font-family:-apple-system,&quot;SF Pro Display&quot;,&quot;SF Pro Text&quot;,Helvetica,sans-serif;" transform="matrix(1 0 0 1 1289 1971)">Symbols should be outlined when exporting to ensure the</text>
  <text style="stroke:none;fill:black;font-family:-apple-system,&quot;SF Pro Display&quot;,&quot;SF Pro Text&quot;,Helvetica,sans-serif;" transform="matrix(1 0 0 1 1289 1989)">design is preserved when submitting to Xcode.</text>
  <text id="template-version" style="stroke:none;fill:black;font-family:-apple-system,&quot;SF Pro Display&quot;,&quot;SF Pro Text&quot;,Helvetica,sans-serif;text-anchor:end;" transform="matrix(1 0 0 1 3036 1933)">Template v.2.0</text>
  <text style="stroke:none;fill:black;font-family:-apple-system,&quot;SF Pro Display&quot;,&quot;SF Pro Text&quot;,Helvetica,sans-serif;text-anchor:end;" transform="matrix(1 0 0 1 3036 1951)">Requires Xcode 12 or greater</text>
  <text style="stroke:none;fill:black;font-family:-apple-system,&quot;SF Pro Display&quot;,&quot;SF Pro Text&quot;,Helvetica,sans-serif;text-anchor:end;" transform="matrix(1 0 0 1 3036 1969)">Generated from 18.square.fill</text>
  <text style="stroke:none;fill:black;font-family:-apple-system,&quot;SF Pro Display&quot;,&quot;SF Pro Text&quot;,Helvetica,sans-serif;text-anchor:end;" transform="matrix(1 0 0 1 3036 1987)">Typeset at 100 points</text>
  <text style="stroke:none;fill:black;font-family:-apple-system,&quot;SF Pro Display&quot;,&quot;SF Pro Text&quot;,Helvetica,sans-serif;" transform="matrix(1 0 0 1 263 726)">Small</text>
  <text style="stroke:none;fill:black;font-family:-apple-system,&quot;SF Pro Display&quot;,&quot;SF Pro Text&quot;,Helvetica,sans-serif;" transform="matrix(1 0 0 1 263 1156)">Medium</text>
  <text style="stroke:none;fill:black;font-family:-apple-system,&quot;SF Pro Display&quot;,&quot;SF Pro Text&quot;,Helvetica,sans-serif;" transform="matrix(1 0 0 1 263 1586)">Large</text>
 </g>
 <g id="Guides">
  <g id="H-reference" style="fill:#27AAE1;stroke:none;" transform="matrix(1 0 0 1 339 696)">
   <path d="M0.976562 0L3.66211 0L12.9883-24.4629L45.752-24.4629L55.127 0L57.7637 0L30.6152-70.459L28.125-70.459ZM29.3457-67.1387L29.4434-67.1387L44.873-26.709L13.8672-26.709Z"/>
  </g>
  <line id="Baseline-S" style="fill:none;stroke:#27AAE1;opacity:1;stroke-width:0.5;" x1="263" x2="3036" y1="696" y2="696"/>
  <line id="Capline-S" style="fill:none;stroke:#27AAE1;opacity:1;stroke-width:0.5;" x1="263" x2="3036" y1="625.541" y2="625.541"/>
  <g id="H-reference" style="fill:#27AAE1;stroke:none;" transform="matrix(1 0 0 1 339 1126)">
   <path d="M0.976562 0L3.66211 0L12.9883-24.4629L45.752-24.4629L55.127 0L57.7637 0L30.6152-70.459L28.125-70.459ZM29.3457-67.1387L29.4434-67.1387L44.873-26.709L13.8672-26.709Z"/>
  </g>
  <line id="Baseline-M" style="fill:none;stroke:#27AAE1;opacity:1;stroke-width:0.5;" x1="263" x2="3036" y1="1126" y2="1126"/>
  <line id="Capline-M" style="fill:none;stroke:#27AAE1;opacity:1;stroke-width:0.5;" x1="263" x2="3036" y1="1055.54" y2="1055.54"/>
  <g id="H-reference" style="fill:#27AAE1;stroke:none;" transform="matrix(1 0 0 1 339 1556)">
   <path d="M0.976562 0L3.66211 0L12.9883-24.4629L45.752-24.4629L55.127 0L57.7637 0L30.6152-70.459L28.125-70.459ZM29.3457-67.1387L29.4434-67.1387L44.873-26.709L13.8672-26.709Z"/>
  </g>
  <line id="Baseline-L" style="fill:none;stroke:#27AAE1;opacity:1;stroke-width:0.5;" x1="263" x2="3036" y1="1556" y2="1556"/>
  <line id="Capline-L" style="fill:none;stroke:#27AAE1;opacity:1;stroke-width:0.5;" x1="263" x2="3036" y1="1485.54" y2="1485.54"/>
  <line id="left-margin" style="fill:none;stroke:#00AEEF;stroke-width:0.5;opacity:1.0;" x1="1392.45" x2="1392.45" y1="1030.79" y2="1150.12"/>
  <line id="right-margin" style="fill:none;stroke:#00AEEF;stroke-width:0.5;opacity:1.0;" x1="1507.24" x2="1507.24" y1="1030.79" y2="1150.12"/>
 </g>
 <g id="Symbols">
  <g id="Black-L" transform="matrix(1 0 0 1 2855.62 1556)">
   <path d="M39.9902 26.5137L115.576 26.5137C130.811 26.5137 139.502 17.8711 139.502 2.68555L139.502-73.0957C139.502-88.2812 130.811-96.875 115.576-96.875L39.9902-96.875C24.7559-96.875 16.0645-88.2812 16.0645-73.0957L16.0645 2.68555C16.0645 17.8711 24.7559 26.5137 39.9902 26.5137ZM95.4102-8.98438C84.4727-8.98438 77.1484-14.9414 77.1484-23.9258C77.1484-30.5176 81.1035-34.9609 86.8652-36.4258L86.8652-36.9629C82.4219-38.1348 79.0039-42.2852 79.0039-47.8516C79.0039-56.0547 85.6445-61.5234 95.459-61.5234C105.322-61.5234 112.012-56.0547 112.012-47.8516C112.012-42.2852 108.545-38.0859 104.199-36.9629L104.199-36.4258C109.814-34.9609 113.818-30.5176 113.818-23.9746C113.818-14.9902 106.445-8.98438 95.4102-8.98438ZM61.7676-9.22852C57.6172-9.22852 55.5664-11.7188 55.5664-16.5527L55.5664-45.9473L55.2734-45.9473L52.2461-43.0176C50.5859-41.2109 49.4141-40.4297 47.3145-40.4297C44.4824-40.4297 42.1875-42.8711 42.1875-45.7031C42.1875-48.1934 43.2617-49.9512 45.6055-52.1484L52.0508-57.7148C55.3711-60.6934 57.5195-61.4258 60.2539-61.4258C65.3809-61.4258 68.1152-58.3496 68.1152-53.125L68.1152-16.5527C68.1152-11.7188 66.0156-9.22852 61.7676-9.22852ZM95.459-41.6504C98.4375-41.6504 100.293-43.7012 100.293-46.582C100.293-49.4141 98.3398-51.5137 95.459-51.5137C92.627-51.5137 90.7227-49.4141 90.7227-46.582C90.7227-43.7012 92.5781-41.6504 95.459-41.6504ZM95.5078-19.1895C98.9258-19.1895 101.221-21.6309 101.221-25C101.221-28.3691 98.9746-30.8594 95.5078-30.8594C92.1387-30.8594 89.7461-28.3691 89.7461-25C89.7461-21.6309 92.1387-19.1895 95.5078-19.1895Z"/>
  </g>
  <g id="Heavy-L" transform="matrix(1 0 0 1 2559.93 1556)">
   <path d="M38.8184 25.4883L114.697 25.4883C129.346 25.4883 137.451 17.4316 137.451 2.88086L137.451-73.2422C137.451-87.793 129.346-95.8496 114.697-95.8496L38.8184-95.8496C24.2188-95.8496 16.0645-87.793 16.0645-73.2422L16.0645 2.88086C16.0645 17.4316 24.2188 25.4883 38.8184 25.4883ZM94.1406-8.69141C83.1543-8.69141 75.7812-14.7461 75.7812-23.7793C75.7812-30.3223 79.7852-35.0098 85.791-36.4746L85.791-36.9629C81.0547-38.2812 77.6367-42.5293 77.6367-48.0957C77.6367-56.2988 84.375-61.8652 94.1895-61.8652C104.053-61.8652 110.791-56.2988 110.791-48.0957C110.791-42.5293 107.373-38.1836 102.637-36.9629L102.637-36.4746C108.594-35.0098 112.646-30.3711 112.646-23.8281C112.646-14.7461 105.176-8.69141 94.1406-8.69141ZM60.1074-9.0332C56.4453-9.0332 54.541-11.2305 54.541-15.4785L54.541-47.7051L54.248-47.7051L50.0488-44.1406C48.4863-42.5293 47.4609-41.9434 45.6543-41.9434C43.1152-41.9434 40.9668-44.1895 40.9668-46.7773C40.9668-49.0234 41.9434-50.5859 44.043-52.4414L51.416-58.3984C54.3945-60.9863 56.3477-61.6699 58.8379-61.6699C63.3301-61.6699 65.7715-58.9355 65.7715-54.3945L65.7715-15.4785C65.7715-11.2305 63.8672-9.0332 60.1074-9.0332ZM94.1895-41.1133C97.8027-41.1133 100.098-43.5547 100.098-46.9238C100.098-50.3418 97.7051-52.7832 94.1895-52.7832C90.6738-52.7832 88.3301-50.3418 88.3301-46.9238C88.3301-43.5547 90.6738-41.1133 94.1895-41.1133ZM94.2383-17.8711C98.3887-17.8711 101.318-20.7031 101.318-24.707C101.318-28.6621 98.4375-31.543 94.2383-31.543C90.0879-31.543 87.1094-28.6133 87.1094-24.707C87.1094-20.7031 90.0879-17.8711 94.2383-17.8711Z"/>
  </g>
  <g id="Bold-L" transform="matrix(1 0 0 1 2264.37 1556)">
   <path d="M37.5 24.3652L113.721 24.3652C127.637 24.3652 135.156 16.8945 135.156 3.07617L135.156-73.3887C135.156-87.207 127.637-94.7266 113.721-94.7266L37.5-94.7266C23.6328-94.7266 16.0645-87.2559 16.0645-73.3887L16.0645 3.07617C16.0645 16.8945 23.6328 24.3652 37.5 24.3652ZM92.6758-8.30078C81.6895-8.30078 74.2676-14.4531 74.2676-23.6328C74.2676-30.1758 78.3203-35.1074 84.6191-36.5234L84.6191-36.9629C79.4922-38.4277 76.1719-42.7734 76.1719-48.3398C76.1719-56.5918 82.959-62.207 92.7734-62.207C102.588-62.207 109.424-56.5918 109.424-48.3398C109.424-42.7734 106.006-38.3301 100.928-36.9629L100.928-36.5234C107.178-35.1074 111.279-30.1758 111.279-23.6328C111.279-14.502 103.711-8.30078 92.6758-8.30078ZM58.252-8.78906C55.127-8.78906 53.3691-10.7422 53.3691-14.2578L53.3691-49.707L53.0762-49.707L47.6074-45.4102C46.1426-44.043 45.3125-43.6035 43.7988-43.6035C41.5527-43.6035 39.5996-45.6055 39.5996-47.9492C39.5996-49.9023 40.4785-51.3184 42.2852-52.832L50.7324-59.1309C53.3691-61.3281 54.9805-61.9141 57.2754-61.9141C61.0352-61.9141 63.2324-59.5703 63.2324-55.7617L63.2324-14.2578C63.2324-10.7422 61.4746-8.78906 58.252-8.78906ZM92.7734-40.4785C97.0215-40.4785 99.9023-43.4082 99.9023-47.3633C99.9023-51.3672 96.9727-54.1992 92.7734-54.1992C88.5254-54.1992 85.6445-51.3672 85.6445-47.3633C85.6445-43.4082 88.5254-40.4785 92.7734-40.4785ZM92.7734-16.4062C97.8027-16.4062 101.416-19.6777 101.416-24.3652C101.416-28.9551 97.9004-32.2754 92.7734-32.2754C87.793-32.2754 84.1797-28.9551 84.1797-24.3652C84.1797-19.6777 87.793-16.4062 92.7734-16.4062Z"/>
  </g>
  <g id="Semibold-L" transform="matrix(1 0 0 1 1968.44 1556)">
   <path d="M36.6211 23.584L113.037 23.584C126.514 23.584 133.594 16.5039 133.594 3.17383L133.594-73.5352C133.594-86.8164 126.514-93.9453 113.037-93.9453L36.6211-93.9453C23.1934-93.9453 16.0645-86.8652 16.0645-73.5352L16.0645 3.17383C16.0645 16.5527 23.1934 23.584 36.6211 23.584ZM91.6992-8.05664C80.6641-8.05664 73.2422-14.2578 73.2422-23.4863C73.2422-30.0293 77.2949-35.1562 83.8379-36.5234L83.8379-36.9629C78.418-38.5254 75.1465-42.9199 75.1465-48.5352C75.1465-56.7871 81.9824-62.4512 91.748-62.4512C101.562-62.4512 108.447-56.7871 108.447-48.5352C108.447-42.9199 105.078-38.4277 99.7559-36.9629L99.7559-36.5234C106.201-35.1562 110.352-30.0781 110.352-23.5352C110.352-14.3555 102.734-8.05664 91.6992-8.05664ZM56.9824-8.64258C54.248-8.64258 52.5879-10.4004 52.5879-13.4277L52.5879-51.0742L52.2949-51.0742L45.8984-46.2891C44.5312-45.0684 43.7988-44.7754 42.5293-44.7754C40.4785-44.7754 38.6719-46.582 38.6719-48.7793C38.6719-50.5371 39.4531-51.8066 41.0645-53.0762L50.2441-59.668C52.6367-61.5234 54.1016-62.1094 56.2012-62.1094C59.4727-62.1094 61.4258-60.0098 61.4258-56.7383L61.4258-13.4277C61.4258-10.4004 59.8145-8.64258 56.9824-8.64258ZM91.748-40.0391C96.5332-40.0391 99.7559-43.2617 99.7559-47.6562C99.7559-52.0996 96.4844-55.2246 91.748-55.2246C87.0605-55.2246 83.8379-52.0996 83.8379-47.6562C83.8379-43.2617 87.0605-40.0391 91.748-40.0391ZM91.7969-15.3809C97.4121-15.3809 101.465-18.9941 101.465-24.1211C101.465-29.1992 97.5098-32.8125 91.7969-32.8125C86.1816-32.8125 82.1289-29.1504 82.1289-24.1211C82.1289-18.9941 86.1816-15.3809 91.7969-15.3809Z"/>
  </g>
  <g id="Medium-L" transform="matrix(1 0 0 1 1672.31 1556)">
   <path d="M35.9375 22.998L112.5 22.998C125.635 22.998 132.422 16.2109 132.422 3.27148L132.422-73.6328C132.422-86.5234 125.635-93.3105 112.5-93.3105L35.9375-93.3105C22.9004-93.3105 16.0645-86.5723 16.0645-73.6328L16.0645 3.27148C16.0645 16.2598 22.9004 22.998 35.9375 22.998ZM90.918-7.91016C79.9316-7.91016 72.4121-14.1602 72.4121-23.3887C72.4121-29.9316 76.5625-35.2051 83.2031-36.5723L83.2031-36.9629C77.6367-38.623 74.3652-43.0664 74.3652-48.6328C74.3652-56.9336 81.25-62.6465 91.0156-62.6465C100.83-62.6465 107.715-56.9336 107.715-48.6328C107.715-43.0664 104.395-38.4766 98.877-36.9629L98.877-36.5723C105.469-35.2051 109.619-29.9805 109.619-23.4375C109.619-14.209 102.002-7.91016 90.918-7.91016ZM55.957-8.49609C53.5156-8.49609 52.002-10.1074 52.002-12.793L52.002-52.0996L51.6602-52.0996L44.6289-46.9238C43.3105-45.8496 42.6758-45.6543 41.5527-45.6543C39.6484-45.6543 37.9395-47.3633 37.9395-49.4141C37.9395-51.0254 38.7207-52.1973 40.1367-53.2715L49.9023-60.0586C52.0508-61.7188 53.3691-62.2559 55.3711-62.2559C58.252-62.2559 60.1074-60.3516 60.1074-57.4707L60.1074-12.793C60.1074-10.1074 58.5449-8.49609 55.957-8.49609ZM91.0156-39.7461C96.1426-39.7461 99.6582-43.1641 99.6582-47.9004C99.6582-52.6367 96.1426-55.957 91.0156-55.957C85.9375-55.957 82.4219-52.6367 82.4219-47.9004C82.4219-43.1641 85.9375-39.7461 91.0156-39.7461ZM91.0645-14.6484C97.1191-14.6484 101.514-18.457 101.514-23.9258C101.514-29.3457 97.2168-33.2031 91.0645-33.2031C85.0098-33.2031 80.6152-29.2969 80.6152-23.9258C80.6152-18.457 85.0098-14.6484 91.0645-14.6484Z"/>
  </g>
  <g id="Regular-L" transform="matrix(1 0 0 1 1376.38 1556)">
   <path d="M35.0586 22.2168L111.816 22.2168C124.463 22.2168 130.859 15.8691 130.859 3.41797L130.859-73.7305C130.859-86.1816 124.463-92.5293 111.816-92.5293L35.0586-92.5293C22.4609-92.5293 16.0645-86.2305 16.0645-73.7305L16.0645 3.41797C16.0645 15.918 22.4609 22.2168 35.0586 22.2168ZM89.9414-7.66602C78.9551-7.66602 71.3867-13.9648 71.3867-23.291C71.3867-29.7852 75.5371-35.2539 82.4219-36.6211L82.4219-36.9629C76.5625-38.7207 73.3398-43.2129 73.3398-48.8281C73.3398-57.1289 80.3223-62.8906 90.0391-62.8906C99.8047-62.8906 106.787-57.1289 106.787-48.8281C106.787-43.2129 103.467-38.5742 97.7051-36.9629L97.7051-36.6211C104.541-35.2539 108.691-29.834 108.691-23.3398C108.691-14.0625 101.025-7.66602 89.9414-7.66602ZM54.6875-8.34961C52.6367-8.34961 51.2207-9.76562 51.2207-11.9629L51.2207-53.4668L50.8789-53.4668L42.9688-47.8027C41.6992-46.875 41.2109-46.8262 40.2832-46.8262C38.5742-46.8262 37.0117-48.3398 37.0117-50.1953C37.0117-51.6602 37.7441-52.6855 38.9648-53.5645L49.4141-60.5957C51.3672-61.9141 52.4902-62.4512 54.2969-62.4512C56.6895-62.4512 58.3496-60.791 58.3496-58.3984L58.3496-11.9629C58.3496-9.76562 56.9336-8.34961 54.6875-8.34961ZM90.0391-39.3066C95.6055-39.3066 99.5117-43.0664 99.5117-48.1445C99.5117-53.3203 95.6543-56.9336 90.0391-56.9336C84.4727-56.9336 80.6152-53.3203 80.6152-48.1445C80.6152-43.0664 84.4727-39.3066 90.0391-39.3066ZM90.0879-13.623C96.7285-13.623 101.562-17.7734 101.562-23.6816C101.562-29.5898 96.8262-33.7402 90.0879-33.7402C83.4473-33.7402 78.6133-29.541 78.6133-23.6816C78.6133-17.7734 83.4473-13.623 90.0879-13.623Z"/>
  </g>
  <g id="Light-L" transform="matrix(1 0 0 1 1080.5 1556)">
   <path d="M34.0332 21.4355L111.23 21.4355C123.096 21.4355 129.199 15.2344 129.199 3.56445L129.199-73.8281C129.199-85.5469 123.096-91.6992 111.23-91.6992L34.0332-91.6992C22.168-91.6992 16.0645-85.6445 16.0645-73.8281L16.0645 3.56445C16.0645 15.3809 22.168 21.4355 34.0332 21.4355ZM88.7695-8.20312C78.0273-8.20312 70.5566-14.4531 70.5566-23.5352C70.5566-29.8828 74.8535-35.3027 81.4453-36.5723L81.4453-36.9629C75.8301-38.623 72.4609-43.1641 72.4609-48.584C72.4609-56.6895 79.3457-62.3535 88.8184-62.3535C98.3398-62.3535 105.176-56.6895 105.176-48.584C105.176-43.1641 101.758-38.4766 96.1914-36.9629L96.1914-36.5723C102.783-35.3027 107.129-29.9316 107.129-23.5352C107.129-14.502 99.4629-8.20312 88.7695-8.20312ZM53.6133-8.78906C52.002-8.78906 50.8301-9.91211 50.8301-11.6699L50.8301-54.7363L50.5371-54.7363L41.2598-48.3887C40.332-47.7051 39.9414-47.7051 39.2578-47.7051C37.8906-47.7051 36.6699-48.9258 36.6699-50.3906C36.6699-51.5137 37.1582-52.3438 38.1836-53.0273L49.5117-60.5469C50.9277-61.5234 51.8066-61.9141 53.2715-61.9141C55.1758-61.9141 56.4941-60.6445 56.4941-58.6914L56.4941-11.6699C56.4941-9.91211 55.4199-8.78906 53.6133-8.78906ZM88.8184-38.8672C95.0684-38.8672 99.3652-42.8223 99.3652-48.1934C99.3652-53.6621 95.1172-57.4707 88.8184-57.4707C82.5684-57.4707 78.2715-53.6621 78.2715-48.1934C78.2715-42.8223 82.6172-38.8672 88.8184-38.8672ZM88.8672-13.0859C96.1914-13.0859 101.514-17.5293 101.514-23.7793C101.514-29.8828 96.2402-34.2285 88.8672-34.2285C81.4941-34.2285 76.1719-29.834 76.1719-23.7793C76.1719-17.5293 81.4941-13.0859 88.8672-13.0859Z"/>
  </g>
  <g id="Thin-L" transform="matrix(1 0 0 1 784.889 1556)">
   <path d="M32.666 20.3613L110.352 20.3613C121.24 20.3613 127.002 14.4531 127.002 3.75977L127.002-73.9746C127.002-84.7168 121.24-90.5762 110.352-90.5762L32.666-90.5762C21.7773-90.5762 16.0645-84.8633 16.0645-73.9746L16.0645 3.75977C16.0645 14.6484 21.7773 20.3613 32.666 20.3613ZM87.207-8.93555C76.8555-8.93555 69.3848-15.0879 69.3848-23.8281C69.3848-30.0293 73.9258-35.3516 80.1758-36.5723L80.1758-36.9141C74.9023-38.5254 71.3379-43.0176 71.3379-48.2422C71.3379-56.1035 78.0273-61.6211 87.207-61.6211C96.3867-61.6211 103.076-56.1035 103.076-48.2422C103.076-43.0176 99.4629-38.3789 94.1895-36.9141L94.1895-36.5723C100.488-35.3516 105.029-30.0293 105.029-23.877C105.029-15.1367 97.4609-8.93555 87.207-8.93555ZM52.1484-9.375C51.123-9.375 50.3418-10.1074 50.3418-11.2305L50.3418-56.4453L50.0488-56.4453L38.9648-49.1211C38.5254-48.877 38.3301-48.877 37.8906-48.877C36.9141-48.877 36.1816-49.707 36.1816-50.6348C36.1816-51.3184 36.377-51.8555 37.1094-52.3438L49.6094-60.4492C50.3906-60.9863 50.9766-61.1816 51.9043-61.1816C53.125-61.1816 54.0527-60.4004 54.0527-59.1309L54.0527-11.2305C54.0527-10.1074 53.3691-9.375 52.1484-9.375ZM87.207-38.3301C94.2871-38.3301 99.2188-42.5293 99.2188-48.1934C99.2188-54.0527 94.3848-58.1543 87.207-58.1543C80.0293-58.1543 75.1953-54.0527 75.1953-48.1934C75.1953-42.5293 80.127-38.3301 87.207-38.3301ZM87.207-12.3535C95.5078-12.3535 101.416-17.1875 101.416-23.8281C101.416-30.2734 95.5078-34.9121 87.207-34.9121C78.9062-34.9121 72.998-30.2734 72.998-23.8281C72.998-17.1875 78.9062-12.3535 87.207-12.3535Z"/>
  </g>
  <g id="Ultralight-L" transform="matrix(1 0 0 1 488.739 1556)">
   <path d="M31.9824 19.7754L109.961 19.7754C120.312 19.7754 125.879 14.0625 125.879 3.85742L125.879-74.0723C125.879-84.2773 120.312-89.9902 109.961-89.9902L31.9824-89.9902C21.582-89.9902 16.0645-84.4727 16.0645-74.0723L16.0645 3.85742C16.0645 14.2578 21.582 19.7754 31.9824 19.7754ZM86.377-9.32617C76.2695-9.32617 68.7988-15.3809 68.7988-24.0234C68.7988-30.0781 73.4375-35.3516 79.541-36.5723L79.541-36.8652C74.4141-38.4766 70.7031-42.9688 70.7031-48.0469C70.7031-55.8105 77.3438-61.2305 86.377-61.2305C95.3613-61.2305 102.002-55.8105 102.002-48.0469C102.002-42.9688 98.291-38.2812 93.2129-36.8652L93.2129-36.5723C99.3164-35.3516 103.955-30.0781 103.955-24.0234C103.955-15.4785 96.3867-9.32617 86.377-9.32617ZM51.416-9.66797C50.6836-9.66797 50.0488-10.2051 50.0488-11.0352L50.0488-57.3242L49.8047-57.3242L37.793-49.5117C37.5977-49.4629 37.4512-49.4629 37.207-49.4629C36.4258-49.4629 35.8887-50.0977 35.8887-50.7812C35.8887-51.2207 35.9863-51.6602 36.5723-52.002L49.6582-60.4004C50.1465-60.6934 50.5371-60.8398 51.2207-60.8398C52.0996-60.8398 52.7832-60.3027 52.7832-59.3262L52.7832-11.0352C52.7832-10.2051 52.3438-9.66797 51.416-9.66797ZM86.377-38.0371C93.8965-38.0371 99.1211-42.334 99.1211-48.2422C99.1211-54.248 93.9941-58.5449 86.377-58.5449C78.7598-58.5449 73.6328-54.248 73.6328-48.2422C73.6328-42.334 78.8574-38.0371 86.377-38.0371ZM86.377-12.0117C95.1172-12.0117 101.367-16.9922 101.367-23.877C101.367-30.4688 95.1172-35.2539 86.377-35.2539C77.6367-35.2539 71.3379-30.4688 71.3379-23.877C71.3379-16.9922 77.6367-12.0117 86.377-12.0117Z"/>
  </g>
  <g id="Black-M" transform="matrix(1 0 0 1 2872.19 1126)">
   <path d="M31.9824 13.5742L90.4297 13.5742C102.686 13.5742 109.961 6.29883 109.961-5.95703L109.961-64.4043C109.961-76.6602 102.686-83.9355 90.4297-83.9355L31.9824-83.9355C19.7266-83.9355 12.4512-76.6602 12.4512-64.4043L12.4512-5.95703C12.4512 6.29883 19.7266 13.5742 31.9824 13.5742ZM49.5605-15.625C45.8984-15.625 44.2383-17.6758 44.2383-22.0215L44.2383-41.8457L44.043-41.8457L42.5293-40.0391C41.3086-38.5254 40.2344-37.6953 38.3301-37.6953C35.9375-37.6953 34.1309-39.7461 34.1309-41.9922C34.1309-44.0918 34.9609-45.6055 37.0117-47.6074L41.2109-51.709C43.9453-54.3457 45.8496-54.8828 48.0469-54.8828C52.6367-54.8828 54.8828-52.2461 54.8828-47.6074L54.8828-22.0215C54.8828-17.6758 53.2227-15.625 49.5605-15.625ZM75.0488-15.625C66.748-15.625 61.1328-20.1172 61.1328-26.8066C61.1328-31.8359 64.2578-34.9609 68.2129-36.084L68.2129-36.5723C65.3809-37.2559 62.5488-40.332 62.5488-44.5801C62.5488-50.7812 67.5293-54.8828 75.0488-54.8828C82.6172-54.8828 87.6465-50.7812 87.6465-44.5801C87.6465-40.332 84.8145-37.2559 81.9824-36.5723L81.9824-36.084C85.8887-34.9609 89.0137-31.8359 89.0137-26.8066C89.0137-20.1172 83.3984-15.625 75.0488-15.625ZM75.0488-40.7227C76.9043-40.7227 77.9297-41.8945 77.9297-43.5059C77.9297-45.166 76.7578-46.4355 75.0488-46.4355C73.3398-46.4355 72.2656-45.166 72.2656-43.5059C72.2656-41.8945 73.291-40.7227 75.0488-40.7227ZM75.0488-24.2676C77.0508-24.2676 78.3203-25.7324 78.3203-27.7344C78.3203-29.6875 77.0508-31.2012 75.0488-31.2012C73.1445-31.2012 71.7773-29.6875 71.7773-27.7344C71.7773-25.7324 73.1445-24.2676 75.0488-24.2676Z"/>
  </g>
  <g id="Heavy-M" transform="matrix(1 0 0 1 2576.39 1126)">
   <path d="M31.0059 12.6465L89.6484 12.6465C101.416 12.6465 108.154 5.9082 108.154-5.81055L108.154-64.5508C108.154-76.2695 101.416-83.0566 89.6484-83.0566L31.0059-83.0566C19.2383-83.0566 12.4512-76.3184 12.4512-64.5508L12.4512-5.81055C12.4512 5.9082 19.2383 12.6465 31.0059 12.6465ZM73.9746-15.1367C65.5273-15.1367 59.8633-19.7266 59.8633-26.5625C59.8633-31.6406 62.9883-35.0098 67.2852-36.1328L67.2852-36.5723C64.0625-37.4023 61.3281-40.625 61.3281-44.873C61.3281-51.1719 66.4062-55.3711 73.9746-55.3711C81.543-55.3711 86.7188-51.1719 86.7188-44.873C86.7188-40.625 83.9355-37.4023 80.7129-36.5723L80.7129-36.1328C84.9609-35.0098 88.0859-31.6406 88.0859-26.6113C88.0859-19.7266 82.4219-15.1367 73.9746-15.1367ZM47.998-15.2832C44.7754-15.2832 43.2129-17.1387 43.2129-20.9473L43.2129-43.457L43.0176-43.457L40.5762-41.1133C39.3555-39.7461 38.4277-39.1113 36.8164-39.1113C34.6191-39.1113 32.9102-41.0156 32.9102-43.1152C32.9102-45.0195 33.6914-46.3867 35.5469-48.0957L40.5273-52.4414C43.0176-54.7852 44.7266-55.3223 46.7773-55.3223C50.7812-55.3223 52.8809-52.9297 52.8809-48.877L52.8809-20.9473C52.8809-17.1387 51.2695-15.2832 47.998-15.2832ZM73.9746-40.2344C76.3184-40.2344 77.7344-41.748 77.7344-43.8965C77.7344-46.0938 76.2207-47.6562 73.9746-47.6562C71.7285-47.6562 70.2637-46.0938 70.2637-43.8965C70.2637-41.748 71.7285-40.2344 73.9746-40.2344ZM73.9746-22.998C76.6602-22.998 78.418-24.8535 78.418-27.3926C78.418-29.9316 76.6602-31.8359 73.9746-31.8359C71.3867-31.8359 69.5312-29.9316 69.5312-27.3926C69.5312-24.8535 71.3867-22.998 73.9746-22.998Z"/>
  </g>
  <g id="Bold-M" transform="matrix(1 0 0 1 2280.68 1126)">
   <path d="M29.8828 11.6699L88.7207 11.6699C99.9512 11.6699 106.152 5.46875 106.152-5.66406L106.152-64.6973C106.152-75.8789 99.9512-82.0312 88.7207-82.0312L29.8828-82.0312C18.6523-82.0312 12.4512-75.8789 12.4512-64.6973L12.4512-5.66406C12.4512 5.51758 18.6523 11.6699 29.8828 11.6699ZM72.7051-14.5996C64.209-14.5996 58.4961-19.2871 58.4961-26.3184C58.4961-31.3965 61.5723-35.1074 66.3086-36.1816L66.3086-36.5723C62.5488-37.5977 59.9609-40.918 59.9609-45.2637C59.9609-51.6113 65.1855-55.957 72.7539-55.957C80.3711-55.957 85.6445-51.6113 85.6445-45.2637C85.6445-40.918 83.0078-37.5488 79.2969-36.5723L79.2969-36.1816C83.9355-35.1074 87.0605-31.4453 87.0605-26.3672C87.0605-19.3359 81.2988-14.5996 72.7051-14.5996ZM46.2891-14.8926C43.5547-14.8926 42.0898-16.5527 42.0898-19.7266L42.0898-45.2148L41.8457-45.2148L38.4277-42.334C37.207-41.1133 36.4258-40.6738 35.0586-40.6738C33.1543-40.6738 31.543-42.3828 31.543-44.3848C31.543-46.0449 32.2754-47.2656 33.8379-48.6816L39.7461-53.3203C41.9922-55.2246 43.457-55.7617 45.3613-55.7617C48.7305-55.7617 50.5859-53.7109 50.5859-50.293L50.5859-19.7266C50.5859-16.5527 49.1211-14.8926 46.2891-14.8926ZM72.7539-39.6973C75.6836-39.6973 77.5391-41.6504 77.5391-44.3848C77.5391-47.1191 75.5859-49.0723 72.7539-49.0723C69.9707-49.0723 68.0176-47.1191 68.0176-44.3848C68.0176-41.6504 69.9219-39.6973 72.7539-39.6973ZM72.8027-21.5332C76.1719-21.5332 78.5156-23.8281 78.5156-27.002C78.5156-30.1758 76.2207-32.4707 72.8027-32.4707C69.4336-32.4707 67.041-30.1758 67.041-27.002C67.041-23.8281 69.4336-21.5332 72.8027-21.5332Z"/>
  </g>
  <g id="Semibold-M" transform="matrix(1 0 0 1 1984.65 1126)">
   <path d="M29.1016 10.9863L88.0859 10.9863C98.9746 10.9863 104.785 5.17578 104.785-5.56641L104.785-64.8438C104.785-75.5859 98.9746-81.3477 88.0859-81.3477L29.1016-81.3477C18.2617-81.3477 12.4512-75.5859 12.4512-64.8438L12.4512-5.56641C12.4512 5.22461 18.2617 10.9863 29.1016 10.9863ZM71.875-14.209C63.2812-14.209 57.5195-18.9941 57.5195-26.1719C57.5195-31.25 60.6445-35.1562 65.625-36.2305L65.625-36.5723C61.5234-37.7441 58.9844-41.1133 58.9844-45.5078C58.9844-51.9043 64.3066-56.2988 71.9238-56.2988C79.5898-56.2988 84.9121-51.9043 84.9121-45.5078C84.9121-41.1133 82.3242-37.6953 78.2715-36.5723L78.2715-36.2305C83.252-35.1562 86.377-31.2988 86.377-26.1719C86.377-19.043 80.5176-14.209 71.875-14.209ZM45.1172-14.5996C42.6758-14.5996 41.3086-16.1621 41.3086-18.8477L41.3086-46.4844L41.0156-46.4844L36.9141-43.1641C35.6934-42.0898 35.0586-41.7969 33.8867-41.7969C32.1289-41.7969 30.5664-43.3594 30.5664-45.2148C30.5664-46.7773 31.2988-47.9004 32.666-49.0234L39.209-53.9062C41.2598-55.5664 42.5781-56.0547 44.3848-56.0547C47.3145-56.0547 49.0234-54.248 49.0234-51.2695L49.0234-18.8477C49.0234-16.1621 47.6074-14.5996 45.1172-14.5996ZM71.9238-39.3066C75.1953-39.3066 77.4414-41.6016 77.4414-44.6777C77.4414-47.8027 75.1953-50.0488 71.9238-50.0488C68.7012-50.0488 66.5039-47.8027 66.5039-44.6777C66.5039-41.6016 68.7012-39.3066 71.9238-39.3066ZM71.9727-20.5566C75.8301-20.5566 78.6133-23.0957 78.6133-26.7578C78.6133-30.3711 75.9277-32.959 71.9727-32.959C68.1152-32.959 65.332-30.3223 65.332-26.7578C65.332-23.0957 68.1152-20.5566 71.9727-20.5566Z"/>
  </g>
  <g id="Medium-M" transform="matrix(1 0 0 1 1688.47 1126)">
   <path d="M28.5156 10.4492L87.6465 10.4492C98.2422 10.4492 103.711 4.98047 103.711-5.46875L103.711-64.8926C103.711-75.3418 98.2422-80.8105 87.6465-80.8105L28.5156-80.8105C17.9688-80.8105 12.4512-75.3906 12.4512-64.8926L12.4512-5.46875C12.4512 4.98047 17.9688 10.4492 28.5156 10.4492ZM71.2402-13.916C62.5977-13.916 56.7871-18.75 56.7871-26.0254C56.7871-31.1035 59.9121-35.1562 65.0879-36.2793L65.0879-36.6211C60.7422-37.8418 58.252-41.2598 58.252-45.6543C58.252-52.1484 63.623-56.5918 71.2891-56.5918C79.0039-56.5918 84.375-52.1484 84.375-45.6543C84.375-41.2598 81.8359-37.7441 77.5391-36.6211L77.5391-36.2793C82.7148-35.1562 85.8398-31.1523 85.8398-26.0742C85.8398-18.7988 79.9316-13.916 71.2402-13.916ZM44.1895-14.4043C41.9922-14.4043 40.6738-15.8203 40.6738-18.2129L40.6738-47.4121L40.4297-47.4121L35.7422-43.7988C34.5703-42.8223 33.9844-42.627 32.959-42.627C31.3477-42.627 29.834-44.0918 29.834-45.8984C29.834-47.3145 30.5176-48.3398 31.7871-49.3164L38.7695-54.3457C40.7227-55.8105 41.8945-56.2988 43.6523-56.2988C46.2402-56.2988 47.8027-54.6387 47.8027-52.0508L47.8027-18.2129C47.8027-15.8203 46.4844-14.4043 44.1895-14.4043ZM71.2891-39.0137C74.8535-39.0137 77.2949-41.5039 77.2949-44.9219C77.2949-48.3887 74.8535-50.7812 71.2891-50.7812C67.7734-50.7812 65.332-48.3887 65.332-44.9219C65.332-41.5039 67.7734-39.0137 71.2891-39.0137ZM71.3379-19.7754C75.5859-19.7754 78.6621-22.5586 78.6621-26.5137C78.6621-30.5176 75.6836-33.3008 71.3379-33.3008C67.0898-33.3008 64.0137-30.4688 64.0137-26.5137C64.0137-22.5586 67.0898-19.7754 71.3379-19.7754Z"/>
  </g>
  <g id="Regular-M" transform="matrix(1 0 0 1 1392.45 1126)">
   <path d="M27.7832 9.76562L87.0117 9.76562C97.2656 9.76562 102.344 4.6875 102.344-5.37109L102.344-64.9902C102.344-75.0488 97.2656-80.127 87.0117-80.127L27.7832-80.127C17.5781-80.127 12.4512-75.0977 12.4512-64.9902L12.4512-5.37109C12.4512 4.73633 17.5781 9.76562 27.7832 9.76562ZM70.3613-13.5254C61.6699-13.5254 55.8105-18.457 55.8105-25.8301C55.8105-30.957 58.9355-35.2051 64.4043-36.3281L64.4043-36.6211C59.7168-37.9883 57.3242-41.5039 57.3242-45.8984C57.3242-52.4414 62.793-56.9824 70.459-56.9824C78.1738-56.9824 83.6426-52.4414 83.6426-45.8984C83.6426-41.5039 81.2012-37.8906 76.5625-36.6211L76.5625-36.3281C81.9824-35.2051 85.1562-31.0059 85.1562-25.8789C85.1562-18.5547 79.1504-13.5254 70.3613-13.5254ZM43.0176-14.1602C41.1621-14.1602 39.8926-15.4297 39.8926-17.3828L39.8926-48.6328L39.6484-48.6328L34.2773-44.6777C33.1055-43.75 32.6172-43.7012 31.7871-43.7012C30.3223-43.7012 28.9062-45.0195 28.9062-46.7285C28.9062-48.0469 29.541-48.9746 30.6641-49.707L38.2812-54.9316C40.0391-56.1523 41.0156-56.6406 42.6758-56.6406C44.8242-56.6406 46.2402-55.127 46.2402-53.0273L46.2402-17.3828C46.2402-15.4297 45.0195-14.1602 43.0176-14.1602ZM70.459-38.623C74.4141-38.623 77.1973-41.4551 77.1973-45.2637C77.1973-49.0723 74.4629-51.709 70.459-51.709C66.5527-51.709 63.8184-49.0723 63.8184-45.2637C63.8184-41.4551 66.5527-38.623 70.459-38.623ZM70.5078-18.7988C75.293-18.7988 78.7598-21.875 78.7598-26.2695C78.7598-30.6641 75.3906-33.7891 70.5078-33.7891C65.7715-33.7891 62.3047-30.6152 62.3047-26.2695C62.3047-21.875 65.7715-18.7988 70.5078-18.7988Z"/>
  </g>
  <g id="Light-M" transform="matrix(1 0 0 1 1096.47 1126)">
   <path d="M26.8555 9.0332L86.4746 9.0332C95.9961 9.0332 100.879 4.15039 100.879-5.22461L100.879-65.0879C100.879-74.5117 95.9961-79.3945 86.4746-79.3945L26.8555-79.3945C17.334-79.3945 12.4512-74.5605 12.4512-65.0879L12.4512-5.22461C12.4512 4.19922 17.334 9.0332 26.8555 9.0332ZM69.2871-14.0625C60.8887-14.0625 55.0293-18.8965 55.0293-26.0742C55.0293-31.0547 58.3008-35.2539 63.5742-36.2793L63.5742-36.5723C59.082-37.8906 56.543-41.4062 56.543-45.7031C56.543-52.0508 61.9141-56.4941 69.3848-56.4941C76.8555-56.4941 82.2266-52.0508 82.2266-45.7031C82.2266-41.4062 79.6387-37.793 75.1953-36.5723L75.1953-36.2793C80.4199-35.2539 83.7402-31.1035 83.7402-26.0742C83.7402-18.9453 77.7832-14.0625 69.2871-14.0625ZM42.041-14.5508C40.5762-14.5508 39.5508-15.5762 39.5508-17.0898L39.5508-49.7559L39.3066-49.7559L32.7148-45.166C31.8848-44.5312 31.4941-44.4824 30.8594-44.4824C29.6875-44.4824 28.5645-45.5566 28.5645-46.9238C28.5645-47.9004 29.0527-48.6328 29.9316-49.2676L38.3301-54.8828C39.6484-55.8105 40.4785-56.1523 41.748-56.1523C43.457-56.1523 44.6289-54.9805 44.6289-53.2715L44.6289-17.0898C44.6289-15.5762 43.6035-14.5508 42.041-14.5508ZM69.3848-38.2324C73.9258-38.2324 77.0508-41.2109 77.0508-45.2637C77.0508-49.3652 73.9258-52.1973 69.3848-52.1973C64.8438-52.1973 61.7188-49.3652 61.7188-45.2637C61.7188-41.2109 64.8438-38.2324 69.3848-38.2324ZM69.3848-18.3105C74.8047-18.3105 78.7109-21.6309 78.7109-26.3184C78.7109-30.957 74.8535-34.2285 69.3848-34.2285C64.0137-34.2285 60.1074-30.9082 60.1074-26.3184C60.1074-21.6309 64.0137-18.3105 69.3848-18.3105Z"/>
  </g>
  <g id="Thin-M" transform="matrix(1 0 0 1 800.758 1126)">
   <path d="M25.6348 8.05664L85.7422 8.05664C94.3848 8.05664 98.877 3.4668 98.877-5.0293L98.877-65.2344C98.877-73.7305 94.3848-78.3691 85.7422-78.3691L25.6348-78.3691C16.9922-78.3691 12.4512-73.877 12.4512-65.2344L12.4512-5.0293C12.4512 3.56445 16.9922 8.05664 25.6348 8.05664ZM67.9199-14.6973C59.8145-14.6973 54.0039-19.4824 54.0039-26.3184C54.0039-31.1523 57.4707-35.3027 62.4023-36.2793L62.4023-36.5234C58.252-37.793 55.5176-41.3086 55.5176-45.3613C55.5176-51.5137 60.7422-55.8105 67.9199-55.8105C75.0977-55.8105 80.3711-51.5137 80.3711-45.3613C80.3711-41.3086 77.5879-37.6953 73.4375-36.5234L73.4375-36.2793C78.3691-35.3027 81.8359-31.1523 81.8359-26.3672C81.8359-19.5312 75.9766-14.6973 67.9199-14.6973ZM40.7227-15.0879C39.7949-15.0879 39.1113-15.7227 39.1113-16.748L39.1113-51.3184L38.916-51.3184L30.6641-45.8496C30.2246-45.5566 30.0293-45.5566 29.6875-45.5566C28.8086-45.5566 28.125-46.2891 28.125-47.1191C28.125-47.7539 28.3691-48.2422 29.0039-48.6328L38.4277-54.7852C39.1602-55.3223 39.6973-55.5176 40.5273-55.5176C41.6016-55.5176 42.4316-54.7852 42.4316-53.6621L42.4316-16.748C42.4316-15.7227 41.7969-15.0879 40.7227-15.0879ZM67.9199-37.7441C73.2422-37.7441 76.9043-40.918 76.9043-45.2637C76.9043-49.7559 73.291-52.832 67.9199-52.832C62.5977-52.832 58.9355-49.7559 58.9355-45.2637C58.9355-40.918 62.6465-37.7441 67.9199-37.7441ZM67.9199-17.6758C74.1699-17.6758 78.6133-21.3379 78.6133-26.3672C78.6133-31.2988 74.1699-34.8633 67.9199-34.8633C61.7188-34.8633 57.2754-31.2988 57.2754-26.3672C57.2754-21.3379 61.7188-17.6758 67.9199-17.6758Z"/>
  </g>
  <g id="Ultralight-M" transform="matrix(1 0 0 1 504.535 1126)">
   <path d="M25 7.56836L85.3516 7.56836C93.5059 7.56836 97.9004 3.125 97.9004-4.98047L97.9004-65.2832C97.9004-73.3887 93.5059-77.832 85.3516-77.832L25-77.832C16.7969-77.832 12.4512-73.4863 12.4512-65.2832L12.4512-4.98047C12.4512 3.22266 16.7969 7.56836 25 7.56836ZM67.1875-15.0391C59.2773-15.0391 53.5156-19.7754 53.5156-26.4648C53.5156-31.2012 57.0312-35.3027 61.8164-36.2793L61.8164-36.5234C57.8125-37.7441 54.9805-41.2598 54.9805-45.2148C54.9805-51.2695 60.1562-55.4688 67.1875-55.4688C74.2188-55.4688 79.3945-51.2695 79.3945-45.2148C79.3945-41.2598 76.5137-37.6465 72.5098-36.5234L72.5098-36.2793C77.3438-35.3027 80.8594-31.2012 80.8594-26.4648C80.8594-19.8242 75.0488-15.0391 67.1875-15.0391ZM40.0879-15.332C39.4043-15.332 38.8672-15.8203 38.8672-16.5527L38.8672-52.0996L38.6719-52.0996L29.6387-46.1914C29.3945-46.0938 29.2969-46.0938 29.0527-46.0938C28.3691-46.0938 27.8809-46.6309 27.8809-47.2168C27.8809-47.6562 28.0273-47.998 28.5156-48.3398L38.4766-54.7852C38.916-55.0781 39.3066-55.1758 39.8926-55.1758C40.6738-55.1758 41.3086-54.6875 41.3086-53.8574L41.3086-16.5527C41.3086-15.8203 40.8691-15.332 40.0879-15.332ZM67.1875-37.5C72.9004-37.5 76.8555-40.7715 76.8555-45.3125C76.8555-49.9023 72.9492-53.1738 67.1875-53.1738C61.4258-53.1738 57.5195-49.9023 57.5195-45.3125C57.5195-40.7715 61.4746-37.5 67.1875-37.5ZM67.1875-17.334C73.8281-17.334 78.5645-21.1426 78.5645-26.416C78.5645-31.4941 73.8281-35.1562 67.1875-35.1562C60.5469-35.1562 55.7617-31.4941 55.7617-26.416C55.7617-21.1426 60.5469-17.334 67.1875-17.334Z"/>
  </g>
  <g id="Black-S" transform="matrix(1 0 0 1 2885.5 696)">
   <path d="M25 2.92969L70.8008 2.92969C80.3711 2.92969 86.0352-2.73438 86.0352-12.3047L86.0352-58.1055C86.0352-67.6758 80.3711-73.3398 70.8008-73.3398L25-73.3398C15.4297-73.3398 9.76562-67.6758 9.76562-58.1055L9.76562-12.3047C9.76562-2.73438 15.4297 2.92969 25 2.92969ZM38.7207-19.8242C35.8887-19.8242 34.5703-21.4355 34.5703-24.8047L34.5703-40.5273L34.4238-40.5273L33.2031-39.0625C32.2266-37.8906 31.3965-37.2559 29.9316-37.2559C28.0762-37.2559 26.6602-38.8672 26.6602-40.625C26.6602-42.2363 27.2949-43.4082 28.9062-44.9707L32.2266-48.1934C34.375-50.2441 35.8398-50.6836 37.5488-50.6836C41.1133-50.6836 42.8711-48.6328 42.8711-45.0195L42.8711-24.8047C42.8711-21.4355 41.5527-19.8242 38.7207-19.8242ZM58.7402-19.8242C52.1973-19.8242 47.8027-23.3398 47.8027-28.6133C47.8027-32.5684 50.2441-35.0098 53.3691-35.8887L53.3691-36.2793C51.123-36.8164 48.9258-39.2578 48.9258-42.5781C48.9258-47.4609 52.832-50.6836 58.7402-50.6836C64.6484-50.6836 68.6035-47.4609 68.6035-42.5781C68.6035-39.2578 66.4062-36.8164 64.1602-36.2793L64.1602-35.8887C67.2363-35.0098 69.6777-32.5684 69.6777-28.6133C69.6777-23.3398 65.2832-19.8242 58.7402-19.8242ZM58.7402-39.502C60.2051-39.502 61.0352-40.4297 61.0352-41.748C61.0352-43.0664 60.1074-44.0918 58.7402-44.0918C57.373-44.0918 56.4941-43.0664 56.4941-41.748C56.4941-40.4297 57.3242-39.502 58.7402-39.502ZM58.7402-26.5625C60.3516-26.5625 61.377-27.7344 61.377-29.3457C61.377-30.9082 60.3516-32.1289 58.7402-32.1289C57.1777-32.1289 56.1035-30.9082 56.1035-29.3457C56.1035-27.7344 57.1777-26.5625 58.7402-26.5625Z"/>
  </g>
  <g id="Heavy-S" transform="matrix(1 0 0 1 2589.4 696)">
   <path d="M24.3652 2.34375L70.2637 2.34375C79.541 2.34375 84.8145-2.97852 84.8145-12.207L84.8145-58.2031C84.8145-67.4316 79.541-72.7539 70.2637-72.7539L24.3652-72.7539C15.0879-72.7539 9.76562-67.4316 9.76562-58.2031L9.76562-12.207C9.76562-2.97852 15.0879 2.34375 24.3652 2.34375ZM58.0078-19.3848C51.3672-19.3848 46.9238-22.998 46.9238-28.418C46.9238-32.4219 49.3652-35.0586 52.7832-35.9375L52.7832-36.2793C50.1953-36.9629 48.0469-39.4531 48.0469-42.8223C48.0469-47.8027 52.0508-51.123 58.0078-51.123C64.0137-51.123 68.0664-47.8027 68.0664-42.8223C68.0664-39.4531 65.918-36.9629 63.3301-36.2793L63.3301-35.9375C66.6992-35.0586 69.1406-32.4219 69.1406-28.418C69.1406-22.998 64.6484-19.3848 58.0078-19.3848ZM37.6465-19.5312C35.1074-19.5312 33.8379-20.9961 33.8379-24.0234L33.8379-41.6016L33.6426-41.6016L31.8848-39.8438C30.8594-38.7695 30.127-38.2324 28.8574-38.2324C27.1484-38.2324 25.7324-39.7461 25.7324-41.4551C25.7324-42.9688 26.3672-44.043 27.832-45.4102L31.6895-48.7793C33.6914-50.6348 35.0586-51.0254 36.6699-51.0254C39.8438-51.0254 41.5039-49.1699 41.5039-45.9473L41.5039-24.0234C41.5039-20.9961 40.2344-19.5312 37.6465-19.5312ZM58.0078-39.1602C59.8145-39.1602 60.9375-40.3809 60.9375-42.041C60.9375-43.75 59.7656-45.0195 58.0078-45.0195C56.3477-45.0195 55.1758-43.75 55.1758-42.041C55.1758-40.3809 56.2988-39.1602 58.0078-39.1602ZM58.0566-25.6348C60.0586-25.6348 61.4746-27.0508 61.4746-29.0527C61.4746-31.0547 60.1074-32.5195 58.0566-32.5195C56.0547-32.5195 54.6387-31.0547 54.6387-29.0527C54.6387-27.0508 56.0547-25.6348 58.0566-25.6348Z"/>
  </g>
  <g id="Bold-S" transform="matrix(1 0 0 1 2293.35 696)">
   <path d="M23.6328 1.66016L69.6289 1.66016C78.6133 1.66016 83.4961-3.22266 83.4961-12.1094L83.4961-58.3008C83.4961-67.1875 78.6133-72.0703 69.6289-72.0703L23.6328-72.0703C14.6973-72.0703 9.76562-67.1875 9.76562-58.3008L9.76562-12.1094C9.76562-3.22266 14.6973 1.66016 23.6328 1.66016ZM57.1777-18.8965C50.4395-18.8965 45.9473-22.6074 45.9473-28.1738C45.9473-32.2266 48.3887-35.1074 52.1484-35.9863L52.1484-36.2793C49.1211-37.1094 47.1191-39.6973 47.1191-43.1641C47.1191-48.1934 51.2207-51.6113 57.2266-51.6113C63.2812-51.6113 67.4316-48.1934 67.4316-43.1641C67.4316-39.6973 65.3809-37.0605 62.4023-36.2793L62.4023-35.9863C66.1133-35.1074 68.5547-32.2266 68.5547-28.2227C68.5547-22.6562 63.9648-18.8965 57.1777-18.8965ZM36.4258-19.1895C34.2285-19.1895 33.0078-20.5566 33.0078-23.0957L33.0078-42.8223L32.8125-42.8223L30.4199-40.7227C29.3945-39.6973 28.7598-39.3555 27.6367-39.3555C26.0742-39.3555 24.707-40.7715 24.707-42.3828C24.707-43.7988 25.3418-44.7754 26.6113-45.8984L31.1035-49.4141C32.959-51.0254 34.1309-51.4648 35.7422-51.4648C38.4277-51.4648 39.9414-49.7559 39.9414-47.0215L39.9414-23.0957C39.9414-20.5566 38.7207-19.1895 36.4258-19.1895ZM57.2266-38.7695C59.375-38.7695 60.791-40.332 60.791-42.4316C60.791-44.4824 59.3262-45.9961 57.2266-45.9961C55.1758-45.9961 53.7598-44.4824 53.7598-42.4316C53.7598-40.332 55.127-38.7695 57.2266-38.7695ZM57.2754-24.5605C59.7656-24.5605 61.5234-26.3184 61.5234-28.7598C61.5234-31.2012 59.8145-33.0078 57.2754-33.0078C54.7852-33.0078 52.9785-31.2012 52.9785-28.7598C52.9785-26.3184 54.7852-24.5605 57.2754-24.5605Z"/>
  </g>
  <g id="Semibold-S" transform="matrix(1 0 0 1 1997.1 696)">
   <path d="M23.0957 1.17188L69.1895 1.17188C77.9297 1.17188 82.5684-3.36914 82.5684-12.0117L82.5684-58.3984C82.5684-67.041 77.9297-71.582 69.1895-71.582L23.0957-71.582C14.4043-71.582 9.76562-67.041 9.76562-58.3984L9.76562-12.0117C9.76562-3.36914 14.4043 1.17188 23.0957 1.17188ZM56.6406-18.5547C49.8047-18.5547 45.3125-22.3633 45.3125-28.0273C45.3125-32.0801 47.6562-35.1562 51.6602-36.0352L51.6602-36.3281C48.3887-37.2559 46.4355-39.8926 46.4355-43.3594C46.4355-48.4375 50.6348-51.9531 56.6895-51.9531C62.793-51.9531 66.9922-48.4375 66.9922-43.3594C66.9922-39.8926 64.9902-37.1582 61.7676-36.3281L61.7676-36.0352C65.7227-35.1562 68.1152-32.1289 68.1152-28.0762C68.1152-22.3633 63.5254-18.5547 56.6406-18.5547ZM35.6445-18.9453C33.5938-18.9453 32.4219-20.2148 32.4219-22.4609L32.4219-43.7012L32.2266-43.7012L29.3945-41.3086C28.3203-40.3809 27.7832-40.1367 26.8066-40.1367C25.3418-40.1367 24.0234-41.4551 24.0234-43.0176C24.0234-44.3359 24.6582-45.2637 25.7812-46.2402L30.6641-49.9023C32.4219-51.3184 33.4961-51.709 35.0586-51.709C37.4512-51.709 38.916-50.1953 38.916-47.7539L38.916-22.4609C38.916-20.2148 37.6953-18.9453 35.6445-18.9453ZM56.6895-38.5254C59.082-38.5254 60.6934-40.2832 60.6934-42.627C60.6934-45.0195 59.0332-46.7285 56.6895-46.7285C54.3457-46.7285 52.7344-45.0195 52.7344-42.627C52.7344-40.2832 54.3457-38.5254 56.6895-38.5254ZM56.7383-23.8281C59.5703-23.8281 61.6211-25.7812 61.6211-28.5645C61.6211-31.3477 59.6191-33.3008 56.7383-33.3008C53.9062-33.3008 51.8555-31.2988 51.8555-28.5645C51.8555-25.7812 53.9062-23.8281 56.7383-23.8281Z"/>
  </g>
  <g id="Medium-S" transform="matrix(1 0 0 1 1700.75 696)">
   <path d="M22.7051 0.830078L68.8965 0.830078C77.4414 0.830078 81.8359-3.51562 81.8359-11.9629L81.8359-58.4473C81.8359-66.8945 77.4414-71.2402 68.8965-71.2402L22.7051-71.2402C14.209-71.2402 9.76562-66.8945 9.76562-58.4473L9.76562-11.9629C9.76562-3.51562 14.209 0.830078 22.7051 0.830078ZM56.2012-18.3105C49.3164-18.3105 44.7754-22.168 44.7754-27.9297C44.7754-31.9824 47.168-35.1562 51.3184-36.0352L51.3184-36.3281C47.8516-37.3047 45.9473-39.9902 45.9473-43.5059C45.9473-48.6328 50.1953-52.1973 56.2988-52.1973C62.4023-52.1973 66.6504-48.6328 66.6504-43.5059C66.6504-39.9902 64.7461-37.2559 61.2793-36.3281L61.2793-36.0352C65.3809-35.1562 67.8223-32.0312 67.8223-27.9785C67.8223-22.2168 63.1348-18.3105 56.2012-18.3105ZM35.0098-18.75C33.1543-18.75 31.9824-19.9707 31.9824-22.0215L31.9824-44.3359L31.7871-44.3359L28.6133-41.748C27.5391-40.8691 27.0508-40.7227 26.1719-40.7227C24.8047-40.7227 23.4863-41.9922 23.4863-43.5059C23.4863-44.7754 24.1211-45.6543 25.1953-46.4844L30.3711-50.2441C32.0312-51.5137 33.0566-51.9531 34.5703-51.9531C36.7188-51.9531 38.0859-50.4883 38.0859-48.291L38.0859-22.0215C38.0859-19.9707 36.9141-18.75 35.0098-18.75ZM56.2988-38.3301C58.8379-38.3301 60.5957-40.2344 60.5957-42.8223C60.5957-45.4102 58.8379-47.2168 56.2988-47.2168C53.7598-47.2168 52.002-45.4102 52.002-42.8223C52.002-40.2344 53.7598-38.3301 56.2988-38.3301ZM56.2988-23.291C59.4238-23.291 61.6699-25.3906 61.6699-28.3691C61.6699-31.4453 59.4727-33.5449 56.2988-33.5449C53.2227-33.5449 50.9766-31.3965 50.9766-28.3691C50.9766-25.3906 53.2227-23.291 56.2988-23.291Z"/>
  </g>
  <g id="Regular-S" transform="matrix(1 0 0 1 1404.51 696)">
   <path d="M22.2168 0.390625L68.457 0.390625C76.8066 0.390625 80.9082-3.71094 80.9082-11.9141L80.9082-58.4961C80.9082-66.6992 76.8066-70.8008 68.457-70.8008L22.2168-70.8008C13.916-70.8008 9.76562-66.6992 9.76562-58.4961L9.76562-11.9141C9.76562-3.71094 13.916 0.390625 22.2168 0.390625ZM55.6641-18.0176C48.6816-18.0176 44.1406-21.875 44.1406-27.7832C44.1406-31.8359 46.4844-35.2051 50.8789-36.084L50.8789-36.3281C47.1191-37.4512 45.3125-40.1855 45.3125-43.7012C45.3125-48.9258 49.6094-52.4902 55.7617-52.4902C61.9141-52.4902 66.2109-48.9258 66.2109-43.7012C66.2109-40.1855 64.3555-37.3535 60.6445-36.3281L60.6445-36.084C64.9902-35.2051 67.3828-31.8848 67.3828-27.832C67.3828-21.9238 62.6953-18.0176 55.6641-18.0176ZM34.1797-18.5059C32.5195-18.5059 31.4453-19.6289 31.4453-21.3867L31.4453-45.166L31.2012-45.166L27.5879-42.3828C26.5137-41.5039 26.0742-41.5039 25.3418-41.5039C24.0723-41.5039 22.8027-42.6758 22.8027-44.1895C22.8027-45.3613 23.3887-46.1426 24.3652-46.8262L29.9316-50.6836C31.543-51.8066 32.4219-52.1973 33.8867-52.1973C35.791-52.1973 37.0605-50.9277 37.0605-49.0234L37.0605-21.3867C37.0605-19.6289 35.9375-18.5059 34.1797-18.5059ZM55.7617-38.0859C58.5449-38.0859 60.5469-40.1855 60.5469-43.0664C60.5469-45.9473 58.5449-47.9492 55.7617-47.9492C52.9785-47.9492 50.9766-45.9473 50.9766-43.0664C50.9766-40.1855 52.9785-38.0859 55.7617-38.0859ZM55.7617-22.5586C59.1797-22.5586 61.7188-24.8535 61.7188-28.1738C61.7188-31.543 59.2773-33.8379 55.7617-33.8379C52.3438-33.8379 49.8535-31.4941 49.8535-28.1738C49.8535-24.8535 52.3438-22.5586 55.7617-22.5586Z"/>
  </g>
  <g id="Light-S" transform="matrix(1 0 0 1 1108.46 696)">
   <path d="M21.3867-0.292969L67.9688-0.292969C75.7324-0.292969 79.5898-4.15039 79.5898-11.7676L79.5898-58.5938C79.5898-66.2109 75.7324-70.1172 67.9688-70.1172L21.3867-70.1172C13.6719-70.1172 9.76562-66.2598 9.76562-58.5938L9.76562-11.7676C9.76562-4.15039 13.6719-0.292969 21.3867-0.292969ZM54.6875-18.457C47.998-18.457 43.4082-22.2656 43.4082-27.9785C43.4082-31.9336 45.9473-35.2539 50.1465-36.084L50.1465-36.2793C46.5332-37.3535 44.5801-40.0879 44.5801-43.5059C44.5801-48.584 48.8281-52.0508 54.7852-52.0508C60.7422-52.0508 64.9902-48.584 64.9902-43.5059C64.9902-40.0879 62.9883-37.2559 59.4238-36.2793L59.4238-36.084C63.623-35.2539 66.1621-31.9336 66.1621-27.9785C66.1621-22.3145 61.4746-18.457 54.6875-18.457ZM33.3008-18.8477C32.0312-18.8477 31.1523-19.7754 31.1523-21.1426L31.1523-46.1914L30.9082-46.1914L26.2207-42.8223C25.4395-42.2363 25.0977-42.1875 24.5605-42.1875C23.4863-42.1875 22.5098-43.1152 22.5098-44.3359C22.5098-45.2148 22.9492-45.8496 23.7305-46.3867L29.9805-50.6348C31.2012-51.4648 31.9336-51.8066 33.0566-51.8066C34.5703-51.8066 35.5957-50.7812 35.5957-49.2676L35.5957-21.1426C35.5957-19.7754 34.7168-18.8477 33.3008-18.8477ZM54.7852-37.7441C58.1055-37.7441 60.4492-39.9902 60.4492-43.0664C60.4492-46.1914 58.1055-48.3398 54.7852-48.3398C51.4648-48.3398 49.1699-46.1914 49.1699-43.0664C49.1699-39.9902 51.4648-37.7441 54.7852-37.7441ZM54.7852-22.168C58.7891-22.168 61.6699-24.6582 61.6699-28.2227C61.6699-31.7871 58.8379-34.2773 54.7852-34.2773C50.8301-34.2773 47.9492-31.7383 47.9492-28.2227C47.9492-24.6582 50.8301-22.168 54.7852-22.168Z"/>
  </g>
  <g id="Thin-S" transform="matrix(1 0 0 1 812.599 696)">
   <path d="M20.3125-1.12305L67.334-1.12305C74.2676-1.12305 77.8809-4.78516 77.8809-11.6211L77.8809-58.6914C77.8809-65.5762 74.2676-69.2383 67.334-69.2383L20.3125-69.2383C13.3789-69.2383 9.76562-65.625 9.76562-58.6914L9.76562-11.6211C9.76562-4.6875 13.3789-1.12305 20.3125-1.12305ZM53.4668-18.9941C47.0703-18.9941 42.5293-22.7539 42.5293-28.2227C42.5293-32.0312 45.2148-35.2539 49.1211-36.0352L49.1211-36.2793C45.8008-37.2559 43.7012-39.9902 43.7012-43.2617C43.7012-48.0957 47.8027-51.5137 53.5156-51.5137C59.1797-51.5137 63.3301-48.0957 63.3301-43.2617C63.3301-39.9902 61.1816-37.1582 57.8613-36.2793L57.8613-36.0352C61.8164-35.2539 64.502-32.0312 64.502-28.2227C64.502-22.8027 59.8633-18.9941 53.4668-18.9941ZM32.1777-19.3359C31.3477-19.3359 30.7129-19.9219 30.7129-20.8008L30.7129-47.5098L30.5664-47.5098L24.4141-43.4082C24.0234-43.1152 23.8281-43.1152 23.4863-43.1152C22.7539-43.1152 22.1191-43.75 22.1191-44.4824C22.1191-45.0684 22.3633-45.5078 22.9004-45.8496L30.0781-50.5859C30.8105-51.0742 31.25-51.2207 31.9824-51.2207C32.959-51.2207 33.6426-50.5859 33.6426-49.6094L33.6426-20.8008C33.6426-19.9219 33.1055-19.3359 32.1777-19.3359ZM53.5156-37.3047C57.5195-37.3047 60.3027-39.7461 60.3027-43.1152C60.3027-46.5332 57.5684-48.9258 53.5156-48.9258C49.4629-48.9258 46.7285-46.5332 46.7285-43.1152C46.7285-39.7461 49.5117-37.3047 53.5156-37.3047ZM53.5156-21.582C58.2031-21.582 61.6211-24.4141 61.6211-28.2715C61.6211-32.0801 58.252-34.8145 53.5156-34.8145C48.7793-34.8145 45.4102-32.0801 45.4102-28.2715C45.4102-24.4141 48.7793-21.582 53.5156-21.582Z"/>
  </g>
  <g id="Ultralight-S" transform="matrix(1 0 0 1 516.352 696)">
   <path d="M19.7754-1.5625L66.9922-1.5625C73.5352-1.5625 76.9531-5.12695 76.9531-11.5234L76.9531-58.7891C76.9531-65.2344 73.5352-68.75 66.9922-68.75L19.7754-68.75C13.2324-68.75 9.76562-65.2832 9.76562-58.7891L9.76562-11.5234C9.76562-5.0293 13.2324-1.5625 19.7754-1.5625ZM52.832-19.3359C46.582-19.3359 42.041-23.0469 42.041-28.3203C42.041-32.0801 44.8242-35.3027 48.584-36.0352L48.584-36.2305C45.4102-37.207 43.2129-39.9414 43.2129-43.1152C43.2129-47.8516 47.2656-51.1719 52.832-51.1719C58.3984-51.1719 62.4512-47.8516 62.4512-43.1152C62.4512-39.9414 60.2051-37.1094 57.0801-36.2305L57.0801-36.0352C60.8398-35.3027 63.623-32.0801 63.623-28.3203C63.623-23.0957 59.0332-19.3359 52.832-19.3359ZM31.5918-19.5801C31.0059-19.5801 30.5176-20.0195 30.5176-20.6543L30.5176-48.2422L30.3711-48.2422L23.4863-43.75C23.2422-43.6035 23.1445-43.6035 22.9492-43.6035C22.3633-43.6035 21.9238-44.0918 21.9238-44.6289C21.9238-44.9707 22.0215-45.3125 22.4609-45.5566L30.127-50.5371C30.5664-50.8301 30.9082-50.9277 31.4453-50.9277C32.1289-50.9277 32.666-50.4883 32.666-49.7559L32.666-20.6543C32.666-20.0195 32.2754-19.5801 31.5918-19.5801ZM52.832-37.0605C57.1777-37.0605 60.2051-39.6484 60.2051-43.1152C60.2051-46.6797 57.2266-49.2188 52.832-49.2188C48.4375-49.2188 45.459-46.6797 45.459-43.1152C45.459-39.6484 48.4863-37.0605 52.832-37.0605ZM52.832-21.2891C57.9102-21.2891 61.5723-24.2676 61.5723-28.3203C61.5723-32.2266 57.9102-35.1074 52.832-35.1074C47.7539-35.1074 44.0918-32.2266 44.0918-28.3203C44.0918-24.2676 47.7539-21.2891 52.832-21.2891Z"/>
  </g>
 </g>
</svg>
