<?xml version="1.0" encoding="UTF-8"?>
<!--Generator: Apple Native CoreSVG 149-->
<!DOCTYPE svg
PUBLIC "-//W3C//DTD SVG 1.1//EN"
       "http://www.w3.org/Graphics/SVG/1.1/DTD/svg11.dtd">
<svg version="1.1" xmlns="http://www.w3.org/2000/svg" xmlns:xlink="http://www.w3.org/1999/xlink" width="3300" height="2200">
 <!--glyph: "uni1000D3.medium", point size: 100.000000, font version: "Version 16.0d18e1", template writer version: "8"-->
 <g id="Notes">
  <rect height="2200" id="artboard" style="fill:white;opacity:1" width="3300" x="0" y="0"/>
  <line id="" style="fill:none;stroke:black;opacity:1;stroke-width:0.5;" x1="263" x2="3036" y1="292" y2="292"/>
  <text style="stroke:none;fill:black;font-family:-apple-system,&quot;SF Pro Display&quot;,&quot;SF Pro Text&quot;,Helvetica,sans-serif;font-weight:bold;" transform="matrix(1 0 0 1 263 322)">Weight/Scale Variations</text>
  <text style="stroke:none;fill:black;font-family:-apple-system,&quot;SF Pro Display&quot;,&quot;SF Pro Text&quot;,Helvetica,sans-serif;text-anchor:middle;" transform="matrix(1 0 0 1 559.711 322)">Ultralight</text>
  <text style="stroke:none;fill:black;font-family:-apple-system,&quot;SF Pro Display&quot;,&quot;SF Pro Text&quot;,Helvetica,sans-serif;text-anchor:middle;" transform="matrix(1 0 0 1 856.422 322)">Thin</text>
  <text style="stroke:none;fill:black;font-family:-apple-system,&quot;SF Pro Display&quot;,&quot;SF Pro Text&quot;,Helvetica,sans-serif;text-anchor:middle;" transform="matrix(1 0 0 1 1153.13 322)">Light</text>
  <text style="stroke:none;fill:black;font-family:-apple-system,&quot;SF Pro Display&quot;,&quot;SF Pro Text&quot;,Helvetica,sans-serif;text-anchor:middle;" transform="matrix(1 0 0 1 1449.84 322)">Regular</text>
  <text style="stroke:none;fill:black;font-family:-apple-system,&quot;SF Pro Display&quot;,&quot;SF Pro Text&quot;,Helvetica,sans-serif;text-anchor:middle;" transform="matrix(1 0 0 1 1746.56 322)">Medium</text>
  <text style="stroke:none;fill:black;font-family:-apple-system,&quot;SF Pro Display&quot;,&quot;SF Pro Text&quot;,Helvetica,sans-serif;text-anchor:middle;" transform="matrix(1 0 0 1 2043.27 322)">Semibold</text>
  <text style="stroke:none;fill:black;font-family:-apple-system,&quot;SF Pro Display&quot;,&quot;SF Pro Text&quot;,Helvetica,sans-serif;text-anchor:middle;" transform="matrix(1 0 0 1 2339.98 322)">Bold</text>
  <text style="stroke:none;fill:black;font-family:-apple-system,&quot;SF Pro Display&quot;,&quot;SF Pro Text&quot;,Helvetica,sans-serif;text-anchor:middle;" transform="matrix(1 0 0 1 2636.69 322)">Heavy</text>
  <text style="stroke:none;fill:black;font-family:-apple-system,&quot;SF Pro Display&quot;,&quot;SF Pro Text&quot;,Helvetica,sans-serif;text-anchor:middle;" transform="matrix(1 0 0 1 2933.4 322)">Black</text>
  <line id="" style="fill:none;stroke:black;opacity:1;stroke-width:0.5;" x1="263" x2="3036" y1="1903" y2="1903"/>
  <g id="" transform="matrix(1 0 0 1 263 1933)">
   <path d="M9.24805 0.830078C13.5547 0.830078 17.1387-2.74414 17.1387-7.05078C17.1387-11.3574 13.5449-14.9316 9.23828-14.9316C4.94141-14.9316 1.36719-11.3574 1.36719-7.05078C1.36719-2.74414 4.95117 0.830078 9.24805 0.830078ZM9.24805-0.654297C5.70312-0.654297 2.87109-3.49609 2.87109-7.05078C2.87109-10.6055 5.69336-13.4473 9.23828-13.4473C12.793-13.4473 15.6348-10.6055 15.6445-7.05078C15.6543-3.49609 12.8027-0.654297 9.24805-0.654297ZM6.39648-6.31836L8.50586-6.31836L8.50586-4.19922C8.50586-3.75977 8.79883-3.45703 9.22852-3.45703C9.67773-3.45703 9.9707-3.75977 9.9707-4.19922L9.9707-6.31836L12.0996-6.31836C12.5391-6.31836 12.8418-6.61133 12.8418-7.04102C12.8418-7.48047 12.5391-7.7832 12.0996-7.7832L9.9707-7.7832L9.9707-9.89258C9.9707-10.3418 9.67773-10.6445 9.22852-10.6445C8.79883-10.6445 8.50586-10.3418 8.50586-9.89258L8.50586-7.7832L6.39648-7.7832C5.94727-7.7832 5.64453-7.48047 5.64453-7.04102C5.64453-6.61133 5.94727-6.31836 6.39648-6.31836Z"/>
  </g>
  <g id="" transform="matrix(1 0 0 1 281.506 1933)">
   <path d="M11.709 2.91016C17.1582 2.91016 21.6699-1.61133 21.6699-7.05078C21.6699-12.5 17.1484-17.0117 11.6992-17.0117C6.25977-17.0117 1.74805-12.5 1.74805-7.05078C1.74805-1.61133 6.26953 2.91016 11.709 2.91016ZM11.709 1.25C7.09961 1.25 3.41797-2.44141 3.41797-7.05078C3.41797-11.6602 7.08984-15.3516 11.6992-15.3516C16.3086-15.3516 20-11.6602 20.0098-7.05078C20.0195-2.44141 16.3184 1.25 11.709 1.25ZM7.98828-6.23047L10.8789-6.23047L10.8789-3.32031C10.8789-2.83203 11.2109-2.5 11.6895-2.5C12.1777-2.5 12.5195-2.83203 12.5195-3.32031L12.5195-6.23047L15.4297-6.23047C15.918-6.23047 16.25-6.5625 16.25-7.04102C16.25-7.5293 15.918-7.87109 15.4297-7.87109L12.5195-7.87109L12.5195-10.7617C12.5195-11.2695 12.1777-11.6016 11.6895-11.6016C11.2109-11.6016 10.8789-11.2598 10.8789-10.7617L10.8789-7.87109L7.98828-7.87109C7.48047-7.87109 7.14844-7.5293 7.14844-7.04102C7.14844-6.5625 7.49023-6.23047 7.98828-6.23047Z"/>
  </g>
  <g id="" transform="matrix(1 0 0 1 304.924 1933)">
   <path d="M14.9707 5.66406C21.9336 5.66406 27.6953-0.0976562 27.6953-7.05078C27.6953-14.0137 21.9238-19.7754 14.9609-19.7754C8.00781-19.7754 2.25586-14.0137 2.25586-7.05078C2.25586-0.0976562 8.01758 5.66406 14.9707 5.66406ZM14.9707 3.84766C8.93555 3.84766 4.08203-1.01562 4.08203-7.05078C4.08203-13.0957 8.92578-17.9492 14.9609-17.9492C21.0059-17.9492 25.8594-13.0957 25.8691-7.05078C25.8789-1.01562 21.0156 3.84766 14.9707 3.84766ZM10.0586-6.14258L14.0625-6.14258L14.0625-2.12891C14.0625-1.5918 14.4336-1.2207 14.9512-1.2207C15.4883-1.2207 15.8594-1.5918 15.8594-2.12891L15.8594-6.14258L19.8828-6.14258C20.4102-6.14258 20.791-6.51367 20.791-7.03125C20.791-7.56836 20.4199-7.94922 19.8828-7.94922L15.8594-7.94922L15.8594-11.9531C15.8594-12.5098 15.4883-12.8809 14.9512-12.8809C14.4336-12.8809 14.0625-12.5 14.0625-11.9531L14.0625-7.94922L10.0586-7.94922C9.50195-7.94922 9.13086-7.56836 9.13086-7.03125C9.13086-6.51367 9.51172-6.14258 10.0586-6.14258Z"/>
  </g>
  <text style="stroke:none;fill:black;font-family:-apple-system,&quot;SF Pro Display&quot;,&quot;SF Pro Text&quot;,Helvetica,sans-serif;font-weight:bold;" transform="matrix(1 0 0 1 263 1953)">Design Variations</text>
  <text style="stroke:none;fill:black;font-family:-apple-system,&quot;SF Pro Display&quot;,&quot;SF Pro Text&quot;,Helvetica,sans-serif;" transform="matrix(1 0 0 1 263 1971)">Symbols are supported in up to nine weights and three scales.</text>
  <text style="stroke:none;fill:black;font-family:-apple-system,&quot;SF Pro Display&quot;,&quot;SF Pro Text&quot;,Helvetica,sans-serif;" transform="matrix(1 0 0 1 263 1989)">For optimal layout with text and other symbols, vertically align</text>
  <text style="stroke:none;fill:black;font-family:-apple-system,&quot;SF Pro Display&quot;,&quot;SF Pro Text&quot;,Helvetica,sans-serif;" transform="matrix(1 0 0 1 263 2007)">symbols with the adjacent text.</text>
  <line id="" style="fill:none;stroke:#00AEEF;stroke-width:0.5;opacity:1.0;" x1="776" x2="776" y1="1919" y2="1933"/>
  <g id="" transform="matrix(1 0 0 1 776 1933)">
   <path d="M3.31055 0.126953C3.82812 0.126953 4.08203-0.0683594 4.26758-0.605469L5.52734-4.0625L11.2891-4.0625L12.5488-0.605469C12.7344-0.0683594 12.9883 0.126953 13.4961 0.126953C14.0137 0.126953 14.3457-0.185547 14.3457-0.673828C14.3457-0.839844 14.3164-0.986328 14.2383-1.20117L9.6582-13.3887C9.43359-13.9941 9.0332-14.2871 8.4082-14.2871C7.80273-14.2871 7.39258-13.9941 7.17773-13.3984L2.59766-1.19141C2.51953-0.976562 2.49023-0.830078 2.49023-0.664062C2.49023-0.175781 2.80273 0.126953 3.31055 0.126953ZM6.00586-5.53711L8.37891-12.1094L8.42773-12.1094L10.8008-5.53711Z"/>
  </g>
  <line id="" style="fill:none;stroke:#00AEEF;stroke-width:0.5;opacity:1.0;" x1="792.836" x2="792.836" y1="1919" y2="1933"/>
  <text style="stroke:none;fill:black;font-family:-apple-system,&quot;SF Pro Display&quot;,&quot;SF Pro Text&quot;,Helvetica,sans-serif;font-weight:bold;" transform="matrix(1 0 0 1 776 1953)">Margins</text>
  <text style="stroke:none;fill:black;font-family:-apple-system,&quot;SF Pro Display&quot;,&quot;SF Pro Text&quot;,Helvetica,sans-serif;" transform="matrix(1 0 0 1 776 1971)">Leading and trailing margins on the left and right side of each symbol</text>
  <text style="stroke:none;fill:black;font-family:-apple-system,&quot;SF Pro Display&quot;,&quot;SF Pro Text&quot;,Helvetica,sans-serif;" transform="matrix(1 0 0 1 776 1989)">can be adjusted by modifying the x-location of the margin guidelines.</text>
  <text style="stroke:none;fill:black;font-family:-apple-system,&quot;SF Pro Display&quot;,&quot;SF Pro Text&quot;,Helvetica,sans-serif;" transform="matrix(1 0 0 1 776 2007)">Modifications are automatically applied proportionally to all</text>
  <text style="stroke:none;fill:black;font-family:-apple-system,&quot;SF Pro Display&quot;,&quot;SF Pro Text&quot;,Helvetica,sans-serif;" transform="matrix(1 0 0 1 776 2025)">scales and weights.</text>
  <g id="" transform="matrix(1 0 0 1 1289 1933)">
   <path d="M2.8418 1.86523L4.54102 3.57422C5.40039 4.44336 6.38672 4.38477 7.31445 3.35938L17.4902-7.85156C17.7539-7.76367 18.0273-7.7832 18.3398-7.8418L19.4043-8.03711L20.0684-7.36328L20.0293-6.80664C19.9902-6.30859 20.1172-5.92773 20.6055-5.44922L21.3672-4.70703C21.8457-4.22852 22.4609-4.19922 22.9297-4.66797L25.8398-7.58789C26.3086-8.05664 26.2891-8.65234 25.8105-9.13086L25.0391-9.89258C24.5605-10.3711 24.1895-10.5273 23.7109-10.4883L23.1348-10.4395L22.4902-11.0742L22.7344-12.1973C22.8613-12.7637 22.7051-13.2031 22.1191-13.7891L19.9219-15.9766C16.582-19.2969 12.1484-19.2188 9.25781-16.3281C8.83789-15.918 8.80859-15.3418 9.04297-14.9512C9.27734-14.5898 9.73633-14.3555 10.3809-14.5215C11.8457-14.8633 13.3691-14.9219 14.7949-13.9844L14.209-12.5293C14.0137-12.0508 13.9844-11.6504 14.1113-11.2891L3.04688-0.898438C2.06055 0.0195312 1.98242 0.996094 2.8418 1.86523ZM10.752-15.957C13.1836-17.7344 16.4746-17.4316 18.7012-15.2051L21.1328-12.793C21.3672-12.5586 21.4062-12.373 21.3379-12.0312L21.0156-10.5469L22.5195-9.0625L23.5059-9.12109C23.7598-9.13086 23.8379-9.11133 24.0332-8.91602L24.6094-8.33984L22.168-5.89844L21.5918-6.47461C21.3965-6.66992 21.3672-6.74805 21.377-7.01172L21.4453-7.98828L19.9512-9.47266L18.4277-9.21875C18.1055-9.15039 17.959-9.17969 17.7148-9.41406L15.7129-11.416C15.459-11.6504 15.4297-11.8164 15.5859-12.1875L16.4648-14.2773C14.9023-15.7324 12.8711-16.3574 10.8398-15.7617C10.6836-15.7227 10.625-15.8496 10.752-15.957ZM5.27344 2.30469L4.10156 1.14258C3.63281 0.683594 3.74023 0.341797 4.14062-0.0195312L14.9512-10.1953L16.416-8.71094L6.42578 2.27539C6.07422 2.67578 5.74219 2.77344 5.27344 2.30469Z"/>
  </g>
  <text style="stroke:none;fill:black;font-family:-apple-system,&quot;SF Pro Display&quot;,&quot;SF Pro Text&quot;,Helvetica,sans-serif;font-weight:bold;" transform="matrix(1 0 0 1 1289 1953)">Exporting</text>
  <text style="stroke:none;fill:black;font-family:-apple-system,&quot;SF Pro Display&quot;,&quot;SF Pro Text&quot;,Helvetica,sans-serif;" transform="matrix(1 0 0 1 1289 1971)">Symbols should be outlined when exporting to ensure the</text>
  <text style="stroke:none;fill:black;font-family:-apple-system,&quot;SF Pro Display&quot;,&quot;SF Pro Text&quot;,Helvetica,sans-serif;" transform="matrix(1 0 0 1 1289 1989)">design is preserved when submitting to Xcode.</text>
  <text id="template-version" style="stroke:none;fill:black;font-family:-apple-system,&quot;SF Pro Display&quot;,&quot;SF Pro Text&quot;,Helvetica,sans-serif;text-anchor:end;" transform="matrix(1 0 0 1 3036 1933)">Template v.2.0</text>
  <text style="stroke:none;fill:black;font-family:-apple-system,&quot;SF Pro Display&quot;,&quot;SF Pro Text&quot;,Helvetica,sans-serif;text-anchor:end;" transform="matrix(1 0 0 1 3036 1951)">Requires Xcode 12 or greater</text>
  <text style="stroke:none;fill:black;font-family:-apple-system,&quot;SF Pro Display&quot;,&quot;SF Pro Text&quot;,Helvetica,sans-serif;text-anchor:end;" transform="matrix(1 0 0 1 3036 1969)">Generated from 5.square.fill</text>
  <text style="stroke:none;fill:black;font-family:-apple-system,&quot;SF Pro Display&quot;,&quot;SF Pro Text&quot;,Helvetica,sans-serif;text-anchor:end;" transform="matrix(1 0 0 1 3036 1987)">Typeset at 100 points</text>
  <text style="stroke:none;fill:black;font-family:-apple-system,&quot;SF Pro Display&quot;,&quot;SF Pro Text&quot;,Helvetica,sans-serif;" transform="matrix(1 0 0 1 263 726)">Small</text>
  <text style="stroke:none;fill:black;font-family:-apple-system,&quot;SF Pro Display&quot;,&quot;SF Pro Text&quot;,Helvetica,sans-serif;" transform="matrix(1 0 0 1 263 1156)">Medium</text>
  <text style="stroke:none;fill:black;font-family:-apple-system,&quot;SF Pro Display&quot;,&quot;SF Pro Text&quot;,Helvetica,sans-serif;" transform="matrix(1 0 0 1 263 1586)">Large</text>
 </g>
 <g id="Guides">
  <g id="H-reference" style="fill:#27AAE1;stroke:none;" transform="matrix(1 0 0 1 339 696)">
   <path d="M0.976562 0L3.66211 0L12.9883-24.4629L45.752-24.4629L55.127 0L57.7637 0L30.6152-70.459L28.125-70.459ZM29.3457-67.1387L29.4434-67.1387L44.873-26.709L13.8672-26.709Z"/>
  </g>
  <line id="Baseline-S" style="fill:none;stroke:#27AAE1;opacity:1;stroke-width:0.5;" x1="263" x2="3036" y1="696" y2="696"/>
  <line id="Capline-S" style="fill:none;stroke:#27AAE1;opacity:1;stroke-width:0.5;" x1="263" x2="3036" y1="625.541" y2="625.541"/>
  <g id="H-reference" style="fill:#27AAE1;stroke:none;" transform="matrix(1 0 0 1 339 1126)">
   <path d="M0.976562 0L3.66211 0L12.9883-24.4629L45.752-24.4629L55.127 0L57.7637 0L30.6152-70.459L28.125-70.459ZM29.3457-67.1387L29.4434-67.1387L44.873-26.709L13.8672-26.709Z"/>
  </g>
  <line id="Baseline-M" style="fill:none;stroke:#27AAE1;opacity:1;stroke-width:0.5;" x1="263" x2="3036" y1="1126" y2="1126"/>
  <line id="Capline-M" style="fill:none;stroke:#27AAE1;opacity:1;stroke-width:0.5;" x1="263" x2="3036" y1="1055.54" y2="1055.54"/>
  <g id="H-reference" style="fill:#27AAE1;stroke:none;" transform="matrix(1 0 0 1 339 1556)">
   <path d="M0.976562 0L3.66211 0L12.9883-24.4629L45.752-24.4629L55.127 0L57.7637 0L30.6152-70.459L28.125-70.459ZM29.3457-67.1387L29.4434-67.1387L44.873-26.709L13.8672-26.709Z"/>
  </g>
  <line id="Baseline-L" style="fill:none;stroke:#27AAE1;opacity:1;stroke-width:0.5;" x1="263" x2="3036" y1="1556" y2="1556"/>
  <line id="Capline-L" style="fill:none;stroke:#27AAE1;opacity:1;stroke-width:0.5;" x1="263" x2="3036" y1="1485.54" y2="1485.54"/>
  <line id="left-margin" style="fill:none;stroke:#00AEEF;stroke-width:0.5;opacity:1.0;" x1="1392.45" x2="1392.45" y1="1030.79" y2="1150.12"/>
  <line id="right-margin" style="fill:none;stroke:#00AEEF;stroke-width:0.5;opacity:1.0;" x1="1507.24" x2="1507.24" y1="1030.79" y2="1150.12"/>
 </g>
 <g id="Symbols">
  <g id="Black-L" transform="matrix(1 0 0 1 2855.62 1556)">
   <path d="M39.9902 26.5137L115.576 26.5137C130.811 26.5137 139.502 17.8711 139.502 2.68555L139.502-73.0957C139.502-88.2812 130.811-96.875 115.576-96.875L39.9902-96.875C24.7559-96.875 16.0645-88.2812 16.0645-73.0957L16.0645 2.68555C16.0645 17.8711 24.7559 26.5137 39.9902 26.5137ZM78.125-4.15039C65.7227-4.15039 57.373-7.95898 54.7363-14.0625C54.248-15.2832 54.0039-16.5527 54.0039-17.9688C54.0039-22.3145 56.9824-25.1465 62.2559-25.1465C66.1133-25.1465 68.1152-23.9258 69.7266-22.5098C71.7285-20.5078 73.9258-19.0918 77.5879-19.0918C81.6895-19.0918 84.7656-22.0215 84.7656-25.8789C84.7656-29.8828 82.1777-32.5684 78.2715-32.5684C75.9277-32.5684 74.3652-31.8359 72.3633-30.8105C70.166-29.5898 68.1152-28.8086 64.5996-28.8086C57.4707-28.8086 53.9062-32.3242 54.3457-38.8672L55.4688-55.2734C55.7617-60.8398 59.668-64.6973 65.4785-64.6973L93.3105-64.6973C98.4863-64.6973 101.367-62.207 101.367-57.7148C101.367-53.2715 98.291-50.6348 93.3105-50.6348L70.8496-50.6348L69.9707-40.0391L70.9473-40.0391C72.9004-43.5059 78.2715-45.8496 84.1797-45.8496C96.1914-45.8496 104.053-38.2324 104.053-26.4648C104.053-12.7441 94.043-4.15039 78.125-4.15039Z"/>
  </g>
  <g id="Heavy-L" transform="matrix(1 0 0 1 2559.93 1556)">
   <path d="M38.8184 25.4883L114.697 25.4883C129.346 25.4883 137.451 17.4316 137.451 2.88086L137.451-73.2422C137.451-87.793 129.346-95.8496 114.697-95.8496L38.8184-95.8496C24.2188-95.8496 16.0645-87.793 16.0645-73.2422L16.0645 2.88086C16.0645 17.4316 24.2188 25.4883 38.8184 25.4883ZM76.9531-4.29688C65.0879-4.29688 56.9824-8.25195 54.3945-14.502C53.9551-15.625 53.6621-16.7969 53.6621-18.1152C53.6621-21.9238 56.3477-24.4629 60.8887-24.4629C64.2578-24.4629 66.1133-23.291 67.5781-21.7773C69.5312-19.1895 72.3633-17.3828 76.5137-17.3828C81.4453-17.3828 85.1074-20.9473 85.1074-25.6836C85.1074-30.5176 81.9824-33.7402 77.2461-33.7402C74.6094-33.7402 72.7539-32.9102 70.459-31.3965C68.2617-30.0781 66.4062-29.3457 63.2324-29.3457C57.0312-29.3457 53.8574-32.5195 54.248-38.2812L55.5664-56.1523C55.8594-61.1816 59.375-64.5996 64.6973-64.5996L92.334-64.5996C96.7285-64.5996 99.2676-62.4023 99.2676-58.4473C99.2676-54.5898 96.582-52.2461 92.334-52.2461L68.9941-52.2461L67.9688-39.6484L68.7988-39.6484C70.8984-43.1641 76.2695-45.459 81.9824-45.459C93.8965-45.459 101.855-37.793 101.855-26.1719C101.855-12.793 92.1387-4.29688 76.9531-4.29688Z"/>
  </g>
  <g id="Bold-L" transform="matrix(1 0 0 1 2264.37 1556)">
   <path d="M37.5 24.3652L113.721 24.3652C127.637 24.3652 135.156 16.8945 135.156 3.07617L135.156-73.3887C135.156-87.207 127.637-94.7266 113.721-94.7266L37.5-94.7266C23.6328-94.7266 16.0645-87.2559 16.0645-73.3887L16.0645 3.07617C16.0645 16.8945 23.6328 24.3652 37.5 24.3652ZM75.6348-4.49219C64.4043-4.49219 56.543-8.54492 54.0527-14.9414C53.6133-15.9668 53.3691-17.041 53.3691-18.2617C53.3691-21.4844 55.6152-23.6816 59.375-23.6816C62.1582-23.6816 63.8672-22.6074 65.1367-20.9473C67.0898-17.6758 70.6543-15.5273 75.3418-15.5273C81.1523-15.5273 85.4492-19.7754 85.4492-25.4395C85.4492-31.2012 81.7383-35.0586 76.123-35.0586C73.0957-35.0586 70.9473-34.082 68.3105-32.0312C66.1133-30.5664 64.4531-29.9316 61.6699-29.9316C56.543-29.9316 53.8086-32.7637 54.1504-37.6465L55.6641-57.1289C55.9082-61.5723 59.0332-64.5508 63.7695-64.5508L91.1621-64.5508C94.7754-64.5508 96.9238-62.5977 96.9238-59.2773C96.9238-56.0547 94.6289-54.0039 91.1621-54.0039L66.8945-54.0039L65.7227-39.2578L66.4062-39.2578C68.6035-42.7246 73.9746-45.0684 79.5898-45.0684C91.4062-45.0684 99.3652-37.3535 99.3652-25.8301C99.3652-12.8418 89.9902-4.49219 75.6348-4.49219Z"/>
  </g>
  <g id="Semibold-L" transform="matrix(1 0 0 1 1968.44 1556)">
   <path d="M36.6211 23.584L113.037 23.584C126.514 23.584 133.594 16.5039 133.594 3.17383L133.594-73.5352C133.594-86.8164 126.514-93.9453 113.037-93.9453L36.6211-93.9453C23.1934-93.9453 16.0645-86.8652 16.0645-73.5352L16.0645 3.17383C16.0645 16.5527 23.1934 23.584 36.6211 23.584ZM74.707-4.63867C63.916-4.63867 56.25-8.78906 53.8086-15.2344C53.3691-16.2109 53.125-17.1875 53.125-18.3594C53.125-21.1914 55.127-23.1445 58.3496-23.1445C60.7422-23.1445 62.3047-22.1191 63.4277-20.4102C65.4297-16.6504 69.4336-14.209 74.5117-14.209C80.9082-14.209 85.7422-18.9453 85.7422-25.293C85.7422-31.6406 81.543-35.9375 75.3906-35.9375C72.0703-35.9375 69.7266-34.9121 66.7969-32.4707C64.6484-30.957 63.1348-30.3711 60.5957-30.3711C56.2012-30.3711 53.8086-32.9102 54.1016-37.207L55.7129-57.8125C56.0059-61.8652 58.7891-64.502 63.1836-64.502L90.4297-64.502C93.4082-64.502 95.2637-62.6953 95.2637-59.8633C95.2637-57.0801 93.3105-55.2246 90.4297-55.2246L65.4785-55.2246L64.1113-38.9648L64.7461-38.9648C67.041-42.4316 72.4609-44.7754 77.9297-44.7754C89.6484-44.7754 97.6562-37.0117 97.6562-25.5859C97.6562-12.8418 88.4766-4.63867 74.707-4.63867Z"/>
  </g>
  <g id="Medium-L" transform="matrix(1 0 0 1 1672.31 1556)">
   <path d="M35.9375 22.998L112.5 22.998C125.635 22.998 132.422 16.2109 132.422 3.27148L132.422-73.6328C132.422-86.5234 125.635-93.3105 112.5-93.3105L35.9375-93.3105C22.9004-93.3105 16.0645-86.5723 16.0645-73.6328L16.0645 3.27148C16.0645 16.2598 22.9004 22.998 35.9375 22.998ZM74.0234-4.73633C63.5254-4.73633 56.0059-8.93555 53.6133-15.4785C53.1738-16.4062 52.9785-17.334 52.9785-18.4082C52.9785-20.9473 54.7363-22.7539 57.5684-22.7539C59.6191-22.7539 61.084-21.7773 62.1582-19.9707C64.1602-15.8691 68.5547-13.2324 73.9258-13.2324C80.7617-13.2324 85.9375-18.3105 85.9375-25.1465C85.9375-32.0312 81.4453-36.6211 74.8047-36.6211C71.3379-36.6211 68.7988-35.5469 65.6738-32.8125C63.4766-31.2012 62.1094-30.6641 59.7656-30.6641C55.957-30.6641 53.7598-33.0566 54.0527-36.8652L55.7617-58.3496C56.0059-62.0605 58.6426-64.4531 62.6953-64.4531L89.8438-64.4531C92.3828-64.4531 94.043-62.793 94.043-60.3027C94.043-57.8613 92.334-56.1523 89.8438-56.1523L64.4043-56.1523L62.9395-38.7695L63.4766-38.7695C65.8691-42.2363 71.2402-44.5801 76.6602-44.5801C88.3301-44.5801 96.3867-36.7676 96.3867-25.3906C96.3867-12.8906 87.3535-4.73633 74.0234-4.73633Z"/>
  </g>
  <g id="Regular-L" transform="matrix(1 0 0 1 1376.38 1556)">
   <path d="M35.0586 22.2168L111.816 22.2168C124.463 22.2168 130.859 15.8691 130.859 3.41797L130.859-73.7305C130.859-86.1816 124.463-92.5293 111.816-92.5293L35.0586-92.5293C22.4609-92.5293 16.0645-86.2305 16.0645-73.7305L16.0645 3.41797C16.0645 15.918 22.4609 22.2168 35.0586 22.2168ZM73.0957-4.83398C63.0371-4.83398 55.7129-9.17969 53.3203-15.7715C52.9785-16.6504 52.7344-17.5293 52.7344-18.5059C52.7344-20.6543 54.248-22.2168 56.543-22.2168C58.2031-22.2168 59.5703-21.2891 60.498-19.4336C62.4512-14.8438 67.334-11.9629 73.0957-11.9629C80.5664-11.9629 86.1816-17.5293 86.1816-25C86.1816-32.4707 81.25-37.5488 74.0234-37.5488C70.3125-37.5488 67.5781-36.377 64.209-33.252C62.0117-31.543 60.791-31.0547 58.7402-31.0547C55.6152-31.0547 53.7598-33.2031 53.9551-36.4258L55.8105-59.0332C56.0547-62.3047 58.3984-64.4043 62.1094-64.4043L89.0625-64.4043C91.0645-64.4043 92.4316-62.9395 92.4316-60.8398C92.4316-58.8379 91.0156-57.373 89.0625-57.373L62.9883-57.373L61.4258-38.4766L61.8164-38.4766C64.3066-41.9434 69.7266-44.2871 75.0488-44.2871C86.5723-44.2871 94.6777-36.4258 94.6777-25.1465C94.6777-12.9395 85.8887-4.83398 73.0957-4.83398Z"/>
  </g>
  <g id="Light-L" transform="matrix(1 0 0 1 1080.5 1556)">
   <path d="M34.0332 21.4355L111.23 21.4355C123.096 21.4355 129.199 15.2344 129.199 3.56445L129.199-73.8281C129.199-85.5469 123.096-91.6992 111.23-91.6992L34.0332-91.6992C22.168-91.6992 16.0645-85.6445 16.0645-73.8281L16.0645 3.56445C16.0645 15.3809 22.168 21.4355 34.0332 21.4355ZM72.3633-5.56641C62.6465-5.56641 55.6641-10.0586 53.5645-16.748C53.2715-17.3828 53.125-18.0664 53.125-18.7988C53.125-20.5078 54.2969-21.7285 56.0547-21.7285C57.4219-21.7285 58.4961-20.9473 59.1797-19.3848C60.8887-14.502 66.2109-11.1816 72.5098-11.1816C80.4199-11.1816 86.3281-17.0898 86.3281-25.0488C86.3281-33.0078 81.0059-38.3789 73.2422-38.3789C68.9941-38.3789 65.8203-37.0117 62.1094-33.2031C60.498-31.8848 59.5703-31.4941 57.959-31.4941C55.5176-31.4941 54.1016-33.1543 54.248-35.6445L56.2012-59.6191C56.4453-62.2559 58.2031-63.8672 61.0352-63.8672L88.0859-63.8672C89.7461-63.8672 90.8203-62.6953 90.8203-61.084C90.8203-59.4727 89.6973-58.3008 88.0859-58.3008L61.9141-58.3008L60.2051-37.6953L60.5469-37.6953C63.2812-41.4062 68.6523-43.7988 73.9746-43.7988C85.1074-43.7988 92.9199-36.1328 92.9199-25.1953C92.9199-13.3789 84.5703-5.56641 72.3633-5.56641Z"/>
  </g>
  <g id="Thin-L" transform="matrix(1 0 0 1 784.889 1556)">
   <path d="M32.666 20.3613L110.352 20.3613C121.24 20.3613 127.002 14.4531 127.002 3.75977L127.002-73.9746C127.002-84.7168 121.24-90.5762 110.352-90.5762L32.666-90.5762C21.7773-90.5762 16.0645-84.8633 16.0645-73.9746L16.0645 3.75977C16.0645 14.6484 21.7773 20.3613 32.666 20.3613ZM71.3379-6.49414C62.1582-6.49414 55.5664-11.2793 53.8086-17.9688C53.7109-18.3594 53.6133-18.75 53.6133-19.2383C53.6133-20.3125 54.3457-21.0449 55.4199-21.0449C56.3965-21.0449 57.0801-20.5078 57.4219-19.3359C58.7891-14.0137 64.7461-10.2051 71.7773-10.2051C80.2246-10.2051 86.5723-16.5039 86.5723-25.0977C86.5723-33.6426 80.6641-39.5508 72.168-39.5508C67.2363-39.5508 63.5742-37.8418 59.375-33.2031C58.4961-32.3242 58.0078-32.0801 56.9824-32.0801C55.4199-32.0801 54.541-33.1055 54.6387-34.5703L56.7383-60.4004C56.8848-62.1582 57.9102-63.1836 59.6191-63.1836L86.8652-63.1836C87.9395-63.1836 88.7207-62.3535 88.7207-61.3281C88.7207-60.3027 87.9395-59.4727 86.8652-59.4727L60.4492-59.4727L58.5938-36.6211L58.8867-36.6211C61.9629-40.6738 67.2852-43.1641 72.6074-43.1641C83.1055-43.1641 90.625-35.6934 90.625-25.1953C90.625-14.0137 82.8125-6.49414 71.3379-6.49414Z"/>
  </g>
  <g id="Ultralight-L" transform="matrix(1 0 0 1 488.739 1556)">
   <path d="M31.9824 19.7754L109.961 19.7754C120.312 19.7754 125.879 14.0625 125.879 3.85742L125.879-74.0723C125.879-84.2773 120.312-89.9902 109.961-89.9902L31.9824-89.9902C21.582-89.9902 16.0645-84.4727 16.0645-74.0723L16.0645 3.85742C16.0645 14.2578 21.582 19.7754 31.9824 19.7754ZM70.8496-6.93359C61.8652-6.93359 55.5664-11.9141 53.9551-18.6035C53.9062-18.8477 53.8574-19.1406 53.8574-19.4336C53.8574-20.166 54.3945-20.7031 55.0781-20.7031C55.8594-20.7031 56.3477-20.2637 56.4941-19.3359C57.7148-13.7695 63.9648-9.66797 71.3867-9.66797C80.127-9.66797 86.6699-16.2109 86.6699-25.1465C86.6699-33.9844 80.5176-40.1367 71.6309-40.1367C66.3086-40.1367 62.4023-38.2812 57.959-33.1543C57.4707-32.5684 57.1777-32.373 56.4453-32.373C55.3711-32.373 54.7852-33.1055 54.8828-34.0332L56.9824-60.791C57.1289-62.1094 57.7637-62.8418 58.9355-62.8418L86.2305-62.8418C87.0605-62.8418 87.5977-62.207 87.5977-61.4746C87.5977-60.7422 87.0605-60.1074 86.2305-60.1074L59.7168-60.1074L57.7637-36.0352L58.0566-36.0352C61.2793-40.332 66.5527-42.8223 71.875-42.8223C82.0801-42.8223 89.4043-35.498 89.4043-25.2441C89.4043-14.3555 81.9336-6.93359 70.8496-6.93359Z"/>
  </g>
  <g id="Black-M" transform="matrix(1 0 0 1 2872.19 1126)">
   <path d="M31.9824 13.5742L90.4297 13.5742C102.686 13.5742 109.961 6.29883 109.961-5.95703L109.961-64.4043C109.961-76.6602 102.686-83.9355 90.4297-83.9355L31.9824-83.9355C19.7266-83.9355 12.4512-76.6602 12.4512-64.4043L12.4512-5.95703C12.4512 6.29883 19.7266 13.5742 31.9824 13.5742ZM61.7676-11.2793C51.6113-11.2793 44.9707-14.209 43.0176-18.7988C42.627-19.7266 42.4316-20.752 42.4316-21.875C42.4316-25.6348 45.0684-28.0762 49.8047-28.0762C53.3203-28.0762 54.9805-27.1484 56.2988-26.3184C57.7148-25.4395 58.7891-24.5605 61.2305-24.5605C63.623-24.5605 65.3809-26.2207 65.3809-28.3203C65.3809-30.5176 63.8184-32.0312 61.6211-32.0312C59.9121-32.0312 58.8867-31.4941 57.6172-31.0059C56.2012-30.4199 54.4922-29.7363 51.5625-29.7363C45.1172-29.7363 42.041-32.666 42.4316-38.4277L43.0664-49.9023C43.3105-54.541 46.5332-57.8613 51.2695-57.8613L73.1934-57.8613C77.9785-57.8613 80.5664-55.8105 80.5664-51.7578C80.5664-47.8027 77.7832-45.5566 73.1934-45.5566L56.8359-45.5566L56.3477-39.0137L57.2266-39.0137C58.6914-41.8945 62.8418-43.7012 67.5781-43.7012C76.8066-43.7012 82.7148-37.9883 82.7148-28.8574C82.7148-18.0176 74.7559-11.2793 61.7676-11.2793Z"/>
  </g>
  <g id="Heavy-M" transform="matrix(1 0 0 1 2576.39 1126)">
   <path d="M31.0059 12.6465L89.6484 12.6465C101.416 12.6465 108.154 5.9082 108.154-5.81055L108.154-64.5508C108.154-76.2695 101.416-83.0566 89.6484-83.0566L31.0059-83.0566C19.2383-83.0566 12.4512-76.3184 12.4512-64.5508L12.4512-5.81055C12.4512 5.9082 19.2383 12.6465 31.0059 12.6465ZM60.6445-11.2793C51.0254-11.2793 44.5801-14.2578 42.5781-18.9941C42.1875-19.873 42.041-20.8496 42.041-21.9238C42.041-25.2441 44.3848-27.4414 48.4375-27.4414C51.5137-27.4414 53.0273-26.5625 54.248-25.5371C55.7129-24.0723 57.373-22.9492 60.2539-22.9492C63.3301-22.9492 65.6738-25.1465 65.6738-28.0762C65.6738-31.0547 63.6719-33.1055 60.6934-33.1055C58.8379-33.1055 57.5684-32.4707 56.0059-31.6406C54.4922-30.8594 52.9297-30.2246 50.2441-30.2246C44.6289-30.2246 41.8945-32.9102 42.2363-37.9883L43.0664-50.6836C43.3105-54.9316 46.2402-57.9102 50.6836-57.9102L72.3145-57.9102C76.416-57.9102 78.6621-56.0547 78.6621-52.5391C78.6621-49.0723 76.2695-47.0215 72.3145-47.0215L55.0781-47.0215L54.4434-38.8184L55.1758-38.8184C56.7383-41.6016 60.8887-43.4082 65.4785-43.4082C74.707-43.4082 80.7129-37.5977 80.7129-28.5156C80.7129-17.9199 72.998-11.2793 60.6445-11.2793Z"/>
  </g>
  <g id="Bold-M" transform="matrix(1 0 0 1 2280.68 1126)">
   <path d="M29.8828 11.6699L88.7207 11.6699C99.9512 11.6699 106.152 5.46875 106.152-5.66406L106.152-64.6973C106.152-75.8789 99.9512-82.0312 88.7207-82.0312L29.8828-82.0312C18.6523-82.0312 12.4512-75.8789 12.4512-64.6973L12.4512-5.66406C12.4512 5.51758 18.6523 11.6699 29.8828 11.6699ZM59.4238-11.2793C50.3418-11.2793 44.0918-14.3555 42.0898-19.1895C41.748-20.0684 41.5527-20.9473 41.5527-21.9727C41.5527-24.8535 43.5547-26.7578 46.9238-26.7578C49.4629-26.7578 50.8789-25.8789 51.9531-24.6582C53.5156-22.5586 55.8105-21.0938 59.1309-21.0938C63.0859-21.0938 66.0156-23.9746 66.0156-27.7832C66.0156-31.6895 63.4766-34.2773 59.7168-34.2773C57.5684-34.2773 56.1035-33.5938 54.248-32.373C52.5391-31.2988 51.123-30.7617 48.7305-30.7617C44.1406-30.7617 41.748-33.1543 42.041-37.5L43.0664-51.6113C43.3105-55.4199 45.9473-58.0078 50-58.0078L71.3867-58.0078C74.6582-58.0078 76.5625-56.2988 76.5625-53.3691C76.5625-50.4883 74.5117-48.6816 71.3867-48.6816L53.125-48.6816L52.2949-38.623L52.9297-38.623C54.5898-41.3086 58.7402-43.1152 63.1836-43.1152C72.3633-43.1152 78.5156-37.1582 78.5156-28.125C78.5156-17.8223 71.0449-11.2793 59.4238-11.2793Z"/>
  </g>
  <g id="Semibold-M" transform="matrix(1 0 0 1 1984.65 1126)">
   <path d="M29.1016 10.9863L88.0859 10.9863C98.9746 10.9863 104.785 5.17578 104.785-5.56641L104.785-64.8438C104.785-75.5859 98.9746-81.3477 88.0859-81.3477L29.1016-81.3477C18.2617-81.3477 12.4512-75.5859 12.4512-64.8438L12.4512-5.56641C12.4512 5.22461 18.2617 10.9863 29.1016 10.9863ZM58.5938-11.2793C49.9023-11.2793 43.7988-14.4043 41.7969-19.3848C41.4062-20.2148 41.2109-21.0449 41.2109-22.0215C41.2109-24.5605 43.0176-26.2695 45.8984-26.2695C48.0469-26.2695 49.3652-25.4395 50.3906-24.0723C52.002-21.4844 54.7363-19.8242 58.3496-19.8242C62.8906-19.8242 66.2598-23.1445 66.2598-27.5879C66.2598-32.0801 63.3789-35.1074 59.0332-35.1074C56.7383-35.1074 55.0781-34.375 53.0762-32.8613C51.2207-31.6406 49.9023-31.1035 47.7051-31.1035C43.75-31.1035 41.6504-33.3496 41.8945-37.1582L43.0664-52.2461C43.2617-55.7129 45.752-58.0566 49.5117-58.0566L70.7031-58.0566C73.4375-58.0566 75.0977-56.4941 75.0977-53.9551C75.0977-51.4648 73.3398-49.8535 70.7031-49.8535L51.8066-49.8535L50.8301-38.4766L51.3672-38.4766C53.0762-41.1133 57.2266-42.8711 61.5723-42.8711C70.752-42.8711 77.002-36.8652 77.002-27.8809C77.002-17.7734 69.6777-11.2793 58.5938-11.2793Z"/>
  </g>
  <g id="Medium-M" transform="matrix(1 0 0 1 1688.47 1126)">
   <path d="M28.5156 10.4492L87.6465 10.4492C98.2422 10.4492 103.711 4.98047 103.711-5.46875L103.711-64.8926C103.711-75.3418 98.2422-80.8105 87.6465-80.8105L28.5156-80.8105C17.9688-80.8105 12.4512-75.3906 12.4512-64.8926L12.4512-5.46875C12.4512 4.98047 17.9688 10.4492 28.5156 10.4492ZM57.9102-11.2793C49.5117-11.2793 43.5547-14.4531 41.5527-19.4824C41.1621-20.2637 40.9668-21.0938 40.9668-22.0703C40.9668-24.3164 42.5781-25.8789 45.1172-25.8789C46.9727-25.8789 48.2422-25.0488 49.2188-23.6328C50.8301-20.7031 53.9062-18.8965 57.7637-18.8965C62.7441-18.8965 66.4551-22.5586 66.4551-27.4414C66.4551-32.4219 63.2812-35.6934 58.4961-35.6934C56.1035-35.6934 54.3457-34.9609 52.1484-33.2031C50.2441-31.8848 49.0234-31.3965 46.9727-31.3965C43.5059-31.3965 41.5527-33.4961 41.7969-36.9141L43.0664-52.7344C43.2617-55.957 45.6055-58.1055 49.1699-58.1055L70.2148-58.1055C72.5098-58.1055 73.9746-56.6406 73.9746-54.3945C73.9746-52.1973 72.4609-50.7324 70.2148-50.7324L50.7812-50.7324L49.707-38.3789L50.1953-38.3789C51.9043-40.918 56.1035-42.7246 60.3516-42.7246C69.5312-42.7246 75.8789-36.6211 75.8789-27.6855C75.8789-17.7246 68.6523-11.2793 57.9102-11.2793Z"/>
  </g>
  <g id="Regular-M" transform="matrix(1 0 0 1 1392.45 1126)">
   <path d="M27.7832 9.76562L87.0117 9.76562C97.2656 9.76562 102.344 4.6875 102.344-5.37109L102.344-64.9902C102.344-75.0488 97.2656-80.127 87.0117-80.127L27.7832-80.127C17.5781-80.127 12.4512-75.0977 12.4512-64.9902L12.4512-5.37109C12.4512 4.73633 17.5781 9.76562 27.7832 9.76562ZM57.0801-11.2793C49.0723-11.2793 43.2129-14.502 41.2109-19.6289C40.8691-20.4102 40.6738-21.1914 40.6738-22.0703C40.6738-24.0234 42.041-25.4395 44.0918-25.4395C45.5566-25.4395 46.7773-24.6094 47.6562-22.998C49.3164-19.6777 52.832-17.627 56.9824-17.627C62.5488-17.627 66.6992-21.7285 66.6992-27.2461C66.6992-32.8125 63.1348-36.5234 57.8125-36.5234C55.2246-36.5234 53.3203-35.7422 50.9277-33.6914C48.9258-32.1777 47.8027-31.7871 45.9473-31.7871C43.1152-31.7871 41.4551-33.6914 41.6504-36.6211L43.0176-53.3203C43.2617-56.25 45.4102-58.1055 48.7305-58.1055L69.5312-58.1055C71.3379-58.1055 72.5586-56.8359 72.5586-54.9805C72.5586-53.1738 71.2891-51.8555 69.5312-51.8555L49.4141-51.8555L48.291-38.2324L48.6328-38.2324C50.4395-40.7227 54.6387-42.5293 58.7402-42.5293C67.9688-42.5293 74.3652-36.3281 74.3652-27.4414C74.3652-17.6758 67.334-11.2793 57.0801-11.2793Z"/>
  </g>
  <g id="Light-M" transform="matrix(1 0 0 1 1096.47 1126)">
   <path d="M26.8555 9.0332L86.4746 9.0332C95.9961 9.0332 100.879 4.15039 100.879-5.22461L100.879-65.0879C100.879-74.5117 95.9961-79.3945 86.4746-79.3945L26.8555-79.3945C17.334-79.3945 12.4512-74.5605 12.4512-65.0879L12.4512-5.22461C12.4512 4.19922 17.334 9.0332 26.8555 9.0332ZM56.3965-11.9141C48.7305-11.9141 43.1641-15.332 41.4062-20.459C41.1621-21.0938 40.9668-21.6797 40.9668-22.3633C40.9668-23.877 42.0898-24.9512 43.6523-24.9512C44.873-24.9512 45.8008-24.3164 46.4355-22.998C47.9004-19.3359 51.8066-16.9434 56.4453-16.9434C62.4023-16.9434 66.8457-21.3379 66.8457-27.2949C66.8457-33.252 62.8906-37.3047 57.0801-37.3047C54.0527-37.3047 51.8066-36.3281 49.0723-33.6914C47.5586-32.5195 46.7285-32.1289 45.2637-32.1289C43.0664-32.1289 41.748-33.6426 41.9434-35.8887L43.4082-53.8574C43.5547-56.2012 45.2148-57.666 47.7539-57.666L68.7012-57.666C70.1172-57.666 71.0938-56.6406 71.0938-55.1758C71.0938-53.7109 70.1172-52.6855 68.7012-52.6855L48.4375-52.6855L47.168-37.5L47.5098-37.5C49.5117-40.2344 53.7109-42.0898 57.8125-42.0898C66.6016-42.0898 72.8027-36.0352 72.8027-27.4414C72.8027-18.1152 66.1621-11.9141 56.3965-11.9141Z"/>
  </g>
  <g id="Thin-M" transform="matrix(1 0 0 1 800.758 1126)">
   <path d="M25.6348 8.05664L85.7422 8.05664C94.3848 8.05664 98.877 3.4668 98.877-5.0293L98.877-65.2344C98.877-73.7305 94.3848-78.3691 85.7422-78.3691L25.6348-78.3691C16.9922-78.3691 12.4512-73.877 12.4512-65.2344L12.4512-5.0293C12.4512 3.56445 16.9922 8.05664 25.6348 8.05664ZM55.5176-12.7441C48.291-12.7441 43.1152-16.4062 41.6504-21.582C41.5039-21.9238 41.4062-22.3145 41.4062-22.7539C41.4062-23.6816 42.0898-24.3652 43.0664-24.3652C43.9453-24.3652 44.5312-23.9258 44.873-22.9492C45.9961-18.8965 50.4883-16.0645 55.8105-16.0645C62.207-16.0645 67.041-20.8496 67.041-27.3926C67.041-33.8379 62.5977-38.3301 56.1523-38.3301C52.4902-38.3301 49.7559-37.0605 46.582-33.6426C45.8008-32.9102 45.3125-32.666 44.3848-32.666C42.9688-32.666 42.1875-33.5938 42.2852-34.9609L43.8477-54.541C43.9941-56.1035 44.9219-57.0312 46.5332-57.0312L67.5781-57.0312C68.5547-57.0312 69.1895-56.3477 69.1895-55.4199C69.1895-54.4922 68.5547-53.7598 67.5781-53.7598L47.168-53.7598L45.752-36.5234L45.9961-36.5234C48.291-39.5996 52.4414-41.5039 56.543-41.5039C64.8438-41.5039 70.7031-35.6934 70.7031-27.4414C70.7031-18.6523 64.5508-12.7441 55.5176-12.7441Z"/>
  </g>
  <g id="Ultralight-M" transform="matrix(1 0 0 1 504.535 1126)">
   <path d="M25 7.56836L85.3516 7.56836C93.5059 7.56836 97.9004 3.125 97.9004-4.98047L97.9004-65.2832C97.9004-73.3887 93.5059-77.832 85.3516-77.832L25-77.832C16.7969-77.832 12.4512-73.4863 12.4512-65.2832L12.4512-4.98047C12.4512 3.22266 16.7969 7.56836 25 7.56836ZM55.0781-13.1836C48.0469-13.1836 43.0664-16.9922 41.748-22.168C41.6992-22.4121 41.6504-22.6562 41.6504-22.9492C41.6504-23.584 42.1387-24.0723 42.7734-24.0723C43.457-24.0723 43.8965-23.7305 44.043-22.9004C45.0684-18.6523 49.8047-15.5762 55.4199-15.5762C62.1094-15.5762 67.1387-20.6055 67.1387-27.3926C67.1387-34.1797 62.4512-38.8672 55.6641-38.8672C51.6602-38.8672 48.7305-37.4512 45.3125-33.6426C44.873-33.1055 44.5801-32.9102 43.8965-32.9102C42.9199-32.9102 42.3828-33.5938 42.4805-34.4727L44.0918-54.9316C44.1895-56.0547 44.8242-56.7383 45.8984-56.7383L66.9922-56.7383C67.7246-56.7383 68.2129-56.2012 68.2129-55.5176C68.2129-54.8828 67.7246-54.2969 66.9922-54.2969L46.4844-54.2969L45.0195-36.0352L45.2637-36.0352C47.7051-39.3066 51.8066-41.2109 55.9082-41.2109C63.916-41.2109 69.6777-35.498 69.6777-27.4902C69.6777-18.9453 63.7695-13.1836 55.0781-13.1836Z"/>
  </g>
  <g id="Black-S" transform="matrix(1 0 0 1 2885.5 696)">
   <path d="M25 2.92969L70.8008 2.92969C80.3711 2.92969 86.0352-2.73438 86.0352-12.3047L86.0352-58.1055C86.0352-67.6758 80.3711-73.3398 70.8008-73.3398L25-73.3398C15.4297-73.3398 9.76562-67.6758 9.76562-58.1055L9.76562-12.3047C9.76562-2.73438 15.4297 2.92969 25 2.92969ZM48.291-16.4551C40.3809-16.4551 35.2051-18.75 33.6426-22.3633C33.3496-23.0957 33.2031-23.877 33.2031-24.7559C33.2031-27.6855 35.2539-29.5898 38.916-29.5898C41.6504-29.5898 42.9199-28.8574 43.9453-28.1738C45.0684-27.4414 45.9473-26.7578 47.9004-26.7578C49.8047-26.7578 51.2207-28.0762 51.2207-29.7852C51.2207-31.5918 50-32.8125 48.1934-32.8125C46.875-32.8125 46.0449-32.373 45.0195-31.9824C43.8965-31.4941 42.5781-30.957 40.2832-30.957C35.3027-30.957 32.9102-33.252 33.2031-37.6953L33.7402-46.7773C33.9355-50.3906 36.4258-52.9785 40.1367-52.9785L57.2754-52.9785C60.9863-52.9785 62.9883-51.3672 62.9883-48.2422C62.9883-45.166 60.8398-43.4082 57.2754-43.4082L44.3848-43.4082L43.9941-38.1836L44.6777-38.1836C45.8496-40.4297 49.0723-41.8457 52.7832-41.8457C60.0098-41.8457 64.6484-37.3535 64.6484-30.2246C64.6484-21.7285 58.4473-16.4551 48.291-16.4551Z"/>
  </g>
  <g id="Heavy-S" transform="matrix(1 0 0 1 2589.4 696)">
   <path d="M24.3652 2.34375L70.2637 2.34375C79.541 2.34375 84.8145-2.97852 84.8145-12.207L84.8145-58.2031C84.8145-67.4316 79.541-72.7539 70.2637-72.7539L24.3652-72.7539C15.0879-72.7539 9.76562-67.4316 9.76562-58.2031L9.76562-12.207C9.76562-2.97852 15.0879 2.34375 24.3652 2.34375ZM47.5586-16.4062C39.9902-16.4062 34.9121-18.7012 33.3008-22.4121C33.0078-23.1445 32.8613-23.9258 32.8613-24.7559C32.8613-27.3926 34.7168-29.1504 37.9395-29.1504C40.332-29.1504 41.5527-28.418 42.5293-27.5879C43.75-26.416 45.0195-25.5859 47.2168-25.5859C49.6582-25.5859 51.4648-27.2949 51.4648-29.5898C51.4648-31.9336 49.9023-33.5449 47.6074-33.5449C46.1914-33.5449 45.2148-33.0566 44.043-32.4707C42.7734-31.7871 41.5039-31.2988 39.3555-31.2988C34.9609-31.2988 32.8125-33.4473 33.0566-37.4512L33.6914-47.3145C33.8867-50.7324 36.2793-53.0762 39.7949-53.0762L56.7383-53.0762C59.9121-53.0762 61.7188-51.5625 61.7188-48.7793C61.7188-46.0938 59.8145-44.4824 56.7383-44.4824L43.1641-44.4824L42.6758-38.1348L43.2617-38.1348C44.4824-40.2832 47.7051-41.6992 51.3184-41.6992C58.5938-41.6992 63.3301-37.1094 63.3301-29.9805C63.3301-21.6309 57.2754-16.4062 47.5586-16.4062Z"/>
  </g>
  <g id="Bold-S" transform="matrix(1 0 0 1 2293.35 696)">
   <path d="M23.6328 1.66016L69.6289 1.66016C78.6133 1.66016 83.4961-3.22266 83.4961-12.1094L83.4961-58.3008C83.4961-67.1875 78.6133-72.0703 69.6289-72.0703L23.6328-72.0703C14.6973-72.0703 9.76562-67.1875 9.76562-58.3008L9.76562-12.1094C9.76562-3.22266 14.6973 1.66016 23.6328 1.66016ZM46.6797-16.3086C39.502-16.3086 34.5703-18.6523 32.959-22.4609C32.6172-23.1934 32.4707-23.9258 32.4707-24.7559C32.4707-27.0996 34.082-28.6621 36.8652-28.6621C38.8672-28.6621 40.0391-27.9785 40.918-26.9043C42.1875-25.293 43.9453-24.2676 46.3867-24.2676C49.4629-24.2676 51.709-26.4648 51.709-29.3945C51.709-32.373 49.8047-34.3262 46.9238-34.3262C45.3613-34.3262 44.2871-33.8379 42.9199-33.0078C41.4551-32.0801 40.2832-31.6406 38.3301-31.6406C34.5703-31.6406 32.6172-33.6426 32.8613-37.1582L33.6426-47.9492C33.8379-51.0742 36.0352-53.1738 39.4043-53.1738L56.1035-53.1738C58.7402-53.1738 60.2539-51.8066 60.2539-49.4141C60.2539-47.0703 58.6426-45.6543 56.1035-45.6543L41.7969-45.6543L41.2109-38.0371L41.6504-38.0371C42.9199-40.0879 46.1914-41.5039 49.6582-41.5039C56.9824-41.5039 61.8652-36.8164 61.8652-29.6875C61.8652-21.4844 55.9082-16.3086 46.6797-16.3086Z"/>
  </g>
  <g id="Semibold-S" transform="matrix(1 0 0 1 1997.1 696)">
   <path d="M23.0957 1.17188L69.1895 1.17188C77.9297 1.17188 82.5684-3.36914 82.5684-12.0117L82.5684-58.3984C82.5684-67.041 77.9297-71.582 69.1895-71.582L23.0957-71.582C14.4043-71.582 9.76562-67.041 9.76562-58.3984L9.76562-12.0117C9.76562-3.36914 14.4043 1.17188 23.0957 1.17188ZM46.0938-16.2598C39.209-16.2598 34.3262-18.6523 32.666-22.5098C32.373-23.2422 32.1777-23.9746 32.1777-24.8047C32.1777-26.9043 33.6426-28.3203 36.084-28.3203C37.8418-28.3203 38.9648-27.6367 39.8438-26.4648C41.1621-24.5605 43.1641-23.3398 45.8496-23.3398C49.3164-23.3398 51.8555-25.8789 51.8555-29.248C51.8555-32.6172 49.707-34.9121 46.4844-34.9121C44.8242-34.9121 43.6523-34.375 42.1875-33.3984C40.5762-32.3242 39.4531-31.8848 37.5977-31.8848C34.3262-31.8848 32.5195-33.7891 32.7637-36.9629L33.6426-48.3887C33.7891-51.3184 35.8887-53.2715 39.1113-53.2715L55.6641-53.2715C57.9102-53.2715 59.2773-51.9531 59.2773-49.8535C59.2773-47.8027 57.8125-46.4355 55.6641-46.4355L40.8691-46.4355L40.1367-37.9883L40.5762-37.9883C41.8457-39.9902 45.1172-41.3574 48.4863-41.3574C55.8594-41.3574 60.8398-36.5723 60.8398-29.4434C60.8398-21.3867 54.9805-16.2598 46.0938-16.2598Z"/>
  </g>
  <g id="Medium-S" transform="matrix(1 0 0 1 1700.75 696)">
   <path d="M22.7051 0.830078L68.8965 0.830078C77.4414 0.830078 81.8359-3.51562 81.8359-11.9629L81.8359-58.4473C81.8359-66.8945 77.4414-71.2402 68.8965-71.2402L22.7051-71.2402C14.209-71.2402 9.76562-66.8945 9.76562-58.4473L9.76562-11.9629C9.76562-3.51562 14.209 0.830078 22.7051 0.830078ZM45.6543-16.2109C38.916-16.2109 34.1309-18.6035 32.4707-22.5586C32.1289-23.2422 31.9824-23.9746 31.9824-24.8047C31.9824-26.7578 33.3496-28.0762 35.498-28.0762C37.0605-28.0762 38.1348-27.3926 39.0137-26.123C40.3809-23.9746 42.627-22.6562 45.459-22.6562C49.1699-22.6562 52.002-25.4395 52.002-29.1016C52.002-32.8613 49.6582-35.3027 46.0938-35.3027C44.3848-35.3027 43.1641-34.8145 41.6016-33.6426C39.8926-32.4707 38.8184-32.0801 37.0605-32.0801C34.082-32.0801 32.4219-33.8867 32.6172-36.8652L33.5938-48.7305C33.7891-51.5137 35.791-53.3203 38.916-53.3203L55.3223-53.3203C57.2754-53.3203 58.5449-52.0996 58.5449-50.1953C58.5449-48.3398 57.2266-47.0703 55.3223-47.0703L40.1367-47.0703L39.3555-37.9883L39.7461-37.9883C41.0156-39.8926 44.3359-41.2598 47.6074-41.2598C54.9805-41.2598 60.0586-36.4258 60.0586-29.2969C60.0586-21.3379 54.248-16.2109 45.6543-16.2109Z"/>
  </g>
  <g id="Regular-S" transform="matrix(1 0 0 1 1404.51 696)">
   <path d="M22.2168 0.390625L68.457 0.390625C76.8066 0.390625 80.9082-3.71094 80.9082-11.9141L80.9082-58.4961C80.9082-66.6992 76.8066-70.8008 68.457-70.8008L22.2168-70.8008C13.916-70.8008 9.76562-66.6992 9.76562-58.4961L9.76562-11.9141C9.76562-3.71094 13.916 0.390625 22.2168 0.390625ZM45.0684-16.1621C38.623-16.1621 33.8867-18.6035 32.2266-22.6074C31.8848-23.291 31.6895-24.0234 31.6895-24.8047C31.6895-26.5625 32.9102-27.7832 34.7656-27.7832C36.0352-27.7832 37.1094-27.0508 37.8906-25.6836C39.3066-23.1934 41.8945-21.7773 44.873-21.7773C49.0723-21.7773 52.1484-24.8535 52.1484-28.9551C52.1484-33.1055 49.5605-35.8398 45.6543-35.8398C43.8477-35.8398 42.5293-35.3516 40.8203-34.0332C39.0137-32.7148 37.9883-32.3242 36.3281-32.3242C33.8379-32.3242 32.3242-34.0332 32.5195-36.6699L33.5449-49.1699C33.7402-51.7578 35.6445-53.418 38.623-53.418L54.8828-53.418C56.4453-53.418 57.5195-52.2461 57.5195-50.6348C57.5195-49.0234 56.3965-47.9004 54.8828-47.9004L39.209-47.9004L38.3789-37.9395L38.623-37.9395C39.9414-39.7461 43.2617-41.1621 46.4844-41.1621C53.9062-41.1621 59.0332-36.2305 59.0332-29.1016C59.0332-21.2402 53.3203-16.1621 45.0684-16.1621Z"/>
  </g>
  <g id="Light-S" transform="matrix(1 0 0 1 1108.46 696)">
   <path d="M21.3867-0.292969L67.9688-0.292969C75.7324-0.292969 79.5898-4.15039 79.5898-11.7676L79.5898-58.5938C79.5898-66.2109 75.7324-70.1172 67.9688-70.1172L21.3867-70.1172C13.6719-70.1172 9.76562-66.2598 9.76562-58.5938L9.76562-11.7676C9.76562-4.15039 13.6719-0.292969 21.3867-0.292969ZM44.4824-16.6992C38.3301-16.6992 33.8379-19.3359 32.373-23.3398C32.1289-23.877 31.9824-24.4141 31.9824-25.0488C31.9824-26.416 32.959-27.3438 34.375-27.3438C35.4004-27.3438 36.2793-26.8066 36.8652-25.6348C38.0859-22.9004 40.9668-21.1914 44.4336-21.1914C48.9258-21.1914 52.2949-24.5117 52.2949-29.0039C52.2949-33.5449 49.3652-36.5723 45.0195-36.5723C42.8223-36.5723 41.1621-35.8398 39.1602-34.0332C37.793-32.959 37.0117-32.666 35.7422-32.666C33.7891-32.666 32.6172-33.9844 32.7637-36.0352L33.8379-49.6094C34.0332-51.709 35.498-52.9785 37.793-52.9785L54.1504-52.9785C55.4199-52.9785 56.25-52.0508 56.25-50.7812C56.25-49.5117 55.3711-48.584 54.1504-48.584L38.3301-48.584L37.4023-37.2559L37.6465-37.2559C39.1602-39.3555 42.4316-40.7715 45.6543-40.7715C52.6855-40.7715 57.6172-35.9863 57.6172-29.1016C57.6172-21.6309 52.2949-16.6992 44.4824-16.6992Z"/>
  </g>
  <g id="Thin-S" transform="matrix(1 0 0 1 812.599 696)">
   <path d="M20.3125-1.12305L67.334-1.12305C74.2676-1.12305 77.8809-4.78516 77.8809-11.6211L77.8809-58.6914C77.8809-65.5762 74.2676-69.2383 67.334-69.2383L20.3125-69.2383C13.3789-69.2383 9.76562-65.625 9.76562-58.6914L9.76562-11.6211C9.76562-4.6875 13.3789-1.12305 20.3125-1.12305ZM43.6523-17.4316C37.8906-17.4316 33.7891-20.2637 32.5684-24.3164C32.4707-24.6582 32.373-25 32.373-25.3906C32.373-26.2207 32.959-26.8555 33.8867-26.8555C34.6191-26.8555 35.1562-26.4648 35.4492-25.6348C36.4258-22.5098 39.7949-20.3613 43.8477-20.3613C48.7793-20.3613 52.4902-24.0723 52.4902-29.0527C52.4902-34.0332 49.1211-37.4512 44.1895-37.4512C41.4062-37.4512 39.3555-36.5234 36.9629-33.9844C36.2305-33.3008 35.7422-33.1055 34.9121-33.1055C33.6914-33.1055 32.959-33.9844 33.0566-35.2051L34.2773-50.2441C34.375-51.6113 35.2539-52.4414 36.6699-52.4414L53.1738-52.4414C54.0039-52.4414 54.5898-51.8066 54.5898-50.9766C54.5898-50.1465 54.0039-49.5605 53.1738-49.5605L37.207-49.5605L36.1328-36.4258L36.3281-36.4258C38.0859-38.7695 41.3086-40.2832 44.5312-40.2832C51.123-40.2832 55.8105-35.6445 55.8105-29.1504C55.8105-22.1191 50.8789-17.4316 43.6523-17.4316Z"/>
  </g>
  <g id="Ultralight-S" transform="matrix(1 0 0 1 516.352 696)">
   <path d="M19.7754-1.5625L66.9922-1.5625C73.5352-1.5625 76.9531-5.12695 76.9531-11.5234L76.9531-58.7891C76.9531-65.2344 73.5352-68.75 66.9922-68.75L19.7754-68.75C13.2324-68.75 9.76562-65.2832 9.76562-58.7891L9.76562-11.5234C9.76562-5.0293 13.2324-1.5625 19.7754-1.5625ZM43.2617-17.8223C37.6953-17.8223 33.7402-20.8008 32.666-24.8535C32.6172-25.0488 32.5684-25.293 32.5684-25.5371C32.5684-26.123 33.0078-26.5625 33.5938-26.5625C34.1797-26.5625 34.5703-26.2695 34.7168-25.5859C35.5469-22.3145 39.209-19.9707 43.5059-19.9707C48.6816-19.9707 52.5879-23.8281 52.5879-29.1016C52.5879-34.3262 48.9746-37.9395 43.75-37.9395C40.6738-37.9395 38.4277-36.8652 35.8398-33.9844C35.4004-33.4961 35.1074-33.3496 34.5215-33.3496C33.6426-33.3496 33.1543-33.9355 33.2031-34.7656L34.4727-50.5859C34.5703-51.5625 35.1562-52.1484 36.1328-52.1484L52.6367-52.1484C53.2715-52.1484 53.7109-51.709 53.7109-51.0742C53.7109-50.4883 53.2715-50.0488 52.6367-50.0488L36.6211-50.0488L35.4492-35.9863L35.6445-35.9863C37.5488-38.4766 40.7715-39.9902 43.9941-39.9902C50.3418-39.9902 54.834-35.498 54.834-29.1504C54.834-22.4121 50.1465-17.8223 43.2617-17.8223Z"/>
  </g>
 </g>
</svg>
