<?xml version="1.0" encoding="UTF-8"?>
<!--Generator: Apple Native CoreSVG 149-->
<!DOCTYPE svg
PUBLIC "-//W3C//DTD SVG 1.1//EN"
       "http://www.w3.org/Graphics/SVG/1.1/DTD/svg11.dtd">
<svg version="1.1" xmlns="http://www.w3.org/2000/svg" xmlns:xlink="http://www.w3.org/1999/xlink" width="3300" height="2200">
 <!--glyph: "uni100554.medium", point size: 100.000000, font version: "Version 16.0d18e1", template writer version: "8"-->
 <g id="Notes">
  <rect height="2200" id="artboard" style="fill:white;opacity:1" width="3300" x="0" y="0"/>
  <line id="" style="fill:none;stroke:black;opacity:1;stroke-width:0.5;" x1="263" x2="3036" y1="292" y2="292"/>
  <text style="stroke:none;fill:black;font-family:-apple-system,&quot;SF Pro Display&quot;,&quot;SF Pro Text&quot;,Helvetica,sans-serif;font-weight:bold;" transform="matrix(1 0 0 1 263 322)">Weight/Scale Variations</text>
  <text style="stroke:none;fill:black;font-family:-apple-system,&quot;SF Pro Display&quot;,&quot;SF Pro Text&quot;,Helvetica,sans-serif;text-anchor:middle;" transform="matrix(1 0 0 1 559.711 322)">Ultralight</text>
  <text style="stroke:none;fill:black;font-family:-apple-system,&quot;SF Pro Display&quot;,&quot;SF Pro Text&quot;,Helvetica,sans-serif;text-anchor:middle;" transform="matrix(1 0 0 1 856.422 322)">Thin</text>
  <text style="stroke:none;fill:black;font-family:-apple-system,&quot;SF Pro Display&quot;,&quot;SF Pro Text&quot;,Helvetica,sans-serif;text-anchor:middle;" transform="matrix(1 0 0 1 1153.13 322)">Light</text>
  <text style="stroke:none;fill:black;font-family:-apple-system,&quot;SF Pro Display&quot;,&quot;SF Pro Text&quot;,Helvetica,sans-serif;text-anchor:middle;" transform="matrix(1 0 0 1 1449.84 322)">Regular</text>
  <text style="stroke:none;fill:black;font-family:-apple-system,&quot;SF Pro Display&quot;,&quot;SF Pro Text&quot;,Helvetica,sans-serif;text-anchor:middle;" transform="matrix(1 0 0 1 1746.56 322)">Medium</text>
  <text style="stroke:none;fill:black;font-family:-apple-system,&quot;SF Pro Display&quot;,&quot;SF Pro Text&quot;,Helvetica,sans-serif;text-anchor:middle;" transform="matrix(1 0 0 1 2043.27 322)">Semibold</text>
  <text style="stroke:none;fill:black;font-family:-apple-system,&quot;SF Pro Display&quot;,&quot;SF Pro Text&quot;,Helvetica,sans-serif;text-anchor:middle;" transform="matrix(1 0 0 1 2339.98 322)">Bold</text>
  <text style="stroke:none;fill:black;font-family:-apple-system,&quot;SF Pro Display&quot;,&quot;SF Pro Text&quot;,Helvetica,sans-serif;text-anchor:middle;" transform="matrix(1 0 0 1 2636.69 322)">Heavy</text>
  <text style="stroke:none;fill:black;font-family:-apple-system,&quot;SF Pro Display&quot;,&quot;SF Pro Text&quot;,Helvetica,sans-serif;text-anchor:middle;" transform="matrix(1 0 0 1 2933.4 322)">Black</text>
  <line id="" style="fill:none;stroke:black;opacity:1;stroke-width:0.5;" x1="263" x2="3036" y1="1903" y2="1903"/>
  <g id="" transform="matrix(1 0 0 1 263 1933)">
   <path d="M9.24805 0.830078C13.5547 0.830078 17.1387-2.74414 17.1387-7.05078C17.1387-11.3574 13.5449-14.9316 9.23828-14.9316C4.94141-14.9316 1.36719-11.3574 1.36719-7.05078C1.36719-2.74414 4.95117 0.830078 9.24805 0.830078ZM9.24805-0.654297C5.70312-0.654297 2.87109-3.49609 2.87109-7.05078C2.87109-10.6055 5.69336-13.4473 9.23828-13.4473C12.793-13.4473 15.6348-10.6055 15.6445-7.05078C15.6543-3.49609 12.8027-0.654297 9.24805-0.654297ZM6.39648-6.31836L8.50586-6.31836L8.50586-4.19922C8.50586-3.75977 8.79883-3.45703 9.22852-3.45703C9.67773-3.45703 9.9707-3.75977 9.9707-4.19922L9.9707-6.31836L12.0996-6.31836C12.5391-6.31836 12.8418-6.61133 12.8418-7.04102C12.8418-7.48047 12.5391-7.7832 12.0996-7.7832L9.9707-7.7832L9.9707-9.89258C9.9707-10.3418 9.67773-10.6445 9.22852-10.6445C8.79883-10.6445 8.50586-10.3418 8.50586-9.89258L8.50586-7.7832L6.39648-7.7832C5.94727-7.7832 5.64453-7.48047 5.64453-7.04102C5.64453-6.61133 5.94727-6.31836 6.39648-6.31836Z"/>
  </g>
  <g id="" transform="matrix(1 0 0 1 281.506 1933)">
   <path d="M11.709 2.91016C17.1582 2.91016 21.6699-1.61133 21.6699-7.05078C21.6699-12.5 17.1484-17.0117 11.6992-17.0117C6.25977-17.0117 1.74805-12.5 1.74805-7.05078C1.74805-1.61133 6.26953 2.91016 11.709 2.91016ZM11.709 1.25C7.09961 1.25 3.41797-2.44141 3.41797-7.05078C3.41797-11.6602 7.08984-15.3516 11.6992-15.3516C16.3086-15.3516 20-11.6602 20.0098-7.05078C20.0195-2.44141 16.3184 1.25 11.709 1.25ZM7.98828-6.23047L10.8789-6.23047L10.8789-3.32031C10.8789-2.83203 11.2109-2.5 11.6895-2.5C12.1777-2.5 12.5195-2.83203 12.5195-3.32031L12.5195-6.23047L15.4297-6.23047C15.918-6.23047 16.25-6.5625 16.25-7.04102C16.25-7.5293 15.918-7.87109 15.4297-7.87109L12.5195-7.87109L12.5195-10.7617C12.5195-11.2695 12.1777-11.6016 11.6895-11.6016C11.2109-11.6016 10.8789-11.2598 10.8789-10.7617L10.8789-7.87109L7.98828-7.87109C7.48047-7.87109 7.14844-7.5293 7.14844-7.04102C7.14844-6.5625 7.49023-6.23047 7.98828-6.23047Z"/>
  </g>
  <g id="" transform="matrix(1 0 0 1 304.924 1933)">
   <path d="M14.9707 5.66406C21.9336 5.66406 27.6953-0.0976562 27.6953-7.05078C27.6953-14.0137 21.9238-19.7754 14.9609-19.7754C8.00781-19.7754 2.25586-14.0137 2.25586-7.05078C2.25586-0.0976562 8.01758 5.66406 14.9707 5.66406ZM14.9707 3.84766C8.93555 3.84766 4.08203-1.01562 4.08203-7.05078C4.08203-13.0957 8.92578-17.9492 14.9609-17.9492C21.0059-17.9492 25.8594-13.0957 25.8691-7.05078C25.8789-1.01562 21.0156 3.84766 14.9707 3.84766ZM10.0586-6.14258L14.0625-6.14258L14.0625-2.12891C14.0625-1.5918 14.4336-1.2207 14.9512-1.2207C15.4883-1.2207 15.8594-1.5918 15.8594-2.12891L15.8594-6.14258L19.8828-6.14258C20.4102-6.14258 20.791-6.51367 20.791-7.03125C20.791-7.56836 20.4199-7.94922 19.8828-7.94922L15.8594-7.94922L15.8594-11.9531C15.8594-12.5098 15.4883-12.8809 14.9512-12.8809C14.4336-12.8809 14.0625-12.5 14.0625-11.9531L14.0625-7.94922L10.0586-7.94922C9.50195-7.94922 9.13086-7.56836 9.13086-7.03125C9.13086-6.51367 9.51172-6.14258 10.0586-6.14258Z"/>
  </g>
  <text style="stroke:none;fill:black;font-family:-apple-system,&quot;SF Pro Display&quot;,&quot;SF Pro Text&quot;,Helvetica,sans-serif;font-weight:bold;" transform="matrix(1 0 0 1 263 1953)">Design Variations</text>
  <text style="stroke:none;fill:black;font-family:-apple-system,&quot;SF Pro Display&quot;,&quot;SF Pro Text&quot;,Helvetica,sans-serif;" transform="matrix(1 0 0 1 263 1971)">Symbols are supported in up to nine weights and three scales.</text>
  <text style="stroke:none;fill:black;font-family:-apple-system,&quot;SF Pro Display&quot;,&quot;SF Pro Text&quot;,Helvetica,sans-serif;" transform="matrix(1 0 0 1 263 1989)">For optimal layout with text and other symbols, vertically align</text>
  <text style="stroke:none;fill:black;font-family:-apple-system,&quot;SF Pro Display&quot;,&quot;SF Pro Text&quot;,Helvetica,sans-serif;" transform="matrix(1 0 0 1 263 2007)">symbols with the adjacent text.</text>
  <line id="" style="fill:none;stroke:#00AEEF;stroke-width:0.5;opacity:1.0;" x1="776" x2="776" y1="1919" y2="1933"/>
  <g id="" transform="matrix(1 0 0 1 776 1933)">
   <path d="M3.31055 0.126953C3.82812 0.126953 4.08203-0.0683594 4.26758-0.605469L5.52734-4.0625L11.2891-4.0625L12.5488-0.605469C12.7344-0.0683594 12.9883 0.126953 13.4961 0.126953C14.0137 0.126953 14.3457-0.185547 14.3457-0.673828C14.3457-0.839844 14.3164-0.986328 14.2383-1.20117L9.6582-13.3887C9.43359-13.9941 9.0332-14.2871 8.4082-14.2871C7.80273-14.2871 7.39258-13.9941 7.17773-13.3984L2.59766-1.19141C2.51953-0.976562 2.49023-0.830078 2.49023-0.664062C2.49023-0.175781 2.80273 0.126953 3.31055 0.126953ZM6.00586-5.53711L8.37891-12.1094L8.42773-12.1094L10.8008-5.53711Z"/>
  </g>
  <line id="" style="fill:none;stroke:#00AEEF;stroke-width:0.5;opacity:1.0;" x1="792.836" x2="792.836" y1="1919" y2="1933"/>
  <text style="stroke:none;fill:black;font-family:-apple-system,&quot;SF Pro Display&quot;,&quot;SF Pro Text&quot;,Helvetica,sans-serif;font-weight:bold;" transform="matrix(1 0 0 1 776 1953)">Margins</text>
  <text style="stroke:none;fill:black;font-family:-apple-system,&quot;SF Pro Display&quot;,&quot;SF Pro Text&quot;,Helvetica,sans-serif;" transform="matrix(1 0 0 1 776 1971)">Leading and trailing margins on the left and right side of each symbol</text>
  <text style="stroke:none;fill:black;font-family:-apple-system,&quot;SF Pro Display&quot;,&quot;SF Pro Text&quot;,Helvetica,sans-serif;" transform="matrix(1 0 0 1 776 1989)">can be adjusted by modifying the x-location of the margin guidelines.</text>
  <text style="stroke:none;fill:black;font-family:-apple-system,&quot;SF Pro Display&quot;,&quot;SF Pro Text&quot;,Helvetica,sans-serif;" transform="matrix(1 0 0 1 776 2007)">Modifications are automatically applied proportionally to all</text>
  <text style="stroke:none;fill:black;font-family:-apple-system,&quot;SF Pro Display&quot;,&quot;SF Pro Text&quot;,Helvetica,sans-serif;" transform="matrix(1 0 0 1 776 2025)">scales and weights.</text>
  <g id="" transform="matrix(1 0 0 1 1289 1933)">
   <path d="M2.8418 1.86523L4.54102 3.57422C5.40039 4.44336 6.38672 4.38477 7.31445 3.35938L17.4902-7.85156C17.7539-7.76367 18.0273-7.7832 18.3398-7.8418L19.4043-8.03711L20.0684-7.36328L20.0293-6.80664C19.9902-6.30859 20.1172-5.92773 20.6055-5.44922L21.3672-4.70703C21.8457-4.22852 22.4609-4.19922 22.9297-4.66797L25.8398-7.58789C26.3086-8.05664 26.2891-8.65234 25.8105-9.13086L25.0391-9.89258C24.5605-10.3711 24.1895-10.5273 23.7109-10.4883L23.1348-10.4395L22.4902-11.0742L22.7344-12.1973C22.8613-12.7637 22.7051-13.2031 22.1191-13.7891L19.9219-15.9766C16.582-19.2969 12.1484-19.2188 9.25781-16.3281C8.83789-15.918 8.80859-15.3418 9.04297-14.9512C9.27734-14.5898 9.73633-14.3555 10.3809-14.5215C11.8457-14.8633 13.3691-14.9219 14.7949-13.9844L14.209-12.5293C14.0137-12.0508 13.9844-11.6504 14.1113-11.2891L3.04688-0.898438C2.06055 0.0195312 1.98242 0.996094 2.8418 1.86523ZM10.752-15.957C13.1836-17.7344 16.4746-17.4316 18.7012-15.2051L21.1328-12.793C21.3672-12.5586 21.4062-12.373 21.3379-12.0312L21.0156-10.5469L22.5195-9.0625L23.5059-9.12109C23.7598-9.13086 23.8379-9.11133 24.0332-8.91602L24.6094-8.33984L22.168-5.89844L21.5918-6.47461C21.3965-6.66992 21.3672-6.74805 21.377-7.01172L21.4453-7.98828L19.9512-9.47266L18.4277-9.21875C18.1055-9.15039 17.959-9.17969 17.7148-9.41406L15.7129-11.416C15.459-11.6504 15.4297-11.8164 15.5859-12.1875L16.4648-14.2773C14.9023-15.7324 12.8711-16.3574 10.8398-15.7617C10.6836-15.7227 10.625-15.8496 10.752-15.957ZM5.27344 2.30469L4.10156 1.14258C3.63281 0.683594 3.74023 0.341797 4.14062-0.0195312L14.9512-10.1953L16.416-8.71094L6.42578 2.27539C6.07422 2.67578 5.74219 2.77344 5.27344 2.30469Z"/>
  </g>
  <text style="stroke:none;fill:black;font-family:-apple-system,&quot;SF Pro Display&quot;,&quot;SF Pro Text&quot;,Helvetica,sans-serif;font-weight:bold;" transform="matrix(1 0 0 1 1289 1953)">Exporting</text>
  <text style="stroke:none;fill:black;font-family:-apple-system,&quot;SF Pro Display&quot;,&quot;SF Pro Text&quot;,Helvetica,sans-serif;" transform="matrix(1 0 0 1 1289 1971)">Symbols should be outlined when exporting to ensure the</text>
  <text style="stroke:none;fill:black;font-family:-apple-system,&quot;SF Pro Display&quot;,&quot;SF Pro Text&quot;,Helvetica,sans-serif;" transform="matrix(1 0 0 1 1289 1989)">design is preserved when submitting to Xcode.</text>
  <text id="template-version" style="stroke:none;fill:black;font-family:-apple-system,&quot;SF Pro Display&quot;,&quot;SF Pro Text&quot;,Helvetica,sans-serif;text-anchor:end;" transform="matrix(1 0 0 1 3036 1933)">Template v.2.0</text>
  <text style="stroke:none;fill:black;font-family:-apple-system,&quot;SF Pro Display&quot;,&quot;SF Pro Text&quot;,Helvetica,sans-serif;text-anchor:end;" transform="matrix(1 0 0 1 3036 1951)">Requires Xcode 12 or greater</text>
  <text style="stroke:none;fill:black;font-family:-apple-system,&quot;SF Pro Display&quot;,&quot;SF Pro Text&quot;,Helvetica,sans-serif;text-anchor:end;" transform="matrix(1 0 0 1 3036 1969)">Generated from 12.square.fill</text>
  <text style="stroke:none;fill:black;font-family:-apple-system,&quot;SF Pro Display&quot;,&quot;SF Pro Text&quot;,Helvetica,sans-serif;text-anchor:end;" transform="matrix(1 0 0 1 3036 1987)">Typeset at 100 points</text>
  <text style="stroke:none;fill:black;font-family:-apple-system,&quot;SF Pro Display&quot;,&quot;SF Pro Text&quot;,Helvetica,sans-serif;" transform="matrix(1 0 0 1 263 726)">Small</text>
  <text style="stroke:none;fill:black;font-family:-apple-system,&quot;SF Pro Display&quot;,&quot;SF Pro Text&quot;,Helvetica,sans-serif;" transform="matrix(1 0 0 1 263 1156)">Medium</text>
  <text style="stroke:none;fill:black;font-family:-apple-system,&quot;SF Pro Display&quot;,&quot;SF Pro Text&quot;,Helvetica,sans-serif;" transform="matrix(1 0 0 1 263 1586)">Large</text>
 </g>
 <g id="Guides">
  <g id="H-reference" style="fill:#27AAE1;stroke:none;" transform="matrix(1 0 0 1 339 696)">
   <path d="M0.976562 0L3.66211 0L12.9883-24.4629L45.752-24.4629L55.127 0L57.7637 0L30.6152-70.459L28.125-70.459ZM29.3457-67.1387L29.4434-67.1387L44.873-26.709L13.8672-26.709Z"/>
  </g>
  <line id="Baseline-S" style="fill:none;stroke:#27AAE1;opacity:1;stroke-width:0.5;" x1="263" x2="3036" y1="696" y2="696"/>
  <line id="Capline-S" style="fill:none;stroke:#27AAE1;opacity:1;stroke-width:0.5;" x1="263" x2="3036" y1="625.541" y2="625.541"/>
  <g id="H-reference" style="fill:#27AAE1;stroke:none;" transform="matrix(1 0 0 1 339 1126)">
   <path d="M0.976562 0L3.66211 0L12.9883-24.4629L45.752-24.4629L55.127 0L57.7637 0L30.6152-70.459L28.125-70.459ZM29.3457-67.1387L29.4434-67.1387L44.873-26.709L13.8672-26.709Z"/>
  </g>
  <line id="Baseline-M" style="fill:none;stroke:#27AAE1;opacity:1;stroke-width:0.5;" x1="263" x2="3036" y1="1126" y2="1126"/>
  <line id="Capline-M" style="fill:none;stroke:#27AAE1;opacity:1;stroke-width:0.5;" x1="263" x2="3036" y1="1055.54" y2="1055.54"/>
  <g id="H-reference" style="fill:#27AAE1;stroke:none;" transform="matrix(1 0 0 1 339 1556)">
   <path d="M0.976562 0L3.66211 0L12.9883-24.4629L45.752-24.4629L55.127 0L57.7637 0L30.6152-70.459L28.125-70.459ZM29.3457-67.1387L29.4434-67.1387L44.873-26.709L13.8672-26.709Z"/>
  </g>
  <line id="Baseline-L" style="fill:none;stroke:#27AAE1;opacity:1;stroke-width:0.5;" x1="263" x2="3036" y1="1556" y2="1556"/>
  <line id="Capline-L" style="fill:none;stroke:#27AAE1;opacity:1;stroke-width:0.5;" x1="263" x2="3036" y1="1485.54" y2="1485.54"/>
  <line id="left-margin" style="fill:none;stroke:#00AEEF;stroke-width:0.5;opacity:1.0;" x1="1392.45" x2="1392.45" y1="1030.79" y2="1150.12"/>
  <line id="right-margin" style="fill:none;stroke:#00AEEF;stroke-width:0.5;opacity:1.0;" x1="1507.24" x2="1507.24" y1="1030.79" y2="1150.12"/>
 </g>
 <g id="Symbols">
  <g id="Black-L" transform="matrix(1 0 0 1 2855.62 1556)">
   <path d="M39.9902 26.5137L115.576 26.5137C130.811 26.5137 139.502 17.8711 139.502 2.68555L139.502-73.0957C139.502-88.2812 130.811-96.875 115.576-96.875L39.9902-96.875C24.7559-96.875 16.0645-88.2812 16.0645-73.0957L16.0645 2.68555C16.0645 17.8711 24.7559 26.5137 39.9902 26.5137ZM85.6934-10.1074C82.2754-10.1074 79.5898-12.4512 79.5898-16.2109C79.5898-18.6523 80.4199-20.6543 82.6172-23.2422L94.1406-36.6699C97.0215-40.1367 99.5117-42.5781 99.5117-45.6055C99.5117-48.0957 97.4121-49.9512 94.6777-49.9512C92.2852-49.9512 90.4297-48.5352 89.5508-45.9473C88.7207-43.6523 87.1094-41.9922 84.082-41.9922C80.8594-41.9922 78.8086-44.1895 78.8086-47.4609C78.8086-48.6328 78.9551-49.5605 79.248-50.6836C81.1035-57.1289 87.5488-61.5234 95.0195-61.5234C104.736-61.5234 110.693-55.4199 110.791-46.7285C110.84-40.8203 108.057-36.3281 103.125-30.6152L96.1914-22.5586L96.1914-21.9727L106.299-21.9727C109.961-21.9727 112.354-19.8242 112.354-16.1133C112.354-12.3535 109.961-10.1074 106.299-10.1074ZM63.4277-9.22852C59.2773-9.22852 57.1777-11.6699 57.1777-16.5527L57.1777-45.9473L56.8359-45.9473L53.8086-42.9688C52.1973-41.2109 51.0254-40.4297 48.877-40.4297C46.0938-40.4297 43.75-42.8711 43.75-45.7031C43.75-48.1934 44.7754-49.9512 47.2168-52.1484L53.6621-57.7148C56.9336-60.6934 59.1309-61.4258 61.8164-61.4258C66.9922-61.4258 69.6289-58.3496 69.6289-53.125L69.6289-16.5527C69.6289-11.6699 67.5293-9.22852 63.4277-9.22852Z"/>
  </g>
  <g id="Heavy-L" transform="matrix(1 0 0 1 2559.93 1556)">
   <path d="M38.8184 25.4883L114.697 25.4883C129.346 25.4883 137.451 17.4316 137.451 2.88086L137.451-73.2422C137.451-87.793 129.346-95.8496 114.697-95.8496L38.8184-95.8496C24.2188-95.8496 16.0645-87.793 16.0645-73.2422L16.0645 2.88086C16.0645 17.4316 24.2188 25.4883 38.8184 25.4883ZM83.5938-9.86328C80.5176-9.86328 78.125-11.9629 78.125-15.332C78.125-17.4805 78.8574-19.1895 80.7617-21.3867L93.6523-36.5234C96.6797-40.1367 99.2676-42.8223 99.2676-46.1426C99.2676-49.2188 96.875-51.4648 93.4082-51.4648C90.3809-51.4648 88.0859-49.707 87.0605-46.4844C86.2793-44.3359 84.8633-42.8223 82.1289-42.8223C79.248-42.8223 77.3438-44.8242 77.3438-47.8516C77.3438-48.877 77.4902-49.8047 77.7344-50.7812C79.541-57.3242 86.084-61.8164 93.6035-61.8164C103.418-61.8164 109.473-55.8105 109.57-47.1191C109.57-41.1133 106.689-36.6211 101.709-30.9082L93.2617-21.0449L93.2617-20.459L105.664-20.459C108.936-20.459 111.084-18.5547 111.084-15.2344C111.084-11.8652 108.936-9.86328 105.664-9.86328ZM61.6211-9.0332C57.959-9.0332 56.0547-11.2305 56.0547-15.4785L56.0547-47.7051L55.7129-47.7051L51.5137-44.0918C50-42.5293 48.9746-41.9434 47.1191-41.9434C44.5801-41.9434 42.4316-44.1895 42.4316-46.7773C42.4316-49.0234 43.3594-50.5859 45.5078-52.4414L52.9297-58.3984C55.8594-60.9863 57.8613-61.6699 60.3027-61.6699C64.8438-61.6699 67.2363-58.9355 67.2363-54.3945L67.2363-15.4785C67.2363-11.2305 65.2832-9.0332 61.6211-9.0332Z"/>
  </g>
  <g id="Bold-L" transform="matrix(1 0 0 1 2264.37 1556)">
   <path d="M37.5 24.3652L113.721 24.3652C127.637 24.3652 135.156 16.8945 135.156 3.07617L135.156-73.3887C135.156-87.207 127.637-94.7266 113.721-94.7266L37.5-94.7266C23.6328-94.7266 16.0645-87.2559 16.0645-73.3887L16.0645 3.07617C16.0645 16.8945 23.6328 24.3652 37.5 24.3652ZM81.25-9.57031C78.5156-9.57031 76.4648-11.377 76.4648-14.3066C76.4648-16.1133 77.0996-17.5781 78.6133-19.3848L93.1641-36.377C96.2402-40.0879 99.0234-43.0664 99.0234-46.6797C99.0234-50.4883 96.1914-53.125 91.9922-53.125C88.2324-53.125 85.498-50.9766 84.3262-47.168C83.5938-45.1172 82.3242-43.7988 79.9805-43.7988C77.3926-43.7988 75.7324-45.6055 75.7324-48.291C75.7324-49.2188 75.8789-50.0488 76.0742-50.9766C77.7832-57.5195 84.4238-62.1582 92.041-62.1582C101.904-62.1582 108.105-56.2988 108.154-47.5098C108.154-41.5039 105.127-36.9629 100.146-31.2012L89.9414-19.3359L89.9414-18.8477L105.029-18.8477C107.764-18.8477 109.619-17.1387 109.619-14.2578C109.619-11.3281 107.764-9.57031 105.029-9.57031ZM59.6191-8.78906C56.4941-8.78906 54.7852-10.6934 54.7852-14.2578L54.7852-49.6582L54.4434-49.6582L48.9746-45.3613C47.5098-44.043 46.6797-43.6035 45.1172-43.6035C42.9199-43.6035 40.9668-45.6055 40.9668-47.9492C40.9668-49.9023 41.7969-51.2695 43.6523-52.832L52.0996-59.1309C54.6875-61.3281 56.3965-61.9141 58.6426-61.9141C62.4023-61.9141 64.5508-59.5703 64.5508-55.7617L64.5508-14.2578C64.5508-10.6934 62.793-8.78906 59.6191-8.78906Z"/>
  </g>
  <g id="Semibold-L" transform="matrix(1 0 0 1 1968.44 1556)">
   <path d="M36.6211 23.584L113.037 23.584C126.514 23.584 133.594 16.5039 133.594 3.17383L133.594-73.5352C133.594-86.8164 126.514-93.9453 113.037-93.9453L36.6211-93.9453C23.1934-93.9453 16.0645-86.8652 16.0645-73.5352L16.0645 3.17383C16.0645 16.5527 23.1934 23.584 36.6211 23.584ZM79.5898-9.32617C77.0996-9.32617 75.3418-10.9863 75.3418-13.623C75.3418-15.1855 75.8301-16.5039 77.1484-17.9688L92.7734-36.2793C95.9961-40.0391 98.877-43.2617 98.877-47.0703C98.877-51.3672 95.752-54.248 91.0156-54.248C86.7676-54.248 83.6914-51.9043 82.4707-47.6074C81.7383-45.7031 80.6152-44.4824 78.4668-44.4824C76.123-44.4824 74.6094-46.0938 74.6094-48.584C74.6094-49.4141 74.7559-50.1953 74.9023-51.0742C76.5625-57.666 83.252-62.4023 90.9668-62.4023C100.83-62.4023 107.129-56.6406 107.178-47.8027C107.178-41.748 104.053-37.207 99.0723-31.4453L87.6953-18.1152L87.6953-17.7246L104.541-17.7246C106.982-17.7246 108.643-16.1621 108.643-13.5742C108.643-10.9863 106.982-9.32617 104.541-9.32617ZM58.252-8.64258C55.5176-8.64258 53.9062-10.3516 53.9062-13.4277L53.9062-51.0254L53.5645-51.0254L47.2168-46.2402C45.8008-45.0684 45.1172-44.7754 43.7988-44.7754C41.748-44.7754 39.9414-46.582 39.9414-48.7793C39.9414-50.5371 40.7227-51.8066 42.334-53.0762L51.5625-59.668C53.9062-61.5234 55.3711-62.1094 57.4707-62.1094C60.7422-62.1094 62.6953-60.0098 62.6953-56.7383L62.6953-13.4277C62.6953-10.3516 61.0352-8.64258 58.252-8.64258Z"/>
  </g>
  <g id="Medium-L" transform="matrix(1 0 0 1 1672.31 1556)">
   <path d="M35.9375 22.998L112.5 22.998C125.635 22.998 132.422 16.2109 132.422 3.27148L132.422-73.6328C132.422-86.5234 125.635-93.3105 112.5-93.3105L35.9375-93.3105C22.9004-93.3105 16.0645-86.5723 16.0645-73.6328L16.0645 3.27148C16.0645 16.2598 22.9004 22.998 35.9375 22.998ZM78.3691-9.17969C76.0742-9.17969 74.4629-10.6934 74.4629-13.1348C74.4629-14.502 74.9023-15.625 76.0742-16.8945L92.5293-36.1816C95.752-40.0391 98.7305-43.4082 98.7305-47.4121C98.7305-52.002 95.4102-55.127 90.2832-55.127C85.6445-55.127 82.3242-52.5879 81.0059-47.9492C80.3223-46.0938 79.2969-44.9707 77.3438-44.9707C75.1465-44.9707 73.7305-46.4844 73.7305-48.7793C73.7305-49.6094 73.877-50.3418 74.0234-51.123C75.6348-57.8125 82.4219-62.5977 90.1367-62.5977C100.049-62.5977 106.445-56.8848 106.445-47.998C106.445-41.9434 103.271-37.4023 98.2422-31.5918L85.9375-17.2363L85.9375-16.8457L104.199-16.8457C106.348-16.8457 107.91-15.4297 107.91-13.0371C107.91-10.7422 106.348-9.17969 104.199-9.17969ZM57.2266-8.49609C54.7852-8.49609 53.2227-10.1074 53.2227-12.793L53.2227-52.0508L52.8809-52.0508L45.8496-46.9238C44.5312-45.8496 43.8965-45.6543 42.7734-45.6543C40.8691-45.6543 39.1602-47.3633 39.1602-49.4141C39.1602-51.0254 39.8926-52.1484 41.3574-53.2715L51.123-60.0586C53.2715-61.7188 54.6387-62.2559 56.5918-62.2559C59.4727-62.2559 61.2793-60.3516 61.2793-57.4707L61.2793-12.793C61.2793-10.1074 59.7656-8.49609 57.2266-8.49609Z"/>
  </g>
  <g id="Regular-L" transform="matrix(1 0 0 1 1376.38 1556)">
   <path d="M35.0586 22.2168L111.816 22.2168C124.463 22.2168 130.859 15.8691 130.859 3.41797L130.859-73.7305C130.859-86.1816 124.463-92.5293 111.816-92.5293L35.0586-92.5293C22.4609-92.5293 16.0645-86.2305 16.0645-73.7305L16.0645 3.41797C16.0645 15.918 22.4609 22.2168 35.0586 22.2168ZM76.7578-8.98438C74.707-8.98438 73.3398-10.3516 73.3398-12.4512C73.3398-13.5742 73.7305-14.5508 74.6094-15.5273L92.1875-36.0352C95.5078-39.9902 98.584-43.5547 98.584-47.8027C98.584-52.8809 94.9707-56.25 89.3066-56.25C84.1797-56.25 80.5664-53.4668 79.1504-48.3887C78.4668-46.6309 77.5879-45.6543 75.8301-45.6543C73.877-45.6543 72.6562-46.9727 72.6562-49.0723C72.6562-49.8047 72.7539-50.4883 72.9004-51.2695C74.4629-57.9102 81.2988-62.8418 89.0625-62.8418C99.0234-62.8418 105.469-57.1777 105.469-48.291C105.469-42.2363 102.197-37.6465 97.168-31.7871L83.6914-16.0645L83.6914-15.7227L103.711-15.7227C105.566-15.7227 106.934-14.4531 106.934-12.4023C106.934-10.3516 105.566-8.98438 103.711-8.98438ZM55.8594-8.34961C53.7598-8.34961 52.3438-9.7168 52.3438-11.9629L52.3438-53.418L52.002-53.418L44.0918-47.7539C42.8223-46.875 42.334-46.8262 41.4062-46.8262C39.7461-46.8262 38.1836-48.3398 38.1836-50.1953C38.1836-51.6602 38.8184-52.6367 40.0391-53.5645L50.5859-60.5957C52.4902-61.9141 53.6133-62.4512 55.4688-62.4512C57.8125-62.4512 59.4238-60.791 59.4238-58.3984L59.4238-11.9629C59.4238-9.7168 58.0566-8.34961 55.8594-8.34961Z"/>
  </g>
  <g id="Light-L" transform="matrix(1 0 0 1 1080.5 1556)">
   <path d="M34.0332 21.4355L111.23 21.4355C123.096 21.4355 129.199 15.2344 129.199 3.56445L129.199-73.8281C129.199-85.5469 123.096-91.6992 111.23-91.6992L34.0332-91.6992C22.168-91.6992 16.0645-85.6445 16.0645-73.8281L16.0645 3.56445C16.0645 15.3809 22.168 21.4355 34.0332 21.4355ZM75.5371-9.32617C73.8281-9.32617 72.7051-10.4492 72.7051-12.207C72.7051-13.1836 72.9492-13.916 73.6816-14.7461L91.8457-35.8398C95.5078-40.1855 98.1445-43.7012 98.1445-47.8516C98.1445-53.3691 94.2383-56.9824 87.9883-56.9824C82.1777-56.9824 78.0273-53.6133 77.002-48.2422C76.5625-46.7285 75.7812-45.8984 74.2676-45.8984C72.6562-45.8984 71.6309-47.0215 71.6309-48.6816C71.6309-49.3652 71.7285-49.9512 71.875-50.6348C73.2422-57.373 80.0293-62.3047 87.8418-62.3047C97.4609-62.3047 103.76-56.7871 103.76-48.1445C103.76-42.5781 100.83-38.1348 95.5078-31.9824L80.957-15.0391L80.957-14.7461L102.637-14.7461C104.15-14.7461 105.225-13.7207 105.225-12.0605C105.225-10.498 104.15-9.32617 102.637-9.32617ZM54.9805-8.78906C53.3203-8.78906 52.1973-9.91211 52.1973-11.6699L52.1973-54.6875L51.8555-54.6875L42.5781-48.3398C41.6992-47.7051 41.3086-47.7051 40.625-47.7051C39.209-47.7051 37.9883-48.9258 37.9883-50.3906C37.9883-51.5137 38.4766-52.2949 39.502-53.0273L50.8301-60.5469C52.2949-61.5234 53.1738-61.9141 54.6387-61.9141C56.4941-61.9141 57.8125-60.6445 57.8125-58.6914L57.8125-11.6699C57.8125-9.91211 56.7383-8.78906 54.9805-8.78906Z"/>
  </g>
  <g id="Thin-L" transform="matrix(1 0 0 1 784.889 1556)">
   <path d="M32.666 20.3613L110.352 20.3613C121.24 20.3613 127.002 14.4531 127.002 3.75977L127.002-73.9746C127.002-84.7168 121.24-90.5762 110.352-90.5762L32.666-90.5762C21.7773-90.5762 16.0645-84.8633 16.0645-73.9746L16.0645 3.75977C16.0645 14.6484 21.7773 20.3613 32.666 20.3613ZM73.9258-9.81445C72.7051-9.81445 71.8262-10.5469 71.8262-11.8652C71.8262-12.6465 71.9727-13.1348 72.4609-13.6719L91.4062-35.5957C95.5566-40.4297 97.5586-43.8477 97.5586-47.9492C97.5586-54.0039 93.2129-57.959 86.2793-57.959C79.5898-57.959 74.707-53.8086 74.1699-48.0469C74.0234-46.875 73.3887-46.1914 72.2168-46.1914C71.0449-46.1914 70.3125-47.0703 70.3125-48.1934C70.3125-48.7793 70.4102-49.2188 70.5078-49.8535C71.6797-56.6895 78.3691-61.5723 86.2305-61.5723C95.3613-61.5723 101.465-56.25 101.465-47.9492C101.465-43.0176 99.0234-38.8184 93.3105-32.2266L77.3438-13.6719L77.3438-13.4766L101.172-13.4766C102.295-13.4766 102.979-12.6953 102.979-11.6699C102.979-10.6445 102.295-9.81445 101.172-9.81445ZM53.8086-9.375C52.7344-9.375 51.9531-10.1074 51.9531-11.2305L51.9531-56.4453L51.6602-56.4453L40.5762-49.1211C40.1367-48.877 39.9414-48.877 39.5508-48.877C38.5254-48.877 37.793-49.707 37.793-50.6348C37.793-51.3184 37.9883-51.8555 38.7207-52.3438L51.2207-60.4492C52.002-60.9863 52.5879-61.1816 53.5156-61.1816C54.7363-61.1816 55.6641-60.4004 55.6641-59.1309L55.6641-11.2305C55.6641-10.1074 54.9805-9.375 53.8086-9.375Z"/>
  </g>
  <g id="Ultralight-L" transform="matrix(1 0 0 1 488.739 1556)">
   <path d="M31.9824 19.7754L109.961 19.7754C120.312 19.7754 125.879 14.0625 125.879 3.85742L125.879-74.0723C125.879-84.2773 120.312-89.9902 109.961-89.9902L31.9824-89.9902C21.582-89.9902 16.0645-84.4727 16.0645-74.0723L16.0645 3.85742C16.0645 14.2578 21.582 19.7754 31.9824 19.7754ZM73.0957-10.0586C72.0703-10.0586 71.3379-10.5957 71.3379-11.7188C71.3379-12.3535 71.4844-12.6953 71.8262-13.1348L91.1621-35.4492C95.5566-40.5762 97.2656-43.8965 97.2656-47.998C97.2656-54.3457 92.7246-58.4473 85.4004-58.4473C78.2227-58.4473 72.998-53.9062 72.7051-47.9492C72.7051-46.9727 72.2168-46.3867 71.1426-46.3867C70.2148-46.3867 69.6289-47.1191 69.6289-47.9492C69.6289-48.4863 69.7266-48.8281 69.7754-49.4629C70.8496-56.3477 77.5391-61.2305 85.4004-61.2305C94.2871-61.2305 100.293-55.957 100.293-47.8516C100.293-43.2617 98.0469-39.1113 92.1875-32.373L75.4883-12.9883L75.4883-12.8418L100.391-12.8418C101.367-12.8418 101.807-12.207 101.807-11.4258C101.807-10.6934 101.367-10.0586 100.391-10.0586ZM53.1738-9.66797C52.4414-9.66797 51.8066-10.2539 51.8066-11.0352L51.8066-57.3242L51.5625-57.3242L39.5508-49.5605C39.3555-49.4629 39.209-49.4629 38.9648-49.4629C38.1836-49.4629 37.6465-50.0977 37.6465-50.7812C37.6465-51.2207 37.7441-51.6602 38.3301-52.002L51.416-60.4004C51.9043-60.6934 52.2949-60.8398 52.9785-60.8398C53.8574-60.8398 54.541-60.3027 54.541-59.3262L54.541-11.0352C54.541-10.2539 54.1016-9.66797 53.1738-9.66797Z"/>
  </g>
  <g id="Black-M" transform="matrix(1 0 0 1 2872.19 1126)">
   <path d="M31.9824 13.5742L90.4297 13.5742C102.686 13.5742 109.961 6.29883 109.961-5.95703L109.961-64.4043C109.961-76.6602 102.686-83.9355 90.4297-83.9355L31.9824-83.9355C19.7266-83.9355 12.4512-76.6602 12.4512-64.4043L12.4512-5.95703C12.4512 6.29883 19.7266 13.5742 31.9824 13.5742ZM51.0742-15.625C47.4121-15.625 45.752-17.6758 45.752-22.0215L45.752-41.8457L45.5078-41.8457L43.9941-40.0391C42.8223-38.5254 41.748-37.6953 39.7949-37.6953C37.4512-37.6953 35.5957-39.7461 35.5957-41.9922C35.5957-44.0918 36.4258-45.6055 38.5742-47.6074L42.7246-51.709C45.4102-54.3457 47.3633-54.8828 49.5117-54.8828C54.1504-54.8828 56.3477-52.2461 56.3477-47.6074L56.3477-22.0215C56.3477-17.6758 54.6387-15.625 51.0742-15.625ZM68.6035-16.3086C65.7227-16.3086 63.3301-18.3105 63.3301-21.582C63.3301-23.7793 64.1113-25.5371 66.1133-27.9297L73.3887-36.4746C75.6836-39.209 77.1484-40.6738 77.1484-42.627C77.1484-43.9453 75.8789-45.0195 74.3652-45.0195C73.0469-45.0195 71.875-44.043 71.5332-42.6758C70.9961-40.8691 69.5801-39.4043 66.9434-39.4043C64.2578-39.4043 62.5-41.3086 62.5-43.9941C62.5-45.0195 62.6465-45.752 62.8906-46.6797C64.3066-51.6602 69.1406-54.8828 74.9023-54.8828C82.1777-54.8828 86.5234-50.0977 86.6211-43.5547C86.7188-39.3066 84.8633-35.9375 80.9082-31.3965L77.0508-26.9043L77.0508-26.416L82.6172-26.416C85.8887-26.416 87.8906-24.6094 87.8906-21.4355C87.8906-18.1641 85.8887-16.3086 82.6172-16.3086Z"/>
  </g>
  <g id="Heavy-M" transform="matrix(1 0 0 1 2576.39 1126)">
   <path d="M31.0059 12.6465L89.6484 12.6465C101.416 12.6465 108.154 5.9082 108.154-5.81055L108.154-64.5508C108.154-76.2695 101.416-83.0566 89.6484-83.0566L31.0059-83.0566C19.2383-83.0566 12.4512-76.3184 12.4512-64.5508L12.4512-5.81055C12.4512 5.9082 19.2383 12.6465 31.0059 12.6465ZM66.6016-15.918C64.0137-15.918 61.9141-17.7246 61.9141-20.6543C61.9141-22.5586 62.5488-24.1211 64.2578-26.1719L72.9492-36.3281C75.293-39.1113 77.0508-40.8691 77.0508-43.1641C77.0508-45.0684 75.4395-46.4844 73.3398-46.4844C71.4844-46.4844 69.9707-45.2637 69.4336-43.3594C68.8477-41.6016 67.627-40.2832 65.2344-40.2832C62.793-40.2832 61.1816-41.9922 61.1816-44.5312C61.1816-45.4102 61.2793-46.1426 61.5234-46.9727C62.9395-52.002 67.8711-55.3711 73.6816-55.3711C81.1035-55.3711 85.5957-50.6348 85.6934-43.9941C85.7422-39.5508 83.6914-36.1328 79.834-31.6406L74.5605-25.4883L74.5605-25.0488L82.2266-25.0488C85.1074-25.0488 86.9141-23.3887 86.9141-20.5566C86.9141-17.627 85.1074-15.918 82.2266-15.918ZM49.3652-15.2832C46.1426-15.2832 44.5312-17.1387 44.5312-20.9473L44.5312-43.457L44.2871-43.457L41.8945-41.1133C40.7227-39.7461 39.7949-39.1113 38.0859-39.1113C35.9863-39.1113 34.1797-41.0156 34.1797-43.1152C34.1797-45.0195 34.9609-46.3867 36.8652-48.0957L41.8457-52.4414C44.3359-54.7852 46.0449-55.3223 48.0469-55.3223C52.0996-55.3223 54.1504-52.9297 54.1504-48.877L54.1504-20.9473C54.1504-17.1387 52.5391-15.2832 49.3652-15.2832Z"/>
  </g>
  <g id="Bold-M" transform="matrix(1 0 0 1 2280.68 1126)">
   <path d="M29.8828 11.6699L88.7207 11.6699C99.9512 11.6699 106.152 5.46875 106.152-5.66406L106.152-64.6973C106.152-75.8789 99.9512-82.0312 88.7207-82.0312L29.8828-82.0312C18.6523-82.0312 12.4512-75.8789 12.4512-64.6973L12.4512-5.66406C12.4512 5.51758 18.6523 11.6699 29.8828 11.6699ZM64.4043-15.4785C62.0605-15.4785 60.2539-17.0898 60.2539-19.6289C60.2539-21.2402 60.8398-22.5586 62.207-24.1699L72.5098-36.2305C74.8535-39.0137 76.9043-41.1621 76.9043-43.75C76.9043-46.2891 74.9512-48.0957 72.168-48.0957C69.7266-48.0957 67.8711-46.6797 67.041-44.0918C66.4551-42.4316 65.3809-41.3086 63.3301-41.3086C61.084-41.3086 59.668-42.8223 59.668-45.0684C59.668-45.8984 59.8145-46.582 59.9609-47.3145C61.377-52.3926 66.4551-55.9082 72.3145-55.9082C79.8828-55.9082 84.6191-51.2695 84.668-44.4824C84.7168-39.8438 82.4219-36.377 78.5645-31.9336L71.7285-23.9258L71.7285-23.5352L81.7871-23.5352C84.2285-23.5352 85.8398-22.0703 85.8398-19.5801C85.8398-17.041 84.2285-15.4785 81.7871-15.4785ZM47.4121-14.8926C44.6777-14.8926 43.2129-16.5527 43.2129-19.7266L43.2129-45.2148L42.9688-45.2148L39.502-42.334C38.3301-41.1133 37.5977-40.6738 36.1816-40.6738C34.2773-40.6738 32.6172-42.3828 32.6172-44.3848C32.6172-46.0449 33.3496-47.2656 34.9609-48.6816L40.8691-53.3203C43.1152-55.2246 44.5801-55.7617 46.4844-55.7617C49.8535-55.7617 51.6602-53.7109 51.6602-50.293L51.6602-19.7266C51.6602-16.5527 50.1953-14.8926 47.4121-14.8926Z"/>
  </g>
  <g id="Semibold-M" transform="matrix(1 0 0 1 1984.65 1126)">
   <path d="M29.1016 10.9863L88.0859 10.9863C98.9746 10.9863 104.785 5.17578 104.785-5.56641L104.785-64.8438C104.785-75.5859 98.9746-81.3477 88.0859-81.3477L29.1016-81.3477C18.2617-81.3477 12.4512-75.5859 12.4512-64.8438L12.4512-5.56641C12.4512 5.22461 18.2617 10.9863 29.1016 10.9863ZM62.8418-15.1855C60.7422-15.1855 59.1797-16.6504 59.1797-18.9453C59.1797-20.3125 59.6191-21.4355 60.791-22.8027L72.168-36.1328C74.5605-38.9648 76.8066-41.3086 76.8066-44.1895C76.8066-47.168 74.6094-49.1699 71.3867-49.1699C68.5059-49.1699 66.4062-47.6074 65.4297-44.5801C64.7949-43.0176 63.8184-41.9922 62.0117-41.9922C59.9609-41.9922 58.6426-43.3594 58.6426-45.5078C58.6426-46.1914 58.7891-46.875 58.9355-47.5586C60.2539-52.6855 65.4297-56.2988 71.3867-56.2988C79.0527-56.2988 83.9355-51.709 83.9844-44.8242C83.9844-40.0879 81.543-36.5234 77.7344-32.1289L69.8242-22.8516L69.8242-22.5098L81.543-22.5098C83.6426-22.5098 85.1074-21.1426 85.1074-18.8965C85.1074-16.6016 83.6426-15.1855 81.543-15.1855ZM46.0938-14.5996C43.7012-14.5996 42.2852-16.1133 42.2852-18.8477L42.2852-46.4355L42.041-46.4355L37.8906-43.1641C36.7188-42.0898 36.0352-41.7969 34.8633-41.7969C33.1055-41.7969 31.543-43.3594 31.543-45.2148C31.543-46.7773 32.2266-47.8516 33.6426-49.0234L40.1855-53.9062C42.2852-55.5664 43.5547-56.0547 45.3613-56.0547C48.291-56.0547 49.9512-54.248 49.9512-51.2695L49.9512-18.8477C49.9512-16.1133 48.584-14.5996 46.0938-14.5996Z"/>
  </g>
  <g id="Medium-M" transform="matrix(1 0 0 1 1688.47 1126)">
   <path d="M28.5156 10.4492L87.6465 10.4492C98.2422 10.4492 103.711 4.98047 103.711-5.46875L103.711-64.8926C103.711-75.3418 98.2422-80.8105 87.6465-80.8105L28.5156-80.8105C17.9688-80.8105 12.4512-75.3906 12.4512-64.8926L12.4512-5.46875C12.4512 4.98047 17.9688 10.4492 28.5156 10.4492ZM61.7188-14.9902C59.7168-14.9902 58.3008-16.3086 58.3008-18.4082C58.3008-19.6289 58.7402-20.6055 59.7656-21.7773L71.9238-36.084C74.3164-38.8672 76.7578-41.4551 76.7578-44.4824C76.7578-47.8027 74.3652-50.0488 70.752-50.0488C67.5781-50.0488 65.2832-48.3398 64.1602-44.9707C63.5254-43.457 62.6465-42.4805 60.9863-42.4805C59.082-42.4805 57.8613-43.7988 57.8613-45.8008C57.8613-46.4355 58.0078-47.0703 58.1055-47.7539C59.4727-52.8809 64.6973-56.543 70.6543-56.543C78.4668-56.543 83.3984-52.0508 83.4473-45.1172C83.4473-40.2344 80.8594-36.6699 77.0996-32.2754L68.3594-22.0703L68.3594-21.6797L81.2988-21.6797C83.2031-21.6797 84.5703-20.459 84.5703-18.3594C84.5703-16.3086 83.2031-14.9902 81.2988-14.9902ZM45.1172-14.4043C42.9199-14.4043 41.6016-15.7715 41.6016-18.2129L41.6016-47.3633L41.3086-47.3633L36.6699-43.7988C35.498-42.8223 34.9121-42.627 33.8867-42.627C32.2266-42.627 30.7129-44.0918 30.7129-45.8984C30.7129-47.3145 31.3965-48.3398 32.666-49.3164L39.6973-54.3457C41.6504-55.8105 42.8223-56.2988 44.5312-56.2988C47.0703-56.2988 48.6816-54.6387 48.6816-52.0508L48.6816-18.2129C48.6816-15.7715 47.3145-14.4043 45.1172-14.4043Z"/>
  </g>
  <g id="Regular-M" transform="matrix(1 0 0 1 1392.45 1126)">
   <path d="M27.7832 9.76562L87.0117 9.76562C97.2656 9.76562 102.344 4.6875 102.344-5.37109L102.344-64.9902C102.344-75.0488 97.2656-80.127 87.0117-80.127L27.7832-80.127C17.5781-80.127 12.4512-75.0977 12.4512-64.9902L12.4512-5.37109C12.4512 4.73633 17.5781 9.76562 27.7832 9.76562ZM60.2051-14.6973C58.3984-14.6973 57.2266-15.8691 57.2266-17.6758C57.2266-18.7012 57.5684-19.5312 58.3496-20.4102L71.6309-35.9863C73.9746-38.8184 76.6602-41.6504 76.6602-44.9219C76.6602-48.6328 74.0234-51.123 69.9707-51.123C66.3574-51.123 63.8672-49.2676 62.5488-45.5078C61.9141-43.9941 61.1328-43.1641 59.668-43.1641C57.959-43.1641 56.8359-44.3359 56.8359-46.1914C56.8359-46.7773 56.9824-47.3633 57.0801-47.998C58.3984-53.125 63.7207-56.9336 69.7266-56.9336C77.6367-56.9336 82.7637-52.4902 82.7637-45.459C82.7637-40.4297 80.0293-36.8164 76.2695-32.4707L66.4062-20.9961L66.4062-20.6543L81.0059-20.6543C82.6172-20.6543 83.8379-19.5801 83.8379-17.7246C83.8379-15.918 82.6172-14.6973 81.0059-14.6973ZM43.7988-14.1602C41.9434-14.1602 40.6738-15.3809 40.6738-17.3828L40.6738-48.584L40.3809-48.584L35.0586-44.6289C33.8867-43.75 33.3984-43.7012 32.5684-43.7012C31.1035-43.7012 29.6875-45.0195 29.6875-46.7285C29.6875-48.0469 30.2734-48.9258 31.3477-49.707L39.0137-54.9316C40.8203-56.1523 41.7969-56.6406 43.457-56.6406C45.5566-56.6406 46.9727-55.127 46.9727-53.0273L46.9727-17.3828C46.9727-15.3809 45.7031-14.1602 43.7988-14.1602Z"/>
  </g>
  <g id="Light-M" transform="matrix(1 0 0 1 1096.47 1126)">
   <path d="M26.8555 9.0332L86.4746 9.0332C95.9961 9.0332 100.879 4.15039 100.879-5.22461L100.879-65.0879C100.879-74.5117 95.9961-79.3945 86.4746-79.3945L26.8555-79.3945C17.334-79.3945 12.4512-74.5605 12.4512-65.0879L12.4512-5.22461C12.4512 4.19922 17.334 9.0332 26.8555 9.0332ZM59.082-15.0391C57.6172-15.0391 56.6406-15.9668 56.6406-17.4805C56.6406-18.3105 56.8848-18.9941 57.5195-19.6777L71.3379-35.791C74.0234-39.0137 76.2695-41.748 76.2695-44.9707C76.2695-49.0723 73.3887-51.7578 68.7988-51.7578C64.5996-51.7578 61.6211-49.4141 60.6445-45.3613C60.2051-44.0918 59.5215-43.3594 58.252-43.3594C56.8359-43.3594 55.957-44.3359 55.957-45.8496C55.957-46.3867 56.0547-46.875 56.1523-47.4609C57.3242-52.6367 62.5977-56.4453 68.6035-56.4453C76.2207-56.4453 81.2012-52.0996 81.2012-45.3125C81.2012-40.7715 78.7598-37.2559 74.7559-32.6172L63.9648-20.0684L63.9648-19.7754L80.0293-19.7754C81.3477-19.7754 82.3242-18.8965 82.3242-17.4316C82.3242-16.0156 81.3477-15.0391 80.0293-15.0391ZM42.9688-14.5508C41.5527-14.5508 40.5273-15.5273 40.5273-17.0898L40.5273-49.7559L40.2832-49.7559L33.6914-45.1172C32.8125-44.5312 32.4707-44.4824 31.8359-44.4824C30.6152-44.4824 29.541-45.5566 29.541-46.9238C29.541-47.9004 29.9805-48.6328 30.8594-49.2676L39.2578-54.8828C40.625-55.8105 41.4062-56.1523 42.7246-56.1523C44.3359-56.1523 45.5078-54.9805 45.5078-53.2715L45.5078-17.0898C45.5078-15.5273 44.5312-14.5508 42.9688-14.5508Z"/>
  </g>
  <g id="Thin-M" transform="matrix(1 0 0 1 800.758 1126)">
   <path d="M25.6348 8.05664L85.7422 8.05664C94.3848 8.05664 98.877 3.4668 98.877-5.0293L98.877-65.2344C98.877-73.7305 94.3848-78.3691 85.7422-78.3691L25.6348-78.3691C16.9922-78.3691 12.4512-73.877 12.4512-65.2344L12.4512-5.0293C12.4512 3.56445 16.9922 8.05664 25.6348 8.05664ZM57.666-15.4297C56.5918-15.4297 55.8594-16.0645 55.8594-17.1875C55.8594-17.8711 56.0059-18.2617 56.3965-18.75L70.9473-35.5469C74.0234-39.209 75.7324-41.8457 75.7324-45.0684C75.7324-49.6582 72.4609-52.6367 67.2363-52.6367C62.2559-52.6367 58.5938-49.5605 58.1055-45.166C57.9102-44.2383 57.4219-43.6523 56.3965-43.6523C55.4199-43.6523 54.7852-44.3848 54.7852-45.4102C54.7852-45.8496 54.834-46.2402 54.9316-46.7285C55.9082-52.002 61.084-55.8105 67.1875-55.8105C74.3652-55.8105 79.1016-51.6113 79.1016-45.1172C79.1016-41.1621 77.0996-37.8418 72.8027-32.8613L60.7422-18.8477L60.7422-18.6523L78.7109-18.6523C79.6875-18.6523 80.2734-17.9688 80.2734-17.041C80.2734-16.1133 79.6875-15.4297 78.7109-15.4297ZM41.9434-15.0879C41.0156-15.0879 40.2832-15.7227 40.2832-16.748L40.2832-51.2695L40.0879-51.2695L31.8848-45.8496C31.4453-45.5566 31.25-45.5566 30.8594-45.5566C30.0293-45.5566 29.3457-46.2891 29.3457-47.1191C29.3457-47.7539 29.541-48.2422 30.1758-48.6328L39.5996-54.7852C40.3809-55.3223 40.8691-55.5176 41.6992-55.5176C42.8223-55.5176 43.6035-54.7852 43.6035-53.6621L43.6035-16.748C43.6035-15.7227 42.9688-15.0879 41.9434-15.0879Z"/>
  </g>
  <g id="Ultralight-M" transform="matrix(1 0 0 1 504.535 1126)">
   <path d="M25 7.56836L85.3516 7.56836C93.5059 7.56836 97.9004 3.125 97.9004-4.98047L97.9004-65.2832C97.9004-73.3887 93.5059-77.832 85.3516-77.832L25-77.832C16.7969-77.832 12.4512-73.4863 12.4512-65.2832L12.4512-4.98047C12.4512 3.22266 16.7969 7.56836 25 7.56836ZM56.8848-15.625C56.0547-15.625 55.4199-16.1133 55.4199-17.041C55.4199-17.627 55.5664-17.9199 55.8594-18.2617L70.7031-35.4492C74.0234-39.3066 75.4395-41.9434 75.4395-45.1172C75.4395-49.9512 72.0215-53.0762 66.4551-53.0762C61.0352-53.0762 57.0801-49.6582 56.7871-45.1172C56.7383-44.2871 56.2988-43.7988 55.4688-43.7988C54.6387-43.7988 54.1504-44.4336 54.1504-45.166C54.1504-45.6055 54.248-45.8984 54.2969-46.3867C55.1758-51.709 60.3516-55.4688 66.4551-55.4688C73.3887-55.4688 78.0762-51.3672 78.0762-45.0195C78.0762-41.4062 76.2695-38.1348 71.7773-32.959L59.082-18.2129L59.082-18.0664L78.0273-18.0664C78.8574-18.0664 79.248-17.5293 79.248-16.8457C79.248-16.2109 78.8574-15.625 78.0273-15.625ZM41.4062-15.332C40.7227-15.332 40.1855-15.8203 40.1855-16.5527L40.1855-52.0996L39.9902-52.0996L30.957-46.1914C30.7129-46.0938 30.6152-46.0938 30.3711-46.0938C29.6875-46.0938 29.1992-46.6309 29.1992-47.2168C29.1992-47.6562 29.3457-47.998 29.834-48.3398L39.7949-54.7852C40.2344-55.0781 40.625-55.1758 41.2109-55.1758C41.9922-55.1758 42.627-54.6875 42.627-53.8574L42.627-16.5527C42.627-15.8203 42.1875-15.332 41.4062-15.332Z"/>
  </g>
  <g id="Black-S" transform="matrix(1 0 0 1 2885.5 696)">
   <path d="M25 2.92969L70.8008 2.92969C80.3711 2.92969 86.0352-2.73438 86.0352-12.3047L86.0352-58.1055C86.0352-67.6758 80.3711-73.3398 70.8008-73.3398L25-73.3398C15.4297-73.3398 9.76562-67.6758 9.76562-58.1055L9.76562-12.3047C9.76562-2.73438 15.4297 2.92969 25 2.92969ZM39.8926-19.8242C37.0605-19.8242 35.7422-21.4355 35.7422-24.8047L35.7422-40.5273L35.5469-40.5273L34.3262-39.0625C33.3984-37.8906 32.5684-37.2559 31.0547-37.2559C29.248-37.2559 27.7832-38.8672 27.7832-40.625C27.7832-42.2363 28.418-43.4082 30.0781-44.9707L33.3984-48.1934C35.498-50.2441 37.0117-50.6836 38.6719-50.6836C42.2852-50.6836 43.9941-48.6328 43.9941-45.0195L43.9941-24.8047C43.9941-21.4355 42.6758-19.8242 39.8926-19.8242ZM53.6133-20.3613C51.3672-20.3613 49.5117-21.9238 49.5117-24.4629C49.5117-26.1719 50.0977-27.5391 51.6602-29.3945L57.4707-36.1816C59.2773-38.3301 60.4492-39.502 60.4492-41.0645C60.4492-42.1387 59.4238-43.0176 58.2031-43.0176C57.1289-43.0176 56.2012-42.2363 55.9082-41.1133C55.4688-39.6973 54.3945-38.5742 52.3438-38.5742C50.2441-38.5742 48.877-40.0391 48.877-42.1387C48.877-42.9199 48.9746-43.5059 49.1699-44.2383C50.293-48.1445 54.1016-50.6836 58.5938-50.6836C64.3066-50.6836 67.7246-46.9238 67.8223-41.7969C67.8711-38.4277 66.4062-35.791 63.3301-32.2266L60.2051-28.6133L60.2051-28.2227L64.6973-28.2227C67.2363-28.2227 68.7988-26.8066 68.7988-24.3652C68.7988-21.8262 67.2363-20.3613 64.6973-20.3613Z"/>
  </g>
  <g id="Heavy-S" transform="matrix(1 0 0 1 2589.4 696)">
   <path d="M24.3652 2.34375L70.2637 2.34375C79.541 2.34375 84.8145-2.97852 84.8145-12.207L84.8145-58.2031C84.8145-67.4316 79.541-72.7539 70.2637-72.7539L24.3652-72.7539C15.0879-72.7539 9.76562-67.4316 9.76562-58.2031L9.76562-12.207C9.76562-2.97852 15.0879 2.34375 24.3652 2.34375ZM52.1973-20.0195C50.1465-20.0195 48.4863-21.4844 48.4863-23.7793C48.4863-25.293 48.9746-26.5137 50.3418-28.125L57.1777-36.1328C58.9844-38.2324 60.4004-39.6484 60.4004-41.4551C60.4004-42.9199 59.1797-44.043 57.5195-44.043C56.1035-44.043 54.9805-43.1641 54.4922-41.6504C54.0039-40.2344 53.0273-39.209 51.1719-39.209C49.2188-39.209 47.9492-40.5762 47.9492-42.5781C47.9492-43.2617 48.0469-43.8477 48.2422-44.5312C49.3652-48.4375 53.2227-51.123 57.7637-51.123C63.623-51.123 67.2363-47.4121 67.2852-42.1387C67.334-38.623 65.6738-35.8887 62.6465-32.4219L58.5449-27.6367L58.5449-27.2949L64.502-27.2949C66.7969-27.2949 68.2129-25.9766 68.2129-23.7305C68.2129-21.3867 66.7969-20.0195 64.502-20.0195ZM38.6719-19.5312C36.1328-19.5312 34.8633-20.9961 34.8633-24.0234L34.8633-41.6016L34.6191-41.6016L32.8613-39.8438C31.8848-38.7695 31.1523-38.2324 29.834-38.2324C28.125-38.2324 26.709-39.7461 26.709-41.4551C26.709-42.9688 27.3438-44.043 28.8574-45.4102L32.7148-48.7793C34.668-50.6348 36.0352-51.0254 37.6465-51.0254C40.8691-51.0254 42.4805-49.1699 42.4805-45.9473L42.4805-24.0234C42.4805-20.9961 41.2109-19.5312 38.6719-19.5312Z"/>
  </g>
  <g id="Bold-S" transform="matrix(1 0 0 1 2293.35 696)">
   <path d="M23.6328 1.66016L69.6289 1.66016C78.6133 1.66016 83.4961-3.22266 83.4961-12.1094L83.4961-58.3008C83.4961-67.1875 78.6133-72.0703 69.6289-72.0703L23.6328-72.0703C14.6973-72.0703 9.76562-67.1875 9.76562-58.3008L9.76562-12.1094C9.76562-3.22266 14.6973 1.66016 23.6328 1.66016ZM50.6348-19.6777C48.7305-19.6777 47.3145-20.9961 47.3145-23.0469C47.3145-24.3164 47.7539-25.3906 48.877-26.6602L56.8848-36.0352C58.6426-38.1348 60.3516-39.8438 60.3516-41.9434C60.3516-43.8477 58.8867-45.2148 56.7871-45.2148C54.9805-45.2148 53.6621-44.1895 52.9297-42.2363C52.3926-40.8691 51.5137-39.9414 49.9023-39.9414C48.0957-39.9414 46.9238-41.2109 46.9238-43.0664C46.9238-43.7012 47.0215-44.2383 47.168-44.873C48.291-48.8281 52.2949-51.5625 56.8848-51.5625C62.8906-51.5625 66.6504-47.9004 66.6992-42.5293C66.748-38.8184 64.8438-36.0352 61.9141-32.6172L56.7383-26.5625L56.7383-26.2207L64.3066-26.2207C66.3086-26.2207 67.627-25.0488 67.627-22.998C67.627-20.9473 66.3086-19.6777 64.3066-19.6777ZM37.3047-19.1895C35.0586-19.1895 33.8379-20.5078 33.8379-23.0957L33.8379-42.8223L33.6426-42.8223L31.2012-40.6738C30.2246-39.6973 29.5898-39.3555 28.4668-39.3555C26.9043-39.3555 25.5371-40.7715 25.5371-42.3828C25.5371-43.7988 26.1719-44.7754 27.4414-45.8984L31.9336-49.4141C33.7891-51.0254 34.9609-51.4648 36.5234-51.4648C39.2578-51.4648 40.7715-49.7559 40.7715-47.0215L40.7715-23.0957C40.7715-20.5078 39.5508-19.1895 37.3047-19.1895Z"/>
  </g>
  <g id="Semibold-S" transform="matrix(1 0 0 1 1997.1 696)">
   <path d="M23.0957 1.17188L69.1895 1.17188C77.9297 1.17188 82.5684-3.36914 82.5684-12.0117L82.5684-58.3984C82.5684-67.041 77.9297-71.582 69.1895-71.582L23.0957-71.582C14.4043-71.582 9.76562-67.041 9.76562-58.3984L9.76562-12.0117C9.76562-3.36914 14.4043 1.17188 23.0957 1.17188ZM49.5605-19.4336C47.8027-19.4336 46.5332-20.6543 46.5332-22.5098C46.5332-23.6328 46.875-24.5605 47.9004-25.6836L56.6406-35.9863C58.3984-38.0859 60.3027-39.9902 60.3027-42.2363C60.3027-44.4336 58.6914-45.9961 56.2988-45.9961C54.1992-45.9961 52.7344-44.9219 51.8555-42.627C51.2695-41.3086 50.4883-40.4785 48.9746-40.4785C47.3145-40.4785 46.2402-41.6016 46.2402-43.4082C46.2402-43.9941 46.3379-44.5312 46.4355-45.0684C47.5586-49.0723 51.6113-51.9043 56.25-51.9043C62.4023-51.9043 66.2598-48.291 66.3086-42.8223C66.3086-38.916 64.2578-36.084 61.377-32.7637L55.4688-25.8301L55.4688-25.4883L64.209-25.4883C65.918-25.4883 67.1875-24.4141 67.1875-22.5098C67.1875-20.6055 65.918-19.4336 64.209-19.4336ZM36.3281-18.9453C34.3262-18.9453 33.1543-20.166 33.1543-22.4609L33.1543-43.6523L32.959-43.6523L30.0781-41.2598C29.0527-40.3809 28.5156-40.1367 27.4902-40.1367C26.0742-40.1367 24.7559-41.4551 24.7559-43.0176C24.7559-44.3359 25.3418-45.2637 26.5137-46.2402L31.3965-49.9023C33.1543-51.3184 34.2285-51.709 35.7422-51.709C38.1836-51.709 39.5996-50.1953 39.5996-47.7539L39.5996-22.4609C39.5996-20.166 38.3789-18.9453 36.3281-18.9453Z"/>
  </g>
  <g id="Medium-S" transform="matrix(1 0 0 1 1700.75 696)">
   <path d="M22.7051 0.830078L68.8965 0.830078C77.4414 0.830078 81.8359-3.51562 81.8359-11.9629L81.8359-58.4473C81.8359-66.8945 77.4414-71.2402 68.8965-71.2402L22.7051-71.2402C14.209-71.2402 9.76562-66.8945 9.76562-58.4473L9.76562-11.9629C9.76562-3.51562 14.209 0.830078 22.7051 0.830078ZM48.7305-19.2383C47.0703-19.2383 45.8984-20.3613 45.8984-22.1191C45.8984-23.1445 46.2402-23.9746 47.1191-24.9512L56.4941-35.9375C58.2031-38.0371 60.3027-40.0879 60.3027-42.4805C60.3027-44.9219 58.5449-46.582 55.9082-46.582C53.6133-46.582 52.0508-45.459 51.0254-42.9199C50.4395-41.6504 49.707-40.8203 48.3398-40.8203C46.6797-40.8203 45.7031-41.9434 45.7031-43.6523C45.7031-44.1895 45.752-44.7266 45.8984-45.2637C46.9727-49.2676 51.123-52.1484 55.7617-52.1484C62.0117-52.1484 65.9668-48.5352 65.9668-43.0176C66.0156-39.0137 63.8672-36.1816 60.9863-32.8613L54.4922-25.2441L54.4922-24.9512L64.1113-24.9512C65.6738-24.9512 66.8457-23.9258 66.8457-22.1191C66.8457-20.3613 65.6738-19.2383 64.1113-19.2383ZM35.6445-18.75C33.7891-18.75 32.6172-19.9219 32.6172-22.0215L32.6172-44.2871L32.4219-44.2871L29.248-41.748C28.1738-40.8691 27.6855-40.7227 26.8066-40.7227C25.4395-40.7227 24.1211-41.9922 24.1211-43.5059C24.1211-44.7754 24.707-45.6055 25.7812-46.4844L31.0059-50.2441C32.666-51.5137 33.6914-51.9531 35.1562-51.9531C37.3535-51.9531 38.6719-50.4883 38.6719-48.291L38.6719-22.0215C38.6719-19.9219 37.5-18.75 35.6445-18.75Z"/>
  </g>
  <g id="Regular-S" transform="matrix(1 0 0 1 1404.51 696)">
   <path d="M22.2168 0.390625L68.457 0.390625C76.8066 0.390625 80.9082-3.71094 80.9082-11.9141L80.9082-58.4961C80.9082-66.6992 76.8066-70.8008 68.457-70.8008L22.2168-70.8008C13.916-70.8008 9.76562-66.6992 9.76562-58.4961L9.76562-11.9141C9.76562-3.71094 13.916 0.390625 22.2168 0.390625ZM47.7051-18.9941C46.1426-18.9941 45.1172-20.0195 45.1172-21.582C45.1172-22.4609 45.4102-23.1934 46.0938-23.9746L56.25-35.8887C57.959-37.9883 60.2539-40.1855 60.2539-42.7734C60.2539-45.5078 58.3496-47.3633 55.3711-47.3633C52.832-47.3633 51.123-46.1426 49.9512-43.3594C49.3652-42.041 48.6816-41.3574 47.4609-41.3574C45.9473-41.3574 44.9707-42.334 44.9707-43.9941C44.9707-44.4824 45.0684-44.9707 45.166-45.459C46.2891-49.4629 50.4395-52.4414 55.1758-52.4414C61.5234-52.4414 65.5762-48.9258 65.5762-43.3105C65.5762-39.1602 63.2812-36.2305 60.4492-33.0078L53.2227-24.5117L53.2227-24.2188L63.9648-24.2188C65.332-24.2188 66.4062-23.291 66.4062-21.6309C66.4062-20.0195 65.332-18.9941 63.9648-18.9941ZM34.668-18.5059C33.0566-18.5059 31.9336-19.5801 31.9336-21.3867L31.9336-45.1172L31.7383-45.1172L28.125-42.334C27.0508-41.5039 26.6113-41.5039 25.8789-41.5039C24.6094-41.5039 23.3398-42.6758 23.3398-44.1895C23.3398-45.3613 23.877-46.0938 24.8047-46.8262L30.4688-50.6836C32.0312-51.8066 32.959-52.1973 34.4238-52.1973C36.2305-52.1973 37.5-50.9277 37.5-49.0234L37.5-21.3867C37.5-19.5801 36.377-18.5059 34.668-18.5059Z"/>
  </g>
  <g id="Light-S" transform="matrix(1 0 0 1 1108.46 696)">
   <path d="M21.3867-0.292969L67.9688-0.292969C75.7324-0.292969 79.5898-4.15039 79.5898-11.7676L79.5898-58.5938C79.5898-66.2109 75.7324-70.1172 67.9688-70.1172L21.3867-70.1172C13.6719-70.1172 9.76562-66.2598 9.76562-58.5938L9.76562-11.7676C9.76562-4.15039 13.6719-0.292969 21.3867-0.292969ZM46.7285-19.2871C45.4102-19.2871 44.5801-20.1172 44.5801-21.3867C44.5801-22.1191 44.8242-22.7051 45.3613-23.3398L56.0059-35.7422C57.959-38.1348 59.9121-40.2832 59.9121-42.8223C59.9121-45.8984 57.7637-47.9492 54.3457-47.9492C51.2695-47.9492 49.1211-46.2891 48.2422-43.2129C47.8027-42.1387 47.2656-41.5527 46.1914-41.5527C44.9707-41.5527 44.1895-42.3828 44.1895-43.7012C44.1895-44.1406 44.2871-44.5312 44.3359-45.0195C45.3125-49.0723 49.4629-52.0508 54.1992-52.0508C60.2539-52.0508 64.209-48.584 64.209-43.1641C64.209-39.4531 62.207-36.6699 59.1309-33.1543L51.0742-23.6816L51.0742-23.4863L63.0859-23.4863C64.209-23.4863 65.0879-22.7051 65.0879-21.3867C65.0879-20.1172 64.209-19.2871 63.0859-19.2871ZM33.9844-18.8477C32.7148-18.8477 31.7871-19.7266 31.7871-21.1426L31.7871-46.1426L31.5918-46.1426L26.9043-42.7734C26.123-42.2363 25.7812-42.1875 25.1953-42.1875C24.1699-42.1875 23.1934-43.1152 23.1934-44.3359C23.1934-45.2148 23.584-45.8496 24.3652-46.3867L30.6641-50.6348C31.8848-51.4648 32.6172-51.8066 33.7402-51.8066C35.2051-51.8066 36.2305-50.7812 36.2305-49.2676L36.2305-21.1426C36.2305-19.7266 35.3516-18.8477 33.9844-18.8477Z"/>
  </g>
  <g id="Thin-S" transform="matrix(1 0 0 1 812.599 696)">
   <path d="M20.3125-1.12305L67.334-1.12305C74.2676-1.12305 77.8809-4.78516 77.8809-11.6211L77.8809-58.6914C77.8809-65.5762 74.2676-69.2383 67.334-69.2383L20.3125-69.2383C13.3789-69.2383 9.76562-65.625 9.76562-58.6914L9.76562-11.6211C9.76562-4.6875 13.3789-1.12305 20.3125-1.12305ZM45.459-19.6289C44.5312-19.6289 43.8965-20.2148 43.8965-21.1426C43.8965-21.7285 44.043-22.0703 44.4336-22.5098L55.6641-35.5469C58.0078-38.2812 59.4238-40.3809 59.4238-42.9199C59.4238-46.3867 56.9336-48.6816 52.9785-48.6816C49.2188-48.6816 46.4844-46.4355 45.9961-43.0664C45.8008-42.2363 45.3613-41.7969 44.5312-41.7969C43.7012-41.7969 43.1641-42.3828 43.1641-43.2617C43.1641-43.6523 43.2129-43.9941 43.2617-44.3848C44.043-48.4863 48.1445-51.4648 52.9297-51.4648C58.5938-51.4648 62.4023-48.1934 62.4023-43.0176C62.4023-39.7949 60.7422-37.1582 57.4219-33.3008L48.1934-22.6074L48.1934-22.4609L61.9141-22.4609C62.7441-22.4609 63.2812-21.875 63.2812-21.0449C63.2812-20.2148 62.7441-19.6289 61.9141-19.6289ZM33.0566-19.3359C32.2266-19.3359 31.6406-19.9219 31.6406-20.8008L31.6406-47.5098L31.4453-47.5098L25.3418-43.4082C24.9023-43.1152 24.707-43.1152 24.3652-43.1152C23.6328-43.1152 22.998-43.75 22.998-44.4824C22.998-45.0684 23.2422-45.5078 23.7793-45.8496L30.957-50.5859C31.6895-51.0742 32.1289-51.2207 32.8613-51.2207C33.8379-51.2207 34.5215-50.5859 34.5215-49.6094L34.5215-20.8008C34.5215-19.9219 33.9844-19.3359 33.0566-19.3359Z"/>
  </g>
  <g id="Ultralight-S" transform="matrix(1 0 0 1 516.352 696)">
   <path d="M19.7754-1.5625L66.9922-1.5625C73.5352-1.5625 76.9531-5.12695 76.9531-11.5234L76.9531-58.7891C76.9531-65.2344 73.5352-68.75 66.9922-68.75L19.7754-68.75C13.2324-68.75 9.76562-65.2832 9.76562-58.7891L9.76562-11.5234C9.76562-5.0293 13.2324-1.5625 19.7754-1.5625ZM44.7754-19.8242C44.043-19.8242 43.5547-20.2637 43.5547-21.0449C43.5547-21.4844 43.6523-21.7773 43.8965-22.0703L55.4688-35.4492C58.0078-38.4277 59.1797-40.4785 59.1797-42.9688C59.1797-46.6797 56.543-49.0723 52.2461-49.0723C48.1445-49.0723 45.1172-46.5332 44.8242-42.9688C44.7754-42.334 44.4336-41.8945 43.7012-41.8945C43.0176-41.8945 42.627-42.4316 42.627-43.0664C42.627-43.4082 42.6758-43.6523 42.7246-44.043C43.4082-48.1934 47.4609-51.1719 52.2461-51.1719C57.7637-51.1719 61.4258-47.9492 61.4258-42.9199C61.4258-39.9902 60.0098-37.4512 56.4941-33.4473L46.7285-22.0703L46.7285-21.9238L61.3281-21.9238C62.0117-21.9238 62.3535-21.4844 62.3535-20.8984C62.3535-20.3125 62.0117-19.8242 61.3281-19.8242ZM32.5684-19.5801C31.9824-19.5801 31.4941-20.0195 31.4941-20.6543L31.4941-48.2422L31.3477-48.2422L24.5117-43.75C24.2676-43.6035 24.1699-43.6035 23.9258-43.6035C23.3398-43.6035 22.9004-44.0918 22.9004-44.6289C22.9004-44.9707 23.0469-45.3125 23.4375-45.5566L31.1035-50.5371C31.5918-50.8301 31.8848-50.9277 32.4219-50.9277C33.1055-50.9277 33.6426-50.4883 33.6426-49.7559L33.6426-20.6543C33.6426-20.0195 33.252-19.5801 32.5684-19.5801Z"/>
  </g>
 </g>
</svg>
