<?xml version="1.0" encoding="UTF-8"?>
<!--Generator: Apple Native CoreSVG 149-->
<!DOCTYPE svg
PUBLIC "-//W3C//DTD SVG 1.1//EN"
       "http://www.w3.org/Graphics/SVG/1.1/DTD/svg11.dtd">
<svg version="1.1" xmlns="http://www.w3.org/2000/svg" xmlns:xlink="http://www.w3.org/1999/xlink" width="3300" height="2200">
 <!--glyph: "uni10055B.medium", point size: 100.000000, font version: "Version 16.0d18e1", template writer version: "8"-->
 <g id="Notes">
  <rect height="2200" id="artboard" style="fill:white;opacity:1" width="3300" x="0" y="0"/>
  <line id="" style="fill:none;stroke:black;opacity:1;stroke-width:0.5;" x1="263" x2="3036" y1="292" y2="292"/>
  <text style="stroke:none;fill:black;font-family:-apple-system,&quot;SF Pro Display&quot;,&quot;SF Pro Text&quot;,Helvetica,sans-serif;font-weight:bold;" transform="matrix(1 0 0 1 263 322)">Weight/Scale Variations</text>
  <text style="stroke:none;fill:black;font-family:-apple-system,&quot;SF Pro Display&quot;,&quot;SF Pro Text&quot;,Helvetica,sans-serif;text-anchor:middle;" transform="matrix(1 0 0 1 559.711 322)">Ultralight</text>
  <text style="stroke:none;fill:black;font-family:-apple-system,&quot;SF Pro Display&quot;,&quot;SF Pro Text&quot;,Helvetica,sans-serif;text-anchor:middle;" transform="matrix(1 0 0 1 856.422 322)">Thin</text>
  <text style="stroke:none;fill:black;font-family:-apple-system,&quot;SF Pro Display&quot;,&quot;SF Pro Text&quot;,Helvetica,sans-serif;text-anchor:middle;" transform="matrix(1 0 0 1 1153.13 322)">Light</text>
  <text style="stroke:none;fill:black;font-family:-apple-system,&quot;SF Pro Display&quot;,&quot;SF Pro Text&quot;,Helvetica,sans-serif;text-anchor:middle;" transform="matrix(1 0 0 1 1449.84 322)">Regular</text>
  <text style="stroke:none;fill:black;font-family:-apple-system,&quot;SF Pro Display&quot;,&quot;SF Pro Text&quot;,Helvetica,sans-serif;text-anchor:middle;" transform="matrix(1 0 0 1 1746.56 322)">Medium</text>
  <text style="stroke:none;fill:black;font-family:-apple-system,&quot;SF Pro Display&quot;,&quot;SF Pro Text&quot;,Helvetica,sans-serif;text-anchor:middle;" transform="matrix(1 0 0 1 2043.27 322)">Semibold</text>
  <text style="stroke:none;fill:black;font-family:-apple-system,&quot;SF Pro Display&quot;,&quot;SF Pro Text&quot;,Helvetica,sans-serif;text-anchor:middle;" transform="matrix(1 0 0 1 2339.98 322)">Bold</text>
  <text style="stroke:none;fill:black;font-family:-apple-system,&quot;SF Pro Display&quot;,&quot;SF Pro Text&quot;,Helvetica,sans-serif;text-anchor:middle;" transform="matrix(1 0 0 1 2636.69 322)">Heavy</text>
  <text style="stroke:none;fill:black;font-family:-apple-system,&quot;SF Pro Display&quot;,&quot;SF Pro Text&quot;,Helvetica,sans-serif;text-anchor:middle;" transform="matrix(1 0 0 1 2933.4 322)">Black</text>
  <line id="" style="fill:none;stroke:black;opacity:1;stroke-width:0.5;" x1="263" x2="3036" y1="1903" y2="1903"/>
  <g id="" transform="matrix(1 0 0 1 263 1933)">
   <path d="M9.24805 0.830078C13.5547 0.830078 17.1387-2.74414 17.1387-7.05078C17.1387-11.3574 13.5449-14.9316 9.23828-14.9316C4.94141-14.9316 1.36719-11.3574 1.36719-7.05078C1.36719-2.74414 4.95117 0.830078 9.24805 0.830078ZM9.24805-0.654297C5.70312-0.654297 2.87109-3.49609 2.87109-7.05078C2.87109-10.6055 5.69336-13.4473 9.23828-13.4473C12.793-13.4473 15.6348-10.6055 15.6445-7.05078C15.6543-3.49609 12.8027-0.654297 9.24805-0.654297ZM6.39648-6.31836L8.50586-6.31836L8.50586-4.19922C8.50586-3.75977 8.79883-3.45703 9.22852-3.45703C9.67773-3.45703 9.9707-3.75977 9.9707-4.19922L9.9707-6.31836L12.0996-6.31836C12.5391-6.31836 12.8418-6.61133 12.8418-7.04102C12.8418-7.48047 12.5391-7.7832 12.0996-7.7832L9.9707-7.7832L9.9707-9.89258C9.9707-10.3418 9.67773-10.6445 9.22852-10.6445C8.79883-10.6445 8.50586-10.3418 8.50586-9.89258L8.50586-7.7832L6.39648-7.7832C5.94727-7.7832 5.64453-7.48047 5.64453-7.04102C5.64453-6.61133 5.94727-6.31836 6.39648-6.31836Z"/>
  </g>
  <g id="" transform="matrix(1 0 0 1 281.506 1933)">
   <path d="M11.709 2.91016C17.1582 2.91016 21.6699-1.61133 21.6699-7.05078C21.6699-12.5 17.1484-17.0117 11.6992-17.0117C6.25977-17.0117 1.74805-12.5 1.74805-7.05078C1.74805-1.61133 6.26953 2.91016 11.709 2.91016ZM11.709 1.25C7.09961 1.25 3.41797-2.44141 3.41797-7.05078C3.41797-11.6602 7.08984-15.3516 11.6992-15.3516C16.3086-15.3516 20-11.6602 20.0098-7.05078C20.0195-2.44141 16.3184 1.25 11.709 1.25ZM7.98828-6.23047L10.8789-6.23047L10.8789-3.32031C10.8789-2.83203 11.2109-2.5 11.6895-2.5C12.1777-2.5 12.5195-2.83203 12.5195-3.32031L12.5195-6.23047L15.4297-6.23047C15.918-6.23047 16.25-6.5625 16.25-7.04102C16.25-7.5293 15.918-7.87109 15.4297-7.87109L12.5195-7.87109L12.5195-10.7617C12.5195-11.2695 12.1777-11.6016 11.6895-11.6016C11.2109-11.6016 10.8789-11.2598 10.8789-10.7617L10.8789-7.87109L7.98828-7.87109C7.48047-7.87109 7.14844-7.5293 7.14844-7.04102C7.14844-6.5625 7.49023-6.23047 7.98828-6.23047Z"/>
  </g>
  <g id="" transform="matrix(1 0 0 1 304.924 1933)">
   <path d="M14.9707 5.66406C21.9336 5.66406 27.6953-0.0976562 27.6953-7.05078C27.6953-14.0137 21.9238-19.7754 14.9609-19.7754C8.00781-19.7754 2.25586-14.0137 2.25586-7.05078C2.25586-0.0976562 8.01758 5.66406 14.9707 5.66406ZM14.9707 3.84766C8.93555 3.84766 4.08203-1.01562 4.08203-7.05078C4.08203-13.0957 8.92578-17.9492 14.9609-17.9492C21.0059-17.9492 25.8594-13.0957 25.8691-7.05078C25.8789-1.01562 21.0156 3.84766 14.9707 3.84766ZM10.0586-6.14258L14.0625-6.14258L14.0625-2.12891C14.0625-1.5918 14.4336-1.2207 14.9512-1.2207C15.4883-1.2207 15.8594-1.5918 15.8594-2.12891L15.8594-6.14258L19.8828-6.14258C20.4102-6.14258 20.791-6.51367 20.791-7.03125C20.791-7.56836 20.4199-7.94922 19.8828-7.94922L15.8594-7.94922L15.8594-11.9531C15.8594-12.5098 15.4883-12.8809 14.9512-12.8809C14.4336-12.8809 14.0625-12.5 14.0625-11.9531L14.0625-7.94922L10.0586-7.94922C9.50195-7.94922 9.13086-7.56836 9.13086-7.03125C9.13086-6.51367 9.51172-6.14258 10.0586-6.14258Z"/>
  </g>
  <text style="stroke:none;fill:black;font-family:-apple-system,&quot;SF Pro Display&quot;,&quot;SF Pro Text&quot;,Helvetica,sans-serif;font-weight:bold;" transform="matrix(1 0 0 1 263 1953)">Design Variations</text>
  <text style="stroke:none;fill:black;font-family:-apple-system,&quot;SF Pro Display&quot;,&quot;SF Pro Text&quot;,Helvetica,sans-serif;" transform="matrix(1 0 0 1 263 1971)">Symbols are supported in up to nine weights and three scales.</text>
  <text style="stroke:none;fill:black;font-family:-apple-system,&quot;SF Pro Display&quot;,&quot;SF Pro Text&quot;,Helvetica,sans-serif;" transform="matrix(1 0 0 1 263 1989)">For optimal layout with text and other symbols, vertically align</text>
  <text style="stroke:none;fill:black;font-family:-apple-system,&quot;SF Pro Display&quot;,&quot;SF Pro Text&quot;,Helvetica,sans-serif;" transform="matrix(1 0 0 1 263 2007)">symbols with the adjacent text.</text>
  <line id="" style="fill:none;stroke:#00AEEF;stroke-width:0.5;opacity:1.0;" x1="776" x2="776" y1="1919" y2="1933"/>
  <g id="" transform="matrix(1 0 0 1 776 1933)">
   <path d="M3.31055 0.126953C3.82812 0.126953 4.08203-0.0683594 4.26758-0.605469L5.52734-4.0625L11.2891-4.0625L12.5488-0.605469C12.7344-0.0683594 12.9883 0.126953 13.4961 0.126953C14.0137 0.126953 14.3457-0.185547 14.3457-0.673828C14.3457-0.839844 14.3164-0.986328 14.2383-1.20117L9.6582-13.3887C9.43359-13.9941 9.0332-14.2871 8.4082-14.2871C7.80273-14.2871 7.39258-13.9941 7.17773-13.3984L2.59766-1.19141C2.51953-0.976562 2.49023-0.830078 2.49023-0.664062C2.49023-0.175781 2.80273 0.126953 3.31055 0.126953ZM6.00586-5.53711L8.37891-12.1094L8.42773-12.1094L10.8008-5.53711Z"/>
  </g>
  <line id="" style="fill:none;stroke:#00AEEF;stroke-width:0.5;opacity:1.0;" x1="792.836" x2="792.836" y1="1919" y2="1933"/>
  <text style="stroke:none;fill:black;font-family:-apple-system,&quot;SF Pro Display&quot;,&quot;SF Pro Text&quot;,Helvetica,sans-serif;font-weight:bold;" transform="matrix(1 0 0 1 776 1953)">Margins</text>
  <text style="stroke:none;fill:black;font-family:-apple-system,&quot;SF Pro Display&quot;,&quot;SF Pro Text&quot;,Helvetica,sans-serif;" transform="matrix(1 0 0 1 776 1971)">Leading and trailing margins on the left and right side of each symbol</text>
  <text style="stroke:none;fill:black;font-family:-apple-system,&quot;SF Pro Display&quot;,&quot;SF Pro Text&quot;,Helvetica,sans-serif;" transform="matrix(1 0 0 1 776 1989)">can be adjusted by modifying the x-location of the margin guidelines.</text>
  <text style="stroke:none;fill:black;font-family:-apple-system,&quot;SF Pro Display&quot;,&quot;SF Pro Text&quot;,Helvetica,sans-serif;" transform="matrix(1 0 0 1 776 2007)">Modifications are automatically applied proportionally to all</text>
  <text style="stroke:none;fill:black;font-family:-apple-system,&quot;SF Pro Display&quot;,&quot;SF Pro Text&quot;,Helvetica,sans-serif;" transform="matrix(1 0 0 1 776 2025)">scales and weights.</text>
  <g id="" transform="matrix(1 0 0 1 1289 1933)">
   <path d="M2.8418 1.86523L4.54102 3.57422C5.40039 4.44336 6.38672 4.38477 7.31445 3.35938L17.4902-7.85156C17.7539-7.76367 18.0273-7.7832 18.3398-7.8418L19.4043-8.03711L20.0684-7.36328L20.0293-6.80664C19.9902-6.30859 20.1172-5.92773 20.6055-5.44922L21.3672-4.70703C21.8457-4.22852 22.4609-4.19922 22.9297-4.66797L25.8398-7.58789C26.3086-8.05664 26.2891-8.65234 25.8105-9.13086L25.0391-9.89258C24.5605-10.3711 24.1895-10.5273 23.7109-10.4883L23.1348-10.4395L22.4902-11.0742L22.7344-12.1973C22.8613-12.7637 22.7051-13.2031 22.1191-13.7891L19.9219-15.9766C16.582-19.2969 12.1484-19.2188 9.25781-16.3281C8.83789-15.918 8.80859-15.3418 9.04297-14.9512C9.27734-14.5898 9.73633-14.3555 10.3809-14.5215C11.8457-14.8633 13.3691-14.9219 14.7949-13.9844L14.209-12.5293C14.0137-12.0508 13.9844-11.6504 14.1113-11.2891L3.04688-0.898438C2.06055 0.0195312 1.98242 0.996094 2.8418 1.86523ZM10.752-15.957C13.1836-17.7344 16.4746-17.4316 18.7012-15.2051L21.1328-12.793C21.3672-12.5586 21.4062-12.373 21.3379-12.0312L21.0156-10.5469L22.5195-9.0625L23.5059-9.12109C23.7598-9.13086 23.8379-9.11133 24.0332-8.91602L24.6094-8.33984L22.168-5.89844L21.5918-6.47461C21.3965-6.66992 21.3672-6.74805 21.377-7.01172L21.4453-7.98828L19.9512-9.47266L18.4277-9.21875C18.1055-9.15039 17.959-9.17969 17.7148-9.41406L15.7129-11.416C15.459-11.6504 15.4297-11.8164 15.5859-12.1875L16.4648-14.2773C14.9023-15.7324 12.8711-16.3574 10.8398-15.7617C10.6836-15.7227 10.625-15.8496 10.752-15.957ZM5.27344 2.30469L4.10156 1.14258C3.63281 0.683594 3.74023 0.341797 4.14062-0.0195312L14.9512-10.1953L16.416-8.71094L6.42578 2.27539C6.07422 2.67578 5.74219 2.77344 5.27344 2.30469Z"/>
  </g>
  <text style="stroke:none;fill:black;font-family:-apple-system,&quot;SF Pro Display&quot;,&quot;SF Pro Text&quot;,Helvetica,sans-serif;font-weight:bold;" transform="matrix(1 0 0 1 1289 1953)">Exporting</text>
  <text style="stroke:none;fill:black;font-family:-apple-system,&quot;SF Pro Display&quot;,&quot;SF Pro Text&quot;,Helvetica,sans-serif;" transform="matrix(1 0 0 1 1289 1971)">Symbols should be outlined when exporting to ensure the</text>
  <text style="stroke:none;fill:black;font-family:-apple-system,&quot;SF Pro Display&quot;,&quot;SF Pro Text&quot;,Helvetica,sans-serif;" transform="matrix(1 0 0 1 1289 1989)">design is preserved when submitting to Xcode.</text>
  <text id="template-version" style="stroke:none;fill:black;font-family:-apple-system,&quot;SF Pro Display&quot;,&quot;SF Pro Text&quot;,Helvetica,sans-serif;text-anchor:end;" transform="matrix(1 0 0 1 3036 1933)">Template v.2.0</text>
  <text style="stroke:none;fill:black;font-family:-apple-system,&quot;SF Pro Display&quot;,&quot;SF Pro Text&quot;,Helvetica,sans-serif;text-anchor:end;" transform="matrix(1 0 0 1 3036 1951)">Requires Xcode 12 or greater</text>
  <text style="stroke:none;fill:black;font-family:-apple-system,&quot;SF Pro Display&quot;,&quot;SF Pro Text&quot;,Helvetica,sans-serif;text-anchor:end;" transform="matrix(1 0 0 1 3036 1969)">Generated from 19.square.fill</text>
  <text style="stroke:none;fill:black;font-family:-apple-system,&quot;SF Pro Display&quot;,&quot;SF Pro Text&quot;,Helvetica,sans-serif;text-anchor:end;" transform="matrix(1 0 0 1 3036 1987)">Typeset at 100 points</text>
  <text style="stroke:none;fill:black;font-family:-apple-system,&quot;SF Pro Display&quot;,&quot;SF Pro Text&quot;,Helvetica,sans-serif;" transform="matrix(1 0 0 1 263 726)">Small</text>
  <text style="stroke:none;fill:black;font-family:-apple-system,&quot;SF Pro Display&quot;,&quot;SF Pro Text&quot;,Helvetica,sans-serif;" transform="matrix(1 0 0 1 263 1156)">Medium</text>
  <text style="stroke:none;fill:black;font-family:-apple-system,&quot;SF Pro Display&quot;,&quot;SF Pro Text&quot;,Helvetica,sans-serif;" transform="matrix(1 0 0 1 263 1586)">Large</text>
 </g>
 <g id="Guides">
  <g id="H-reference" style="fill:#27AAE1;stroke:none;" transform="matrix(1 0 0 1 339 696)">
   <path d="M0.976562 0L3.66211 0L12.9883-24.4629L45.752-24.4629L55.127 0L57.7637 0L30.6152-70.459L28.125-70.459ZM29.3457-67.1387L29.4434-67.1387L44.873-26.709L13.8672-26.709Z"/>
  </g>
  <line id="Baseline-S" style="fill:none;stroke:#27AAE1;opacity:1;stroke-width:0.5;" x1="263" x2="3036" y1="696" y2="696"/>
  <line id="Capline-S" style="fill:none;stroke:#27AAE1;opacity:1;stroke-width:0.5;" x1="263" x2="3036" y1="625.541" y2="625.541"/>
  <g id="H-reference" style="fill:#27AAE1;stroke:none;" transform="matrix(1 0 0 1 339 1126)">
   <path d="M0.976562 0L3.66211 0L12.9883-24.4629L45.752-24.4629L55.127 0L57.7637 0L30.6152-70.459L28.125-70.459ZM29.3457-67.1387L29.4434-67.1387L44.873-26.709L13.8672-26.709Z"/>
  </g>
  <line id="Baseline-M" style="fill:none;stroke:#27AAE1;opacity:1;stroke-width:0.5;" x1="263" x2="3036" y1="1126" y2="1126"/>
  <line id="Capline-M" style="fill:none;stroke:#27AAE1;opacity:1;stroke-width:0.5;" x1="263" x2="3036" y1="1055.54" y2="1055.54"/>
  <g id="H-reference" style="fill:#27AAE1;stroke:none;" transform="matrix(1 0 0 1 339 1556)">
   <path d="M0.976562 0L3.66211 0L12.9883-24.4629L45.752-24.4629L55.127 0L57.7637 0L30.6152-70.459L28.125-70.459ZM29.3457-67.1387L29.4434-67.1387L44.873-26.709L13.8672-26.709Z"/>
  </g>
  <line id="Baseline-L" style="fill:none;stroke:#27AAE1;opacity:1;stroke-width:0.5;" x1="263" x2="3036" y1="1556" y2="1556"/>
  <line id="Capline-L" style="fill:none;stroke:#27AAE1;opacity:1;stroke-width:0.5;" x1="263" x2="3036" y1="1485.54" y2="1485.54"/>
  <line id="left-margin" style="fill:none;stroke:#00AEEF;stroke-width:0.5;opacity:1.0;" x1="1392.45" x2="1392.45" y1="1030.79" y2="1150.12"/>
  <line id="right-margin" style="fill:none;stroke:#00AEEF;stroke-width:0.5;opacity:1.0;" x1="1507.24" x2="1507.24" y1="1030.79" y2="1150.12"/>
 </g>
 <g id="Symbols">
  <g id="Black-L" transform="matrix(1 0 0 1 2855.62 1556)">
   <path d="M39.9902 26.5137L115.576 26.5137C130.811 26.5137 139.502 17.8711 139.502 2.68555L139.502-73.0957C139.502-88.2812 130.811-96.875 115.576-96.875L39.9902-96.875C24.7559-96.875 16.0645-88.2812 16.0645-73.0957L16.0645 2.68555C16.0645 17.8711 24.7559 26.5137 39.9902 26.5137ZM94.2383-8.98438C86.2305-8.98438 81.543-12.6465 80.127-16.0645C79.4922-17.334 79.1992-18.5059 79.1992-19.6289C79.1992-22.5586 81.2012-24.8047 84.375-24.8047C85.9863-24.8047 87.6953-24.0723 89.209-22.3145C90.4785-20.8008 91.9434-19.9219 94.0918-19.9219C99.707-19.9219 101.904-27.0508 101.953-34.2285L101.611-34.2285C100.293-30.1758 96.8262-27.5879 91.748-27.5879C83.4961-27.5879 77.6855-33.7891 77.6855-43.5059C77.6855-54.7852 84.668-61.5234 94.9707-61.5234C107.568-61.5234 113.379-52.002 113.379-36.7676C113.379-19.1406 106.738-8.98438 94.2383-8.98438ZM61.6211-9.22852C57.4219-9.22852 55.3223-11.7188 55.3223-16.5527L55.3223-45.9473L55.0293-45.9473L52.0508-43.0176C50.4395-41.2109 49.2676-40.4297 47.0703-40.4297C44.2871-40.4297 41.9922-42.8711 41.9922-45.7031C41.9922-48.1934 43.0176-49.9512 45.4102-52.1484L51.9043-57.7148C55.127-60.6934 57.3242-61.4258 60.0586-61.4258C65.2344-61.4258 67.8711-58.3496 67.8711-53.125L67.8711-16.5527C67.8711-11.7188 65.7715-9.22852 61.6211-9.22852ZM95.3125-37.5488C98.6816-37.5488 100.977-40.2832 100.977-44.1895C100.977-48.291 98.6328-51.0254 95.3125-51.0254C92.041-51.0254 89.6973-48.291 89.6973-44.2383C89.6973-40.2832 92.0898-37.5488 95.3125-37.5488Z"/>
  </g>
  <g id="Heavy-L" transform="matrix(1 0 0 1 2559.93 1556)">
   <path d="M38.8184 25.4883L114.697 25.4883C129.346 25.4883 137.451 17.4316 137.451 2.88086L137.451-73.2422C137.451-87.793 129.346-95.8496 114.697-95.8496L38.8184-95.8496C24.2188-95.8496 16.0645-87.793 16.0645-73.2422L16.0645 2.88086C16.0645 17.4316 24.2188 25.4883 38.8184 25.4883ZM93.0664-8.69141C85.0098-8.69141 80.127-12.5977 78.7598-16.0156C78.1738-17.1875 77.9297-18.3105 77.9297-19.3359C77.9297-22.0703 79.7363-24.0723 82.5684-24.0723C84.1797-24.0723 85.7422-23.3398 87.1094-21.6309C88.4277-19.7266 90.332-18.6035 92.9199-18.6035C99.1211-18.6035 102.002-25.8789 102.002-34.6191L101.66-34.6191C100.195-30.3711 96.5332-27.5391 90.918-27.5391C82.5684-27.5391 76.3672-33.7891 76.3672-43.75C76.3672-54.9316 83.3984-61.8652 93.7988-61.8652C106.25-61.8652 112.354-52.4902 112.354-36.9141C112.354-18.8477 105.615-8.69141 93.0664-8.69141ZM59.8145-9.0332C56.1035-9.0332 54.1504-11.2305 54.1504-15.4785L54.1504-47.7051L53.8574-47.7051L49.707-44.1406C48.1445-42.5293 47.1191-41.9434 45.2637-41.9434C42.7246-41.9434 40.625-44.1895 40.625-46.7773C40.625-49.0234 41.5527-50.5859 43.7012-52.4414L51.123-58.3984C54.0527-60.9863 55.957-61.6699 58.4961-61.6699C62.9883-61.6699 65.3809-58.9355 65.3809-54.3945L65.3809-15.4785C65.3809-11.2305 63.4766-9.0332 59.8145-9.0332ZM94.1406-36.5234C98.2422-36.5234 101.074-39.7461 101.074-44.3359C101.074-49.0723 98.1934-52.3438 94.1406-52.3438C90.0879-52.3438 87.2559-49.1211 87.2559-44.3848C87.2559-39.7461 90.1367-36.5234 94.1406-36.5234Z"/>
  </g>
  <g id="Bold-L" transform="matrix(1 0 0 1 2264.37 1556)">
   <path d="M37.5 24.3652L113.721 24.3652C127.637 24.3652 135.156 16.8945 135.156 3.07617L135.156-73.3887C135.156-87.207 127.637-94.7266 113.721-94.7266L37.5-94.7266C23.6328-94.7266 16.0645-87.2559 16.0645-73.3887L16.0645 3.07617C16.0645 16.8945 23.6328 24.3652 37.5 24.3652ZM91.748-8.30078C83.5938-8.30078 78.5645-12.5488 77.1973-16.0156C76.7578-17.041 76.4648-18.1152 76.4648-19.043C76.4648-21.4844 78.0762-23.291 80.5176-23.291C82.1289-23.291 83.4961-22.5586 84.7168-20.8496C86.1816-18.5547 88.5742-17.0898 91.6016-17.0898C98.4375-17.0898 102.148-24.5605 102.1-35.0586L101.709-35.0586C100.146-30.6152 96.1426-27.4414 89.9902-27.4414C81.543-27.4414 74.9023-33.7891 74.9023-43.9941C74.9023-55.1758 81.9824-62.207 92.4805-62.207C104.736-62.207 111.182-53.0273 111.182-37.1094C111.182-18.457 104.395-8.30078 91.748-8.30078ZM57.7148-8.78906C54.5898-8.78906 52.832-10.7422 52.832-14.2578L52.832-49.707L52.5391-49.707L47.0703-45.4102C45.6543-44.043 44.7754-43.6035 43.2617-43.6035C41.0156-43.6035 39.0625-45.6055 39.0625-47.9492C39.0625-49.9023 39.9414-51.3184 41.748-52.832L50.2441-59.1309C52.832-61.3281 54.4434-61.9141 56.7383-61.9141C60.498-61.9141 62.6465-59.5703 62.6465-55.7617L62.6465-14.2578C62.6465-10.7422 60.9375-8.78906 57.7148-8.78906ZM92.8223-35.3516C97.8027-35.3516 101.221-39.1602 101.221-44.4824C101.221-50 97.7051-53.8086 92.8711-53.8086C87.8906-53.8086 84.5215-50.0977 84.5215-44.5312C84.5215-39.1602 87.9395-35.3516 92.8223-35.3516Z"/>
  </g>
  <g id="Semibold-L" transform="matrix(1 0 0 1 1968.44 1556)">
   <path d="M36.6211 23.584L113.037 23.584C126.514 23.584 133.594 16.5039 133.594 3.17383L133.594-73.5352C133.594-86.8164 126.514-93.9453 113.037-93.9453L36.6211-93.9453C23.1934-93.9453 16.0645-86.8652 16.0645-73.5352L16.0645 3.17383C16.0645 16.5527 23.1934 23.584 36.6211 23.584ZM90.8203-8.05664C82.6172-8.05664 77.4414-12.5 76.1719-15.9668C75.7324-16.9434 75.4395-17.9199 75.4395-18.7988C75.4395-21.0938 76.9043-22.7051 79.1504-22.7051C80.7129-22.7051 81.9824-22.0215 83.1055-20.3125C84.5703-17.7246 87.3047-16.0645 90.7227-16.0645C97.998-16.0645 102.197-23.6328 102.148-35.3516L101.758-35.3516C100.049-30.7617 95.8984-27.3926 89.3555-27.3926C80.8594-27.3926 73.877-33.7891 73.877-44.1895C73.877-55.3223 81.0059-62.4512 91.6016-62.4512C103.711-62.4512 110.352-53.418 110.352-37.207C110.352-18.1641 103.564-8.05664 90.8203-8.05664ZM56.2988-8.64258C53.5645-8.64258 51.9531-10.4004 51.9531-13.4277L51.9531-51.0742L51.6113-51.0742L45.2637-46.2891C43.8965-45.0684 43.1641-44.7754 41.8457-44.7754C39.7949-44.7754 37.9883-46.582 37.9883-48.7793C37.9883-50.5371 38.8184-51.8066 40.3809-53.0762L49.6094-59.668C51.9531-61.5234 53.418-62.1094 55.5664-62.1094C58.7891-62.1094 60.7422-60.0098 60.7422-56.7383L60.7422-13.4277C60.7422-10.4004 59.1797-8.64258 56.2988-8.64258ZM91.9434-34.5703C97.4609-34.5703 101.27-38.7695 101.27-44.5801C101.27-50.5859 97.3633-54.834 91.9922-54.834C86.377-54.834 82.6172-50.7324 82.6172-44.6777C82.6172-38.7695 86.4258-34.5703 91.9434-34.5703Z"/>
  </g>
  <g id="Medium-L" transform="matrix(1 0 0 1 1672.31 1556)">
   <path d="M35.9375 22.998L112.5 22.998C125.635 22.998 132.422 16.2109 132.422 3.27148L132.422-73.6328C132.422-86.5234 125.635-93.3105 112.5-93.3105L35.9375-93.3105C22.9004-93.3105 16.0645-86.5723 16.0645-73.6328L16.0645 3.27148C16.0645 16.2598 22.9004 22.998 35.9375 22.998ZM90.1367-7.91016C81.8848-7.91016 76.6602-12.4512 75.3418-15.9668C75-16.8457 74.707-17.8223 74.707-18.6035C74.707-20.752 76.0742-22.3145 78.0762-22.3145C79.6387-22.3145 80.8105-21.6309 81.8359-19.9219C83.3984-17.1387 86.377-15.2832 90.0391-15.2832C97.6074-15.2832 102.246-22.9492 102.197-35.5957L101.807-35.5957C100.049-30.9082 95.7031-27.3438 88.8672-27.3438C80.3223-27.3438 73.1445-33.7891 73.1445-44.3359C73.1445-55.4199 80.2734-62.6465 90.918-62.6465C102.93-62.6465 109.766-53.7109 109.766-37.3047C109.766-17.9688 102.881-7.91016 90.1367-7.91016ZM55.2246-8.49609C52.7832-8.49609 51.2695-10.1074 51.2695-12.793L51.2695-52.0996L50.9277-52.0996L43.8965-46.9238C42.5781-45.8496 41.9434-45.6543 40.7715-45.6543C38.916-45.6543 37.207-47.3633 37.207-49.4141C37.207-51.0254 37.9883-52.1973 39.3555-53.2715L49.1699-60.0586C51.3184-61.7188 52.6367-62.2559 54.6387-62.2559C57.4707-62.2559 59.3262-60.3516 59.3262-57.4707L59.3262-12.793C59.3262-10.1074 57.8125-8.49609 55.2246-8.49609ZM91.2598-33.9844C97.2168-33.9844 101.318-38.4766 101.318-44.6777C101.318-51.0742 97.0703-55.6152 91.3086-55.6152C85.2539-55.6152 81.1523-51.2695 81.1523-44.7754C81.1523-38.4766 85.2539-33.9844 91.2598-33.9844Z"/>
  </g>
  <g id="Regular-L" transform="matrix(1 0 0 1 1376.38 1556)">
   <path d="M35.0586 22.2168L111.816 22.2168C124.463 22.2168 130.859 15.8691 130.859 3.41797L130.859-73.7305C130.859-86.1816 124.463-92.5293 111.816-92.5293L35.0586-92.5293C22.4609-92.5293 16.0645-86.2305 16.0645-73.7305L16.0645 3.41797C16.0645 15.918 22.4609 22.2168 35.0586 22.2168ZM89.2578-7.66602C80.9082-7.66602 75.5859-12.4023 74.3164-15.9668C74.0234-16.748 73.7305-17.6758 73.7305-18.4082C73.7305-20.3613 74.9023-21.7773 76.709-21.7773C78.2227-21.7773 79.2969-21.0938 80.2246-19.3848C81.8359-16.3086 85.1562-14.2578 89.1602-14.2578C97.168-14.2578 102.344-22.0703 102.246-35.8887L101.855-35.8887C99.9512-31.0547 95.459-27.2949 88.2324-27.2949C79.5898-27.2949 72.1191-33.7891 72.1191-44.4824C72.1191-55.5664 79.2969-62.8906 90.0391-62.8906C101.855-62.8906 108.936-54.0527 108.936-37.4512C108.936-17.7246 102.051-7.66602 89.2578-7.66602ZM53.8574-8.34961C51.7578-8.34961 50.3418-9.76562 50.3418-11.9629L50.3418-53.4668L50-53.4668L42.0898-47.8027C40.8203-46.875 40.332-46.8262 39.4043-46.8262C37.7441-46.8262 36.1328-48.3398 36.1328-50.1953C36.1328-51.6602 36.8652-52.6855 38.0371-53.5645L48.5352-60.5957C50.4883-61.9141 51.6113-62.4512 53.4668-62.4512C55.7617-62.4512 57.4219-60.791 57.4219-58.3984L57.4219-11.9629C57.4219-9.76562 56.0547-8.34961 53.8574-8.34961ZM90.3809-33.2031C96.875-33.2031 101.416-38.0859 101.416-44.7754C101.416-51.709 96.7285-56.6406 90.4297-56.6406C83.7402-56.6406 79.2969-51.9043 79.2969-44.873C79.2969-38.0859 83.7891-33.2031 90.3809-33.2031Z"/>
  </g>
  <g id="Light-L" transform="matrix(1 0 0 1 1080.5 1556)">
   <path d="M34.0332 21.4355L111.23 21.4355C123.096 21.4355 129.199 15.2344 129.199 3.56445L129.199-73.8281C129.199-85.5469 123.096-91.6992 111.23-91.6992L34.0332-91.6992C22.168-91.6992 16.0645-85.6445 16.0645-73.8281L16.0645 3.56445C16.0645 15.3809 22.168 21.4355 34.0332 21.4355ZM88.0859-8.20312C80.5664-8.20312 75.1953-12.5488 73.6328-15.9668C73.2422-16.7969 72.9004-17.8223 72.9004-18.6035C72.9004-20.166 73.8281-21.2891 75.293-21.2891C76.5625-21.2891 77.3926-20.6543 78.1738-19.1895C79.8828-15.7715 83.6426-13.5254 88.0859-13.5254C96.7773-13.5254 102.148-21.5332 102.1-36.6699L101.855-36.6699C99.6582-31.2012 94.7266-27.5879 87.4023-27.5879C78.5156-27.5879 71.2402-34.375 71.2402-44.5312C71.2402-55.0781 78.4668-62.3535 88.916-62.3535C100.293-62.3535 107.471-54.0039 107.471-37.8418C107.471-18.0664 100.684-8.20312 88.0859-8.20312ZM52.9297-8.78906C51.3184-8.78906 50.1465-9.91211 50.1465-11.6699L50.1465-54.7363L49.8535-54.7363L40.5762-48.3887C39.6484-47.7051 39.3066-47.7051 38.5742-47.7051C37.207-47.7051 35.9863-48.9258 35.9863-50.3906C35.9863-51.5137 36.4746-52.3438 37.4512-53.0273L48.8281-60.5469C50.293-61.5234 51.1719-61.9141 52.6367-61.9141C54.4922-61.9141 55.8105-60.6445 55.8105-58.6914L55.8105-11.6699C55.8105-9.91211 54.7363-8.78906 52.9297-8.78906ZM89.0625-32.4219C96.1426-32.4219 101.221-37.6465 101.221-44.7266C101.221-52.002 96.0449-57.2266 89.1602-57.2266C81.9824-57.2266 76.9531-52.1973 76.9531-44.873C76.9531-37.6465 81.8848-32.4219 89.0625-32.4219Z"/>
  </g>
  <g id="Thin-L" transform="matrix(1 0 0 1 784.889 1556)">
   <path d="M32.666 20.3613L110.352 20.3613C121.24 20.3613 127.002 14.4531 127.002 3.75977L127.002-73.9746C127.002-84.7168 121.24-90.5762 110.352-90.5762L32.666-90.5762C21.7773-90.5762 16.0645-84.8633 16.0645-73.9746L16.0645 3.75977C16.0645 14.6484 21.7773 20.3613 32.666 20.3613ZM86.5234-8.93555C80.127-8.93555 74.7559-12.6953 72.7539-16.0156C72.2656-16.8945 71.7773-18.0176 71.7773-18.8965C71.7773-19.9219 72.4121-20.6543 73.4375-20.6543C74.4141-20.6543 74.9023-20.0684 75.4395-18.9453C77.2461-15.0879 81.5918-12.5488 86.6211-12.5488C96.2891-12.5488 101.953-20.8984 101.953-37.6465L101.807-37.6465C99.1699-31.4453 93.7988-27.9297 86.3281-27.9297C77.0508-27.9297 70.1172-35.1562 70.1172-44.5801C70.1172-54.4922 77.3926-61.6211 87.4023-61.6211C98.1934-61.6211 105.469-53.9551 105.469-38.4277C105.469-18.5059 98.8281-8.93555 86.5234-8.93555ZM51.7578-9.375C50.7324-9.375 49.9023-10.1074 49.9023-11.2305L49.9023-56.4453L49.6582-56.4453L38.5742-49.1211C38.1348-48.877 37.9395-48.877 37.5-48.877C36.5234-48.877 35.7422-49.707 35.7422-50.6348C35.7422-51.3184 35.9863-51.8555 36.7188-52.3438L49.2188-60.4492C50-60.9863 50.5859-61.1816 51.5137-61.1816C52.7344-61.1816 53.6621-60.4004 53.6621-59.1309L53.6621-11.2305C53.6621-10.1074 52.9785-9.375 51.7578-9.375ZM87.3047-31.3477C95.166-31.3477 100.977-37.1094 100.977-44.6777C100.977-52.3926 95.0684-58.0566 87.4512-58.0566C79.5898-58.0566 73.8281-52.5391 73.8281-44.8242C73.8281-37.1094 79.3945-31.3477 87.3047-31.3477Z"/>
  </g>
  <g id="Ultralight-L" transform="matrix(1 0 0 1 488.739 1556)">
   <path d="M31.9824 19.7754L109.961 19.7754C120.312 19.7754 125.879 14.0625 125.879 3.85742L125.879-74.0723C125.879-84.2773 120.312-89.9902 109.961-89.9902L31.9824-89.9902C21.582-89.9902 16.0645-84.4727 16.0645-74.0723L16.0645 3.85742C16.0645 14.2578 21.582 19.7754 31.9824 19.7754ZM85.7422-9.32617C79.9316-9.32617 74.5117-12.793 72.3145-16.0645C71.7285-16.9434 71.2402-18.1152 71.2402-18.9941C71.2402-19.7754 71.7285-20.3125 72.4609-20.3125C73.291-20.3125 73.584-19.7754 74.0234-18.7988C75.9277-14.7461 80.5664-12.0117 85.8398-12.0117C96.0449-12.0117 101.855-20.5566 101.855-38.1836L101.807-38.1836C98.9746-31.543 93.3105-28.125 85.791-28.125C76.2695-28.125 69.5312-35.5469 69.5312-44.6289C69.5312-54.1992 76.8555-61.2305 86.6699-61.2305C97.1191-61.2305 104.443-53.9062 104.443-38.7207C104.443-18.75 97.9004-9.32617 85.7422-9.32617ZM51.1719-9.66797C50.4395-9.66797 49.8047-10.2051 49.8047-11.0352L49.8047-57.3242L49.5605-57.3242L37.5488-49.5117C37.3535-49.4629 37.207-49.4629 36.9629-49.4629C36.1816-49.4629 35.6445-50.0977 35.6445-50.7812C35.6445-51.2207 35.7422-51.6602 36.3281-52.002L49.3652-60.4004C49.8535-60.6934 50.293-60.8398 50.9766-60.8398C51.8555-60.8398 52.5391-60.3027 52.5391-59.3262L52.5391-11.0352C52.5391-10.2051 52.0996-9.66797 51.1719-9.66797ZM86.4258-30.8105C94.6777-30.8105 100.879-36.8164 100.879-44.6777C100.879-52.5879 94.5801-58.4473 86.6211-58.4473C78.3691-58.4473 72.2656-52.7344 72.2656-44.8242C72.2656-36.8164 78.125-30.8105 86.4258-30.8105Z"/>
  </g>
  <g id="Black-M" transform="matrix(1 0 0 1 2872.19 1126)">
   <path d="M31.9824 13.5742L90.4297 13.5742C102.686 13.5742 109.961 6.29883 109.961-5.95703L109.961-64.4043C109.961-76.6602 102.686-83.9355 90.4297-83.9355L31.9824-83.9355C19.7266-83.9355 12.4512-76.6602 12.4512-64.4043L12.4512-5.95703C12.4512 6.29883 19.7266 13.5742 31.9824 13.5742ZM49.7559-15.625C46.0449-15.625 44.3848-17.6758 44.3848-22.0215L44.3848-41.8457L44.1895-41.8457L42.6758-40.0391C41.5039-38.5254 40.4297-37.6953 38.4766-37.6953C36.1328-37.6953 34.2773-39.7461 34.2773-41.9922C34.2773-44.0918 35.1074-45.6055 37.2559-47.6074L41.4062-51.709C44.0918-54.3457 45.9961-54.8828 48.1934-54.8828C52.832-54.8828 55.0293-52.2461 55.0293-47.6074L55.0293-22.0215C55.0293-17.6758 53.3691-15.625 49.7559-15.625ZM73.9746-15.625C68.3594-15.625 64.8926-17.8711 63.5742-20.4102C62.9395-21.582 62.6953-22.6562 62.6953-23.6328C62.6953-26.0254 64.3555-27.832 67.0898-27.832C68.2617-27.832 69.6289-27.2949 70.8984-26.0254C71.8262-25.1953 72.6074-24.8047 73.877-24.8047C77.8809-24.8047 78.7598-30.1758 78.8086-34.3262L78.6621-34.3262C77.6367-31.1523 75.0977-29.541 71.7773-29.541C65.3809-29.541 61.4746-34.4238 61.4746-41.3574C61.4746-49.8535 66.8945-54.8828 74.5605-54.8828C84.3262-54.8828 88.4766-47.5586 88.4766-36.4258C88.4766-23.3887 83.4473-15.625 73.9746-15.625ZM74.7559-37.9395C76.6602-37.9395 78.0273-39.5996 78.0273-41.9922C78.0273-44.3848 76.6602-45.9961 74.7559-45.9961C72.998-45.9961 71.582-44.3359 71.582-41.9922C71.582-39.5996 72.998-37.9395 74.7559-37.9395Z"/>
  </g>
  <g id="Heavy-M" transform="matrix(1 0 0 1 2576.39 1126)">
   <path d="M31.0059 12.6465L89.6484 12.6465C101.416 12.6465 108.154 5.9082 108.154-5.81055L108.154-64.5508C108.154-76.2695 101.416-83.0566 89.6484-83.0566L31.0059-83.0566C19.2383-83.0566 12.4512-76.3184 12.4512-64.5508L12.4512-5.81055C12.4512 5.9082 19.2383 12.6465 31.0059 12.6465ZM72.998-15.1367C67.0898-15.1367 63.4277-17.7734 62.2559-20.4102C61.7188-21.3867 61.4746-22.3633 61.4746-23.291C61.4746-25.4883 63.0371-27.1973 65.4785-27.1973C66.6504-27.1973 67.9688-26.6113 69.0918-25.3418C70.1172-24.1699 71.2402-23.4863 72.9004-23.4863C77.3438-23.4863 78.9062-29.0527 78.9551-34.5703L78.7109-34.5703C77.6367-31.2988 74.9512-29.3945 71.0938-29.3945C64.6484-29.3945 60.3027-34.2773 60.3027-41.6016C60.3027-50.1953 65.7227-55.3711 73.584-55.3711C83.3008-55.3711 87.7441-48.0957 87.7441-36.5234C87.7441-22.9492 82.6172-15.1367 72.998-15.1367ZM47.998-15.2832C44.7266-15.2832 43.1152-17.1387 43.1152-20.9473L43.1152-43.457L42.9199-43.457L40.5273-41.1133C39.3555-39.7461 38.4277-39.1113 36.7188-39.1113C34.5703-39.1113 32.8613-41.0156 32.8613-43.1152C32.8613-45.0195 33.5938-46.3867 35.498-48.0957L40.4785-52.4414C42.9688-54.7852 44.6289-55.3223 46.6797-55.3223C50.7812-55.3223 52.7832-52.9297 52.7832-48.877L52.7832-20.9473C52.7832-17.1387 51.2207-15.2832 47.998-15.2832ZM73.7793-37.0605C76.416-37.0605 78.1738-39.1602 78.1738-42.1387C78.1738-45.2148 76.3672-47.2656 73.8281-47.2656C71.3379-47.2656 69.5312-45.2148 69.5312-42.1387C69.5312-39.1602 71.3379-37.0605 73.7793-37.0605Z"/>
  </g>
  <g id="Bold-M" transform="matrix(1 0 0 1 2280.68 1126)">
   <path d="M29.8828 11.6699L88.7207 11.6699C99.9512 11.6699 106.152 5.46875 106.152-5.66406L106.152-64.6973C106.152-75.8789 99.9512-82.0312 88.7207-82.0312L29.8828-82.0312C18.6523-82.0312 12.4512-75.8789 12.4512-64.6973L12.4512-5.66406C12.4512 5.51758 18.6523 11.6699 29.8828 11.6699ZM71.9238-14.5996C65.625-14.5996 61.8164-17.6758 60.791-20.3613C60.3516-21.1914 60.1562-22.0703 60.1562-22.8516C60.1562-24.9512 61.5234-26.4648 63.6719-26.4648C64.8926-26.4648 66.1133-25.9277 67.1387-24.5605C68.1641-23.0469 69.7266-22.0703 71.8262-22.0703C76.709-22.0703 79.1016-27.7344 79.0527-34.8145L78.8086-34.8145C77.6367-31.4941 74.7559-29.248 70.3125-29.248C63.8672-29.248 58.9355-34.082 58.9355-41.8457C58.9355-50.5371 64.4043-55.957 72.4609-55.957C82.0801-55.957 86.8652-48.6816 86.8652-36.5723C86.8652-22.4609 81.6895-14.5996 71.9238-14.5996ZM45.9961-14.8926C43.2129-14.8926 41.748-16.5527 41.748-19.7266L41.748-45.2148L41.5039-45.2148L38.0859-42.334C36.9141-41.1133 36.1328-40.6738 34.7656-40.6738C32.8125-40.6738 31.2012-42.3828 31.2012-44.3848C31.2012-46.0449 31.9336-47.2656 33.5449-48.6816L39.4531-53.3203C41.6992-55.2246 43.1152-55.7617 45.0195-55.7617C48.4375-55.7617 50.2441-53.7109 50.2441-50.293L50.2441-19.7266C50.2441-16.5527 48.7793-14.8926 45.9961-14.8926ZM72.7539-36.0352C76.0742-36.0352 78.3691-38.623 78.3691-42.334C78.3691-46.0938 76.0254-48.7305 72.7539-48.7305C69.4824-48.7305 67.1875-46.1426 67.1875-42.334C67.1875-38.623 69.4824-36.0352 72.7539-36.0352Z"/>
  </g>
  <g id="Semibold-M" transform="matrix(1 0 0 1 1984.65 1126)">
   <path d="M29.1016 10.9863L88.0859 10.9863C98.9746 10.9863 104.785 5.17578 104.785-5.56641L104.785-64.8438C104.785-75.5859 98.9746-81.3477 88.0859-81.3477L29.1016-81.3477C18.2617-81.3477 12.4512-75.5859 12.4512-64.8438L12.4512-5.56641C12.4512 5.22461 18.2617 10.9863 29.1016 10.9863ZM71.1426-14.209C64.6484-14.209 60.6934-17.5781 59.7656-20.3125C59.4238-21.0938 59.2285-21.875 59.2285-22.5586C59.2285-24.5117 60.498-25.9277 62.4023-25.9277C63.6719-25.9277 64.7949-25.3906 65.7715-24.0234C66.8457-22.2168 68.7012-21.0938 71.0449-21.0938C76.2695-21.0938 79.1992-26.8555 79.1504-35.0098L78.8574-35.0098C77.6367-31.6406 74.6094-29.1016 69.7754-29.1016C63.2812-29.1016 58.0078-33.9844 58.0078-42.041C58.0078-50.8301 63.5254-56.2988 71.7285-56.2988C81.2988-56.2988 86.3281-49.1211 86.3281-36.6211C86.3281-22.0703 81.0059-14.209 71.1426-14.209ZM44.6289-14.5996C42.1875-14.5996 40.8203-16.1621 40.8203-18.8477L40.8203-46.4844L40.5273-46.4844L36.4258-43.1641C35.2539-42.0898 34.5703-41.7969 33.3984-41.7969C31.6406-41.7969 30.0781-43.3594 30.0781-45.2148C30.0781-46.7773 30.8105-47.9004 32.1777-49.0234L38.7207-53.9062C40.7715-55.5664 42.0898-56.0547 43.8965-56.0547C46.7773-56.0547 48.4863-54.248 48.4863-51.2695L48.4863-18.8477C48.4863-16.1621 47.1191-14.5996 44.6289-14.5996ZM72.0215-35.3516C75.8789-35.3516 78.4668-38.2812 78.4668-42.4316C78.4668-46.7285 75.7812-49.707 72.0703-49.707C68.1641-49.707 65.5762-46.8262 65.5762-42.4805C65.5762-38.2812 68.2129-35.3516 72.0215-35.3516Z"/>
  </g>
  <g id="Medium-M" transform="matrix(1 0 0 1 1688.47 1126)">
   <path d="M28.5156 10.4492L87.6465 10.4492C98.2422 10.4492 103.711 4.98047 103.711-5.46875L103.711-64.8926C103.711-75.3418 98.2422-80.8105 87.6465-80.8105L28.5156-80.8105C17.9688-80.8105 12.4512-75.3906 12.4512-64.8926L12.4512-5.46875C12.4512 4.98047 17.9688 10.4492 28.5156 10.4492ZM70.5566-13.916C63.8672-13.916 59.8633-17.5293 58.9844-20.3125C58.6914-20.9961 58.4961-21.7285 58.4961-22.3633C58.4961-24.2188 59.7168-25.5859 61.4746-25.5859C62.7441-25.5859 63.8184-25 64.6973-23.6328C65.8691-21.6309 67.9199-20.3613 70.459-20.3613C75.9277-20.3613 79.2969-26.1719 79.1992-35.1562L78.9062-35.1562C77.6367-31.7383 74.5117-29.0527 69.3848-29.0527C62.8906-29.0527 57.3242-33.8867 57.3242-42.1875C57.3242-51.0254 62.793-56.5918 71.1426-56.5918C80.6641-56.5918 85.8398-49.4629 85.8398-36.6699C85.8398-21.8262 80.5176-13.916 70.5566-13.916ZM43.6035-14.4043C41.4062-14.4043 40.0879-15.8203 40.0879-18.2129L40.0879-47.4121L39.7949-47.4121L35.1562-43.7988C33.9844-42.8223 33.3984-42.627 32.373-42.627C30.7129-42.627 29.248-44.0918 29.248-45.8984C29.248-47.3145 29.9316-48.3398 31.1523-49.3164L38.1836-54.3457C40.1367-55.8105 41.2598-56.2988 43.0176-56.2988C45.5566-56.2988 47.168-54.6387 47.168-52.0508L47.168-18.2129C47.168-15.8203 45.8496-14.4043 43.6035-14.4043ZM71.4844-34.8145C75.6836-34.8145 78.5645-38.0371 78.5645-42.5293C78.5645-47.2168 75.6348-50.4883 71.5332-50.4883C67.1875-50.4883 64.3555-47.3145 64.3555-42.5781C64.3555-38.0371 67.2363-34.8145 71.4844-34.8145Z"/>
  </g>
  <g id="Regular-M" transform="matrix(1 0 0 1 1392.45 1126)">
   <path d="M27.7832 9.76562L87.0117 9.76562C97.2656 9.76562 102.344 4.6875 102.344-5.37109L102.344-64.9902C102.344-75.0488 97.2656-80.127 87.0117-80.127L27.7832-80.127C17.5781-80.127 12.4512-75.0977 12.4512-64.9902L12.4512-5.37109C12.4512 4.73633 17.5781 9.76562 27.7832 9.76562ZM69.8242-13.5254C62.8906-13.5254 58.7402-17.4805 57.959-20.2637C57.7637-20.8496 57.6172-21.5332 57.6172-22.0703C57.6172-23.8281 58.6914-25.0488 60.2539-25.0488C61.5723-25.0488 62.5488-24.5117 63.3789-23.0957C64.5508-20.8496 66.8945-19.3848 69.7266-19.3848C75.5371-19.3848 79.3945-25.293 79.2969-35.3027L78.9551-35.3027C77.6855-31.8848 74.3652-28.9062 68.8477-28.9062C62.3047-28.9062 56.3965-33.7402 56.3965-42.3828C56.3965-51.2695 61.9141-56.9824 70.4102-56.9824C79.834-56.9824 85.3027-49.8535 85.3027-36.6699C85.3027-21.4844 79.8828-13.5254 69.8242-13.5254ZM42.2363-14.1602C40.3809-14.1602 39.1113-15.4297 39.1113-17.3828L39.1113-48.6328L38.8672-48.6328L33.4961-44.6777C32.3242-43.75 31.8359-43.7012 31.0059-43.7012C29.541-43.7012 28.125-45.0195 28.125-46.7285C28.125-48.0469 28.7598-48.9746 29.7852-49.707L37.4512-54.9316C39.2578-56.1523 40.2344-56.6406 41.8945-56.6406C43.9941-56.6406 45.4102-55.127 45.4102-53.0273L45.4102-17.3828C45.4102-15.4297 44.1895-14.1602 42.2363-14.1602ZM70.752-34.1309C75.4883-34.1309 78.7109-37.6953 78.7109-42.627C78.7109-47.8027 75.3906-51.4648 70.8008-51.4648C65.918-51.4648 62.793-47.998 62.793-42.7246C62.793-37.6953 66.0156-34.1309 70.752-34.1309Z"/>
  </g>
  <g id="Light-M" transform="matrix(1 0 0 1 1096.47 1126)">
   <path d="M26.8555 9.0332L86.4746 9.0332C95.9961 9.0332 100.879 4.15039 100.879-5.22461L100.879-65.0879C100.879-74.5117 95.9961-79.3945 86.4746-79.3945L26.8555-79.3945C17.334-79.3945 12.4512-74.5605 12.4512-65.0879L12.4512-5.22461C12.4512 4.19922 17.334 9.0332 26.8555 9.0332ZM68.7988-14.0625C62.5977-14.0625 58.4473-17.5781 57.373-20.3125C57.0801-20.8984 56.8359-21.6797 56.8359-22.2656C56.8359-23.6328 57.7148-24.6094 58.9844-24.6094C60.0586-24.6094 60.8398-24.1211 61.5234-22.9004C62.793-20.4102 65.4785-18.7012 68.75-18.7012C75.1953-18.7012 79.248-24.8535 79.1992-35.9863L78.9551-35.9863C77.3438-32.0312 73.7305-29.1504 68.1152-29.1504C61.3281-29.1504 55.6152-34.2773 55.6152-42.4316C55.6152-50.8301 61.1816-56.4941 69.3848-56.4941C78.418-56.4941 83.9355-49.8047 83.9355-37.0605C83.9355-21.7773 78.6621-14.0625 68.7988-14.0625ZM41.4551-14.5508C39.9902-14.5508 38.9648-15.5762 38.9648-17.0898L38.9648-49.7559L38.7207-49.7559L32.1289-45.166C31.25-44.5312 30.9082-44.4824 30.2734-44.4824C29.0527-44.4824 27.9785-45.5566 27.9785-46.9238C27.9785-47.9004 28.418-48.6328 29.2969-49.2676L37.7441-54.8828C39.0625-55.8105 39.8438-56.1523 41.1621-56.1523C42.8223-56.1523 43.9941-54.9805 43.9941-53.2715L43.9941-17.0898C43.9941-15.5762 43.0176-14.5508 41.4551-14.5508ZM69.5801-33.3984C74.8535-33.3984 78.5156-37.3047 78.5156-42.627C78.5156-48.0957 74.7559-52.002 69.6777-52.002C64.3066-52.002 60.6934-48.2422 60.6934-42.7246C60.6934-37.3047 64.3066-33.3984 69.5801-33.3984Z"/>
  </g>
  <g id="Thin-M" transform="matrix(1 0 0 1 800.758 1126)">
   <path d="M25.6348 8.05664L85.7422 8.05664C94.3848 8.05664 98.877 3.4668 98.877-5.0293L98.877-65.2344C98.877-73.7305 94.3848-78.3691 85.7422-78.3691L25.6348-78.3691C16.9922-78.3691 12.4512-73.877 12.4512-65.2344L12.4512-5.0293C12.4512 3.56445 16.9922 8.05664 25.6348 8.05664ZM67.3828-14.6973C62.207-14.6973 58.0566-17.7246 56.5918-20.3613C56.2012-20.9961 55.8594-21.8262 55.8594-22.5098C55.8594-23.3887 56.4453-24.0723 57.3242-24.0723C58.1543-24.0723 58.5938-23.584 59.0332-22.6562C60.4492-19.7754 63.6719-17.8711 67.4316-17.8711C74.7559-17.8711 79.0527-24.2676 79.0527-36.9141L78.9062-36.9141C76.9531-32.2266 72.9004-29.4922 67.1387-29.4922C60.0098-29.4922 54.5898-35.0098 54.5898-42.4805C54.5898-50.293 60.2051-55.8105 68.0664-55.8105C76.5625-55.8105 82.1777-49.7559 82.1777-37.5977C82.1777-22.168 77.002-14.6973 67.3828-14.6973ZM40.3809-15.0879C39.4531-15.0879 38.7207-15.7227 38.7207-16.748L38.7207-51.3184L38.5254-51.3184L30.3223-45.8496C29.8828-45.5566 29.6875-45.5566 29.2969-45.5566C28.4668-45.5566 27.7832-46.2891 27.7832-47.1191C27.7832-47.7539 27.9785-48.2422 28.6133-48.6328L38.0371-54.7852C38.8184-55.3223 39.3066-55.5176 40.1855-55.5176C41.2598-55.5176 42.041-54.7852 42.041-53.6621L42.041-16.748C42.041-15.7227 41.4551-15.0879 40.3809-15.0879ZM68.0664-32.4707C73.9746-32.4707 78.3203-36.8164 78.3203-42.5781C78.3203-48.4375 73.877-52.7344 68.1641-52.7344C62.207-52.7344 57.9102-48.584 57.9102-42.6758C57.9102-36.8164 62.0605-32.4707 68.0664-32.4707Z"/>
  </g>
  <g id="Ultralight-M" transform="matrix(1 0 0 1 504.535 1126)">
   <path d="M25 7.56836L85.3516 7.56836C93.5059 7.56836 97.9004 3.125 97.9004-4.98047L97.9004-65.2832C97.9004-73.3887 93.5059-77.832 85.3516-77.832L25-77.832C16.7969-77.832 12.4512-73.4863 12.4512-65.2832L12.4512-4.98047C12.4512 3.22266 16.7969 7.56836 25 7.56836ZM66.6992-15.0391C62.0117-15.0391 57.8125-17.8223 56.2012-20.3613C55.7617-21.0449 55.3711-21.9238 55.3711-22.6074C55.3711-23.291 55.8105-23.7793 56.4453-23.7793C57.1289-23.7793 57.4219-23.3398 57.8125-22.5586C59.2285-19.4824 62.7441-17.3828 66.748-17.3828C74.5117-17.3828 78.9551-23.9746 78.9551-37.3535L78.9062-37.3535C76.7578-32.3242 72.4609-29.6875 66.6504-29.6875C59.3262-29.6875 54.0527-35.3516 54.0527-42.4805C54.0527-50 59.7168-55.4688 67.3828-55.4688C75.5859-55.4688 81.25-49.707 81.25-37.8418C81.25-22.3633 76.1719-15.0391 66.6992-15.0391ZM39.8438-15.332C39.1602-15.332 38.623-15.8203 38.623-16.5527L38.623-52.0996L38.4277-52.0996L29.3945-46.1914C29.1504-46.0938 29.0527-46.0938 28.8086-46.0938C28.125-46.0938 27.6855-46.6309 27.6855-47.2168C27.6855-47.6562 27.7832-47.998 28.2715-48.3398L38.2324-54.7852C38.6719-55.0781 39.0625-55.1758 39.6484-55.1758C40.4297-55.1758 41.0645-54.6875 41.0645-53.8574L41.0645-16.5527C41.0645-15.8203 40.625-15.332 39.8438-15.332ZM67.2363-31.9824C73.4863-31.9824 78.2227-36.5723 78.2227-42.5293C78.2227-48.6328 73.4375-53.125 67.3828-53.125C61.1328-53.125 56.4941-48.7305 56.4941-42.6758C56.4941-36.5723 60.9375-31.9824 67.2363-31.9824Z"/>
  </g>
  <g id="Black-S" transform="matrix(1 0 0 1 2885.5 696)">
   <path d="M25 2.92969L70.8008 2.92969C80.3711 2.92969 86.0352-2.73438 86.0352-12.3047L86.0352-58.1055C86.0352-67.6758 80.3711-73.3398 70.8008-73.3398L25-73.3398C15.4297-73.3398 9.76562-67.6758 9.76562-58.1055L9.76562-12.3047C9.76562-2.73438 15.4297 2.92969 25 2.92969ZM38.8672-19.8242C35.9863-19.8242 34.668-21.4355 34.668-24.8047L34.668-40.5273L34.5215-40.5273L33.3008-39.0625C32.373-37.8906 31.543-37.2559 30.0293-37.2559C28.1738-37.2559 26.7578-38.8672 26.7578-40.625C26.7578-42.2363 27.3926-43.4082 29.0527-44.9707L32.373-48.1934C34.4727-50.2441 35.9375-50.6836 37.6465-50.6836C41.2598-50.6836 42.9688-48.6328 42.9688-45.0195L42.9688-24.8047C42.9688-21.4355 41.6504-19.8242 38.8672-19.8242ZM57.9102-19.8242C53.4668-19.8242 50.7324-21.6309 49.707-23.6328C49.2188-24.5117 49.0234-25.3418 49.0234-26.123C49.0234-27.9785 50.3418-29.3945 52.4414-29.3945C53.3691-29.3945 54.4434-28.9551 55.4199-27.9785C56.1523-27.2949 56.7871-26.9531 57.8125-26.9531C60.9863-26.9531 61.7188-31.2012 61.7676-34.5215L61.6211-34.5215C60.8398-32.0312 58.8379-30.7617 56.2012-30.7617C51.1719-30.7617 48.0957-34.5703 48.0957-40.0391C48.0957-46.7285 52.3438-50.6836 58.3496-50.6836C66.0156-50.6836 69.2871-44.9219 69.2871-36.1816C69.2871-25.9277 65.332-19.8242 57.9102-19.8242ZM58.4961-37.3047C60.0586-37.3047 61.1328-38.623 61.1328-40.5273C61.1328-42.4805 60.0586-43.75 58.4961-43.75C57.0801-43.75 55.957-42.4316 55.957-40.5273C55.957-38.623 57.0801-37.3047 58.4961-37.3047Z"/>
  </g>
  <g id="Heavy-S" transform="matrix(1 0 0 1 2589.4 696)">
   <path d="M24.3652 2.34375L70.2637 2.34375C79.541 2.34375 84.8145-2.97852 84.8145-12.207L84.8145-58.2031C84.8145-67.4316 79.541-72.7539 70.2637-72.7539L24.3652-72.7539C15.0879-72.7539 9.76562-67.4316 9.76562-58.2031L9.76562-12.207C9.76562-2.97852 15.0879 2.34375 24.3652 2.34375ZM57.2754-19.3848C52.4902-19.3848 49.6582-21.5332 48.7793-23.584C48.3398-24.3652 48.1934-25.1465 48.1934-25.8301C48.1934-27.5879 49.4141-28.9551 51.3672-28.9551C52.3438-28.9551 53.3691-28.5156 54.248-27.4414C55.0293-26.5625 55.9082-26.0742 57.1777-26.0742C60.5957-26.0742 61.8652-30.3711 61.8652-34.6191L61.6699-34.6191C60.8887-32.1289 58.7891-30.6152 55.7617-30.6152C50.7324-30.6152 47.2656-34.375 47.2656-40.2344C47.2656-47.0215 51.5137-51.123 57.7148-51.123C65.3809-51.123 68.8477-45.3613 68.8477-36.1816C68.8477-25.5371 64.8438-19.3848 57.2754-19.3848ZM37.5977-19.5312C35.0098-19.5312 33.7402-20.9961 33.7402-24.0234L33.7402-41.6016L33.5938-41.6016L31.7871-39.8438C30.8105-38.7695 30.0781-38.2324 28.7598-38.2324C27.0508-38.2324 25.6348-39.7461 25.6348-41.4551C25.6348-42.9688 26.2695-44.043 27.7832-45.4102L31.6406-48.7793C33.5938-50.6348 34.9609-51.0254 36.5723-51.0254C39.7949-51.0254 41.4062-49.1699 41.4062-45.9473L41.4062-24.0234C41.4062-20.9961 40.1367-19.5312 37.5977-19.5312ZM57.9102-36.6699C59.9121-36.6699 61.2793-38.3301 61.2793-40.6738C61.2793-43.0664 59.9121-44.6777 57.9102-44.6777C56.0059-44.6777 54.5898-43.0664 54.5898-40.6738C54.5898-38.3301 56.0059-36.6699 57.9102-36.6699Z"/>
  </g>
  <g id="Bold-S" transform="matrix(1 0 0 1 2293.35 696)">
   <path d="M23.6328 1.66016L69.6289 1.66016C78.6133 1.66016 83.4961-3.22266 83.4961-12.1094L83.4961-58.3008C83.4961-67.1875 78.6133-72.0703 69.6289-72.0703L23.6328-72.0703C14.6973-72.0703 9.76562-67.1875 9.76562-58.3008L9.76562-12.1094C9.76562-3.22266 14.6973 1.66016 23.6328 1.66016ZM56.543-18.8965C51.4648-18.8965 48.4863-21.4355 47.7051-23.584C47.4121-24.2188 47.2656-24.9023 47.2656-25.4883C47.2656-27.1973 48.3887-28.418 50.1465-28.418C51.1719-28.418 52.1484-27.9785 52.9785-26.9043C53.8086-25.7324 54.9316-25.0488 56.4453-25.0488C60.1562-25.0488 62.0117-29.4434 61.9629-34.7656L61.7188-34.7656C60.9375-32.2754 58.6914-30.4688 55.2246-30.4688C50.2441-30.4688 46.3379-34.1797 46.3379-40.4297C46.3379-47.3633 50.5859-51.6113 56.9824-51.6113C64.6484-51.6113 68.3594-45.8008 68.3594-36.1816C68.3594-25.0977 64.2578-18.8965 56.543-18.8965ZM36.1816-19.1895C33.8867-19.1895 32.7148-20.5566 32.7148-23.0957L32.7148-42.8223L32.5195-42.8223L30.0781-40.7227C29.1016-39.6973 28.4668-39.3555 27.3438-39.3555C25.7812-39.3555 24.4141-40.7715 24.4141-42.3828C24.4141-43.7988 25.0488-44.7754 26.3184-45.8984L30.8105-49.4141C32.666-51.0254 33.8379-51.4648 35.4004-51.4648C38.1348-51.4648 39.6484-49.7559 39.6484-47.0215L39.6484-23.0957C39.6484-20.5566 38.4277-19.1895 36.1816-19.1895ZM57.2754-35.9863C59.7656-35.9863 61.4258-37.9883 61.4258-40.7715C61.4258-43.7012 59.7168-45.7031 57.2754-45.7031C54.7363-45.7031 53.0762-43.75 53.0762-40.8203C53.0762-37.9883 54.7852-35.9863 57.2754-35.9863Z"/>
  </g>
  <g id="Semibold-S" transform="matrix(1 0 0 1 1997.1 696)">
   <path d="M23.0957 1.17188L69.1895 1.17188C77.9297 1.17188 82.5684-3.36914 82.5684-12.0117L82.5684-58.3984C82.5684-67.041 77.9297-71.582 69.1895-71.582L23.0957-71.582C14.4043-71.582 9.76562-67.041 9.76562-58.3984L9.76562-12.0117C9.76562-3.36914 14.4043 1.17188 23.0957 1.17188ZM56.0547-18.5547C50.6836-18.5547 47.6562-21.3867 46.9727-23.5352C46.7285-24.1211 46.6309-24.707 46.6309-25.2441C46.6309-26.9043 47.6562-28.0762 49.2676-28.0762C50.3418-28.0762 51.3184-27.6367 52.0996-26.5137C52.9297-25.1953 54.248-24.3652 55.957-24.3652C59.8633-24.3652 62.1094-28.8086 62.0605-34.8145L61.7676-34.8145C60.9375-32.373 58.6914-30.3711 54.8828-30.3711C49.9023-30.3711 45.7031-34.082 45.7031-40.5762C45.7031-47.6074 49.9512-51.9531 56.4941-51.9531C64.1113-51.9531 68.0664-46.1426 68.0664-36.1816C68.0664-24.8047 63.8672-18.5547 56.0547-18.5547ZM35.2051-18.9453C33.1543-18.9453 31.9824-20.2148 31.9824-22.4609L31.9824-43.7012L31.7871-43.7012L28.9062-41.3086C27.8809-40.3809 27.3438-40.1367 26.3672-40.1367C24.9023-40.1367 23.584-41.4551 23.584-43.0176C23.584-44.3359 24.1699-45.2637 25.3418-46.2402L30.2246-49.9023C31.9824-51.3184 33.0566-51.709 34.6191-51.709C37.0117-51.709 38.4277-50.1953 38.4277-47.7539L38.4277-22.4609C38.4277-20.2148 37.2559-18.9453 35.2051-18.9453ZM56.7871-35.5469C59.668-35.5469 61.5723-37.7441 61.5723-40.8691C61.5723-44.1895 59.5703-46.4355 56.7871-46.4355C53.9062-46.4355 52.0508-44.2383 52.0508-40.918C52.0508-37.7441 53.9551-35.5469 56.7871-35.5469Z"/>
  </g>
  <g id="Medium-S" transform="matrix(1 0 0 1 1700.75 696)">
   <path d="M22.7051 0.830078L68.8965 0.830078C77.4414 0.830078 81.8359-3.51562 81.8359-11.9629L81.8359-58.4473C81.8359-66.8945 77.4414-71.2402 68.8965-71.2402L22.7051-71.2402C14.209-71.2402 9.76562-66.8945 9.76562-58.4473L9.76562-11.9629C9.76562-3.51562 14.209 0.830078 22.7051 0.830078ZM55.7129-18.3105C50.1465-18.3105 47.0215-21.3379 46.4355-23.5352C46.2402-24.0234 46.1426-24.6094 46.1426-25.0488C46.1426-26.6602 47.1191-27.832 48.6328-27.832C49.7559-27.832 50.6836-27.3926 51.416-26.1719C52.2949-24.7559 53.7109-23.8281 55.6152-23.8281C59.6191-23.8281 62.1582-28.3203 62.1094-34.9121L61.8164-34.9121C60.9863-32.4707 58.6426-30.2734 54.6387-30.2734C49.6582-30.2734 45.2148-33.9355 45.2148-40.6738C45.2148-47.7539 49.5117-52.1973 56.1523-52.1973C63.7695-52.1973 67.7734-46.3867 67.7734-36.1816C67.7734-24.6094 63.5742-18.3105 55.7129-18.3105ZM34.4238-18.75C32.5684-18.75 31.4453-19.9707 31.4453-22.0215L31.4453-44.3359L31.2012-44.3359L28.0273-41.748C27.002-40.8691 26.5137-40.7227 25.6348-40.7227C24.2188-40.7227 22.9492-41.9922 22.9492-43.5059C22.9492-44.7754 23.5352-45.6543 24.5605-46.4844L29.7852-50.2441C31.4941-51.5137 32.4707-51.9531 33.9844-51.9531C36.1328-51.9531 37.5-50.4883 37.5-48.291L37.5-22.0215C37.5-19.9707 36.377-18.75 34.4238-18.75ZM56.4453-35.1562C59.5703-35.1562 61.6211-37.5977 61.6211-40.9668C61.6211-44.5312 59.4727-46.9727 56.4453-46.9727C53.2715-46.9727 51.2207-44.6289 51.2207-41.0156C51.2207-37.5977 53.3203-35.1562 56.4453-35.1562Z"/>
  </g>
  <g id="Regular-S" transform="matrix(1 0 0 1 1404.51 696)">
   <path d="M22.2168 0.390625L68.457 0.390625C76.8066 0.390625 80.9082-3.71094 80.9082-11.9141L80.9082-58.4961C80.9082-66.6992 76.8066-70.8008 68.457-70.8008L22.2168-70.8008C13.916-70.8008 9.76562-66.6992 9.76562-58.4961L9.76562-11.9141C9.76562-3.71094 13.916 0.390625 22.2168 0.390625ZM55.2246-18.0176C49.4141-18.0176 46.1914-21.2402 45.7031-23.4863C45.6055-23.9258 45.5078-24.4141 45.5078-24.8535C45.5078-26.3672 46.4355-27.4902 47.8027-27.4902C48.9258-27.4902 49.8535-27.0508 50.5371-25.7812C51.416-24.2188 53.0762-23.1445 55.127-23.1445C59.3262-23.1445 62.3047-27.6855 62.207-34.9609L61.8652-34.9609C60.9863-32.5195 58.5938-30.1758 54.2969-30.1758C49.3164-30.1758 44.5801-33.8379 44.5801-40.8203C44.5801-47.998 48.877-52.4902 55.6641-52.4902C63.2324-52.4902 67.4805-46.7285 67.4805-36.1816C67.4805-24.3164 63.1836-18.0176 55.2246-18.0176ZM33.4473-18.5059C31.8359-18.5059 30.7129-19.6289 30.7129-21.3867L30.7129-45.166L30.5176-45.166L26.9043-42.3828C25.8301-41.5039 25.3906-41.5039 24.6582-41.5039C23.3887-41.5039 22.1191-42.6758 22.1191-44.1895C22.1191-45.3613 22.7051-46.1426 23.584-46.8262L29.248-50.6836C30.8105-51.8066 31.7383-52.1973 33.2031-52.1973C35.0098-52.1973 36.2793-50.9277 36.2793-49.0234L36.2793-21.3867C36.2793-19.6289 35.2051-18.5059 33.4473-18.5059ZM56.0059-34.7168C59.4727-34.7168 61.7188-37.3535 61.7188-41.0645C61.7188-44.9707 59.375-47.7051 56.0059-47.7051C52.4414-47.7051 50.1953-45.1172 50.1953-41.1133C50.1953-37.3535 52.5391-34.7168 56.0059-34.7168Z"/>
  </g>
  <g id="Light-S" transform="matrix(1 0 0 1 1108.46 696)">
   <path d="M21.3867-0.292969L67.9688-0.292969C75.7324-0.292969 79.5898-4.15039 79.5898-11.7676L79.5898-58.5938C79.5898-66.2109 75.7324-70.1172 67.9688-70.1172L21.3867-70.1172C13.6719-70.1172 9.76562-66.2598 9.76562-58.5938L9.76562-11.7676C9.76562-4.15039 13.6719-0.292969 21.3867-0.292969ZM54.2969-18.457C49.1699-18.457 45.8984-21.3379 45.166-23.5352C45.0195-23.9746 44.8242-24.5605 44.8242-25C44.8242-26.2207 45.6055-27.0996 46.6797-27.0996C47.6562-27.0996 48.3398-26.709 48.877-25.6348C49.8535-23.7793 51.8555-22.5586 54.248-22.5586C59.0332-22.5586 62.1582-27.2461 62.1094-35.5469L61.8652-35.5469C60.7422-32.666 58.0078-30.3711 53.6133-30.3711C48.4375-30.3711 43.8477-34.2773 43.8477-40.8691C43.8477-47.6074 48.1934-52.0508 54.7363-52.0508C62.0117-52.0508 66.2598-46.6797 66.2598-36.5234C66.2598-24.5605 62.1094-18.457 54.2969-18.457ZM32.7637-18.8477C31.4941-18.8477 30.5664-19.7754 30.5664-21.1426L30.5664-46.1914L30.3711-46.1914L25.6836-42.8223C24.9023-42.2363 24.5605-42.1875 23.9746-42.1875C22.9492-42.1875 21.9727-43.1152 21.9727-44.3359C21.9727-45.2148 22.4121-45.8496 23.1445-46.3867L29.4434-50.6348C30.6641-51.4648 31.3965-51.8066 32.5195-51.8066C33.9844-51.8066 35.0098-50.7812 35.0098-49.2676L35.0098-21.1426C35.0098-19.7754 34.1797-18.8477 32.7637-18.8477ZM54.9805-34.082C58.8867-34.082 61.5723-37.0117 61.5723-41.0156C61.5723-45.2148 58.7891-48.1934 55.0293-48.1934C51.0254-48.1934 48.3398-45.3125 48.3398-41.1133C48.3398-37.0117 51.0254-34.082 54.9805-34.082Z"/>
  </g>
  <g id="Thin-S" transform="matrix(1 0 0 1 812.599 696)">
   <path d="M20.3125-1.12305L67.334-1.12305C74.2676-1.12305 77.8809-4.78516 77.8809-11.6211L77.8809-58.6914C77.8809-65.5762 74.2676-69.2383 67.334-69.2383L20.3125-69.2383C13.3789-69.2383 9.76562-65.625 9.76562-58.6914L9.76562-11.6211C9.76562-4.6875 13.3789-1.12305 20.3125-1.12305ZM53.0762-18.9941C48.8281-18.9941 45.5566-21.4844 44.4824-23.5352C44.1895-24.0723 43.9453-24.707 43.9453-25.1953C43.9453-26.0254 44.4824-26.6113 45.2148-26.6113C45.8984-26.6113 46.3379-26.2207 46.7285-25.4395C47.8027-23.2422 50.2441-21.7773 53.0762-21.7773C58.6426-21.7773 61.9629-26.7578 61.9629-36.377L61.8164-36.377C60.4004-32.8613 57.2754-30.6641 52.7832-30.6641C47.2656-30.6641 42.9688-34.9121 42.9688-40.8691C42.9688-47.1191 47.3633-51.5137 53.5645-51.5137C60.3516-51.5137 64.6973-46.6309 64.6973-36.9629C64.6973-24.9023 60.6445-18.9941 53.0762-18.9941ZM31.8359-19.3359C31.0059-19.3359 30.4199-19.9219 30.4199-20.8008L30.4199-47.5098L30.2246-47.5098L24.1211-43.4082C23.6816-43.1152 23.4863-43.1152 23.1445-43.1152C22.4121-43.1152 21.7773-43.75 21.7773-44.4824C21.7773-45.0684 22.0215-45.5078 22.5586-45.8496L29.7363-50.5859C30.4688-51.0742 30.9082-51.2207 31.6406-51.2207C32.6172-51.2207 33.3008-50.5859 33.3008-49.6094L33.3008-20.8008C33.3008-19.9219 32.7637-19.3359 31.8359-19.3359ZM53.6133-33.252C58.1055-33.252 61.4258-36.5723 61.4258-41.0156C61.4258-45.5078 58.0566-48.8281 53.6621-48.8281C49.1211-48.8281 45.8984-45.6055 45.8984-41.0645C45.8984-36.5723 49.0723-33.252 53.6133-33.252Z"/>
  </g>
  <g id="Ultralight-S" transform="matrix(1 0 0 1 516.352 696)">
   <path d="M19.7754-1.5625L66.9922-1.5625C73.5352-1.5625 76.9531-5.12695 76.9531-11.5234L76.9531-58.7891C76.9531-65.2344 73.5352-68.75 66.9922-68.75L19.7754-68.75C13.2324-68.75 9.76562-65.2832 9.76562-58.7891L9.76562-11.5234C9.76562-5.0293 13.2324-1.5625 19.7754-1.5625ZM52.4414-19.3359C48.6328-19.3359 45.3613-21.582 44.1406-23.584C43.7988-24.1211 43.5059-24.8047 43.5059-25.293C43.5059-25.9277 43.8965-26.3184 44.4824-26.3184C45.0195-26.3184 45.3125-25.9766 45.6055-25.3418C46.7285-22.9492 49.4141-21.3867 52.4902-21.3867C58.4473-21.3867 61.8652-26.4648 61.8652-36.7676L61.8164-36.7676C60.2051-32.959 56.8848-30.8105 52.3438-30.8105C46.6797-30.8105 42.4805-35.2539 42.4805-40.918C42.4805-46.875 46.9238-51.1719 52.9785-51.1719C59.4727-51.1719 63.916-46.582 63.916-37.207C63.916-25.0977 59.9121-19.3359 52.4414-19.3359ZM31.3477-19.5801C30.7617-19.5801 30.2734-20.0195 30.2734-20.6543L30.2734-48.2422L30.127-48.2422L23.291-43.75C23.0469-43.6035 22.9492-43.6035 22.7051-43.6035C22.1191-43.6035 21.6797-44.0918 21.6797-44.6289C21.6797-44.9707 21.8262-45.3125 22.2168-45.5566L29.8828-50.5371C30.3711-50.8301 30.6641-50.9277 31.2012-50.9277C31.8848-50.9277 32.4219-50.4883 32.4219-49.7559L32.4219-20.6543C32.4219-20.0195 32.0312-19.5801 31.3477-19.5801ZM52.8809-32.8125C57.7148-32.8125 61.2793-36.3281 61.2793-40.9668C61.2793-45.6543 57.666-49.1211 52.9785-49.1211C48.1934-49.1211 44.6289-45.752 44.6289-41.0645C44.6289-36.3281 48.0469-32.8125 52.8809-32.8125Z"/>
  </g>
 </g>
</svg>
