<?xml version="1.0" encoding="UTF-8"?>
<!--Generator: Apple Native CoreSVG 149-->
<!DOCTYPE svg
PUBLIC "-//W3C//DTD SVG 1.1//EN"
       "http://www.w3.org/Graphics/SVG/1.1/DTD/svg11.dtd">
<svg version="1.1" xmlns="http://www.w3.org/2000/svg" xmlns:xlink="http://www.w3.org/1999/xlink" width="3300" height="2200">
 <!--glyph: "uni100555.medium", point size: 100.000000, font version: "Version 16.0d18e1", template writer version: "8"-->
 <g id="Notes">
  <rect height="2200" id="artboard" style="fill:white;opacity:1" width="3300" x="0" y="0"/>
  <line id="" style="fill:none;stroke:black;opacity:1;stroke-width:0.5;" x1="263" x2="3036" y1="292" y2="292"/>
  <text style="stroke:none;fill:black;font-family:-apple-system,&quot;SF Pro Display&quot;,&quot;SF Pro Text&quot;,Helvetica,sans-serif;font-weight:bold;" transform="matrix(1 0 0 1 263 322)">Weight/Scale Variations</text>
  <text style="stroke:none;fill:black;font-family:-apple-system,&quot;SF Pro Display&quot;,&quot;SF Pro Text&quot;,Helvetica,sans-serif;text-anchor:middle;" transform="matrix(1 0 0 1 559.711 322)">Ultralight</text>
  <text style="stroke:none;fill:black;font-family:-apple-system,&quot;SF Pro Display&quot;,&quot;SF Pro Text&quot;,Helvetica,sans-serif;text-anchor:middle;" transform="matrix(1 0 0 1 856.422 322)">Thin</text>
  <text style="stroke:none;fill:black;font-family:-apple-system,&quot;SF Pro Display&quot;,&quot;SF Pro Text&quot;,Helvetica,sans-serif;text-anchor:middle;" transform="matrix(1 0 0 1 1153.13 322)">Light</text>
  <text style="stroke:none;fill:black;font-family:-apple-system,&quot;SF Pro Display&quot;,&quot;SF Pro Text&quot;,Helvetica,sans-serif;text-anchor:middle;" transform="matrix(1 0 0 1 1449.84 322)">Regular</text>
  <text style="stroke:none;fill:black;font-family:-apple-system,&quot;SF Pro Display&quot;,&quot;SF Pro Text&quot;,Helvetica,sans-serif;text-anchor:middle;" transform="matrix(1 0 0 1 1746.56 322)">Medium</text>
  <text style="stroke:none;fill:black;font-family:-apple-system,&quot;SF Pro Display&quot;,&quot;SF Pro Text&quot;,Helvetica,sans-serif;text-anchor:middle;" transform="matrix(1 0 0 1 2043.27 322)">Semibold</text>
  <text style="stroke:none;fill:black;font-family:-apple-system,&quot;SF Pro Display&quot;,&quot;SF Pro Text&quot;,Helvetica,sans-serif;text-anchor:middle;" transform="matrix(1 0 0 1 2339.98 322)">Bold</text>
  <text style="stroke:none;fill:black;font-family:-apple-system,&quot;SF Pro Display&quot;,&quot;SF Pro Text&quot;,Helvetica,sans-serif;text-anchor:middle;" transform="matrix(1 0 0 1 2636.69 322)">Heavy</text>
  <text style="stroke:none;fill:black;font-family:-apple-system,&quot;SF Pro Display&quot;,&quot;SF Pro Text&quot;,Helvetica,sans-serif;text-anchor:middle;" transform="matrix(1 0 0 1 2933.4 322)">Black</text>
  <line id="" style="fill:none;stroke:black;opacity:1;stroke-width:0.5;" x1="263" x2="3036" y1="1903" y2="1903"/>
  <g id="" transform="matrix(1 0 0 1 263 1933)">
   <path d="M9.24805 0.830078C13.5547 0.830078 17.1387-2.74414 17.1387-7.05078C17.1387-11.3574 13.5449-14.9316 9.23828-14.9316C4.94141-14.9316 1.36719-11.3574 1.36719-7.05078C1.36719-2.74414 4.95117 0.830078 9.24805 0.830078ZM9.24805-0.654297C5.70312-0.654297 2.87109-3.49609 2.87109-7.05078C2.87109-10.6055 5.69336-13.4473 9.23828-13.4473C12.793-13.4473 15.6348-10.6055 15.6445-7.05078C15.6543-3.49609 12.8027-0.654297 9.24805-0.654297ZM6.39648-6.31836L8.50586-6.31836L8.50586-4.19922C8.50586-3.75977 8.79883-3.45703 9.22852-3.45703C9.67773-3.45703 9.9707-3.75977 9.9707-4.19922L9.9707-6.31836L12.0996-6.31836C12.5391-6.31836 12.8418-6.61133 12.8418-7.04102C12.8418-7.48047 12.5391-7.7832 12.0996-7.7832L9.9707-7.7832L9.9707-9.89258C9.9707-10.3418 9.67773-10.6445 9.22852-10.6445C8.79883-10.6445 8.50586-10.3418 8.50586-9.89258L8.50586-7.7832L6.39648-7.7832C5.94727-7.7832 5.64453-7.48047 5.64453-7.04102C5.64453-6.61133 5.94727-6.31836 6.39648-6.31836Z"/>
  </g>
  <g id="" transform="matrix(1 0 0 1 281.506 1933)">
   <path d="M11.709 2.91016C17.1582 2.91016 21.6699-1.61133 21.6699-7.05078C21.6699-12.5 17.1484-17.0117 11.6992-17.0117C6.25977-17.0117 1.74805-12.5 1.74805-7.05078C1.74805-1.61133 6.26953 2.91016 11.709 2.91016ZM11.709 1.25C7.09961 1.25 3.41797-2.44141 3.41797-7.05078C3.41797-11.6602 7.08984-15.3516 11.6992-15.3516C16.3086-15.3516 20-11.6602 20.0098-7.05078C20.0195-2.44141 16.3184 1.25 11.709 1.25ZM7.98828-6.23047L10.8789-6.23047L10.8789-3.32031C10.8789-2.83203 11.2109-2.5 11.6895-2.5C12.1777-2.5 12.5195-2.83203 12.5195-3.32031L12.5195-6.23047L15.4297-6.23047C15.918-6.23047 16.25-6.5625 16.25-7.04102C16.25-7.5293 15.918-7.87109 15.4297-7.87109L12.5195-7.87109L12.5195-10.7617C12.5195-11.2695 12.1777-11.6016 11.6895-11.6016C11.2109-11.6016 10.8789-11.2598 10.8789-10.7617L10.8789-7.87109L7.98828-7.87109C7.48047-7.87109 7.14844-7.5293 7.14844-7.04102C7.14844-6.5625 7.49023-6.23047 7.98828-6.23047Z"/>
  </g>
  <g id="" transform="matrix(1 0 0 1 304.924 1933)">
   <path d="M14.9707 5.66406C21.9336 5.66406 27.6953-0.0976562 27.6953-7.05078C27.6953-14.0137 21.9238-19.7754 14.9609-19.7754C8.00781-19.7754 2.25586-14.0137 2.25586-7.05078C2.25586-0.0976562 8.01758 5.66406 14.9707 5.66406ZM14.9707 3.84766C8.93555 3.84766 4.08203-1.01562 4.08203-7.05078C4.08203-13.0957 8.92578-17.9492 14.9609-17.9492C21.0059-17.9492 25.8594-13.0957 25.8691-7.05078C25.8789-1.01562 21.0156 3.84766 14.9707 3.84766ZM10.0586-6.14258L14.0625-6.14258L14.0625-2.12891C14.0625-1.5918 14.4336-1.2207 14.9512-1.2207C15.4883-1.2207 15.8594-1.5918 15.8594-2.12891L15.8594-6.14258L19.8828-6.14258C20.4102-6.14258 20.791-6.51367 20.791-7.03125C20.791-7.56836 20.4199-7.94922 19.8828-7.94922L15.8594-7.94922L15.8594-11.9531C15.8594-12.5098 15.4883-12.8809 14.9512-12.8809C14.4336-12.8809 14.0625-12.5 14.0625-11.9531L14.0625-7.94922L10.0586-7.94922C9.50195-7.94922 9.13086-7.56836 9.13086-7.03125C9.13086-6.51367 9.51172-6.14258 10.0586-6.14258Z"/>
  </g>
  <text style="stroke:none;fill:black;font-family:-apple-system,&quot;SF Pro Display&quot;,&quot;SF Pro Text&quot;,Helvetica,sans-serif;font-weight:bold;" transform="matrix(1 0 0 1 263 1953)">Design Variations</text>
  <text style="stroke:none;fill:black;font-family:-apple-system,&quot;SF Pro Display&quot;,&quot;SF Pro Text&quot;,Helvetica,sans-serif;" transform="matrix(1 0 0 1 263 1971)">Symbols are supported in up to nine weights and three scales.</text>
  <text style="stroke:none;fill:black;font-family:-apple-system,&quot;SF Pro Display&quot;,&quot;SF Pro Text&quot;,Helvetica,sans-serif;" transform="matrix(1 0 0 1 263 1989)">For optimal layout with text and other symbols, vertically align</text>
  <text style="stroke:none;fill:black;font-family:-apple-system,&quot;SF Pro Display&quot;,&quot;SF Pro Text&quot;,Helvetica,sans-serif;" transform="matrix(1 0 0 1 263 2007)">symbols with the adjacent text.</text>
  <line id="" style="fill:none;stroke:#00AEEF;stroke-width:0.5;opacity:1.0;" x1="776" x2="776" y1="1919" y2="1933"/>
  <g id="" transform="matrix(1 0 0 1 776 1933)">
   <path d="M3.31055 0.126953C3.82812 0.126953 4.08203-0.0683594 4.26758-0.605469L5.52734-4.0625L11.2891-4.0625L12.5488-0.605469C12.7344-0.0683594 12.9883 0.126953 13.4961 0.126953C14.0137 0.126953 14.3457-0.185547 14.3457-0.673828C14.3457-0.839844 14.3164-0.986328 14.2383-1.20117L9.6582-13.3887C9.43359-13.9941 9.0332-14.2871 8.4082-14.2871C7.80273-14.2871 7.39258-13.9941 7.17773-13.3984L2.59766-1.19141C2.51953-0.976562 2.49023-0.830078 2.49023-0.664062C2.49023-0.175781 2.80273 0.126953 3.31055 0.126953ZM6.00586-5.53711L8.37891-12.1094L8.42773-12.1094L10.8008-5.53711Z"/>
  </g>
  <line id="" style="fill:none;stroke:#00AEEF;stroke-width:0.5;opacity:1.0;" x1="792.836" x2="792.836" y1="1919" y2="1933"/>
  <text style="stroke:none;fill:black;font-family:-apple-system,&quot;SF Pro Display&quot;,&quot;SF Pro Text&quot;,Helvetica,sans-serif;font-weight:bold;" transform="matrix(1 0 0 1 776 1953)">Margins</text>
  <text style="stroke:none;fill:black;font-family:-apple-system,&quot;SF Pro Display&quot;,&quot;SF Pro Text&quot;,Helvetica,sans-serif;" transform="matrix(1 0 0 1 776 1971)">Leading and trailing margins on the left and right side of each symbol</text>
  <text style="stroke:none;fill:black;font-family:-apple-system,&quot;SF Pro Display&quot;,&quot;SF Pro Text&quot;,Helvetica,sans-serif;" transform="matrix(1 0 0 1 776 1989)">can be adjusted by modifying the x-location of the margin guidelines.</text>
  <text style="stroke:none;fill:black;font-family:-apple-system,&quot;SF Pro Display&quot;,&quot;SF Pro Text&quot;,Helvetica,sans-serif;" transform="matrix(1 0 0 1 776 2007)">Modifications are automatically applied proportionally to all</text>
  <text style="stroke:none;fill:black;font-family:-apple-system,&quot;SF Pro Display&quot;,&quot;SF Pro Text&quot;,Helvetica,sans-serif;" transform="matrix(1 0 0 1 776 2025)">scales and weights.</text>
  <g id="" transform="matrix(1 0 0 1 1289 1933)">
   <path d="M2.8418 1.86523L4.54102 3.57422C5.40039 4.44336 6.38672 4.38477 7.31445 3.35938L17.4902-7.85156C17.7539-7.76367 18.0273-7.7832 18.3398-7.8418L19.4043-8.03711L20.0684-7.36328L20.0293-6.80664C19.9902-6.30859 20.1172-5.92773 20.6055-5.44922L21.3672-4.70703C21.8457-4.22852 22.4609-4.19922 22.9297-4.66797L25.8398-7.58789C26.3086-8.05664 26.2891-8.65234 25.8105-9.13086L25.0391-9.89258C24.5605-10.3711 24.1895-10.5273 23.7109-10.4883L23.1348-10.4395L22.4902-11.0742L22.7344-12.1973C22.8613-12.7637 22.7051-13.2031 22.1191-13.7891L19.9219-15.9766C16.582-19.2969 12.1484-19.2188 9.25781-16.3281C8.83789-15.918 8.80859-15.3418 9.04297-14.9512C9.27734-14.5898 9.73633-14.3555 10.3809-14.5215C11.8457-14.8633 13.3691-14.9219 14.7949-13.9844L14.209-12.5293C14.0137-12.0508 13.9844-11.6504 14.1113-11.2891L3.04688-0.898438C2.06055 0.0195312 1.98242 0.996094 2.8418 1.86523ZM10.752-15.957C13.1836-17.7344 16.4746-17.4316 18.7012-15.2051L21.1328-12.793C21.3672-12.5586 21.4062-12.373 21.3379-12.0312L21.0156-10.5469L22.5195-9.0625L23.5059-9.12109C23.7598-9.13086 23.8379-9.11133 24.0332-8.91602L24.6094-8.33984L22.168-5.89844L21.5918-6.47461C21.3965-6.66992 21.3672-6.74805 21.377-7.01172L21.4453-7.98828L19.9512-9.47266L18.4277-9.21875C18.1055-9.15039 17.959-9.17969 17.7148-9.41406L15.7129-11.416C15.459-11.6504 15.4297-11.8164 15.5859-12.1875L16.4648-14.2773C14.9023-15.7324 12.8711-16.3574 10.8398-15.7617C10.6836-15.7227 10.625-15.8496 10.752-15.957ZM5.27344 2.30469L4.10156 1.14258C3.63281 0.683594 3.74023 0.341797 4.14062-0.0195312L14.9512-10.1953L16.416-8.71094L6.42578 2.27539C6.07422 2.67578 5.74219 2.77344 5.27344 2.30469Z"/>
  </g>
  <text style="stroke:none;fill:black;font-family:-apple-system,&quot;SF Pro Display&quot;,&quot;SF Pro Text&quot;,Helvetica,sans-serif;font-weight:bold;" transform="matrix(1 0 0 1 1289 1953)">Exporting</text>
  <text style="stroke:none;fill:black;font-family:-apple-system,&quot;SF Pro Display&quot;,&quot;SF Pro Text&quot;,Helvetica,sans-serif;" transform="matrix(1 0 0 1 1289 1971)">Symbols should be outlined when exporting to ensure the</text>
  <text style="stroke:none;fill:black;font-family:-apple-system,&quot;SF Pro Display&quot;,&quot;SF Pro Text&quot;,Helvetica,sans-serif;" transform="matrix(1 0 0 1 1289 1989)">design is preserved when submitting to Xcode.</text>
  <text id="template-version" style="stroke:none;fill:black;font-family:-apple-system,&quot;SF Pro Display&quot;,&quot;SF Pro Text&quot;,Helvetica,sans-serif;text-anchor:end;" transform="matrix(1 0 0 1 3036 1933)">Template v.2.0</text>
  <text style="stroke:none;fill:black;font-family:-apple-system,&quot;SF Pro Display&quot;,&quot;SF Pro Text&quot;,Helvetica,sans-serif;text-anchor:end;" transform="matrix(1 0 0 1 3036 1951)">Requires Xcode 12 or greater</text>
  <text style="stroke:none;fill:black;font-family:-apple-system,&quot;SF Pro Display&quot;,&quot;SF Pro Text&quot;,Helvetica,sans-serif;text-anchor:end;" transform="matrix(1 0 0 1 3036 1969)">Generated from 13.square.fill</text>
  <text style="stroke:none;fill:black;font-family:-apple-system,&quot;SF Pro Display&quot;,&quot;SF Pro Text&quot;,Helvetica,sans-serif;text-anchor:end;" transform="matrix(1 0 0 1 3036 1987)">Typeset at 100 points</text>
  <text style="stroke:none;fill:black;font-family:-apple-system,&quot;SF Pro Display&quot;,&quot;SF Pro Text&quot;,Helvetica,sans-serif;" transform="matrix(1 0 0 1 263 726)">Small</text>
  <text style="stroke:none;fill:black;font-family:-apple-system,&quot;SF Pro Display&quot;,&quot;SF Pro Text&quot;,Helvetica,sans-serif;" transform="matrix(1 0 0 1 263 1156)">Medium</text>
  <text style="stroke:none;fill:black;font-family:-apple-system,&quot;SF Pro Display&quot;,&quot;SF Pro Text&quot;,Helvetica,sans-serif;" transform="matrix(1 0 0 1 263 1586)">Large</text>
 </g>
 <g id="Guides">
  <g id="H-reference" style="fill:#27AAE1;stroke:none;" transform="matrix(1 0 0 1 339 696)">
   <path d="M0.976562 0L3.66211 0L12.9883-24.4629L45.752-24.4629L55.127 0L57.7637 0L30.6152-70.459L28.125-70.459ZM29.3457-67.1387L29.4434-67.1387L44.873-26.709L13.8672-26.709Z"/>
  </g>
  <line id="Baseline-S" style="fill:none;stroke:#27AAE1;opacity:1;stroke-width:0.5;" x1="263" x2="3036" y1="696" y2="696"/>
  <line id="Capline-S" style="fill:none;stroke:#27AAE1;opacity:1;stroke-width:0.5;" x1="263" x2="3036" y1="625.541" y2="625.541"/>
  <g id="H-reference" style="fill:#27AAE1;stroke:none;" transform="matrix(1 0 0 1 339 1126)">
   <path d="M0.976562 0L3.66211 0L12.9883-24.4629L45.752-24.4629L55.127 0L57.7637 0L30.6152-70.459L28.125-70.459ZM29.3457-67.1387L29.4434-67.1387L44.873-26.709L13.8672-26.709Z"/>
  </g>
  <line id="Baseline-M" style="fill:none;stroke:#27AAE1;opacity:1;stroke-width:0.5;" x1="263" x2="3036" y1="1126" y2="1126"/>
  <line id="Capline-M" style="fill:none;stroke:#27AAE1;opacity:1;stroke-width:0.5;" x1="263" x2="3036" y1="1055.54" y2="1055.54"/>
  <g id="H-reference" style="fill:#27AAE1;stroke:none;" transform="matrix(1 0 0 1 339 1556)">
   <path d="M0.976562 0L3.66211 0L12.9883-24.4629L45.752-24.4629L55.127 0L57.7637 0L30.6152-70.459L28.125-70.459ZM29.3457-67.1387L29.4434-67.1387L44.873-26.709L13.8672-26.709Z"/>
  </g>
  <line id="Baseline-L" style="fill:none;stroke:#27AAE1;opacity:1;stroke-width:0.5;" x1="263" x2="3036" y1="1556" y2="1556"/>
  <line id="Capline-L" style="fill:none;stroke:#27AAE1;opacity:1;stroke-width:0.5;" x1="263" x2="3036" y1="1485.54" y2="1485.54"/>
  <line id="left-margin" style="fill:none;stroke:#00AEEF;stroke-width:0.5;opacity:1.0;" x1="1392.45" x2="1392.45" y1="1030.79" y2="1150.12"/>
  <line id="right-margin" style="fill:none;stroke:#00AEEF;stroke-width:0.5;opacity:1.0;" x1="1507.24" x2="1507.24" y1="1030.79" y2="1150.12"/>
 </g>
 <g id="Symbols">
  <g id="Black-L" transform="matrix(1 0 0 1 2855.62 1556)">
   <path d="M39.9902 26.5137L115.576 26.5137C130.811 26.5137 139.502 17.8711 139.502 2.68555L139.502-73.0957C139.502-88.2812 130.811-96.875 115.576-96.875L39.9902-96.875C24.7559-96.875 16.0645-88.2812 16.0645-73.0957L16.0645 2.68555C16.0645 17.8711 24.7559 26.5137 39.9902 26.5137ZM94.2383-8.98438C86.3281-8.98438 79.4922-13.8672 77.9785-19.0918C77.6367-20.166 77.4414-21.1914 77.4414-22.2656C77.4414-25.7812 80.1758-27.7344 82.7148-27.7344C85.1562-27.7344 86.7676-26.709 88.0371-24.707C89.5508-22.0215 91.8457-20.7031 94.4824-20.7031C97.3633-20.7031 99.3652-22.7539 99.3652-25.1465C99.3652-27.9785 97.5098-29.7363 94.2871-29.7363L93.3105-29.7363C89.3555-29.7363 87.5-32.1777 87.5-35.5957C87.5-39.1113 89.6484-41.4551 93.3105-41.4551L94.1895-41.4551C97.168-41.4551 98.6328-43.5547 98.6328-45.8496C98.6328-48.5352 96.7285-50.2441 94.1895-50.2441C91.5527-50.2441 89.8926-49.0234 88.3789-46.2891C87.3047-44.3848 85.6934-43.2129 83.2031-43.2129C80.2246-43.2129 78.125-45.2148 78.125-48.6328C78.125-49.7559 78.3203-50.7812 78.8574-52.1973C80.4688-56.4941 86.1328-61.5234 94.3848-61.5234C104.59-61.5234 111.133-56.0547 111.133-47.7051C111.133-42.5781 107.617-37.7441 102.979-37.0117L102.979-36.377C108.545-35.9863 112.354-30.7129 112.354-24.3652C112.354-15.0879 105.225-8.98438 94.2383-8.98438ZM63.1836-9.22852C58.9844-9.22852 56.8848-11.7188 56.8848-16.5527L56.8848-45.9473L56.6406-45.9473L53.6133-43.0176C52.002-41.2109 50.7324-40.4297 48.6328-40.4297C45.8496-40.4297 43.5547-42.8711 43.5547-45.7031C43.5547-48.1934 44.5801-49.9512 46.9727-52.1484L53.4668-57.7148C56.6895-60.6934 58.8867-61.4258 61.6211-61.4258C66.748-61.4258 69.4336-58.3496 69.4336-53.125L69.4336-16.5527C69.4336-11.7188 67.334-9.22852 63.1836-9.22852Z"/>
  </g>
  <g id="Heavy-L" transform="matrix(1 0 0 1 2559.93 1556)">
   <path d="M38.8184 25.4883L114.697 25.4883C129.346 25.4883 137.451 17.4316 137.451 2.88086L137.451-73.2422C137.451-87.793 129.346-95.8496 114.697-95.8496L38.8184-95.8496C24.2188-95.8496 16.0645-87.793 16.0645-73.2422L16.0645 2.88086C16.0645 17.4316 24.2188 25.4883 38.8184 25.4883ZM92.8223-8.69141C84.7168-8.69141 77.9297-13.623 76.3184-19.043C76.0254-20.0195 75.8301-20.9473 75.8301-21.9727C75.8301-25.1465 78.2715-27.002 80.6641-27.002C82.9102-27.002 84.375-25.9277 85.498-24.0234C87.0605-20.8008 89.7461-19.1895 93.0176-19.1895C96.7773-19.1895 99.3652-21.6797 99.3652-24.7559C99.3652-28.2227 96.9727-30.4688 92.9688-30.4688L91.2109-30.4688C87.793-30.4688 86.084-32.666 86.084-35.7422C86.084-38.8672 87.9883-40.9668 91.2109-40.9668L92.8223-40.9668C96.3867-40.9668 98.4375-43.457 98.4375-46.3867C98.4375-49.6094 96.0938-51.6602 92.8223-51.6602C89.5508-51.6602 87.4512-50.0977 86.0352-46.875C85.0586-44.9707 83.5938-43.8477 81.2988-43.8477C78.5156-43.8477 76.6602-45.752 76.6602-48.8281C76.6602-49.9023 76.8066-50.8301 77.1973-52.0996C78.8574-56.8848 84.7168-61.8652 93.0176-61.8652C103.027-61.8652 109.668-56.3477 109.668-48.0469C109.668-42.6758 105.957-37.6953 101.123-36.9141L101.123-36.377C106.934-35.9375 110.986-30.6152 110.986-24.1211C110.986-14.8926 103.76-8.69141 92.8223-8.69141ZM61.4258-9.0332C57.7148-9.0332 55.7617-11.2305 55.7617-15.4785L55.7617-47.7051L55.4688-47.7051L51.3184-44.1406C49.8047-42.5293 48.7305-41.9434 46.875-41.9434C44.3359-41.9434 42.2363-44.1895 42.2363-46.7773C42.2363-49.0234 43.2129-50.5859 45.3125-52.4414L52.7344-58.3984C55.6641-60.9863 57.6172-61.6699 60.1074-61.6699C64.5508-61.6699 67.041-58.9355 67.041-54.3945L67.041-15.4785C67.041-11.2305 65.0879-9.0332 61.4258-9.0332Z"/>
  </g>
  <g id="Bold-L" transform="matrix(1 0 0 1 2264.37 1556)">
   <path d="M37.5 24.3652L113.721 24.3652C127.637 24.3652 135.156 16.8945 135.156 3.07617L135.156-73.3887C135.156-87.207 127.637-94.7266 113.721-94.7266L37.5-94.7266C23.6328-94.7266 16.0645-87.2559 16.0645-73.3887L16.0645 3.07617C16.0645 16.8945 23.6328 24.3652 37.5 24.3652ZM91.2109-8.30078C82.9102-8.30078 76.123-13.3789 74.5117-18.9453C74.2188-19.8242 74.0723-20.6543 74.0723-21.6309C74.0723-24.4141 76.123-26.123 78.3691-26.123C80.4199-26.123 81.7383-25.0977 82.666-23.1934C84.3262-19.4824 87.3535-17.4805 91.3574-17.4805C96.1426-17.4805 99.3652-20.5078 99.3652-24.3652C99.3652-28.5645 96.3379-31.2988 91.5039-31.2988L88.916-31.2988C86.0352-31.2988 84.4727-33.2031 84.4727-35.8398C84.4727-38.623 86.1816-40.4785 88.916-40.4785L91.3086-40.4785C95.5078-40.4785 98.1934-43.3594 98.1934-46.9727C98.1934-50.7812 95.3125-53.2715 91.2598-53.2715C87.3047-53.2715 84.7168-51.2695 83.3496-47.5586C82.5195-45.6543 81.25-44.6289 79.1504-44.6289C76.6113-44.6289 74.9512-46.3379 74.9512-49.1211C74.9512-50.0488 75.0488-50.8789 75.3906-52.002C77.002-57.2754 83.1055-62.207 91.4551-62.207C101.318-62.207 107.959-56.6406 107.959-48.3887C107.959-42.7734 104.053-37.6465 99.0234-36.8652L99.0234-36.377C105.127-35.8398 109.424-30.4688 109.424-23.8281C109.424-14.6484 102.1-8.30078 91.2109-8.30078ZM59.4238-8.78906C56.2988-8.78906 54.541-10.7422 54.541-14.2578L54.541-49.707L54.1992-49.707L48.7793-45.4102C47.3145-44.043 46.4355-43.6035 44.9219-43.6035C42.6758-43.6035 40.7715-45.6055 40.7715-47.9492C40.7715-49.9023 41.6504-51.3184 43.4082-52.832L51.9043-59.1309C54.4922-61.3281 56.1523-61.9141 58.4473-61.9141C62.1582-61.9141 64.3555-59.5703 64.3555-55.7617L64.3555-14.2578C64.3555-10.7422 62.5977-8.78906 59.4238-8.78906Z"/>
  </g>
  <g id="Semibold-L" transform="matrix(1 0 0 1 1968.44 1556)">
   <path d="M36.6211 23.584L113.037 23.584C126.514 23.584 133.594 16.5039 133.594 3.17383L133.594-73.5352C133.594-86.8164 126.514-93.9453 113.037-93.9453L36.6211-93.9453C23.1934-93.9453 16.0645-86.8652 16.0645-73.5352L16.0645 3.17383C16.0645 16.5527 23.1934 23.584 36.6211 23.584ZM90.1367-8.05664C81.6895-8.05664 74.9023-13.2324 73.2422-18.8965C72.9492-19.7266 72.8516-20.5078 72.8516-21.3867C72.8516-23.877 74.6582-25.4883 76.7578-25.4883C78.6621-25.4883 79.8828-24.5605 80.7129-22.6562C82.373-18.5547 85.7422-16.3086 90.2344-16.3086C95.7031-16.3086 99.3652-19.6777 99.3652-24.1211C99.3652-28.7598 95.8984-31.8359 90.4785-31.8359L87.3047-31.8359C84.8145-31.8359 83.3496-33.5938 83.3496-35.9375C83.3496-38.4766 84.9121-40.1367 87.3047-40.1367L90.2344-40.1367C94.9219-40.1367 98.0469-43.3105 98.0469-47.4121C98.0469-51.5625 94.8242-54.3457 90.2344-54.3457C85.7422-54.3457 82.8613-52.0996 81.4941-48.0469C80.7617-46.1426 79.6387-45.166 77.6855-45.166C75.293-45.166 73.8281-46.7773 73.8281-49.2676C73.8281-50.1465 73.877-50.9277 74.1699-51.9043C75.7812-57.5684 82.0312-62.4512 90.3809-62.4512C100.146-62.4512 106.787-56.8359 106.787-48.6328C106.787-42.8711 102.783-37.6465 97.6074-36.7676L97.6074-36.377C103.857-35.791 108.398-30.3711 108.398-23.6816C108.398-14.502 100.928-8.05664 90.1367-8.05664ZM58.0566-8.64258C55.3223-8.64258 53.6621-10.4004 53.6621-13.4277L53.6621-51.0742L53.3691-51.0742L46.9727-46.2891C45.6055-45.0684 44.873-44.7754 43.6035-44.7754C41.5527-44.7754 39.7461-46.582 39.7461-48.7793C39.7461-50.5371 40.5273-51.8066 42.1387-53.0762L51.3672-59.668C53.7109-61.5234 55.1758-62.1094 57.2754-62.1094C60.498-62.1094 62.5-60.0098 62.5-56.7383L62.5-13.4277C62.5-10.4004 60.8398-8.64258 58.0566-8.64258Z"/>
  </g>
  <g id="Medium-L" transform="matrix(1 0 0 1 1672.31 1556)">
   <path d="M35.9375 22.998L112.5 22.998C125.635 22.998 132.422 16.2109 132.422 3.27148L132.422-73.6328C132.422-86.5234 125.635-93.3105 112.5-93.3105L35.9375-93.3105C22.9004-93.3105 16.0645-86.5723 16.0645-73.6328L16.0645 3.27148C16.0645 16.2598 22.9004 22.998 35.9375 22.998ZM89.3066-7.91016C80.7129-7.91016 73.9746-13.0859 72.2656-18.8477C72.0215-19.6289 71.9238-20.3613 71.9238-21.2402C71.9238-23.4863 73.5352-25.0488 75.5859-25.0488C77.3926-25.0488 78.4668-24.1211 79.248-22.2656C80.957-17.8711 84.5215-15.4297 89.3555-15.4297C95.3613-15.4297 99.3652-19.043 99.3652-23.9258C99.3652-28.9062 95.6055-32.2754 89.7461-32.2754L86.1328-32.2754C83.8867-32.2754 82.5195-33.8867 82.5195-36.0352C82.5195-38.3301 83.9355-39.8438 86.1328-39.8438L89.4531-39.8438C94.4336-39.8438 97.9492-43.2617 97.9492-47.7539C97.9492-52.1973 94.4336-55.1758 89.4043-55.1758C84.5703-55.1758 81.4453-52.7344 80.127-48.3887C79.4434-46.4844 78.418-45.5566 76.5625-45.5566C74.3164-45.5566 72.9492-47.0703 72.9492-49.4141C72.9492-50.2441 72.998-50.9766 73.1934-51.8555C74.8047-57.8125 81.2012-62.6465 89.5508-62.6465C99.2188-62.6465 105.908-56.9824 105.908-48.8281C105.908-42.9199 101.807-37.5977 96.5332-36.7676L96.5332-36.377C102.93-35.7422 107.617-30.2734 107.617-23.5352C107.617-14.3555 100.098-7.91016 89.3066-7.91016ZM57.0312-8.49609C54.541-8.49609 53.0273-10.1074 53.0273-12.793L53.0273-52.0996L52.6855-52.0996L45.6543-46.9238C44.3359-45.8496 43.7012-45.6543 42.5781-45.6543C40.6738-45.6543 38.9648-47.3633 38.9648-49.4141C38.9648-51.0254 39.7461-52.1973 41.1621-53.2715L50.9277-60.0586C53.0762-61.7188 54.3945-62.2559 56.3965-62.2559C59.2285-62.2559 61.084-60.3516 61.084-57.4707L61.084-12.793C61.084-10.1074 59.5215-8.49609 57.0312-8.49609Z"/>
  </g>
  <g id="Regular-L" transform="matrix(1 0 0 1 1376.38 1556)">
   <path d="M35.0586 22.2168L111.816 22.2168C124.463 22.2168 130.859 15.8691 130.859 3.41797L130.859-73.7305C130.859-86.1816 124.463-92.5293 111.816-92.5293L35.0586-92.5293C22.4609-92.5293 16.0645-86.2305 16.0645-73.7305L16.0645 3.41797C16.0645 15.918 22.4609 22.2168 35.0586 22.2168ZM88.1836-7.66602C79.4922-7.66602 72.7539-12.8906 70.9961-18.7988C70.8008-19.5312 70.7031-20.166 70.7031-20.9961C70.7031-22.998 72.0703-24.4629 74.0234-24.4629C75.6836-24.4629 76.6602-23.5352 77.2949-21.7285C79.0527-16.9434 82.9102-14.2578 88.2324-14.2578C94.873-14.2578 99.4141-18.2617 99.4141-23.6328C99.4141-29.1016 95.166-32.8125 88.7207-32.8125L84.5215-32.8125C82.666-32.8125 81.3965-34.2285 81.3965-36.084C81.3965-38.1836 82.666-39.502 84.5215-39.502L88.3789-39.502C93.8477-39.502 97.7539-43.1641 97.7539-48.1445C97.7539-52.9785 93.8965-56.25 88.3789-56.25C83.0566-56.25 79.5898-53.5156 78.3203-48.8281C77.7344-46.9238 76.8066-46.0449 75.0977-46.0449C72.998-46.0449 71.7773-47.5098 71.7773-49.5605C71.7773-50.3418 71.8262-51.0254 71.9727-51.7578C73.584-58.1055 80.127-62.8906 88.5254-62.8906C98.0469-62.8906 104.785-57.1777 104.785-49.0723C104.785-43.0176 100.537-37.5977 95.1172-36.6699L95.1172-36.377C101.709-35.6934 106.543-30.1758 106.543-23.3398C106.543-14.209 98.9746-7.66602 88.1836-7.66602ZM55.6641-8.34961C53.5645-8.34961 52.1484-9.76562 52.1484-11.9629L52.1484-53.4668L51.8066-53.4668L43.8965-47.8027C42.627-46.875 42.1387-46.8262 41.2109-46.8262C39.5508-46.8262 37.9395-48.3398 37.9395-50.1953C37.9395-51.6602 38.6719-52.6855 39.8438-53.5645L50.3906-60.5957C52.2949-61.9141 53.418-62.4512 55.2734-62.4512C57.5684-62.4512 59.2285-60.791 59.2285-58.3984L59.2285-11.9629C59.2285-9.76562 57.8125-8.34961 55.6641-8.34961Z"/>
  </g>
  <g id="Light-L" transform="matrix(1 0 0 1 1080.5 1556)">
   <path d="M34.0332 21.4355L111.23 21.4355C123.096 21.4355 129.199 15.2344 129.199 3.56445L129.199-73.8281C129.199-85.5469 123.096-91.6992 111.23-91.6992L34.0332-91.6992C22.168-91.6992 16.0645-85.6445 16.0645-73.8281L16.0645 3.56445C16.0645 15.3809 22.168 21.4355 34.0332 21.4355ZM86.9629-8.20312C78.5156-8.20312 71.9727-13.2324 70.2148-18.9941C70.0195-19.6289 69.873-20.2148 69.873-20.9961C69.873-22.6074 70.9961-23.8281 72.6074-23.8281C73.9746-23.8281 74.7559-23.0469 75.293-21.4844C77.0508-16.5039 81.4453-13.5742 86.9629-13.5742C94.1895-13.5742 99.0234-17.7734 99.0234-23.6816C99.0234-29.3457 94.2871-33.4473 87.5488-33.4473L82.8613-33.4473C81.2988-33.4473 80.3223-34.6191 80.3223-36.1328C80.3223-37.8418 81.3477-38.8672 82.8613-38.8672L87.1582-38.8672C93.0176-38.8672 97.3145-42.8711 97.3145-48.1934C97.3145-53.418 93.1152-56.9824 87.0117-56.9824C81.2988-56.9824 77.4414-53.9062 76.3184-49.0723C75.8789-47.4121 75.0977-46.6797 73.6816-46.6797C71.9238-46.6797 70.9473-47.9004 70.9473-49.6094C70.9473-50.293 70.9961-50.8789 71.1426-51.5625C72.7051-57.9102 79.1992-62.3535 87.1094-62.3535C96.3867-62.3535 103.027-56.7871 103.027-48.877C103.027-42.9688 98.7305-37.5488 93.2129-36.5723L93.2129-36.3281C99.8047-35.6445 104.785-30.1758 104.785-23.4863C104.785-14.5996 97.3633-8.20312 86.9629-8.20312ZM54.5898-8.78906C52.9785-8.78906 51.8066-9.91211 51.8066-11.6699L51.8066-54.7363L51.5137-54.7363L42.2363-48.3887C41.3086-47.7051 40.918-47.7051 40.2344-47.7051C38.8672-47.7051 37.6465-48.9258 37.6465-50.3906C37.6465-51.5137 38.1348-52.3438 39.1113-53.0273L50.4883-60.5469C51.9043-61.5234 52.832-61.9141 54.248-61.9141C56.1035-61.9141 57.4219-60.6445 57.4219-58.6914L57.4219-11.6699C57.4219-9.91211 56.3477-8.78906 54.5898-8.78906Z"/>
  </g>
  <g id="Thin-L" transform="matrix(1 0 0 1 784.889 1556)">
   <path d="M32.666 20.3613L110.352 20.3613C121.24 20.3613 127.002 14.4531 127.002 3.75977L127.002-73.9746C127.002-84.7168 121.24-90.5762 110.352-90.5762L32.666-90.5762C21.7773-90.5762 16.0645-84.8633 16.0645-73.9746L16.0645 3.75977C16.0645 14.6484 21.7773 20.3613 32.666 20.3613ZM85.3027-8.93555C77.2461-8.93555 70.9473-13.6719 69.1406-19.2871C68.9453-19.7754 68.7988-20.3125 68.7988-20.9473C68.7988-22.0703 69.5312-22.9492 70.7031-22.9492C71.7773-22.9492 72.3145-22.3633 72.6562-21.1914C74.3652-15.8691 79.4922-12.5977 85.3027-12.5977C93.2129-12.5977 98.4863-17.1875 98.4863-23.6816C98.4863-29.6875 93.1641-34.3262 85.9863-34.3262L80.6641-34.3262C79.541-34.3262 78.8574-35.0586 78.8574-36.1328C78.8574-37.3535 79.5898-37.9883 80.6641-37.9883L85.498-37.9883C91.9434-37.9883 96.7285-42.5293 96.7285-48.291C96.7285-54.0039 92.0898-57.959 85.2539-57.959C79.0039-57.959 74.6582-54.4434 73.7305-49.3652C73.4375-48.0469 72.8027-47.5098 71.8262-47.5098C70.4102-47.5098 69.873-48.3887 69.873-49.6582C69.873-50.1953 69.9219-50.7324 70.0684-51.3184C71.5332-57.6172 78.0273-61.6211 85.2539-61.6211C94.1895-61.6211 100.684-56.25 100.684-48.6816C100.684-42.8711 96.3379-37.4512 90.6738-36.4258L90.6738-36.3281C97.3145-35.5957 102.441-30.127 102.441-23.6328C102.441-15.0879 95.2148-8.93555 85.3027-8.93555ZM53.2227-9.375C52.1484-9.375 51.3672-10.1074 51.3672-11.2305L51.3672-56.4453L51.0742-56.4453L39.9902-49.1211C39.5508-48.877 39.3555-48.877 38.9648-48.877C37.9395-48.877 37.207-49.707 37.207-50.6348C37.207-51.3184 37.4023-51.8555 38.1348-52.3438L50.6348-60.4492C51.416-60.9863 52.002-61.1816 52.9297-61.1816C54.1504-61.1816 55.0781-60.4004 55.0781-59.1309L55.0781-11.2305C55.0781-10.1074 54.3945-9.375 53.2227-9.375Z"/>
  </g>
  <g id="Ultralight-L" transform="matrix(1 0 0 1 488.739 1556)">
   <path d="M31.9824 19.7754L109.961 19.7754C120.312 19.7754 125.879 14.0625 125.879 3.85742L125.879-74.0723C125.879-84.2773 120.312-89.9902 109.961-89.9902L31.9824-89.9902C21.582-89.9902 16.0645-84.4727 16.0645-74.0723L16.0645 3.85742C16.0645 14.2578 21.582 19.7754 31.9824 19.7754ZM84.4238-9.32617C76.5625-9.32617 70.459-13.916 68.5547-19.4336C68.4082-19.873 68.2617-20.3125 68.2617-20.9473C68.2617-21.7773 68.7988-22.5098 69.7266-22.5098C70.6055-22.5098 71.0449-21.9727 71.3379-21.0449C72.998-15.5762 78.4668-12.1094 84.4238-12.1094C92.7246-12.1094 98.2422-16.8457 98.2422-23.6816C98.2422-29.8828 92.627-34.7656 85.1562-34.7656L79.541-34.7656C78.6133-34.7656 78.125-35.3027 78.125-36.1816C78.125-37.0605 78.7109-37.5488 79.541-37.5488L84.668-37.5488C91.4062-37.5488 96.4355-42.334 96.4355-48.3398C96.4355-54.2969 91.6016-58.4473 84.3262-58.4473C77.832-58.4473 73.1934-54.6875 72.3633-49.5117C72.168-48.3887 71.6309-47.9492 70.8496-47.9492C69.6777-47.9492 69.2871-48.6816 69.2871-49.6582C69.2871-50.1465 69.3848-50.6836 69.5312-51.2207C70.9473-57.4707 77.3926-61.2305 84.3262-61.2305C93.0664-61.2305 99.4629-55.957 99.4629-48.584C99.4629-42.8223 95.1172-37.4023 89.3555-36.377L89.3555-36.3281C96.0449-35.5957 101.221-30.127 101.221-23.7305C101.221-15.3809 94.1406-9.32617 84.4238-9.32617ZM52.4902-9.66797C51.7578-9.66797 51.123-10.2051 51.123-11.0352L51.123-57.3242L50.8789-57.3242L38.8672-49.5117C38.6719-49.4629 38.5254-49.4629 38.2812-49.4629C37.5-49.4629 36.9629-50.0977 36.9629-50.7812C36.9629-51.2207 37.0605-51.6602 37.6465-52.002L50.6836-60.4004C51.1719-60.6934 51.6113-60.8398 52.2461-60.8398C53.1738-60.8398 53.8574-60.3027 53.8574-59.3262L53.8574-11.0352C53.8574-10.2051 53.418-9.66797 52.4902-9.66797Z"/>
  </g>
  <g id="Black-M" transform="matrix(1 0 0 1 2872.19 1126)">
   <path d="M31.9824 13.5742L90.4297 13.5742C102.686 13.5742 109.961 6.29883 109.961-5.95703L109.961-64.4043C109.961-76.6602 102.686-83.9355 90.4297-83.9355L31.9824-83.9355C19.7266-83.9355 12.4512-76.6602 12.4512-64.4043L12.4512-5.95703C12.4512 6.29883 19.7266 13.5742 31.9824 13.5742ZM50.8301-15.625C47.1191-15.625 45.4102-17.6758 45.4102-22.0215L45.4102-41.8457L45.2148-41.8457L43.75-40.0391C42.5781-38.5254 41.4551-37.6953 39.5508-37.6953C37.1582-37.6953 35.3516-39.7461 35.3516-41.9922C35.3516-44.0918 36.1328-45.6055 38.2812-47.6074L42.4805-51.709C45.166-54.3457 47.0703-54.8828 49.2188-54.8828C53.8574-54.8828 56.1035-52.2461 56.1035-47.6074L56.1035-22.0215C56.1035-17.6758 54.3945-15.625 50.8301-15.625ZM74.2676-15.625C68.5547-15.625 63.3301-19.1406 62.207-22.9492C61.9141-23.8281 61.7188-24.707 61.7188-25.5859C61.7188-28.5645 64.1113-30.127 66.1133-30.127C68.1152-30.127 69.4824-29.3457 70.5566-27.9297C71.6797-26.3184 73.1934-25.6348 74.5117-25.6348C75.8789-25.6348 76.7578-26.7578 76.7578-27.8809C76.7578-29.3945 75.8789-30.3711 74.2188-30.3711C70.6543-30.3711 69.1895-32.4219 69.1895-35.3516C69.1895-38.3301 70.9961-40.332 74.2188-40.332C75.8789-40.332 76.4648-41.6992 76.4648-42.7246C76.4648-44.3848 75.4395-45.3613 74.1211-45.3613C72.7539-45.3613 71.7773-44.6777 70.6543-43.1152C69.7266-41.748 68.3594-40.8203 66.3574-40.8203C63.916-40.8203 62.1582-42.4316 62.1582-45.3125C62.1582-46.2891 62.3535-47.168 62.8418-48.4375C64.0625-51.123 68.1641-54.8828 74.2676-54.8828C82.2266-54.8828 87.207-50.7812 87.207-44.3848C87.207-40.7227 84.668-37.207 81.25-36.6211L81.25-36.1328C85.3027-35.8887 87.9395-31.8848 87.9395-27.1973C87.9395-20.1172 82.666-15.625 74.2676-15.625Z"/>
  </g>
  <g id="Heavy-M" transform="matrix(1 0 0 1 2576.39 1126)">
   <path d="M31.0059 12.6465L89.6484 12.6465C101.416 12.6465 108.154 5.9082 108.154-5.81055L108.154-64.5508C108.154-76.2695 101.416-83.0566 89.6484-83.0566L31.0059-83.0566C19.2383-83.0566 12.4512-76.3184 12.4512-64.5508L12.4512-5.81055C12.4512 5.9082 19.2383 12.6465 31.0059 12.6465ZM73.0469-15.1367C67.041-15.1367 61.8164-18.8477 60.6445-22.8027C60.3516-23.6328 60.2051-24.4141 60.2051-25.2441C60.2051-27.9785 62.3047-29.4434 64.209-29.4434C66.1133-29.4434 67.334-28.6621 68.3105-27.1973C69.4824-25.1465 71.2891-24.1699 73.2422-24.1699C75.4395-24.1699 76.8555-25.7324 76.8555-27.4902C76.8555-29.5898 75.4883-30.957 73.0957-30.957L72.3633-30.957C69.2871-30.957 67.8711-32.8613 67.8711-35.498C67.8711-38.1836 69.5312-39.9902 72.3633-39.9902L73.0469-39.9902C75.2441-39.9902 76.3672-41.6504 76.3672-43.3105C76.3672-45.4102 74.9023-46.7285 72.998-46.7285C70.9961-46.7285 69.6777-45.752 68.5547-43.7012C67.7246-42.2852 66.5039-41.4062 64.5996-41.4062C62.3047-41.4062 60.6934-42.9199 60.6934-45.5566C60.6934-46.4355 60.8887-47.2168 61.2793-48.3398C62.5488-51.5625 66.8457-55.3711 73.0957-55.3711C81.0059-55.3711 86.0352-51.1719 86.0352-44.7754C86.0352-40.8691 83.3496-37.1582 79.7363-36.5723L79.7363-36.1328C84.0332-35.8398 86.9141-31.7871 86.9141-26.9043C86.9141-19.7754 81.4941-15.1367 73.0469-15.1367ZM49.1699-15.2832C45.8496-15.2832 44.2871-17.1387 44.2871-20.9473L44.2871-43.457L44.0918-43.457L41.6992-41.1133C40.4785-39.7461 39.502-39.1113 37.8906-39.1113C35.6934-39.1113 33.9844-41.0156 33.9844-43.1152C33.9844-45.0195 34.7656-46.3867 36.6699-48.0957L41.6504-52.4414C44.1406-54.7852 45.8008-55.3223 47.8516-55.3223C51.8555-55.3223 53.9062-52.9297 53.9062-48.877L53.9062-20.9473C53.9062-17.1387 52.3438-15.2832 49.1699-15.2832Z"/>
  </g>
  <g id="Bold-M" transform="matrix(1 0 0 1 2280.68 1126)">
   <path d="M29.8828 11.6699L88.7207 11.6699C99.9512 11.6699 106.152 5.46875 106.152-5.66406L106.152-64.6973C106.152-75.8789 99.9512-82.0312 88.7207-82.0312L29.8828-82.0312C18.6523-82.0312 12.4512-75.8789 12.4512-64.6973L12.4512-5.66406C12.4512 5.51758 18.6523 11.6699 29.8828 11.6699ZM71.6797-14.5996C65.3809-14.5996 60.1074-18.457 58.8379-22.6562C58.5938-23.3887 58.4961-24.1211 58.4961-24.9023C58.4961-27.2949 60.3027-28.7109 62.1582-28.7109C63.8672-28.7109 64.9902-27.8809 65.8203-26.416C67.041-23.8281 69.1406-22.5098 71.8262-22.5098C74.9023-22.5098 77.002-24.5605 77.002-27.0508C77.002-29.8828 75.0488-31.6895 71.8262-31.6895L70.3125-31.6895C67.7246-31.6895 66.4551-33.3496 66.4551-35.6445C66.4551-38.0371 67.9199-39.5996 70.3125-39.5996L71.7285-39.5996C74.5605-39.5996 76.2695-41.6016 76.2695-43.9941C76.2695-46.582 74.3164-48.2422 71.6797-48.2422C69.043-48.2422 67.334-46.9238 66.2598-44.3848C65.5273-42.8711 64.4043-42.041 62.6465-42.041C60.5469-42.041 59.1309-43.5059 59.1309-45.8496C59.1309-46.6309 59.2285-47.3145 59.5215-48.291C60.791-52.0996 65.3809-55.957 71.8262-55.957C79.5898-55.957 84.7168-51.6113 84.7168-45.2148C84.7168-41.0156 81.8359-37.1582 78.0273-36.5234L78.0273-36.1328C82.5684-35.7422 85.791-31.5918 85.791-26.5625C85.791-19.3848 80.127-14.5996 71.6797-14.5996ZM47.2656-14.8926C44.4824-14.8926 43.0176-16.5527 43.0176-19.7266L43.0176-45.2148L42.7734-45.2148L39.3555-42.334C38.1836-41.1133 37.4023-40.6738 36.0352-40.6738C34.082-40.6738 32.4707-42.3828 32.4707-44.3848C32.4707-46.0449 33.2031-47.2656 34.8145-48.6816L40.7227-53.3203C42.9688-55.2246 44.3848-55.7617 46.3379-55.7617C49.6582-55.7617 51.5137-53.7109 51.5137-50.293L51.5137-19.7266C51.5137-16.5527 50.0488-14.8926 47.2656-14.8926Z"/>
  </g>
  <g id="Semibold-M" transform="matrix(1 0 0 1 1984.65 1126)">
   <path d="M29.1016 10.9863L88.0859 10.9863C98.9746 10.9863 104.785 5.17578 104.785-5.56641L104.785-64.8438C104.785-75.5859 98.9746-81.3477 88.0859-81.3477L29.1016-81.3477C18.2617-81.3477 12.4512-75.5859 12.4512-64.8438L12.4512-5.56641C12.4512 5.22461 18.2617 10.9863 29.1016 10.9863ZM70.7031-14.209C64.209-14.209 58.8867-18.2129 57.6172-22.5586C57.4219-23.2422 57.3242-23.877 57.3242-24.6582C57.3242-26.8066 58.8867-28.1738 60.6934-28.1738C62.3047-28.1738 63.3301-27.3926 64.0625-25.8301C65.332-22.9492 67.6758-21.3867 70.8496-21.3867C74.5605-21.3867 77.0996-23.7305 77.0996-26.7578C77.0996-30.0293 74.7559-32.1289 70.9473-32.1289L68.9453-32.1289C66.6992-32.1289 65.4297-33.6914 65.4297-35.7422C65.4297-37.9395 66.7969-39.3555 68.9453-39.3555L70.8008-39.3555C74.0723-39.3555 76.1719-41.6016 76.1719-44.4336C76.1719-47.3633 73.9258-49.2676 70.8008-49.2676C67.7246-49.2676 65.7227-47.7539 64.6484-44.8242C63.9648-43.3105 62.9883-42.4805 61.3281-42.4805C59.3262-42.4805 58.0078-43.8477 58.0078-45.9961C58.0078-46.7773 58.1055-47.4121 58.3496-48.2422C59.6191-52.4414 64.3555-56.2988 70.9473-56.2988C78.6133-56.2988 83.7891-51.9531 83.7891-45.5078C83.7891-41.1133 80.7617-37.1094 76.8555-36.4746L76.8555-36.1328C81.5918-35.6934 84.9609-31.4941 84.9609-26.3184C84.9609-19.1406 79.1992-14.209 70.7031-14.209ZM45.9961-14.5996C43.5547-14.5996 42.1387-16.1621 42.1387-18.8477L42.1387-46.4844L41.8945-46.4844L37.7441-43.1641C36.5723-42.0898 35.8887-41.7969 34.7168-41.7969C32.959-41.7969 31.4453-43.3594 31.4453-45.2148C31.4453-46.7773 32.1289-47.9004 33.5449-49.0234L40.0879-53.9062C42.1387-55.5664 43.4082-56.0547 45.2637-56.0547C48.1445-56.0547 49.8535-54.248 49.8535-51.2695L49.8535-18.8477C49.8535-16.1621 48.4375-14.5996 45.9961-14.5996Z"/>
  </g>
  <g id="Medium-M" transform="matrix(1 0 0 1 1688.47 1126)">
   <path d="M28.5156 10.4492L87.6465 10.4492C98.2422 10.4492 103.711 4.98047 103.711-5.46875L103.711-64.8926C103.711-75.3418 98.2422-80.8105 87.6465-80.8105L28.5156-80.8105C17.9688-80.8105 12.4512-75.3906 12.4512-64.8926L12.4512-5.46875C12.4512 4.98047 17.9688 10.4492 28.5156 10.4492ZM70.0195-13.916C63.3301-13.916 58.0078-18.0176 56.6895-22.4609C56.4941-23.1445 56.3965-23.7305 56.3965-24.4629C56.3965-26.4648 57.8613-27.7832 59.6191-27.7832C61.1328-27.7832 62.0605-27.002 62.7441-25.4395C64.0625-22.2168 66.5527-20.5078 70.0684-20.5078C74.3164-20.5078 77.1484-23.1445 77.1484-26.5137C77.1484-30.1758 74.5117-32.5195 70.3125-32.5195L67.8711-32.5195C65.8691-32.5195 64.6973-33.9355 64.6973-35.791C64.6973-37.8418 65.9668-39.1602 67.8711-39.1602L70.1172-39.1602C73.6816-39.1602 76.123-41.5527 76.123-44.7754C76.123-47.9492 73.6328-50.0977 70.1172-50.0977C66.6992-50.0977 64.502-48.3887 63.4277-45.166C62.793-43.6035 61.9141-42.8223 60.3027-42.8223C58.3984-42.8223 57.1777-44.1406 57.1777-46.1426C57.1777-46.875 57.2266-47.4609 57.4219-48.1934C58.6914-52.6855 63.623-56.5918 70.2637-56.5918C77.8809-56.5918 83.1055-52.1973 83.1055-45.752C83.1055-41.2109 79.9805-37.1094 75.9766-36.4746L75.9766-36.1328C80.8594-35.6445 84.375-31.4453 84.375-26.1719C84.375-18.9453 78.5156-13.916 70.0195-13.916ZM45.0195-14.4043C42.8223-14.4043 41.5039-15.8203 41.5039-18.2129L41.5039-47.4121L41.2109-47.4121L36.5723-43.7988C35.4004-42.8223 34.8145-42.627 33.7891-42.627C32.1289-42.627 30.6641-44.0918 30.6641-45.8984C30.6641-47.3145 31.3477-48.3398 32.5684-49.3164L39.5996-54.3457C41.5527-55.8105 42.7246-56.2988 44.4336-56.2988C46.9727-56.2988 48.584-54.6387 48.584-52.0508L48.584-18.2129C48.584-15.8203 47.2168-14.4043 45.0195-14.4043Z"/>
  </g>
  <g id="Regular-M" transform="matrix(1 0 0 1 1392.45 1126)">
   <path d="M27.7832 9.76562L87.0117 9.76562C97.2656 9.76562 102.344 4.6875 102.344-5.37109L102.344-64.9902C102.344-75.0488 97.2656-80.127 87.0117-80.127L27.7832-80.127C17.5781-80.127 12.4512-75.0977 12.4512-64.9902L12.4512-5.37109C12.4512 4.73633 17.5781 9.76562 27.7832 9.76562ZM69.0918-13.5254C62.1582-13.5254 56.8359-17.7246 55.5176-22.3633C55.3223-22.998 55.2246-23.5352 55.2246-24.2188C55.2246-25.9766 56.4941-27.2461 58.1543-27.2461C59.6191-27.2461 60.4492-26.4648 61.0352-24.8535C62.4023-21.3379 65.0879-19.3848 69.1406-19.3848C73.9258-19.3848 77.2461-22.3145 77.2461-26.2207C77.2461-30.3223 74.2188-33.0078 69.4336-33.0078L66.4551-33.0078C64.8438-33.0078 63.7207-34.2773 63.7207-35.8887C63.7207-37.7441 64.8438-38.916 66.4551-38.916L69.1895-38.916C73.1934-38.916 76.0254-41.5527 76.0254-45.2148C76.0254-48.7305 73.2422-51.123 69.2383-51.123C65.332-51.123 62.8906-49.1699 61.8164-45.6543C61.2793-44.043 60.498-43.2617 58.9844-43.2617C57.2266-43.2617 56.1035-44.5312 56.1035-46.3379C56.1035-46.9727 56.1035-47.5098 56.25-48.1445C57.5195-53.0762 62.5977-56.9824 69.3848-56.9824C76.9531-56.9824 82.2266-52.4902 82.2266-46.0449C82.2266-41.3086 78.9551-37.1094 74.8047-36.4258L74.8047-36.1328C79.8828-35.5957 83.5938-31.2988 83.5938-25.9277C83.5938-18.7012 77.5879-13.5254 69.0918-13.5254ZM43.75-14.1602C41.8945-14.1602 40.625-15.4297 40.625-17.3828L40.625-48.6328L40.332-48.6328L34.9609-44.6777C33.7891-43.75 33.3496-43.7012 32.5195-43.7012C31.0547-43.7012 29.5898-45.0195 29.5898-46.7285C29.5898-48.0469 30.2734-48.9746 31.2988-49.707L38.9648-54.9316C40.7227-56.1523 41.748-56.6406 43.4082-56.6406C45.459-56.6406 46.9238-55.127 46.9238-53.0273L46.9238-17.3828C46.9238-15.4297 45.6543-14.1602 43.75-14.1602Z"/>
  </g>
  <g id="Light-M" transform="matrix(1 0 0 1 1096.47 1126)">
   <path d="M26.8555 9.0332L86.4746 9.0332C95.9961 9.0332 100.879 4.15039 100.879-5.22461L100.879-65.0879C100.879-74.5117 95.9961-79.3945 86.4746-79.3945L26.8555-79.3945C17.334-79.3945 12.4512-74.5605 12.4512-65.0879L12.4512-5.22461C12.4512 4.19922 17.334 9.0332 26.8555 9.0332ZM67.9199-14.0625C61.2793-14.0625 56.1523-18.0176 54.7852-22.5586C54.5898-23.0957 54.541-23.584 54.541-24.2188C54.541-25.6348 55.5176-26.6602 56.8848-26.6602C58.1055-26.6602 58.7891-26.0254 59.2773-24.6582C60.5957-20.8984 63.7695-18.75 67.9688-18.75C73.291-18.75 76.9043-21.9238 76.9043-26.2695C76.9043-30.5664 73.4863-33.5938 68.3594-33.5938L64.9902-33.5938C63.623-33.5938 62.7441-34.5703 62.7441-35.9375C62.7441-37.4023 63.6719-38.3301 64.9902-38.3301L68.1152-38.3301C72.4609-38.3301 75.6348-41.3086 75.6348-45.2637C75.6348-49.1211 72.5098-51.7578 68.0664-51.7578C63.8184-51.7578 60.9863-49.5605 60.0586-45.8496C59.6191-44.4336 58.9844-43.8477 57.7148-43.8477C56.2012-43.8477 55.3711-44.873 55.3711-46.3379C55.3711-46.9238 55.3711-47.4121 55.5176-47.998C56.7383-52.8809 61.7676-56.4941 68.1152-56.4941C75.4395-56.4941 80.6152-52.0996 80.6152-45.8984C80.6152-41.2598 77.3438-37.0605 73.0957-36.3281L73.0957-36.084C78.2227-35.5957 81.9824-31.2988 81.9824-26.0742C81.9824-19.043 76.1719-14.0625 67.9199-14.0625ZM42.7734-14.5508C41.3086-14.5508 40.332-15.5762 40.332-17.0898L40.332-49.7559L40.0391-49.7559L33.4473-45.166C32.6172-44.5312 32.2754-44.4824 31.6406-44.4824C30.4199-44.4824 29.2969-45.5566 29.2969-46.9238C29.2969-47.9004 29.7852-48.6328 30.6641-49.2676L39.0625-54.8828C40.4297-55.8105 41.2109-56.1523 42.4805-56.1523C44.1406-56.1523 45.3125-54.9805 45.3125-53.2715L45.3125-17.0898C45.3125-15.5762 44.3359-14.5508 42.7734-14.5508Z"/>
  </g>
  <g id="Thin-M" transform="matrix(1 0 0 1 800.758 1126)">
   <path d="M25.6348 8.05664L85.7422 8.05664C94.3848 8.05664 98.877 3.4668 98.877-5.0293L98.877-65.2344C98.877-73.7305 94.3848-78.3691 85.7422-78.3691L25.6348-78.3691C16.9922-78.3691 12.4512-73.877 12.4512-65.2344L12.4512-5.0293C12.4512 3.56445 16.9922 8.05664 25.6348 8.05664ZM66.4551-14.6973C60.1074-14.6973 55.2246-18.457 53.8086-22.8027C53.6621-23.2422 53.5645-23.6328 53.5645-24.1699C53.5645-25.1465 54.1992-25.8789 55.2246-25.8789C56.1035-25.8789 56.5918-25.3906 56.8848-24.4141C58.2031-20.3613 62.0117-17.9199 66.4551-17.9199C72.4609-17.9199 76.416-21.3867 76.416-26.2695C76.416-30.8594 72.4609-34.3262 66.9922-34.3262L62.9883-34.3262C62.0117-34.3262 61.4258-35.0098 61.4258-35.9375C61.4258-36.9629 62.0605-37.5488 62.9883-37.5488L66.6504-37.5488C71.4844-37.5488 75.0977-40.9668 75.0977-45.3125C75.0977-49.6582 71.6309-52.6367 66.4551-52.6367C61.7188-52.6367 58.4473-50 57.7148-46.0938C57.4219-45.0195 56.9336-44.5801 56.0547-44.5801C54.8828-44.5801 54.3945-45.3125 54.3945-46.3867C54.3945-46.8262 54.4434-47.2656 54.541-47.7539C55.7129-52.6367 60.6934-55.8105 66.4551-55.8105C73.4863-55.8105 78.5156-51.6113 78.5156-45.7031C78.5156-41.1621 75.1953-36.9629 70.8008-36.1816L70.8008-36.084C75.9766-35.5469 79.8828-31.2988 79.8828-26.2207C79.8828-19.5312 74.2676-14.6973 66.4551-14.6973ZM41.5527-15.0879C40.625-15.0879 39.8926-15.7227 39.8926-16.748L39.8926-51.3184L39.6973-51.3184L31.4941-45.8496C31.0547-45.5566 30.8594-45.5566 30.4688-45.5566C29.5898-45.5566 28.9062-46.2891 28.9062-47.1191C28.9062-47.7539 29.1504-48.2422 29.7852-48.6328L39.209-54.7852C39.9902-55.3223 40.4785-55.5176 41.3086-55.5176C42.3828-55.5176 43.2129-54.7852 43.2129-53.6621L43.2129-16.748C43.2129-15.7227 42.5781-15.0879 41.5527-15.0879Z"/>
  </g>
  <g id="Ultralight-M" transform="matrix(1 0 0 1 504.535 1126)">
   <path d="M25 7.56836L85.3516 7.56836C93.5059 7.56836 97.9004 3.125 97.9004-4.98047L97.9004-65.2832C97.9004-73.3887 93.5059-77.832 85.3516-77.832L25-77.832C16.7969-77.832 12.4512-73.4863 12.4512-65.2832L12.4512-4.98047C12.4512 3.22266 16.7969 7.56836 25 7.56836ZM65.6738-15.0391C59.5215-15.0391 54.7363-18.6523 53.3203-22.9492C53.1738-23.291 53.0762-23.6816 53.0762-24.1699C53.0762-24.9023 53.5645-25.4883 54.3457-25.4883C55.0781-25.4883 55.4199-25.0977 55.6641-24.2676C56.9824-20.1172 61.1328-17.4805 65.6738-17.4805C72.0215-17.4805 76.2207-21.0938 76.2207-26.2695C76.2207-31.0547 71.9238-34.7168 66.2598-34.7168L62.0117-34.7168C61.1816-34.7168 60.791-35.2051 60.791-35.9375C60.791-36.7188 61.2793-37.1582 62.0117-37.1582L65.8691-37.1582C70.9961-37.1582 74.8535-40.7715 74.8535-45.3613C74.8535-49.9512 71.1426-53.0762 65.625-53.0762C60.6934-53.0762 57.1777-50.2441 56.4941-46.2402C56.2988-45.3125 55.8594-44.9707 55.2246-44.9707C54.248-44.9707 53.8574-45.5566 53.8574-46.4355C53.8574-46.7773 53.9551-47.2168 54.0527-47.6562C55.1758-52.4902 60.1562-55.4688 65.625-55.4688C72.4609-55.4688 77.4414-51.3672 77.4414-45.6055C77.4414-41.1133 74.0723-36.9629 69.6289-36.1328L69.6289-36.084C74.8047-35.498 78.8086-31.25 78.8086-26.2695C78.8086-19.7754 73.291-15.0391 65.6738-15.0391ZM40.918-15.332C40.2344-15.332 39.6973-15.8203 39.6973-16.5527L39.6973-52.0996L39.502-52.0996L30.4688-46.1914C30.2246-46.0938 30.127-46.0938 29.8828-46.0938C29.1992-46.0938 28.7109-46.6309 28.7109-47.2168C28.7109-47.6562 28.8086-47.998 29.2969-48.3398L39.2578-54.7852C39.7461-55.0781 40.0879-55.1758 40.7227-55.1758C41.5039-55.1758 42.0898-54.6875 42.0898-53.8574L42.0898-16.5527C42.0898-15.8203 41.6992-15.332 40.918-15.332Z"/>
  </g>
  <g id="Black-S" transform="matrix(1 0 0 1 2885.5 696)">
   <path d="M25 2.92969L70.8008 2.92969C80.3711 2.92969 86.0352-2.73438 86.0352-12.3047L86.0352-58.1055C86.0352-67.6758 80.3711-73.3398 70.8008-73.3398L25-73.3398C15.4297-73.3398 9.76562-67.6758 9.76562-58.1055L9.76562-12.3047C9.76562-2.73438 15.4297 2.92969 25 2.92969ZM39.6973-19.8242C36.8164-19.8242 35.498-21.4355 35.498-24.8047L35.498-40.5273L35.3516-40.5273L34.1309-39.0625C33.2031-37.8906 32.3242-37.2559 30.8594-37.2559C29.0039-37.2559 27.5879-38.8672 27.5879-40.625C27.5879-42.2363 28.2227-43.4082 29.8828-44.9707L33.2031-48.1934C35.3027-50.2441 36.7676-50.6836 38.4766-50.6836C42.041-50.6836 43.7988-48.6328 43.7988-45.0195L43.7988-24.8047C43.7988-21.4355 42.4805-19.8242 39.6973-19.8242ZM58.1055-19.8242C53.6133-19.8242 49.5117-22.6074 48.6328-25.5859C48.3887-26.2695 48.2422-26.9531 48.2422-27.6367C48.2422-29.9805 50.0977-31.2012 51.6602-31.2012C53.2227-31.2012 54.2969-30.5664 55.127-29.4434C56.0059-28.1738 57.2266-27.5879 58.3008-27.5879C59.4238-27.5879 60.1562-28.5156 60.1562-29.4434C60.1562-30.6641 59.4238-31.4453 58.0566-31.4453L58.0078-31.4453C55.2734-31.4453 54.1016-33.0566 54.1016-35.3516C54.1016-37.6465 55.5176-39.209 58.0078-39.209L58.0566-39.209C59.4238-39.209 59.9121-40.2832 59.9121-41.1621C59.9121-42.4805 59.082-43.2617 58.0078-43.2617C56.8848-43.2617 56.1035-42.7246 55.2246-41.4551C54.4922-40.3809 53.418-39.6484 51.8555-39.6484C49.9512-39.6484 48.584-40.918 48.584-43.1641C48.584-43.8965 48.7305-44.5801 49.1211-45.5566C50.0977-47.7051 53.3203-50.6836 58.1055-50.6836C64.3555-50.6836 68.2617-47.4609 68.2617-42.4316C68.2617-39.5508 66.2598-36.7676 63.5742-36.3281L63.5742-35.9375C66.748-35.7422 68.8477-32.6172 68.8477-28.9062C68.8477-23.3398 64.6973-19.8242 58.1055-19.8242Z"/>
  </g>
  <g id="Heavy-S" transform="matrix(1 0 0 1 2589.4 696)">
   <path d="M24.3652 2.34375L70.2637 2.34375C79.541 2.34375 84.8145-2.97852 84.8145-12.207L84.8145-58.2031C84.8145-67.4316 79.541-72.7539 70.2637-72.7539L24.3652-72.7539C15.0879-72.7539 9.76562-67.4316 9.76562-58.2031L9.76562-12.207C9.76562-2.97852 15.0879 2.34375 24.3652 2.34375ZM57.2754-19.3848C52.5391-19.3848 48.4375-22.3145 47.5098-25.4883C47.2656-26.123 47.168-26.7578 47.168-27.3926C47.168-29.541 48.8281-30.7617 50.3906-30.7617C51.8555-30.7617 52.832-30.0781 53.6133-28.9062C54.541-27.2949 55.9082-26.5625 57.4707-26.5625C59.1309-26.5625 60.3027-27.7832 60.3027-29.1504C60.3027-30.8105 59.2285-31.8359 57.3242-31.8359L56.7871-31.8359C54.3457-31.8359 53.2227-33.3496 53.2227-35.4492C53.2227-37.5977 54.541-39.0137 56.7871-39.0137L57.2754-39.0137C59.0332-39.0137 59.8633-40.2832 59.8633-41.6016C59.8633-43.2129 58.7402-44.2383 57.2754-44.2383C55.7129-44.2383 54.6875-43.5059 53.8086-41.8945C53.1738-40.7227 52.1973-40.0391 50.6836-40.0391C48.877-40.0391 47.5586-41.2598 47.5586-43.3594C47.5586-44.043 47.7051-44.6777 47.998-45.5078C48.9746-48.0957 52.3926-51.123 57.373-51.123C63.5742-51.123 67.5293-47.8027 67.5293-42.7246C67.5293-39.6484 65.3809-36.7676 62.5977-36.2793L62.5977-35.9375C65.9668-35.6934 68.2129-32.5195 68.2129-28.6621C68.2129-23.0469 63.9648-19.3848 57.2754-19.3848ZM38.5254-19.5312C35.9375-19.5312 34.668-20.9961 34.668-24.0234L34.668-41.6016L34.5215-41.6016L32.7148-39.8438C31.7383-38.7695 31.0059-38.2324 29.6875-38.2324C27.9785-38.2324 26.5625-39.7461 26.5625-41.4551C26.5625-42.9688 27.1973-44.043 28.7109-45.4102L32.5684-48.7793C34.5215-50.6348 35.8887-51.0254 37.5-51.0254C40.6738-51.0254 42.334-49.1699 42.334-45.9473L42.334-24.0234C42.334-20.9961 41.0645-19.5312 38.5254-19.5312Z"/>
  </g>
  <g id="Bold-S" transform="matrix(1 0 0 1 2293.35 696)">
   <path d="M23.6328 1.66016L69.6289 1.66016C78.6133 1.66016 83.4961-3.22266 83.4961-12.1094L83.4961-58.3008C83.4961-67.1875 78.6133-72.0703 69.6289-72.0703L23.6328-72.0703C14.6973-72.0703 9.76562-67.1875 9.76562-58.3008L9.76562-12.1094C9.76562-3.22266 14.6973 1.66016 23.6328 1.66016ZM56.3965-18.8965C51.3672-18.8965 47.168-21.9727 46.2402-25.3418C46.0449-25.9277 45.9473-26.5137 45.9473-27.0996C45.9473-29.0527 47.4121-30.2246 48.9258-30.2246C50.3418-30.2246 51.2207-29.5898 51.9043-28.3203C52.8809-26.3672 54.4434-25.3418 56.4941-25.3418C58.8379-25.3418 60.4004-26.9043 60.4004-28.8086C60.4004-30.957 58.9844-32.3242 56.4941-32.3242L55.4199-32.3242C53.3203-32.3242 52.2461-33.6914 52.2461-35.5469C52.2461-37.5 53.4668-38.8184 55.4199-38.8184L56.3965-38.8184C58.5449-38.8184 59.8145-40.2832 59.8145-42.0898C59.8145-44.043 58.3984-45.3125 56.4453-45.3125C54.4434-45.3125 53.125-44.3848 52.2461-42.3828C51.6602-41.1621 50.7812-40.4297 49.3652-40.4297C47.6074-40.4297 46.4355-41.6504 46.4355-43.5547C46.4355-44.1895 46.5332-44.7266 46.7773-45.5078C47.7539-48.4863 51.3672-51.6113 56.543-51.6113C62.6953-51.6113 66.6992-48.1934 66.6992-43.1152C66.6992-39.7949 64.4531-36.7188 61.5234-36.2793L61.5234-35.9375C65.0879-35.6445 67.5293-32.373 67.5293-28.418C67.5293-22.7539 63.0859-18.8965 56.3965-18.8965ZM37.207-19.1895C34.9609-19.1895 33.7402-20.5566 33.7402-23.0957L33.7402-42.8223L33.5449-42.8223L31.1523-40.7227C30.127-39.6973 29.4922-39.3555 28.3691-39.3555C26.8066-39.3555 25.4883-40.7715 25.4883-42.3828C25.4883-43.7988 26.0742-44.7754 27.3438-45.8984L31.8359-49.4141C33.6914-51.0254 34.8633-51.4648 36.4746-51.4648C39.1602-51.4648 40.6738-49.7559 40.6738-47.0215L40.6738-23.0957C40.6738-20.5566 39.4531-19.1895 37.207-19.1895Z"/>
  </g>
  <g id="Semibold-S" transform="matrix(1 0 0 1 1997.1 696)">
   <path d="M23.0957 1.17188L69.1895 1.17188C77.9297 1.17188 82.5684-3.36914 82.5684-12.0117L82.5684-58.3984C82.5684-67.041 77.9297-71.582 69.1895-71.582L23.0957-71.582C14.4043-71.582 9.76562-67.041 9.76562-58.3984L9.76562-12.0117C9.76562-3.36914 14.4043 1.17188 23.0957 1.17188ZM55.7617-18.5547C50.5371-18.5547 46.3379-21.7773 45.3613-25.2441C45.166-25.8301 45.1172-26.3184 45.1172-26.9531C45.1172-28.7598 46.4355-29.8828 47.9492-29.8828C49.2676-29.8828 50.1465-29.1992 50.7324-27.9297C51.7578-25.6836 53.418-24.5605 55.8594-24.5605C58.6426-24.5605 60.498-26.3184 60.498-28.5645C60.498-31.1035 58.7891-32.6172 55.9082-32.6172L54.4434-32.6172C52.6367-32.6172 51.5625-33.9355 51.5625-35.5957C51.5625-37.4512 52.6855-38.6719 54.4434-38.6719L55.8105-38.6719C58.252-38.6719 59.8145-40.2832 59.8145-42.4316C59.8145-44.6289 58.1543-46.0449 55.8594-46.0449C53.5156-46.0449 52.0508-44.9707 51.1719-42.7246C50.6348-41.4062 49.8047-40.7227 48.4375-40.7227C46.7773-40.7227 45.6543-41.8945 45.6543-43.6523C45.6543-44.2871 45.7031-44.8242 45.8984-45.459C46.9238-48.7793 50.6836-51.9531 55.957-51.9531C62.0605-51.9531 66.1621-48.4375 66.1621-43.3594C66.1621-39.8926 63.7695-36.7188 60.7422-36.2305L60.7422-35.9375C64.4531-35.5957 67.0898-32.3242 67.0898-28.2227C67.0898-22.5098 62.5-18.5547 55.7617-18.5547ZM36.2793-18.9453C34.2773-18.9453 33.1055-20.2148 33.1055-22.4609L33.1055-43.7012L32.9102-43.7012L30.0293-41.3086C29.0039-40.3809 28.4668-40.1367 27.4902-40.1367C26.0254-40.1367 24.707-41.4551 24.707-43.0176C24.707-44.3359 25.293-45.2637 26.4648-46.2402L31.3477-49.9023C33.1055-51.3184 34.1797-51.709 35.7422-51.709C38.0859-51.709 39.5508-50.1953 39.5508-47.7539L39.5508-22.4609C39.5508-20.2148 38.3301-18.9453 36.2793-18.9453Z"/>
  </g>
  <g id="Medium-S" transform="matrix(1 0 0 1 1700.75 696)">
   <path d="M22.7051 0.830078L68.8965 0.830078C77.4414 0.830078 81.8359-3.51562 81.8359-11.9629L81.8359-58.4473C81.8359-66.8945 77.4414-71.2402 68.8965-71.2402L22.7051-71.2402C14.209-71.2402 9.76562-66.8945 9.76562-58.4473L9.76562-11.9629C9.76562-3.51562 14.209 0.830078 22.7051 0.830078ZM55.2734-18.3105C49.9512-18.3105 45.7031-21.582 44.6777-25.1465C44.5312-25.7324 44.4824-26.2207 44.4824-26.8066C44.4824-28.5156 45.7031-29.5898 47.168-29.5898C48.4863-29.5898 49.2676-28.9551 49.8535-27.6367C50.8789-25.1953 52.6367-23.9258 55.3711-23.9258C58.4473-23.9258 60.5957-25.8789 60.5957-28.418C60.5957-31.1523 58.6914-32.8613 55.4688-32.8613L53.7109-32.8613C52.0996-32.8613 51.0742-34.082 51.0742-35.6934C51.0742-37.4023 52.0996-38.5254 53.7109-38.5254L55.3711-38.5254C58.0078-38.5254 59.7656-40.2832 59.7656-42.6758C59.7656-45.0684 57.959-46.6309 55.4199-46.6309C52.832-46.6309 51.2695-45.4102 50.3418-42.9688C49.8535-41.6504 49.1211-40.9668 47.7539-40.9668C46.1426-40.9668 45.0684-42.0898 45.0684-43.75C45.0684-44.3848 45.1172-44.8242 45.2637-45.459C46.2891-49.0234 50.1465-52.1973 55.5664-52.1973C61.6211-52.1973 65.7227-48.6328 65.7227-43.5547C65.7227-39.9414 63.2812-36.7188 60.2051-36.2305L60.2051-35.9375C64.0137-35.5957 66.6992-32.2754 66.6992-28.0762C66.6992-22.3633 62.0605-18.3105 55.2734-18.3105ZM35.5957-18.75C33.7402-18.75 32.6172-19.9707 32.6172-22.0215L32.6172-44.3359L32.373-44.3359L29.1992-41.748C28.1738-40.8691 27.6855-40.7227 26.8066-40.7227C25.3906-40.7227 24.1211-41.9922 24.1211-43.5059C24.1211-44.7754 24.707-45.6543 25.7324-46.4844L30.957-50.2441C32.666-51.5137 33.6426-51.9531 35.1562-51.9531C37.3047-51.9531 38.6719-50.4883 38.6719-48.291L38.6719-22.0215C38.6719-19.9707 37.5-18.75 35.5957-18.75Z"/>
  </g>
  <g id="Regular-S" transform="matrix(1 0 0 1 1404.51 696)">
   <path d="M22.2168 0.390625L68.457 0.390625C76.8066 0.390625 80.9082-3.71094 80.9082-11.9141L80.9082-58.4961C80.9082-66.6992 76.8066-70.8008 68.457-70.8008L22.2168-70.8008C13.916-70.8008 9.76562-66.6992 9.76562-58.4961L9.76562-11.9141C9.76562-3.71094 13.916 0.390625 22.2168 0.390625ZM54.6387-18.0176C49.1211-18.0176 44.873-21.3867 43.8477-25.0977C43.7012-25.5859 43.6523-26.0254 43.6523-26.6113C43.6523-28.1738 44.7266-29.248 46.1914-29.248C47.4121-29.248 48.1934-28.6133 48.6816-27.1973C49.7559-24.5605 51.6602-23.1445 54.6875-23.1445C58.252-23.1445 60.6934-25.3418 60.6934-28.1738C60.6934-31.2988 58.5449-33.2031 54.9316-33.2031L52.7832-33.2031C51.3672-33.2031 50.3906-34.3262 50.3906-35.7422C50.3906-37.3535 51.3672-38.3789 52.7832-38.3789L54.7363-38.3789C57.7148-38.3789 59.7656-40.2832 59.7656-43.0176C59.7656-45.6055 57.7148-47.3633 54.834-47.3633C51.9531-47.3633 50.1953-45.9961 49.2676-43.3105C48.8281-41.8945 48.1445-41.2598 46.8262-41.2598C45.3125-41.2598 44.3359-42.334 44.3359-43.8965C44.3359-44.4824 44.3359-44.9219 44.4336-45.4102C45.459-49.2676 49.4141-52.4902 54.9805-52.4902C60.9863-52.4902 65.1855-48.9258 65.1855-43.7988C65.1855-40.0391 62.6465-36.7188 59.4727-36.2305L59.4727-35.9375C63.4277-35.5469 66.2598-32.1777 66.2598-27.8809C66.2598-22.1191 61.4746-18.0176 54.6387-18.0176ZM34.7168-18.5059C33.0566-18.5059 31.9824-19.6289 31.9824-21.3867L31.9824-45.166L31.7383-45.166L28.125-42.3828C27.0508-41.5039 26.6602-41.5039 25.8789-41.5039C24.6094-41.5039 23.3398-42.6758 23.3398-44.1895C23.3398-45.3613 23.9258-46.1426 24.8535-46.8262L30.4688-50.6836C32.0801-51.8066 32.959-52.1973 34.4238-52.1973C36.2793-52.1973 37.5488-50.9277 37.5488-49.0234L37.5488-21.3867C37.5488-19.6289 36.4258-18.5059 34.7168-18.5059Z"/>
  </g>
  <g id="Light-S" transform="matrix(1 0 0 1 1108.46 696)">
   <path d="M21.3867-0.292969L67.9688-0.292969C75.7324-0.292969 79.5898-4.15039 79.5898-11.7676L79.5898-58.5938C79.5898-66.2109 75.7324-70.1172 67.9688-70.1172L21.3867-70.1172C13.6719-70.1172 9.76562-66.2598 9.76562-58.5938L9.76562-11.7676C9.76562-4.15039 13.6719-0.292969 21.3867-0.292969ZM53.6621-18.457C48.3398-18.457 44.2383-21.6309 43.1641-25.2441C43.0664-25.6836 42.9688-26.0742 42.9688-26.6113C42.9688-27.832 43.8477-28.7598 45.0684-28.7598C46.0938-28.7598 46.6797-28.1738 47.1191-27.0508C48.1934-24.1699 50.4883-22.5586 53.7109-22.5586C57.666-22.5586 60.4004-24.9512 60.4004-28.1738C60.4004-31.4941 57.8613-33.6914 53.9551-33.6914L51.4648-33.6914C50.293-33.6914 49.5117-34.6191 49.5117-35.7422C49.5117-37.0605 50.3418-37.8906 51.4648-37.8906L53.7598-37.8906C57.0312-37.8906 59.4238-40.0879 59.4238-43.0664C59.4238-45.9473 57.0801-47.9492 53.7598-47.9492C50.5859-47.9492 48.4863-46.2891 47.7051-43.457C47.3633-42.2852 46.7773-41.748 45.7031-41.748C44.4336-41.748 43.6523-42.627 43.6523-43.9453C43.6523-44.4336 43.6523-44.8242 43.75-45.2637C44.7266-49.1211 48.7305-52.0508 53.8574-52.0508C59.668-52.0508 63.7695-48.584 63.7695-43.6523C63.7695-39.9902 61.1816-36.6699 57.9102-36.1328L57.9102-35.9375C61.9141-35.498 64.8438-32.1777 64.8438-27.9785C64.8438-22.4121 60.2051-18.457 53.6621-18.457ZM33.8867-18.8477C32.5684-18.8477 31.6895-19.7754 31.6895-21.1426L31.6895-46.1914L31.4941-46.1914L26.8066-42.8223C26.0254-42.2363 25.6836-42.1875 25.0977-42.1875C24.0723-42.1875 23.0957-43.1152 23.0957-44.3359C23.0957-45.2148 23.5352-45.8496 24.2676-46.3867L30.5664-50.6348C31.7871-51.4648 32.4707-51.8066 33.6426-51.8066C35.1074-51.8066 36.1328-50.7812 36.1328-49.2676L36.1328-21.1426C36.1328-19.7754 35.2539-18.8477 33.8867-18.8477Z"/>
  </g>
  <g id="Thin-S" transform="matrix(1 0 0 1 812.599 696)">
   <path d="M20.3125-1.12305L67.334-1.12305C74.2676-1.12305 77.8809-4.78516 77.8809-11.6211L77.8809-58.6914C77.8809-65.5762 74.2676-69.2383 67.334-69.2383L20.3125-69.2383C13.3789-69.2383 9.76562-65.625 9.76562-58.6914L9.76562-11.6211C9.76562-4.6875 13.3789-1.12305 20.3125-1.12305ZM52.3438-18.9941C47.3145-18.9941 43.457-21.9727 42.334-25.4395C42.2363-25.7812 42.1387-26.123 42.1387-26.5625C42.1387-27.4414 42.7246-28.0762 43.5547-28.0762C44.3359-28.0762 44.7266-27.6367 45.0195-26.8066C46.0449-23.6816 48.9258-21.8262 52.3438-21.8262C56.9336-21.8262 59.9609-24.4629 59.9609-28.2227C59.9609-31.7383 56.9824-34.375 52.7344-34.375L49.7559-34.375C48.877-34.375 48.3887-34.9609 48.3887-35.791C48.3887-36.6699 48.9258-37.207 49.7559-37.207L52.4902-37.207C56.2012-37.207 58.9355-39.7949 58.9355-43.1152C58.9355-46.4355 56.2988-48.6816 52.3438-48.6816C48.7793-48.6816 46.2891-46.7285 45.6543-43.7012C45.4102-42.7734 44.9707-42.3828 44.2383-42.3828C43.2617-42.3828 42.7734-43.0664 42.7734-43.9453C42.7734-44.3359 42.8223-44.7266 42.9199-45.1172C43.8477-48.9258 47.7539-51.5137 52.3926-51.5137C57.959-51.5137 61.9141-48.1934 61.9141-43.457C61.9141-39.8926 59.3262-36.6211 55.9082-36.0352L55.9082-35.8887C59.9609-35.498 62.9883-32.1289 62.9883-28.125C62.9883-22.8516 58.5449-18.9941 52.3438-18.9941ZM32.7637-19.3359C31.9336-19.3359 31.3477-19.9219 31.3477-20.8008L31.3477-47.5098L31.1523-47.5098L25.0488-43.4082C24.6094-43.1152 24.4141-43.1152 24.0723-43.1152C23.3398-43.1152 22.7539-43.75 22.7539-44.4824C22.7539-45.0684 22.9492-45.5078 23.4863-45.8496L30.6641-50.5859C31.3965-51.0742 31.8359-51.2207 32.6172-51.2207C33.5449-51.2207 34.2285-50.5859 34.2285-49.6094L34.2285-20.8008C34.2285-19.9219 33.6914-19.3359 32.7637-19.3359Z"/>
  </g>
  <g id="Ultralight-S" transform="matrix(1 0 0 1 516.352 696)">
   <path d="M19.7754-1.5625L66.9922-1.5625C73.5352-1.5625 76.9531-5.12695 76.9531-11.5234L76.9531-58.7891C76.9531-65.2344 73.5352-68.75 66.9922-68.75L19.7754-68.75C13.2324-68.75 9.76562-65.2832 9.76562-58.7891L9.76562-11.5234C9.76562-5.0293 13.2324-1.5625 19.7754-1.5625ZM51.6602-19.3359C46.7773-19.3359 43.0176-22.168 41.8945-25.5371C41.7969-25.8789 41.6992-26.1719 41.6992-26.5625C41.6992-27.1973 42.1387-27.7344 42.8223-27.7344C43.4082-27.7344 43.75-27.3438 43.9453-26.709C44.9707-23.4375 48.1445-21.4355 51.6602-21.4355C56.543-21.4355 59.7656-24.2188 59.7656-28.2227C59.7656-31.8848 56.4941-34.7168 52.0996-34.7168L48.8281-34.7168C48.1445-34.7168 47.8027-35.1562 47.8027-35.791C47.8027-36.4746 48.1934-36.8652 48.8281-36.8652L51.8066-36.8652C55.7617-36.8652 58.6914-39.6484 58.6914-43.1641C58.6914-46.6797 55.8594-49.0723 51.6113-49.0723C47.8027-49.0723 45.1172-46.9238 44.5801-43.7988C44.4336-43.0664 44.043-42.7246 43.5059-42.7246C42.6758-42.7246 42.334-43.2617 42.334-43.9941C42.334-44.2871 42.3828-44.6289 42.4805-44.9707C43.3594-48.8281 47.2656-51.1719 51.6602-51.1719C57.0312-51.1719 60.9375-47.9492 60.9375-43.3594C60.9375-39.8438 58.3496-36.5723 54.8828-35.9375L54.8828-35.8887C58.9355-35.4492 62.0117-32.1289 62.0117-28.2227C62.0117-23.0469 57.666-19.3359 51.6602-19.3359ZM32.2266-19.5801C31.6406-19.5801 31.1523-20.0195 31.1523-20.6543L31.1523-48.2422L31.0059-48.2422L24.1211-43.75C23.877-43.6035 23.7793-43.6035 23.5352-43.6035C22.998-43.6035 22.5586-44.0918 22.5586-44.6289C22.5586-44.9707 22.6562-45.3125 23.0957-45.5566L30.7617-50.5371C31.2012-50.8301 31.543-50.9277 32.0801-50.9277C32.7637-50.9277 33.3008-50.4883 33.3008-49.7559L33.3008-20.6543C33.3008-20.0195 32.9102-19.5801 32.2266-19.5801Z"/>
  </g>
 </g>
</svg>
