<?xml version="1.0" encoding="UTF-8"?>
<!--Generator: Apple Native CoreSVG 149-->
<!DOCTYPE svg
PUBLIC "-//W3C//DTD SVG 1.1//EN"
       "http://www.w3.org/Graphics/SVG/1.1/DTD/svg11.dtd">
<svg version="1.1" xmlns="http://www.w3.org/2000/svg" xmlns:xlink="http://www.w3.org/1999/xlink" width="3300" height="2200">
 <!--glyph: "uni10055C.medium", point size: 100.000000, font version: "Version 16.0d18e1", template writer version: "8"-->
 <g id="Notes">
  <rect height="2200" id="artboard" style="fill:white;opacity:1" width="3300" x="0" y="0"/>
  <line id="" style="fill:none;stroke:black;opacity:1;stroke-width:0.5;" x1="263" x2="3036" y1="292" y2="292"/>
  <text style="stroke:none;fill:black;font-family:-apple-system,&quot;SF Pro Display&quot;,&quot;SF Pro Text&quot;,Helvetica,sans-serif;font-weight:bold;" transform="matrix(1 0 0 1 263 322)">Weight/Scale Variations</text>
  <text style="stroke:none;fill:black;font-family:-apple-system,&quot;SF Pro Display&quot;,&quot;SF Pro Text&quot;,Helvetica,sans-serif;text-anchor:middle;" transform="matrix(1 0 0 1 559.711 322)">Ultralight</text>
  <text style="stroke:none;fill:black;font-family:-apple-system,&quot;SF Pro Display&quot;,&quot;SF Pro Text&quot;,Helvetica,sans-serif;text-anchor:middle;" transform="matrix(1 0 0 1 856.422 322)">Thin</text>
  <text style="stroke:none;fill:black;font-family:-apple-system,&quot;SF Pro Display&quot;,&quot;SF Pro Text&quot;,Helvetica,sans-serif;text-anchor:middle;" transform="matrix(1 0 0 1 1153.13 322)">Light</text>
  <text style="stroke:none;fill:black;font-family:-apple-system,&quot;SF Pro Display&quot;,&quot;SF Pro Text&quot;,Helvetica,sans-serif;text-anchor:middle;" transform="matrix(1 0 0 1 1449.84 322)">Regular</text>
  <text style="stroke:none;fill:black;font-family:-apple-system,&quot;SF Pro Display&quot;,&quot;SF Pro Text&quot;,Helvetica,sans-serif;text-anchor:middle;" transform="matrix(1 0 0 1 1746.56 322)">Medium</text>
  <text style="stroke:none;fill:black;font-family:-apple-system,&quot;SF Pro Display&quot;,&quot;SF Pro Text&quot;,Helvetica,sans-serif;text-anchor:middle;" transform="matrix(1 0 0 1 2043.27 322)">Semibold</text>
  <text style="stroke:none;fill:black;font-family:-apple-system,&quot;SF Pro Display&quot;,&quot;SF Pro Text&quot;,Helvetica,sans-serif;text-anchor:middle;" transform="matrix(1 0 0 1 2339.98 322)">Bold</text>
  <text style="stroke:none;fill:black;font-family:-apple-system,&quot;SF Pro Display&quot;,&quot;SF Pro Text&quot;,Helvetica,sans-serif;text-anchor:middle;" transform="matrix(1 0 0 1 2636.69 322)">Heavy</text>
  <text style="stroke:none;fill:black;font-family:-apple-system,&quot;SF Pro Display&quot;,&quot;SF Pro Text&quot;,Helvetica,sans-serif;text-anchor:middle;" transform="matrix(1 0 0 1 2933.4 322)">Black</text>
  <line id="" style="fill:none;stroke:black;opacity:1;stroke-width:0.5;" x1="263" x2="3036" y1="1903" y2="1903"/>
  <g id="" transform="matrix(1 0 0 1 263 1933)">
   <path d="M9.24805 0.830078C13.5547 0.830078 17.1387-2.74414 17.1387-7.05078C17.1387-11.3574 13.5449-14.9316 9.23828-14.9316C4.94141-14.9316 1.36719-11.3574 1.36719-7.05078C1.36719-2.74414 4.95117 0.830078 9.24805 0.830078ZM9.24805-0.654297C5.70312-0.654297 2.87109-3.49609 2.87109-7.05078C2.87109-10.6055 5.69336-13.4473 9.23828-13.4473C12.793-13.4473 15.6348-10.6055 15.6445-7.05078C15.6543-3.49609 12.8027-0.654297 9.24805-0.654297ZM6.39648-6.31836L8.50586-6.31836L8.50586-4.19922C8.50586-3.75977 8.79883-3.45703 9.22852-3.45703C9.67773-3.45703 9.9707-3.75977 9.9707-4.19922L9.9707-6.31836L12.0996-6.31836C12.5391-6.31836 12.8418-6.61133 12.8418-7.04102C12.8418-7.48047 12.5391-7.7832 12.0996-7.7832L9.9707-7.7832L9.9707-9.89258C9.9707-10.3418 9.67773-10.6445 9.22852-10.6445C8.79883-10.6445 8.50586-10.3418 8.50586-9.89258L8.50586-7.7832L6.39648-7.7832C5.94727-7.7832 5.64453-7.48047 5.64453-7.04102C5.64453-6.61133 5.94727-6.31836 6.39648-6.31836Z"/>
  </g>
  <g id="" transform="matrix(1 0 0 1 281.506 1933)">
   <path d="M11.709 2.91016C17.1582 2.91016 21.6699-1.61133 21.6699-7.05078C21.6699-12.5 17.1484-17.0117 11.6992-17.0117C6.25977-17.0117 1.74805-12.5 1.74805-7.05078C1.74805-1.61133 6.26953 2.91016 11.709 2.91016ZM11.709 1.25C7.09961 1.25 3.41797-2.44141 3.41797-7.05078C3.41797-11.6602 7.08984-15.3516 11.6992-15.3516C16.3086-15.3516 20-11.6602 20.0098-7.05078C20.0195-2.44141 16.3184 1.25 11.709 1.25ZM7.98828-6.23047L10.8789-6.23047L10.8789-3.32031C10.8789-2.83203 11.2109-2.5 11.6895-2.5C12.1777-2.5 12.5195-2.83203 12.5195-3.32031L12.5195-6.23047L15.4297-6.23047C15.918-6.23047 16.25-6.5625 16.25-7.04102C16.25-7.5293 15.918-7.87109 15.4297-7.87109L12.5195-7.87109L12.5195-10.7617C12.5195-11.2695 12.1777-11.6016 11.6895-11.6016C11.2109-11.6016 10.8789-11.2598 10.8789-10.7617L10.8789-7.87109L7.98828-7.87109C7.48047-7.87109 7.14844-7.5293 7.14844-7.04102C7.14844-6.5625 7.49023-6.23047 7.98828-6.23047Z"/>
  </g>
  <g id="" transform="matrix(1 0 0 1 304.924 1933)">
   <path d="M14.9707 5.66406C21.9336 5.66406 27.6953-0.0976562 27.6953-7.05078C27.6953-14.0137 21.9238-19.7754 14.9609-19.7754C8.00781-19.7754 2.25586-14.0137 2.25586-7.05078C2.25586-0.0976562 8.01758 5.66406 14.9707 5.66406ZM14.9707 3.84766C8.93555 3.84766 4.08203-1.01562 4.08203-7.05078C4.08203-13.0957 8.92578-17.9492 14.9609-17.9492C21.0059-17.9492 25.8594-13.0957 25.8691-7.05078C25.8789-1.01562 21.0156 3.84766 14.9707 3.84766ZM10.0586-6.14258L14.0625-6.14258L14.0625-2.12891C14.0625-1.5918 14.4336-1.2207 14.9512-1.2207C15.4883-1.2207 15.8594-1.5918 15.8594-2.12891L15.8594-6.14258L19.8828-6.14258C20.4102-6.14258 20.791-6.51367 20.791-7.03125C20.791-7.56836 20.4199-7.94922 19.8828-7.94922L15.8594-7.94922L15.8594-11.9531C15.8594-12.5098 15.4883-12.8809 14.9512-12.8809C14.4336-12.8809 14.0625-12.5 14.0625-11.9531L14.0625-7.94922L10.0586-7.94922C9.50195-7.94922 9.13086-7.56836 9.13086-7.03125C9.13086-6.51367 9.51172-6.14258 10.0586-6.14258Z"/>
  </g>
  <text style="stroke:none;fill:black;font-family:-apple-system,&quot;SF Pro Display&quot;,&quot;SF Pro Text&quot;,Helvetica,sans-serif;font-weight:bold;" transform="matrix(1 0 0 1 263 1953)">Design Variations</text>
  <text style="stroke:none;fill:black;font-family:-apple-system,&quot;SF Pro Display&quot;,&quot;SF Pro Text&quot;,Helvetica,sans-serif;" transform="matrix(1 0 0 1 263 1971)">Symbols are supported in up to nine weights and three scales.</text>
  <text style="stroke:none;fill:black;font-family:-apple-system,&quot;SF Pro Display&quot;,&quot;SF Pro Text&quot;,Helvetica,sans-serif;" transform="matrix(1 0 0 1 263 1989)">For optimal layout with text and other symbols, vertically align</text>
  <text style="stroke:none;fill:black;font-family:-apple-system,&quot;SF Pro Display&quot;,&quot;SF Pro Text&quot;,Helvetica,sans-serif;" transform="matrix(1 0 0 1 263 2007)">symbols with the adjacent text.</text>
  <line id="" style="fill:none;stroke:#00AEEF;stroke-width:0.5;opacity:1.0;" x1="776" x2="776" y1="1919" y2="1933"/>
  <g id="" transform="matrix(1 0 0 1 776 1933)">
   <path d="M3.31055 0.126953C3.82812 0.126953 4.08203-0.0683594 4.26758-0.605469L5.52734-4.0625L11.2891-4.0625L12.5488-0.605469C12.7344-0.0683594 12.9883 0.126953 13.4961 0.126953C14.0137 0.126953 14.3457-0.185547 14.3457-0.673828C14.3457-0.839844 14.3164-0.986328 14.2383-1.20117L9.6582-13.3887C9.43359-13.9941 9.0332-14.2871 8.4082-14.2871C7.80273-14.2871 7.39258-13.9941 7.17773-13.3984L2.59766-1.19141C2.51953-0.976562 2.49023-0.830078 2.49023-0.664062C2.49023-0.175781 2.80273 0.126953 3.31055 0.126953ZM6.00586-5.53711L8.37891-12.1094L8.42773-12.1094L10.8008-5.53711Z"/>
  </g>
  <line id="" style="fill:none;stroke:#00AEEF;stroke-width:0.5;opacity:1.0;" x1="792.836" x2="792.836" y1="1919" y2="1933"/>
  <text style="stroke:none;fill:black;font-family:-apple-system,&quot;SF Pro Display&quot;,&quot;SF Pro Text&quot;,Helvetica,sans-serif;font-weight:bold;" transform="matrix(1 0 0 1 776 1953)">Margins</text>
  <text style="stroke:none;fill:black;font-family:-apple-system,&quot;SF Pro Display&quot;,&quot;SF Pro Text&quot;,Helvetica,sans-serif;" transform="matrix(1 0 0 1 776 1971)">Leading and trailing margins on the left and right side of each symbol</text>
  <text style="stroke:none;fill:black;font-family:-apple-system,&quot;SF Pro Display&quot;,&quot;SF Pro Text&quot;,Helvetica,sans-serif;" transform="matrix(1 0 0 1 776 1989)">can be adjusted by modifying the x-location of the margin guidelines.</text>
  <text style="stroke:none;fill:black;font-family:-apple-system,&quot;SF Pro Display&quot;,&quot;SF Pro Text&quot;,Helvetica,sans-serif;" transform="matrix(1 0 0 1 776 2007)">Modifications are automatically applied proportionally to all</text>
  <text style="stroke:none;fill:black;font-family:-apple-system,&quot;SF Pro Display&quot;,&quot;SF Pro Text&quot;,Helvetica,sans-serif;" transform="matrix(1 0 0 1 776 2025)">scales and weights.</text>
  <g id="" transform="matrix(1 0 0 1 1289 1933)">
   <path d="M2.8418 1.86523L4.54102 3.57422C5.40039 4.44336 6.38672 4.38477 7.31445 3.35938L17.4902-7.85156C17.7539-7.76367 18.0273-7.7832 18.3398-7.8418L19.4043-8.03711L20.0684-7.36328L20.0293-6.80664C19.9902-6.30859 20.1172-5.92773 20.6055-5.44922L21.3672-4.70703C21.8457-4.22852 22.4609-4.19922 22.9297-4.66797L25.8398-7.58789C26.3086-8.05664 26.2891-8.65234 25.8105-9.13086L25.0391-9.89258C24.5605-10.3711 24.1895-10.5273 23.7109-10.4883L23.1348-10.4395L22.4902-11.0742L22.7344-12.1973C22.8613-12.7637 22.7051-13.2031 22.1191-13.7891L19.9219-15.9766C16.582-19.2969 12.1484-19.2188 9.25781-16.3281C8.83789-15.918 8.80859-15.3418 9.04297-14.9512C9.27734-14.5898 9.73633-14.3555 10.3809-14.5215C11.8457-14.8633 13.3691-14.9219 14.7949-13.9844L14.209-12.5293C14.0137-12.0508 13.9844-11.6504 14.1113-11.2891L3.04688-0.898438C2.06055 0.0195312 1.98242 0.996094 2.8418 1.86523ZM10.752-15.957C13.1836-17.7344 16.4746-17.4316 18.7012-15.2051L21.1328-12.793C21.3672-12.5586 21.4062-12.373 21.3379-12.0312L21.0156-10.5469L22.5195-9.0625L23.5059-9.12109C23.7598-9.13086 23.8379-9.11133 24.0332-8.91602L24.6094-8.33984L22.168-5.89844L21.5918-6.47461C21.3965-6.66992 21.3672-6.74805 21.377-7.01172L21.4453-7.98828L19.9512-9.47266L18.4277-9.21875C18.1055-9.15039 17.959-9.17969 17.7148-9.41406L15.7129-11.416C15.459-11.6504 15.4297-11.8164 15.5859-12.1875L16.4648-14.2773C14.9023-15.7324 12.8711-16.3574 10.8398-15.7617C10.6836-15.7227 10.625-15.8496 10.752-15.957ZM5.27344 2.30469L4.10156 1.14258C3.63281 0.683594 3.74023 0.341797 4.14062-0.0195312L14.9512-10.1953L16.416-8.71094L6.42578 2.27539C6.07422 2.67578 5.74219 2.77344 5.27344 2.30469Z"/>
  </g>
  <text style="stroke:none;fill:black;font-family:-apple-system,&quot;SF Pro Display&quot;,&quot;SF Pro Text&quot;,Helvetica,sans-serif;font-weight:bold;" transform="matrix(1 0 0 1 1289 1953)">Exporting</text>
  <text style="stroke:none;fill:black;font-family:-apple-system,&quot;SF Pro Display&quot;,&quot;SF Pro Text&quot;,Helvetica,sans-serif;" transform="matrix(1 0 0 1 1289 1971)">Symbols should be outlined when exporting to ensure the</text>
  <text style="stroke:none;fill:black;font-family:-apple-system,&quot;SF Pro Display&quot;,&quot;SF Pro Text&quot;,Helvetica,sans-serif;" transform="matrix(1 0 0 1 1289 1989)">design is preserved when submitting to Xcode.</text>
  <text id="template-version" style="stroke:none;fill:black;font-family:-apple-system,&quot;SF Pro Display&quot;,&quot;SF Pro Text&quot;,Helvetica,sans-serif;text-anchor:end;" transform="matrix(1 0 0 1 3036 1933)">Template v.2.0</text>
  <text style="stroke:none;fill:black;font-family:-apple-system,&quot;SF Pro Display&quot;,&quot;SF Pro Text&quot;,Helvetica,sans-serif;text-anchor:end;" transform="matrix(1 0 0 1 3036 1951)">Requires Xcode 12 or greater</text>
  <text style="stroke:none;fill:black;font-family:-apple-system,&quot;SF Pro Display&quot;,&quot;SF Pro Text&quot;,Helvetica,sans-serif;text-anchor:end;" transform="matrix(1 0 0 1 3036 1969)">Generated from 20.square.fill</text>
  <text style="stroke:none;fill:black;font-family:-apple-system,&quot;SF Pro Display&quot;,&quot;SF Pro Text&quot;,Helvetica,sans-serif;text-anchor:end;" transform="matrix(1 0 0 1 3036 1987)">Typeset at 100 points</text>
  <text style="stroke:none;fill:black;font-family:-apple-system,&quot;SF Pro Display&quot;,&quot;SF Pro Text&quot;,Helvetica,sans-serif;" transform="matrix(1 0 0 1 263 726)">Small</text>
  <text style="stroke:none;fill:black;font-family:-apple-system,&quot;SF Pro Display&quot;,&quot;SF Pro Text&quot;,Helvetica,sans-serif;" transform="matrix(1 0 0 1 263 1156)">Medium</text>
  <text style="stroke:none;fill:black;font-family:-apple-system,&quot;SF Pro Display&quot;,&quot;SF Pro Text&quot;,Helvetica,sans-serif;" transform="matrix(1 0 0 1 263 1586)">Large</text>
 </g>
 <g id="Guides">
  <g id="H-reference" style="fill:#27AAE1;stroke:none;" transform="matrix(1 0 0 1 339 696)">
   <path d="M0.976562 0L3.66211 0L12.9883-24.4629L45.752-24.4629L55.127 0L57.7637 0L30.6152-70.459L28.125-70.459ZM29.3457-67.1387L29.4434-67.1387L44.873-26.709L13.8672-26.709Z"/>
  </g>
  <line id="Baseline-S" style="fill:none;stroke:#27AAE1;opacity:1;stroke-width:0.5;" x1="263" x2="3036" y1="696" y2="696"/>
  <line id="Capline-S" style="fill:none;stroke:#27AAE1;opacity:1;stroke-width:0.5;" x1="263" x2="3036" y1="625.541" y2="625.541"/>
  <g id="H-reference" style="fill:#27AAE1;stroke:none;" transform="matrix(1 0 0 1 339 1126)">
   <path d="M0.976562 0L3.66211 0L12.9883-24.4629L45.752-24.4629L55.127 0L57.7637 0L30.6152-70.459L28.125-70.459ZM29.3457-67.1387L29.4434-67.1387L44.873-26.709L13.8672-26.709Z"/>
  </g>
  <line id="Baseline-M" style="fill:none;stroke:#27AAE1;opacity:1;stroke-width:0.5;" x1="263" x2="3036" y1="1126" y2="1126"/>
  <line id="Capline-M" style="fill:none;stroke:#27AAE1;opacity:1;stroke-width:0.5;" x1="263" x2="3036" y1="1055.54" y2="1055.54"/>
  <g id="H-reference" style="fill:#27AAE1;stroke:none;" transform="matrix(1 0 0 1 339 1556)">
   <path d="M0.976562 0L3.66211 0L12.9883-24.4629L45.752-24.4629L55.127 0L57.7637 0L30.6152-70.459L28.125-70.459ZM29.3457-67.1387L29.4434-67.1387L44.873-26.709L13.8672-26.709Z"/>
  </g>
  <line id="Baseline-L" style="fill:none;stroke:#27AAE1;opacity:1;stroke-width:0.5;" x1="263" x2="3036" y1="1556" y2="1556"/>
  <line id="Capline-L" style="fill:none;stroke:#27AAE1;opacity:1;stroke-width:0.5;" x1="263" x2="3036" y1="1485.54" y2="1485.54"/>
  <line id="left-margin" style="fill:none;stroke:#00AEEF;stroke-width:0.5;opacity:1.0;" x1="1392.45" x2="1392.45" y1="1030.79" y2="1150.12"/>
  <line id="right-margin" style="fill:none;stroke:#00AEEF;stroke-width:0.5;opacity:1.0;" x1="1507.24" x2="1507.24" y1="1030.79" y2="1150.12"/>
 </g>
 <g id="Symbols">
  <g id="Black-L" transform="matrix(1 0 0 1 2855.62 1556)">
   <path d="M39.9902 26.5137L115.576 26.5137C130.811 26.5137 139.502 17.8711 139.502 2.68555L139.502-73.0957C139.502-88.2812 130.811-96.875 115.576-96.875L39.9902-96.875C24.7559-96.875 16.0645-88.2812 16.0645-73.0957L16.0645 2.68555C16.0645 17.8711 24.7559 26.5137 39.9902 26.5137ZM49.8535-10.1074C46.4355-10.1074 43.75-12.4512 43.75-16.2109C43.75-18.6523 44.5801-20.6543 46.7773-23.2422L58.252-36.7188C61.1816-40.1367 63.623-42.5781 63.623-45.6055C63.623-48.0957 61.5723-49.9512 58.7891-49.9512C56.4453-49.9512 54.5898-48.5352 53.6621-45.9473C52.832-43.6523 51.2695-41.9922 48.2422-41.9922C45.0195-41.9922 42.9199-44.1895 42.9199-47.4609C42.9199-48.6328 43.1152-49.5605 43.3594-50.6836C45.2148-57.1289 51.709-61.5234 59.1797-61.5234C68.8965-61.5234 74.8535-55.4199 74.9512-46.7285C75-40.8203 72.168-36.3281 67.2363-30.6152L60.3027-22.5586L60.3027-21.9727L70.4102-21.9727C74.1211-21.9727 76.4648-19.8242 76.4648-16.1133C76.4648-12.3535 74.1211-10.1074 70.4102-10.1074ZM98.0469-8.98438C87.6953-8.98438 80.7617-17.1387 80.7617-35.2539C80.7617-53.418 87.6953-61.5234 98.0469-61.5234C108.35-61.5234 115.723-53.418 115.723-35.2539C115.723-17.1387 108.35-8.98438 98.0469-8.98438ZM98.2422-21.3379C101.172-21.3379 102.979-25 102.979-35.2539C102.979-45.5566 101.123-49.2188 98.2422-49.2188C95.3125-49.2188 93.5059-45.5566 93.5059-35.2539C93.5059-25 95.3125-21.3379 98.2422-21.3379Z"/>
  </g>
  <g id="Heavy-L" transform="matrix(1 0 0 1 2559.93 1556)">
   <path d="M38.8184 25.4883L114.697 25.4883C129.346 25.4883 137.451 17.4316 137.451 2.88086L137.451-73.2422C137.451-87.793 129.346-95.8496 114.697-95.8496L38.8184-95.8496C24.2188-95.8496 16.0645-87.793 16.0645-73.2422L16.0645 2.88086C16.0645 17.4316 24.2188 25.4883 38.8184 25.4883ZM47.6074-9.86328C44.5312-9.86328 42.1387-11.9629 42.1387-15.332C42.1387-17.4805 42.8711-19.2383 44.7754-21.3867L57.666-36.5723C60.6934-40.1367 63.2812-42.8223 63.2812-46.1426C63.2812-49.2188 60.8398-51.4648 57.4219-51.4648C54.3945-51.4648 52.0996-49.707 51.0742-46.4844C50.293-44.3359 48.877-42.8223 46.1426-42.8223C43.2129-42.8223 41.3574-44.873 41.3574-47.8516C41.3574-48.877 41.5039-49.8047 41.748-50.7812C43.5547-57.3242 50.0977-61.8652 57.6172-61.8652C67.3828-61.8652 73.4863-55.8105 73.584-47.1191C73.6328-41.1133 70.7031-36.6211 65.7227-30.9082L57.2266-21.0449L57.2266-20.459L69.6777-20.459C72.9492-20.459 75.0488-18.6035 75.0488-15.2344C75.0488-11.8652 72.9492-9.86328 69.6777-9.86328ZM97.3633-8.69141C86.8164-8.69141 79.7852-17.3828 79.7852-35.2539C79.7852-53.125 86.8164-61.8652 97.3633-61.8652C107.812-61.8652 115.186-53.125 115.186-35.2539C115.186-17.3828 107.812-8.69141 97.3633-8.69141ZM97.5098-19.7266C101.318-19.7266 103.711-24.4141 103.711-35.2539C103.711-46.0938 101.27-50.7812 97.5098-50.7812C93.7012-50.7812 91.3086-46.0938 91.3086-35.2539C91.3086-24.4141 93.7012-19.7266 97.5098-19.7266Z"/>
  </g>
  <g id="Bold-L" transform="matrix(1 0 0 1 2264.37 1556)">
   <path d="M37.5 24.3652L113.721 24.3652C127.637 24.3652 135.156 16.8945 135.156 3.07617L135.156-73.3887C135.156-87.207 127.637-94.7266 113.721-94.7266L37.5-94.7266C23.6328-94.7266 16.0645-87.2559 16.0645-73.3887L16.0645 3.07617C16.0645 16.8945 23.6328 24.3652 37.5 24.3652ZM45.1172-9.57031C42.3828-9.57031 40.332-11.377 40.332-14.3066C40.332-16.1133 40.9668-17.627 42.4805-19.3848L57.0312-36.4258C60.1074-40.0879 62.8906-43.0664 62.8906-46.6797C62.8906-50.4883 60.0586-53.125 55.8594-53.125C52.1484-53.125 49.3652-51.0254 48.1934-47.168C47.4609-45.1172 46.1914-43.7988 43.8477-43.7988C41.2598-43.7988 39.5996-45.6055 39.5996-48.291C39.5996-49.2188 39.7461-50.0488 39.9414-50.9766C41.6504-57.5195 48.291-62.207 55.9082-62.207C65.7227-62.207 71.9727-56.2988 72.0703-47.5098C72.0703-41.5039 68.9941-36.9629 64.0137-31.2012L53.8086-19.3359L53.8086-18.8477L68.8965-18.8477C71.6309-18.8477 73.4863-17.1875 73.4863-14.2578C73.4863-11.3281 71.6309-9.57031 68.8965-9.57031ZM96.582-8.30078C85.8887-8.30078 78.7109-17.7246 78.7109-35.2539C78.7109-52.832 85.8887-62.207 96.582-62.207C107.227-62.207 114.6-52.832 114.6-35.2539C114.6-17.7246 107.227-8.30078 96.582-8.30078ZM96.6797-17.9688C101.465-17.9688 104.541-23.7793 104.541-35.2539C104.541-46.7773 101.465-52.5879 96.6797-52.5879C91.8457-52.5879 88.8184-46.7773 88.8184-35.2539C88.8184-23.7793 91.8457-17.9688 96.6797-17.9688Z"/>
  </g>
  <g id="Semibold-L" transform="matrix(1 0 0 1 1968.44 1556)">
   <path d="M36.6211 23.584L113.037 23.584C126.514 23.584 133.594 16.5039 133.594 3.17383L133.594-73.5352C133.594-86.8164 126.514-93.9453 113.037-93.9453L36.6211-93.9453C23.1934-93.9453 16.0645-86.8652 16.0645-73.5352L16.0645 3.17383C16.0645 16.5527 23.1934 23.584 36.6211 23.584ZM43.3594-9.32617C40.8691-9.32617 39.1113-10.9863 39.1113-13.623C39.1113-15.1855 39.6484-16.5039 40.918-17.9688L56.543-36.2793C59.7656-40.0391 62.6465-43.2617 62.6465-47.0703C62.6465-51.3672 59.5215-54.248 54.7852-54.248C50.5859-54.248 47.4609-51.9043 46.2402-47.6074C45.5078-45.7031 44.3848-44.4824 42.2363-44.4824C39.8438-44.4824 38.3789-46.1426 38.3789-48.584C38.3789-49.4141 38.4766-50.1953 38.6719-51.0742C40.332-57.666 47.0703-62.4512 54.7363-62.4512C64.5996-62.4512 70.9473-56.6406 70.9961-47.8027C70.9961-41.748 67.8223-37.207 62.8418-31.4453L51.4648-18.1641L51.4648-17.7246L68.3105-17.7246C70.752-17.7246 72.4121-16.2109 72.4121-13.5742C72.4121-10.9863 70.752-9.32617 68.3105-9.32617ZM96.0449-8.05664C85.2051-8.05664 77.9785-17.9199 77.9785-35.2539C77.9785-52.5879 85.2051-62.4512 96.0449-62.4512C106.836-62.4512 114.209-52.5879 114.209-35.2539C114.209-17.9199 106.836-8.05664 96.0449-8.05664ZM96.0938-16.748C101.611-16.748 105.078-23.3398 105.078-35.2539C105.078-47.2168 101.562-53.8086 96.0938-53.8086C90.625-53.8086 87.1094-47.2168 87.1094-35.2539C87.1094-23.3398 90.625-16.748 96.0938-16.748Z"/>
  </g>
  <g id="Medium-L" transform="matrix(1 0 0 1 1672.31 1556)">
   <path d="M35.9375 22.998L112.5 22.998C125.635 22.998 132.422 16.2109 132.422 3.27148L132.422-73.6328C132.422-86.5234 125.635-93.3105 112.5-93.3105L35.9375-93.3105C22.9004-93.3105 16.0645-86.5723 16.0645-73.6328L16.0645 3.27148C16.0645 16.2598 22.9004 22.998 35.9375 22.998ZM42.041-9.17969C39.7461-9.17969 38.1836-10.6934 38.1836-13.1348C38.1836-14.502 38.6719-15.6738 39.7461-16.8945L56.2012-36.2305C59.4727-40.0391 62.4512-43.4082 62.4512-47.4121C62.4512-52.002 59.1309-55.127 53.9551-55.127C49.3652-55.127 45.9961-52.5879 44.7266-47.9492C43.9941-46.0938 42.9688-44.9707 41.0156-44.9707C38.8184-44.9707 37.4512-46.5332 37.4512-48.7793C37.4512-49.6094 37.5488-50.3418 37.7441-51.123C39.3555-57.8125 46.1426-62.6465 53.8086-62.6465C63.7207-62.6465 70.166-56.8848 70.166-47.998C70.2148-41.9434 66.9434-37.4023 61.9141-31.5918L49.6582-17.2852L49.6582-16.8457L67.8711-16.8457C70.0684-16.8457 71.582-15.4785 71.582-13.0371C71.582-10.7422 70.0684-9.17969 67.8711-9.17969ZM95.6543-7.91016C84.7168-7.91016 77.4414-18.1152 77.4414-35.2539C77.4414-52.4414 84.7168-62.6465 95.6543-62.6465C106.543-62.6465 113.916-52.4414 113.916-35.2539C113.916-18.1152 106.543-7.91016 95.6543-7.91016ZM95.6543-15.7715C101.709-15.7715 105.518-22.998 105.518-35.2539C105.518-47.5586 101.66-54.7363 95.6543-54.7363C89.6484-54.7363 85.8398-47.5586 85.8398-35.2539C85.8398-22.998 89.6484-15.7715 95.6543-15.7715Z"/>
  </g>
  <g id="Regular-L" transform="matrix(1 0 0 1 1376.38 1556)">
   <path d="M35.0586 22.2168L111.816 22.2168C124.463 22.2168 130.859 15.8691 130.859 3.41797L130.859-73.7305C130.859-86.1816 124.463-92.5293 111.816-92.5293L35.0586-92.5293C22.4609-92.5293 16.0645-86.2305 16.0645-73.7305L16.0645 3.41797C16.0645 15.918 22.4609 22.2168 35.0586 22.2168ZM40.332-8.98438C38.2812-8.98438 36.9629-10.3516 36.9629-12.4512C36.9629-13.5742 37.3535-14.5996 38.1836-15.5273L55.7617-36.084C59.082-39.9902 62.1582-43.5547 62.1582-47.8027C62.1582-52.8809 58.5938-56.25 52.9297-56.25C47.8027-56.25 44.1406-53.5156 42.7246-48.3887C42.0898-46.6309 41.1621-45.6543 39.4531-45.6543C37.4512-45.6543 36.2305-47.0215 36.2305-49.0723C36.2305-49.8047 36.377-50.4883 36.4746-51.2695C38.0371-57.9102 44.9219-62.8906 52.6367-62.8906C62.5977-62.8906 69.1406-57.1777 69.1406-48.291C69.1406-42.2363 65.8203-37.6465 60.7422-31.7871L47.3145-16.1133L47.3145-15.7227L67.334-15.7227C69.1406-15.7227 70.5078-14.502 70.5078-12.4023C70.5078-10.3516 69.1406-8.98438 67.334-8.98438ZM95.1172-7.66602C84.0332-7.66602 76.709-18.3105 76.709-35.2539C76.709-52.2461 84.0332-62.8906 95.1172-62.8906C106.152-62.8906 113.525-52.2461 113.525-35.2539C113.525-18.3105 106.152-7.66602 95.1172-7.66602ZM95.1172-14.5508C101.807-14.5508 106.104-22.5586 106.104-35.2539C106.104-47.9492 101.758-55.957 95.1172-55.957C88.4277-55.957 84.1309-47.9492 84.1309-35.2539C84.1309-22.5586 88.4277-14.5508 95.1172-14.5508Z"/>
  </g>
  <g id="Light-L" transform="matrix(1 0 0 1 1080.5 1556)">
   <path d="M34.0332 21.4355L111.23 21.4355C123.096 21.4355 129.199 15.2344 129.199 3.56445L129.199-73.8281C129.199-85.5469 123.096-91.6992 111.23-91.6992L34.0332-91.6992C22.168-91.6992 16.0645-85.6445 16.0645-73.8281L16.0645 3.56445C16.0645 15.3809 22.168 21.4355 34.0332 21.4355ZM39.8438-9.32617C38.0859-9.32617 36.9629-10.4492 36.9629-12.207C36.9629-13.1836 37.2559-13.9648 37.9395-14.7461L56.1035-35.8887C59.7656-40.1855 62.4023-43.7012 62.4023-47.8516C62.4023-53.3691 58.4961-56.9824 52.2949-56.9824C46.4844-56.9824 42.2852-53.6133 41.3086-48.2422C40.8203-46.7285 40.0391-45.8984 38.5742-45.8984C36.9141-45.8984 35.8887-47.0703 35.8887-48.6816C35.8887-49.3652 36.0352-49.9512 36.1328-50.6348C37.5488-57.373 44.3359-62.3535 52.1484-62.3535C61.7188-62.3535 68.0664-56.7871 68.0664-48.1445C68.0664-42.5781 65.0879-38.1348 59.7656-31.9824L45.2637-15.0879L45.2637-14.7461L66.8945-14.7461C68.457-14.7461 69.4824-13.7207 69.4824-12.0605C69.4824-10.498 68.457-9.32617 66.8945-9.32617ZM94.1895-8.20312C83.3008-8.20312 76.0254-18.8477 76.0254-35.2539C76.0254-51.709 83.3008-62.3535 94.1895-62.3535C105.029-62.3535 112.354-51.709 112.354-35.2539C112.354-18.8477 105.029-8.20312 94.1895-8.20312ZM94.1895-13.7207C101.562-13.7207 106.494-22.2168 106.494-35.2539C106.494-48.291 101.562-56.7871 94.1895-56.7871C86.8164-56.7871 81.9336-48.291 81.9336-35.2539C81.9336-22.2168 86.8164-13.7207 94.1895-13.7207Z"/>
  </g>
  <g id="Thin-L" transform="matrix(1 0 0 1 784.889 1556)">
   <path d="M32.666 20.3613L110.352 20.3613C121.24 20.3613 127.002 14.4531 127.002 3.75977L127.002-73.9746C127.002-84.7168 121.24-90.5762 110.352-90.5762L32.666-90.5762C21.7773-90.5762 16.0645-84.8633 16.0645-73.9746L16.0645 3.75977C16.0645 14.6484 21.7773 20.3613 32.666 20.3613ZM39.1113-9.81445C37.8418-9.81445 36.9629-10.5469 36.9629-11.8652C36.9629-12.6465 37.1582-13.1348 37.6465-13.6719L56.5918-35.5957C60.6934-40.4297 62.7441-43.8477 62.7441-47.9492C62.7441-54.0039 58.3984-57.959 51.4648-57.959C44.7754-57.959 39.8926-53.8086 39.3555-48.0469C39.209-46.875 38.5742-46.1914 37.4023-46.1914C36.2305-46.1914 35.498-47.0703 35.498-48.1934C35.498-48.7793 35.5957-49.2188 35.6445-49.8535C36.8652-56.6895 43.5547-61.6211 51.416-61.6211C60.5469-61.6211 66.6504-56.25 66.6504-47.9492C66.6504-43.0176 64.1602-38.8184 58.4961-32.2266L42.5293-13.6719L42.5293-13.4766L66.3574-13.4766C67.4805-13.4766 68.1641-12.6953 68.1641-11.6699C68.1641-10.6445 67.4805-9.81445 66.3574-9.81445ZM92.9688-8.93555C82.373-8.93555 75.0977-19.5801 75.0977-35.2539C75.0977-50.9766 82.373-61.6211 92.9688-61.6211C103.564-61.6211 110.84-50.9766 110.84-35.2539C110.84-19.5801 103.564-8.93555 92.9688-8.93555ZM92.9688-12.6465C101.27-12.6465 106.982-21.7773 106.982-35.2539C106.982-48.7305 101.27-57.9102 92.9688-57.9102C84.668-57.9102 78.9551-48.7305 78.9551-35.2539C78.9551-21.7773 84.668-12.6465 92.9688-12.6465Z"/>
  </g>
  <g id="Ultralight-L" transform="matrix(1 0 0 1 488.739 1556)">
   <path d="M31.9824 19.7754L109.961 19.7754C120.312 19.7754 125.879 14.0625 125.879 3.85742L125.879-74.0723C125.879-84.2773 120.312-89.9902 109.961-89.9902L31.9824-89.9902C21.582-89.9902 16.0645-84.4727 16.0645-74.0723L16.0645 3.85742C16.0645 14.2578 21.582 19.7754 31.9824 19.7754ZM38.7695-10.0586C37.7441-10.0586 37.0117-10.5957 37.0117-11.7188C37.0117-12.3535 37.1094-12.6953 37.5-13.1348L56.7871-35.4492C61.1816-40.5762 62.8906-43.8965 62.8906-47.998C62.8906-54.3457 58.3496-58.4473 51.0254-58.4473C43.8965-58.4473 38.623-53.9062 38.3789-47.9492C38.3789-46.9727 37.8418-46.3867 36.7676-46.3867C35.8398-46.3867 35.3027-47.1191 35.3027-47.9492C35.3027-48.4863 35.3516-48.8281 35.4492-49.4629C36.5234-56.3477 43.1641-61.2305 51.0742-61.2305C59.9609-61.2305 65.918-55.957 65.918-47.8516C65.918-43.2617 63.7207-39.1113 57.8125-32.373L41.1621-12.9883L41.1621-12.8418L66.0645-12.8418C66.9922-12.8418 67.4805-12.1582 67.4805-11.4258C67.4805-10.6934 66.9922-10.0586 66.0645-10.0586ZM92.334-9.32617C81.8848-9.32617 74.6582-19.9219 74.6582-35.2539C74.6582-50.6348 81.8848-61.2305 92.334-61.2305C102.832-61.2305 110.059-50.6348 110.059-35.2539C110.059-19.9219 102.832-9.32617 92.334-9.32617ZM92.334-12.0605C101.074-12.0605 107.227-21.582 107.227-35.2539C107.227-48.9746 101.074-58.4473 92.334-58.4473C83.5938-58.4473 77.4414-48.9746 77.4414-35.2539C77.4414-21.582 83.5938-12.0605 92.334-12.0605Z"/>
  </g>
  <g id="Black-M" transform="matrix(1 0 0 1 2872.19 1126)">
   <path d="M31.9824 13.5742L90.4297 13.5742C102.686 13.5742 109.961 6.29883 109.961-5.95703L109.961-64.4043C109.961-76.6602 102.686-83.9355 90.4297-83.9355L31.9824-83.9355C19.7266-83.9355 12.4512-76.6602 12.4512-64.4043L12.4512-5.95703C12.4512 6.29883 19.7266 13.5742 31.9824 13.5742ZM41.3574-16.3086C38.4766-16.3086 36.084-18.3105 36.084-21.582C36.084-23.7793 36.8164-25.5371 38.8672-27.9297L46.1426-36.4746C48.4375-39.209 49.9023-40.6738 49.9023-42.627C49.9023-43.9453 48.6328-45.0195 47.1191-45.0195C45.8008-45.0195 44.6289-44.043 44.2871-42.6758C43.75-40.8691 42.334-39.4043 39.6973-39.4043C37.0117-39.4043 35.2539-41.3086 35.2539-43.9941C35.2539-45.0195 35.3516-45.752 35.6445-46.6797C37.0605-51.6602 41.8945-54.8828 47.6562-54.8828C54.9316-54.8828 59.2285-50.0977 59.375-43.5547C59.4238-39.3066 57.6172-35.9375 53.6621-31.3965L49.8047-26.9043L49.8047-26.416L55.3223-26.416C58.6426-26.416 60.6445-24.5605 60.6445-21.4355C60.6445-18.1641 58.6426-16.3086 55.3223-16.3086ZM76.4648-15.625C68.75-15.625 63.5254-21.0938 63.5254-35.2539C63.5254-49.4141 68.75-54.8828 76.4648-54.8828C84.082-54.8828 89.7461-49.4141 89.7461-35.2539C89.7461-21.0938 84.082-15.625 76.4648-15.625ZM76.6602-26.1719C78.0762-26.1719 79.0039-27.8809 79.0039-35.2539C79.0039-42.627 78.0762-44.3359 76.6602-44.3359C75.1953-44.3359 74.2676-42.627 74.2676-35.2539C74.2676-27.8809 75.1953-26.1719 76.6602-26.1719Z"/>
  </g>
  <g id="Heavy-M" transform="matrix(1 0 0 1 2576.39 1126)">
   <path d="M31.0059 12.6465L89.6484 12.6465C101.416 12.6465 108.154 5.9082 108.154-5.81055L108.154-64.5508C108.154-76.2695 101.416-83.0566 89.6484-83.0566L31.0059-83.0566C19.2383-83.0566 12.4512-76.3184 12.4512-64.5508L12.4512-5.81055C12.4512 5.9082 19.2383 12.6465 31.0059 12.6465ZM39.0625-15.918C36.4258-15.918 34.3262-17.7246 34.3262-20.6543C34.3262-22.5586 34.9609-24.1211 36.7188-26.1719L45.4102-36.3281C47.7051-39.1113 49.4629-40.8691 49.4629-43.1641C49.4629-45.0684 47.8516-46.4844 45.752-46.4844C43.8965-46.4844 42.4316-45.3125 41.8457-43.3594C41.2598-41.6016 40.0391-40.2832 37.6465-40.2832C35.2051-40.2832 33.5938-42.041 33.5938-44.5312C33.5938-45.4102 33.7402-46.1426 33.9355-46.9727C35.3516-52.002 40.332-55.3711 46.0938-55.3711C53.5156-55.3711 58.0566-50.6348 58.1543-43.9941C58.2031-39.5508 56.1523-36.1328 52.2461-31.6406L46.9727-25.5371L46.9727-25.0488L54.6387-25.0488C57.5195-25.0488 59.375-23.3887 59.375-20.5566C59.375-17.627 57.5195-15.918 54.6387-15.918ZM75.9277-15.1367C67.9688-15.1367 62.6465-21.2891 62.6465-35.2539C62.6465-49.2676 67.9688-55.3711 75.9277-55.3711C83.7891-55.3711 89.502-49.2676 89.502-35.2539C89.502-21.2891 83.7891-15.1367 75.9277-15.1367ZM76.0742-24.6582C78.2715-24.6582 79.7363-27.3438 79.7363-35.2539C79.7363-43.1641 78.2715-45.8984 76.0742-45.8984C73.8281-45.8984 72.4121-43.1641 72.4121-35.2539C72.4121-27.3438 73.8281-24.6582 76.0742-24.6582Z"/>
  </g>
  <g id="Bold-M" transform="matrix(1 0 0 1 2280.68 1126)">
   <path d="M29.8828 11.6699L88.7207 11.6699C99.9512 11.6699 106.152 5.46875 106.152-5.66406L106.152-64.6973C106.152-75.8789 99.9512-82.0312 88.7207-82.0312L29.8828-82.0312C18.6523-82.0312 12.4512-75.8789 12.4512-64.6973L12.4512-5.66406C12.4512 5.51758 18.6523 11.6699 29.8828 11.6699ZM36.4746-15.4785C34.1309-15.4785 32.373-17.0898 32.373-19.6289C32.373-21.2402 32.9102-22.5586 34.2773-24.1699L44.5801-36.2305C46.9238-39.0137 48.9746-41.1621 48.9746-43.75C48.9746-46.2891 47.0215-48.0957 44.2383-48.0957C41.7969-48.0957 39.9414-46.6797 39.1113-44.0918C38.5254-42.4316 37.4512-41.3086 35.4004-41.3086C33.1543-41.3086 31.7383-42.8223 31.7383-45.0684C31.7383-45.8984 31.8848-46.582 32.0312-47.3145C33.4473-52.3926 38.5254-55.957 44.3848-55.957C51.9531-55.957 56.7383-51.2695 56.7871-44.4824C56.8359-39.8438 54.4922-36.377 50.6348-31.9336L43.7988-23.9746L43.7988-23.5352L53.8574-23.5352C56.2988-23.5352 57.9102-22.1191 57.9102-19.5801C57.9102-17.041 56.2988-15.4785 53.8574-15.4785ZM75.3418-14.5996C67.1387-14.5996 61.6699-21.4844 61.6699-35.2539C61.6699-49.0723 67.1387-55.957 75.3418-55.957C83.4961-55.957 89.209-49.0723 89.209-35.2539C89.209-21.4844 83.4961-14.5996 75.3418-14.5996ZM75.4395-22.9492C78.5645-22.9492 80.5176-26.7578 80.5176-35.2539C80.5176-43.75 78.5156-47.6074 75.4395-47.6074C72.3145-47.6074 70.3613-43.75 70.3613-35.2539C70.3613-26.7578 72.3145-22.9492 75.4395-22.9492Z"/>
  </g>
  <g id="Semibold-M" transform="matrix(1 0 0 1 1984.65 1126)">
   <path d="M29.1016 10.9863L88.0859 10.9863C98.9746 10.9863 104.785 5.17578 104.785-5.56641L104.785-64.8438C104.785-75.5859 98.9746-81.3477 88.0859-81.3477L29.1016-81.3477C18.2617-81.3477 12.4512-75.5859 12.4512-64.8438L12.4512-5.56641C12.4512 5.22461 18.2617 10.9863 29.1016 10.9863ZM34.668-15.1855C32.5684-15.1855 31.0059-16.6504 31.0059-18.9453C31.0059-20.3125 31.4941-21.4844 32.6172-22.8027L43.9941-36.1816C46.3379-38.9648 48.6328-41.3086 48.6328-44.1895C48.6328-47.168 46.4355-49.1699 43.2129-49.1699C40.332-49.1699 38.2324-47.6562 37.2559-44.5801C36.6211-43.0176 35.6445-41.9922 33.8379-41.9922C31.7871-41.9922 30.4688-43.4082 30.4688-45.5078C30.4688-46.1914 30.6152-46.875 30.7617-47.5586C32.0801-52.6855 37.3047-56.2988 43.2129-56.2988C50.8789-56.2988 55.8105-51.709 55.8594-44.8242C55.8594-40.0879 53.3691-36.5234 49.5605-32.1289L41.6504-22.9004L41.6504-22.5098L53.3691-22.5098C55.4688-22.5098 56.9336-21.1914 56.9336-18.8965C56.9336-16.6016 55.4688-15.1855 53.3691-15.1855ZM74.9512-14.209C66.5527-14.209 60.9863-21.582 60.9863-35.2539C60.9863-48.9258 66.5527-56.2988 74.9512-56.2988C83.252-56.2988 89.0137-48.9258 89.0137-35.2539C89.0137-21.582 83.252-14.209 74.9512-14.209ZM75-21.7773C78.7109-21.7773 81.0547-26.3184 81.0547-35.2539C81.0547-44.1895 78.7109-48.7793 75-48.7793C71.2891-48.7793 68.9453-44.1895 68.9453-35.2539C68.9453-26.3184 71.2891-21.7773 75-21.7773Z"/>
  </g>
  <g id="Medium-M" transform="matrix(1 0 0 1 1688.47 1126)">
   <path d="M28.5156 10.4492L87.6465 10.4492C98.2422 10.4492 103.711 4.98047 103.711-5.46875L103.711-64.8926C103.711-75.3418 98.2422-80.8105 87.6465-80.8105L28.5156-80.8105C17.9688-80.8105 12.4512-75.3906 12.4512-64.8926L12.4512-5.46875C12.4512 4.98047 17.9688 10.4492 28.5156 10.4492ZM33.3496-14.9902C31.3477-14.9902 29.9805-16.3086 29.9805-18.4082C29.9805-19.6289 30.4199-20.6543 31.3965-21.7773L43.5547-36.1328C45.9473-38.8672 48.3887-41.4551 48.3887-44.4824C48.3887-47.8027 45.9961-50.0488 42.3828-50.0488C39.2578-50.0488 36.9141-48.3887 35.8398-44.9707C35.2051-43.457 34.2773-42.4805 32.6172-42.4805C30.7129-42.4805 29.4922-43.7988 29.4922-45.8008C29.4922-46.4355 29.6387-47.0703 29.7852-47.7539C31.1035-52.8809 36.377-56.5918 42.2852-56.5918C50.0977-56.5918 55.0781-52.0508 55.127-45.1172C55.127-40.2344 52.5391-36.6699 48.7305-32.2754L39.9902-22.0703L39.9902-21.6797L52.9297-21.6797C54.834-21.6797 56.2012-20.5078 56.2012-18.3594C56.2012-16.3086 54.834-14.9902 52.9297-14.9902ZM74.6582-13.916C66.1133-13.916 60.498-21.6797 60.498-35.2539C60.498-48.8281 66.1133-56.5918 74.6582-56.5918C83.1055-56.5918 88.8672-48.8281 88.8672-35.2539C88.8672-21.6797 83.1055-13.916 74.6582-13.916ZM74.6582-20.8496C78.8574-20.8496 81.4453-26.0254 81.4453-35.2539C81.4453-44.4824 78.8086-49.6582 74.6582-49.6582C70.459-49.6582 67.8711-44.4824 67.8711-35.2539C67.8711-26.0254 70.459-20.8496 74.6582-20.8496Z"/>
  </g>
  <g id="Regular-M" transform="matrix(1 0 0 1 1392.45 1126)">
   <path d="M27.7832 9.76562L87.0117 9.76562C97.2656 9.76562 102.344 4.6875 102.344-5.37109L102.344-64.9902C102.344-75.0488 97.2656-80.127 87.0117-80.127L27.7832-80.127C17.5781-80.127 12.4512-75.0977 12.4512-64.9902L12.4512-5.37109C12.4512 4.73633 17.5781 9.76562 27.7832 9.76562ZM31.5918-14.6973C29.7852-14.6973 28.6133-15.8691 28.6133-17.6758C28.6133-18.7012 29.0039-19.5801 29.7363-20.4102L43.0176-36.0352C45.4102-38.8184 48.0469-41.6504 48.0469-44.9219C48.0469-48.6328 45.459-51.123 41.3574-51.123C37.793-51.123 35.2539-49.3164 33.9355-45.5078C33.3008-43.9941 32.5195-43.1641 31.0547-43.1641C29.3457-43.1641 28.2715-44.3848 28.2715-46.1914C28.2715-46.7773 28.3691-47.3633 28.4668-47.998C29.7852-53.125 35.1562-56.9824 41.1133-56.9824C49.0234-56.9824 54.1992-52.4902 54.1992-45.459C54.1992-40.4297 51.416-36.8164 47.6562-32.4707L37.8418-21.0449L37.8418-20.6543L52.3926-20.6543C54.0039-20.6543 55.2246-19.6289 55.2246-17.7246C55.2246-15.918 54.0039-14.6973 52.3926-14.6973ZM74.2188-13.5254C65.5273-13.5254 59.8145-21.8262 59.8145-35.2539C59.8145-48.6816 65.5273-56.9824 74.2188-56.9824C82.9102-56.9824 88.623-48.6816 88.623-35.2539C88.623-21.8262 82.9102-13.5254 74.2188-13.5254ZM74.2188-19.6777C79.0527-19.6777 81.9824-25.5859 81.9824-35.2539C81.9824-44.9219 79.0039-50.8301 74.2188-50.8301C69.4336-50.8301 66.5039-44.9219 66.5039-35.2539C66.5039-25.5859 69.4336-19.6777 74.2188-19.6777Z"/>
  </g>
  <g id="Light-M" transform="matrix(1 0 0 1 1096.47 1126)">
   <path d="M26.8555 9.0332L86.4746 9.0332C95.9961 9.0332 100.879 4.15039 100.879-5.22461L100.879-65.0879C100.879-74.5117 95.9961-79.3945 86.4746-79.3945L26.8555-79.3945C17.334-79.3945 12.4512-74.5605 12.4512-65.0879L12.4512-5.22461C12.4512 4.19922 17.334 9.0332 26.8555 9.0332ZM31.1035-15.0391C29.6387-15.0391 28.6133-15.9668 28.6133-17.4805C28.6133-18.3105 28.9062-19.043 29.541-19.6777L43.3105-35.8398C45.9961-39.0137 48.2422-41.748 48.2422-44.9707C48.2422-49.0723 45.3613-51.7578 40.8203-51.7578C36.6211-51.7578 33.5938-49.4141 32.666-45.3613C32.1777-44.0918 31.543-43.3594 30.2734-43.3594C28.8574-43.3594 27.9785-44.3848 27.9785-45.8496C27.9785-46.3867 28.0762-46.875 28.1738-47.4609C29.3457-52.6367 34.6191-56.4941 40.625-56.4941C48.2422-56.4941 53.2227-52.0996 53.2227-45.3125C53.2227-40.7715 50.7812-37.2559 46.7773-32.6172L35.9863-20.0684L35.9863-19.7754L52.0508-19.7754C53.3691-19.7754 54.2969-18.8965 54.2969-17.4316C54.2969-16.0156 53.3691-15.0391 52.0508-15.0391ZM73.3887-14.0625C64.8926-14.0625 59.2285-22.3145 59.2285-35.2539C59.2285-48.2422 64.8926-56.4941 73.3887-56.4941C81.8848-56.4941 87.5977-48.2422 87.5977-35.2539C87.5977-22.3145 81.8848-14.0625 73.3887-14.0625ZM73.3887-18.9453C78.8086-18.9453 82.3242-25.293 82.3242-35.2539C82.3242-45.2148 78.8086-51.5625 73.3887-51.5625C68.0176-51.5625 64.502-45.2148 64.502-35.2539C64.502-25.293 68.0176-18.9453 73.3887-18.9453Z"/>
  </g>
  <g id="Thin-M" transform="matrix(1 0 0 1 800.758 1126)">
   <path d="M25.6348 8.05664L85.7422 8.05664C94.3848 8.05664 98.877 3.4668 98.877-5.0293L98.877-65.2344C98.877-73.7305 94.3848-78.3691 85.7422-78.3691L25.6348-78.3691C16.9922-78.3691 12.4512-73.877 12.4512-65.2344L12.4512-5.0293C12.4512 3.56445 16.9922 8.05664 25.6348 8.05664ZM30.4688-15.4297C29.3945-15.4297 28.6621-16.0645 28.6621-17.1875C28.6621-17.8711 28.8574-18.2617 29.248-18.75L43.75-35.5957C46.8262-39.209 48.5352-41.8457 48.5352-45.0684C48.5352-49.6582 45.3125-52.6367 40.0391-52.6367C35.0586-52.6367 31.4453-49.6094 30.9082-45.166C30.7129-44.2383 30.2246-43.6523 29.248-43.6523C28.2227-43.6523 27.5879-44.4336 27.5879-45.4102C27.5879-45.8496 27.6855-46.2402 27.7344-46.7285C28.7109-52.002 33.9355-55.8105 39.9902-55.8105C47.168-55.8105 51.9531-51.6113 51.9531-45.1172C51.9531-41.1621 49.9512-37.8418 45.6055-32.8613L33.5449-18.8477L33.5449-18.6523L51.5137-18.6523C52.4902-18.6523 53.125-18.0176 53.125-17.041C53.125-16.1133 52.4902-15.4297 51.5137-15.4297ZM72.3145-14.6973C64.0137-14.6973 58.3984-22.9492 58.3984-35.2539C58.3984-47.6074 64.0137-55.8105 72.3145-55.8105C80.5664-55.8105 86.2305-47.6074 86.2305-35.2539C86.2305-22.9492 80.5664-14.6973 72.3145-14.6973ZM72.3145-17.9688C78.5156-17.9688 82.8125-24.9023 82.8125-35.2539C82.8125-45.6055 78.5156-52.5391 72.3145-52.5391C66.0645-52.5391 61.8164-45.6055 61.8164-35.2539C61.8164-24.9023 66.0645-17.9688 72.3145-17.9688Z"/>
  </g>
  <g id="Ultralight-M" transform="matrix(1 0 0 1 504.535 1126)">
   <path d="M25 7.56836L85.3516 7.56836C93.5059 7.56836 97.9004 3.125 97.9004-4.98047L97.9004-65.2832C97.9004-73.3887 93.5059-77.832 85.3516-77.832L25-77.832C16.7969-77.832 12.4512-73.4863 12.4512-65.2832L12.4512-4.98047C12.4512 3.22266 16.7969 7.56836 25 7.56836ZM30.127-15.625C29.2969-15.625 28.6621-16.1133 28.6621-17.041C28.6621-17.627 28.8086-17.9199 29.1016-18.2617L43.9453-35.4492C47.2656-39.3066 48.6816-41.9434 48.6816-45.1172C48.6816-49.9512 45.2637-53.0762 39.6484-53.0762C34.2773-53.0762 30.3223-49.6582 30.0293-45.1172C29.9805-44.2871 29.541-43.7988 28.7109-43.7988C27.8809-43.7988 27.3926-44.4336 27.3926-45.166C27.3926-45.6055 27.4902-45.8984 27.5391-46.3867C28.418-51.709 33.5449-55.4688 39.6973-55.4688C46.6309-55.4688 51.3184-51.3672 51.3184-45.0195C51.3184-41.4062 49.5117-38.1348 45.0195-32.959L32.3242-18.2129L32.3242-18.0664L51.2695-18.0664C52.0508-18.0664 52.4902-17.5293 52.4902-16.8457C52.4902-16.2109 52.0508-15.625 51.2695-15.625ZM71.7285-15.0391C63.5742-15.0391 58.0078-23.2422 58.0078-35.2539C58.0078-47.2656 63.5742-55.4688 71.7285-55.4688C79.8828-55.4688 85.498-47.2656 85.498-35.2539C85.498-23.2422 79.8828-15.0391 71.7285-15.0391ZM71.7285-17.4805C78.3691-17.4805 83.0566-24.707 83.0566-35.2539C83.0566-45.8008 78.3691-53.0762 71.7285-53.0762C65.0879-53.0762 60.4492-45.8008 60.4492-35.2539C60.4492-24.707 65.0879-17.4805 71.7285-17.4805Z"/>
  </g>
  <g id="Black-S" transform="matrix(1 0 0 1 2885.5 696)">
   <path d="M25 2.92969L70.8008 2.92969C80.3711 2.92969 86.0352-2.73438 86.0352-12.3047L86.0352-58.1055C86.0352-67.6758 80.3711-73.3398 70.8008-73.3398L25-73.3398C15.4297-73.3398 9.76562-67.6758 9.76562-58.1055L9.76562-12.3047C9.76562-2.73438 15.4297 2.92969 25 2.92969ZM32.2266-20.3613C29.9805-20.3613 28.125-21.9238 28.125-24.4629C28.125-26.1719 28.7109-27.5391 30.2734-29.3945L36.084-36.1816C37.8906-38.3301 39.0625-39.502 39.0625-41.0645C39.0625-42.1387 38.0371-43.0176 36.8164-43.0176C35.7422-43.0176 34.8145-42.2363 34.5215-41.1133C34.082-39.6973 33.0078-38.5742 30.957-38.5742C28.8574-38.5742 27.4902-40.0391 27.4902-42.1387C27.4902-42.9199 27.5879-43.5059 27.7832-44.2383C28.9062-48.1445 32.7148-50.6836 37.207-50.6836C42.9199-50.6836 46.3379-46.9238 46.4355-41.7969C46.4844-38.4277 45.0195-35.791 41.9434-32.2266L38.8184-28.6133L38.8184-28.2227L43.3105-28.2227C45.8496-28.2227 47.4121-26.8066 47.4121-24.3652C47.4121-21.8262 45.8496-20.3613 43.3105-20.3613ZM59.8633-19.8242C53.8086-19.8242 49.707-24.1699 49.707-35.2539C49.707-46.3379 53.8086-50.6836 59.8633-50.6836C65.8691-50.6836 70.3125-46.3379 70.3125-35.2539C70.3125-24.1699 65.8691-19.8242 59.8633-19.8242ZM60.0098-28.0273C61.1816-28.0273 61.9629-29.4434 61.9629-35.2539C61.9629-41.0645 61.1816-42.4805 60.0098-42.4805C58.8379-42.4805 58.0566-41.0645 58.0566-35.2539C58.0566-29.4434 58.8379-28.0273 60.0098-28.0273Z"/>
  </g>
  <g id="Heavy-S" transform="matrix(1 0 0 1 2589.4 696)">
   <path d="M24.3652 2.34375L70.2637 2.34375C79.541 2.34375 84.8145-2.97852 84.8145-12.207L84.8145-58.2031C84.8145-67.4316 79.541-72.7539 70.2637-72.7539L24.3652-72.7539C15.0879-72.7539 9.76562-67.4316 9.76562-58.2031L9.76562-12.207C9.76562-2.97852 15.0879 2.34375 24.3652 2.34375ZM30.5176-20.0195C28.418-20.0195 26.7578-21.4844 26.7578-23.7793C26.7578-25.293 27.2949-26.5137 28.6621-28.125L35.498-36.1328C37.2559-38.2324 38.7207-39.6484 38.7207-41.4551C38.7207-42.9199 37.4512-44.043 35.8398-44.043C34.4238-44.043 33.3008-43.1641 32.8125-41.6504C32.3242-40.2344 31.3477-39.209 29.4922-39.209C27.5391-39.209 26.2695-40.5762 26.2695-42.5781C26.2695-43.2617 26.3672-43.8477 26.5137-44.5312C27.6367-48.4375 31.543-51.123 36.084-51.123C41.9434-51.123 45.5078-47.4121 45.6055-42.1387C45.6543-38.623 43.9941-35.8887 40.9668-32.4219L36.8652-27.6367L36.8652-27.2949L42.8223-27.2949C45.0684-27.2949 46.5332-25.9766 46.5332-23.7305C46.5332-21.3867 45.0684-20.0195 42.8223-20.0195ZM59.5703-19.3848C53.3203-19.3848 49.1211-24.2676 49.1211-35.2539C49.1211-46.2402 53.3203-51.123 59.5703-51.123C65.7715-51.123 70.2148-46.2402 70.2148-35.2539C70.2148-24.2676 65.7715-19.3848 59.5703-19.3848ZM59.668-26.9531C61.377-26.9531 62.4512-29.0527 62.4512-35.2539C62.4512-41.4551 61.377-43.5547 59.668-43.5547C57.959-43.5547 56.8848-41.4551 56.8848-35.2539C56.8848-29.0527 57.959-26.9531 59.668-26.9531Z"/>
  </g>
  <g id="Bold-S" transform="matrix(1 0 0 1 2293.35 696)">
   <path d="M23.6328 1.66016L69.6289 1.66016C78.6133 1.66016 83.4961-3.22266 83.4961-12.1094L83.4961-58.3008C83.4961-67.1875 78.6133-72.0703 69.6289-72.0703L23.6328-72.0703C14.6973-72.0703 9.76562-67.1875 9.76562-58.3008L9.76562-12.1094C9.76562-3.22266 14.6973 1.66016 23.6328 1.66016ZM28.6133-19.6777C26.709-19.6777 25.293-20.9961 25.293-23.0469C25.293-24.3164 25.7324-25.3906 26.8555-26.6602L34.8145-36.084C36.5723-38.1348 38.2812-39.8438 38.2812-41.9434C38.2812-43.8477 36.8164-45.2148 34.7656-45.2148C32.959-45.2148 31.5918-44.2383 30.8594-42.2363C30.3711-40.8691 29.4922-39.9414 27.832-39.9414C26.0254-39.9414 24.9023-41.2109 24.9023-43.0664C24.9023-43.7012 25-44.2383 25.1465-44.873C26.2207-48.8281 30.2734-51.6113 34.8145-51.6113C40.8691-51.6113 44.6289-47.9004 44.6777-42.5293C44.6777-38.8184 42.8223-36.0352 39.8438-32.6172L34.668-26.6113L34.668-26.2207L42.2852-26.2207C44.2383-26.2207 45.5566-25.0488 45.5566-22.998C45.5566-20.9473 44.2383-19.6777 42.2852-19.6777ZM59.2285-18.8965C52.7344-18.8965 48.4375-24.3164 48.4375-35.2539C48.4375-46.1914 52.7344-51.6113 59.2285-51.6113C65.625-51.6113 70.1172-46.1914 70.1172-35.2539C70.1172-24.3164 65.625-18.8965 59.2285-18.8965ZM59.2773-25.7324C61.6211-25.7324 63.0371-28.6621 63.0371-35.2539C63.0371-41.8457 61.5723-44.7754 59.2773-44.7754C56.9824-44.7754 55.5664-41.8457 55.5664-35.2539C55.5664-28.6621 56.9824-25.7324 59.2773-25.7324Z"/>
  </g>
  <g id="Semibold-S" transform="matrix(1 0 0 1 1997.1 696)">
   <path d="M23.0957 1.17188L69.1895 1.17188C77.9297 1.17188 82.5684-3.36914 82.5684-12.0117L82.5684-58.3984C82.5684-67.041 77.9297-71.582 69.1895-71.582L23.0957-71.582C14.4043-71.582 9.76562-67.041 9.76562-58.3984L9.76562-12.0117C9.76562-3.36914 14.4043 1.17188 23.0957 1.17188ZM27.2949-19.4336C25.4883-19.4336 24.2188-20.6543 24.2188-22.5098C24.2188-23.6328 24.6582-24.6094 25.5859-25.6836L34.375-36.0352C36.084-38.0859 38.0371-39.9902 38.0371-42.2363C38.0371-44.4336 36.377-45.9961 33.9844-45.9961C31.9336-45.9961 30.4688-44.9219 29.541-42.627C29.0039-41.3086 28.2227-40.4785 26.709-40.4785C25-40.4785 23.9258-41.6504 23.9258-43.4082C23.9258-43.9941 24.0234-44.5312 24.1699-45.0684C25.2441-49.0723 29.3457-51.9531 33.9355-51.9531C40.0879-51.9531 43.9941-48.291 44.043-42.8223C44.043-38.916 41.9922-36.084 39.0625-32.7637L33.1543-25.8301L33.1543-25.4883L41.8945-25.4883C43.6523-25.4883 44.873-24.4141 44.873-22.5098C44.873-20.6055 43.6523-19.4336 41.8945-19.4336ZM58.9844-18.5547C52.3438-18.5547 47.998-24.3652 47.998-35.2539C47.998-46.1426 52.3438-51.9531 58.9844-51.9531C65.5762-51.9531 70.0684-46.1426 70.0684-35.2539C70.0684-24.3652 65.5762-18.5547 58.9844-18.5547ZM59.0332-24.9023C61.7676-24.9023 63.3789-28.3691 63.3789-35.2539C63.3789-42.1387 61.7188-45.6055 59.0332-45.6055C56.2988-45.6055 54.6387-42.1387 54.6387-35.2539C54.6387-28.3691 56.2988-24.9023 59.0332-24.9023Z"/>
  </g>
  <g id="Medium-S" transform="matrix(1 0 0 1 1700.75 696)">
   <path d="M22.7051 0.830078L68.8965 0.830078C77.4414 0.830078 81.8359-3.51562 81.8359-11.9629L81.8359-58.4473C81.8359-66.8945 77.4414-71.2402 68.8965-71.2402L22.7051-71.2402C14.209-71.2402 9.76562-66.8945 9.76562-58.4473L9.76562-11.9629C9.76562-3.51562 14.209 0.830078 22.7051 0.830078ZM26.2695-19.2383C24.6094-19.2383 23.4375-20.3613 23.4375-22.1191C23.4375-23.1445 23.8281-24.0234 24.6582-24.9512L33.9844-35.9863C35.7422-38.0371 37.793-40.0879 37.793-42.4805C37.793-44.9219 36.084-46.582 33.3984-46.582C31.2012-46.582 29.541-45.5078 28.5645-42.9199C27.9785-41.6504 27.2461-40.8203 25.8301-40.8203C24.2188-40.8203 23.1934-41.9434 23.1934-43.6523C23.1934-44.1895 23.291-44.7266 23.4375-45.2637C24.5117-49.2676 28.6621-52.1973 33.3008-52.1973C39.5508-52.1973 43.5547-48.5352 43.5547-43.0176C43.5547-39.0137 41.3574-36.1816 38.5254-32.8613L32.0312-25.293L32.0312-24.9512L41.6016-24.9512C43.2129-24.9512 44.3848-23.9746 44.3848-22.1191C44.3848-20.3613 43.2129-19.2383 41.6016-19.2383ZM58.7891-18.3105C52.0508-18.3105 47.6074-24.4141 47.6074-35.2539C47.6074-46.0938 52.0508-52.1973 58.7891-52.1973C65.4785-52.1973 70.0195-46.0938 70.0195-35.2539C70.0195-24.4141 65.4785-18.3105 58.7891-18.3105ZM58.8379-24.2676C61.8652-24.2676 63.6719-28.125 63.6719-35.2539C63.6719-42.3828 61.8164-46.2402 58.8379-46.2402C55.7617-46.2402 53.9551-42.3828 53.9551-35.2539C53.9551-28.125 55.7617-24.2676 58.8379-24.2676Z"/>
  </g>
  <g id="Regular-S" transform="matrix(1 0 0 1 1404.51 696)">
   <path d="M22.2168 0.390625L68.457 0.390625C76.8066 0.390625 80.9082-3.71094 80.9082-11.9141L80.9082-58.4961C80.9082-66.6992 76.8066-70.8008 68.457-70.8008L22.2168-70.8008C13.916-70.8008 9.76562-66.6992 9.76562-58.4961L9.76562-11.9141C9.76562-3.71094 13.916 0.390625 22.2168 0.390625ZM24.9512-18.9941C23.3887-18.9941 22.4121-20.0195 22.4121-21.582C22.4121-22.4609 22.7539-23.2422 23.3887-23.9746L33.5449-35.9375C35.2539-37.9883 37.5488-40.1855 37.5488-42.7734C37.5488-45.5078 35.6445-47.3633 32.666-47.3633C30.1758-47.3633 28.418-46.1914 27.2461-43.3594C26.6113-42.041 25.9766-41.3574 24.707-41.3574C23.1934-41.3574 22.2656-42.3828 22.2656-43.9941C22.2656-44.4824 22.3633-44.9707 22.4609-45.459C23.584-49.4629 27.7832-52.4902 32.4219-52.4902C38.7695-52.4902 42.9199-48.9258 42.9199-43.3105C42.9199-39.1602 40.5762-36.2305 37.7441-33.0078L30.5176-24.5605L30.5176-24.2188L41.2598-24.2188C42.627-24.2188 43.7012-23.3398 43.7012-21.6309C43.7012-20.0195 42.627-18.9941 41.2598-18.9941ZM58.5449-18.0176C51.6602-18.0176 47.168-24.5117 47.168-35.2539C47.168-45.9961 51.6602-52.4902 58.5449-52.4902C65.4297-52.4902 69.9707-45.9961 69.9707-35.2539C69.9707-24.5117 65.4297-18.0176 58.5449-18.0176ZM58.5449-23.4375C62.0117-23.4375 64.0625-27.832 64.0625-35.2539C64.0625-42.6758 61.9629-47.0703 58.5449-47.0703C55.0781-47.0703 53.0762-42.6758 53.0762-35.2539C53.0762-27.832 55.0781-23.4375 58.5449-23.4375Z"/>
  </g>
  <g id="Light-S" transform="matrix(1 0 0 1 1108.46 696)">
   <path d="M21.3867-0.292969L67.9688-0.292969C75.7324-0.292969 79.5898-4.15039 79.5898-11.7676L79.5898-58.5938C79.5898-66.2109 75.7324-70.1172 67.9688-70.1172L21.3867-70.1172C13.6719-70.1172 9.76562-66.2598 9.76562-58.5938L9.76562-11.7676C9.76562-4.15039 13.6719-0.292969 21.3867-0.292969ZM24.5605-19.2871C23.2422-19.2871 22.4121-20.1172 22.4121-21.3867C22.4121-22.1191 22.7051-22.7539 23.1934-23.3398L33.8379-35.791C35.791-38.1348 37.7441-40.2832 37.7441-42.8223C37.7441-45.8984 35.5957-47.9492 32.1777-47.9492C29.1504-47.9492 26.9531-46.2891 26.0742-43.2129C25.6348-42.1387 25.0977-41.5527 24.0234-41.5527C22.8027-41.5527 22.0215-42.3828 22.0215-43.7012C22.0215-44.1406 22.1191-44.5312 22.168-45.0195C23.1445-49.0723 27.3438-52.0508 32.0312-52.0508C38.0859-52.0508 42.0898-48.584 42.0898-43.1641C42.0898-39.4531 40.0391-36.6699 36.9629-33.1543L28.9062-23.7305L28.9062-23.4863L40.918-23.4863C42.041-23.4863 42.9199-22.7051 42.9199-21.3867C42.9199-20.1172 42.041-19.2871 40.918-19.2871ZM57.8125-18.457C51.0742-18.457 46.6309-24.9023 46.6309-35.2539C46.6309-45.6055 51.0742-52.0508 57.8125-52.0508C64.5508-52.0508 69.043-45.6055 69.043-35.2539C69.043-24.9023 64.5508-18.457 57.8125-18.457ZM57.8125-22.7539C61.8164-22.7539 64.3555-27.5879 64.3555-35.2539C64.3555-42.9199 61.8164-47.7539 57.8125-47.7539C53.8086-47.7539 51.2695-42.9199 51.2695-35.2539C51.2695-27.5879 53.8086-22.7539 57.8125-22.7539Z"/>
  </g>
  <g id="Thin-S" transform="matrix(1 0 0 1 812.599 696)">
   <path d="M20.3125-1.12305L67.334-1.12305C74.2676-1.12305 77.8809-4.78516 77.8809-11.6211L77.8809-58.6914C77.8809-65.5762 74.2676-69.2383 67.334-69.2383L20.3125-69.2383C13.3789-69.2383 9.76562-65.625 9.76562-58.6914L9.76562-11.6211C9.76562-4.6875 13.3789-1.12305 20.3125-1.12305ZM23.9746-19.6289C23.0957-19.6289 22.4609-20.2148 22.4609-21.1426C22.4609-21.7285 22.6074-22.1191 22.9492-22.5098L34.1797-35.5469C36.5234-38.2812 37.9883-40.3809 37.9883-42.9199C37.9883-46.3867 35.498-48.6816 31.543-48.6816C27.7832-48.6816 25.0488-46.4355 24.5605-43.0664C24.3652-42.2363 23.9258-41.7969 23.0957-41.7969C22.2168-41.7969 21.6797-42.4316 21.6797-43.2617C21.6797-43.6523 21.7773-43.9941 21.8262-44.3848C22.6074-48.4863 26.709-51.5137 31.4453-51.5137C37.1582-51.5137 40.9668-48.1934 40.9668-43.0176C40.9668-39.7949 39.3066-37.1582 35.9375-33.3008L26.7578-22.6074L26.7578-22.4609L40.4785-22.4609C41.3086-22.4609 41.8457-21.9238 41.8457-21.0449C41.8457-20.2148 41.3086-19.6289 40.4785-19.6289ZM56.8848-18.9941C50.3418-18.9941 45.8984-25.4883 45.8984-35.2539C45.8984-45.0195 50.3418-51.5137 56.8848-51.5137C63.3789-51.5137 67.8223-45.0195 67.8223-35.2539C67.8223-25.4883 63.3789-18.9941 56.8848-18.9941ZM56.8848-21.875C61.5723-21.875 64.7949-27.2461 64.7949-35.2539C64.7949-43.2617 61.5723-48.6328 56.8848-48.6328C52.1484-48.6328 48.9258-43.2617 48.9258-35.2539C48.9258-27.2461 52.1484-21.875 56.8848-21.875Z"/>
  </g>
  <g id="Ultralight-S" transform="matrix(1 0 0 1 516.352 696)">
   <path d="M19.7754-1.5625L66.9922-1.5625C73.5352-1.5625 76.9531-5.12695 76.9531-11.5234L76.9531-58.7891C76.9531-65.2344 73.5352-68.75 66.9922-68.75L19.7754-68.75C13.2324-68.75 9.76562-65.2832 9.76562-58.7891L9.76562-11.5234C9.76562-5.0293 13.2324-1.5625 19.7754-1.5625ZM23.6816-19.8242C22.9492-19.8242 22.4609-20.2637 22.4609-21.0449C22.4609-21.4844 22.5586-21.7773 22.8516-22.0703L34.375-35.4492C36.9141-38.4277 38.0859-40.4785 38.0859-42.9688C38.0859-46.6797 35.4492-49.0723 31.2012-49.0723C27.0508-49.0723 24.0723-46.5332 23.7793-42.9688C23.6816-42.334 23.3398-41.8945 22.6074-41.8945C21.9238-41.8945 21.5332-42.4316 21.5332-43.0664C21.5332-43.4082 21.582-43.6523 21.6309-44.043C22.3145-48.1934 26.3672-51.1719 31.1523-51.1719C36.6699-51.1719 40.3809-47.9492 40.3809-42.9199C40.3809-39.9902 38.916-37.4512 35.4004-33.4473L25.6348-22.0703L25.6348-21.9238L40.2344-21.9238C40.918-21.9238 41.3086-21.4844 41.3086-20.8984C41.3086-20.3125 40.918-19.8242 40.2344-19.8242ZM56.3477-19.3359C49.9512-19.3359 45.5566-25.7812 45.5566-35.2539C45.5566-44.7266 49.9512-51.1719 56.3477-51.1719C62.793-51.1719 67.1875-44.7266 67.1875-35.2539C67.1875-25.7812 62.793-19.3359 56.3477-19.3359ZM56.3477-21.4355C61.4746-21.4355 64.9902-27.0508 64.9902-35.2539C64.9902-43.457 61.4746-49.0723 56.3477-49.0723C51.2695-49.0723 47.7539-43.457 47.7539-35.2539C47.7539-27.0508 51.2695-21.4355 56.3477-21.4355Z"/>
  </g>
 </g>
</svg>
