<?xml version="1.0" encoding="UTF-8"?>
<!--Generator: Apple Native CoreSVG 149-->
<!DOCTYPE svg
PUBLIC "-//W3C//DTD SVG 1.1//EN"
       "http://www.w3.org/Graphics/SVG/1.1/DTD/svg11.dtd">
<svg version="1.1" xmlns="http://www.w3.org/2000/svg" xmlns:xlink="http://www.w3.org/1999/xlink" width="3300" height="2200">
 <!--glyph: "uni100552.medium", point size: 100.000000, font version: "Version 16.0d18e1", template writer version: "8"-->
 <g id="Notes">
  <rect height="2200" id="artboard" style="fill:white;opacity:1" width="3300" x="0" y="0"/>
  <line id="" style="fill:none;stroke:black;opacity:1;stroke-width:0.5;" x1="263" x2="3036" y1="292" y2="292"/>
  <text style="stroke:none;fill:black;font-family:-apple-system,&quot;SF Pro Display&quot;,&quot;SF Pro Text&quot;,Helvetica,sans-serif;font-weight:bold;" transform="matrix(1 0 0 1 263 322)">Weight/Scale Variations</text>
  <text style="stroke:none;fill:black;font-family:-apple-system,&quot;SF Pro Display&quot;,&quot;SF Pro Text&quot;,Helvetica,sans-serif;text-anchor:middle;" transform="matrix(1 0 0 1 559.711 322)">Ultralight</text>
  <text style="stroke:none;fill:black;font-family:-apple-system,&quot;SF Pro Display&quot;,&quot;SF Pro Text&quot;,Helvetica,sans-serif;text-anchor:middle;" transform="matrix(1 0 0 1 856.422 322)">Thin</text>
  <text style="stroke:none;fill:black;font-family:-apple-system,&quot;SF Pro Display&quot;,&quot;SF Pro Text&quot;,Helvetica,sans-serif;text-anchor:middle;" transform="matrix(1 0 0 1 1153.13 322)">Light</text>
  <text style="stroke:none;fill:black;font-family:-apple-system,&quot;SF Pro Display&quot;,&quot;SF Pro Text&quot;,Helvetica,sans-serif;text-anchor:middle;" transform="matrix(1 0 0 1 1449.84 322)">Regular</text>
  <text style="stroke:none;fill:black;font-family:-apple-system,&quot;SF Pro Display&quot;,&quot;SF Pro Text&quot;,Helvetica,sans-serif;text-anchor:middle;" transform="matrix(1 0 0 1 1746.56 322)">Medium</text>
  <text style="stroke:none;fill:black;font-family:-apple-system,&quot;SF Pro Display&quot;,&quot;SF Pro Text&quot;,Helvetica,sans-serif;text-anchor:middle;" transform="matrix(1 0 0 1 2043.27 322)">Semibold</text>
  <text style="stroke:none;fill:black;font-family:-apple-system,&quot;SF Pro Display&quot;,&quot;SF Pro Text&quot;,Helvetica,sans-serif;text-anchor:middle;" transform="matrix(1 0 0 1 2339.98 322)">Bold</text>
  <text style="stroke:none;fill:black;font-family:-apple-system,&quot;SF Pro Display&quot;,&quot;SF Pro Text&quot;,Helvetica,sans-serif;text-anchor:middle;" transform="matrix(1 0 0 1 2636.69 322)">Heavy</text>
  <text style="stroke:none;fill:black;font-family:-apple-system,&quot;SF Pro Display&quot;,&quot;SF Pro Text&quot;,Helvetica,sans-serif;text-anchor:middle;" transform="matrix(1 0 0 1 2933.4 322)">Black</text>
  <line id="" style="fill:none;stroke:black;opacity:1;stroke-width:0.5;" x1="263" x2="3036" y1="1903" y2="1903"/>
  <g id="" transform="matrix(1 0 0 1 263 1933)">
   <path d="M9.24805 0.830078C13.5547 0.830078 17.1387-2.74414 17.1387-7.05078C17.1387-11.3574 13.5449-14.9316 9.23828-14.9316C4.94141-14.9316 1.36719-11.3574 1.36719-7.05078C1.36719-2.74414 4.95117 0.830078 9.24805 0.830078ZM9.24805-0.654297C5.70312-0.654297 2.87109-3.49609 2.87109-7.05078C2.87109-10.6055 5.69336-13.4473 9.23828-13.4473C12.793-13.4473 15.6348-10.6055 15.6445-7.05078C15.6543-3.49609 12.8027-0.654297 9.24805-0.654297ZM6.39648-6.31836L8.50586-6.31836L8.50586-4.19922C8.50586-3.75977 8.79883-3.45703 9.22852-3.45703C9.67773-3.45703 9.9707-3.75977 9.9707-4.19922L9.9707-6.31836L12.0996-6.31836C12.5391-6.31836 12.8418-6.61133 12.8418-7.04102C12.8418-7.48047 12.5391-7.7832 12.0996-7.7832L9.9707-7.7832L9.9707-9.89258C9.9707-10.3418 9.67773-10.6445 9.22852-10.6445C8.79883-10.6445 8.50586-10.3418 8.50586-9.89258L8.50586-7.7832L6.39648-7.7832C5.94727-7.7832 5.64453-7.48047 5.64453-7.04102C5.64453-6.61133 5.94727-6.31836 6.39648-6.31836Z"/>
  </g>
  <g id="" transform="matrix(1 0 0 1 281.506 1933)">
   <path d="M11.709 2.91016C17.1582 2.91016 21.6699-1.61133 21.6699-7.05078C21.6699-12.5 17.1484-17.0117 11.6992-17.0117C6.25977-17.0117 1.74805-12.5 1.74805-7.05078C1.74805-1.61133 6.26953 2.91016 11.709 2.91016ZM11.709 1.25C7.09961 1.25 3.41797-2.44141 3.41797-7.05078C3.41797-11.6602 7.08984-15.3516 11.6992-15.3516C16.3086-15.3516 20-11.6602 20.0098-7.05078C20.0195-2.44141 16.3184 1.25 11.709 1.25ZM7.98828-6.23047L10.8789-6.23047L10.8789-3.32031C10.8789-2.83203 11.2109-2.5 11.6895-2.5C12.1777-2.5 12.5195-2.83203 12.5195-3.32031L12.5195-6.23047L15.4297-6.23047C15.918-6.23047 16.25-6.5625 16.25-7.04102C16.25-7.5293 15.918-7.87109 15.4297-7.87109L12.5195-7.87109L12.5195-10.7617C12.5195-11.2695 12.1777-11.6016 11.6895-11.6016C11.2109-11.6016 10.8789-11.2598 10.8789-10.7617L10.8789-7.87109L7.98828-7.87109C7.48047-7.87109 7.14844-7.5293 7.14844-7.04102C7.14844-6.5625 7.49023-6.23047 7.98828-6.23047Z"/>
  </g>
  <g id="" transform="matrix(1 0 0 1 304.924 1933)">
   <path d="M14.9707 5.66406C21.9336 5.66406 27.6953-0.0976562 27.6953-7.05078C27.6953-14.0137 21.9238-19.7754 14.9609-19.7754C8.00781-19.7754 2.25586-14.0137 2.25586-7.05078C2.25586-0.0976562 8.01758 5.66406 14.9707 5.66406ZM14.9707 3.84766C8.93555 3.84766 4.08203-1.01562 4.08203-7.05078C4.08203-13.0957 8.92578-17.9492 14.9609-17.9492C21.0059-17.9492 25.8594-13.0957 25.8691-7.05078C25.8789-1.01562 21.0156 3.84766 14.9707 3.84766ZM10.0586-6.14258L14.0625-6.14258L14.0625-2.12891C14.0625-1.5918 14.4336-1.2207 14.9512-1.2207C15.4883-1.2207 15.8594-1.5918 15.8594-2.12891L15.8594-6.14258L19.8828-6.14258C20.4102-6.14258 20.791-6.51367 20.791-7.03125C20.791-7.56836 20.4199-7.94922 19.8828-7.94922L15.8594-7.94922L15.8594-11.9531C15.8594-12.5098 15.4883-12.8809 14.9512-12.8809C14.4336-12.8809 14.0625-12.5 14.0625-11.9531L14.0625-7.94922L10.0586-7.94922C9.50195-7.94922 9.13086-7.56836 9.13086-7.03125C9.13086-6.51367 9.51172-6.14258 10.0586-6.14258Z"/>
  </g>
  <text style="stroke:none;fill:black;font-family:-apple-system,&quot;SF Pro Display&quot;,&quot;SF Pro Text&quot;,Helvetica,sans-serif;font-weight:bold;" transform="matrix(1 0 0 1 263 1953)">Design Variations</text>
  <text style="stroke:none;fill:black;font-family:-apple-system,&quot;SF Pro Display&quot;,&quot;SF Pro Text&quot;,Helvetica,sans-serif;" transform="matrix(1 0 0 1 263 1971)">Symbols are supported in up to nine weights and three scales.</text>
  <text style="stroke:none;fill:black;font-family:-apple-system,&quot;SF Pro Display&quot;,&quot;SF Pro Text&quot;,Helvetica,sans-serif;" transform="matrix(1 0 0 1 263 1989)">For optimal layout with text and other symbols, vertically align</text>
  <text style="stroke:none;fill:black;font-family:-apple-system,&quot;SF Pro Display&quot;,&quot;SF Pro Text&quot;,Helvetica,sans-serif;" transform="matrix(1 0 0 1 263 2007)">symbols with the adjacent text.</text>
  <line id="" style="fill:none;stroke:#00AEEF;stroke-width:0.5;opacity:1.0;" x1="776" x2="776" y1="1919" y2="1933"/>
  <g id="" transform="matrix(1 0 0 1 776 1933)">
   <path d="M3.31055 0.126953C3.82812 0.126953 4.08203-0.0683594 4.26758-0.605469L5.52734-4.0625L11.2891-4.0625L12.5488-0.605469C12.7344-0.0683594 12.9883 0.126953 13.4961 0.126953C14.0137 0.126953 14.3457-0.185547 14.3457-0.673828C14.3457-0.839844 14.3164-0.986328 14.2383-1.20117L9.6582-13.3887C9.43359-13.9941 9.0332-14.2871 8.4082-14.2871C7.80273-14.2871 7.39258-13.9941 7.17773-13.3984L2.59766-1.19141C2.51953-0.976562 2.49023-0.830078 2.49023-0.664062C2.49023-0.175781 2.80273 0.126953 3.31055 0.126953ZM6.00586-5.53711L8.37891-12.1094L8.42773-12.1094L10.8008-5.53711Z"/>
  </g>
  <line id="" style="fill:none;stroke:#00AEEF;stroke-width:0.5;opacity:1.0;" x1="792.836" x2="792.836" y1="1919" y2="1933"/>
  <text style="stroke:none;fill:black;font-family:-apple-system,&quot;SF Pro Display&quot;,&quot;SF Pro Text&quot;,Helvetica,sans-serif;font-weight:bold;" transform="matrix(1 0 0 1 776 1953)">Margins</text>
  <text style="stroke:none;fill:black;font-family:-apple-system,&quot;SF Pro Display&quot;,&quot;SF Pro Text&quot;,Helvetica,sans-serif;" transform="matrix(1 0 0 1 776 1971)">Leading and trailing margins on the left and right side of each symbol</text>
  <text style="stroke:none;fill:black;font-family:-apple-system,&quot;SF Pro Display&quot;,&quot;SF Pro Text&quot;,Helvetica,sans-serif;" transform="matrix(1 0 0 1 776 1989)">can be adjusted by modifying the x-location of the margin guidelines.</text>
  <text style="stroke:none;fill:black;font-family:-apple-system,&quot;SF Pro Display&quot;,&quot;SF Pro Text&quot;,Helvetica,sans-serif;" transform="matrix(1 0 0 1 776 2007)">Modifications are automatically applied proportionally to all</text>
  <text style="stroke:none;fill:black;font-family:-apple-system,&quot;SF Pro Display&quot;,&quot;SF Pro Text&quot;,Helvetica,sans-serif;" transform="matrix(1 0 0 1 776 2025)">scales and weights.</text>
  <g id="" transform="matrix(1 0 0 1 1289 1933)">
   <path d="M2.8418 1.86523L4.54102 3.57422C5.40039 4.44336 6.38672 4.38477 7.31445 3.35938L17.4902-7.85156C17.7539-7.76367 18.0273-7.7832 18.3398-7.8418L19.4043-8.03711L20.0684-7.36328L20.0293-6.80664C19.9902-6.30859 20.1172-5.92773 20.6055-5.44922L21.3672-4.70703C21.8457-4.22852 22.4609-4.19922 22.9297-4.66797L25.8398-7.58789C26.3086-8.05664 26.2891-8.65234 25.8105-9.13086L25.0391-9.89258C24.5605-10.3711 24.1895-10.5273 23.7109-10.4883L23.1348-10.4395L22.4902-11.0742L22.7344-12.1973C22.8613-12.7637 22.7051-13.2031 22.1191-13.7891L19.9219-15.9766C16.582-19.2969 12.1484-19.2188 9.25781-16.3281C8.83789-15.918 8.80859-15.3418 9.04297-14.9512C9.27734-14.5898 9.73633-14.3555 10.3809-14.5215C11.8457-14.8633 13.3691-14.9219 14.7949-13.9844L14.209-12.5293C14.0137-12.0508 13.9844-11.6504 14.1113-11.2891L3.04688-0.898438C2.06055 0.0195312 1.98242 0.996094 2.8418 1.86523ZM10.752-15.957C13.1836-17.7344 16.4746-17.4316 18.7012-15.2051L21.1328-12.793C21.3672-12.5586 21.4062-12.373 21.3379-12.0312L21.0156-10.5469L22.5195-9.0625L23.5059-9.12109C23.7598-9.13086 23.8379-9.11133 24.0332-8.91602L24.6094-8.33984L22.168-5.89844L21.5918-6.47461C21.3965-6.66992 21.3672-6.74805 21.377-7.01172L21.4453-7.98828L19.9512-9.47266L18.4277-9.21875C18.1055-9.15039 17.959-9.17969 17.7148-9.41406L15.7129-11.416C15.459-11.6504 15.4297-11.8164 15.5859-12.1875L16.4648-14.2773C14.9023-15.7324 12.8711-16.3574 10.8398-15.7617C10.6836-15.7227 10.625-15.8496 10.752-15.957ZM5.27344 2.30469L4.10156 1.14258C3.63281 0.683594 3.74023 0.341797 4.14062-0.0195312L14.9512-10.1953L16.416-8.71094L6.42578 2.27539C6.07422 2.67578 5.74219 2.77344 5.27344 2.30469Z"/>
  </g>
  <text style="stroke:none;fill:black;font-family:-apple-system,&quot;SF Pro Display&quot;,&quot;SF Pro Text&quot;,Helvetica,sans-serif;font-weight:bold;" transform="matrix(1 0 0 1 1289 1953)">Exporting</text>
  <text style="stroke:none;fill:black;font-family:-apple-system,&quot;SF Pro Display&quot;,&quot;SF Pro Text&quot;,Helvetica,sans-serif;" transform="matrix(1 0 0 1 1289 1971)">Symbols should be outlined when exporting to ensure the</text>
  <text style="stroke:none;fill:black;font-family:-apple-system,&quot;SF Pro Display&quot;,&quot;SF Pro Text&quot;,Helvetica,sans-serif;" transform="matrix(1 0 0 1 1289 1989)">design is preserved when submitting to Xcode.</text>
  <text id="template-version" style="stroke:none;fill:black;font-family:-apple-system,&quot;SF Pro Display&quot;,&quot;SF Pro Text&quot;,Helvetica,sans-serif;text-anchor:end;" transform="matrix(1 0 0 1 3036 1933)">Template v.2.0</text>
  <text style="stroke:none;fill:black;font-family:-apple-system,&quot;SF Pro Display&quot;,&quot;SF Pro Text&quot;,Helvetica,sans-serif;text-anchor:end;" transform="matrix(1 0 0 1 3036 1951)">Requires Xcode 12 or greater</text>
  <text style="stroke:none;fill:black;font-family:-apple-system,&quot;SF Pro Display&quot;,&quot;SF Pro Text&quot;,Helvetica,sans-serif;text-anchor:end;" transform="matrix(1 0 0 1 3036 1969)">Generated from 10.square.fill</text>
  <text style="stroke:none;fill:black;font-family:-apple-system,&quot;SF Pro Display&quot;,&quot;SF Pro Text&quot;,Helvetica,sans-serif;text-anchor:end;" transform="matrix(1 0 0 1 3036 1987)">Typeset at 100 points</text>
  <text style="stroke:none;fill:black;font-family:-apple-system,&quot;SF Pro Display&quot;,&quot;SF Pro Text&quot;,Helvetica,sans-serif;" transform="matrix(1 0 0 1 263 726)">Small</text>
  <text style="stroke:none;fill:black;font-family:-apple-system,&quot;SF Pro Display&quot;,&quot;SF Pro Text&quot;,Helvetica,sans-serif;" transform="matrix(1 0 0 1 263 1156)">Medium</text>
  <text style="stroke:none;fill:black;font-family:-apple-system,&quot;SF Pro Display&quot;,&quot;SF Pro Text&quot;,Helvetica,sans-serif;" transform="matrix(1 0 0 1 263 1586)">Large</text>
 </g>
 <g id="Guides">
  <g id="H-reference" style="fill:#27AAE1;stroke:none;" transform="matrix(1 0 0 1 339 696)">
   <path d="M0.976562 0L3.66211 0L12.9883-24.4629L45.752-24.4629L55.127 0L57.7637 0L30.6152-70.459L28.125-70.459ZM29.3457-67.1387L29.4434-67.1387L44.873-26.709L13.8672-26.709Z"/>
  </g>
  <line id="Baseline-S" style="fill:none;stroke:#27AAE1;opacity:1;stroke-width:0.5;" x1="263" x2="3036" y1="696" y2="696"/>
  <line id="Capline-S" style="fill:none;stroke:#27AAE1;opacity:1;stroke-width:0.5;" x1="263" x2="3036" y1="625.541" y2="625.541"/>
  <g id="H-reference" style="fill:#27AAE1;stroke:none;" transform="matrix(1 0 0 1 339 1126)">
   <path d="M0.976562 0L3.66211 0L12.9883-24.4629L45.752-24.4629L55.127 0L57.7637 0L30.6152-70.459L28.125-70.459ZM29.3457-67.1387L29.4434-67.1387L44.873-26.709L13.8672-26.709Z"/>
  </g>
  <line id="Baseline-M" style="fill:none;stroke:#27AAE1;opacity:1;stroke-width:0.5;" x1="263" x2="3036" y1="1126" y2="1126"/>
  <line id="Capline-M" style="fill:none;stroke:#27AAE1;opacity:1;stroke-width:0.5;" x1="263" x2="3036" y1="1055.54" y2="1055.54"/>
  <g id="H-reference" style="fill:#27AAE1;stroke:none;" transform="matrix(1 0 0 1 339 1556)">
   <path d="M0.976562 0L3.66211 0L12.9883-24.4629L45.752-24.4629L55.127 0L57.7637 0L30.6152-70.459L28.125-70.459ZM29.3457-67.1387L29.4434-67.1387L44.873-26.709L13.8672-26.709Z"/>
  </g>
  <line id="Baseline-L" style="fill:none;stroke:#27AAE1;opacity:1;stroke-width:0.5;" x1="263" x2="3036" y1="1556" y2="1556"/>
  <line id="Capline-L" style="fill:none;stroke:#27AAE1;opacity:1;stroke-width:0.5;" x1="263" x2="3036" y1="1485.54" y2="1485.54"/>
  <line id="left-margin" style="fill:none;stroke:#00AEEF;stroke-width:0.5;opacity:1.0;" x1="1392.45" x2="1392.45" y1="1030.79" y2="1150.12"/>
  <line id="right-margin" style="fill:none;stroke:#00AEEF;stroke-width:0.5;opacity:1.0;" x1="1507.24" x2="1507.24" y1="1030.79" y2="1150.12"/>
 </g>
 <g id="Symbols">
  <g id="Black-L" transform="matrix(1 0 0 1 2855.62 1556)">
   <path d="M39.9902 26.5137L115.576 26.5137C130.811 26.5137 139.502 17.8711 139.502 2.68555L139.502-73.0957C139.502-88.2812 130.811-96.875 115.576-96.875L39.9902-96.875C24.7559-96.875 16.0645-88.2812 16.0645-73.0957L16.0645 2.68555C16.0645 17.8711 24.7559 26.5137 39.9902 26.5137ZM95.752-8.98438C85.4004-8.98438 78.4668-17.1387 78.4668-35.2539C78.4668-53.418 85.4004-61.5234 95.752-61.5234C106.055-61.5234 113.379-53.418 113.379-35.2539C113.379-17.1387 106.055-8.98438 95.752-8.98438ZM63.2812-9.22852C59.1309-9.22852 57.0312-11.7188 57.0312-16.5527L57.0312-45.9473L56.7383-45.9473L53.7598-43.0176C52.0996-41.2109 50.8789-40.4297 48.8281-40.4297C45.9961-40.4297 43.7012-42.8711 43.7012-45.7031C43.7012-48.1934 44.7266-49.9512 47.1191-52.1484L53.5156-57.7148C56.8848-60.6934 59.0332-61.4258 61.7676-61.4258C66.8945-61.4258 69.5801-58.3496 69.5801-53.125L69.5801-16.5527C69.5801-11.7188 67.4805-9.22852 63.2812-9.22852ZM95.8984-21.3379C98.877-21.3379 100.684-25 100.684-35.2539C100.684-45.5566 98.8281-49.2188 95.8984-49.2188C93.0664-49.2188 91.1621-45.5566 91.1621-35.2539C91.1621-25 93.0664-21.3379 95.8984-21.3379Z"/>
  </g>
  <g id="Heavy-L" transform="matrix(1 0 0 1 2559.93 1556)">
   <path d="M38.8184 25.4883L114.697 25.4883C129.346 25.4883 137.451 17.4316 137.451 2.88086L137.451-73.2422C137.451-87.793 129.346-95.8496 114.697-95.8496L38.8184-95.8496C24.2188-95.8496 16.0645-87.793 16.0645-73.2422L16.0645 2.88086C16.0645 17.4316 24.2188 25.4883 38.8184 25.4883ZM94.3848-8.69141C83.8867-8.69141 76.8066-17.3828 76.8066-35.2539C76.8066-53.125 83.8867-61.8652 94.3848-61.8652C104.883-61.8652 112.207-53.125 112.207-35.2539C112.207-17.3828 104.883-8.69141 94.3848-8.69141ZM61.5234-9.0332C57.8613-9.0332 55.9082-11.2305 55.9082-15.4785L55.9082-47.7051L55.6152-47.7051L51.5137-44.1406C49.9023-42.5293 48.877-41.9434 47.0703-41.9434C44.5312-41.9434 42.3828-44.1895 42.3828-46.7773C42.3828-49.0234 43.3105-50.5859 45.4102-52.4414L52.832-58.3984C55.8594-60.9863 57.7148-61.6699 60.2539-61.6699C64.7461-61.6699 67.1875-58.9355 67.1875-54.3945L67.1875-15.4785C67.1875-11.2305 65.2344-9.0332 61.5234-9.0332ZM94.5312-19.7266C98.3887-19.7266 100.781-24.4141 100.781-35.2539C100.781-46.0938 98.3398-50.7812 94.5312-50.7812C90.7715-50.7812 88.3301-46.0938 88.3301-35.2539C88.3301-24.4141 90.7715-19.7266 94.5312-19.7266Z"/>
  </g>
  <g id="Bold-L" transform="matrix(1 0 0 1 2264.37 1556)">
   <path d="M37.5 24.3652L113.721 24.3652C127.637 24.3652 135.156 16.8945 135.156 3.07617L135.156-73.3887C135.156-87.207 127.637-94.7266 113.721-94.7266L37.5-94.7266C23.6328-94.7266 16.0645-87.2559 16.0645-73.3887L16.0645 3.07617C16.0645 16.8945 23.6328 24.3652 37.5 24.3652ZM92.8711-8.30078C82.1777-8.30078 75-17.7246 75-35.2539C75-52.832 82.1777-62.207 92.8711-62.207C103.564-62.207 110.889-52.832 110.889-35.2539C110.889-17.7246 103.564-8.30078 92.8711-8.30078ZM59.5703-8.78906C56.4453-8.78906 54.6875-10.7422 54.6875-14.2578L54.6875-49.707L54.3457-49.707L48.9258-45.4102C47.4609-44.043 46.582-43.6035 45.1172-43.6035C42.8711-43.6035 40.918-45.6055 40.918-47.9492C40.918-49.9023 41.748-51.3184 43.5547-52.832L52.002-59.1309C54.6875-61.3281 56.2988-61.9141 58.5938-61.9141C62.3535-61.9141 64.502-59.5703 64.502-55.7617L64.502-14.2578C64.502-10.7422 62.7441-8.78906 59.5703-8.78906ZM92.9688-17.9688C97.8027-17.9688 100.83-23.7793 100.83-35.2539C100.83-46.7773 97.7539-52.5879 92.9688-52.5879C88.2324-52.5879 85.1074-46.7773 85.1074-35.2539C85.1074-23.7793 88.2324-17.9688 92.9688-17.9688Z"/>
  </g>
  <g id="Semibold-L" transform="matrix(1 0 0 1 1968.44 1556)">
   <path d="M36.6211 23.584L113.037 23.584C126.514 23.584 133.594 16.5039 133.594 3.17383L133.594-73.5352C133.594-86.8164 126.514-93.9453 113.037-93.9453L36.6211-93.9453C23.1934-93.9453 16.0645-86.8652 16.0645-73.5352L16.0645 3.17383C16.0645 16.5527 23.1934 23.584 36.6211 23.584ZM91.8457-8.05664C81.0059-8.05664 73.7793-17.9199 73.7793-35.2539C73.7793-52.5879 81.0059-62.4512 91.8457-62.4512C102.686-62.4512 110.01-52.5879 110.01-35.2539C110.01-17.9199 102.686-8.05664 91.8457-8.05664ZM58.2031-8.64258C55.4199-8.64258 53.8086-10.4004 53.8086-13.4277L53.8086-51.0742L53.4668-51.0742L47.168-46.2891C45.8008-45.0684 45.0195-44.7754 43.75-44.7754C41.748-44.7754 39.9414-46.582 39.9414-48.7793C39.9414-50.5371 40.6738-51.8066 42.2852-53.0762L51.4648-59.668C53.9062-61.5234 55.3223-62.1094 57.4219-62.1094C60.6934-62.1094 62.6465-60.0098 62.6465-56.7383L62.6465-13.4277C62.6465-10.4004 61.0352-8.64258 58.2031-8.64258ZM91.8945-16.748C97.4121-16.748 100.928-23.3398 100.928-35.2539C100.928-47.2168 97.3633-53.8086 91.8945-53.8086C86.4746-53.8086 82.9102-47.2168 82.9102-35.2539C82.9102-23.3398 86.4746-16.748 91.8945-16.748Z"/>
  </g>
  <g id="Medium-L" transform="matrix(1 0 0 1 1672.31 1556)">
   <path d="M35.9375 22.998L112.5 22.998C125.635 22.998 132.422 16.2109 132.422 3.27148L132.422-73.6328C132.422-86.5234 125.635-93.3105 112.5-93.3105L35.9375-93.3105C22.9004-93.3105 16.0645-86.5723 16.0645-73.6328L16.0645 3.27148C16.0645 16.2598 22.9004 22.998 35.9375 22.998ZM91.0645-7.91016C80.127-7.91016 72.8027-18.1152 72.8027-35.2539C72.8027-52.4414 80.127-62.6465 91.0645-62.6465C102.002-62.6465 109.326-52.4414 109.326-35.2539C109.326-18.1152 102.002-7.91016 91.0645-7.91016ZM57.1777-8.49609C54.6875-8.49609 53.1738-10.1074 53.1738-12.793L53.1738-52.0996L52.832-52.0996L45.8496-46.9238C44.4824-45.8496 43.8477-45.6543 42.7246-45.6543C40.8691-45.6543 39.1602-47.3633 39.1602-49.4141C39.1602-51.0254 39.8926-52.1973 41.3086-53.2715L51.0742-60.0586C53.2715-61.7188 54.541-62.2559 56.543-62.2559C59.4238-62.2559 61.2793-60.3516 61.2793-57.4707L61.2793-12.793C61.2793-10.1074 59.7168-8.49609 57.1777-8.49609ZM91.0645-15.7715C97.1191-15.7715 100.977-22.998 100.977-35.2539C100.977-47.5586 97.0703-54.7363 91.0645-54.7363C85.1074-54.7363 81.25-47.5586 81.25-35.2539C81.25-22.998 85.1074-15.7715 91.0645-15.7715Z"/>
  </g>
  <g id="Regular-L" transform="matrix(1 0 0 1 1376.38 1556)">
   <path d="M35.0586 22.2168L111.816 22.2168C124.463 22.2168 130.859 15.8691 130.859 3.41797L130.859-73.7305C130.859-86.1816 124.463-92.5293 111.816-92.5293L35.0586-92.5293C22.4609-92.5293 16.0645-86.2305 16.0645-73.7305L16.0645 3.41797C16.0645 15.918 22.4609 22.2168 35.0586 22.2168ZM89.9902-7.66602C78.9551-7.66602 71.582-18.3105 71.582-35.2539C71.582-52.2461 78.9551-62.8906 89.9902-62.8906C101.074-62.8906 108.447-52.2461 108.447-35.2539C108.447-18.3105 101.074-7.66602 89.9902-7.66602ZM55.8594-8.34961C53.7109-8.34961 52.2949-9.76562 52.2949-11.9629L52.2949-53.4668L51.9531-53.4668L44.0918-47.8027C42.8223-46.875 42.2852-46.8262 41.4062-46.8262C39.7461-46.8262 38.1348-48.3398 38.1348-50.1953C38.1348-51.6602 38.8184-52.6855 40.0391-53.5645L50.4883-60.5957C52.4902-61.9141 53.5645-62.4512 55.4199-62.4512C57.7637-62.4512 59.4238-60.791 59.4238-58.3984L59.4238-11.9629C59.4238-9.76562 58.0078-8.34961 55.8594-8.34961ZM89.9902-14.5508C96.7773-14.5508 101.025-22.5586 101.025-35.2539C101.025-47.9492 96.7285-55.957 89.9902-55.957C83.3496-55.957 79.0527-47.9492 79.0527-35.2539C79.0527-22.5586 83.3496-14.5508 89.9902-14.5508Z"/>
  </g>
  <g id="Light-L" transform="matrix(1 0 0 1 1080.5 1556)">
   <path d="M34.0332 21.4355L111.23 21.4355C123.096 21.4355 129.199 15.2344 129.199 3.56445L129.199-73.8281C129.199-85.5469 123.096-91.6992 111.23-91.6992L34.0332-91.6992C22.168-91.6992 16.0645-85.6445 16.0645-73.8281L16.0645 3.56445C16.0645 15.3809 22.168 21.4355 34.0332 21.4355ZM88.6719-8.20312C77.832-8.20312 70.5078-18.8477 70.5078-35.2539C70.5078-51.709 77.832-62.3535 88.6719-62.3535C99.5605-62.3535 106.836-51.709 106.836-35.2539C106.836-18.8477 99.5605-8.20312 88.6719-8.20312ZM54.7852-8.78906C53.1738-8.78906 52.002-9.91211 52.002-11.6699L52.002-54.7363L51.709-54.7363L42.4316-48.3887C41.5039-47.7051 41.1133-47.7051 40.4297-47.7051C39.0625-47.7051 37.8418-48.9258 37.8418-50.3906C37.8418-51.5137 38.3301-52.3438 39.3066-53.0273L50.6348-60.5469C52.1484-61.5234 52.9785-61.9141 54.4434-61.9141C56.3477-61.9141 57.666-60.6445 57.666-58.6914L57.666-11.6699C57.666-9.91211 56.543-8.78906 54.7852-8.78906ZM88.6719-13.7207C96.0938-13.7207 100.977-22.2168 100.977-35.2539C100.977-48.291 96.0449-56.7871 88.6719-56.7871C81.3477-56.7871 76.416-48.291 76.416-35.2539C76.416-22.2168 81.3477-13.7207 88.6719-13.7207Z"/>
  </g>
  <g id="Thin-L" transform="matrix(1 0 0 1 784.889 1556)">
   <path d="M32.666 20.3613L110.352 20.3613C121.24 20.3613 127.002 14.4531 127.002 3.75977L127.002-73.9746C127.002-84.7168 121.24-90.5762 110.352-90.5762L32.666-90.5762C21.7773-90.5762 16.0645-84.8633 16.0645-73.9746L16.0645 3.75977C16.0645 14.6484 21.7773 20.3613 32.666 20.3613ZM86.9141-8.93555C76.3184-8.93555 69.043-19.5801 69.043-35.2539C69.043-50.9766 76.3184-61.6211 86.9141-61.6211C97.5098-61.6211 104.785-50.9766 104.785-35.2539C104.785-19.5801 97.5098-8.93555 86.9141-8.93555ZM53.418-9.375C52.3926-9.375 51.5625-10.1074 51.5625-11.2305L51.5625-56.4453L51.3184-56.4453L40.2344-49.1211C39.7949-48.877 39.5508-48.877 39.1602-48.877C38.1836-48.877 37.4023-49.707 37.4023-50.6348C37.4023-51.3184 37.6465-51.8555 38.3789-52.3438L50.8301-60.4492C51.6602-60.9863 52.2461-61.1816 53.1738-61.1816C54.3945-61.1816 55.3223-60.4004 55.3223-59.1309L55.3223-11.2305C55.3223-10.1074 54.6387-9.375 53.418-9.375ZM86.9141-12.6465C95.2148-12.6465 100.928-21.7773 100.928-35.2539C100.928-48.7305 95.2148-57.9102 86.9141-57.9102C78.6621-57.9102 72.9004-48.7305 72.9004-35.2539C72.9004-21.7773 78.6621-12.6465 86.9141-12.6465Z"/>
  </g>
  <g id="Ultralight-L" transform="matrix(1 0 0 1 488.739 1556)">
   <path d="M31.9824 19.7754L109.961 19.7754C120.312 19.7754 125.879 14.0625 125.879 3.85742L125.879-74.0723C125.879-84.2773 120.312-89.9902 109.961-89.9902L31.9824-89.9902C21.582-89.9902 16.0645-84.4727 16.0645-74.0723L16.0645 3.85742C16.0645 14.2578 21.582 19.7754 31.9824 19.7754ZM86.0352-9.32617C75.5371-9.32617 68.3105-19.9219 68.3105-35.2539C68.3105-50.6348 75.5371-61.2305 86.0352-61.2305C96.4844-61.2305 103.711-50.6348 103.711-35.2539C103.711-19.9219 96.4844-9.32617 86.0352-9.32617ZM52.7344-9.66797C52.002-9.66797 51.3672-10.2051 51.3672-11.0352L51.3672-57.3242L51.123-57.3242L39.1113-49.5117C38.916-49.4629 38.7695-49.4629 38.5254-49.4629C37.7441-49.4629 37.207-50.0977 37.207-50.7812C37.207-51.2207 37.3047-51.6602 37.8906-52.002L50.9766-60.4004C51.416-60.6934 51.8555-60.8398 52.5391-60.8398C53.418-60.8398 54.1016-60.3027 54.1016-59.3262L54.1016-11.0352C54.1016-10.2051 53.6621-9.66797 52.7344-9.66797ZM86.0352-12.0605C94.7754-12.0605 100.928-21.582 100.928-35.2539C100.928-48.9746 94.7754-58.4473 86.0352-58.4473C77.2461-58.4473 71.0938-48.9746 71.0938-35.2539C71.0938-21.582 77.2461-12.0605 86.0352-12.0605Z"/>
  </g>
  <g id="Black-M" transform="matrix(1 0 0 1 2872.19 1126)">
   <path d="M31.9824 13.5742L90.4297 13.5742C102.686 13.5742 109.961 6.29883 109.961-5.95703L109.961-64.4043C109.961-76.6602 102.686-83.9355 90.4297-83.9355L31.9824-83.9355C19.7266-83.9355 12.4512-76.6602 12.4512-64.4043L12.4512-5.95703C12.4512 6.29883 19.7266 13.5742 31.9824 13.5742ZM50.8789-15.625C47.2168-15.625 45.5566-17.6758 45.5566-22.0215L45.5566-41.8457L45.3613-41.8457L43.8477-40.0391C42.627-38.5254 41.5527-37.6953 39.6484-37.6953C37.2559-37.6953 35.4492-39.7461 35.4492-41.9922C35.4492-44.0918 36.2793-45.6055 38.3789-47.6074L42.5293-51.709C45.2637-54.3457 47.168-54.8828 49.3652-54.8828C53.9551-54.8828 56.2012-52.2461 56.2012-47.6074L56.2012-22.0215C56.2012-17.6758 54.541-15.625 50.8789-15.625ZM75.293-15.625C67.627-15.625 62.4023-21.0938 62.4023-35.2539C62.4023-49.4141 67.627-54.8828 75.293-54.8828C82.959-54.8828 88.623-49.4141 88.623-35.2539C88.623-21.0938 82.959-15.625 75.293-15.625ZM75.4883-26.1719C76.9531-26.1719 77.8809-27.8809 77.8809-35.2539C77.8809-42.627 76.9531-44.3359 75.4883-44.3359C74.1211-44.3359 73.1445-42.627 73.1445-35.2539C73.1445-27.8809 74.1211-26.1719 75.4883-26.1719Z"/>
  </g>
  <g id="Heavy-M" transform="matrix(1 0 0 1 2576.39 1126)">
   <path d="M31.0059 12.6465L89.6484 12.6465C101.416 12.6465 108.154 5.9082 108.154-5.81055L108.154-64.5508C108.154-76.2695 101.416-83.0566 89.6484-83.0566L31.0059-83.0566C19.2383-83.0566 12.4512-76.3184 12.4512-64.5508L12.4512-5.81055C12.4512 5.9082 19.2383 12.6465 31.0059 12.6465ZM74.1699-15.1367C66.2598-15.1367 60.8887-21.2891 60.8887-35.2539C60.8887-49.2676 66.2598-55.3711 74.1699-55.3711C82.0801-55.3711 87.7441-49.2676 87.7441-35.2539C87.7441-21.2891 82.0801-15.1367 74.1699-15.1367ZM49.2188-15.2832C45.9961-15.2832 44.3848-17.1387 44.3848-20.9473L44.3848-43.457L44.1895-43.457L41.7969-41.1133C40.5762-39.7461 39.6484-39.1113 37.9883-39.1113C35.8398-39.1113 34.1309-41.0156 34.1309-43.1152C34.1309-45.0195 34.8633-46.3867 36.7188-48.0957L41.6992-52.4414C44.2383-54.7852 45.8984-55.3223 47.9492-55.3223C52.002-55.3223 54.0527-52.9297 54.0527-48.877L54.0527-20.9473C54.0527-17.1387 52.4902-15.2832 49.2188-15.2832ZM74.3164-24.6582C76.5625-24.6582 77.9785-27.3438 77.9785-35.2539C77.9785-43.1641 76.5625-45.8984 74.3164-45.8984C72.168-45.8984 70.6543-43.1641 70.6543-35.2539C70.6543-27.3438 72.168-24.6582 74.3164-24.6582Z"/>
  </g>
  <g id="Bold-M" transform="matrix(1 0 0 1 2280.68 1126)">
   <path d="M29.8828 11.6699L88.7207 11.6699C99.9512 11.6699 106.152 5.46875 106.152-5.66406L106.152-64.6973C106.152-75.8789 99.9512-82.0312 88.7207-82.0312L29.8828-82.0312C18.6523-82.0312 12.4512-75.8789 12.4512-64.6973L12.4512-5.66406C12.4512 5.51758 18.6523 11.6699 29.8828 11.6699ZM72.9004-14.5996C64.7461-14.5996 59.2285-21.4844 59.2285-35.2539C59.2285-49.0723 64.7461-55.957 72.9004-55.957C81.1035-55.957 86.7676-49.0723 86.7676-35.2539C86.7676-21.4844 81.1035-14.5996 72.9004-14.5996ZM47.3633-14.8926C44.5801-14.8926 43.1152-16.5527 43.1152-19.7266L43.1152-45.2148L42.9199-45.2148L39.502-42.334C38.2812-41.1133 37.5-40.6738 36.1328-40.6738C34.2285-40.6738 32.6172-42.3828 32.6172-44.3848C32.6172-46.0449 33.3008-47.2656 34.9121-48.6816L40.7715-53.3203C43.0664-55.2246 44.4824-55.7617 46.4355-55.7617C49.8047-55.7617 51.6602-53.7109 51.6602-50.293L51.6602-19.7266C51.6602-16.5527 50.1465-14.8926 47.3633-14.8926ZM72.998-22.9492C76.1719-22.9492 78.125-26.7578 78.125-35.2539C78.125-43.75 76.123-47.6074 72.998-47.6074C69.9707-47.6074 67.9199-43.75 67.9199-35.2539C67.9199-26.7578 69.9707-22.9492 72.998-22.9492Z"/>
  </g>
  <g id="Semibold-M" transform="matrix(1 0 0 1 1984.65 1126)">
   <path d="M29.1016 10.9863L88.0859 10.9863C98.9746 10.9863 104.785 5.17578 104.785-5.56641L104.785-64.8438C104.785-75.5859 98.9746-81.3477 88.0859-81.3477L29.1016-81.3477C18.2617-81.3477 12.4512-75.5859 12.4512-64.8438L12.4512-5.56641C12.4512 5.22461 18.2617 10.9863 29.1016 10.9863ZM72.0215-14.209C63.6719-14.209 58.1055-21.582 58.1055-35.2539C58.1055-48.9258 63.6719-56.2988 72.0215-56.2988C80.4199-56.2988 86.084-48.9258 86.084-35.2539C86.084-21.582 80.4199-14.209 72.0215-14.209ZM46.0938-14.5996C43.6523-14.5996 42.2363-16.1621 42.2363-18.8477L42.2363-46.4844L41.9922-46.4844L37.8906-43.1641C36.7188-42.0898 36.0352-41.7969 34.8633-41.7969C33.1055-41.7969 31.543-43.3594 31.543-45.2148C31.543-46.7773 32.2266-47.9004 33.6426-49.0234L40.1855-53.9062C42.2852-55.5664 43.5547-56.0547 45.3613-56.0547C48.291-56.0547 49.9512-54.248 49.9512-51.2695L49.9512-18.8477C49.9512-16.1621 48.584-14.5996 46.0938-14.5996ZM72.1191-21.7773C75.8789-21.7773 78.1738-26.3184 78.1738-35.2539C78.1738-44.1895 75.8301-48.7793 72.1191-48.7793C68.4082-48.7793 66.0645-44.1895 66.0645-35.2539C66.0645-26.3184 68.4082-21.7773 72.1191-21.7773Z"/>
  </g>
  <g id="Medium-M" transform="matrix(1 0 0 1 1688.47 1126)">
   <path d="M28.5156 10.4492L87.6465 10.4492C98.2422 10.4492 103.711 4.98047 103.711-5.46875L103.711-64.8926C103.711-75.3418 98.2422-80.8105 87.6465-80.8105L28.5156-80.8105C17.9688-80.8105 12.4512-75.3906 12.4512-64.8926L12.4512-5.46875C12.4512 4.98047 17.9688 10.4492 28.5156 10.4492ZM71.3867-13.916C62.8906-13.916 57.2266-21.6797 57.2266-35.2539C57.2266-48.8281 62.8906-56.5918 71.3867-56.5918C79.8828-56.5918 85.5957-48.8281 85.5957-35.2539C85.5957-21.6797 79.8828-13.916 71.3867-13.916ZM45.1172-14.4043C42.9199-14.4043 41.6016-15.8203 41.6016-18.2129L41.6016-47.4121L41.3086-47.4121L36.6699-43.7988C35.498-42.8223 34.9121-42.627 33.8867-42.627C32.2754-42.627 30.7617-44.0918 30.7617-45.8984C30.7617-47.3145 31.4453-48.3398 32.666-49.3164L39.6973-54.3457C41.6504-55.8105 42.7734-56.2988 44.5312-56.2988C47.1191-56.2988 48.7305-54.6387 48.7305-52.0508L48.7305-18.2129C48.7305-15.8203 47.3633-14.4043 45.1172-14.4043ZM71.4355-20.8496C75.6348-20.8496 78.2227-26.0254 78.2227-35.2539C78.2227-44.4824 75.5859-49.6582 71.4355-49.6582C67.2852-49.6582 64.5996-44.4824 64.5996-35.2539C64.5996-26.0254 67.2852-20.8496 71.4355-20.8496Z"/>
  </g>
  <g id="Regular-M" transform="matrix(1 0 0 1 1392.45 1126)">
   <path d="M27.7832 9.76562L87.0117 9.76562C97.2656 9.76562 102.344 4.6875 102.344-5.37109L102.344-64.9902C102.344-75.0488 97.2656-80.127 87.0117-80.127L27.7832-80.127C17.5781-80.127 12.4512-75.0977 12.4512-64.9902L12.4512-5.37109C12.4512 4.73633 17.5781 9.76562 27.7832 9.76562ZM70.5078-13.5254C61.8652-13.5254 56.1035-21.8262 56.1035-35.2539C56.1035-48.6816 61.8652-56.9824 70.5078-56.9824C79.1992-56.9824 84.9121-48.6816 84.9121-35.2539C84.9121-21.8262 79.1992-13.5254 70.5078-13.5254ZM43.8477-14.1602C41.9434-14.1602 40.7227-15.4297 40.7227-17.3828L40.7227-48.6328L40.4297-48.6328L35.1074-44.6777C33.9355-43.75 33.4473-43.7012 32.6172-43.7012C31.1523-43.7012 29.7363-45.0195 29.7363-46.7285C29.7363-48.0469 30.3711-48.9746 31.4453-49.707L39.0625-54.9316C40.8691-56.1523 41.8457-56.6406 43.5059-56.6406C45.6055-56.6406 47.0703-55.127 47.0703-53.0273L47.0703-17.3828C47.0703-15.4297 45.8008-14.1602 43.8477-14.1602ZM70.5078-19.6777C75.3418-19.6777 78.3203-25.5859 78.3203-35.2539C78.3203-44.9219 75.293-50.8301 70.5078-50.8301C65.7715-50.8301 62.7441-44.9219 62.7441-35.2539C62.7441-25.5859 65.7715-19.6777 70.5078-19.6777Z"/>
  </g>
  <g id="Light-M" transform="matrix(1 0 0 1 1096.47 1126)">
   <path d="M26.8555 9.0332L86.4746 9.0332C95.9961 9.0332 100.879 4.15039 100.879-5.22461L100.879-65.0879C100.879-74.5117 95.9961-79.3945 86.4746-79.3945L26.8555-79.3945C17.334-79.3945 12.4512-74.5605 12.4512-65.0879L12.4512-5.22461C12.4512 4.19922 17.334 9.0332 26.8555 9.0332ZM69.3359-14.0625C60.8398-14.0625 55.127-22.3145 55.127-35.2539C55.127-48.2422 60.8398-56.4941 69.3359-56.4941C77.832-56.4941 83.4961-48.2422 83.4961-35.2539C83.4961-22.3145 77.832-14.0625 69.3359-14.0625ZM42.9199-14.5508C41.4551-14.5508 40.4297-15.5762 40.4297-17.0898L40.4297-49.7559L40.1855-49.7559L33.6426-45.166C32.7637-44.5312 32.373-44.4824 31.7871-44.4824C30.5664-44.4824 29.4434-45.5566 29.4434-46.9238C29.4434-47.9004 29.9316-48.6328 30.8105-49.2676L39.209-54.8828C40.5762-55.8105 41.3086-56.1523 42.627-56.1523C44.2871-56.1523 45.459-54.9805 45.459-53.2715L45.459-17.0898C45.459-15.5762 44.4824-14.5508 42.9199-14.5508ZM69.3359-18.9453C74.7559-18.9453 78.2715-25.293 78.2715-35.2539C78.2715-45.2148 74.7559-51.5625 69.3359-51.5625C63.916-51.5625 60.4004-45.2148 60.4004-35.2539C60.4004-25.293 63.916-18.9453 69.3359-18.9453Z"/>
  </g>
  <g id="Thin-M" transform="matrix(1 0 0 1 800.758 1126)">
   <path d="M25.6348 8.05664L85.7422 8.05664C94.3848 8.05664 98.877 3.4668 98.877-5.0293L98.877-65.2344C98.877-73.7305 94.3848-78.3691 85.7422-78.3691L25.6348-78.3691C16.9922-78.3691 12.4512-73.877 12.4512-65.2344L12.4512-5.0293C12.4512 3.56445 16.9922 8.05664 25.6348 8.05664ZM67.7246-14.6973C59.4727-14.6973 53.8574-22.9492 53.8574-35.2539C53.8574-47.6074 59.4727-55.8105 67.7246-55.8105C76.0254-55.8105 81.6406-47.6074 81.6406-35.2539C81.6406-22.9492 76.0254-14.6973 67.7246-14.6973ZM41.6992-15.0879C40.7715-15.0879 40.0391-15.7227 40.0391-16.748L40.0391-51.3184L39.8438-51.3184L31.6406-45.8496C31.2012-45.5566 31.0059-45.5566 30.6152-45.5566C29.7852-45.5566 29.1016-46.2891 29.1016-47.1191C29.1016-47.7539 29.3457-48.2422 29.9316-48.6328L39.3555-54.7852C40.1367-55.3223 40.625-55.5176 41.5039-55.5176C42.5781-55.5176 43.3594-54.7852 43.3594-53.6621L43.3594-16.748C43.3594-15.7227 42.7734-15.0879 41.6992-15.0879ZM67.7246-17.9688C73.9746-17.9688 78.2227-24.9023 78.2227-35.2539C78.2227-45.6055 73.9746-52.5391 67.7246-52.5391C61.5234-52.5391 57.2754-45.6055 57.2754-35.2539C57.2754-24.9023 61.5234-17.9688 67.7246-17.9688Z"/>
  </g>
  <g id="Ultralight-M" transform="matrix(1 0 0 1 504.535 1126)">
   <path d="M25 7.56836L85.3516 7.56836C93.5059 7.56836 97.9004 3.125 97.9004-4.98047L97.9004-65.2832C97.9004-73.3887 93.5059-77.832 85.3516-77.832L25-77.832C16.7969-77.832 12.4512-73.4863 12.4512-65.2832L12.4512-4.98047C12.4512 3.22266 16.7969 7.56836 25 7.56836ZM66.9434-15.0391C58.7891-15.0391 53.1738-23.2422 53.1738-35.2539C53.1738-47.2656 58.7891-55.4688 66.9434-55.4688C75.0977-55.4688 80.7129-47.2656 80.7129-35.2539C80.7129-23.2422 75.0977-15.0391 66.9434-15.0391ZM41.0645-15.332C40.4297-15.332 39.8926-15.8203 39.8926-16.5527L39.8926-52.0996L39.6973-52.0996L30.6641-46.1914C30.4199-46.0938 30.2734-46.0938 30.0781-46.0938C29.3945-46.0938 28.9062-46.6309 28.9062-47.2168C28.9062-47.6562 29.0039-47.998 29.4922-48.3398L39.4531-54.7852C39.9414-55.0781 40.2832-55.1758 40.918-55.1758C41.6992-55.1758 42.2852-54.6875 42.2852-53.8574L42.2852-16.5527C42.2852-15.8203 41.8945-15.332 41.0645-15.332ZM66.9434-17.4805C73.584-17.4805 78.2227-24.707 78.2227-35.2539C78.2227-45.8008 73.584-53.0762 66.9434-53.0762C60.3027-53.0762 55.6641-45.8008 55.6641-35.2539C55.6641-24.707 60.3027-17.4805 66.9434-17.4805Z"/>
  </g>
  <g id="Black-S" transform="matrix(1 0 0 1 2885.5 696)">
   <path d="M25 2.92969L70.8008 2.92969C80.3711 2.92969 86.0352-2.73438 86.0352-12.3047L86.0352-58.1055C86.0352-67.6758 80.3711-73.3398 70.8008-73.3398L25-73.3398C15.4297-73.3398 9.76562-67.6758 9.76562-58.1055L9.76562-12.3047C9.76562-2.73438 15.4297 2.92969 25 2.92969ZM58.9355-19.8242C52.8809-19.8242 48.7793-24.1699 48.7793-35.2539C48.7793-46.3379 52.8809-50.6836 58.9355-50.6836C64.9414-50.6836 69.3848-46.3379 69.3848-35.2539C69.3848-24.1699 64.9414-19.8242 58.9355-19.8242ZM39.7461-19.8242C36.9141-19.8242 35.5957-21.4355 35.5957-24.8047L35.5957-40.5273L35.4492-40.5273L34.2285-39.0625C33.252-37.8906 32.4219-37.2559 30.957-37.2559C29.1016-37.2559 27.6855-38.8672 27.6855-40.625C27.6855-42.2363 28.3203-43.4082 29.9316-44.9707L33.252-48.1934C35.4004-50.2441 36.8652-50.6836 38.5742-50.6836C42.1387-50.6836 43.8965-48.6328 43.8965-45.0195L43.8965-24.8047C43.8965-21.4355 42.5781-19.8242 39.7461-19.8242ZM59.082-28.0273C60.2539-28.0273 61.0352-29.4434 61.0352-35.2539C61.0352-41.0645 60.2539-42.4805 59.082-42.4805C57.959-42.4805 57.1289-41.0645 57.1289-35.2539C57.1289-29.4434 57.959-28.0273 59.082-28.0273Z"/>
  </g>
  <g id="Heavy-S" transform="matrix(1 0 0 1 2589.4 696)">
   <path d="M24.3652 2.34375L70.2637 2.34375C79.541 2.34375 84.8145-2.97852 84.8145-12.207L84.8145-58.2031C84.8145-67.4316 79.541-72.7539 70.2637-72.7539L24.3652-72.7539C15.0879-72.7539 9.76562-67.4316 9.76562-58.2031L9.76562-12.207C9.76562-2.97852 15.0879 2.34375 24.3652 2.34375ZM58.2031-19.3848C51.9531-19.3848 47.7539-24.2676 47.7539-35.2539C47.7539-46.2402 51.9531-51.123 58.2031-51.123C64.4043-51.123 68.8965-46.2402 68.8965-35.2539C68.8965-24.2676 64.4043-19.3848 58.2031-19.3848ZM38.5742-19.5312C36.0352-19.5312 34.7656-20.9961 34.7656-24.0234L34.7656-41.6016L34.5703-41.6016L32.8125-39.8438C31.8359-38.7695 31.0547-38.2324 29.7852-38.2324C28.0762-38.2324 26.6602-39.7461 26.6602-41.4551C26.6602-42.9688 27.2949-44.043 28.7598-45.4102L32.6172-48.7793C34.6191-50.6348 35.9375-51.0254 37.5977-51.0254C40.7715-51.0254 42.4316-49.1699 42.4316-45.9473L42.4316-24.0234C42.4316-20.9961 41.1621-19.5312 38.5742-19.5312ZM58.3008-26.9531C60.0586-26.9531 61.1328-29.0527 61.1328-35.2539C61.1328-41.4551 60.0098-43.5547 58.3008-43.5547C56.6406-43.5547 55.5176-41.4551 55.5176-35.2539C55.5176-29.0527 56.6406-26.9531 58.3008-26.9531Z"/>
  </g>
  <g id="Bold-S" transform="matrix(1 0 0 1 2293.35 696)">
   <path d="M23.6328 1.66016L69.6289 1.66016C78.6133 1.66016 83.4961-3.22266 83.4961-12.1094L83.4961-58.3008C83.4961-67.1875 78.6133-72.0703 69.6289-72.0703L23.6328-72.0703C14.6973-72.0703 9.76562-67.1875 9.76562-58.3008L9.76562-12.1094C9.76562-3.22266 14.6973 1.66016 23.6328 1.66016ZM57.373-18.8965C50.9277-18.8965 46.582-24.3164 46.582-35.2539C46.582-46.1914 50.9277-51.6113 57.373-51.6113C63.8184-51.6113 68.3105-46.1914 68.3105-35.2539C68.3105-24.3164 63.8184-18.8965 57.373-18.8965ZM37.3047-19.1895C35.0098-19.1895 33.8379-20.5566 33.8379-23.0957L33.8379-42.8223L33.6426-42.8223L31.25-40.7227C30.2246-39.6973 29.541-39.3555 28.4668-39.3555C26.9043-39.3555 25.5859-40.7715 25.5859-42.3828C25.5859-43.7988 26.1719-44.7754 27.4414-45.8984L31.8848-49.4141C33.7891-51.0254 34.9609-51.4648 36.5234-51.4648C39.2578-51.4648 40.7715-49.7559 40.7715-47.0215L40.7715-23.0957C40.7715-20.5566 39.5508-19.1895 37.3047-19.1895ZM57.4707-25.7324C59.8145-25.7324 61.1816-28.6621 61.1816-35.2539C61.1816-41.8457 59.7656-44.7754 57.4707-44.7754C55.1758-44.7754 53.7109-41.8457 53.7109-35.2539C53.7109-28.6621 55.1758-25.7324 57.4707-25.7324Z"/>
  </g>
  <g id="Semibold-S" transform="matrix(1 0 0 1 1997.1 696)">
   <path d="M23.0957 1.17188L69.1895 1.17188C77.9297 1.17188 82.5684-3.36914 82.5684-12.0117L82.5684-58.3984C82.5684-67.041 77.9297-71.582 69.1895-71.582L23.0957-71.582C14.4043-71.582 9.76562-67.041 9.76562-58.3984L9.76562-12.0117C9.76562-3.36914 14.4043 1.17188 23.0957 1.17188ZM56.7871-18.5547C50.1953-18.5547 45.8008-24.3652 45.8008-35.2539C45.8008-46.1426 50.1953-51.9531 56.7871-51.9531C63.4277-51.9531 67.9199-46.1426 67.9199-35.2539C67.9199-24.3652 63.4277-18.5547 56.7871-18.5547ZM36.377-18.9453C34.3262-18.9453 33.1543-20.2148 33.1543-22.4609L33.1543-43.7012L32.959-43.7012L30.127-41.3086C29.1016-40.3809 28.5156-40.1367 27.5879-40.1367C26.123-40.1367 24.8047-41.4551 24.8047-43.0176C24.8047-44.3359 25.3906-45.2637 26.5137-46.2402L31.3965-49.9023C33.2031-51.3184 34.2285-51.709 35.791-51.709C38.1836-51.709 39.6484-50.1953 39.6484-47.7539L39.6484-22.4609C39.6484-20.2148 38.4277-18.9453 36.377-18.9453ZM56.8359-24.9023C59.6191-24.9023 61.2793-28.3691 61.2793-35.2539C61.2793-42.1387 59.5703-45.6055 56.8359-45.6055C54.1504-45.6055 52.4902-42.1387 52.4902-35.2539C52.4902-28.3691 54.1504-24.9023 56.8359-24.9023Z"/>
  </g>
  <g id="Medium-S" transform="matrix(1 0 0 1 1700.75 696)">
   <path d="M22.7051 0.830078L68.8965 0.830078C77.4414 0.830078 81.8359-3.51562 81.8359-11.9629L81.8359-58.4473C81.8359-66.8945 77.4414-71.2402 68.8965-71.2402L22.7051-71.2402C14.209-71.2402 9.76562-66.8945 9.76562-58.4473L9.76562-11.9629C9.76562-3.51562 14.209 0.830078 22.7051 0.830078ZM56.3965-18.3105C49.6582-18.3105 45.2148-24.4141 45.2148-35.2539C45.2148-46.0938 49.6582-52.1973 56.3965-52.1973C63.1348-52.1973 67.627-46.0938 67.627-35.2539C67.627-24.4141 63.1348-18.3105 56.3965-18.3105ZM35.6934-18.75C33.7891-18.75 32.666-19.9707 32.666-22.0215L32.666-44.3359L32.4707-44.3359L29.2969-41.748C28.2715-40.8691 27.7344-40.7227 26.9043-40.7227C25.4883-40.7227 24.2188-41.9922 24.2188-43.5059C24.2188-44.7754 24.7559-45.6543 25.8301-46.4844L31.0059-50.2441C32.7637-51.5137 33.7402-51.9531 35.2051-51.9531C37.4023-51.9531 38.7695-50.4883 38.7695-48.291L38.7695-22.0215C38.7695-19.9707 37.5977-18.75 35.6934-18.75ZM56.3965-24.2676C59.5215-24.2676 61.3281-28.125 61.3281-35.2539C61.3281-42.3828 59.4727-46.2402 56.3965-46.2402C53.418-46.2402 51.5625-42.3828 51.5625-35.2539C51.5625-28.125 53.418-24.2676 56.3965-24.2676Z"/>
  </g>
  <g id="Regular-S" transform="matrix(1 0 0 1 1404.51 696)">
   <path d="M22.2168 0.390625L68.457 0.390625C76.8066 0.390625 80.9082-3.71094 80.9082-11.9141L80.9082-58.4961C80.9082-66.6992 76.8066-70.8008 68.457-70.8008L22.2168-70.8008C13.916-70.8008 9.76562-66.6992 9.76562-58.4961L9.76562-11.9141C9.76562-3.71094 13.916 0.390625 22.2168 0.390625ZM55.8105-18.0176C48.9746-18.0176 44.4336-24.5117 44.4336-35.2539C44.4336-45.9961 48.9746-52.4902 55.8105-52.4902C62.7441-52.4902 67.2363-45.9961 67.2363-35.2539C67.2363-24.5117 62.7441-18.0176 55.8105-18.0176ZM34.8145-18.5059C33.1055-18.5059 32.0312-19.6289 32.0312-21.3867L32.0312-45.166L31.7871-45.166L28.2227-42.3828C27.1484-41.5039 26.709-41.5039 25.9766-41.5039C24.707-41.5039 23.4375-42.6758 23.4375-44.1895C23.4375-45.3613 24.0234-46.1426 24.9512-46.8262L30.5176-50.6836C32.1777-51.8066 33.0078-52.1973 34.4727-52.1973C36.377-52.1973 37.6465-50.9277 37.6465-49.0234L37.6465-21.3867C37.6465-19.6289 36.5234-18.5059 34.8145-18.5059ZM55.8105-23.4375C59.3262-23.4375 61.377-27.832 61.377-35.2539C61.377-42.6758 59.2773-47.0703 55.8105-47.0703C52.3926-47.0703 50.293-42.6758 50.293-35.2539C50.293-27.832 52.3926-23.4375 55.8105-23.4375Z"/>
  </g>
  <g id="Light-S" transform="matrix(1 0 0 1 1108.46 696)">
   <path d="M21.3867-0.292969L67.9688-0.292969C75.7324-0.292969 79.5898-4.15039 79.5898-11.7676L79.5898-58.5938C79.5898-66.2109 75.7324-70.1172 67.9688-70.1172L21.3867-70.1172C13.6719-70.1172 9.76562-66.2598 9.76562-58.5938L9.76562-11.7676C9.76562-4.15039 13.6719-0.292969 21.3867-0.292969ZM54.7852-18.457C48.0469-18.457 43.5547-24.9023 43.5547-35.2539C43.5547-45.6055 48.0469-52.0508 54.7852-52.0508C61.5234-52.0508 65.9668-45.6055 65.9668-35.2539C65.9668-24.9023 61.5234-18.457 54.7852-18.457ZM33.9844-18.8477C32.666-18.8477 31.7871-19.7754 31.7871-21.1426L31.7871-46.1914L31.5918-46.1914L26.9043-42.8223C26.123-42.2363 25.7812-42.1875 25.2441-42.1875C24.1699-42.1875 23.1934-43.1152 23.1934-44.3359C23.1934-45.2148 23.584-45.8496 24.3652-46.3867L30.6641-50.6348C31.8848-51.4648 32.5684-51.8066 33.7402-51.8066C35.2051-51.8066 36.2305-50.7812 36.2305-49.2676L36.2305-21.1426C36.2305-19.7754 35.3516-18.8477 33.9844-18.8477ZM54.7852-22.7539C58.7891-22.7539 61.3281-27.5879 61.3281-35.2539C61.3281-42.9199 58.7891-47.7539 54.7852-47.7539C50.7812-47.7539 48.2422-42.9199 48.2422-35.2539C48.2422-27.5879 50.7812-22.7539 54.7852-22.7539Z"/>
  </g>
  <g id="Thin-S" transform="matrix(1 0 0 1 812.599 696)">
   <path d="M20.3125-1.12305L67.334-1.12305C74.2676-1.12305 77.8809-4.78516 77.8809-11.6211L77.8809-58.6914C77.8809-65.5762 74.2676-69.2383 67.334-69.2383L20.3125-69.2383C13.3789-69.2383 9.76562-65.625 9.76562-58.6914L9.76562-11.6211C9.76562-4.6875 13.3789-1.12305 20.3125-1.12305ZM53.3691-18.9941C46.875-18.9941 42.4316-25.4883 42.4316-35.2539C42.4316-45.0195 46.875-51.5137 53.3691-51.5137C59.9121-51.5137 64.3066-45.0195 64.3066-35.2539C64.3066-25.4883 59.9121-18.9941 53.3691-18.9941ZM32.9102-19.3359C32.0801-19.3359 31.4453-19.9219 31.4453-20.8008L31.4453-47.5098L31.2988-47.5098L25.1953-43.4082C24.7559-43.1152 24.5605-43.1152 24.2188-43.1152C23.4863-43.1152 22.8516-43.75 22.8516-44.4824C22.8516-45.0684 23.0957-45.5078 23.6328-45.8496L30.8105-50.5859C31.543-51.0742 31.9824-51.2207 32.7148-51.2207C33.6914-51.2207 34.375-50.5859 34.375-49.6094L34.375-20.8008C34.375-19.9219 33.8379-19.3359 32.9102-19.3359ZM53.3691-21.875C58.1055-21.875 61.3281-27.2461 61.3281-35.2539C61.3281-43.2617 58.1055-48.6328 53.3691-48.6328C48.6816-48.6328 45.459-43.2617 45.459-35.2539C45.459-27.2461 48.6816-21.875 53.3691-21.875Z"/>
  </g>
  <g id="Ultralight-S" transform="matrix(1 0 0 1 516.352 696)">
   <path d="M19.7754-1.5625L66.9922-1.5625C73.5352-1.5625 76.9531-5.12695 76.9531-11.5234L76.9531-58.7891C76.9531-65.2344 73.5352-68.75 66.9922-68.75L19.7754-68.75C13.2324-68.75 9.76562-65.2832 9.76562-58.7891L9.76562-11.5234C9.76562-5.0293 13.2324-1.5625 19.7754-1.5625ZM52.6367-19.3359C46.2402-19.3359 41.8457-25.7812 41.8457-35.2539C41.8457-44.7266 46.2402-51.1719 52.6367-51.1719C59.082-51.1719 63.4766-44.7266 63.4766-35.2539C63.4766-25.7812 59.082-19.3359 52.6367-19.3359ZM32.373-19.5801C31.7383-19.5801 31.2988-20.0195 31.2988-20.6543L31.2988-48.2422L31.1523-48.2422L24.2676-43.75C24.0234-43.6035 23.9258-43.6035 23.6816-43.6035C23.1445-43.6035 22.7051-44.0918 22.7051-44.6289C22.7051-44.9707 22.8027-45.3125 23.2422-45.5566L30.9082-50.5371C31.3477-50.8301 31.6406-50.9277 32.1777-50.9277C32.9102-50.9277 33.3984-50.4883 33.3984-49.7559L33.3984-20.6543C33.3984-20.0195 33.0566-19.5801 32.373-19.5801ZM52.6367-21.4355C57.7637-21.4355 61.2793-27.0508 61.2793-35.2539C61.2793-43.457 57.7637-49.0723 52.6367-49.0723C47.5586-49.0723 44.043-43.457 44.043-35.2539C44.043-27.0508 47.5586-21.4355 52.6367-21.4355Z"/>
  </g>
 </g>
</svg>
