<?xml version="1.0" encoding="UTF-8"?>
<!--Generator: Apple Native CoreSVG 149-->
<!DOCTYPE svg
PUBLIC "-//W3C//DTD SVG 1.1//EN"
       "http://www.w3.org/Graphics/SVG/1.1/DTD/svg11.dtd">
<svg version="1.1" xmlns="http://www.w3.org/2000/svg" xmlns:xlink="http://www.w3.org/1999/xlink" width="3300" height="2200">
 <!--glyph: "uni100558.medium", point size: 100.000000, font version: "Version 16.0d18e1", template writer version: "8"-->
 <g id="Notes">
  <rect height="2200" id="artboard" style="fill:white;opacity:1" width="3300" x="0" y="0"/>
  <line id="" style="fill:none;stroke:black;opacity:1;stroke-width:0.5;" x1="263" x2="3036" y1="292" y2="292"/>
  <text style="stroke:none;fill:black;font-family:-apple-system,&quot;SF Pro Display&quot;,&quot;SF Pro Text&quot;,Helvetica,sans-serif;font-weight:bold;" transform="matrix(1 0 0 1 263 322)">Weight/Scale Variations</text>
  <text style="stroke:none;fill:black;font-family:-apple-system,&quot;SF Pro Display&quot;,&quot;SF Pro Text&quot;,Helvetica,sans-serif;text-anchor:middle;" transform="matrix(1 0 0 1 559.711 322)">Ultralight</text>
  <text style="stroke:none;fill:black;font-family:-apple-system,&quot;SF Pro Display&quot;,&quot;SF Pro Text&quot;,Helvetica,sans-serif;text-anchor:middle;" transform="matrix(1 0 0 1 856.422 322)">Thin</text>
  <text style="stroke:none;fill:black;font-family:-apple-system,&quot;SF Pro Display&quot;,&quot;SF Pro Text&quot;,Helvetica,sans-serif;text-anchor:middle;" transform="matrix(1 0 0 1 1153.13 322)">Light</text>
  <text style="stroke:none;fill:black;font-family:-apple-system,&quot;SF Pro Display&quot;,&quot;SF Pro Text&quot;,Helvetica,sans-serif;text-anchor:middle;" transform="matrix(1 0 0 1 1449.84 322)">Regular</text>
  <text style="stroke:none;fill:black;font-family:-apple-system,&quot;SF Pro Display&quot;,&quot;SF Pro Text&quot;,Helvetica,sans-serif;text-anchor:middle;" transform="matrix(1 0 0 1 1746.56 322)">Medium</text>
  <text style="stroke:none;fill:black;font-family:-apple-system,&quot;SF Pro Display&quot;,&quot;SF Pro Text&quot;,Helvetica,sans-serif;text-anchor:middle;" transform="matrix(1 0 0 1 2043.27 322)">Semibold</text>
  <text style="stroke:none;fill:black;font-family:-apple-system,&quot;SF Pro Display&quot;,&quot;SF Pro Text&quot;,Helvetica,sans-serif;text-anchor:middle;" transform="matrix(1 0 0 1 2339.98 322)">Bold</text>
  <text style="stroke:none;fill:black;font-family:-apple-system,&quot;SF Pro Display&quot;,&quot;SF Pro Text&quot;,Helvetica,sans-serif;text-anchor:middle;" transform="matrix(1 0 0 1 2636.69 322)">Heavy</text>
  <text style="stroke:none;fill:black;font-family:-apple-system,&quot;SF Pro Display&quot;,&quot;SF Pro Text&quot;,Helvetica,sans-serif;text-anchor:middle;" transform="matrix(1 0 0 1 2933.4 322)">Black</text>
  <line id="" style="fill:none;stroke:black;opacity:1;stroke-width:0.5;" x1="263" x2="3036" y1="1903" y2="1903"/>
  <g id="" transform="matrix(1 0 0 1 263 1933)">
   <path d="M9.24805 0.830078C13.5547 0.830078 17.1387-2.74414 17.1387-7.05078C17.1387-11.3574 13.5449-14.9316 9.23828-14.9316C4.94141-14.9316 1.36719-11.3574 1.36719-7.05078C1.36719-2.74414 4.95117 0.830078 9.24805 0.830078ZM9.24805-0.654297C5.70312-0.654297 2.87109-3.49609 2.87109-7.05078C2.87109-10.6055 5.69336-13.4473 9.23828-13.4473C12.793-13.4473 15.6348-10.6055 15.6445-7.05078C15.6543-3.49609 12.8027-0.654297 9.24805-0.654297ZM6.39648-6.31836L8.50586-6.31836L8.50586-4.19922C8.50586-3.75977 8.79883-3.45703 9.22852-3.45703C9.67773-3.45703 9.9707-3.75977 9.9707-4.19922L9.9707-6.31836L12.0996-6.31836C12.5391-6.31836 12.8418-6.61133 12.8418-7.04102C12.8418-7.48047 12.5391-7.7832 12.0996-7.7832L9.9707-7.7832L9.9707-9.89258C9.9707-10.3418 9.67773-10.6445 9.22852-10.6445C8.79883-10.6445 8.50586-10.3418 8.50586-9.89258L8.50586-7.7832L6.39648-7.7832C5.94727-7.7832 5.64453-7.48047 5.64453-7.04102C5.64453-6.61133 5.94727-6.31836 6.39648-6.31836Z"/>
  </g>
  <g id="" transform="matrix(1 0 0 1 281.506 1933)">
   <path d="M11.709 2.91016C17.1582 2.91016 21.6699-1.61133 21.6699-7.05078C21.6699-12.5 17.1484-17.0117 11.6992-17.0117C6.25977-17.0117 1.74805-12.5 1.74805-7.05078C1.74805-1.61133 6.26953 2.91016 11.709 2.91016ZM11.709 1.25C7.09961 1.25 3.41797-2.44141 3.41797-7.05078C3.41797-11.6602 7.08984-15.3516 11.6992-15.3516C16.3086-15.3516 20-11.6602 20.0098-7.05078C20.0195-2.44141 16.3184 1.25 11.709 1.25ZM7.98828-6.23047L10.8789-6.23047L10.8789-3.32031C10.8789-2.83203 11.2109-2.5 11.6895-2.5C12.1777-2.5 12.5195-2.83203 12.5195-3.32031L12.5195-6.23047L15.4297-6.23047C15.918-6.23047 16.25-6.5625 16.25-7.04102C16.25-7.5293 15.918-7.87109 15.4297-7.87109L12.5195-7.87109L12.5195-10.7617C12.5195-11.2695 12.1777-11.6016 11.6895-11.6016C11.2109-11.6016 10.8789-11.2598 10.8789-10.7617L10.8789-7.87109L7.98828-7.87109C7.48047-7.87109 7.14844-7.5293 7.14844-7.04102C7.14844-6.5625 7.49023-6.23047 7.98828-6.23047Z"/>
  </g>
  <g id="" transform="matrix(1 0 0 1 304.924 1933)">
   <path d="M14.9707 5.66406C21.9336 5.66406 27.6953-0.0976562 27.6953-7.05078C27.6953-14.0137 21.9238-19.7754 14.9609-19.7754C8.00781-19.7754 2.25586-14.0137 2.25586-7.05078C2.25586-0.0976562 8.01758 5.66406 14.9707 5.66406ZM14.9707 3.84766C8.93555 3.84766 4.08203-1.01562 4.08203-7.05078C4.08203-13.0957 8.92578-17.9492 14.9609-17.9492C21.0059-17.9492 25.8594-13.0957 25.8691-7.05078C25.8789-1.01562 21.0156 3.84766 14.9707 3.84766ZM10.0586-6.14258L14.0625-6.14258L14.0625-2.12891C14.0625-1.5918 14.4336-1.2207 14.9512-1.2207C15.4883-1.2207 15.8594-1.5918 15.8594-2.12891L15.8594-6.14258L19.8828-6.14258C20.4102-6.14258 20.791-6.51367 20.791-7.03125C20.791-7.56836 20.4199-7.94922 19.8828-7.94922L15.8594-7.94922L15.8594-11.9531C15.8594-12.5098 15.4883-12.8809 14.9512-12.8809C14.4336-12.8809 14.0625-12.5 14.0625-11.9531L14.0625-7.94922L10.0586-7.94922C9.50195-7.94922 9.13086-7.56836 9.13086-7.03125C9.13086-6.51367 9.51172-6.14258 10.0586-6.14258Z"/>
  </g>
  <text style="stroke:none;fill:black;font-family:-apple-system,&quot;SF Pro Display&quot;,&quot;SF Pro Text&quot;,Helvetica,sans-serif;font-weight:bold;" transform="matrix(1 0 0 1 263 1953)">Design Variations</text>
  <text style="stroke:none;fill:black;font-family:-apple-system,&quot;SF Pro Display&quot;,&quot;SF Pro Text&quot;,Helvetica,sans-serif;" transform="matrix(1 0 0 1 263 1971)">Symbols are supported in up to nine weights and three scales.</text>
  <text style="stroke:none;fill:black;font-family:-apple-system,&quot;SF Pro Display&quot;,&quot;SF Pro Text&quot;,Helvetica,sans-serif;" transform="matrix(1 0 0 1 263 1989)">For optimal layout with text and other symbols, vertically align</text>
  <text style="stroke:none;fill:black;font-family:-apple-system,&quot;SF Pro Display&quot;,&quot;SF Pro Text&quot;,Helvetica,sans-serif;" transform="matrix(1 0 0 1 263 2007)">symbols with the adjacent text.</text>
  <line id="" style="fill:none;stroke:#00AEEF;stroke-width:0.5;opacity:1.0;" x1="776" x2="776" y1="1919" y2="1933"/>
  <g id="" transform="matrix(1 0 0 1 776 1933)">
   <path d="M3.31055 0.126953C3.82812 0.126953 4.08203-0.0683594 4.26758-0.605469L5.52734-4.0625L11.2891-4.0625L12.5488-0.605469C12.7344-0.0683594 12.9883 0.126953 13.4961 0.126953C14.0137 0.126953 14.3457-0.185547 14.3457-0.673828C14.3457-0.839844 14.3164-0.986328 14.2383-1.20117L9.6582-13.3887C9.43359-13.9941 9.0332-14.2871 8.4082-14.2871C7.80273-14.2871 7.39258-13.9941 7.17773-13.3984L2.59766-1.19141C2.51953-0.976562 2.49023-0.830078 2.49023-0.664062C2.49023-0.175781 2.80273 0.126953 3.31055 0.126953ZM6.00586-5.53711L8.37891-12.1094L8.42773-12.1094L10.8008-5.53711Z"/>
  </g>
  <line id="" style="fill:none;stroke:#00AEEF;stroke-width:0.5;opacity:1.0;" x1="792.836" x2="792.836" y1="1919" y2="1933"/>
  <text style="stroke:none;fill:black;font-family:-apple-system,&quot;SF Pro Display&quot;,&quot;SF Pro Text&quot;,Helvetica,sans-serif;font-weight:bold;" transform="matrix(1 0 0 1 776 1953)">Margins</text>
  <text style="stroke:none;fill:black;font-family:-apple-system,&quot;SF Pro Display&quot;,&quot;SF Pro Text&quot;,Helvetica,sans-serif;" transform="matrix(1 0 0 1 776 1971)">Leading and trailing margins on the left and right side of each symbol</text>
  <text style="stroke:none;fill:black;font-family:-apple-system,&quot;SF Pro Display&quot;,&quot;SF Pro Text&quot;,Helvetica,sans-serif;" transform="matrix(1 0 0 1 776 1989)">can be adjusted by modifying the x-location of the margin guidelines.</text>
  <text style="stroke:none;fill:black;font-family:-apple-system,&quot;SF Pro Display&quot;,&quot;SF Pro Text&quot;,Helvetica,sans-serif;" transform="matrix(1 0 0 1 776 2007)">Modifications are automatically applied proportionally to all</text>
  <text style="stroke:none;fill:black;font-family:-apple-system,&quot;SF Pro Display&quot;,&quot;SF Pro Text&quot;,Helvetica,sans-serif;" transform="matrix(1 0 0 1 776 2025)">scales and weights.</text>
  <g id="" transform="matrix(1 0 0 1 1289 1933)">
   <path d="M2.8418 1.86523L4.54102 3.57422C5.40039 4.44336 6.38672 4.38477 7.31445 3.35938L17.4902-7.85156C17.7539-7.76367 18.0273-7.7832 18.3398-7.8418L19.4043-8.03711L20.0684-7.36328L20.0293-6.80664C19.9902-6.30859 20.1172-5.92773 20.6055-5.44922L21.3672-4.70703C21.8457-4.22852 22.4609-4.19922 22.9297-4.66797L25.8398-7.58789C26.3086-8.05664 26.2891-8.65234 25.8105-9.13086L25.0391-9.89258C24.5605-10.3711 24.1895-10.5273 23.7109-10.4883L23.1348-10.4395L22.4902-11.0742L22.7344-12.1973C22.8613-12.7637 22.7051-13.2031 22.1191-13.7891L19.9219-15.9766C16.582-19.2969 12.1484-19.2188 9.25781-16.3281C8.83789-15.918 8.80859-15.3418 9.04297-14.9512C9.27734-14.5898 9.73633-14.3555 10.3809-14.5215C11.8457-14.8633 13.3691-14.9219 14.7949-13.9844L14.209-12.5293C14.0137-12.0508 13.9844-11.6504 14.1113-11.2891L3.04688-0.898438C2.06055 0.0195312 1.98242 0.996094 2.8418 1.86523ZM10.752-15.957C13.1836-17.7344 16.4746-17.4316 18.7012-15.2051L21.1328-12.793C21.3672-12.5586 21.4062-12.373 21.3379-12.0312L21.0156-10.5469L22.5195-9.0625L23.5059-9.12109C23.7598-9.13086 23.8379-9.11133 24.0332-8.91602L24.6094-8.33984L22.168-5.89844L21.5918-6.47461C21.3965-6.66992 21.3672-6.74805 21.377-7.01172L21.4453-7.98828L19.9512-9.47266L18.4277-9.21875C18.1055-9.15039 17.959-9.17969 17.7148-9.41406L15.7129-11.416C15.459-11.6504 15.4297-11.8164 15.5859-12.1875L16.4648-14.2773C14.9023-15.7324 12.8711-16.3574 10.8398-15.7617C10.6836-15.7227 10.625-15.8496 10.752-15.957ZM5.27344 2.30469L4.10156 1.14258C3.63281 0.683594 3.74023 0.341797 4.14062-0.0195312L14.9512-10.1953L16.416-8.71094L6.42578 2.27539C6.07422 2.67578 5.74219 2.77344 5.27344 2.30469Z"/>
  </g>
  <text style="stroke:none;fill:black;font-family:-apple-system,&quot;SF Pro Display&quot;,&quot;SF Pro Text&quot;,Helvetica,sans-serif;font-weight:bold;" transform="matrix(1 0 0 1 1289 1953)">Exporting</text>
  <text style="stroke:none;fill:black;font-family:-apple-system,&quot;SF Pro Display&quot;,&quot;SF Pro Text&quot;,Helvetica,sans-serif;" transform="matrix(1 0 0 1 1289 1971)">Symbols should be outlined when exporting to ensure the</text>
  <text style="stroke:none;fill:black;font-family:-apple-system,&quot;SF Pro Display&quot;,&quot;SF Pro Text&quot;,Helvetica,sans-serif;" transform="matrix(1 0 0 1 1289 1989)">design is preserved when submitting to Xcode.</text>
  <text id="template-version" style="stroke:none;fill:black;font-family:-apple-system,&quot;SF Pro Display&quot;,&quot;SF Pro Text&quot;,Helvetica,sans-serif;text-anchor:end;" transform="matrix(1 0 0 1 3036 1933)">Template v.2.0</text>
  <text style="stroke:none;fill:black;font-family:-apple-system,&quot;SF Pro Display&quot;,&quot;SF Pro Text&quot;,Helvetica,sans-serif;text-anchor:end;" transform="matrix(1 0 0 1 3036 1951)">Requires Xcode 12 or greater</text>
  <text style="stroke:none;fill:black;font-family:-apple-system,&quot;SF Pro Display&quot;,&quot;SF Pro Text&quot;,Helvetica,sans-serif;text-anchor:end;" transform="matrix(1 0 0 1 3036 1969)">Generated from 16.square.fill</text>
  <text style="stroke:none;fill:black;font-family:-apple-system,&quot;SF Pro Display&quot;,&quot;SF Pro Text&quot;,Helvetica,sans-serif;text-anchor:end;" transform="matrix(1 0 0 1 3036 1987)">Typeset at 100 points</text>
  <text style="stroke:none;fill:black;font-family:-apple-system,&quot;SF Pro Display&quot;,&quot;SF Pro Text&quot;,Helvetica,sans-serif;" transform="matrix(1 0 0 1 263 726)">Small</text>
  <text style="stroke:none;fill:black;font-family:-apple-system,&quot;SF Pro Display&quot;,&quot;SF Pro Text&quot;,Helvetica,sans-serif;" transform="matrix(1 0 0 1 263 1156)">Medium</text>
  <text style="stroke:none;fill:black;font-family:-apple-system,&quot;SF Pro Display&quot;,&quot;SF Pro Text&quot;,Helvetica,sans-serif;" transform="matrix(1 0 0 1 263 1586)">Large</text>
 </g>
 <g id="Guides">
  <g id="H-reference" style="fill:#27AAE1;stroke:none;" transform="matrix(1 0 0 1 339 696)">
   <path d="M0.976562 0L3.66211 0L12.9883-24.4629L45.752-24.4629L55.127 0L57.7637 0L30.6152-70.459L28.125-70.459ZM29.3457-67.1387L29.4434-67.1387L44.873-26.709L13.8672-26.709Z"/>
  </g>
  <line id="Baseline-S" style="fill:none;stroke:#27AAE1;opacity:1;stroke-width:0.5;" x1="263" x2="3036" y1="696" y2="696"/>
  <line id="Capline-S" style="fill:none;stroke:#27AAE1;opacity:1;stroke-width:0.5;" x1="263" x2="3036" y1="625.541" y2="625.541"/>
  <g id="H-reference" style="fill:#27AAE1;stroke:none;" transform="matrix(1 0 0 1 339 1126)">
   <path d="M0.976562 0L3.66211 0L12.9883-24.4629L45.752-24.4629L55.127 0L57.7637 0L30.6152-70.459L28.125-70.459ZM29.3457-67.1387L29.4434-67.1387L44.873-26.709L13.8672-26.709Z"/>
  </g>
  <line id="Baseline-M" style="fill:none;stroke:#27AAE1;opacity:1;stroke-width:0.5;" x1="263" x2="3036" y1="1126" y2="1126"/>
  <line id="Capline-M" style="fill:none;stroke:#27AAE1;opacity:1;stroke-width:0.5;" x1="263" x2="3036" y1="1055.54" y2="1055.54"/>
  <g id="H-reference" style="fill:#27AAE1;stroke:none;" transform="matrix(1 0 0 1 339 1556)">
   <path d="M0.976562 0L3.66211 0L12.9883-24.4629L45.752-24.4629L55.127 0L57.7637 0L30.6152-70.459L28.125-70.459ZM29.3457-67.1387L29.4434-67.1387L44.873-26.709L13.8672-26.709Z"/>
  </g>
  <line id="Baseline-L" style="fill:none;stroke:#27AAE1;opacity:1;stroke-width:0.5;" x1="263" x2="3036" y1="1556" y2="1556"/>
  <line id="Capline-L" style="fill:none;stroke:#27AAE1;opacity:1;stroke-width:0.5;" x1="263" x2="3036" y1="1485.54" y2="1485.54"/>
  <line id="left-margin" style="fill:none;stroke:#00AEEF;stroke-width:0.5;opacity:1.0;" x1="1392.45" x2="1392.45" y1="1030.79" y2="1150.12"/>
  <line id="right-margin" style="fill:none;stroke:#00AEEF;stroke-width:0.5;opacity:1.0;" x1="1507.24" x2="1507.24" y1="1030.79" y2="1150.12"/>
 </g>
 <g id="Symbols">
  <g id="Black-L" transform="matrix(1 0 0 1 2855.62 1556)">
   <path d="M39.9902 26.5137L115.576 26.5137C130.811 26.5137 139.502 17.8711 139.502 2.68555L139.502-73.0957C139.502-88.2812 130.811-96.875 115.576-96.875L39.9902-96.875C24.7559-96.875 16.0645-88.2812 16.0645-73.0957L16.0645 2.68555C16.0645 17.8711 24.7559 26.5137 39.9902 26.5137ZM95.5078-8.98438C88.623-8.98438 82.8613-11.9141 79.834-18.6523C77.9297-22.9492 76.8066-28.5156 76.8066-34.9121C76.8066-52.3926 85.2539-61.5234 96.5332-61.5234C103.32-61.5234 108.008-58.4473 109.814-54.7852C110.498-53.4668 110.742-52.3926 110.742-50.8301C110.742-47.8027 108.301-45.9473 105.811-45.9473C103.516-45.9473 102.148-46.8262 101.074-48.0469C99.8535-49.4141 98.5352-50.6348 96.1914-50.6348C91.9434-50.6348 88.6719-46.1426 88.6719-39.5508C88.6719-38.3301 88.7207-37.5977 88.8184-36.9141L89.209-36.9141C90.7227-40.1367 93.7012-42.9688 99.0723-42.9688C106.055-42.9688 112.402-37.3535 112.402-27.4902C112.402-16.1621 105.566-8.98438 95.5078-8.98438ZM61.9629-9.22852C57.8125-9.22852 55.7129-11.7188 55.7129-16.5527L55.7129-45.9473L55.4199-45.9473L52.4414-43.0176C50.7812-41.2109 49.5605-40.4297 47.4609-40.4297C44.6777-40.4297 42.3828-42.8711 42.3828-45.7031C42.3828-48.1934 43.4082-49.9512 45.752-52.1484L52.1973-57.7148C55.5176-60.6934 57.666-61.4258 60.3516-61.4258C65.5762-61.4258 68.2617-58.3496 68.2617-53.125L68.2617-16.5527C68.2617-11.7188 66.1621-9.22852 61.9629-9.22852ZM94.8242-19.5312C98.1445-19.5312 100.391-22.2656 100.391-26.3184C100.391-30.2734 98.0957-33.0078 94.8242-33.0078C91.5039-33.0078 89.1602-30.2734 89.1602-26.3184C89.1602-22.2656 91.5527-19.5312 94.8242-19.5312Z"/>
  </g>
  <g id="Heavy-L" transform="matrix(1 0 0 1 2559.93 1556)">
   <path d="M38.8184 25.4883L114.697 25.4883C129.346 25.4883 137.451 17.4316 137.451 2.88086L137.451-73.2422C137.451-87.793 129.346-95.8496 114.697-95.8496L38.8184-95.8496C24.2188-95.8496 16.0645-87.793 16.0645-73.2422L16.0645 2.88086C16.0645 17.4316 24.2188 25.4883 38.8184 25.4883ZM94.0918-8.64258C87.2559-8.64258 81.543-11.5234 78.4668-18.1152C76.5137-22.3633 75.3906-27.9785 75.3906-34.668C75.3906-52.5391 83.5938-61.8652 95.166-61.8652C102.1-61.8652 106.934-58.5449 108.643-54.7363C109.277-53.5156 109.521-52.5391 109.521-51.1719C109.521-48.4375 107.324-46.7285 105.029-46.7285C102.93-46.7285 101.66-47.5586 100.635-48.877C99.3164-50.5859 97.5586-51.9531 94.8242-51.9531C89.7461-51.9531 86.0352-46.6309 86.0352-38.5254C86.0352-37.5488 86.084-36.9629 86.1328-36.377L86.5234-36.377C88.0859-39.8926 91.5039-42.9688 97.2168-42.9688C104.639-42.9688 111.23-37.207 111.23-27.1484C111.23-15.7715 104.297-8.64258 94.0918-8.64258ZM60.1074-9.0332C56.3965-9.0332 54.4922-11.2305 54.4922-15.4785L54.4922-47.7051L54.1992-47.7051L50.0488-44.1406C48.4863-42.5293 47.4121-41.9434 45.6543-41.9434C43.0664-41.9434 40.9668-44.1895 40.9668-46.7773C40.9668-49.0234 41.8945-50.5859 43.9941-52.4414L51.3672-58.3984C54.3945-60.9863 56.2988-61.6699 58.7891-61.6699C63.3301-61.6699 65.7715-58.9355 65.7715-54.3945L65.7715-15.4785C65.7715-11.2305 63.8184-9.0332 60.1074-9.0332ZM93.5059-18.2129C97.6074-18.2129 100.342-21.3867 100.342-26.1719C100.342-30.8105 97.5586-33.9844 93.5059-33.9844C89.4531-33.9844 86.5723-30.7617 86.5723-26.2207C86.5723-21.4355 89.4531-18.2129 93.5059-18.2129Z"/>
  </g>
  <g id="Bold-L" transform="matrix(1 0 0 1 2264.37 1556)">
   <path d="M37.5 24.3652L113.721 24.3652C127.637 24.3652 135.156 16.8945 135.156 3.07617L135.156-73.3887C135.156-87.207 127.637-94.7266 113.721-94.7266L37.5-94.7266C23.6328-94.7266 16.0645-87.2559 16.0645-73.3887L16.0645 3.07617C16.0645 16.8945 23.6328 24.3652 37.5 24.3652ZM92.5293-8.30078C85.6934-8.30078 80.0781-11.084 76.9531-17.5293C74.9512-21.6797 73.7793-27.3438 73.7793-34.3262C73.7793-52.6855 81.7871-62.207 93.6035-62.207C100.781-62.207 105.713-58.5938 107.373-54.6387C107.861-53.6133 108.105-52.7832 108.105-51.6113C108.105-49.1699 106.25-47.6074 104.199-47.6074C102.295-47.6074 101.123-48.4375 100.098-49.7559C98.6816-51.8555 96.4844-53.418 93.3105-53.418C87.2559-53.418 83.0566-47.168 83.0566-37.4023C83.0566-36.6699 83.1055-36.2305 83.1055-35.791L83.4961-35.791C85.1562-39.6484 89.0137-43.0176 95.166-43.0176C103.027-43.0176 109.912-37.0605 109.912-26.8066C109.912-15.332 102.783-8.30078 92.5293-8.30078ZM58.0566-8.78906C54.8828-8.78906 53.125-10.7422 53.125-14.2578L53.125-49.707L52.832-49.707L47.4121-45.4102C45.9473-44.043 45.0195-43.6035 43.5547-43.6035C41.3086-43.6035 39.4043-45.6055 39.4043-47.9492C39.4043-49.9023 40.2344-51.3184 42.041-52.832L50.4883-59.1309C53.125-61.3281 54.7363-61.9141 57.0312-61.9141C60.791-61.9141 62.9883-59.5703 62.9883-55.7617L62.9883-14.2578C62.9883-10.7422 61.2305-8.78906 58.0566-8.78906ZM92.041-16.748C97.0215-16.748 100.342-20.4102 100.342-25.9766C100.342-31.3965 96.9238-35.0586 92.041-35.0586C87.1094-35.0586 83.6914-31.3477 83.6914-26.0742C83.6914-20.5566 87.1582-16.748 92.041-16.748Z"/>
  </g>
  <g id="Semibold-L" transform="matrix(1 0 0 1 1968.44 1556)">
   <path d="M36.6211 23.584L113.037 23.584C126.514 23.584 133.594 16.5039 133.594 3.17383L133.594-73.5352C133.594-86.8164 126.514-93.9453 113.037-93.9453L36.6211-93.9453C23.1934-93.9453 16.0645-86.8652 16.0645-73.5352L16.0645 3.17383C16.0645 16.5527 23.1934 23.584 36.6211 23.584ZM91.4062-8.05664C84.5703-8.05664 79.0527-10.791 75.9277-17.1387C73.8281-21.2402 72.6562-26.9531 72.6562-34.1309C72.6562-52.832 80.5176-62.4512 92.5293-62.4512C99.8535-62.4512 104.883-58.6426 106.543-54.6387C106.934-53.7109 107.129-52.8809 107.129-51.8555C107.129-49.6582 105.518-48.1934 103.613-48.1934C101.807-48.1934 100.781-48.9746 99.7559-50.3418C98.2422-52.7344 95.752-54.4434 92.2363-54.4434C85.5469-54.4434 81.0059-47.5586 81.0059-36.6211C81.0059-36.0352 81.0547-35.6934 81.0547-35.3516L81.4453-35.3516C83.1543-39.502 87.3047-43.0664 93.75-43.0664C101.904-43.0664 108.984-36.9629 108.984-26.5137C108.984-15.0391 101.807-8.05664 91.4062-8.05664ZM56.5918-8.64258C53.8086-8.64258 52.1973-10.4004 52.1973-13.4277L52.1973-51.0742L51.8555-51.0742L45.5566-46.2891C44.1406-45.0684 43.4082-44.7754 42.1387-44.7754C40.0879-44.7754 38.2812-46.582 38.2812-48.7793C38.2812-50.5371 39.0625-51.8066 40.6738-53.0762L49.8535-59.668C52.2461-61.5234 53.6621-62.1094 55.8105-62.1094C59.082-62.1094 61.0352-60.0098 61.0352-56.7383L61.0352-13.4277C61.0352-10.4004 59.4238-8.64258 56.5918-8.64258ZM91.0156-15.7227C96.6309-15.7227 100.293-19.7266 100.293-25.8789C100.293-31.7871 96.5332-35.8398 91.0156-35.8398C85.5469-35.8398 81.6895-31.7383 81.6895-25.9277C81.6895-19.9219 85.5469-15.7227 91.0156-15.7227Z"/>
  </g>
  <g id="Medium-L" transform="matrix(1 0 0 1 1672.31 1556)">
   <path d="M35.9375 22.998L112.5 22.998C125.635 22.998 132.422 16.2109 132.422 3.27148L132.422-73.6328C132.422-86.5234 125.635-93.3105 112.5-93.3105L35.9375-93.3105C22.9004-93.3105 16.0645-86.5723 16.0645-73.6328L16.0645 3.27148C16.0645 16.2598 22.9004 22.998 35.9375 22.998ZM90.625-7.86133C83.7891-7.86133 78.3203-10.5469 75.1465-16.7969C72.998-20.8984 71.8262-26.6113 71.8262-33.9355C71.8262-52.8809 79.541-62.6465 91.748-62.6465C99.1699-62.6465 104.248-58.6914 105.859-54.5898C106.201-53.7598 106.348-52.9785 106.348-52.0996C106.348-50.0488 104.932-48.6816 103.174-48.6816C101.465-48.6816 100.488-49.4141 99.5117-50.8301C97.9004-53.418 95.2148-55.2246 91.4551-55.2246C84.2773-55.2246 79.4922-47.8516 79.4922-36.0352C79.4922-35.5957 79.4922-35.3516 79.4922-35.0586L79.8828-35.0586C81.5918-39.3555 86.0352-43.0664 92.6758-43.0664C101.074-43.0664 108.301-36.9141 108.301-26.3184C108.301-14.8438 101.025-7.86133 90.625-7.86133ZM55.5176-8.49609C53.0273-8.49609 51.4648-10.1074 51.4648-12.793L51.4648-52.0996L51.1719-52.0996L44.1406-46.9238C42.8223-45.8496 42.1387-45.6543 41.0645-45.6543C39.209-45.6543 37.5-47.3633 37.5-49.4141C37.5-51.0254 38.1836-52.1973 39.6484-53.2715L49.3652-60.0586C51.5625-61.7188 52.8809-62.2559 54.8828-62.2559C57.7637-62.2559 59.5703-60.3516 59.5703-57.4707L59.5703-12.793C59.5703-10.1074 58.0566-8.49609 55.5176-8.49609ZM90.2344-14.9414C96.3379-14.9414 100.293-19.1895 100.293-25.7812C100.293-32.0801 96.1914-36.377 90.2344-36.377C84.3262-36.377 80.1758-32.0312 80.1758-25.8789C80.1758-19.4336 84.375-14.9414 90.2344-14.9414Z"/>
  </g>
  <g id="Regular-L" transform="matrix(1 0 0 1 1376.38 1556)">
   <path d="M35.0586 22.2168L111.816 22.2168C124.463 22.2168 130.859 15.8691 130.859 3.41797L130.859-73.7305C130.859-86.1816 124.463-92.5293 111.816-92.5293L35.0586-92.5293C22.4609-92.5293 16.0645-86.2305 16.0645-73.7305L16.0645 3.41797C16.0645 15.918 22.4609 22.2168 35.0586 22.2168ZM89.5508-7.61719C82.7148-7.61719 77.2949-10.2539 74.1211-16.4062C71.9238-20.459 70.752-26.1719 70.752-33.7402C70.752-53.0273 78.3203-62.8906 90.6738-62.8906C98.2422-62.8906 103.418-58.7402 104.98-54.541C105.273-53.8086 105.42-53.125 105.42-52.3438C105.42-50.5371 104.248-49.2676 102.588-49.2676C101.025-49.2676 100.146-50 99.1699-51.416C97.4609-54.2969 94.4824-56.25 90.4297-56.25C82.5684-56.25 77.4414-48.2422 77.4414-35.2539L77.4414-34.6191L77.832-34.6191C79.5898-39.209 84.3262-43.1152 91.2598-43.1152C99.9512-43.1152 107.373-36.8164 107.373-26.0742C107.373-14.5508 100.049-7.61719 89.5508-7.61719ZM54.1016-8.34961C51.9531-8.34961 50.5371-9.76562 50.5371-11.9629L50.5371-53.4668L50.1953-53.4668L42.334-47.8027C41.0645-46.875 40.5273-46.8262 39.6484-46.8262C37.9883-46.8262 36.4258-48.3398 36.4258-50.1953C36.4258-51.6602 37.0605-52.6855 38.2812-53.5645L48.7793-60.5957C50.6836-61.9141 51.8066-62.4512 53.6621-62.4512C56.0547-62.4512 57.666-60.791 57.666-58.3984L57.666-11.9629C57.666-9.76562 56.2988-8.34961 54.1016-8.34961ZM89.209-13.916C95.8984-13.916 100.244-18.5059 100.244-25.6836C100.244-32.5195 95.8008-37.1582 89.2578-37.1582C82.7637-37.1582 78.2227-32.4219 78.2227-25.7812C78.2227-18.7988 82.7637-13.916 89.209-13.916Z"/>
  </g>
  <g id="Light-L" transform="matrix(1 0 0 1 1080.5 1556)">
   <path d="M34.0332 21.4355L111.23 21.4355C123.096 21.4355 129.199 15.2344 129.199 3.56445L129.199-73.8281C129.199-85.5469 123.096-91.6992 111.23-91.6992L34.0332-91.6992C22.168-91.6992 16.0645-85.6445 16.0645-73.8281L16.0645 3.56445C16.0645 15.3809 22.168 21.4355 34.0332 21.4355ZM88.5742-8.1543C81.4453-8.1543 76.3184-11.084 73.291-16.9922C71.1914-21.0449 70.166-26.6602 70.166-33.6914C70.166-52.2461 77.4902-62.3535 89.6484-62.3535C97.4121-62.3535 102.588-57.7148 104.004-53.8086C104.199-53.2227 104.346-52.6855 104.346-52.0996C104.346-50.6348 103.418-49.6094 102.002-49.6094C100.732-49.6094 100.049-50.2441 99.3164-51.3672C97.4609-54.7852 93.9453-56.9824 89.4531-56.9824C80.9082-56.9824 75.4883-48.4863 75.4883-34.4727L75.4883-33.8867L75.7812-33.8867C77.7832-38.8672 83.1055-42.7246 89.9414-42.7246C98.9746-42.7246 106.201-36.2305 106.201-26.0742C106.201-15.0879 99.0234-8.1543 88.5742-8.1543ZM53.2715-8.78906C51.6113-8.78906 50.4395-9.91211 50.4395-11.6699L50.4395-54.7363L50.1465-54.7363L40.8691-48.3887C39.9902-47.7051 39.5508-47.7051 38.916-47.7051C37.5488-47.7051 36.2793-48.9258 36.2793-50.3906C36.2793-51.5137 36.7676-52.3438 37.793-53.0273L49.1211-60.5469C50.5371-61.5234 51.4648-61.9141 52.8809-61.9141C54.7852-61.9141 56.1035-60.6445 56.1035-58.6914L56.1035-11.6699C56.1035-9.91211 55.0293-8.78906 53.2715-8.78906ZM88.4277-13.3301C95.7031-13.3301 100.537-18.1641 100.537-25.7324C100.537-32.959 95.6055-37.8418 88.4766-37.8418C81.3477-37.8418 76.3184-32.8125 76.3184-25.7812C76.3184-18.5059 81.3477-13.3301 88.4277-13.3301Z"/>
  </g>
  <g id="Thin-L" transform="matrix(1 0 0 1 784.889 1556)">
   <path d="M32.666 20.3613L110.352 20.3613C121.24 20.3613 127.002 14.4531 127.002 3.75977L127.002-73.9746C127.002-84.7168 121.24-90.5762 110.352-90.5762L32.666-90.5762C21.7773-90.5762 16.0645-84.8633 16.0645-73.9746L16.0645 3.75977C16.0645 14.6484 21.7773 20.3613 32.666 20.3613ZM87.3535-8.93555C79.7363-8.93555 75-12.1582 72.2656-17.7734C70.2148-21.875 69.3848-27.2949 69.3848-33.5938C69.3848-51.2695 76.3672-61.6211 88.2812-61.6211C96.2891-61.6211 101.514-56.3965 102.734-52.832C102.832-52.4902 102.93-52.1484 102.93-51.7578C102.93-50.8301 102.344-50.0488 101.221-50.0488C100.391-50.0488 99.9023-50.5371 99.5117-51.2695C97.4609-55.3711 93.2129-57.959 88.2324-57.959C78.6621-57.959 72.9004-48.8281 72.9004-33.4473L72.9004-32.8613L73.0469-32.8613C75.3418-38.4277 81.4453-42.2363 88.1836-42.2363C97.7051-42.2363 104.639-35.4492 104.639-26.0254C104.639-15.7715 97.6562-8.93555 87.3535-8.93555ZM52.1484-9.375C51.123-9.375 50.293-10.1074 50.293-11.2305L50.293-56.4453L50.0488-56.4453L38.9648-49.1211C38.5254-48.877 38.2812-48.877 37.8906-48.877C36.9141-48.877 36.1328-49.707 36.1328-50.6348C36.1328-51.3184 36.377-51.8555 37.1094-52.3438L49.5605-60.4492C50.3906-60.9863 50.9766-61.1816 51.9043-61.1816C53.125-61.1816 54.0527-60.4004 54.0527-59.1309L54.0527-11.2305C54.0527-10.1074 53.3691-9.375 52.1484-9.375ZM87.3535-12.5488C95.459-12.5488 100.928-17.7246 100.928-25.7812C100.928-33.5938 95.3613-38.7207 87.4512-38.7207C79.541-38.7207 73.8281-33.3496 73.8281-25.8301C73.8281-18.0664 79.4922-12.5488 87.3535-12.5488Z"/>
  </g>
  <g id="Ultralight-L" transform="matrix(1 0 0 1 488.739 1556)">
   <path d="M31.9824 19.7754L109.961 19.7754C120.312 19.7754 125.879 14.0625 125.879 3.85742L125.879-74.0723C125.879-84.2773 120.312-89.9902 109.961-89.9902L31.9824-89.9902C21.582-89.9902 16.0645-84.4727 16.0645-74.0723L16.0645 3.85742C16.0645 14.2578 21.582 19.7754 31.9824 19.7754ZM86.7188-9.32617C78.8574-9.32617 74.3164-12.6953 71.7285-18.1641C69.7266-22.2656 68.9453-27.6367 68.9453-33.5449C68.9453-50.7812 75.7812-61.2305 87.5488-61.2305C95.752-61.2305 100.977-55.6641 102.051-52.2949C102.1-52.1484 102.197-51.8555 102.197-51.6113C102.197-50.9277 101.807-50.2441 100.83-50.2441C100.195-50.2441 99.8535-50.7324 99.6094-51.2695C97.4609-55.6641 92.8711-58.4473 87.5977-58.4473C77.5391-58.4473 71.582-49.0234 71.582-32.9102L71.582-32.373L71.6309-32.373C74.1211-38.2324 80.5664-41.9922 87.3047-41.9922C97.0703-41.9922 103.857-35.0586 103.857-26.0254C103.857-16.1621 96.9727-9.32617 86.7188-9.32617ZM51.6113-9.66797C50.8789-9.66797 50.2441-10.2051 50.2441-11.0352L50.2441-57.3242L50-57.3242L37.9395-49.5117C37.7441-49.4629 37.6465-49.4629 37.4023-49.4629C36.6211-49.4629 36.084-50.0977 36.084-50.7812C36.084-51.2207 36.1816-51.6602 36.7676-52.002L49.8047-60.4004C50.293-60.6934 50.6836-60.8398 51.3672-60.8398C52.2461-60.8398 52.9785-60.3027 52.9785-59.3262L52.9785-11.0352C52.9785-10.2051 52.4902-9.66797 51.6113-9.66797ZM86.8164-12.1582C95.3125-12.1582 101.074-17.4805 101.074-25.7812C101.074-33.8867 95.2148-39.209 86.9141-39.209C78.6133-39.209 72.5586-33.6426 72.5586-25.8789C72.5586-17.8711 78.5156-12.1582 86.8164-12.1582Z"/>
  </g>
  <g id="Black-M" transform="matrix(1 0 0 1 2872.19 1126)">
   <path d="M31.9824 13.5742L90.4297 13.5742C102.686 13.5742 109.961 6.29883 109.961-5.95703L109.961-64.4043C109.961-76.6602 102.686-83.9355 90.4297-83.9355L31.9824-83.9355C19.7266-83.9355 12.4512-76.6602 12.4512-64.4043L12.4512-5.95703C12.4512 6.29883 19.7266 13.5742 31.9824 13.5742ZM50.0977-15.625C46.4355-15.625 44.7754-17.6758 44.7754-22.0215L44.7754-41.8457L44.5801-41.8457L43.0664-40.0391C41.8457-38.5254 40.7715-37.6953 38.8672-37.6953C36.4746-37.6953 34.668-39.7461 34.668-41.9922C34.668-44.0918 35.498-45.6055 37.5488-47.6074L41.748-51.709C44.4824-54.3457 46.3867-54.8828 48.4863-54.8828C53.1738-54.8828 55.4199-52.2461 55.4199-47.6074L55.4199-22.0215C55.4199-17.6758 53.7598-15.625 50.0977-15.625ZM75.3906-15.625C69.9219-15.625 65.4785-18.1152 63.2324-23.4375C61.8652-26.8066 61.1328-31.0547 61.1328-35.3516C61.1328-47.9492 67.8223-54.8828 76.123-54.8828C81.25-54.8828 84.7168-52.5879 86.084-50.0488C86.7188-48.9258 86.9629-48.0469 86.9629-46.6797C86.9629-44.1895 84.7656-42.6758 82.7148-42.6758C80.9082-42.6758 79.7852-43.3594 79.0039-44.0918C78.1738-44.9219 77.3438-45.752 75.8789-45.752C73.3398-45.752 71.2402-43.1152 71.2402-39.502C71.2402-38.3301 71.3379-37.5488 71.3867-36.8652L71.6309-36.8652C72.9004-39.1113 74.9023-40.9668 78.5645-40.9668C83.6426-40.9668 88.0859-36.7676 88.0859-29.6875C88.0859-21.2402 83.0566-15.625 75.3906-15.625ZM74.8535-24.5605C76.6602-24.5605 77.9785-26.1719 77.9785-28.5645C77.9785-30.9082 76.6602-32.5684 74.8535-32.5684C72.9492-32.5684 71.582-30.9082 71.582-28.5645C71.582-26.123 72.9492-24.5605 74.8535-24.5605Z"/>
  </g>
  <g id="Heavy-M" transform="matrix(1 0 0 1 2576.39 1126)">
   <path d="M31.0059 12.6465L89.6484 12.6465C101.416 12.6465 108.154 5.9082 108.154-5.81055L108.154-64.5508C108.154-76.2695 101.416-83.0566 89.6484-83.0566L31.0059-83.0566C19.2383-83.0566 12.4512-76.3184 12.4512-64.5508L12.4512-5.81055C12.4512 5.9082 19.2383 12.6465 31.0059 12.6465ZM74.1211-15.1367C68.7012-15.1367 64.3066-17.4805 61.9629-22.7051C60.5469-26.0254 59.7168-30.3223 59.7168-35.0586C59.7168-48.291 66.2598-55.3711 74.9023-55.3711C80.127-55.3711 83.7402-52.9297 85.1074-50.1953C85.6445-49.1699 85.8887-48.3887 85.8887-47.168C85.8887-44.8242 83.9355-43.457 82.0312-43.457C80.3223-43.457 79.248-44.0918 78.4668-44.9707C77.5391-46.0938 76.4648-47.0215 74.6582-47.0215C71.3379-47.0215 68.8477-43.6035 68.8477-38.623C68.8477-37.6465 68.8965-37.0117 68.9453-36.4746L69.2383-36.4746C70.5078-38.9648 72.8516-41.1133 76.8555-41.1133C82.3242-41.1133 87.1094-36.7676 87.1094-29.3457C87.1094-20.7031 81.8848-15.1367 74.1211-15.1367ZM48.291-15.2832C45.0195-15.2832 43.457-17.1387 43.457-20.9473L43.457-43.457L43.2617-43.457L40.8691-41.1133C39.6484-39.7461 38.6719-39.1113 37.0605-39.1113C34.8633-39.1113 33.1543-41.0156 33.1543-43.1152C33.1543-45.0195 33.9355-46.3867 35.791-48.0957L40.7715-52.4414C43.2617-54.7852 44.9707-55.3223 46.9727-55.3223C51.0254-55.3223 53.125-52.9297 53.125-48.877L53.125-20.9473C53.125-17.1387 51.5137-15.2832 48.291-15.2832ZM73.584-23.2422C76.123-23.2422 77.8809-25.293 77.8809-28.3691C77.8809-31.3965 76.123-33.4473 73.584-33.4473C71.0449-33.4473 69.2383-31.3477 69.2383-28.3691C69.2383-25.293 71.0938-23.2422 73.584-23.2422Z"/>
  </g>
  <g id="Bold-M" transform="matrix(1 0 0 1 2280.68 1126)">
   <path d="M29.8828 11.6699L88.7207 11.6699C99.9512 11.6699 106.152 5.46875 106.152-5.66406L106.152-64.6973C106.152-75.8789 99.9512-82.0312 88.7207-82.0312L29.8828-82.0312C18.6523-82.0312 12.4512-75.8789 12.4512-64.6973L12.4512-5.66406C12.4512 5.51758 18.6523 11.6699 29.8828 11.6699ZM72.6562-14.5508C67.3828-14.5508 62.9883-16.7969 60.5469-21.875C59.0332-25.0977 58.1543-29.4922 58.1543-34.7168C58.1543-48.6816 64.502-55.957 73.4863-55.957C78.9062-55.957 82.666-53.3203 83.9844-50.3418C84.4727-49.4141 84.6191-48.6816 84.6191-47.6562C84.6191-45.6055 83.0078-44.2871 81.25-44.2871C79.6875-44.2871 78.7109-44.9219 77.8809-45.9473C76.8555-47.3633 75.4395-48.4375 73.2422-48.4375C69.1406-48.4375 66.2109-44.1406 66.2109-37.5977C66.2109-36.8652 66.2109-36.4258 66.2598-36.0352L66.5527-36.0352C67.8223-38.8184 70.5078-41.2598 75-41.2598C80.8105-41.2598 85.9863-36.7676 85.9863-28.9062C85.9863-20.0684 80.5664-14.5508 72.6562-14.5508ZM46.2402-14.8926C43.457-14.8926 41.9922-16.5527 41.9922-19.7266L41.9922-45.2148L41.748-45.2148L38.3789-42.334C37.1582-41.1133 36.377-40.6738 35.0098-40.6738C33.1055-40.6738 31.4941-42.3828 31.4941-44.3848C31.4941-46.0449 32.1777-47.2656 33.7891-48.6816L39.6484-53.3203C41.9434-55.2246 43.3594-55.7617 45.2637-55.7617C48.6328-55.7617 50.4883-53.7109 50.4883-50.293L50.4883-19.7266C50.4883-16.5527 49.0234-14.8926 46.2402-14.8926ZM72.2168-21.7773C75.5371-21.7773 77.7832-24.3164 77.7832-28.1738C77.7832-31.8848 75.4883-34.4238 72.2168-34.4238C68.9453-34.4238 66.6504-31.8848 66.6504-28.2227C66.6504-24.4141 68.9453-21.7773 72.2168-21.7773Z"/>
  </g>
  <g id="Semibold-M" transform="matrix(1 0 0 1 1984.65 1126)">
   <path d="M29.1016 10.9863L88.0859 10.9863C98.9746 10.9863 104.785 5.17578 104.785-5.56641L104.785-64.8438C104.785-75.5859 98.9746-81.3477 88.0859-81.3477L29.1016-81.3477C18.2617-81.3477 12.4512-75.5859 12.4512-64.8438L12.4512-5.56641C12.4512 5.22461 18.2617 10.9863 29.1016 10.9863ZM71.6797-14.1602C66.4551-14.1602 62.0605-16.2598 59.5703-21.2891C58.0078-24.5117 57.0801-28.9551 57.0801-34.4727C57.0801-48.9746 63.2812-56.2988 72.5586-56.2988C78.0762-56.2988 81.9336-53.5645 83.252-50.4395C83.6426-49.6094 83.7891-48.9258 83.7891-48.0469C83.7891-46.0938 82.373-44.873 80.7617-44.873C79.248-44.873 78.3203-45.5078 77.4902-46.6309C76.3672-48.1934 74.7559-49.4141 72.3145-49.4141C67.627-49.4141 64.3555-44.5312 64.3555-36.9141C64.3555-36.377 64.3555-36.0352 64.4043-35.7422L64.6973-35.7422C65.9668-38.7207 68.8965-41.3574 73.7305-41.3574C79.7852-41.3574 85.2051-36.7676 85.2051-28.6133C85.2051-19.6289 79.6875-14.1602 71.6797-14.1602ZM44.8242-14.5996C42.3828-14.5996 41.0156-16.1621 41.0156-18.8477L41.0156-46.4844L40.7227-46.4844L36.6699-43.1641C35.4492-42.0898 34.7656-41.7969 33.6426-41.7969C31.8848-41.7969 30.3223-43.3594 30.3223-45.2148C30.3223-46.7773 31.0059-47.9004 32.373-49.0234L38.916-53.9062C40.9668-55.5664 42.2852-56.0547 44.0918-56.0547C47.0215-56.0547 48.7305-54.248 48.7305-51.2695L48.7305-18.8477C48.7305-16.1621 47.3145-14.5996 44.8242-14.5996ZM71.2402-20.8008C75.1465-20.8008 77.6855-23.6328 77.6855-28.0273C77.6855-32.2266 75.0977-35.1074 71.2891-35.1074C67.4805-35.1074 64.8438-32.2266 64.8438-28.0762C64.8438-23.7793 67.4805-20.8008 71.2402-20.8008Z"/>
  </g>
  <g id="Medium-M" transform="matrix(1 0 0 1 1688.47 1126)">
   <path d="M28.5156 10.4492L87.6465 10.4492C98.2422 10.4492 103.711 4.98047 103.711-5.46875L103.711-64.8926C103.711-75.3418 98.2422-80.8105 87.6465-80.8105L28.5156-80.8105C17.9688-80.8105 12.4512-75.3906 12.4512-64.8926L12.4512-5.46875C12.4512 4.98047 17.9688 10.4492 28.5156 10.4492ZM70.8984-13.8672C65.7227-13.8672 61.377-15.918 58.8379-20.8496C57.2266-24.0234 56.25-28.5156 56.25-34.3262C56.25-49.1699 62.3535-56.5918 71.8262-56.5918C77.4414-56.5918 81.3477-53.7598 82.666-50.5371C83.0078-49.7559 83.1543-49.1211 83.1543-48.291C83.1543-46.4844 81.8848-45.3125 80.3711-45.3125C78.9062-45.3125 78.0273-45.9473 77.1484-47.1191C76.0254-48.877 74.2188-50.1465 71.582-50.1465C66.4551-50.1465 62.9395-44.8242 62.9395-36.377C62.9395-35.9863 62.9883-35.7422 62.9883-35.498L63.3301-35.498C64.5508-38.623 67.6758-41.4551 72.7539-41.4551C79.0039-41.4551 84.668-36.7676 84.668-28.418C84.668-19.2871 79.0039-13.8672 70.8984-13.8672ZM43.7988-14.4043C41.5527-14.4043 40.2344-15.8203 40.2344-18.2129L40.2344-47.4121L39.9902-47.4121L35.3516-43.7988C34.1797-42.8223 33.5449-42.627 32.5684-42.627C30.9082-42.627 29.4434-44.0918 29.4434-45.8984C29.4434-47.3145 30.0781-48.3398 31.3477-49.3164L38.3301-54.3457C40.2832-55.8105 41.4551-56.2988 43.1641-56.2988C45.752-56.2988 47.3633-54.6387 47.3633-52.0508L47.3633-18.2129C47.3633-15.8203 46.0449-14.4043 43.7988-14.4043ZM70.5566-20.0684C74.8535-20.0684 77.6367-23.1445 77.6367-27.9297C77.6367-32.5195 74.7559-35.6445 70.5566-35.6445C66.3574-35.6445 63.4766-32.4707 63.4766-27.9785C63.4766-23.291 66.4062-20.0684 70.5566-20.0684Z"/>
  </g>
  <g id="Regular-M" transform="matrix(1 0 0 1 1392.45 1126)">
   <path d="M27.7832 9.76562L87.0117 9.76562C97.2656 9.76562 102.344 4.6875 102.344-5.37109L102.344-64.9902C102.344-75.0488 97.2656-80.127 87.0117-80.127L27.7832-80.127C17.5781-80.127 12.4512-75.0977 12.4512-64.9902L12.4512-5.37109C12.4512 4.73633 17.5781 9.76562 27.7832 9.76562ZM69.9219-13.4766C64.7949-13.4766 60.4492-15.4297 57.8613-20.3125C56.1523-23.4375 55.1758-27.9297 55.1758-34.082C55.1758-49.4141 61.1328-56.9824 70.8496-56.9824C76.6113-56.9824 80.6152-54.0039 81.9336-50.6348C82.1777-49.9512 82.2754-49.3652 82.2754-48.6816C82.2754-47.0215 81.25-45.8984 79.834-45.8984C78.4668-45.8984 77.6367-46.5332 76.7578-47.8027C75.5371-49.7559 73.5352-51.123 70.6055-51.123C64.9414-51.123 61.1328-45.166 61.1328-35.6934L61.1328-35.2051L61.4746-35.2051C62.7441-38.5254 66.0645-41.5527 71.4844-41.5527C78.0273-41.5527 83.8867-36.7676 83.8867-28.125C83.8867-18.8965 78.0762-13.4766 69.9219-13.4766ZM42.3828-14.1602C40.4785-14.1602 39.2578-15.4297 39.2578-17.3828L39.2578-48.6328L38.9648-48.6328L33.6426-44.6777C32.4707-43.75 31.9336-43.7012 31.1523-43.7012C29.6875-43.7012 28.2715-45.0195 28.2715-46.7285C28.2715-48.0469 28.9062-48.9746 29.9805-49.707L37.5977-54.9316C39.3555-56.1523 40.3809-56.6406 41.9922-56.6406C44.1406-56.6406 45.6055-55.127 45.6055-53.0273L45.6055-17.3828C45.6055-15.4297 44.3359-14.1602 42.3828-14.1602ZM69.5801-19.043C74.4629-19.043 77.5391-22.4609 77.5391-27.832C77.5391-32.8613 74.3652-36.3281 69.6289-36.3281C64.9414-36.3281 61.6699-32.8125 61.6699-27.8809C61.6699-22.7051 64.9414-19.043 69.5801-19.043Z"/>
  </g>
  <g id="Light-M" transform="matrix(1 0 0 1 1096.47 1126)">
   <path d="M26.8555 9.0332L86.4746 9.0332C95.9961 9.0332 100.879 4.15039 100.879-5.22461L100.879-65.0879C100.879-74.5117 95.9961-79.3945 86.4746-79.3945L26.8555-79.3945C17.334-79.3945 12.4512-74.5605 12.4512-65.0879L12.4512-5.22461C12.4512 4.19922 17.334 9.0332 26.8555 9.0332ZM69.0918-14.0137C63.6719-14.0137 59.5703-16.1621 57.1777-20.8496C55.5176-23.9746 54.6387-28.3691 54.6387-34.0332C54.6387-48.7793 60.4004-56.4941 69.9219-56.4941C75.8789-56.4941 79.8828-53.125 81.0547-49.9512C81.25-49.4629 81.3477-48.9746 81.3477-48.4375C81.3477-47.1191 80.5176-46.1914 79.2969-46.1914C78.2227-46.1914 77.5879-46.7285 76.9043-47.7539C75.5371-50.1465 73.0469-51.7578 69.7754-51.7578C63.4277-51.7578 59.375-45.4102 59.375-35.0098L59.375-34.5215L59.6191-34.5215C61.084-38.2324 64.9414-41.2109 70.2637-41.2109C77.1484-41.2109 82.8125-36.2793 82.8125-28.125C82.8125-19.3848 77.1973-14.0137 69.0918-14.0137ZM41.6504-14.5508C40.1367-14.5508 39.1602-15.5762 39.1602-17.0898L39.1602-49.7559L38.916-49.7559L32.3242-45.166C31.4941-44.5312 31.1035-44.4824 30.4688-44.4824C29.2969-44.4824 28.1738-45.5566 28.1738-46.9238C28.1738-47.9004 28.6133-48.6328 29.4922-49.2676L37.8906-54.8828C39.2578-55.8105 40.0391-56.1523 41.3574-56.1523C43.0176-56.1523 44.1895-54.9805 44.1895-53.2715L44.1895-17.0898C44.1895-15.5762 43.2129-14.5508 41.6504-14.5508ZM68.8965-18.5059C74.2676-18.5059 77.7832-22.168 77.7832-27.832C77.7832-33.252 74.1699-36.9141 68.8965-36.9141C63.6719-36.9141 60.0098-33.2031 60.0098-27.8809C60.0098-22.4121 63.6719-18.5059 68.8965-18.5059Z"/>
  </g>
  <g id="Thin-M" transform="matrix(1 0 0 1 800.758 1126)">
   <path d="M25.6348 8.05664L85.7422 8.05664C94.3848 8.05664 98.877 3.4668 98.877-5.0293L98.877-65.2344C98.877-73.7305 94.3848-78.3691 85.7422-78.3691L25.6348-78.3691C16.9922-78.3691 12.4512-73.877 12.4512-65.2344L12.4512-5.0293C12.4512 3.56445 16.9922 8.05664 25.6348 8.05664ZM67.9688-14.6973C62.1582-14.6973 58.3984-17.0898 56.2012-21.5332C54.6387-24.707 53.9062-28.9551 53.9062-33.9844C53.9062-47.9004 59.4238-55.8105 68.7012-55.8105C74.9023-55.8105 78.9062-51.9043 79.8828-49.0723C79.9805-48.7793 80.0781-48.4375 80.0781-48.0957C80.0781-47.2656 79.541-46.582 78.6133-46.582C77.8809-46.582 77.4414-47.0215 77.0508-47.7051C75.5371-50.7324 72.4121-52.6367 68.6523-52.6367C61.4746-52.6367 57.0801-45.7031 57.0801-34.082L57.0801-33.6426L57.1777-33.6426C58.9355-37.793 63.4766-40.7715 68.75-40.7715C76.0254-40.7715 81.4453-35.5957 81.4453-28.125C81.4453-20.0195 75.9766-14.6973 67.9688-14.6973ZM40.6738-15.0879C39.6973-15.0879 39.0137-15.7227 39.0137-16.748L39.0137-51.3184L38.8184-51.3184L30.6152-45.8496C30.1758-45.5566 29.9316-45.5566 29.5898-45.5566C28.7598-45.5566 28.0273-46.2891 28.0273-47.1191C28.0273-47.7539 28.2715-48.2422 28.9062-48.6328L38.3301-54.7852C39.1113-55.3223 39.5996-55.5176 40.4297-55.5176C41.5039-55.5176 42.334-54.7852 42.334-53.6621L42.334-16.748C42.334-15.7227 41.6992-15.0879 40.6738-15.0879ZM67.9199-17.8223C74.0234-17.8223 78.125-21.7285 78.125-27.8809C78.125-33.8379 73.9746-37.7441 67.9688-37.7441C62.0605-37.7441 57.7637-33.6426 57.7637-27.9297C57.7637-22.0215 62.0117-17.8223 67.9199-17.8223Z"/>
  </g>
  <g id="Ultralight-M" transform="matrix(1 0 0 1 504.535 1126)">
   <path d="M25 7.56836L85.3516 7.56836C93.5059 7.56836 97.9004 3.125 97.9004-4.98047L97.9004-65.2832C97.9004-73.3887 93.5059-77.832 85.3516-77.832L25-77.832C16.7969-77.832 12.4512-73.4863 12.4512-65.2832L12.4512-4.98047C12.4512 3.22266 16.7969 7.56836 25 7.56836ZM67.3828-15.0391C61.377-15.0391 57.7637-17.5781 55.7617-21.875C54.1992-25.0488 53.5645-29.248 53.5645-33.9355C53.5645-47.4609 58.9355-55.4688 68.0664-55.4688C74.3652-55.4688 78.418-51.2695 79.2969-48.6328C79.3457-48.4375 79.3945-48.1934 79.3945-47.9492C79.3945-47.3633 79.0527-46.8262 78.2715-46.8262C77.6855-46.8262 77.3926-47.168 77.1484-47.6562C75.5371-50.9766 72.0703-53.0762 68.0664-53.0762C60.4492-53.0762 55.8594-45.8496 55.8594-33.5938L55.8594-33.1543L55.9082-33.1543C57.8125-37.5977 62.6953-40.5273 67.9199-40.5273C75.4395-40.5273 80.7129-35.2539 80.7129-28.0762C80.7129-20.3125 75.3418-15.0391 67.3828-15.0391ZM40.1367-15.332C39.502-15.332 38.9648-15.8203 38.9648-16.5527L38.9648-52.0996L38.7695-52.0996L29.7363-46.1914C29.4922-46.0938 29.3457-46.0938 29.1504-46.0938C28.4668-46.0938 27.9785-46.6309 27.9785-47.2168C27.9785-47.6562 28.0762-47.998 28.5645-48.3398L38.5254-54.7852C39.0137-55.0781 39.3555-55.1758 39.9902-55.1758C40.7715-55.1758 41.3574-54.6875 41.3574-53.8574L41.3574-16.5527C41.3574-15.8203 40.9668-15.332 40.1367-15.332ZM67.4805-17.4805C73.9258-17.4805 78.2715-21.5332 78.2715-27.9297C78.2715-34.082 73.8281-38.1836 67.5293-38.1836C61.1816-38.1836 56.6406-33.8867 56.6406-27.9785C56.6406-21.8262 61.1328-17.4805 67.4805-17.4805Z"/>
  </g>
  <g id="Black-S" transform="matrix(1 0 0 1 2885.5 696)">
   <path d="M25 2.92969L70.8008 2.92969C80.3711 2.92969 86.0352-2.73438 86.0352-12.3047L86.0352-58.1055C86.0352-67.6758 80.3711-73.3398 70.8008-73.3398L25-73.3398C15.4297-73.3398 9.76562-67.6758 9.76562-58.1055L9.76562-12.3047C9.76562-2.73438 15.4297 2.92969 25 2.92969ZM39.1113-19.8242C36.2793-19.8242 34.9609-21.4355 34.9609-24.8047L34.9609-40.5273L34.8145-40.5273L33.5938-39.0625C32.6172-37.8906 31.7871-37.2559 30.3223-37.2559C28.4668-37.2559 27.0508-38.8672 27.0508-40.625C27.0508-42.2363 27.6855-43.4082 29.2969-44.9707L32.6172-48.1934C34.7656-50.2441 36.2305-50.6836 37.8906-50.6836C41.5039-50.6836 43.2617-48.6328 43.2617-45.0195L43.2617-24.8047C43.2617-21.4355 41.9434-19.8242 39.1113-19.8242ZM58.9844-19.8242C54.6875-19.8242 51.2207-21.7773 49.4629-25.9277C48.3887-28.5645 47.8027-31.8848 47.8027-35.3027C47.8027-45.2148 53.0273-50.6836 59.5703-50.6836C63.5742-50.6836 66.3086-48.877 67.3828-46.875C67.8711-45.9961 68.0664-45.3125 68.0664-44.2383C68.0664-42.2852 66.3574-41.1133 64.7461-41.1133C63.3301-41.1133 62.4512-41.6504 61.8652-42.2363C61.1816-42.9199 60.5469-43.5547 59.375-43.5547C57.3242-43.5547 55.6641-41.4551 55.6641-38.5254C55.6641-37.5977 55.7129-37.0117 55.7617-36.4746L55.957-36.4746C56.9336-38.2812 58.5449-39.7461 61.4258-39.7461C65.4297-39.7461 68.9453-36.4258 68.9453-30.8594C68.9453-24.2188 64.9902-19.8242 58.9844-19.8242ZM58.5449-26.7578C60.0098-26.7578 61.084-28.0762 61.084-29.9805C61.084-31.8848 60.0098-33.2031 58.5449-33.2031C57.0312-33.2031 55.9082-31.8848 55.9082-29.9805C55.9082-28.0273 57.0312-26.7578 58.5449-26.7578Z"/>
  </g>
  <g id="Heavy-S" transform="matrix(1 0 0 1 2589.4 696)">
   <path d="M24.3652 2.34375L70.2637 2.34375C79.541 2.34375 84.8145-2.97852 84.8145-12.207L84.8145-58.2031C84.8145-67.4316 79.541-72.7539 70.2637-72.7539L24.3652-72.7539C15.0879-72.7539 9.76562-67.4316 9.76562-58.2031L9.76562-12.207C9.76562-2.97852 15.0879 2.34375 24.3652 2.34375ZM58.1055-19.3848C53.9062-19.3848 50.4395-21.1914 48.584-25.293C47.4121-27.8809 46.7773-31.2988 46.7773-35.0586C46.7773-45.5566 51.9043-51.123 58.7402-51.123C62.8418-51.123 65.625-49.2188 66.748-47.0703C67.1387-46.2402 67.334-45.6055 67.334-44.6289C67.334-42.7734 65.8203-41.6504 64.3066-41.6504C62.9395-41.6504 62.0605-42.1875 61.4258-42.9199C60.6934-43.75 59.9121-44.4336 58.4961-44.4336C55.957-44.4336 54.0527-41.7969 54.0527-37.8906C54.0527-37.1582 54.0527-36.6699 54.1016-36.2305L54.3457-36.2305C55.2734-38.1836 57.0801-39.8926 60.2539-39.8926C64.502-39.8926 68.3105-36.4746 68.3105-30.5664C68.3105-23.7305 64.209-19.3848 58.1055-19.3848ZM37.793-19.5312C35.2539-19.5312 33.9844-20.9961 33.9844-24.0234L33.9844-41.6016L33.7891-41.6016L32.0312-39.8438C31.0547-38.7695 30.2734-38.2324 29.0039-38.2324C27.2949-38.2324 25.9277-39.7461 25.9277-41.4551C25.9277-42.9688 26.5137-44.043 27.9785-45.4102L31.8359-48.7793C33.8379-50.6348 35.2051-51.0254 36.8164-51.0254C39.9902-51.0254 41.6504-49.1699 41.6504-45.9473L41.6504-24.0234C41.6504-20.9961 40.3809-19.5312 37.793-19.5312ZM57.666-25.8301C59.6191-25.8301 60.9863-27.4414 60.9863-29.834C60.9863-32.1777 59.6191-33.7891 57.666-33.7891C55.7129-33.7891 54.2969-32.1777 54.2969-29.834C54.2969-27.4414 55.7129-25.8301 57.666-25.8301Z"/>
  </g>
  <g id="Bold-S" transform="matrix(1 0 0 1 2293.35 696)">
   <path d="M23.6328 1.66016L69.6289 1.66016C78.6133 1.66016 83.4961-3.22266 83.4961-12.1094L83.4961-58.3008C83.4961-67.1875 78.6133-72.0703 69.6289-72.0703L23.6328-72.0703C14.6973-72.0703 9.76562-67.1875 9.76562-58.3008L9.76562-12.1094C9.76562-3.22266 14.6973 1.66016 23.6328 1.66016ZM57.0801-18.8965C53.0273-18.8965 49.5117-20.5566 47.5586-24.6094C46.3379-27.1484 45.6543-30.6152 45.6543-34.8145C45.6543-45.9473 50.6348-51.6113 57.7637-51.6113C61.9629-51.6113 64.8926-49.6582 66.0156-47.2168C66.3574-46.4844 66.5039-45.8984 66.5039-45.0684C66.5039-43.3594 65.1855-42.2852 63.7695-42.2852C62.4512-42.2852 61.6699-42.8223 60.9863-43.6523C60.2051-44.6777 59.1797-45.459 57.5684-45.459C54.4922-45.459 52.1973-42.1875 52.1973-37.207C52.1973-36.6699 52.2461-36.3281 52.2461-35.9863L52.5391-35.9863C53.418-38.1348 55.4199-40.0391 58.9844-40.0391C63.4766-40.0391 67.5781-36.5723 67.5781-30.2734C67.5781-23.1934 63.3301-18.8965 57.0801-18.8965ZM36.3281-19.1895C34.082-19.1895 32.8613-20.5566 32.8613-23.0957L32.8613-42.8223L32.666-42.8223L30.2734-40.7227C29.248-39.6973 28.6133-39.3555 27.5391-39.3555C25.9766-39.3555 24.6094-40.7715 24.6094-42.3828C24.6094-43.7988 25.2441-44.7754 26.5137-45.8984L30.957-49.4141C32.8125-51.0254 33.9844-51.4648 35.5469-51.4648C38.3301-51.4648 39.8438-49.7559 39.8438-47.0215L39.8438-23.0957C39.8438-20.5566 38.623-19.1895 36.3281-19.1895ZM56.6895-24.8047C59.2285-24.8047 60.8398-26.7578 60.8398-29.6875C60.8398-32.5195 59.1797-34.4727 56.6895-34.4727C54.248-34.4727 52.5391-32.5195 52.5391-29.7363C52.5391-26.8066 54.248-24.8047 56.6895-24.8047Z"/>
  </g>
  <g id="Semibold-S" transform="matrix(1 0 0 1 1997.1 696)">
   <path d="M23.0957 1.17188L69.1895 1.17188C77.9297 1.17188 82.5684-3.36914 82.5684-12.0117L82.5684-58.3984C82.5684-67.041 77.9297-71.582 69.1895-71.582L23.0957-71.582C14.4043-71.582 9.76562-67.041 9.76562-58.3984L9.76562-12.0117C9.76562-3.36914 14.4043 1.17188 23.0957 1.17188ZM56.3965-18.5547C52.3926-18.5547 48.877-20.1172 46.875-24.1211C45.6055-26.6113 44.873-30.127 44.873-34.668C44.873-46.1914 49.8047-51.9531 57.1289-51.9531C61.377-51.9531 64.4043-49.9023 65.4785-47.3633C65.8203-46.6797 65.918-46.0938 65.918-45.3613C65.918-43.75 64.7461-42.7246 63.4277-42.7246C62.1582-42.7246 61.377-43.2617 60.6445-44.1895C59.8145-45.3125 58.6914-46.1426 56.8848-46.1426C53.418-46.1426 50.9277-42.4316 50.9277-36.7676C50.9277-36.3281 50.9766-36.084 50.9766-35.8398L51.2695-35.8398C52.1484-38.0371 54.2969-40.1367 58.1055-40.1367C62.793-40.1367 67.0898-36.6211 67.0898-30.0781C67.0898-22.8516 62.6953-18.5547 56.3965-18.5547ZM35.3516-18.9453C33.3008-18.9453 32.1289-20.2148 32.1289-22.4609L32.1289-43.7012L31.9336-43.7012L29.1016-41.3086C28.0273-40.3809 27.4902-40.1367 26.5137-40.1367C25.0488-40.1367 23.7305-41.4551 23.7305-43.0176C23.7305-44.3359 24.3164-45.2637 25.4883-46.2402L30.3711-49.9023C32.1289-51.3184 33.2031-51.709 34.7168-51.709C37.1582-51.709 38.5742-50.1953 38.5742-47.7539L38.5742-22.4609C38.5742-20.2148 37.4023-18.9453 35.3516-18.9453ZM56.0547-24.0723C58.9355-24.0723 60.791-26.2207 60.791-29.5898C60.791-32.7637 58.8379-34.9609 56.0547-34.9609C53.2227-34.9609 51.3184-32.7637 51.3184-29.6387C51.3184-26.3184 53.2715-24.0723 56.0547-24.0723Z"/>
  </g>
  <g id="Medium-S" transform="matrix(1 0 0 1 1700.75 696)">
   <path d="M22.7051 0.830078L68.8965 0.830078C77.4414 0.830078 81.8359-3.51562 81.8359-11.9629L81.8359-58.4473C81.8359-66.8945 77.4414-71.2402 68.8965-71.2402L22.7051-71.2402C14.209-71.2402 9.76562-66.8945 9.76562-58.4473L9.76562-11.9629C9.76562-3.51562 14.209 0.830078 22.7051 0.830078ZM55.8594-18.3105C51.9531-18.3105 48.4375-19.7754 46.3867-23.7305C45.0684-26.2207 44.2383-29.7852 44.2383-34.5215C44.2383-46.4355 49.1211-52.1973 56.5918-52.1973C60.9375-52.1973 64.0137-50.1465 65.0879-47.4609C65.3809-46.8262 65.4785-46.2891 65.4785-45.5566C65.4785-44.043 64.4043-43.0176 63.1348-43.0176C61.9141-43.0176 61.1816-43.5547 60.4004-44.5801C59.5215-45.752 58.3008-46.6797 56.3965-46.6797C52.6367-46.6797 50-42.627 50-36.377C50-36.084 50-35.8887 50-35.6934L50.293-35.6934C51.2207-37.9883 53.418-40.2344 57.4219-40.2344C62.2559-40.2344 66.748-36.6211 66.748-29.8828C66.748-22.5586 62.2559-18.3105 55.8594-18.3105ZM34.5703-18.75C32.666-18.75 31.543-19.9707 31.543-22.0215L31.543-44.3359L31.2988-44.3359L28.1738-41.748C27.1484-40.8691 26.6113-40.7227 25.7324-40.7227C24.3652-40.7227 23.0957-41.9922 23.0957-43.5059C23.0957-44.7754 23.6328-45.6543 24.707-46.4844L29.8828-50.2441C31.5918-51.5137 32.5684-51.9531 34.082-51.9531C36.2793-51.9531 37.6465-50.4883 37.6465-48.291L37.6465-22.0215C37.6465-19.9707 36.4746-18.75 34.5703-18.75ZM55.5176-23.5352C58.6914-23.5352 60.6934-25.8789 60.6934-29.4922C60.6934-32.959 58.6426-35.3027 55.5176-35.3027C52.4902-35.3027 50.3906-32.9102 50.3906-29.541C50.3906-25.9766 52.4902-23.5352 55.5176-23.5352Z"/>
  </g>
  <g id="Regular-S" transform="matrix(1 0 0 1 1404.51 696)">
   <path d="M22.2168 0.390625L68.457 0.390625C76.8066 0.390625 80.9082-3.71094 80.9082-11.9141L80.9082-58.4961C80.9082-66.6992 76.8066-70.8008 68.457-70.8008L22.2168-70.8008C13.916-70.8008 9.76562-66.6992 9.76562-58.4961L9.76562-11.9141C9.76562-3.71094 13.916 0.390625 22.2168 0.390625ZM55.1758-17.9688C51.3184-17.9688 47.8027-19.3359 45.7031-23.291C44.3359-25.7324 43.457-29.2969 43.457-34.375C43.457-46.6797 48.291-52.4902 55.957-52.4902C60.4004-52.4902 63.5254-50.3906 64.5996-47.6074C64.8438-46.9727 64.9414-46.4844 64.9414-45.8496C64.9414-44.3848 64.0137-43.457 62.793-43.457C61.5723-43.457 60.8887-43.9941 60.0586-45.1172C59.1797-46.3867 57.8125-47.3633 55.7129-47.3633C51.6113-47.3633 48.7305-42.9199 48.7305-35.9375L48.7305-35.5469L49.0723-35.5469C49.9512-37.9395 52.2949-40.332 56.543-40.332C61.5234-40.332 66.2598-36.6699 66.2598-29.6875C66.2598-22.2168 61.6211-17.9688 55.1758-17.9688ZM33.5938-18.5059C31.8848-18.5059 30.8105-19.6289 30.8105-21.3867L30.8105-45.166L30.5664-45.166L27.002-42.3828C25.9277-41.5039 25.4395-41.5039 24.7559-41.5039C23.4863-41.5039 22.2168-42.6758 22.2168-44.1895C22.2168-45.3613 22.7539-46.1426 23.7305-46.8262L29.2969-50.6836C30.9082-51.8066 31.7871-52.1973 33.252-52.1973C35.1074-52.1973 36.4258-50.9277 36.4258-49.0234L36.4258-21.3867C36.4258-19.6289 35.2539-18.5059 33.5938-18.5059ZM54.8828-22.8027C58.3984-22.8027 60.6445-25.3906 60.6445-29.3945C60.6445-33.1543 58.3008-35.791 54.8828-35.791C51.4648-35.791 49.1699-33.1543 49.1699-29.4434C49.1699-25.5371 51.5137-22.8027 54.8828-22.8027Z"/>
  </g>
  <g id="Light-S" transform="matrix(1 0 0 1 1108.46 696)">
   <path d="M21.3867-0.292969L67.9688-0.292969C75.7324-0.292969 79.5898-4.15039 79.5898-11.7676L79.5898-58.5938C79.5898-66.2109 75.7324-70.1172 67.9688-70.1172L21.3867-70.1172C13.6719-70.1172 9.76562-66.2598 9.76562-58.5938L9.76562-11.7676C9.76562-4.15039 13.6719-0.292969 21.3867-0.292969ZM54.4434-18.4082C50.3418-18.4082 47.0215-20.0195 45.0684-23.7305C43.75-26.2207 43.0176-29.6875 43.0176-34.3262C43.0176-46.0938 47.6074-52.0508 55.127-52.0508C59.7168-52.0508 62.8418-49.6094 63.8184-47.0215C64.0137-46.5332 64.1113-46.1426 64.1113-45.6543C64.1113-44.4824 63.3301-43.7012 62.3535-43.7012C61.377-43.7012 60.791-44.1895 60.2051-45.0684C59.1797-46.7773 57.4219-47.9492 54.9805-47.9492C50.293-47.9492 47.2168-43.1152 47.2168-35.3027L47.2168-34.9609L47.4121-34.9609C48.4863-37.6953 51.3184-40.0391 55.5176-40.0391C60.791-40.0391 65.2832-36.2305 65.2832-29.6875C65.2832-22.6074 60.8398-18.4082 54.4434-18.4082ZM32.9102-18.8477C31.5918-18.8477 30.7129-19.7754 30.7129-21.1426L30.7129-46.1914L30.5176-46.1914L25.8301-42.8223C25.0488-42.2363 24.707-42.1875 24.1699-42.1875C23.0957-42.1875 22.1191-43.1152 22.1191-44.3359C22.1191-45.2148 22.5098-45.8496 23.291-46.3867L29.5898-50.6348C30.8105-51.4648 31.4941-51.8066 32.666-51.8066C34.1309-51.8066 35.1562-50.7812 35.1562-49.2676L35.1562-21.1426C35.1562-19.7754 34.2773-18.8477 32.9102-18.8477ZM54.248-22.3633C58.252-22.3633 60.8398-25.0977 60.8398-29.4434C60.8398-33.5449 58.1543-36.3281 54.248-36.3281C50.3906-36.3281 47.6562-33.4961 47.6562-29.4922C47.6562-25.293 50.3906-22.3633 54.248-22.3633Z"/>
  </g>
  <g id="Thin-S" transform="matrix(1 0 0 1 812.599 696)">
   <path d="M20.3125-1.12305L67.334-1.12305C74.2676-1.12305 77.8809-4.78516 77.8809-11.6211L77.8809-58.6914C77.8809-65.5762 74.2676-69.2383 67.334-69.2383L20.3125-69.2383C13.3789-69.2383 9.76562-65.625 9.76562-58.6914L9.76562-11.6211C9.76562-4.6875 13.3789-1.12305 20.3125-1.12305ZM53.4668-18.9941C48.9746-18.9941 45.9961-20.8496 44.2383-24.3652C42.9688-26.8555 42.3828-30.1758 42.3828-34.2773C42.3828-45.3125 46.7285-51.5137 54.0527-51.5137C58.8379-51.5137 62.0117-48.5352 62.793-46.2402C62.8906-45.9961 62.9883-45.7031 62.9883-45.4102C62.9883-44.6289 62.5-44.043 61.7188-44.043C61.084-44.043 60.6934-44.4336 60.3516-45.0195C59.1797-47.2656 56.8359-48.6816 54.0039-48.6816C48.5352-48.6816 45.166-43.3594 45.166-34.5215L45.166-34.1309L45.2637-34.1309C46.582-37.3535 50-39.6484 54.1504-39.6484C59.7656-39.6484 64.0625-35.6445 64.0625-29.6387C64.0625-23.1934 59.7656-18.9941 53.4668-18.9941ZM32.0312-19.3359C31.2012-19.3359 30.6152-19.9219 30.6152-20.8008L30.6152-47.5098L30.4199-47.5098L24.3164-43.4082C23.877-43.1152 23.6816-43.1152 23.3398-43.1152C22.6074-43.1152 22.0215-43.75 22.0215-44.4824C22.0215-45.0684 22.2168-45.5078 22.7539-45.8496L29.9316-50.5859C30.6641-51.0742 31.1035-51.2207 31.8359-51.2207C32.8125-51.2207 33.4961-50.5859 33.4961-49.6094L33.4961-20.8008C33.4961-19.9219 32.959-19.3359 32.0312-19.3359ZM53.418-21.7285C58.0566-21.7285 61.1328-24.7559 61.1328-29.4434C61.1328-34.0332 58.0078-37.0605 53.4668-37.0605C48.9258-37.0605 45.7031-33.8867 45.7031-29.4922C45.7031-24.9512 48.877-21.7285 53.418-21.7285Z"/>
  </g>
  <g id="Ultralight-S" transform="matrix(1 0 0 1 516.352 696)">
   <path d="M19.7754-1.5625L66.9922-1.5625C73.5352-1.5625 76.9531-5.12695 76.9531-11.5234L76.9531-58.7891C76.9531-65.2344 73.5352-68.75 66.9922-68.75L19.7754-68.75C13.2324-68.75 9.76562-65.2832 9.76562-58.7891L9.76562-11.5234C9.76562-5.0293 13.2324-1.5625 19.7754-1.5625ZM52.9297-19.3359C48.291-19.3359 45.459-21.2891 43.7988-24.707C42.5781-27.1484 42.041-30.4688 42.041-34.2285C42.041-44.9219 46.2891-51.1719 53.5156-51.1719C58.3984-51.1719 61.5723-47.998 62.2559-45.8496C62.3535-45.6543 62.4023-45.459 62.4023-45.2637C62.4023-44.7266 62.0605-44.2383 61.377-44.2383C60.9375-44.2383 60.6445-44.5312 60.4492-44.9707C59.1797-47.5098 56.543-49.0723 53.4668-49.0723C47.6074-49.0723 44.0918-43.5059 44.0918-34.082L44.0918-33.7402L44.1406-33.7402C45.6055-37.1582 49.3164-39.4531 53.418-39.4531C59.2285-39.4531 63.4277-35.3027 63.4277-29.6387C63.4277-23.4863 59.2285-19.3359 52.9297-19.3359ZM31.5918-19.5801C31.0059-19.5801 30.5176-20.0195 30.5176-20.6543L30.5176-48.2422L30.3711-48.2422L23.5352-43.75C23.291-43.6035 23.1445-43.6035 22.9492-43.6035C22.3633-43.6035 21.9238-44.0918 21.9238-44.6289C21.9238-44.9707 22.0703-45.3125 22.4609-45.5566L30.127-50.5371C30.5664-50.8301 30.9082-50.9277 31.4453-50.9277C32.1289-50.9277 32.666-50.4883 32.666-49.7559L32.666-20.6543C32.666-20.0195 32.2754-19.5801 31.5918-19.5801ZM52.9785-21.3867C57.959-21.3867 61.2793-24.5605 61.2793-29.4922C61.2793-34.2773 57.8613-37.4023 53.0273-37.4023C48.1934-37.4023 44.6777-34.1309 44.6777-29.541C44.6777-24.8047 48.1445-21.3867 52.9785-21.3867Z"/>
  </g>
 </g>
</svg>
