<?xml version="1.0" encoding="UTF-8"?>
<!--Generator: Apple Native CoreSVG 149-->
<!DOCTYPE svg
PUBLIC "-//W3C//DTD SVG 1.1//EN"
       "http://www.w3.org/Graphics/SVG/1.1/DTD/svg11.dtd">
<svg version="1.1" xmlns="http://www.w3.org/2000/svg" xmlns:xlink="http://www.w3.org/1999/xlink" width="3300" height="2200">
 <!--glyph: "uni1000D9.medium", point size: 100.000000, font version: "Version 16.0d18e1", template writer version: "8"-->
 <g id="Notes">
  <rect height="2200" id="artboard" style="fill:white;opacity:1" width="3300" x="0" y="0"/>
  <line id="" style="fill:none;stroke:black;opacity:1;stroke-width:0.5;" x1="263" x2="3036" y1="292" y2="292"/>
  <text style="stroke:none;fill:black;font-family:-apple-system,&quot;SF Pro Display&quot;,&quot;SF Pro Text&quot;,Helvetica,sans-serif;font-weight:bold;" transform="matrix(1 0 0 1 263 322)">Weight/Scale Variations</text>
  <text style="stroke:none;fill:black;font-family:-apple-system,&quot;SF Pro Display&quot;,&quot;SF Pro Text&quot;,Helvetica,sans-serif;text-anchor:middle;" transform="matrix(1 0 0 1 559.711 322)">Ultralight</text>
  <text style="stroke:none;fill:black;font-family:-apple-system,&quot;SF Pro Display&quot;,&quot;SF Pro Text&quot;,Helvetica,sans-serif;text-anchor:middle;" transform="matrix(1 0 0 1 856.422 322)">Thin</text>
  <text style="stroke:none;fill:black;font-family:-apple-system,&quot;SF Pro Display&quot;,&quot;SF Pro Text&quot;,Helvetica,sans-serif;text-anchor:middle;" transform="matrix(1 0 0 1 1153.13 322)">Light</text>
  <text style="stroke:none;fill:black;font-family:-apple-system,&quot;SF Pro Display&quot;,&quot;SF Pro Text&quot;,Helvetica,sans-serif;text-anchor:middle;" transform="matrix(1 0 0 1 1449.84 322)">Regular</text>
  <text style="stroke:none;fill:black;font-family:-apple-system,&quot;SF Pro Display&quot;,&quot;SF Pro Text&quot;,Helvetica,sans-serif;text-anchor:middle;" transform="matrix(1 0 0 1 1746.56 322)">Medium</text>
  <text style="stroke:none;fill:black;font-family:-apple-system,&quot;SF Pro Display&quot;,&quot;SF Pro Text&quot;,Helvetica,sans-serif;text-anchor:middle;" transform="matrix(1 0 0 1 2043.27 322)">Semibold</text>
  <text style="stroke:none;fill:black;font-family:-apple-system,&quot;SF Pro Display&quot;,&quot;SF Pro Text&quot;,Helvetica,sans-serif;text-anchor:middle;" transform="matrix(1 0 0 1 2339.98 322)">Bold</text>
  <text style="stroke:none;fill:black;font-family:-apple-system,&quot;SF Pro Display&quot;,&quot;SF Pro Text&quot;,Helvetica,sans-serif;text-anchor:middle;" transform="matrix(1 0 0 1 2636.69 322)">Heavy</text>
  <text style="stroke:none;fill:black;font-family:-apple-system,&quot;SF Pro Display&quot;,&quot;SF Pro Text&quot;,Helvetica,sans-serif;text-anchor:middle;" transform="matrix(1 0 0 1 2933.4 322)">Black</text>
  <line id="" style="fill:none;stroke:black;opacity:1;stroke-width:0.5;" x1="263" x2="3036" y1="1903" y2="1903"/>
  <g id="" transform="matrix(1 0 0 1 263 1933)">
   <path d="M9.24805 0.830078C13.5547 0.830078 17.1387-2.74414 17.1387-7.05078C17.1387-11.3574 13.5449-14.9316 9.23828-14.9316C4.94141-14.9316 1.36719-11.3574 1.36719-7.05078C1.36719-2.74414 4.95117 0.830078 9.24805 0.830078ZM9.24805-0.654297C5.70312-0.654297 2.87109-3.49609 2.87109-7.05078C2.87109-10.6055 5.69336-13.4473 9.23828-13.4473C12.793-13.4473 15.6348-10.6055 15.6445-7.05078C15.6543-3.49609 12.8027-0.654297 9.24805-0.654297ZM6.39648-6.31836L8.50586-6.31836L8.50586-4.19922C8.50586-3.75977 8.79883-3.45703 9.22852-3.45703C9.67773-3.45703 9.9707-3.75977 9.9707-4.19922L9.9707-6.31836L12.0996-6.31836C12.5391-6.31836 12.8418-6.61133 12.8418-7.04102C12.8418-7.48047 12.5391-7.7832 12.0996-7.7832L9.9707-7.7832L9.9707-9.89258C9.9707-10.3418 9.67773-10.6445 9.22852-10.6445C8.79883-10.6445 8.50586-10.3418 8.50586-9.89258L8.50586-7.7832L6.39648-7.7832C5.94727-7.7832 5.64453-7.48047 5.64453-7.04102C5.64453-6.61133 5.94727-6.31836 6.39648-6.31836Z"/>
  </g>
  <g id="" transform="matrix(1 0 0 1 281.506 1933)">
   <path d="M11.709 2.91016C17.1582 2.91016 21.6699-1.61133 21.6699-7.05078C21.6699-12.5 17.1484-17.0117 11.6992-17.0117C6.25977-17.0117 1.74805-12.5 1.74805-7.05078C1.74805-1.61133 6.26953 2.91016 11.709 2.91016ZM11.709 1.25C7.09961 1.25 3.41797-2.44141 3.41797-7.05078C3.41797-11.6602 7.08984-15.3516 11.6992-15.3516C16.3086-15.3516 20-11.6602 20.0098-7.05078C20.0195-2.44141 16.3184 1.25 11.709 1.25ZM7.98828-6.23047L10.8789-6.23047L10.8789-3.32031C10.8789-2.83203 11.2109-2.5 11.6895-2.5C12.1777-2.5 12.5195-2.83203 12.5195-3.32031L12.5195-6.23047L15.4297-6.23047C15.918-6.23047 16.25-6.5625 16.25-7.04102C16.25-7.5293 15.918-7.87109 15.4297-7.87109L12.5195-7.87109L12.5195-10.7617C12.5195-11.2695 12.1777-11.6016 11.6895-11.6016C11.2109-11.6016 10.8789-11.2598 10.8789-10.7617L10.8789-7.87109L7.98828-7.87109C7.48047-7.87109 7.14844-7.5293 7.14844-7.04102C7.14844-6.5625 7.49023-6.23047 7.98828-6.23047Z"/>
  </g>
  <g id="" transform="matrix(1 0 0 1 304.924 1933)">
   <path d="M14.9707 5.66406C21.9336 5.66406 27.6953-0.0976562 27.6953-7.05078C27.6953-14.0137 21.9238-19.7754 14.9609-19.7754C8.00781-19.7754 2.25586-14.0137 2.25586-7.05078C2.25586-0.0976562 8.01758 5.66406 14.9707 5.66406ZM14.9707 3.84766C8.93555 3.84766 4.08203-1.01562 4.08203-7.05078C4.08203-13.0957 8.92578-17.9492 14.9609-17.9492C21.0059-17.9492 25.8594-13.0957 25.8691-7.05078C25.8789-1.01562 21.0156 3.84766 14.9707 3.84766ZM10.0586-6.14258L14.0625-6.14258L14.0625-2.12891C14.0625-1.5918 14.4336-1.2207 14.9512-1.2207C15.4883-1.2207 15.8594-1.5918 15.8594-2.12891L15.8594-6.14258L19.8828-6.14258C20.4102-6.14258 20.791-6.51367 20.791-7.03125C20.791-7.56836 20.4199-7.94922 19.8828-7.94922L15.8594-7.94922L15.8594-11.9531C15.8594-12.5098 15.4883-12.8809 14.9512-12.8809C14.4336-12.8809 14.0625-12.5 14.0625-11.9531L14.0625-7.94922L10.0586-7.94922C9.50195-7.94922 9.13086-7.56836 9.13086-7.03125C9.13086-6.51367 9.51172-6.14258 10.0586-6.14258Z"/>
  </g>
  <text style="stroke:none;fill:black;font-family:-apple-system,&quot;SF Pro Display&quot;,&quot;SF Pro Text&quot;,Helvetica,sans-serif;font-weight:bold;" transform="matrix(1 0 0 1 263 1953)">Design Variations</text>
  <text style="stroke:none;fill:black;font-family:-apple-system,&quot;SF Pro Display&quot;,&quot;SF Pro Text&quot;,Helvetica,sans-serif;" transform="matrix(1 0 0 1 263 1971)">Symbols are supported in up to nine weights and three scales.</text>
  <text style="stroke:none;fill:black;font-family:-apple-system,&quot;SF Pro Display&quot;,&quot;SF Pro Text&quot;,Helvetica,sans-serif;" transform="matrix(1 0 0 1 263 1989)">For optimal layout with text and other symbols, vertically align</text>
  <text style="stroke:none;fill:black;font-family:-apple-system,&quot;SF Pro Display&quot;,&quot;SF Pro Text&quot;,Helvetica,sans-serif;" transform="matrix(1 0 0 1 263 2007)">symbols with the adjacent text.</text>
  <line id="" style="fill:none;stroke:#00AEEF;stroke-width:0.5;opacity:1.0;" x1="776" x2="776" y1="1919" y2="1933"/>
  <g id="" transform="matrix(1 0 0 1 776 1933)">
   <path d="M3.31055 0.126953C3.82812 0.126953 4.08203-0.0683594 4.26758-0.605469L5.52734-4.0625L11.2891-4.0625L12.5488-0.605469C12.7344-0.0683594 12.9883 0.126953 13.4961 0.126953C14.0137 0.126953 14.3457-0.185547 14.3457-0.673828C14.3457-0.839844 14.3164-0.986328 14.2383-1.20117L9.6582-13.3887C9.43359-13.9941 9.0332-14.2871 8.4082-14.2871C7.80273-14.2871 7.39258-13.9941 7.17773-13.3984L2.59766-1.19141C2.51953-0.976562 2.49023-0.830078 2.49023-0.664062C2.49023-0.175781 2.80273 0.126953 3.31055 0.126953ZM6.00586-5.53711L8.37891-12.1094L8.42773-12.1094L10.8008-5.53711Z"/>
  </g>
  <line id="" style="fill:none;stroke:#00AEEF;stroke-width:0.5;opacity:1.0;" x1="792.836" x2="792.836" y1="1919" y2="1933"/>
  <text style="stroke:none;fill:black;font-family:-apple-system,&quot;SF Pro Display&quot;,&quot;SF Pro Text&quot;,Helvetica,sans-serif;font-weight:bold;" transform="matrix(1 0 0 1 776 1953)">Margins</text>
  <text style="stroke:none;fill:black;font-family:-apple-system,&quot;SF Pro Display&quot;,&quot;SF Pro Text&quot;,Helvetica,sans-serif;" transform="matrix(1 0 0 1 776 1971)">Leading and trailing margins on the left and right side of each symbol</text>
  <text style="stroke:none;fill:black;font-family:-apple-system,&quot;SF Pro Display&quot;,&quot;SF Pro Text&quot;,Helvetica,sans-serif;" transform="matrix(1 0 0 1 776 1989)">can be adjusted by modifying the x-location of the margin guidelines.</text>
  <text style="stroke:none;fill:black;font-family:-apple-system,&quot;SF Pro Display&quot;,&quot;SF Pro Text&quot;,Helvetica,sans-serif;" transform="matrix(1 0 0 1 776 2007)">Modifications are automatically applied proportionally to all</text>
  <text style="stroke:none;fill:black;font-family:-apple-system,&quot;SF Pro Display&quot;,&quot;SF Pro Text&quot;,Helvetica,sans-serif;" transform="matrix(1 0 0 1 776 2025)">scales and weights.</text>
  <g id="" transform="matrix(1 0 0 1 1289 1933)">
   <path d="M2.8418 1.86523L4.54102 3.57422C5.40039 4.44336 6.38672 4.38477 7.31445 3.35938L17.4902-7.85156C17.7539-7.76367 18.0273-7.7832 18.3398-7.8418L19.4043-8.03711L20.0684-7.36328L20.0293-6.80664C19.9902-6.30859 20.1172-5.92773 20.6055-5.44922L21.3672-4.70703C21.8457-4.22852 22.4609-4.19922 22.9297-4.66797L25.8398-7.58789C26.3086-8.05664 26.2891-8.65234 25.8105-9.13086L25.0391-9.89258C24.5605-10.3711 24.1895-10.5273 23.7109-10.4883L23.1348-10.4395L22.4902-11.0742L22.7344-12.1973C22.8613-12.7637 22.7051-13.2031 22.1191-13.7891L19.9219-15.9766C16.582-19.2969 12.1484-19.2188 9.25781-16.3281C8.83789-15.918 8.80859-15.3418 9.04297-14.9512C9.27734-14.5898 9.73633-14.3555 10.3809-14.5215C11.8457-14.8633 13.3691-14.9219 14.7949-13.9844L14.209-12.5293C14.0137-12.0508 13.9844-11.6504 14.1113-11.2891L3.04688-0.898438C2.06055 0.0195312 1.98242 0.996094 2.8418 1.86523ZM10.752-15.957C13.1836-17.7344 16.4746-17.4316 18.7012-15.2051L21.1328-12.793C21.3672-12.5586 21.4062-12.373 21.3379-12.0312L21.0156-10.5469L22.5195-9.0625L23.5059-9.12109C23.7598-9.13086 23.8379-9.11133 24.0332-8.91602L24.6094-8.33984L22.168-5.89844L21.5918-6.47461C21.3965-6.66992 21.3672-6.74805 21.377-7.01172L21.4453-7.98828L19.9512-9.47266L18.4277-9.21875C18.1055-9.15039 17.959-9.17969 17.7148-9.41406L15.7129-11.416C15.459-11.6504 15.4297-11.8164 15.5859-12.1875L16.4648-14.2773C14.9023-15.7324 12.8711-16.3574 10.8398-15.7617C10.6836-15.7227 10.625-15.8496 10.752-15.957ZM5.27344 2.30469L4.10156 1.14258C3.63281 0.683594 3.74023 0.341797 4.14062-0.0195312L14.9512-10.1953L16.416-8.71094L6.42578 2.27539C6.07422 2.67578 5.74219 2.77344 5.27344 2.30469Z"/>
  </g>
  <text style="stroke:none;fill:black;font-family:-apple-system,&quot;SF Pro Display&quot;,&quot;SF Pro Text&quot;,Helvetica,sans-serif;font-weight:bold;" transform="matrix(1 0 0 1 1289 1953)">Exporting</text>
  <text style="stroke:none;fill:black;font-family:-apple-system,&quot;SF Pro Display&quot;,&quot;SF Pro Text&quot;,Helvetica,sans-serif;" transform="matrix(1 0 0 1 1289 1971)">Symbols should be outlined when exporting to ensure the</text>
  <text style="stroke:none;fill:black;font-family:-apple-system,&quot;SF Pro Display&quot;,&quot;SF Pro Text&quot;,Helvetica,sans-serif;" transform="matrix(1 0 0 1 1289 1989)">design is preserved when submitting to Xcode.</text>
  <text id="template-version" style="stroke:none;fill:black;font-family:-apple-system,&quot;SF Pro Display&quot;,&quot;SF Pro Text&quot;,Helvetica,sans-serif;text-anchor:end;" transform="matrix(1 0 0 1 3036 1933)">Template v.2.0</text>
  <text style="stroke:none;fill:black;font-family:-apple-system,&quot;SF Pro Display&quot;,&quot;SF Pro Text&quot;,Helvetica,sans-serif;text-anchor:end;" transform="matrix(1 0 0 1 3036 1951)">Requires Xcode 12 or greater</text>
  <text style="stroke:none;fill:black;font-family:-apple-system,&quot;SF Pro Display&quot;,&quot;SF Pro Text&quot;,Helvetica,sans-serif;text-anchor:end;" transform="matrix(1 0 0 1 3036 1969)">Generated from 8.square.fill</text>
  <text style="stroke:none;fill:black;font-family:-apple-system,&quot;SF Pro Display&quot;,&quot;SF Pro Text&quot;,Helvetica,sans-serif;text-anchor:end;" transform="matrix(1 0 0 1 3036 1987)">Typeset at 100 points</text>
  <text style="stroke:none;fill:black;font-family:-apple-system,&quot;SF Pro Display&quot;,&quot;SF Pro Text&quot;,Helvetica,sans-serif;" transform="matrix(1 0 0 1 263 726)">Small</text>
  <text style="stroke:none;fill:black;font-family:-apple-system,&quot;SF Pro Display&quot;,&quot;SF Pro Text&quot;,Helvetica,sans-serif;" transform="matrix(1 0 0 1 263 1156)">Medium</text>
  <text style="stroke:none;fill:black;font-family:-apple-system,&quot;SF Pro Display&quot;,&quot;SF Pro Text&quot;,Helvetica,sans-serif;" transform="matrix(1 0 0 1 263 1586)">Large</text>
 </g>
 <g id="Guides">
  <g id="H-reference" style="fill:#27AAE1;stroke:none;" transform="matrix(1 0 0 1 339 696)">
   <path d="M0.976562 0L3.66211 0L12.9883-24.4629L45.752-24.4629L55.127 0L57.7637 0L30.6152-70.459L28.125-70.459ZM29.3457-67.1387L29.4434-67.1387L44.873-26.709L13.8672-26.709Z"/>
  </g>
  <line id="Baseline-S" style="fill:none;stroke:#27AAE1;opacity:1;stroke-width:0.5;" x1="263" x2="3036" y1="696" y2="696"/>
  <line id="Capline-S" style="fill:none;stroke:#27AAE1;opacity:1;stroke-width:0.5;" x1="263" x2="3036" y1="625.541" y2="625.541"/>
  <g id="H-reference" style="fill:#27AAE1;stroke:none;" transform="matrix(1 0 0 1 339 1126)">
   <path d="M0.976562 0L3.66211 0L12.9883-24.4629L45.752-24.4629L55.127 0L57.7637 0L30.6152-70.459L28.125-70.459ZM29.3457-67.1387L29.4434-67.1387L44.873-26.709L13.8672-26.709Z"/>
  </g>
  <line id="Baseline-M" style="fill:none;stroke:#27AAE1;opacity:1;stroke-width:0.5;" x1="263" x2="3036" y1="1126" y2="1126"/>
  <line id="Capline-M" style="fill:none;stroke:#27AAE1;opacity:1;stroke-width:0.5;" x1="263" x2="3036" y1="1055.54" y2="1055.54"/>
  <g id="H-reference" style="fill:#27AAE1;stroke:none;" transform="matrix(1 0 0 1 339 1556)">
   <path d="M0.976562 0L3.66211 0L12.9883-24.4629L45.752-24.4629L55.127 0L57.7637 0L30.6152-70.459L28.125-70.459ZM29.3457-67.1387L29.4434-67.1387L44.873-26.709L13.8672-26.709Z"/>
  </g>
  <line id="Baseline-L" style="fill:none;stroke:#27AAE1;opacity:1;stroke-width:0.5;" x1="263" x2="3036" y1="1556" y2="1556"/>
  <line id="Capline-L" style="fill:none;stroke:#27AAE1;opacity:1;stroke-width:0.5;" x1="263" x2="3036" y1="1485.54" y2="1485.54"/>
  <line id="left-margin" style="fill:none;stroke:#00AEEF;stroke-width:0.5;opacity:1.0;" x1="1392.45" x2="1392.45" y1="1030.79" y2="1150.12"/>
  <line id="right-margin" style="fill:none;stroke:#00AEEF;stroke-width:0.5;opacity:1.0;" x1="1507.24" x2="1507.24" y1="1030.79" y2="1150.12"/>
 </g>
 <g id="Symbols">
  <g id="Black-L" transform="matrix(1 0 0 1 2855.62 1556)">
   <path d="M39.9902 26.5137L115.576 26.5137C130.811 26.5137 139.502 17.8711 139.502 2.68555L139.502-73.0957C139.502-88.2812 130.811-96.875 115.576-96.875L39.9902-96.875C24.7559-96.875 16.0645-88.2812 16.0645-73.0957L16.0645 2.68555C16.0645 17.8711 24.7559 26.5137 39.9902 26.5137ZM78.3203-4.15039C61.2305-4.15039 50.5859-11.0352 50.5859-22.2656C50.5859-29.9316 55.957-35.4492 64.4531-36.6211L64.4531-37.4023C56.7871-39.502 53.125-43.7012 53.125-50.1465C53.125-60.0586 62.8418-66.4062 78.3691-66.4062C93.8965-66.4062 103.613-60.0586 103.613-50.1465C103.613-43.7012 99.9023-39.4531 92.2852-37.4023L92.2852-36.6211C100.732-35.4492 106.152-29.9316 106.152-22.3145C106.152-11.0352 95.459-4.15039 78.3203-4.15039ZM78.3691-42.334C81.7383-42.334 84.1797-44.7266 84.1797-47.8516C84.1797-50.9766 81.5918-53.3691 78.3691-53.3691C75.1465-53.3691 72.5586-50.9766 72.5586-47.8516C72.5586-44.7266 75.0977-42.334 78.3691-42.334ZM78.418-17.1875C82.5195-17.1875 85.4492-19.9707 85.4492-23.8281C85.4492-27.6855 82.5684-30.5664 78.418-30.5664C74.3164-30.5664 71.2891-27.6855 71.2891-23.8281C71.2891-19.9707 74.2676-17.1875 78.418-17.1875Z"/>
  </g>
  <g id="Heavy-L" transform="matrix(1 0 0 1 2559.93 1556)">
   <path d="M38.8184 25.4883L114.697 25.4883C129.346 25.4883 137.451 17.4316 137.451 2.88086L137.451-73.2422C137.451-87.793 129.346-95.8496 114.697-95.8496L38.8184-95.8496C24.2188-95.8496 16.0645-87.793 16.0645-73.2422L16.0645 2.88086C16.0645 17.4316 24.2188 25.4883 38.8184 25.4883ZM77.1484-4.29688C60.9863-4.29688 50.7324-11.2305 50.7324-22.2168C50.7324-29.7363 56.0547-35.4004 64.3555-36.6211L64.3555-37.3535C56.9824-39.4043 53.2715-43.7988 53.2715-50.1465C53.2715-59.8633 62.5977-66.2598 77.1973-66.2598C91.7969-66.2598 101.172-59.8633 101.172-50.1465C101.172-43.7988 97.4121-39.3066 90.0879-37.3535L90.0879-36.6211C98.3398-35.4004 103.711-29.7852 103.711-22.2656C103.711-11.2305 93.3594-4.29688 77.1484-4.29688ZM77.1973-41.6992C81.3965-41.6992 84.375-44.4824 84.375-48.2422C84.375-51.9531 81.2988-54.7852 77.1973-54.7852C73.1445-54.7852 70.0684-51.9531 70.0684-48.2422C70.0684-44.4824 73.0957-41.6992 77.1973-41.6992ZM77.2461-15.7715C82.2754-15.7715 85.9375-18.9941 85.9375-23.5352C85.9375-27.9785 82.3242-31.2988 77.2461-31.2988C72.2168-31.2988 68.5547-27.9785 68.5547-23.5352C68.5547-18.9941 72.2168-15.7715 77.2461-15.7715Z"/>
  </g>
  <g id="Bold-L" transform="matrix(1 0 0 1 2264.37 1556)">
   <path d="M37.5 24.3652L113.721 24.3652C127.637 24.3652 135.156 16.8945 135.156 3.07617L135.156-73.3887C135.156-87.207 127.637-94.7266 113.721-94.7266L37.5-94.7266C23.6328-94.7266 16.0645-87.2559 16.0645-73.3887L16.0645 3.07617C16.0645 16.8945 23.6328 24.3652 37.5 24.3652ZM75.8301-4.49219C60.6445-4.49219 50.8789-11.4258 50.8789-22.168C50.8789-29.541 56.1523-35.3516 64.209-36.6699L64.209-37.2559C57.1777-39.2578 53.3691-43.8965 53.3691-50.1465C53.3691-59.668 62.3535-66.0645 75.9277-66.0645C89.502-66.0645 98.4863-59.668 98.4863-50.1465C98.4863-43.8965 94.5801-39.1602 87.6465-37.2559L87.6465-36.6699C95.6543-35.3516 100.977-29.5898 100.977-22.2168C100.977-11.4746 91.0645-4.49219 75.8301-4.49219ZM75.9277-41.0156C81.0059-41.0156 84.6191-44.2383 84.6191-48.7305C84.6191-53.125 80.957-56.3477 75.9277-56.3477C70.8984-56.3477 67.2363-53.125 67.2363-48.7305C67.2363-44.2383 70.8984-41.0156 75.9277-41.0156ZM75.9766-14.1602C81.9824-14.1602 86.4258-17.9199 86.4258-23.1934C86.4258-28.3203 82.1289-32.1289 75.9766-32.1289C69.9219-32.1289 65.4785-28.2715 65.4785-23.1934C65.4785-17.9199 69.873-14.1602 75.9766-14.1602Z"/>
  </g>
  <g id="Semibold-L" transform="matrix(1 0 0 1 1968.44 1556)">
   <path d="M36.6211 23.584L113.037 23.584C126.514 23.584 133.594 16.5039 133.594 3.17383L133.594-73.5352C133.594-86.8164 126.514-93.9453 113.037-93.9453L36.6211-93.9453C23.1934-93.9453 16.0645-86.8652 16.0645-73.5352L16.0645 3.17383C16.0645 16.5527 23.1934 23.584 36.6211 23.584ZM74.9512-4.63867C60.4492-4.63867 50.9766-11.5723 50.9766-22.1191C50.9766-29.4434 56.25-35.3027 64.1113-36.6699L64.1113-37.207C57.3242-39.1602 53.4668-43.9453 53.4668-50.1465C53.4668-59.5703 62.1582-65.918 75.0488-65.918C87.8906-65.918 96.6309-59.5703 96.6309-50.1465C96.6309-43.9453 92.6758-39.0625 85.9375-37.207L85.9375-36.6699C93.7988-35.3027 99.1211-29.4434 99.1211-22.168C99.1211-11.6211 89.4531-4.63867 74.9512-4.63867ZM75.0488-40.5273C80.7129-40.5273 84.8145-44.0918 84.8145-49.0234C84.8145-53.9062 80.7129-57.4707 75.0488-57.4707C69.3359-57.4707 65.2832-53.9062 65.2832-49.0234C65.2832-44.0918 69.3848-40.5273 75.0488-40.5273ZM75.0977-13.0859C81.8359-13.0859 86.7676-17.1875 86.7676-22.9492C86.7676-28.5645 81.9336-32.666 75.0977-32.666C68.3105-32.666 63.3301-28.5156 63.3301-22.9492C63.3301-17.1875 68.3105-13.0859 75.0977-13.0859Z"/>
  </g>
  <g id="Medium-L" transform="matrix(1 0 0 1 1672.31 1556)">
   <path d="M35.9375 22.998L112.5 22.998C125.635 22.998 132.422 16.2109 132.422 3.27148L132.422-73.6328C132.422-86.5234 125.635-93.3105 112.5-93.3105L35.9375-93.3105C22.9004-93.3105 16.0645-86.5723 16.0645-73.6328L16.0645 3.27148C16.0645 16.2598 22.9004 22.998 35.9375 22.998ZM74.2676-4.73633C60.3027-4.73633 51.0254-11.6699 51.0254-22.0703C51.0254-29.2969 56.2988-35.2539 64.0625-36.7188L64.0625-37.1582C57.4219-39.1113 53.5156-43.9941 53.5156-50.1953C53.5156-59.4727 62.0117-65.8203 74.3652-65.8203C86.7188-65.8203 95.2148-59.4727 95.2148-50.1953C95.2148-43.9941 91.2109-39.0137 84.668-37.1582L84.668-36.7188C92.3828-35.2539 97.6562-29.3457 97.6562-22.1191C97.6562-11.7188 88.2324-4.73633 74.2676-4.73633ZM74.3652-40.1367C80.5176-40.1367 84.9121-43.9453 84.9121-49.2676C84.9121-54.4922 80.5664-58.252 74.3652-58.252C68.1641-58.252 63.7695-54.4922 63.7695-49.2676C63.7695-43.9453 68.2129-40.1367 74.3652-40.1367ZM74.4141-12.2559C81.6895-12.2559 87.0117-16.6016 87.0117-22.7539C87.0117-28.7109 81.8359-33.1055 74.4141-33.1055C67.1387-33.1055 61.7188-28.6621 61.7188-22.7539C61.7188-16.6016 67.0898-12.2559 74.4141-12.2559Z"/>
  </g>
  <g id="Regular-L" transform="matrix(1 0 0 1 1376.38 1556)">
   <path d="M35.0586 22.2168L111.816 22.2168C124.463 22.2168 130.859 15.8691 130.859 3.41797L130.859-73.7305C130.859-86.1816 124.463-92.5293 111.816-92.5293L35.0586-92.5293C22.4609-92.5293 16.0645-86.2305 16.0645-73.7305L16.0645 3.41797C16.0645 15.918 22.4609 22.2168 35.0586 22.2168ZM73.3887-4.83398C60.1074-4.83398 51.123-11.8164 51.123-22.0215C51.123-29.1992 56.3477-35.2051 63.9648-36.7188L63.9648-37.1094C57.5684-39.0137 53.6133-44.043 53.6133-50.1953C53.6133-59.3262 61.8164-65.6738 73.4863-65.6738C85.1074-65.6738 93.3594-59.3262 93.3594-50.1953C93.3594-44.043 89.3066-38.916 82.959-37.1094L82.959-36.7188C90.5762-35.2051 95.8008-29.248 95.8008-22.0703C95.8008-11.8652 86.6699-4.83398 73.3887-4.83398ZM73.4863-39.6973C80.2734-39.6973 85.1074-43.7988 85.1074-49.5605C85.1074-55.2734 80.3223-59.3262 73.4863-59.3262C66.6504-59.3262 61.8652-55.2734 61.8652-49.5605C61.8652-43.7988 66.6992-39.6973 73.4863-39.6973ZM73.5352-11.1328C81.4941-11.1328 87.3535-15.8691 87.3535-22.5098C87.3535-28.9551 81.6406-33.6426 73.5352-33.6426C65.5273-33.6426 59.6191-28.9062 59.6191-22.5098C59.6191-15.8691 65.4785-11.1328 73.5352-11.1328Z"/>
  </g>
  <g id="Light-L" transform="matrix(1 0 0 1 1080.5 1556)">
   <path d="M34.0332 21.4355L111.23 21.4355C123.096 21.4355 129.199 15.2344 129.199 3.56445L129.199-73.8281C129.199-85.5469 123.096-91.6992 111.23-91.6992L34.0332-91.6992C22.168-91.6992 16.0645-85.6445 16.0645-73.8281L16.0645 3.56445C16.0645 15.3809 22.168 21.4355 34.0332 21.4355ZM72.5586-5.56641C60.0586-5.56641 51.416-12.4023 51.416-22.3633C51.416-29.2969 56.543-35.2539 63.916-36.7188L63.916-37.0605C57.7637-38.916 53.7598-43.9453 53.7598-49.8535C53.7598-58.7402 61.6211-64.9902 72.6562-64.9902C83.6426-64.9902 91.5039-58.7402 91.5039-49.8535C91.5039-43.9453 87.4512-38.8184 81.3965-37.0605L81.3965-36.7188C88.6719-35.2539 93.8965-29.3457 93.8965-22.4121C93.8965-12.5 85.1074-5.56641 72.5586-5.56641ZM72.6562-39.1602C79.8828-39.1602 85.0586-43.457 85.0586-49.5117C85.0586-55.5664 79.9805-59.8633 72.6562-59.8633C65.332-59.8633 60.2051-55.5664 60.2051-49.5117C60.2051-43.457 65.4297-39.1602 72.6562-39.1602ZM72.6562-10.6445C81.2012-10.6445 87.4023-15.625 87.4023-22.6074C87.4023-29.3457 81.2988-34.2285 72.6562-34.2285C64.1602-34.2285 57.9102-29.3457 57.9102-22.6074C57.9102-15.625 64.1113-10.6445 72.6562-10.6445Z"/>
  </g>
  <g id="Thin-L" transform="matrix(1 0 0 1 784.889 1556)">
   <path d="M32.666 20.3613L110.352 20.3613C121.24 20.3613 127.002 14.4531 127.002 3.75977L127.002-73.9746C127.002-84.7168 121.24-90.5762 110.352-90.5762L32.666-90.5762C21.7773-90.5762 16.0645-84.8633 16.0645-73.9746L16.0645 3.75977C16.0645 14.6484 21.7773 20.3613 32.666 20.3613ZM71.5332-6.49414C59.9609-6.49414 51.7578-13.2324 51.7578-22.7539C51.7578-29.4434 56.8359-35.3516 63.8184-36.7188L63.8184-37.0605C58.0078-38.7695 54.0039-43.75 54.0039-49.4629C54.0039-58.0078 61.3281-64.0625 71.5332-64.0625C81.7383-64.0625 89.1113-58.0078 89.1113-49.4629C89.1113-43.75 85.0586-38.6719 79.2969-37.0605L79.2969-36.7188C86.2305-35.3516 91.3086-29.4434 91.3086-22.8027C91.3086-13.3301 83.0566-6.49414 71.5332-6.49414ZM71.5332-38.4277C79.3457-38.4277 85.0098-43.0176 85.0098-49.4629C85.0098-55.9082 79.4922-60.498 71.5332-60.498C63.5742-60.498 58.0566-55.9082 58.0566-49.4629C58.0566-43.0176 63.7207-38.4277 71.5332-38.4277ZM71.5332-10.0098C80.7617-10.0098 87.4023-15.332 87.4023-22.7539C87.4023-29.8828 80.8105-35.0586 71.5332-35.0586C62.3047-35.0586 55.6641-29.8828 55.6641-22.7539C55.6641-15.332 62.3047-10.0098 71.5332-10.0098Z"/>
  </g>
  <g id="Ultralight-L" transform="matrix(1 0 0 1 488.739 1556)">
   <path d="M31.9824 19.7754L109.961 19.7754C120.312 19.7754 125.879 14.0625 125.879 3.85742L125.879-74.0723C125.879-84.2773 120.312-89.9902 109.961-89.9902L31.9824-89.9902C21.582-89.9902 16.0645-84.4727 16.0645-74.0723L16.0645 3.85742C16.0645 14.2578 21.582 19.7754 31.9824 19.7754ZM70.9961-6.93359C59.9121-6.93359 51.9531-13.6719 51.9531-22.998C51.9531-29.4922 57.0312-35.3516 63.7695-36.7188L63.7695-37.0117C58.1055-38.6719 54.1016-43.6523 54.1016-49.2188C54.1016-57.6172 61.2305-63.5742 70.9961-63.5742C80.7617-63.5742 87.8418-57.6172 87.8418-49.2188C87.8418-43.6523 83.8379-38.623 78.2227-37.0117L78.2227-36.7188C84.9609-35.3516 89.9902-29.4922 89.9902-22.998C89.9902-13.7695 81.9824-6.93359 70.9961-6.93359ZM70.9961-38.0859C79.1016-38.0859 85.0098-42.8223 85.0098-49.4141C85.0098-56.1035 79.248-60.8398 70.9961-60.8398C62.6953-60.8398 56.9824-56.1035 56.9824-49.4141C56.9824-42.8223 62.8906-38.0859 70.9961-38.0859ZM70.9961-9.7168C80.5664-9.7168 87.4023-15.1855 87.4023-22.8516C87.4023-30.1758 80.5176-35.4492 70.9961-35.4492C61.377-35.4492 54.541-30.1758 54.541-22.8516C54.541-15.1855 61.377-9.7168 70.9961-9.7168Z"/>
  </g>
  <g id="Black-M" transform="matrix(1 0 0 1 2872.19 1126)">
   <path d="M31.9824 13.5742L90.4297 13.5742C102.686 13.5742 109.961 6.29883 109.961-5.95703L109.961-64.4043C109.961-76.6602 102.686-83.9355 90.4297-83.9355L31.9824-83.9355C19.7266-83.9355 12.4512-76.6602 12.4512-64.4043L12.4512-5.95703C12.4512 6.29883 19.7266 13.5742 31.9824 13.5742ZM61.8652-11.2793C47.7539-11.2793 39.209-16.5527 39.209-25.4395C39.209-31.4453 43.3594-35.498 50.0488-36.2305L50.0488-37.0117C43.8477-38.623 41.1133-41.6016 41.1133-46.582C41.1133-54.3945 48.9258-59.2285 61.8652-59.2285C74.7559-59.2285 82.5684-54.3945 82.5684-46.582C82.5684-41.6016 79.834-38.623 73.6328-37.0117L73.6328-36.2305C80.3223-35.498 84.5215-31.3965 84.5215-25.4395C84.5215-16.5527 75.9277-11.2793 61.8652-11.2793ZM61.8652-41.3086C63.5742-41.3086 64.8926-42.6758 64.8926-44.4336C64.8926-46.1914 63.4766-47.6562 61.8652-47.6562C60.2539-47.6562 58.7891-46.1914 58.7891-44.4336C58.7891-42.6758 60.2051-41.3086 61.8652-41.3086ZM61.8652-22.9492C64.0625-22.9492 65.625-24.5605 65.625-26.9043C65.625-29.1992 64.0625-30.957 61.8652-30.957C59.6191-30.957 58.0566-29.1992 58.0566-26.9043C58.0566-24.5605 59.6191-22.9492 61.8652-22.9492Z"/>
  </g>
  <g id="Heavy-M" transform="matrix(1 0 0 1 2576.39 1126)">
   <path d="M31.0059 12.6465L89.6484 12.6465C101.416 12.6465 108.154 5.9082 108.154-5.81055L108.154-64.5508C108.154-76.2695 101.416-83.0566 89.6484-83.0566L31.0059-83.0566C19.2383-83.0566 12.4512-76.3184 12.4512-64.5508L12.4512-5.81055C12.4512 5.9082 19.2383 12.6465 31.0059 12.6465ZM60.791-11.2793C47.5098-11.2793 39.2578-16.6016 39.2578-25.293C39.2578-31.2012 43.4082-35.4492 49.9512-36.2793L49.9512-36.9141C43.9941-38.5254 41.2109-41.748 41.2109-46.6797C41.2109-54.3457 48.7305-59.2285 60.791-59.2285C72.9004-59.2285 80.4199-54.3457 80.4199-46.6797C80.4199-41.748 77.5879-38.5254 71.6797-36.9141L71.6797-36.2793C78.1738-35.4492 82.373-31.2012 82.373-25.293C82.373-16.6016 74.0723-11.2793 60.791-11.2793ZM60.791-40.7227C63.3301-40.7227 65.1855-42.5293 65.1855-44.873C65.1855-47.2168 63.2324-49.0723 60.791-49.0723C58.3984-49.0723 56.4453-47.2168 56.4453-44.873C56.4453-42.5293 58.3496-40.7227 60.791-40.7227ZM60.8398-21.4844C63.916-21.4844 66.1133-23.584 66.1133-26.5137C66.1133-29.4434 63.916-31.5918 60.8398-31.5918C57.7148-31.5918 55.5176-29.3945 55.5176-26.5137C55.5176-23.584 57.7148-21.4844 60.8398-21.4844Z"/>
  </g>
  <g id="Bold-M" transform="matrix(1 0 0 1 2280.68 1126)">
   <path d="M29.8828 11.6699L88.7207 11.6699C99.9512 11.6699 106.152 5.46875 106.152-5.66406L106.152-64.6973C106.152-75.8789 99.9512-82.0312 88.7207-82.0312L29.8828-82.0312C18.6523-82.0312 12.4512-75.8789 12.4512-64.6973L12.4512-5.66406C12.4512 5.51758 18.6523 11.6699 29.8828 11.6699ZM59.5703-11.2793C47.2168-11.2793 39.3555-16.6504 39.3555-25.1465C39.3555-30.957 43.457-35.3516 49.8535-36.3281L49.8535-36.8652C44.1895-38.4277 41.3086-41.8945 41.3086-46.7773C41.3086-54.2969 48.4863-59.2285 59.6191-59.2285C70.8008-59.2285 77.9785-54.2969 77.9785-46.7773C77.9785-41.8945 75.0488-38.3789 69.4336-36.8652L69.4336-36.3281C75.7812-35.3516 79.9316-30.957 79.9316-25.1465C79.9316-16.6504 71.9727-11.2793 59.5703-11.2793ZM59.6191-40.1367C62.9883-40.1367 65.4297-42.3828 65.4297-45.4102C65.4297-48.3887 62.9395-50.6348 59.6191-50.6348C56.2988-50.6348 53.8086-48.3887 53.8086-45.4102C53.8086-42.3828 56.2988-40.1367 59.6191-40.1367ZM59.668-19.873C63.7207-19.873 66.6504-22.4609 66.6504-26.0742C66.6504-29.6875 63.7695-32.3242 59.668-32.3242C55.6152-32.3242 52.6367-29.6387 52.6367-26.0742C52.6367-22.4609 55.5664-19.873 59.668-19.873Z"/>
  </g>
  <g id="Semibold-M" transform="matrix(1 0 0 1 1984.65 1126)">
   <path d="M29.1016 10.9863L88.0859 10.9863C98.9746 10.9863 104.785 5.17578 104.785-5.56641L104.785-64.8438C104.785-75.5859 98.9746-81.3477 88.0859-81.3477L29.1016-81.3477C18.2617-81.3477 12.4512-75.5859 12.4512-64.8438L12.4512-5.56641C12.4512 5.22461 18.2617 10.9863 29.1016 10.9863ZM58.7402-11.2793C46.9727-11.2793 39.4043-16.6504 39.4043-25C39.4043-30.7617 43.5059-35.3027 49.7559-36.3281L49.7559-36.7676C44.2871-38.3789 41.3574-41.9922 41.3574-46.875C41.3574-54.2969 48.3398-59.2285 58.8379-59.2285C69.3359-59.2285 76.3184-54.2969 76.3184-46.875C76.3184-41.9922 73.291-38.2812 67.9199-36.7676L67.9199-36.3281C74.1211-35.3027 78.2715-30.8105 78.2715-25.0488C78.2715-16.6992 70.5566-11.2793 58.7402-11.2793ZM58.8379-39.6973C62.793-39.6973 65.625-42.2363 65.625-45.752C65.625-49.2188 62.7441-51.7578 58.8379-51.7578C54.8828-51.7578 52.002-49.2188 52.002-45.752C52.002-42.2363 54.8828-39.6973 58.8379-39.6973ZM58.8379-18.75C63.5742-18.75 67.041-21.7285 67.041-25.8301C67.041-29.834 63.6719-32.8125 58.8379-32.8125C54.1504-32.8125 50.6348-29.7852 50.6348-25.8301C50.6348-21.7285 54.1016-18.75 58.8379-18.75Z"/>
  </g>
  <g id="Medium-M" transform="matrix(1 0 0 1 1688.47 1126)">
   <path d="M28.5156 10.4492L87.6465 10.4492C98.2422 10.4492 103.711 4.98047 103.711-5.46875L103.711-64.8926C103.711-75.3418 98.2422-80.8105 87.6465-80.8105L28.5156-80.8105C17.9688-80.8105 12.4512-75.3906 12.4512-64.8926L12.4512-5.46875C12.4512 4.98047 17.9688 10.4492 28.5156 10.4492ZM58.1543-11.2793C46.8262-11.2793 39.4043-16.6992 39.4043-24.9512C39.4043-30.6641 43.5059-35.2539 49.707-36.377L49.707-36.7188C44.3848-38.2812 41.4062-42.041 41.4062-46.9238C41.4062-54.248 48.1934-59.2285 58.2031-59.2285C68.2129-59.2285 75.0488-54.248 75.0488-46.9238C75.0488-42.041 71.9727-38.2324 66.748-36.7188L66.748-36.377C72.9004-35.2539 77.002-30.7129 77.002-25C77.002-16.748 69.4824-11.2793 58.1543-11.2793ZM58.2031-39.4043C62.6465-39.4043 65.7715-42.1875 65.7715-46.0449C65.7715-49.8047 62.6465-52.5391 58.2031-52.5391C53.8086-52.5391 50.6348-49.8047 50.6348-46.0449C50.6348-42.1875 53.8086-39.4043 58.2031-39.4043ZM58.252-17.9199C63.4766-17.9199 67.334-21.1426 67.334-25.5859C67.334-29.9805 63.5742-33.1543 58.252-33.1543C53.0273-33.1543 49.1211-29.9316 49.1211-25.5859C49.1211-21.1426 52.9785-17.9199 58.252-17.9199Z"/>
  </g>
  <g id="Regular-M" transform="matrix(1 0 0 1 1392.45 1126)">
   <path d="M27.7832 9.76562L87.0117 9.76562C97.2656 9.76562 102.344 4.6875 102.344-5.37109L102.344-64.9902C102.344-75.0488 97.2656-80.127 87.0117-80.127L27.7832-80.127C17.5781-80.127 12.4512-75.0977 12.4512-64.9902L12.4512-5.37109C12.4512 4.73633 17.5781 9.76562 27.7832 9.76562ZM57.3242-11.2793C46.6309-11.2793 39.4531-16.6992 39.4531-24.8535C39.4531-30.4688 43.5547-35.1562 49.6094-36.377L49.6094-36.6699C44.5312-38.2324 41.4551-42.1387 41.4551-46.9727C41.4551-54.248 48.0469-59.2285 57.4219-59.2285C66.7969-59.2285 73.3887-54.248 73.3887-46.9727C73.3887-42.1387 70.2148-38.1348 65.2344-36.6699L65.2344-36.377C71.2402-35.1562 75.3418-30.5176 75.3418-24.9023C75.3418-16.7969 68.0664-11.2793 57.3242-11.2793ZM57.4219-38.9648C62.4023-38.9648 65.9668-42.041 65.9668-46.3867C65.9668-50.5859 62.4512-53.6133 57.4219-53.6133C52.3926-53.6133 48.877-50.5859 48.877-46.3867C48.877-42.041 52.3926-38.9648 57.4219-38.9648ZM57.4707-16.8457C63.3301-16.8457 67.6758-20.3613 67.6758-25.293C67.6758-30.127 63.4766-33.6426 57.4707-33.6426C51.6113-33.6426 47.168-30.0781 47.168-25.293C47.168-20.3613 51.5625-16.8457 57.4707-16.8457Z"/>
  </g>
  <g id="Light-M" transform="matrix(1 0 0 1 1096.47 1126)">
   <path d="M26.8555 9.0332L86.4746 9.0332C95.9961 9.0332 100.879 4.15039 100.879-5.22461L100.879-65.0879C100.879-74.5117 95.9961-79.3945 86.4746-79.3945L26.8555-79.3945C17.334-79.3945 12.4512-74.5605 12.4512-65.0879L12.4512-5.22461C12.4512 4.19922 17.334 9.0332 26.8555 9.0332ZM56.5918-11.9141C46.582-11.9141 39.6973-17.2852 39.6973-25.0977C39.6973-30.5664 43.75-35.2051 49.5605-36.377L49.5605-36.6699C44.6777-38.1348 41.6016-42.041 41.6016-46.7285C41.6016-53.7109 47.8516-58.5938 56.6895-58.5938C65.4785-58.5938 71.7285-53.7109 71.7285-46.7285C71.7285-42.041 68.6035-38.0371 63.7695-36.6699L63.7695-36.377C69.5801-35.2051 73.6328-30.6152 73.6328-25.1465C73.6328-17.334 66.6504-11.9141 56.5918-11.9141ZM56.6895-38.5254C62.0605-38.5254 65.918-41.748 65.918-46.3379C65.918-50.8789 62.1094-54.1016 56.6895-54.1016C51.2207-54.1016 47.4121-50.8789 47.4121-46.3379C47.4121-41.748 51.2695-38.5254 56.6895-38.5254ZM56.6895-16.4062C63.0371-16.4062 67.7246-20.166 67.7246-25.3906C67.7246-30.5176 63.1348-34.1797 56.6895-34.1797C50.3418-34.1797 45.6543-30.4688 45.6543-25.3906C45.6543-20.166 50.293-16.4062 56.6895-16.4062Z"/>
  </g>
  <g id="Thin-M" transform="matrix(1 0 0 1 800.758 1126)">
   <path d="M25.6348 8.05664L85.7422 8.05664C94.3848 8.05664 98.877 3.4668 98.877-5.0293L98.877-65.2344C98.877-73.7305 94.3848-78.3691 85.7422-78.3691L25.6348-78.3691C16.9922-78.3691 12.4512-73.877 12.4512-65.2344L12.4512-5.0293C12.4512 3.56445 16.9922 8.05664 25.6348 8.05664ZM55.6641-12.7441C46.4844-12.7441 40.0391-18.0176 40.0391-25.4883C40.0391-30.7129 43.9941-35.3027 49.4629-36.377L49.4629-36.6211C44.873-37.9883 41.7969-41.8945 41.7969-46.3379C41.7969-53.0273 47.6074-57.7637 55.6641-57.7637C63.7695-57.7637 69.5801-53.0273 69.5801-46.3379C69.5801-41.8945 66.4551-37.9395 61.9141-36.6211L61.9141-36.377C67.334-35.3027 71.3379-30.7129 71.3379-25.4883C71.3379-18.0664 64.7949-12.7441 55.6641-12.7441ZM55.6641-37.8418C61.6211-37.8418 65.918-41.3574 65.918-46.2402C65.918-51.1719 61.7188-54.6875 55.6641-54.6875C49.6582-54.6875 45.459-51.1719 45.459-46.2402C45.459-41.3574 49.7559-37.8418 55.6641-37.8418ZM55.7129-15.8203C62.6953-15.8203 67.7246-19.873 67.7246-25.5371C67.7246-31.0059 62.6953-34.9121 55.7129-34.9121C48.6816-34.9121 43.6523-30.957 43.6523-25.5371C43.6523-19.873 48.6816-15.8203 55.7129-15.8203Z"/>
  </g>
  <g id="Ultralight-M" transform="matrix(1 0 0 1 504.535 1126)">
   <path d="M25 7.56836L85.3516 7.56836C93.5059 7.56836 97.9004 3.125 97.9004-4.98047L97.9004-65.2832C97.9004-73.3887 93.5059-77.832 85.3516-77.832L25-77.832C16.7969-77.832 12.4512-73.4863 12.4512-65.2832L12.4512-4.98047C12.4512 3.22266 16.7969 7.56836 25 7.56836ZM55.1758-13.1836C46.4355-13.1836 40.2344-18.4082 40.2344-25.6836C40.2344-30.7617 44.1406-35.3027 49.4141-36.377L49.4141-36.6211C45.0195-37.9395 41.8945-41.7969 41.8945-46.1426C41.8945-52.6855 47.4609-57.373 55.1758-57.373C62.8906-57.373 68.457-52.6855 68.457-46.1426C68.457-41.7969 65.332-37.8906 60.9375-36.6211L60.9375-36.377C66.2109-35.3027 70.166-30.7617 70.166-25.6836C70.166-18.457 63.8672-13.1836 55.1758-13.1836ZM55.1758-37.5488C61.377-37.5488 65.8691-41.1621 65.8691-46.2402C65.8691-51.3672 61.4746-54.9805 55.1758-54.9805C48.877-54.9805 44.4824-51.3672 44.4824-46.2402C44.4824-41.1621 48.9746-37.5488 55.1758-37.5488ZM55.1758-15.5273C62.5-15.5273 67.7246-19.7266 67.7246-25.5859C67.7246-31.25 62.5-35.3027 55.1758-35.3027C47.8516-35.3027 42.627-31.25 42.627-25.5859C42.627-19.7266 47.8516-15.5273 55.1758-15.5273Z"/>
  </g>
  <g id="Black-S" transform="matrix(1 0 0 1 2885.5 696)">
   <path d="M25 2.92969L70.8008 2.92969C80.3711 2.92969 86.0352-2.73438 86.0352-12.3047L86.0352-58.1055C86.0352-67.6758 80.3711-73.3398 70.8008-73.3398L25-73.3398C15.4297-73.3398 9.76562-67.6758 9.76562-58.1055L9.76562-12.3047C9.76562-2.73438 15.4297 2.92969 25 2.92969ZM48.3887-16.4551C37.4023-16.4551 30.7129-20.6055 30.7129-27.5391C30.7129-32.2266 33.9844-35.4492 39.209-36.0352L39.209-36.6211C34.375-37.8906 32.2266-40.2344 32.2266-44.1406C32.2266-50.2441 38.3301-54.0527 48.3887-54.0527C58.4473-54.0527 64.5508-50.2441 64.5508-44.1406C64.5508-40.2344 62.4023-37.8906 57.5684-36.6211L57.5684-36.0352C62.793-35.4492 66.0645-32.2266 66.0645-27.5391C66.0645-20.6055 59.375-16.4551 48.3887-16.4551ZM48.3887-39.9414C49.8047-39.9414 50.8789-41.0645 50.8789-42.4805C50.8789-43.8965 49.707-45.0684 48.3887-45.0684C47.0703-45.0684 45.8984-43.8965 45.8984-42.4805C45.8984-41.0645 47.0215-39.9414 48.3887-39.9414ZM48.3887-25.4883C50.1953-25.4883 51.4648-26.8066 51.4648-28.6621C51.4648-30.5176 50.1953-31.9336 48.3887-31.9336C46.582-31.9336 45.3125-30.5176 45.3125-28.6621C45.3125-26.8066 46.582-25.4883 48.3887-25.4883Z"/>
  </g>
  <g id="Heavy-S" transform="matrix(1 0 0 1 2589.4 696)">
   <path d="M24.3652 2.34375L70.2637 2.34375C79.541 2.34375 84.8145-2.97852 84.8145-12.207L84.8145-58.2031C84.8145-67.4316 79.541-72.7539 70.2637-72.7539L24.3652-72.7539C15.0879-72.7539 9.76562-67.4316 9.76562-58.2031L9.76562-12.207C9.76562-2.97852 15.0879 2.34375 24.3652 2.34375ZM47.6562-16.4062C37.207-16.4062 30.7129-20.5566 30.7129-27.3926C30.7129-32.0312 33.9844-35.4004 39.1602-36.0352L39.1602-36.5723C34.4727-37.8418 32.2754-40.332 32.2754-44.2383C32.2754-50.293 38.1836-54.1016 47.6562-54.1016C57.1777-54.1016 63.0859-50.293 63.0859-44.2383C63.0859-40.332 60.8398-37.793 56.2012-36.5723L56.2012-36.0352C61.3281-35.4004 64.5996-32.0801 64.5996-27.3926C64.5996-20.5566 58.1055-16.4062 47.6562-16.4062ZM47.6562-39.5996C49.6094-39.5996 51.0742-40.9668 51.0742-42.8223C51.0742-44.6777 49.5605-46.0938 47.6562-46.0938C45.8008-46.0938 44.2871-44.6777 44.2871-42.8223C44.2871-40.9668 45.752-39.5996 47.6562-39.5996ZM47.7051-24.4141C50.0977-24.4141 51.8555-26.0742 51.8555-28.3691C51.8555-30.6641 50.1465-32.373 47.7051-32.373C45.2637-32.373 43.5059-30.6152 43.5059-28.3691C43.5059-26.0742 45.2637-24.4141 47.7051-24.4141Z"/>
  </g>
  <g id="Bold-S" transform="matrix(1 0 0 1 2293.35 696)">
   <path d="M23.6328 1.66016L69.6289 1.66016C78.6133 1.66016 83.4961-3.22266 83.4961-12.1094L83.4961-58.3008C83.4961-67.1875 78.6133-72.0703 69.6289-72.0703L23.6328-72.0703C14.6973-72.0703 9.76562-67.1875 9.76562-58.3008L9.76562-12.1094C9.76562-3.22266 14.6973 1.66016 23.6328 1.66016ZM46.8262-16.3086C36.9629-16.3086 30.7617-20.5078 30.7617-27.2461C30.7617-31.8359 33.9844-35.3027 39.0625-36.084L39.0625-36.4746C34.5703-37.7441 32.3242-40.4785 32.3242-44.3848C32.3242-50.293 38.0371-54.1992 46.875-54.1992C55.7129-54.1992 61.4258-50.293 61.4258-44.3848C61.4258-40.4785 59.082-37.6953 54.6875-36.4746L54.6875-36.084C59.7168-35.3027 62.9883-31.8848 62.9883-27.2461C62.9883-20.5566 56.6895-16.3086 46.8262-16.3086ZM46.875-39.1602C49.4141-39.1602 51.2695-40.918 51.2695-43.2129C51.2695-45.5078 49.4141-47.2656 46.875-47.2656C44.3359-47.2656 42.4316-45.5078 42.4316-43.2129C42.4316-40.918 44.3359-39.1602 46.875-39.1602ZM46.875-23.2422C50-23.2422 52.2461-25.2441 52.2461-28.0273C52.2461-30.8105 50.0488-32.8125 46.875-32.8125C43.7988-32.8125 41.5039-30.7617 41.5039-28.0273C41.5039-25.2441 43.7988-23.2422 46.875-23.2422Z"/>
  </g>
  <g id="Semibold-S" transform="matrix(1 0 0 1 1997.1 696)">
   <path d="M23.0957 1.17188L69.1895 1.17188C77.9297 1.17188 82.5684-3.36914 82.5684-12.0117L82.5684-58.3984C82.5684-67.041 77.9297-71.582 69.1895-71.582L23.0957-71.582C14.4043-71.582 9.76562-67.041 9.76562-58.3984L9.76562-12.0117C9.76562-3.36914 14.4043 1.17188 23.0957 1.17188ZM46.2402-16.2598C36.8164-16.2598 30.7617-20.5078 30.7617-27.1484C30.7617-31.6895 33.9844-35.2539 39.0137-36.084L39.0137-36.4746C34.668-37.6953 32.3242-40.5762 32.3242-44.4336C32.3242-50.3418 37.8906-54.248 46.2891-54.248C54.7363-54.248 60.3027-50.3418 60.3027-44.4336C60.3027-40.5762 57.9102-37.6465 53.6133-36.4746L53.6133-36.084C58.5938-35.2539 61.8652-31.7383 61.8652-27.1484C61.8652-20.5078 55.7129-16.2598 46.2402-16.2598ZM46.2891-38.8672C49.3164-38.8672 51.4648-40.8203 51.4648-43.5059C51.4648-46.1426 49.2676-48.0469 46.2891-48.0469C43.3594-48.0469 41.1621-46.1426 41.1621-43.5059C41.1621-40.8203 43.3594-38.8672 46.2891-38.8672ZM46.3379-22.4609C49.9023-22.4609 52.5391-24.707 52.5391-27.7832C52.5391-30.9082 50-33.1543 46.3379-33.1543C42.7734-33.1543 40.1367-30.8594 40.1367-27.7832C40.1367-24.707 42.7734-22.4609 46.3379-22.4609Z"/>
  </g>
  <g id="Medium-S" transform="matrix(1 0 0 1 1700.75 696)">
   <path d="M22.7051 0.830078L68.8965 0.830078C77.4414 0.830078 81.8359-3.51562 81.8359-11.9629L81.8359-58.4473C81.8359-66.8945 77.4414-71.2402 68.8965-71.2402L22.7051-71.2402C14.209-71.2402 9.76562-66.8945 9.76562-58.4473L9.76562-11.9629C9.76562-3.51562 14.209 0.830078 22.7051 0.830078ZM45.8008-16.2109C36.7188-16.2109 30.7617-20.459 30.7617-27.0508C30.7617-31.5918 34.0332-35.2051 38.9648-36.1328L38.9648-36.4258C34.7168-37.6953 32.373-40.625 32.373-44.4824C32.373-50.3418 37.8418-54.2969 45.8984-54.2969C53.9551-54.2969 59.4238-50.3418 59.4238-44.4824C59.4238-40.625 56.9824-37.5977 52.832-36.4258L52.832-36.1328C57.7148-35.2051 60.9863-31.6406 60.9863-27.0996C60.9863-20.5078 54.9316-16.2109 45.8008-16.2109ZM45.8984-38.6719C49.2188-38.6719 51.5625-40.7715 51.5625-43.7012C51.5625-46.582 49.1699-48.6328 45.8984-48.6328C42.5781-48.6328 40.2344-46.582 40.2344-43.7012C40.2344-40.7715 42.5781-38.6719 45.8984-38.6719ZM45.9473-21.8262C49.8535-21.8262 52.7344-24.2676 52.7344-27.6367C52.7344-30.957 49.9512-33.3984 45.9473-33.3984C42.041-33.3984 39.0625-30.9082 39.0625-27.6367C39.0625-24.2676 41.9922-21.8262 45.9473-21.8262Z"/>
  </g>
  <g id="Regular-S" transform="matrix(1 0 0 1 1404.51 696)">
   <path d="M22.2168 0.390625L68.457 0.390625C76.8066 0.390625 80.9082-3.71094 80.9082-11.9141L80.9082-58.4961C80.9082-66.6992 76.8066-70.8008 68.457-70.8008L22.2168-70.8008C13.916-70.8008 9.76562-66.6992 9.76562-58.4961L9.76562-11.9141C9.76562-3.71094 13.916 0.390625 22.2168 0.390625ZM45.2637-16.1621C36.5723-16.1621 30.8105-20.459 30.8105-26.9531C30.8105-31.4453 34.0332-35.1562 38.916-36.1328L38.916-36.377C34.8145-37.6465 32.373-40.7227 32.373-44.5801C32.373-50.3418 37.6953-54.3457 45.3613-54.3457C52.9785-54.3457 58.3008-50.3418 58.3008-44.5801C58.3008-40.7227 55.8105-37.5488 51.7578-36.377L51.7578-36.1328C56.6406-35.1562 59.8633-31.4941 59.8633-27.002C59.8633-20.5078 54.0039-16.1621 45.2637-16.1621ZM45.3613-38.3789C49.0723-38.3789 51.709-40.7227 51.709-43.9941C51.709-47.168 49.0723-49.4141 45.3613-49.4141C41.6016-49.4141 38.9648-47.168 38.9648-43.9941C38.9648-40.7227 41.6016-38.3789 45.3613-38.3789ZM45.4102-21.0449C49.7559-21.0449 53.0273-23.6816 53.0273-27.3926C53.0273-31.0547 49.9023-33.7402 45.4102-33.7402C41.0156-33.7402 37.6953-31.0059 37.6953-27.3926C37.6953-23.6816 40.9668-21.0449 45.4102-21.0449Z"/>
  </g>
  <g id="Light-S" transform="matrix(1 0 0 1 1108.46 696)">
   <path d="M21.3867-0.292969L67.9688-0.292969C75.7324-0.292969 79.5898-4.15039 79.5898-11.7676L79.5898-58.5938C79.5898-66.2109 75.7324-70.1172 67.9688-70.1172L21.3867-70.1172C13.6719-70.1172 9.76562-66.2598 9.76562-58.5938L9.76562-11.7676C9.76562-4.15039 13.6719-0.292969 21.3867-0.292969ZM44.6289-16.6992C36.5234-16.6992 31.0059-20.9473 31.0059-27.1973C31.0059-31.543 34.1797-35.2051 38.8672-36.1328L38.8672-36.377C34.9609-37.5488 32.5195-40.625 32.5195-44.3359C32.5195-49.9023 37.5488-53.8086 44.6777-53.8086C51.8066-53.8086 56.8359-49.9023 56.8359-44.3359C56.8359-40.625 54.3457-37.4512 50.5371-36.377L50.5371-36.1328C55.127-35.2051 58.3496-31.5918 58.3496-27.2461C58.3496-20.9961 52.7344-16.6992 44.6289-16.6992ZM44.6777-37.9883C48.7793-37.9883 51.6602-40.4785 51.6602-43.9453C51.6602-47.3633 48.7793-49.8535 44.6777-49.8535C40.5762-49.8535 37.6953-47.3633 37.6953-43.9453C37.6953-40.4785 40.625-37.9883 44.6777-37.9883ZM44.7266-20.6543C49.5117-20.6543 53.0273-23.4863 53.0273-27.4902C53.0273-31.3965 49.6094-34.2285 44.7266-34.2285C39.9414-34.2285 36.377-31.3477 36.377-27.4902C36.377-23.4863 39.8926-20.6543 44.7266-20.6543Z"/>
  </g>
  <g id="Thin-S" transform="matrix(1 0 0 1 812.599 696)">
   <path d="M20.3125-1.12305L67.334-1.12305C74.2676-1.12305 77.8809-4.78516 77.8809-11.6211L77.8809-58.6914C77.8809-65.5762 74.2676-69.2383 67.334-69.2383L20.3125-69.2383C13.3789-69.2383 9.76562-65.625 9.76562-58.6914L9.76562-11.6211C9.76562-4.6875 13.3789-1.12305 20.3125-1.12305ZM43.7988-17.4316C36.4258-17.4316 31.2988-21.582 31.2988-27.5391C31.2988-31.6406 34.4238-35.2539 38.7695-36.1328L38.7695-36.3281C35.1074-37.4512 32.7148-40.4785 32.7148-43.9941C32.7148-49.3164 37.3535-53.0762 43.7988-53.0762C50.293-53.0762 54.9316-49.3164 54.9316-43.9941C54.9316-40.4785 52.4902-37.3535 48.877-36.3281L48.877-36.1328C53.1738-35.2539 56.2988-31.6895 56.2988-27.5391C56.2988-21.6309 51.123-17.4316 43.7988-17.4316ZM43.7988-37.4023C48.3398-37.4023 51.6602-40.1367 51.6602-43.8965C51.6602-47.6562 48.4375-50.3418 43.7988-50.3418C39.209-50.3418 35.9863-47.6562 35.9863-43.8965C35.9863-40.1367 39.2578-37.4023 43.7988-37.4023ZM43.8477-20.166C49.1699-20.166 53.0762-23.2422 53.0762-27.5879C53.0762-31.7871 49.2188-34.8633 43.8477-34.8633C38.4766-34.8633 34.5703-31.7871 34.5703-27.5879C34.5703-23.2422 38.4766-20.166 43.8477-20.166Z"/>
  </g>
  <g id="Ultralight-S" transform="matrix(1 0 0 1 516.352 696)">
   <path d="M19.7754-1.5625L66.9922-1.5625C73.5352-1.5625 76.9531-5.12695 76.9531-11.5234L76.9531-58.7891C76.9531-65.2344 73.5352-68.75 66.9922-68.75L19.7754-68.75C13.2324-68.75 9.76562-65.2832 9.76562-58.7891L9.76562-11.5234C9.76562-5.0293 13.2324-1.5625 19.7754-1.5625ZM43.3594-17.8223C36.377-17.8223 31.4453-21.9238 31.4453-27.6855C31.4453-31.7383 34.5215-35.3027 38.7207-36.1328L38.7207-36.3281C35.2539-37.3535 32.8125-40.3809 32.8125-43.8477C32.8125-48.9746 37.2559-52.6855 43.3594-52.6855C49.5117-52.6855 53.9551-48.9746 53.9551-43.8477C53.9551-40.3809 51.5137-37.3047 47.998-36.3281L47.998-36.1328C52.1973-35.3027 55.2734-31.7383 55.2734-27.6855C55.2734-21.9727 50.293-17.8223 43.3594-17.8223ZM43.3594-37.1094C48.1445-37.1094 51.6113-39.9414 51.6113-43.8477C51.6113-47.8027 48.2422-50.6348 43.3594-50.6348C38.4766-50.6348 35.1074-47.8027 35.1074-43.8477C35.1074-39.9414 38.5742-37.1094 43.3594-37.1094ZM43.3594-19.873C49.0234-19.873 53.0762-23.1445 53.0762-27.6855C53.0762-32.0312 49.0234-35.1562 43.3594-35.1562C37.7441-35.1562 33.6426-32.0312 33.6426-27.6855C33.6426-23.1445 37.6953-19.873 43.3594-19.873Z"/>
  </g>
 </g>
</svg>
