<?xml version="1.0" encoding="UTF-8"?>
<!--Generator: Apple Native CoreSVG 149-->
<!DOCTYPE svg
PUBLIC "-//W3C//DTD SVG 1.1//EN"
       "http://www.w3.org/Graphics/SVG/1.1/DTD/svg11.dtd">
<svg version="1.1" xmlns="http://www.w3.org/2000/svg" xmlns:xlink="http://www.w3.org/1999/xlink" width="3300" height="2200">
 <!--glyph: "uni1000DB.medium", point size: 100.000000, font version: "Version 16.0d18e1", template writer version: "8"-->
 <g id="Notes">
  <rect height="2200" id="artboard" style="fill:white;opacity:1" width="3300" x="0" y="0"/>
  <line id="" style="fill:none;stroke:black;opacity:1;stroke-width:0.5;" x1="263" x2="3036" y1="292" y2="292"/>
  <text style="stroke:none;fill:black;font-family:-apple-system,&quot;SF Pro Display&quot;,&quot;SF Pro Text&quot;,Helvetica,sans-serif;font-weight:bold;" transform="matrix(1 0 0 1 263 322)">Weight/Scale Variations</text>
  <text style="stroke:none;fill:black;font-family:-apple-system,&quot;SF Pro Display&quot;,&quot;SF Pro Text&quot;,Helvetica,sans-serif;text-anchor:middle;" transform="matrix(1 0 0 1 559.711 322)">Ultralight</text>
  <text style="stroke:none;fill:black;font-family:-apple-system,&quot;SF Pro Display&quot;,&quot;SF Pro Text&quot;,Helvetica,sans-serif;text-anchor:middle;" transform="matrix(1 0 0 1 856.422 322)">Thin</text>
  <text style="stroke:none;fill:black;font-family:-apple-system,&quot;SF Pro Display&quot;,&quot;SF Pro Text&quot;,Helvetica,sans-serif;text-anchor:middle;" transform="matrix(1 0 0 1 1153.13 322)">Light</text>
  <text style="stroke:none;fill:black;font-family:-apple-system,&quot;SF Pro Display&quot;,&quot;SF Pro Text&quot;,Helvetica,sans-serif;text-anchor:middle;" transform="matrix(1 0 0 1 1449.84 322)">Regular</text>
  <text style="stroke:none;fill:black;font-family:-apple-system,&quot;SF Pro Display&quot;,&quot;SF Pro Text&quot;,Helvetica,sans-serif;text-anchor:middle;" transform="matrix(1 0 0 1 1746.56 322)">Medium</text>
  <text style="stroke:none;fill:black;font-family:-apple-system,&quot;SF Pro Display&quot;,&quot;SF Pro Text&quot;,Helvetica,sans-serif;text-anchor:middle;" transform="matrix(1 0 0 1 2043.27 322)">Semibold</text>
  <text style="stroke:none;fill:black;font-family:-apple-system,&quot;SF Pro Display&quot;,&quot;SF Pro Text&quot;,Helvetica,sans-serif;text-anchor:middle;" transform="matrix(1 0 0 1 2339.98 322)">Bold</text>
  <text style="stroke:none;fill:black;font-family:-apple-system,&quot;SF Pro Display&quot;,&quot;SF Pro Text&quot;,Helvetica,sans-serif;text-anchor:middle;" transform="matrix(1 0 0 1 2636.69 322)">Heavy</text>
  <text style="stroke:none;fill:black;font-family:-apple-system,&quot;SF Pro Display&quot;,&quot;SF Pro Text&quot;,Helvetica,sans-serif;text-anchor:middle;" transform="matrix(1 0 0 1 2933.4 322)">Black</text>
  <line id="" style="fill:none;stroke:black;opacity:1;stroke-width:0.5;" x1="263" x2="3036" y1="1903" y2="1903"/>
  <g id="" transform="matrix(1 0 0 1 263 1933)">
   <path d="M9.24805 0.830078C13.5547 0.830078 17.1387-2.74414 17.1387-7.05078C17.1387-11.3574 13.5449-14.9316 9.23828-14.9316C4.94141-14.9316 1.36719-11.3574 1.36719-7.05078C1.36719-2.74414 4.95117 0.830078 9.24805 0.830078ZM9.24805-0.654297C5.70312-0.654297 2.87109-3.49609 2.87109-7.05078C2.87109-10.6055 5.69336-13.4473 9.23828-13.4473C12.793-13.4473 15.6348-10.6055 15.6445-7.05078C15.6543-3.49609 12.8027-0.654297 9.24805-0.654297ZM6.39648-6.31836L8.50586-6.31836L8.50586-4.19922C8.50586-3.75977 8.79883-3.45703 9.22852-3.45703C9.67773-3.45703 9.9707-3.75977 9.9707-4.19922L9.9707-6.31836L12.0996-6.31836C12.5391-6.31836 12.8418-6.61133 12.8418-7.04102C12.8418-7.48047 12.5391-7.7832 12.0996-7.7832L9.9707-7.7832L9.9707-9.89258C9.9707-10.3418 9.67773-10.6445 9.22852-10.6445C8.79883-10.6445 8.50586-10.3418 8.50586-9.89258L8.50586-7.7832L6.39648-7.7832C5.94727-7.7832 5.64453-7.48047 5.64453-7.04102C5.64453-6.61133 5.94727-6.31836 6.39648-6.31836Z"/>
  </g>
  <g id="" transform="matrix(1 0 0 1 281.506 1933)">
   <path d="M11.709 2.91016C17.1582 2.91016 21.6699-1.61133 21.6699-7.05078C21.6699-12.5 17.1484-17.0117 11.6992-17.0117C6.25977-17.0117 1.74805-12.5 1.74805-7.05078C1.74805-1.61133 6.26953 2.91016 11.709 2.91016ZM11.709 1.25C7.09961 1.25 3.41797-2.44141 3.41797-7.05078C3.41797-11.6602 7.08984-15.3516 11.6992-15.3516C16.3086-15.3516 20-11.6602 20.0098-7.05078C20.0195-2.44141 16.3184 1.25 11.709 1.25ZM7.98828-6.23047L10.8789-6.23047L10.8789-3.32031C10.8789-2.83203 11.2109-2.5 11.6895-2.5C12.1777-2.5 12.5195-2.83203 12.5195-3.32031L12.5195-6.23047L15.4297-6.23047C15.918-6.23047 16.25-6.5625 16.25-7.04102C16.25-7.5293 15.918-7.87109 15.4297-7.87109L12.5195-7.87109L12.5195-10.7617C12.5195-11.2695 12.1777-11.6016 11.6895-11.6016C11.2109-11.6016 10.8789-11.2598 10.8789-10.7617L10.8789-7.87109L7.98828-7.87109C7.48047-7.87109 7.14844-7.5293 7.14844-7.04102C7.14844-6.5625 7.49023-6.23047 7.98828-6.23047Z"/>
  </g>
  <g id="" transform="matrix(1 0 0 1 304.924 1933)">
   <path d="M14.9707 5.66406C21.9336 5.66406 27.6953-0.0976562 27.6953-7.05078C27.6953-14.0137 21.9238-19.7754 14.9609-19.7754C8.00781-19.7754 2.25586-14.0137 2.25586-7.05078C2.25586-0.0976562 8.01758 5.66406 14.9707 5.66406ZM14.9707 3.84766C8.93555 3.84766 4.08203-1.01562 4.08203-7.05078C4.08203-13.0957 8.92578-17.9492 14.9609-17.9492C21.0059-17.9492 25.8594-13.0957 25.8691-7.05078C25.8789-1.01562 21.0156 3.84766 14.9707 3.84766ZM10.0586-6.14258L14.0625-6.14258L14.0625-2.12891C14.0625-1.5918 14.4336-1.2207 14.9512-1.2207C15.4883-1.2207 15.8594-1.5918 15.8594-2.12891L15.8594-6.14258L19.8828-6.14258C20.4102-6.14258 20.791-6.51367 20.791-7.03125C20.791-7.56836 20.4199-7.94922 19.8828-7.94922L15.8594-7.94922L15.8594-11.9531C15.8594-12.5098 15.4883-12.8809 14.9512-12.8809C14.4336-12.8809 14.0625-12.5 14.0625-11.9531L14.0625-7.94922L10.0586-7.94922C9.50195-7.94922 9.13086-7.56836 9.13086-7.03125C9.13086-6.51367 9.51172-6.14258 10.0586-6.14258Z"/>
  </g>
  <text style="stroke:none;fill:black;font-family:-apple-system,&quot;SF Pro Display&quot;,&quot;SF Pro Text&quot;,Helvetica,sans-serif;font-weight:bold;" transform="matrix(1 0 0 1 263 1953)">Design Variations</text>
  <text style="stroke:none;fill:black;font-family:-apple-system,&quot;SF Pro Display&quot;,&quot;SF Pro Text&quot;,Helvetica,sans-serif;" transform="matrix(1 0 0 1 263 1971)">Symbols are supported in up to nine weights and three scales.</text>
  <text style="stroke:none;fill:black;font-family:-apple-system,&quot;SF Pro Display&quot;,&quot;SF Pro Text&quot;,Helvetica,sans-serif;" transform="matrix(1 0 0 1 263 1989)">For optimal layout with text and other symbols, vertically align</text>
  <text style="stroke:none;fill:black;font-family:-apple-system,&quot;SF Pro Display&quot;,&quot;SF Pro Text&quot;,Helvetica,sans-serif;" transform="matrix(1 0 0 1 263 2007)">symbols with the adjacent text.</text>
  <line id="" style="fill:none;stroke:#00AEEF;stroke-width:0.5;opacity:1.0;" x1="776" x2="776" y1="1919" y2="1933"/>
  <g id="" transform="matrix(1 0 0 1 776 1933)">
   <path d="M3.31055 0.126953C3.82812 0.126953 4.08203-0.0683594 4.26758-0.605469L5.52734-4.0625L11.2891-4.0625L12.5488-0.605469C12.7344-0.0683594 12.9883 0.126953 13.4961 0.126953C14.0137 0.126953 14.3457-0.185547 14.3457-0.673828C14.3457-0.839844 14.3164-0.986328 14.2383-1.20117L9.6582-13.3887C9.43359-13.9941 9.0332-14.2871 8.4082-14.2871C7.80273-14.2871 7.39258-13.9941 7.17773-13.3984L2.59766-1.19141C2.51953-0.976562 2.49023-0.830078 2.49023-0.664062C2.49023-0.175781 2.80273 0.126953 3.31055 0.126953ZM6.00586-5.53711L8.37891-12.1094L8.42773-12.1094L10.8008-5.53711Z"/>
  </g>
  <line id="" style="fill:none;stroke:#00AEEF;stroke-width:0.5;opacity:1.0;" x1="792.836" x2="792.836" y1="1919" y2="1933"/>
  <text style="stroke:none;fill:black;font-family:-apple-system,&quot;SF Pro Display&quot;,&quot;SF Pro Text&quot;,Helvetica,sans-serif;font-weight:bold;" transform="matrix(1 0 0 1 776 1953)">Margins</text>
  <text style="stroke:none;fill:black;font-family:-apple-system,&quot;SF Pro Display&quot;,&quot;SF Pro Text&quot;,Helvetica,sans-serif;" transform="matrix(1 0 0 1 776 1971)">Leading and trailing margins on the left and right side of each symbol</text>
  <text style="stroke:none;fill:black;font-family:-apple-system,&quot;SF Pro Display&quot;,&quot;SF Pro Text&quot;,Helvetica,sans-serif;" transform="matrix(1 0 0 1 776 1989)">can be adjusted by modifying the x-location of the margin guidelines.</text>
  <text style="stroke:none;fill:black;font-family:-apple-system,&quot;SF Pro Display&quot;,&quot;SF Pro Text&quot;,Helvetica,sans-serif;" transform="matrix(1 0 0 1 776 2007)">Modifications are automatically applied proportionally to all</text>
  <text style="stroke:none;fill:black;font-family:-apple-system,&quot;SF Pro Display&quot;,&quot;SF Pro Text&quot;,Helvetica,sans-serif;" transform="matrix(1 0 0 1 776 2025)">scales and weights.</text>
  <g id="" transform="matrix(1 0 0 1 1289 1933)">
   <path d="M2.8418 1.86523L4.54102 3.57422C5.40039 4.44336 6.38672 4.38477 7.31445 3.35938L17.4902-7.85156C17.7539-7.76367 18.0273-7.7832 18.3398-7.8418L19.4043-8.03711L20.0684-7.36328L20.0293-6.80664C19.9902-6.30859 20.1172-5.92773 20.6055-5.44922L21.3672-4.70703C21.8457-4.22852 22.4609-4.19922 22.9297-4.66797L25.8398-7.58789C26.3086-8.05664 26.2891-8.65234 25.8105-9.13086L25.0391-9.89258C24.5605-10.3711 24.1895-10.5273 23.7109-10.4883L23.1348-10.4395L22.4902-11.0742L22.7344-12.1973C22.8613-12.7637 22.7051-13.2031 22.1191-13.7891L19.9219-15.9766C16.582-19.2969 12.1484-19.2188 9.25781-16.3281C8.83789-15.918 8.80859-15.3418 9.04297-14.9512C9.27734-14.5898 9.73633-14.3555 10.3809-14.5215C11.8457-14.8633 13.3691-14.9219 14.7949-13.9844L14.209-12.5293C14.0137-12.0508 13.9844-11.6504 14.1113-11.2891L3.04688-0.898438C2.06055 0.0195312 1.98242 0.996094 2.8418 1.86523ZM10.752-15.957C13.1836-17.7344 16.4746-17.4316 18.7012-15.2051L21.1328-12.793C21.3672-12.5586 21.4062-12.373 21.3379-12.0312L21.0156-10.5469L22.5195-9.0625L23.5059-9.12109C23.7598-9.13086 23.8379-9.11133 24.0332-8.91602L24.6094-8.33984L22.168-5.89844L21.5918-6.47461C21.3965-6.66992 21.3672-6.74805 21.377-7.01172L21.4453-7.98828L19.9512-9.47266L18.4277-9.21875C18.1055-9.15039 17.959-9.17969 17.7148-9.41406L15.7129-11.416C15.459-11.6504 15.4297-11.8164 15.5859-12.1875L16.4648-14.2773C14.9023-15.7324 12.8711-16.3574 10.8398-15.7617C10.6836-15.7227 10.625-15.8496 10.752-15.957ZM5.27344 2.30469L4.10156 1.14258C3.63281 0.683594 3.74023 0.341797 4.14062-0.0195312L14.9512-10.1953L16.416-8.71094L6.42578 2.27539C6.07422 2.67578 5.74219 2.77344 5.27344 2.30469Z"/>
  </g>
  <text style="stroke:none;fill:black;font-family:-apple-system,&quot;SF Pro Display&quot;,&quot;SF Pro Text&quot;,Helvetica,sans-serif;font-weight:bold;" transform="matrix(1 0 0 1 1289 1953)">Exporting</text>
  <text style="stroke:none;fill:black;font-family:-apple-system,&quot;SF Pro Display&quot;,&quot;SF Pro Text&quot;,Helvetica,sans-serif;" transform="matrix(1 0 0 1 1289 1971)">Symbols should be outlined when exporting to ensure the</text>
  <text style="stroke:none;fill:black;font-family:-apple-system,&quot;SF Pro Display&quot;,&quot;SF Pro Text&quot;,Helvetica,sans-serif;" transform="matrix(1 0 0 1 1289 1989)">design is preserved when submitting to Xcode.</text>
  <text id="template-version" style="stroke:none;fill:black;font-family:-apple-system,&quot;SF Pro Display&quot;,&quot;SF Pro Text&quot;,Helvetica,sans-serif;text-anchor:end;" transform="matrix(1 0 0 1 3036 1933)">Template v.2.0</text>
  <text style="stroke:none;fill:black;font-family:-apple-system,&quot;SF Pro Display&quot;,&quot;SF Pro Text&quot;,Helvetica,sans-serif;text-anchor:end;" transform="matrix(1 0 0 1 3036 1951)">Requires Xcode 12 or greater</text>
  <text style="stroke:none;fill:black;font-family:-apple-system,&quot;SF Pro Display&quot;,&quot;SF Pro Text&quot;,Helvetica,sans-serif;text-anchor:end;" transform="matrix(1 0 0 1 3036 1969)">Generated from 9.square.fill</text>
  <text style="stroke:none;fill:black;font-family:-apple-system,&quot;SF Pro Display&quot;,&quot;SF Pro Text&quot;,Helvetica,sans-serif;text-anchor:end;" transform="matrix(1 0 0 1 3036 1987)">Typeset at 100 points</text>
  <text style="stroke:none;fill:black;font-family:-apple-system,&quot;SF Pro Display&quot;,&quot;SF Pro Text&quot;,Helvetica,sans-serif;" transform="matrix(1 0 0 1 263 726)">Small</text>
  <text style="stroke:none;fill:black;font-family:-apple-system,&quot;SF Pro Display&quot;,&quot;SF Pro Text&quot;,Helvetica,sans-serif;" transform="matrix(1 0 0 1 263 1156)">Medium</text>
  <text style="stroke:none;fill:black;font-family:-apple-system,&quot;SF Pro Display&quot;,&quot;SF Pro Text&quot;,Helvetica,sans-serif;" transform="matrix(1 0 0 1 263 1586)">Large</text>
 </g>
 <g id="Guides">
  <g id="H-reference" style="fill:#27AAE1;stroke:none;" transform="matrix(1 0 0 1 339 696)">
   <path d="M0.976562 0L3.66211 0L12.9883-24.4629L45.752-24.4629L55.127 0L57.7637 0L30.6152-70.459L28.125-70.459ZM29.3457-67.1387L29.4434-67.1387L44.873-26.709L13.8672-26.709Z"/>
  </g>
  <line id="Baseline-S" style="fill:none;stroke:#27AAE1;opacity:1;stroke-width:0.5;" x1="263" x2="3036" y1="696" y2="696"/>
  <line id="Capline-S" style="fill:none;stroke:#27AAE1;opacity:1;stroke-width:0.5;" x1="263" x2="3036" y1="625.541" y2="625.541"/>
  <g id="H-reference" style="fill:#27AAE1;stroke:none;" transform="matrix(1 0 0 1 339 1126)">
   <path d="M0.976562 0L3.66211 0L12.9883-24.4629L45.752-24.4629L55.127 0L57.7637 0L30.6152-70.459L28.125-70.459ZM29.3457-67.1387L29.4434-67.1387L44.873-26.709L13.8672-26.709Z"/>
  </g>
  <line id="Baseline-M" style="fill:none;stroke:#27AAE1;opacity:1;stroke-width:0.5;" x1="263" x2="3036" y1="1126" y2="1126"/>
  <line id="Capline-M" style="fill:none;stroke:#27AAE1;opacity:1;stroke-width:0.5;" x1="263" x2="3036" y1="1055.54" y2="1055.54"/>
  <g id="H-reference" style="fill:#27AAE1;stroke:none;" transform="matrix(1 0 0 1 339 1556)">
   <path d="M0.976562 0L3.66211 0L12.9883-24.4629L45.752-24.4629L55.127 0L57.7637 0L30.6152-70.459L28.125-70.459ZM29.3457-67.1387L29.4434-67.1387L44.873-26.709L13.8672-26.709Z"/>
  </g>
  <line id="Baseline-L" style="fill:none;stroke:#27AAE1;opacity:1;stroke-width:0.5;" x1="263" x2="3036" y1="1556" y2="1556"/>
  <line id="Capline-L" style="fill:none;stroke:#27AAE1;opacity:1;stroke-width:0.5;" x1="263" x2="3036" y1="1485.54" y2="1485.54"/>
  <line id="left-margin" style="fill:none;stroke:#00AEEF;stroke-width:0.5;opacity:1.0;" x1="1392.45" x2="1392.45" y1="1030.79" y2="1150.12"/>
  <line id="right-margin" style="fill:none;stroke:#00AEEF;stroke-width:0.5;opacity:1.0;" x1="1507.24" x2="1507.24" y1="1030.79" y2="1150.12"/>
 </g>
 <g id="Symbols">
  <g id="Black-L" transform="matrix(1 0 0 1 2855.62 1556)">
   <path d="M39.9902 26.5137L115.576 26.5137C130.811 26.5137 139.502 17.8711 139.502 2.68555L139.502-73.0957C139.502-88.2812 130.811-96.875 115.576-96.875L39.9902-96.875C24.7559-96.875 16.0645-88.2812 16.0645-73.0957L16.0645 2.68555C16.0645 17.8711 24.7559 26.5137 39.9902 26.5137ZM77.832-4.15039C66.2109-4.15039 59.5215-7.95898 57.0312-12.8418C56.3965-13.9648 56.1035-15.1855 56.1035-16.4551C56.1035-20.459 59.5703-23.5352 63.7695-23.5352C67.3828-23.5352 69.2871-22.4609 70.9473-21.2891C72.9492-19.6777 74.8535-18.6035 77.832-18.6035C83.4961-18.6035 87.2559-24.8535 86.3281-33.3984L85.6445-33.3984C83.5449-28.8574 78.9551-25.8301 72.1191-25.8301C60.6445-25.8301 52.4902-32.8613 52.4902-44.4824C52.4902-57.4219 63.1348-66.4062 78.3203-66.4062C95.5078-66.4062 105.615-55.127 105.615-35.7422C105.615-15.6738 95.459-4.15039 77.832-4.15039ZM79.1016-37.8906C83.3496-37.8906 86.2305-40.8691 86.2305-44.9707C86.2305-49.1211 83.2031-52.1973 79.1016-52.1973C74.8047-52.1973 71.875-49.2188 71.875-44.9707C71.875-40.8203 74.9023-37.8906 79.1016-37.8906Z"/>
  </g>
  <g id="Heavy-L" transform="matrix(1 0 0 1 2559.93 1556)">
   <path d="M38.8184 25.4883L114.697 25.4883C129.346 25.4883 137.451 17.4316 137.451 2.88086L137.451-73.2422C137.451-87.793 129.346-95.8496 114.697-95.8496L38.8184-95.8496C24.2188-95.8496 16.0645-87.793 16.0645-73.2422L16.0645 2.88086C16.0645 17.4316 24.2188 25.4883 38.8184 25.4883ZM76.4648-4.29688C65.1367-4.29688 58.5449-8.54492 56.2988-13.2812C55.7617-14.3066 55.5176-15.3809 55.5176-16.5039C55.5176-20.0684 58.4961-22.8027 62.207-22.8027C65.4297-22.8027 67.1387-21.7285 68.6523-20.5078C70.8008-18.3594 73.0469-17.041 76.416-17.041C82.959-17.041 87.2559-23.877 86.5723-34.0332L85.9375-34.0332C83.7891-29.2969 79.0039-26.0254 71.7773-26.0254C60.6445-26.0254 52.2949-33.0566 52.2949-44.7266C52.2949-57.4707 62.4512-66.2598 77.0508-66.2598C93.5059-66.2598 103.223-55.3223 103.223-36.1816C103.223-15.7227 93.457-4.29688 76.4648-4.29688ZM77.7344-36.7188C82.7637-36.7188 86.2793-40.2832 86.2793-45.1172C86.2793-50.0977 82.6172-53.8086 77.7344-53.8086C72.6562-53.8086 69.1406-50.293 69.1406-45.166C69.1406-40.2344 72.7051-36.7188 77.7344-36.7188Z"/>
  </g>
  <g id="Bold-L" transform="matrix(1 0 0 1 2264.37 1556)">
   <path d="M37.5 24.3652L113.721 24.3652C127.637 24.3652 135.156 16.8945 135.156 3.07617L135.156-73.3887C135.156-87.207 127.637-94.7266 113.721-94.7266L37.5-94.7266C23.6328-94.7266 16.0645-87.2559 16.0645-73.3887L16.0645 3.07617C16.0645 16.8945 23.6328 24.3652 37.5 24.3652ZM74.9023-4.49219C63.916-4.49219 57.4219-9.13086 55.4688-13.7695C55.0293-14.6484 54.834-15.5762 54.834-16.5527C54.834-19.6289 57.3242-21.9238 60.498-21.9238C63.2324-21.9238 64.6973-20.8984 66.0645-19.6289C68.3594-16.8945 70.9961-15.332 74.8047-15.332C82.373-15.332 87.3047-22.8027 86.8164-34.7168L86.2305-34.7168C84.082-29.7852 79.1016-26.1719 71.3867-26.1719C60.5957-26.1719 52.0508-33.3008 52.0508-44.9707C52.0508-57.5195 61.6699-66.0645 75.6836-66.0645C91.2598-66.0645 100.488-55.5664 100.488-36.7188C100.488-15.7715 91.2598-4.49219 74.9023-4.49219ZM76.2207-35.4492C82.1289-35.4492 86.3281-39.6484 86.3281-45.3613C86.3281-51.2207 81.9824-55.5664 76.2207-55.5664C70.2148-55.5664 66.0645-51.4648 66.0645-45.4102C66.0645-39.5996 70.2637-35.4492 76.2207-35.4492Z"/>
  </g>
  <g id="Semibold-L" transform="matrix(1 0 0 1 1968.44 1556)">
   <path d="M36.6211 23.584L113.037 23.584C126.514 23.584 133.594 16.5039 133.594 3.17383L133.594-73.5352C133.594-86.8164 126.514-93.9453 113.037-93.9453L36.6211-93.9453C23.1934-93.9453 16.0645-86.8652 16.0645-73.5352L16.0645 3.17383C16.0645 16.5527 23.1934 23.584 36.6211 23.584ZM73.7793-4.63867C63.0859-4.63867 56.6895-9.57031 54.8828-14.1113C54.541-14.8926 54.3945-15.7227 54.3945-16.6016C54.3945-19.3359 56.4941-21.3379 59.3262-21.3379C61.7188-21.3379 63.0371-20.3613 64.2578-18.9941C66.6504-15.918 69.6289-14.1602 73.7305-14.1602C81.9824-14.1602 87.3535-22.0703 86.9629-35.1562L86.4746-35.1562C84.2773-30.127 79.1504-26.3184 71.1426-26.3184C60.5469-26.3184 51.9043-33.4473 51.9043-45.166C51.9043-57.5684 61.1328-65.918 74.707-65.918C89.6973-65.918 98.6328-55.7129 98.6328-37.0605C98.6328-15.8203 89.6973-4.63867 73.7793-4.63867ZM75.1465-34.5703C81.6895-34.5703 86.377-39.209 86.377-45.459C86.377-52.002 81.543-56.7871 75.1953-56.7871C68.5547-56.7871 63.9648-52.2461 63.9648-45.6055C63.9648-39.1602 68.5547-34.5703 75.1465-34.5703Z"/>
  </g>
  <g id="Medium-L" transform="matrix(1 0 0 1 1672.31 1556)">
   <path d="M35.9375 22.998L112.5 22.998C125.635 22.998 132.422 16.2109 132.422 3.27148L132.422-73.6328C132.422-86.5234 125.635-93.3105 112.5-93.3105L35.9375-93.3105C22.9004-93.3105 16.0645-86.5723 16.0645-73.6328L16.0645 3.27148C16.0645 16.2598 22.9004 22.998 35.9375 22.998ZM72.998-4.73633C62.4512-4.73633 56.1035-9.86328 54.4922-14.3555C54.1992-15.0879 54.0039-15.8203 54.0039-16.6504C54.0039-19.0918 55.9082-20.8984 58.4473-20.8984C60.5469-20.8984 61.8164-19.9219 62.9395-18.5547C65.3809-15.1367 68.5547-13.2324 72.9004-13.2324C81.6406-13.2324 87.3535-21.5332 87.1094-35.5469L86.6211-35.5469C84.4238-30.3711 79.1992-26.416 70.9473-26.416C60.5469-26.416 51.8066-33.5449 51.8066-45.2637C51.8066-57.6172 60.6934-65.8203 74.0234-65.8203C88.5254-65.8203 97.2168-55.8594 97.2168-37.3047C97.2168-15.8203 88.5254-4.73633 72.998-4.73633ZM74.3652-33.8867C81.3477-33.8867 86.4258-38.8672 86.4258-45.6055C86.4258-52.5879 81.2012-57.7148 74.4141-57.7148C67.2852-57.7148 62.3535-52.8809 62.3535-45.7031C62.3535-38.8672 67.2852-33.8867 74.3652-33.8867Z"/>
  </g>
  <g id="Regular-L" transform="matrix(1 0 0 1 1376.38 1556)">
   <path d="M35.0586 22.2168L111.816 22.2168C124.463 22.2168 130.859 15.8691 130.859 3.41797L130.859-73.7305C130.859-86.1816 124.463-92.5293 111.816-92.5293L35.0586-92.5293C22.4609-92.5293 16.0645-86.2305 16.0645-73.7305L16.0645 3.41797C16.0645 15.918 22.4609 22.2168 35.0586 22.2168ZM71.9238-4.83398C61.5723-4.83398 55.3223-10.3027 53.9062-14.6973C53.7109-15.332 53.5645-15.9668 53.5645-16.6504C53.5645-18.7988 55.0781-20.3125 57.2754-20.3125C59.082-20.3125 60.1562-19.3848 61.1816-17.9688C63.7207-14.1602 67.1387-12.0605 71.8262-12.0605C81.25-12.0605 87.4023-20.8008 87.3047-35.9863L86.8652-35.9863C84.6191-30.7129 79.248-26.5137 70.7031-26.5137C60.5469-26.5137 51.6602-33.6914 51.6602-45.459C51.6602-57.666 60.1562-65.6738 73.0469-65.6738C87.0117-65.6738 95.4102-56.0059 95.4102-37.6953C95.4102-15.8691 87.0117-4.83398 71.9238-4.83398ZM73.291-33.0078C80.9082-33.0078 86.4258-38.4766 86.4258-45.752C86.4258-53.3203 80.8105-58.9355 73.3887-58.9355C65.625-58.9355 60.2539-53.6621 60.2539-45.8496C60.2539-38.4277 65.625-33.0078 73.291-33.0078Z"/>
  </g>
  <g id="Light-L" transform="matrix(1 0 0 1 1080.5 1556)">
   <path d="M34.0332 21.4355L111.23 21.4355C123.096 21.4355 129.199 15.2344 129.199 3.56445L129.199-73.8281C129.199-85.5469 123.096-91.6992 111.23-91.6992L34.0332-91.6992C22.168-91.6992 16.0645-85.6445 16.0645-73.8281L16.0645 3.56445C16.0645 15.3809 22.168 21.4355 34.0332 21.4355ZM71.1426-5.56641C61.6699-5.56641 55.2246-11.084 54.0039-15.2344C53.8086-15.7715 53.7109-16.2598 53.7109-16.8945C53.7109-18.6035 54.9316-19.7266 56.5918-19.7266C58.0078-19.7266 58.8379-18.9941 59.7168-17.6758C62.1094-13.6719 66.1133-11.2793 71.1426-11.2793C81.1035-11.2793 87.3535-20.3613 87.3047-36.8164L86.9629-36.8164C84.4238-30.9082 78.8574-26.8066 70.3613-26.8066C60.1562-26.8066 51.8066-34.2773 51.8066-45.4102C51.8066-57.1289 60.1562-64.9902 72.2656-64.9902C85.3027-64.9902 93.6035-55.8594 93.6035-38.0859C93.6035-16.3086 85.4492-5.56641 71.1426-5.56641ZM72.3145-32.0801C80.4688-32.0801 86.377-37.9395 86.377-45.6543C86.377-53.6621 80.2734-59.5703 72.4121-59.5703C64.2578-59.5703 58.4473-53.9551 58.4473-45.8008C58.4473-37.8906 64.1602-32.0801 72.3145-32.0801Z"/>
  </g>
  <g id="Thin-L" transform="matrix(1 0 0 1 784.889 1556)">
   <path d="M32.666 20.3613L110.352 20.3613C121.24 20.3613 127.002 14.4531 127.002 3.75977L127.002-73.9746C127.002-84.7168 121.24-90.5762 110.352-90.5762L32.666-90.5762C21.7773-90.5762 16.0645-84.8633 16.0645-73.9746L16.0645 3.75977C16.0645 14.6484 21.7773 20.3613 32.666 20.3613ZM70.166-6.49414C61.8164-6.49414 55.127-12.1582 54.1016-16.0156C54.0039-16.3574 53.9062-16.6504 53.9062-17.1875C53.9062-18.3105 54.6875-18.9941 55.7129-18.9941C56.6406-18.9941 57.1289-18.5059 57.7637-17.334C60.0098-13.0859 64.6973-10.2051 70.2148-10.2051C80.957-10.2051 87.3535-19.8242 87.3535-37.8906L87.0605-37.8906C84.2285-31.1035 78.3203-27.1973 69.9219-27.1973C59.7168-27.1973 52.002-35.0586 52.002-45.4102C52.002-56.3965 60.1074-64.0625 71.1914-64.0625C83.1055-64.0625 91.2109-55.7129 91.2109-38.6719C91.2109-16.8457 83.3984-6.49414 70.166-6.49414ZM71.0449-30.8594C79.834-30.8594 86.3281-37.3047 86.3281-45.5078C86.3281-54.0527 79.6387-60.4004 71.1914-60.4004C62.5-60.4004 56.0547-54.2969 56.0547-45.752C56.0547-37.207 62.207-30.8594 71.0449-30.8594Z"/>
  </g>
  <g id="Ultralight-L" transform="matrix(1 0 0 1 488.739 1556)">
   <path d="M31.9824 19.7754L109.961 19.7754C120.312 19.7754 125.879 14.0625 125.879 3.85742L125.879-74.0723C125.879-84.2773 120.312-89.9902 109.961-89.9902L31.9824-89.9902C21.582-89.9902 16.0645-84.4727 16.0645-74.0723L16.0645 3.85742C16.0645 14.2578 21.582 19.7754 31.9824 19.7754ZM69.6289-6.93359C61.8652-6.93359 55.0781-12.6953 54.1504-16.4062C54.1016-16.6992 54.0039-16.8457 54.0039-17.334C54.0039-18.1641 54.541-18.6035 55.2734-18.6035C55.957-18.6035 56.25-18.2617 56.7871-17.1875C58.8867-12.7441 64.0137-9.66797 69.7266-9.66797C80.8594-9.66797 87.3535-19.5312 87.3535-38.4277L87.1094-38.4277C84.1309-31.2012 78.0273-27.3926 69.6777-27.3926C59.4727-27.3926 52.0996-35.4492 52.0996-45.4102C52.0996-56.0059 60.0586-63.5742 70.6543-63.5742C81.9824-63.5742 89.9414-55.6641 89.9414-38.9648C89.9414-17.1387 82.3242-6.93359 69.6289-6.93359ZM70.3613-30.2246C79.541-30.2246 86.2793-36.9629 86.2793-45.459C86.2793-54.248 79.2969-60.791 70.5566-60.791C61.5723-60.791 54.834-54.4922 54.834-45.7031C54.834-36.8652 61.1816-30.2246 70.3613-30.2246Z"/>
  </g>
  <g id="Black-M" transform="matrix(1 0 0 1 2872.19 1126)">
   <path d="M31.9824 13.5742L90.4297 13.5742C102.686 13.5742 109.961 6.29883 109.961-5.95703L109.961-64.4043C109.961-76.6602 102.686-83.9355 90.4297-83.9355L31.9824-83.9355C19.7266-83.9355 12.4512-76.6602 12.4512-64.4043L12.4512-5.95703C12.4512 6.29883 19.7266 13.5742 31.9824 13.5742ZM61.8164-11.2793C52.832-11.2793 47.4121-13.8184 45.2148-17.5781C44.6289-18.5547 44.3848-19.6289 44.3848-20.752C44.3848-24.2188 47.4609-26.9043 51.123-26.9043C54.3457-26.9043 55.9082-26.123 57.3242-25.3418C58.6426-24.6582 59.9121-23.9746 61.8164-23.9746C65.3809-23.9746 67.5781-28.2227 66.6016-33.3984L66.0156-33.3984C64.3555-29.7852 60.8887-27.8809 56.2012-27.8809C46.875-27.8809 41.0156-33.4473 41.0156-42.0898C41.0156-52.0508 49.8535-59.2285 61.9141-59.2285C75.8301-59.2285 84.1309-50.293 84.1309-35.2051C84.1309-20.2637 75.8301-11.2793 61.8164-11.2793ZM62.5977-38.3301C65.0879-38.3301 66.748-40.0879 66.748-42.4805C66.748-44.8242 64.9902-46.582 62.5977-46.582C60.2051-46.582 58.4473-44.8242 58.4473-42.4805C58.4473-40.0391 60.2051-38.3301 62.5977-38.3301Z"/>
  </g>
  <g id="Heavy-M" transform="matrix(1 0 0 1 2576.39 1126)">
   <path d="M31.0059 12.6465L89.6484 12.6465C101.416 12.6465 108.154 5.9082 108.154-5.81055L108.154-64.5508C108.154-76.2695 101.416-83.0566 89.6484-83.0566L31.0059-83.0566C19.2383-83.0566 12.4512-76.3184 12.4512-64.5508L12.4512-5.81055C12.4512 5.9082 19.2383 12.6465 31.0059 12.6465ZM60.498-11.2793C51.6113-11.2793 46.3379-14.209 44.3848-17.9199C43.8965-18.7988 43.7012-19.7266 43.7012-20.752C43.7012-23.8281 46.3867-26.2207 49.6094-26.2207C52.4414-26.2207 53.9062-25.3906 55.1758-24.5605C56.6895-23.3398 58.2031-22.5098 60.4492-22.5098C64.8438-22.5098 67.5781-27.2949 66.8457-33.8867L66.3086-33.8867C64.6484-30.2246 61.0352-27.9785 55.9082-27.9785C46.9238-27.9785 40.7715-33.4961 40.7715-42.334C40.7715-52.2461 49.1211-59.2285 60.791-59.2285C74.0723-59.2285 81.9824-50.5859 81.9824-35.5957C81.9824-20.2148 74.0723-11.2793 60.498-11.2793ZM61.377-37.3047C64.5996-37.3047 66.7969-39.5996 66.7969-42.6758C66.7969-45.8496 64.502-48.1445 61.377-48.1445C58.1543-48.1445 55.9082-45.8984 55.9082-42.7246C55.9082-39.5508 58.2031-37.3047 61.377-37.3047Z"/>
  </g>
  <g id="Bold-M" transform="matrix(1 0 0 1 2280.68 1126)">
   <path d="M29.8828 11.6699L88.7207 11.6699C99.9512 11.6699 106.152 5.46875 106.152-5.66406L106.152-64.6973C106.152-75.8789 99.9512-82.0312 88.7207-82.0312L29.8828-82.0312C18.6523-82.0312 12.4512-75.8789 12.4512-64.6973L12.4512-5.66406C12.4512 5.51758 18.6523 11.6699 29.8828 11.6699ZM58.9844-11.2793C50.2441-11.2793 45.166-14.6484 43.457-18.3105C43.0664-19.043 42.9199-19.873 42.9199-20.752C42.9199-23.4375 45.1172-25.4395 47.9492-25.4395C50.3418-25.4395 51.6113-24.6094 52.7832-23.6816C54.4434-21.9238 56.2988-20.8496 58.9355-20.8496C64.209-20.8496 67.627-26.2695 67.1387-34.375L66.6504-34.375C64.9902-30.7129 61.2793-28.125 55.5664-28.125C46.9727-28.125 40.4785-33.5938 40.4785-42.627C40.4785-52.4902 48.2422-59.2285 59.5215-59.2285C72.1191-59.2285 79.541-50.8301 79.541-36.0352C79.541-20.1172 72.0703-11.2793 58.9844-11.2793ZM60.0098-36.1816C64.0625-36.1816 66.8945-39.0625 66.8945-42.9199C66.8945-46.9727 63.916-49.9023 60.0098-49.9023C55.9082-49.9023 53.0762-47.0703 53.0762-42.9688C53.0762-39.0137 55.957-36.1816 60.0098-36.1816Z"/>
  </g>
  <g id="Semibold-M" transform="matrix(1 0 0 1 1984.65 1126)">
   <path d="M29.1016 10.9863L88.0859 10.9863C98.9746 10.9863 104.785 5.17578 104.785-5.56641L104.785-64.8438C104.785-75.5859 98.9746-81.3477 88.0859-81.3477L29.1016-81.3477C18.2617-81.3477 12.4512-75.5859 12.4512-64.8438L12.4512-5.56641C12.4512 5.22461 18.2617 10.9863 29.1016 10.9863ZM57.959-11.2793C49.3164-11.2793 44.3359-14.9414 42.8711-18.5547C42.5293-19.2383 42.3828-19.9707 42.3828-20.7031C42.3828-23.1445 44.2871-24.9023 46.7773-24.9023C48.877-24.9023 50.0488-24.0723 51.123-23.0469C52.9297-20.8984 54.9805-19.7266 57.9102-19.7266C63.7695-19.7266 67.6758-25.5371 67.2852-34.7656L66.8457-34.7656C65.2344-31.0547 61.4258-28.1738 55.3711-28.1738C47.0215-28.1738 40.2832-33.6426 40.2832-42.8223C40.2832-52.6367 47.6562-59.2285 58.5938-59.2285C70.752-59.2285 77.8809-51.0254 77.8809-36.377C77.8809-20.0684 70.7031-11.2793 57.959-11.2793ZM59.0332-35.4004C63.6719-35.4004 66.9434-38.6719 66.9434-43.1152C66.9434-47.7051 63.5742-51.123 59.0332-51.123C54.3457-51.123 51.123-47.9004 51.123-43.1641C51.123-38.623 54.3945-35.4004 59.0332-35.4004Z"/>
  </g>
  <g id="Medium-M" transform="matrix(1 0 0 1 1688.47 1126)">
   <path d="M28.5156 10.4492L87.6465 10.4492C98.2422 10.4492 103.711 4.98047 103.711-5.46875L103.711-64.8926C103.711-75.3418 98.2422-80.8105 87.6465-80.8105L28.5156-80.8105C17.9688-80.8105 12.4512-75.3906 12.4512-64.8926L12.4512-5.46875C12.4512 4.98047 17.9688 10.4492 28.5156 10.4492ZM57.1777-11.2793C48.6328-11.2793 43.75-15.1855 42.3828-18.75C42.0898-19.3848 41.9434-20.0684 41.9434-20.7031C41.9434-22.9004 43.6523-24.5117 45.8984-24.5117C47.8027-24.5117 48.877-23.6816 49.8535-22.6074C51.8066-20.166 53.9551-18.8477 57.1289-18.8477C63.4766-18.8477 67.7246-25 67.4316-35.0098L67.041-35.0098C65.4297-31.2988 61.5234-28.2227 55.1758-28.2227C47.0703-28.2227 40.1367-33.6426 40.1367-42.9688C40.1367-52.7832 47.2168-59.2285 57.959-59.2285C69.7266-59.2285 76.6113-51.1719 76.6113-36.5723C76.6113-20.0195 69.6777-11.2793 57.1777-11.2793ZM58.3008-34.8145C63.3789-34.8145 66.9922-38.3789 66.9922-43.2617C66.9922-48.291 63.2812-52.0508 58.3496-52.0508C53.1738-52.0508 49.6582-48.5352 49.6582-43.3105C49.6582-38.3789 53.2227-34.8145 58.3008-34.8145Z"/>
  </g>
  <g id="Regular-M" transform="matrix(1 0 0 1 1392.45 1126)">
   <path d="M27.7832 9.76562L87.0117 9.76562C97.2656 9.76562 102.344 4.6875 102.344-5.37109L102.344-64.9902C102.344-75.0488 97.2656-80.127 87.0117-80.127L27.7832-80.127C17.5781-80.127 12.4512-75.0977 12.4512-64.9902L12.4512-5.37109C12.4512 4.73633 17.5781 9.76562 27.7832 9.76562ZM56.1523-11.2793C47.7051-11.2793 42.9199-15.4785 41.748-18.9941C41.5527-19.5801 41.4062-20.166 41.4062-20.7031C41.4062-22.6562 42.8223-23.9746 44.7754-23.9746C46.3379-23.9746 47.3633-23.1445 48.2422-21.9727C50.293-19.1406 52.6367-17.7246 56.0547-17.7246C63.0371-17.7246 67.7246-24.3164 67.627-35.3516L67.2363-35.3516C65.625-31.6406 61.6699-28.3203 54.9805-28.3203C47.1191-28.3203 39.9414-33.6914 39.9414-43.1641C39.9414-52.9297 46.6309-59.2285 57.0801-59.2285C68.4082-59.2285 74.9512-51.3672 74.9512-36.8652C74.9512-19.9707 68.3594-11.2793 56.1523-11.2793ZM57.373-34.0332C62.9883-34.0332 67.041-37.9883 67.041-43.4082C67.041-49.0723 62.8906-53.2227 57.373-53.2227C51.6113-53.2227 47.7051-49.3652 47.7051-43.5059C47.7051-37.9883 51.709-34.0332 57.373-34.0332Z"/>
  </g>
  <g id="Light-M" transform="matrix(1 0 0 1 1096.47 1126)">
   <path d="M26.8555 9.0332L86.4746 9.0332C95.9961 9.0332 100.879 4.15039 100.879-5.22461L100.879-65.0879C100.879-74.5117 95.9961-79.3945 86.4746-79.3945L26.8555-79.3945C17.334-79.3945 12.4512-74.5605 12.4512-65.0879L12.4512-5.22461C12.4512 4.19922 17.334 9.0332 26.8555 9.0332ZM55.4688-11.9141C47.7539-11.9141 42.8711-16.1621 41.7969-19.4824C41.6504-19.9707 41.5527-20.4102 41.5527-20.8984C41.5527-22.4121 42.627-23.4863 44.1406-23.4863C45.4102-23.4863 46.1914-22.8027 46.9238-21.7285C48.877-18.75 51.709-16.9922 55.4688-16.9922C62.9395-16.9922 67.7246-23.9258 67.6758-36.084L67.334-36.084C65.5273-31.7871 61.2793-28.5645 54.6875-28.5645C46.7773-28.5645 40.0879-34.2285 40.0879-43.1641C40.0879-52.4414 46.6309-58.5938 56.3477-58.5938C66.8945-58.5938 73.3398-51.2695 73.3398-37.2559C73.3398-20.3613 66.9434-11.9141 55.4688-11.9141ZM56.4941-33.2031C62.5488-33.2031 66.9922-37.5488 66.9922-43.3594C66.9922-49.3652 62.4512-53.8086 56.543-53.8086C50.3906-53.8086 46.0938-49.6094 46.0938-43.457C46.0938-37.5488 50.3906-33.2031 56.4941-33.2031Z"/>
  </g>
  <g id="Thin-M" transform="matrix(1 0 0 1 800.758 1126)">
   <path d="M25.6348 8.05664L85.7422 8.05664C94.3848 8.05664 98.877 3.4668 98.877-5.0293L98.877-65.2344C98.877-73.7305 94.3848-78.3691 85.7422-78.3691L25.6348-78.3691C16.9922-78.3691 12.4512-73.877 12.4512-65.2344L12.4512-5.0293C12.4512 3.56445 16.9922 8.05664 25.6348 8.05664ZM54.5898-12.7441C47.8516-12.7441 42.7246-17.1387 41.8945-20.166C41.7969-20.5078 41.748-20.752 41.748-21.1914C41.748-22.168 42.4316-22.8027 43.3594-22.8027C44.1895-22.8027 44.6777-22.3633 45.166-21.4355C46.9727-18.2129 50.4395-16.0645 54.5898-16.0645C62.793-16.0645 67.6758-23.3887 67.6758-37.0605L67.4316-37.0605C65.332-31.9824 60.791-28.9062 54.2969-28.9062C46.3867-28.9062 40.2344-34.9121 40.2344-43.1152C40.2344-51.7578 46.582-57.7637 55.4199-57.7637C64.8926-57.7637 71.1914-51.1719 71.1914-37.7441C71.1914-20.8984 65.0879-12.7441 54.5898-12.7441ZM55.3223-32.0801C62.0117-32.0801 66.8945-36.9629 66.8945-43.2129C66.8945-49.7559 61.8652-54.541 55.4199-54.541C48.8281-54.541 43.9453-49.9512 43.9453-43.4082C43.9453-36.9141 48.6328-32.0801 55.3223-32.0801Z"/>
  </g>
  <g id="Ultralight-M" transform="matrix(1 0 0 1 504.535 1126)">
   <path d="M25 7.56836L85.3516 7.56836C93.5059 7.56836 97.9004 3.125 97.9004-4.98047L97.9004-65.2832C97.9004-73.3887 93.5059-77.832 85.3516-77.832L25-77.832C16.7969-77.832 12.4512-73.4863 12.4512-65.2832L12.4512-4.98047C12.4512 3.22266 16.7969 7.56836 25 7.56836ZM54.1016-13.1836C47.9492-13.1836 42.6758-17.5781 41.9434-20.5078C41.8945-20.752 41.8457-20.9473 41.8457-21.2891C41.8457-22.0215 42.2852-22.4609 42.9688-22.4609C43.5547-22.4609 43.8965-22.168 44.2871-21.2891C45.9961-17.9199 49.8047-15.5762 54.1992-15.5762C62.6953-15.5762 67.6758-23.1445 67.6758-37.5488L67.4805-37.5488C65.2344-32.0801 60.5469-29.1016 54.1016-29.1016C46.1426-29.1016 40.332-35.3027 40.332-43.1152C40.332-51.416 46.5332-57.373 54.9316-57.373C63.8672-57.373 70.0684-51.0742 70.0684-38.0371C70.0684-21.1426 64.1113-13.1836 54.1016-13.1836ZM54.7363-31.543C61.7188-31.543 66.8945-36.6699 66.8945-43.1641C66.8945-49.9023 61.5723-54.9316 54.8828-54.9316C47.998-54.9316 42.8711-50.0977 42.8711-43.3594C42.8711-36.6211 47.7539-31.543 54.7363-31.543Z"/>
  </g>
  <g id="Black-S" transform="matrix(1 0 0 1 2885.5 696)">
   <path d="M25 2.92969L70.8008 2.92969C80.3711 2.92969 86.0352-2.73438 86.0352-12.3047L86.0352-58.1055C86.0352-67.6758 80.3711-73.3398 70.8008-73.3398L25-73.3398C15.4297-73.3398 9.76562-67.6758 9.76562-58.1055L9.76562-12.3047C9.76562-2.73438 15.4297 2.92969 25 2.92969ZM48.3398-16.4551C41.3086-16.4551 37.0605-18.457 35.3516-21.4355C34.9121-22.168 34.7168-22.998 34.7168-23.877C34.7168-26.5625 37.1094-28.6621 39.9414-28.6621C42.4316-28.6621 43.6523-28.0273 44.7754-27.4414C45.8008-26.8555 46.8262-26.3184 48.3398-26.3184C51.1719-26.3184 52.9297-29.6875 52.1973-33.8379L51.7578-33.8379C50.4395-31.0059 47.7051-29.4922 43.9941-29.4922C36.7188-29.4922 32.1289-33.8379 32.1289-40.625C32.1289-48.4375 39.0137-54.0527 48.4375-54.0527C59.2773-54.0527 65.7715-47.0703 65.7715-35.2539C65.7715-23.4863 59.2773-16.4551 48.3398-16.4551ZM48.9746-37.5977C50.9766-37.5977 52.2949-39.0137 52.2949-40.918C52.2949-42.8223 50.8789-44.2383 48.9746-44.2383C47.0215-44.2383 45.6055-42.8223 45.6055-40.918C45.6055-38.9648 47.0215-37.5977 48.9746-37.5977Z"/>
  </g>
  <g id="Heavy-S" transform="matrix(1 0 0 1 2589.4 696)">
   <path d="M24.3652 2.34375L70.2637 2.34375C79.541 2.34375 84.8145-2.97852 84.8145-12.207L84.8145-58.2031C84.8145-67.4316 79.541-72.7539 70.2637-72.7539L24.3652-72.7539C15.0879-72.7539 9.76562-67.4316 9.76562-58.2031L9.76562-12.207C9.76562-2.97852 15.0879 2.34375 24.3652 2.34375ZM47.4121-16.4062C40.3809-16.4062 36.2793-18.7012 34.7168-21.6309C34.3262-22.3145 34.1797-23.0469 34.1797-23.8281C34.1797-26.3184 36.2793-28.1738 38.8672-28.1738C41.1133-28.1738 42.2363-27.5391 43.2617-26.8555C44.4336-25.9277 45.6055-25.2441 47.3633-25.2441C50.7812-25.2441 52.9785-29.0039 52.3926-34.1309L51.9531-34.1309C50.6836-31.2988 47.9004-29.541 43.7988-29.541C36.8164-29.541 31.9336-33.8379 31.9336-40.8203C31.9336-48.6328 38.4277-54.1016 47.6562-54.1016C58.1055-54.1016 64.3066-47.2656 64.3066-35.498C64.3066-23.3887 58.1055-16.4062 47.4121-16.4062ZM48.1445-36.9141C50.6348-36.9141 52.3438-38.6719 52.3438-41.1133C52.3438-43.5547 50.5371-45.3613 48.1445-45.3613C45.6055-45.3613 43.8477-43.6035 43.8477-41.1133C43.8477-38.6719 45.6543-36.9141 48.1445-36.9141Z"/>
  </g>
  <g id="Bold-S" transform="matrix(1 0 0 1 2293.35 696)">
   <path d="M23.6328 1.66016L69.6289 1.66016C78.6133 1.66016 83.4961-3.22266 83.4961-12.1094L83.4961-58.3008C83.4961-67.1875 78.6133-72.0703 69.6289-72.0703L23.6328-72.0703C14.6973-72.0703 9.76562-67.1875 9.76562-58.3008L9.76562-12.1094C9.76562-3.22266 14.6973 1.66016 23.6328 1.66016ZM46.3379-16.3086C39.3066-16.3086 35.3516-18.9453 34.0332-21.8262C33.6914-22.4609 33.5449-23.1445 33.5449-23.8281C33.5449-26.0254 35.3516-27.6855 37.6465-27.6855C39.5996-27.6855 40.6738-26.9531 41.6016-26.2207C42.9688-24.8535 44.2871-24.0723 46.2891-24.0723C50.293-24.0723 52.9785-28.2715 52.5879-34.4238L52.1973-34.4238C50.9766-31.6895 48.0957-29.5898 43.6035-29.5898C36.9141-29.5898 31.6895-33.7891 31.6895-41.0156C31.6895-48.877 37.793-54.1992 46.7285-54.1992C56.7871-54.1992 62.6465-47.5098 62.6465-35.791C62.6465-23.291 56.7383-16.3086 46.3379-16.3086ZM47.168-36.1328C50.2441-36.1328 52.3926-38.3301 52.3926-41.3086C52.3926-44.3848 50.1953-46.6309 47.168-46.6309C44.043-46.6309 41.8945-44.4824 41.8945-41.3086C41.8945-38.2812 44.0918-36.1328 47.168-36.1328Z"/>
  </g>
  <g id="Semibold-S" transform="matrix(1 0 0 1 1997.1 696)">
   <path d="M23.0957 1.17188L69.1895 1.17188C77.9297 1.17188 82.5684-3.36914 82.5684-12.0117L82.5684-58.3984C82.5684-67.041 77.9297-71.582 69.1895-71.582L23.0957-71.582C14.4043-71.582 9.76562-67.041 9.76562-58.3984L9.76562-12.0117C9.76562-3.36914 14.4043 1.17188 23.0957 1.17188ZM45.6055-16.2598C38.5742-16.2598 34.7656-19.0918 33.5449-21.9727C33.252-22.5586 33.1543-23.1934 33.1543-23.7793C33.1543-25.8301 34.7168-27.2949 36.8164-27.2949C38.5742-27.2949 39.5508-26.6113 40.4297-25.7324C41.8945-24.1211 43.3105-23.291 45.5566-23.291C50-23.291 53.0273-27.7344 52.7344-34.6191L52.3438-34.6191C51.1719-31.9336 48.2422-29.6387 43.457-29.6387C36.9629-29.6387 31.4941-33.7891 31.4941-41.2109C31.4941-49.0723 37.3535-54.248 46.1426-54.248C55.9082-54.248 61.5234-47.6562 61.5234-35.9863C61.5234-23.2422 55.8105-16.2598 45.6055-16.2598ZM46.5332-35.5957C50-35.5957 52.4414-38.0859 52.4414-41.4551C52.4414-44.9707 49.9512-47.5098 46.5332-47.5098C42.9199-47.5098 40.5273-45.1172 40.5273-41.4551C40.5273-38.0371 43.0176-35.5957 46.5332-35.5957Z"/>
  </g>
  <g id="Medium-S" transform="matrix(1 0 0 1 1700.75 696)">
   <path d="M22.7051 0.830078L68.8965 0.830078C77.4414 0.830078 81.8359-3.51562 81.8359-11.9629L81.8359-58.4473C81.8359-66.8945 77.4414-71.2402 68.8965-71.2402L22.7051-71.2402C14.209-71.2402 9.76562-66.8945 9.76562-58.4473L9.76562-11.9629C9.76562-3.51562 14.209 0.830078 22.7051 0.830078ZM45.0684-16.2109C38.0371-16.2109 34.2773-19.2383 33.1543-22.1191C32.9102-22.6562 32.8125-23.2422 32.8125-23.7793C32.8125-25.6348 34.2285-27.0508 36.1816-27.0508C37.793-27.0508 38.7207-26.3184 39.5508-25.3906C41.1133-23.584 42.627-22.6562 44.9707-22.6562C49.7559-22.6562 53.0273-27.3438 52.832-34.7656L52.4902-34.7656C51.3184-32.1289 48.3398-29.6387 43.3594-29.6387C37.0117-29.6387 31.3965-33.7891 31.3965-41.3086C31.3965-49.1699 37.0117-54.2969 45.6543-54.2969C55.2246-54.2969 60.6445-47.8027 60.6445-36.1328C60.6445-23.1934 55.127-16.2109 45.0684-16.2109ZM45.9961-35.2051C49.8047-35.2051 52.4902-37.8906 52.4902-41.5527C52.4902-45.3613 49.7559-48.1934 46.0449-48.1934C42.0898-48.1934 39.502-45.5566 39.502-41.6016C39.502-37.8418 42.1875-35.2051 45.9961-35.2051Z"/>
  </g>
  <g id="Regular-S" transform="matrix(1 0 0 1 1404.51 696)">
   <path d="M22.2168 0.390625L68.457 0.390625C76.8066 0.390625 80.9082-3.71094 80.9082-11.9141L80.9082-58.4961C80.9082-66.6992 76.8066-70.8008 68.457-70.8008L22.2168-70.8008C13.916-70.8008 9.76562-66.6992 9.76562-58.4961L9.76562-11.9141C9.76562-3.71094 13.916 0.390625 22.2168 0.390625ZM44.3359-16.1621C37.3047-16.1621 33.6914-19.3848 32.666-22.2656C32.4707-22.7539 32.373-23.291 32.373-23.7793C32.373-25.4395 33.5938-26.6602 35.3516-26.6602C36.7676-26.6602 37.6465-25.9277 38.4277-24.9512C40.0879-22.8516 41.6992-21.875 44.2383-21.875C49.4629-21.875 53.0762-26.8555 52.9785-34.9609L52.6367-34.9609C51.5137-32.3242 48.4863-29.6875 43.2129-29.6875C37.0605-29.6875 31.2012-33.7891 31.2012-41.4551C31.2012-49.3164 36.5723-54.3457 45.0684-54.3457C54.2969-54.3457 59.5215-47.9492 59.5215-36.3281C59.5215-23.0957 54.248-16.1621 44.3359-16.1621ZM45.3613-34.668C49.5605-34.668 52.5391-37.6465 52.5391-41.6992C52.5391-45.9473 49.5117-49.0723 45.3613-49.0723C41.0156-49.0723 38.1836-46.1914 38.1836-41.748C38.1836-37.6465 41.1621-34.668 45.3613-34.668Z"/>
  </g>
  <g id="Light-S" transform="matrix(1 0 0 1 1108.46 696)">
   <path d="M21.3867-0.292969L67.9688-0.292969C75.7324-0.292969 79.5898-4.15039 79.5898-11.7676L79.5898-58.5938C79.5898-66.2109 75.7324-70.1172 67.9688-70.1172L21.3867-70.1172C13.6719-70.1172 9.76562-66.2598 9.76562-58.5938L9.76562-11.7676C9.76562-4.15039 13.6719-0.292969 21.3867-0.292969ZM43.75-16.6992C37.4023-16.6992 33.5938-20.0195 32.7148-22.7051C32.5684-23.0957 32.5195-23.5352 32.5195-23.9258C32.5195-25.293 33.4473-26.2207 34.8145-26.2207C35.9375-26.2207 36.6211-25.6348 37.2559-24.7559C38.8184-22.4609 40.8691-21.2402 43.7012-21.2402C49.3652-21.2402 53.0762-26.5137 52.9785-35.6445L52.7344-35.6445C51.3672-32.4707 48.1445-29.9316 42.9688-29.9316C36.7676-29.9316 31.3477-34.2285 31.3477-41.4551C31.3477-48.877 36.5234-53.8086 44.4336-53.8086C52.9785-53.8086 58.0566-47.8516 58.0566-36.6699C58.0566-23.4375 52.9785-16.6992 43.75-16.6992ZM44.5801-33.9355C49.1699-33.9355 52.4902-37.207 52.4902-41.6016C52.4902-46.1914 49.0723-49.5605 44.6289-49.5605C39.9414-49.5605 36.7188-46.3867 36.7188-41.6992C36.7188-37.207 39.9902-33.9355 44.5801-33.9355Z"/>
  </g>
  <g id="Thin-S" transform="matrix(1 0 0 1 812.599 696)">
   <path d="M20.3125-1.12305L67.334-1.12305C74.2676-1.12305 77.8809-4.78516 77.8809-11.6211L77.8809-58.6914C77.8809-65.5762 74.2676-69.2383 67.334-69.2383L20.3125-69.2383C13.3789-69.2383 9.76562-65.625 9.76562-58.6914L9.76562-11.6211C9.76562-4.6875 13.3789-1.12305 20.3125-1.12305ZM42.9199-17.4316C37.5-17.4316 33.4961-20.8496 32.8125-23.291C32.7148-23.584 32.666-23.8281 32.666-24.1699C32.666-25.0488 33.3008-25.6348 34.1309-25.6348C34.8633-25.6348 35.3027-25.2441 35.7422-24.5117C37.1582-21.9727 39.7461-20.4102 42.9688-20.4102C49.2188-20.4102 53.0273-26.0742 53.0273-36.4746L52.832-36.4746C51.2207-32.666 47.7539-30.2246 42.627-30.2246C36.4258-30.2246 31.4941-34.8633 31.4941-41.4062C31.4941-48.3398 36.5234-53.0762 43.6035-53.0762C51.2207-53.0762 56.2012-47.7539 56.2012-37.1094C56.2012-23.877 51.3184-17.4316 42.9199-17.4316ZM43.5547-33.0078C48.6816-33.0078 52.4414-36.7188 52.4414-41.5039C52.4414-46.5332 48.584-50.1953 43.6523-50.1953C38.5254-50.1953 34.8633-46.6797 34.8633-41.6504C34.8633-36.6699 38.4277-33.0078 43.5547-33.0078Z"/>
  </g>
  <g id="Ultralight-S" transform="matrix(1 0 0 1 516.352 696)">
   <path d="M19.7754-1.5625L66.9922-1.5625C73.5352-1.5625 76.9531-5.12695 76.9531-11.5234L76.9531-58.7891C76.9531-65.2344 73.5352-68.75 66.9922-68.75L19.7754-68.75C13.2324-68.75 9.76562-65.2832 9.76562-58.7891L9.76562-11.5234C9.76562-5.0293 13.2324-1.5625 19.7754-1.5625ZM42.5293-17.8223C37.5488-17.8223 33.4473-21.2891 32.8613-23.6328C32.8125-23.8281 32.7637-23.9746 32.7637-24.2676C32.7637-24.9512 33.1543-25.293 33.7891-25.293C34.3262-25.293 34.5703-25.0488 34.9609-24.3652C36.2793-21.7285 39.209-19.9707 42.5781-19.9707C49.1211-19.9707 53.0273-25.8301 53.0273-36.9141L52.8809-36.9141C51.123-32.7637 47.5098-30.3711 42.4316-30.3711C36.2305-30.3711 31.5918-35.2051 31.5918-41.4062C31.5918-47.998 36.4746-52.6855 43.1641-52.6855C50.293-52.6855 55.2246-47.6562 55.2246-37.3535C55.2246-24.1211 50.4883-17.8223 42.5293-17.8223ZM43.0176-32.4707C48.4375-32.4707 52.3926-36.4258 52.3926-41.4551C52.3926-46.6797 48.291-50.5371 43.1152-50.5371C37.793-50.5371 33.8867-46.8262 33.8867-41.6016C33.8867-36.377 37.6465-32.4707 43.0176-32.4707Z"/>
  </g>
 </g>
</svg>
