<?xml version="1.0" encoding="UTF-8"?>
<!--Generator: Apple Native CoreSVG 149-->
<!DOCTYPE svg
PUBLIC "-//W3C//DTD SVG 1.1//EN"
       "http://www.w3.org/Graphics/SVG/1.1/DTD/svg11.dtd">
<svg version="1.1" xmlns="http://www.w3.org/2000/svg" xmlns:xlink="http://www.w3.org/1999/xlink" width="3300" height="2200">
 <!--glyph: "uni1000D1.medium", point size: 100.000000, font version: "Version 16.0d18e1", template writer version: "8"-->
 <g id="Notes">
  <rect height="2200" id="artboard" style="fill:white;opacity:1" width="3300" x="0" y="0"/>
  <line id="" style="fill:none;stroke:black;opacity:1;stroke-width:0.5;" x1="263" x2="3036" y1="292" y2="292"/>
  <text style="stroke:none;fill:black;font-family:-apple-system,&quot;SF Pro Display&quot;,&quot;SF Pro Text&quot;,Helvetica,sans-serif;font-weight:bold;" transform="matrix(1 0 0 1 263 322)">Weight/Scale Variations</text>
  <text style="stroke:none;fill:black;font-family:-apple-system,&quot;SF Pro Display&quot;,&quot;SF Pro Text&quot;,Helvetica,sans-serif;text-anchor:middle;" transform="matrix(1 0 0 1 559.711 322)">Ultralight</text>
  <text style="stroke:none;fill:black;font-family:-apple-system,&quot;SF Pro Display&quot;,&quot;SF Pro Text&quot;,Helvetica,sans-serif;text-anchor:middle;" transform="matrix(1 0 0 1 856.422 322)">Thin</text>
  <text style="stroke:none;fill:black;font-family:-apple-system,&quot;SF Pro Display&quot;,&quot;SF Pro Text&quot;,Helvetica,sans-serif;text-anchor:middle;" transform="matrix(1 0 0 1 1153.13 322)">Light</text>
  <text style="stroke:none;fill:black;font-family:-apple-system,&quot;SF Pro Display&quot;,&quot;SF Pro Text&quot;,Helvetica,sans-serif;text-anchor:middle;" transform="matrix(1 0 0 1 1449.84 322)">Regular</text>
  <text style="stroke:none;fill:black;font-family:-apple-system,&quot;SF Pro Display&quot;,&quot;SF Pro Text&quot;,Helvetica,sans-serif;text-anchor:middle;" transform="matrix(1 0 0 1 1746.56 322)">Medium</text>
  <text style="stroke:none;fill:black;font-family:-apple-system,&quot;SF Pro Display&quot;,&quot;SF Pro Text&quot;,Helvetica,sans-serif;text-anchor:middle;" transform="matrix(1 0 0 1 2043.27 322)">Semibold</text>
  <text style="stroke:none;fill:black;font-family:-apple-system,&quot;SF Pro Display&quot;,&quot;SF Pro Text&quot;,Helvetica,sans-serif;text-anchor:middle;" transform="matrix(1 0 0 1 2339.98 322)">Bold</text>
  <text style="stroke:none;fill:black;font-family:-apple-system,&quot;SF Pro Display&quot;,&quot;SF Pro Text&quot;,Helvetica,sans-serif;text-anchor:middle;" transform="matrix(1 0 0 1 2636.69 322)">Heavy</text>
  <text style="stroke:none;fill:black;font-family:-apple-system,&quot;SF Pro Display&quot;,&quot;SF Pro Text&quot;,Helvetica,sans-serif;text-anchor:middle;" transform="matrix(1 0 0 1 2933.4 322)">Black</text>
  <line id="" style="fill:none;stroke:black;opacity:1;stroke-width:0.5;" x1="263" x2="3036" y1="1903" y2="1903"/>
  <g id="" transform="matrix(1 0 0 1 263 1933)">
   <path d="M9.24805 0.830078C13.5547 0.830078 17.1387-2.74414 17.1387-7.05078C17.1387-11.3574 13.5449-14.9316 9.23828-14.9316C4.94141-14.9316 1.36719-11.3574 1.36719-7.05078C1.36719-2.74414 4.95117 0.830078 9.24805 0.830078ZM9.24805-0.654297C5.70312-0.654297 2.87109-3.49609 2.87109-7.05078C2.87109-10.6055 5.69336-13.4473 9.23828-13.4473C12.793-13.4473 15.6348-10.6055 15.6445-7.05078C15.6543-3.49609 12.8027-0.654297 9.24805-0.654297ZM6.39648-6.31836L8.50586-6.31836L8.50586-4.19922C8.50586-3.75977 8.79883-3.45703 9.22852-3.45703C9.67773-3.45703 9.9707-3.75977 9.9707-4.19922L9.9707-6.31836L12.0996-6.31836C12.5391-6.31836 12.8418-6.61133 12.8418-7.04102C12.8418-7.48047 12.5391-7.7832 12.0996-7.7832L9.9707-7.7832L9.9707-9.89258C9.9707-10.3418 9.67773-10.6445 9.22852-10.6445C8.79883-10.6445 8.50586-10.3418 8.50586-9.89258L8.50586-7.7832L6.39648-7.7832C5.94727-7.7832 5.64453-7.48047 5.64453-7.04102C5.64453-6.61133 5.94727-6.31836 6.39648-6.31836Z"/>
  </g>
  <g id="" transform="matrix(1 0 0 1 281.506 1933)">
   <path d="M11.709 2.91016C17.1582 2.91016 21.6699-1.61133 21.6699-7.05078C21.6699-12.5 17.1484-17.0117 11.6992-17.0117C6.25977-17.0117 1.74805-12.5 1.74805-7.05078C1.74805-1.61133 6.26953 2.91016 11.709 2.91016ZM11.709 1.25C7.09961 1.25 3.41797-2.44141 3.41797-7.05078C3.41797-11.6602 7.08984-15.3516 11.6992-15.3516C16.3086-15.3516 20-11.6602 20.0098-7.05078C20.0195-2.44141 16.3184 1.25 11.709 1.25ZM7.98828-6.23047L10.8789-6.23047L10.8789-3.32031C10.8789-2.83203 11.2109-2.5 11.6895-2.5C12.1777-2.5 12.5195-2.83203 12.5195-3.32031L12.5195-6.23047L15.4297-6.23047C15.918-6.23047 16.25-6.5625 16.25-7.04102C16.25-7.5293 15.918-7.87109 15.4297-7.87109L12.5195-7.87109L12.5195-10.7617C12.5195-11.2695 12.1777-11.6016 11.6895-11.6016C11.2109-11.6016 10.8789-11.2598 10.8789-10.7617L10.8789-7.87109L7.98828-7.87109C7.48047-7.87109 7.14844-7.5293 7.14844-7.04102C7.14844-6.5625 7.49023-6.23047 7.98828-6.23047Z"/>
  </g>
  <g id="" transform="matrix(1 0 0 1 304.924 1933)">
   <path d="M14.9707 5.66406C21.9336 5.66406 27.6953-0.0976562 27.6953-7.05078C27.6953-14.0137 21.9238-19.7754 14.9609-19.7754C8.00781-19.7754 2.25586-14.0137 2.25586-7.05078C2.25586-0.0976562 8.01758 5.66406 14.9707 5.66406ZM14.9707 3.84766C8.93555 3.84766 4.08203-1.01562 4.08203-7.05078C4.08203-13.0957 8.92578-17.9492 14.9609-17.9492C21.0059-17.9492 25.8594-13.0957 25.8691-7.05078C25.8789-1.01562 21.0156 3.84766 14.9707 3.84766ZM10.0586-6.14258L14.0625-6.14258L14.0625-2.12891C14.0625-1.5918 14.4336-1.2207 14.9512-1.2207C15.4883-1.2207 15.8594-1.5918 15.8594-2.12891L15.8594-6.14258L19.8828-6.14258C20.4102-6.14258 20.791-6.51367 20.791-7.03125C20.791-7.56836 20.4199-7.94922 19.8828-7.94922L15.8594-7.94922L15.8594-11.9531C15.8594-12.5098 15.4883-12.8809 14.9512-12.8809C14.4336-12.8809 14.0625-12.5 14.0625-11.9531L14.0625-7.94922L10.0586-7.94922C9.50195-7.94922 9.13086-7.56836 9.13086-7.03125C9.13086-6.51367 9.51172-6.14258 10.0586-6.14258Z"/>
  </g>
  <text style="stroke:none;fill:black;font-family:-apple-system,&quot;SF Pro Display&quot;,&quot;SF Pro Text&quot;,Helvetica,sans-serif;font-weight:bold;" transform="matrix(1 0 0 1 263 1953)">Design Variations</text>
  <text style="stroke:none;fill:black;font-family:-apple-system,&quot;SF Pro Display&quot;,&quot;SF Pro Text&quot;,Helvetica,sans-serif;" transform="matrix(1 0 0 1 263 1971)">Symbols are supported in up to nine weights and three scales.</text>
  <text style="stroke:none;fill:black;font-family:-apple-system,&quot;SF Pro Display&quot;,&quot;SF Pro Text&quot;,Helvetica,sans-serif;" transform="matrix(1 0 0 1 263 1989)">For optimal layout with text and other symbols, vertically align</text>
  <text style="stroke:none;fill:black;font-family:-apple-system,&quot;SF Pro Display&quot;,&quot;SF Pro Text&quot;,Helvetica,sans-serif;" transform="matrix(1 0 0 1 263 2007)">symbols with the adjacent text.</text>
  <line id="" style="fill:none;stroke:#00AEEF;stroke-width:0.5;opacity:1.0;" x1="776" x2="776" y1="1919" y2="1933"/>
  <g id="" transform="matrix(1 0 0 1 776 1933)">
   <path d="M3.31055 0.126953C3.82812 0.126953 4.08203-0.0683594 4.26758-0.605469L5.52734-4.0625L11.2891-4.0625L12.5488-0.605469C12.7344-0.0683594 12.9883 0.126953 13.4961 0.126953C14.0137 0.126953 14.3457-0.185547 14.3457-0.673828C14.3457-0.839844 14.3164-0.986328 14.2383-1.20117L9.6582-13.3887C9.43359-13.9941 9.0332-14.2871 8.4082-14.2871C7.80273-14.2871 7.39258-13.9941 7.17773-13.3984L2.59766-1.19141C2.51953-0.976562 2.49023-0.830078 2.49023-0.664062C2.49023-0.175781 2.80273 0.126953 3.31055 0.126953ZM6.00586-5.53711L8.37891-12.1094L8.42773-12.1094L10.8008-5.53711Z"/>
  </g>
  <line id="" style="fill:none;stroke:#00AEEF;stroke-width:0.5;opacity:1.0;" x1="792.836" x2="792.836" y1="1919" y2="1933"/>
  <text style="stroke:none;fill:black;font-family:-apple-system,&quot;SF Pro Display&quot;,&quot;SF Pro Text&quot;,Helvetica,sans-serif;font-weight:bold;" transform="matrix(1 0 0 1 776 1953)">Margins</text>
  <text style="stroke:none;fill:black;font-family:-apple-system,&quot;SF Pro Display&quot;,&quot;SF Pro Text&quot;,Helvetica,sans-serif;" transform="matrix(1 0 0 1 776 1971)">Leading and trailing margins on the left and right side of each symbol</text>
  <text style="stroke:none;fill:black;font-family:-apple-system,&quot;SF Pro Display&quot;,&quot;SF Pro Text&quot;,Helvetica,sans-serif;" transform="matrix(1 0 0 1 776 1989)">can be adjusted by modifying the x-location of the margin guidelines.</text>
  <text style="stroke:none;fill:black;font-family:-apple-system,&quot;SF Pro Display&quot;,&quot;SF Pro Text&quot;,Helvetica,sans-serif;" transform="matrix(1 0 0 1 776 2007)">Modifications are automatically applied proportionally to all</text>
  <text style="stroke:none;fill:black;font-family:-apple-system,&quot;SF Pro Display&quot;,&quot;SF Pro Text&quot;,Helvetica,sans-serif;" transform="matrix(1 0 0 1 776 2025)">scales and weights.</text>
  <g id="" transform="matrix(1 0 0 1 1289 1933)">
   <path d="M2.8418 1.86523L4.54102 3.57422C5.40039 4.44336 6.38672 4.38477 7.31445 3.35938L17.4902-7.85156C17.7539-7.76367 18.0273-7.7832 18.3398-7.8418L19.4043-8.03711L20.0684-7.36328L20.0293-6.80664C19.9902-6.30859 20.1172-5.92773 20.6055-5.44922L21.3672-4.70703C21.8457-4.22852 22.4609-4.19922 22.9297-4.66797L25.8398-7.58789C26.3086-8.05664 26.2891-8.65234 25.8105-9.13086L25.0391-9.89258C24.5605-10.3711 24.1895-10.5273 23.7109-10.4883L23.1348-10.4395L22.4902-11.0742L22.7344-12.1973C22.8613-12.7637 22.7051-13.2031 22.1191-13.7891L19.9219-15.9766C16.582-19.2969 12.1484-19.2188 9.25781-16.3281C8.83789-15.918 8.80859-15.3418 9.04297-14.9512C9.27734-14.5898 9.73633-14.3555 10.3809-14.5215C11.8457-14.8633 13.3691-14.9219 14.7949-13.9844L14.209-12.5293C14.0137-12.0508 13.9844-11.6504 14.1113-11.2891L3.04688-0.898438C2.06055 0.0195312 1.98242 0.996094 2.8418 1.86523ZM10.752-15.957C13.1836-17.7344 16.4746-17.4316 18.7012-15.2051L21.1328-12.793C21.3672-12.5586 21.4062-12.373 21.3379-12.0312L21.0156-10.5469L22.5195-9.0625L23.5059-9.12109C23.7598-9.13086 23.8379-9.11133 24.0332-8.91602L24.6094-8.33984L22.168-5.89844L21.5918-6.47461C21.3965-6.66992 21.3672-6.74805 21.377-7.01172L21.4453-7.98828L19.9512-9.47266L18.4277-9.21875C18.1055-9.15039 17.959-9.17969 17.7148-9.41406L15.7129-11.416C15.459-11.6504 15.4297-11.8164 15.5859-12.1875L16.4648-14.2773C14.9023-15.7324 12.8711-16.3574 10.8398-15.7617C10.6836-15.7227 10.625-15.8496 10.752-15.957ZM5.27344 2.30469L4.10156 1.14258C3.63281 0.683594 3.74023 0.341797 4.14062-0.0195312L14.9512-10.1953L16.416-8.71094L6.42578 2.27539C6.07422 2.67578 5.74219 2.77344 5.27344 2.30469Z"/>
  </g>
  <text style="stroke:none;fill:black;font-family:-apple-system,&quot;SF Pro Display&quot;,&quot;SF Pro Text&quot;,Helvetica,sans-serif;font-weight:bold;" transform="matrix(1 0 0 1 1289 1953)">Exporting</text>
  <text style="stroke:none;fill:black;font-family:-apple-system,&quot;SF Pro Display&quot;,&quot;SF Pro Text&quot;,Helvetica,sans-serif;" transform="matrix(1 0 0 1 1289 1971)">Symbols should be outlined when exporting to ensure the</text>
  <text style="stroke:none;fill:black;font-family:-apple-system,&quot;SF Pro Display&quot;,&quot;SF Pro Text&quot;,Helvetica,sans-serif;" transform="matrix(1 0 0 1 1289 1989)">design is preserved when submitting to Xcode.</text>
  <text id="template-version" style="stroke:none;fill:black;font-family:-apple-system,&quot;SF Pro Display&quot;,&quot;SF Pro Text&quot;,Helvetica,sans-serif;text-anchor:end;" transform="matrix(1 0 0 1 3036 1933)">Template v.2.0</text>
  <text style="stroke:none;fill:black;font-family:-apple-system,&quot;SF Pro Display&quot;,&quot;SF Pro Text&quot;,Helvetica,sans-serif;text-anchor:end;" transform="matrix(1 0 0 1 3036 1951)">Requires Xcode 12 or greater</text>
  <text style="stroke:none;fill:black;font-family:-apple-system,&quot;SF Pro Display&quot;,&quot;SF Pro Text&quot;,Helvetica,sans-serif;text-anchor:end;" transform="matrix(1 0 0 1 3036 1969)">Generated from 4.square.fill</text>
  <text style="stroke:none;fill:black;font-family:-apple-system,&quot;SF Pro Display&quot;,&quot;SF Pro Text&quot;,Helvetica,sans-serif;text-anchor:end;" transform="matrix(1 0 0 1 3036 1987)">Typeset at 100 points</text>
  <text style="stroke:none;fill:black;font-family:-apple-system,&quot;SF Pro Display&quot;,&quot;SF Pro Text&quot;,Helvetica,sans-serif;" transform="matrix(1 0 0 1 263 726)">Small</text>
  <text style="stroke:none;fill:black;font-family:-apple-system,&quot;SF Pro Display&quot;,&quot;SF Pro Text&quot;,Helvetica,sans-serif;" transform="matrix(1 0 0 1 263 1156)">Medium</text>
  <text style="stroke:none;fill:black;font-family:-apple-system,&quot;SF Pro Display&quot;,&quot;SF Pro Text&quot;,Helvetica,sans-serif;" transform="matrix(1 0 0 1 263 1586)">Large</text>
 </g>
 <g id="Guides">
  <g id="H-reference" style="fill:#27AAE1;stroke:none;" transform="matrix(1 0 0 1 339 696)">
   <path d="M0.976562 0L3.66211 0L12.9883-24.4629L45.752-24.4629L55.127 0L57.7637 0L30.6152-70.459L28.125-70.459ZM29.3457-67.1387L29.4434-67.1387L44.873-26.709L13.8672-26.709Z"/>
  </g>
  <line id="Baseline-S" style="fill:none;stroke:#27AAE1;opacity:1;stroke-width:0.5;" x1="263" x2="3036" y1="696" y2="696"/>
  <line id="Capline-S" style="fill:none;stroke:#27AAE1;opacity:1;stroke-width:0.5;" x1="263" x2="3036" y1="625.541" y2="625.541"/>
  <g id="H-reference" style="fill:#27AAE1;stroke:none;" transform="matrix(1 0 0 1 339 1126)">
   <path d="M0.976562 0L3.66211 0L12.9883-24.4629L45.752-24.4629L55.127 0L57.7637 0L30.6152-70.459L28.125-70.459ZM29.3457-67.1387L29.4434-67.1387L44.873-26.709L13.8672-26.709Z"/>
  </g>
  <line id="Baseline-M" style="fill:none;stroke:#27AAE1;opacity:1;stroke-width:0.5;" x1="263" x2="3036" y1="1126" y2="1126"/>
  <line id="Capline-M" style="fill:none;stroke:#27AAE1;opacity:1;stroke-width:0.5;" x1="263" x2="3036" y1="1055.54" y2="1055.54"/>
  <g id="H-reference" style="fill:#27AAE1;stroke:none;" transform="matrix(1 0 0 1 339 1556)">
   <path d="M0.976562 0L3.66211 0L12.9883-24.4629L45.752-24.4629L55.127 0L57.7637 0L30.6152-70.459L28.125-70.459ZM29.3457-67.1387L29.4434-67.1387L44.873-26.709L13.8672-26.709Z"/>
  </g>
  <line id="Baseline-L" style="fill:none;stroke:#27AAE1;opacity:1;stroke-width:0.5;" x1="263" x2="3036" y1="1556" y2="1556"/>
  <line id="Capline-L" style="fill:none;stroke:#27AAE1;opacity:1;stroke-width:0.5;" x1="263" x2="3036" y1="1485.54" y2="1485.54"/>
  <line id="left-margin" style="fill:none;stroke:#00AEEF;stroke-width:0.5;opacity:1.0;" x1="1392.45" x2="1392.45" y1="1030.79" y2="1150.12"/>
  <line id="right-margin" style="fill:none;stroke:#00AEEF;stroke-width:0.5;opacity:1.0;" x1="1507.24" x2="1507.24" y1="1030.79" y2="1150.12"/>
 </g>
 <g id="Symbols">
  <g id="Black-L" transform="matrix(1 0 0 1 2855.62 1556)">
   <path d="M39.9902 26.5137L115.576 26.5137C130.811 26.5137 139.502 17.8711 139.502 2.68555L139.502-73.0957C139.502-88.2812 130.811-96.875 115.576-96.875L39.9902-96.875C24.7559-96.875 16.0645-88.2812 16.0645-73.0957L16.0645 2.68555C16.0645 17.8711 24.7559 26.5137 39.9902 26.5137ZM87.2559-4.58984C82.2754-4.58984 79.0039-7.51953 79.0039-13.2812L79.0039-14.7949L60.8398-14.7949C53.7109-14.7949 49.2188-18.8965 49.2188-25.293C49.2188-28.125 49.8535-31.1523 51.5625-34.8633C54.5898-40.7715 59.0332-48.3398 63.623-55.8105C68.2129-63.623 72.8027-66.4062 81.4453-66.4062C89.502-66.4062 95.6055-61.1328 95.6055-54.0527L95.6055-29.7852L97.168-29.7852C102.441-29.7852 105.566-26.9043 105.566-22.2656C105.566-17.6758 102.344-14.7949 97.1191-14.7949L95.6055-14.7949L95.6055-13.2812C95.6055-7.4707 92.334-4.58984 87.2559-4.58984ZM79.0039-29.7852L79.0039-52.8809L78.418-52.8809C74.0234-45.0684 69.3359-36.3281 66.3086-30.2734L66.3086-29.7852Z"/>
  </g>
  <g id="Heavy-L" transform="matrix(1 0 0 1 2559.93 1556)">
   <path d="M38.8184 25.4883L114.697 25.4883C129.346 25.4883 137.451 17.4316 137.451 2.88086L137.451-73.2422C137.451-87.793 129.346-95.8496 114.697-95.8496L38.8184-95.8496C24.2188-95.8496 16.0645-87.793 16.0645-73.2422L16.0645 2.88086C16.0645 17.4316 24.2188 25.4883 38.8184 25.4883ZM85.9375-4.88281C81.543-4.88281 78.6621-7.56836 78.6621-12.6953L78.6621-15.6738L59.2285-15.6738C52.8809-15.6738 48.9258-19.2871 48.9258-25C48.9258-27.5391 49.5117-30.2246 51.0742-33.4473C54.6387-39.9902 60.2051-49.0234 65.2344-56.9824C69.2871-63.7695 73.3887-66.2598 80.8594-66.2598C88.0371-66.2598 93.3105-61.6211 93.3105-55.3711L93.3105-28.8574L95.8008-28.8574C100.391-28.8574 103.125-26.3184 103.125-22.2656C103.125-18.2129 100.293-15.6738 95.752-15.6738L93.3105-15.6738L93.3105-12.6953C93.3105-7.51953 90.4297-4.88281 85.9375-4.88281ZM78.6621-28.8574L78.6621-54.1504L78.125-54.1504C73.291-45.9473 67.3828-35.8398 63.9648-29.2969L63.9648-28.8574Z"/>
  </g>
  <g id="Bold-L" transform="matrix(1 0 0 1 2264.37 1556)">
   <path d="M37.5 24.3652L113.721 24.3652C127.637 24.3652 135.156 16.8945 135.156 3.07617L135.156-73.3887C135.156-87.207 127.637-94.7266 113.721-94.7266L37.5-94.7266C23.6328-94.7266 16.0645-87.2559 16.0645-73.3887L16.0645 3.07617C16.0645 16.8945 23.6328 24.3652 37.5 24.3652ZM84.4727-5.27344C80.7129-5.27344 78.2715-7.61719 78.2715-11.9629L78.2715-16.6016L57.373-16.6016C52.002-16.6016 48.6328-19.7754 48.6328-24.6582C48.6328-26.9043 49.1211-29.1504 50.5371-31.9336C54.6875-39.1602 61.5234-49.707 67.041-58.3496C70.5078-63.9648 74.0234-66.0645 80.2734-66.0645C86.3281-66.0645 90.7227-62.207 90.7227-56.8848L90.7227-27.832L94.2871-27.832C98.0469-27.832 100.391-25.6348 100.391-22.2168C100.391-18.7988 97.998-16.6016 94.2871-16.6016L90.7227-16.6016L90.7227-11.9629C90.7227-7.61719 88.3301-5.27344 84.4727-5.27344ZM78.2715-27.832L78.2715-55.5176L77.7832-55.5176C72.4609-46.9727 65.2344-35.3516 61.3281-28.2715L61.3281-27.832Z"/>
  </g>
  <g id="Semibold-L" transform="matrix(1 0 0 1 1968.44 1556)">
   <path d="M36.6211 23.584L113.037 23.584C126.514 23.584 133.594 16.5039 133.594 3.17383L133.594-73.5352C133.594-86.8164 126.514-93.9453 113.037-93.9453L36.6211-93.9453C23.1934-93.9453 16.0645-86.8652 16.0645-73.5352L16.0645 3.17383C16.0645 16.5527 23.1934 23.584 36.6211 23.584ZM83.4473-5.51758C80.127-5.51758 78.0273-7.66602 78.0273-11.4746L78.0273-17.2852L56.1523-17.2852C51.3672-17.2852 48.3887-20.0684 48.3887-24.4141C48.3887-26.4648 48.877-28.418 50.1953-30.8594C54.7363-38.5742 62.4023-50.2441 68.3105-59.2285C71.3379-64.0625 74.4629-65.918 79.834-65.918C85.1562-65.918 88.9648-62.5977 88.9648-57.9102L88.9648-27.0996L93.2617-27.0996C96.4844-27.0996 98.4863-25.1465 98.4863-22.168C98.4863-19.2383 96.4355-17.2852 93.2617-17.2852L88.9648-17.2852L88.9648-11.4746C88.9648-7.61719 86.8652-5.51758 83.4473-5.51758ZM78.0273-27.0996L78.0273-56.4941L77.5391-56.4941C71.875-47.6562 63.7207-34.9609 59.5215-27.5391L59.5215-27.0996Z"/>
  </g>
  <g id="Medium-L" transform="matrix(1 0 0 1 1672.31 1556)">
   <path d="M35.9375 22.998L112.5 22.998C125.635 22.998 132.422 16.2109 132.422 3.27148L132.422-73.6328C132.422-86.5234 125.635-93.3105 112.5-93.3105L35.9375-93.3105C22.9004-93.3105 16.0645-86.5723 16.0645-73.6328L16.0645 3.27148C16.0645 16.2598 22.9004 22.998 35.9375 22.998ZM82.666-5.71289C79.6875-5.71289 77.832-7.71484 77.832-11.1328L77.832-17.7734L55.1758-17.7734C50.9277-17.7734 48.2422-20.3125 48.2422-24.2676C48.2422-26.123 48.6816-27.832 49.9023-30.0293C54.7852-38.1348 63.0859-50.5859 69.2383-59.9609C71.9238-64.1602 74.8047-65.8203 79.4922-65.8203C84.2773-65.8203 87.6465-62.8906 87.6465-58.6914L87.6465-26.5625L92.4805-26.5625C95.2637-26.5625 97.0215-24.8047 97.0215-22.168C97.0215-19.5312 95.2148-17.7734 92.4805-17.7734L87.6465-17.7734L87.6465-11.1328C87.6465-7.66602 85.791-5.71289 82.666-5.71289ZM77.832-26.5625L77.832-57.2266L77.3926-57.2266C71.4844-48.1445 62.5977-34.668 58.1543-26.9531L58.1543-26.5625Z"/>
  </g>
  <g id="Regular-L" transform="matrix(1 0 0 1 1376.38 1556)">
   <path d="M35.0586 22.2168L111.816 22.2168C124.463 22.2168 130.859 15.8691 130.859 3.41797L130.859-73.7305C130.859-86.1816 124.463-92.5293 111.816-92.5293L35.0586-92.5293C22.4609-92.5293 16.0645-86.2305 16.0645-73.7305L16.0645 3.41797C16.0645 15.918 22.4609 22.2168 35.0586 22.2168ZM81.6895-6.00586C79.1016-6.00586 77.5391-7.76367 77.5391-10.6445L77.5391-18.457L53.9551-18.457C50.293-18.457 47.998-20.6543 47.998-24.0234C47.998-25.6836 48.4375-27.0996 49.5605-28.9551C54.834-37.5977 63.9648-51.123 70.5078-60.8398C72.7539-64.3066 75.1953-65.6738 79.1016-65.6738C83.1543-65.6738 85.8887-63.2812 85.8887-59.7168L85.8887-25.8789L91.4551-25.8789C93.7012-25.8789 95.166-24.3652 95.166-22.1191C95.166-19.9707 93.6523-18.457 91.4551-18.457L85.8887-18.457L85.8887-10.6445C85.8887-7.71484 84.3262-6.00586 81.6895-6.00586ZM77.5391-25.8789L77.5391-58.2031L77.1484-58.2031C70.8984-48.8281 61.1328-34.3262 56.3965-26.2207L56.3965-25.8789Z"/>
  </g>
  <g id="Light-L" transform="matrix(1 0 0 1 1080.5 1556)">
   <path d="M34.0332 21.4355L111.23 21.4355C123.096 21.4355 129.199 15.2344 129.199 3.56445L129.199-73.8281C129.199-85.5469 123.096-91.6992 111.23-91.6992L34.0332-91.6992C22.168-91.6992 16.0645-85.6445 16.0645-73.8281L16.0645 3.56445C16.0645 15.3809 22.168 21.4355 34.0332 21.4355ZM80.4688-6.39648C78.5156-6.39648 77.2461-7.76367 77.2461-9.96094L77.2461-19.4336L53.2227-19.4336C50.2441-19.4336 48.3887-21.1914 48.3887-23.9258C48.3887-25.1953 48.7793-26.3672 49.6094-27.7344C54.7852-36.1816 65.4785-52.002 71.6797-61.1328C73.5352-63.916 75.4395-64.9902 78.3691-64.9902C81.6406-64.9902 83.7402-63.0859 83.7402-60.2539L83.7402-25.293L90.1367-25.293C91.8945-25.293 93.0664-24.0723 93.0664-22.3633C93.0664-20.6543 91.8945-19.4336 90.1367-19.4336L83.7402-19.4336L83.7402-9.96094C83.7402-7.76367 82.5195-6.39648 80.4688-6.39648ZM77.2461-25.293L77.2461-58.8379L76.8555-58.8379C71.3867-50.6836 59.5215-33.0566 55.0781-25.6348L55.0781-25.293Z"/>
  </g>
  <g id="Thin-L" transform="matrix(1 0 0 1 784.889 1556)">
   <path d="M32.666 20.3613L110.352 20.3613C121.24 20.3613 127.002 14.4531 127.002 3.75977L127.002-73.9746C127.002-84.7168 121.24-90.5762 110.352-90.5762L32.666-90.5762C21.7773-90.5762 16.0645-84.8633 16.0645-73.9746L16.0645 3.75977C16.0645 14.6484 21.7773 20.3613 32.666 20.3613ZM78.8574-6.98242C77.6855-6.98242 76.8066-7.8125 76.8066-9.0332L76.8066-20.752L52.2949-20.752C50.1465-20.752 48.9258-21.875 48.9258-23.7305C48.9258-24.5605 49.2676-25.3906 49.6582-26.123C54.6875-34.3262 67.4805-53.2227 73.2422-61.5234C74.5117-63.3789 75.6836-64.0625 77.4414-64.0625C79.5898-64.0625 80.8594-62.8418 80.8594-60.9863L80.8594-24.5117L88.4277-24.5117C89.5508-24.5117 90.332-23.6816 90.332-22.6562C90.332-21.582 89.5508-20.752 88.4277-20.752L80.8594-20.752L80.8594-9.0332C80.8594-7.8125 80.0781-6.98242 78.8574-6.98242ZM76.8066-24.5117L76.8066-59.668L76.5137-59.668C71.9727-53.125 57.3242-31.4453 53.3691-24.8535L53.3691-24.5117Z"/>
  </g>
  <g id="Ultralight-L" transform="matrix(1 0 0 1 488.739 1556)">
   <path d="M31.9824 19.7754L109.961 19.7754C120.312 19.7754 125.879 14.0625 125.879 3.85742L125.879-74.0723C125.879-84.2773 120.312-89.9902 109.961-89.9902L31.9824-89.9902C21.582-89.9902 16.0645-84.4727 16.0645-74.0723L16.0645 3.85742C16.0645 14.2578 21.582 19.7754 31.9824 19.7754ZM78.0273-7.27539C77.2461-7.27539 76.6113-7.86133 76.6113-8.59375L76.6113-21.4355L51.8066-21.4355C50.0977-21.4355 49.1699-22.2656 49.1699-23.6328C49.1699-24.2676 49.5117-24.9023 49.707-25.293C54.6875-33.3496 68.5547-53.8086 74.0723-61.7676C75.0488-63.1348 75.8301-63.5742 76.9531-63.5742C78.5645-63.5742 79.3945-62.6953 79.3945-61.3281L79.3945-24.1211L87.5488-24.1211C88.3789-24.1211 88.916-23.5352 88.916-22.8027C88.916-22.0703 88.3789-21.4355 87.5488-21.4355L79.3945-21.4355L79.3945-8.59375C79.3945-7.86133 78.8574-7.27539 78.0273-7.27539ZM76.6113-24.1211L76.6113-60.1074L76.3184-60.1074C72.2656-54.3945 56.25-30.6152 52.4902-24.4629L52.4902-24.1211Z"/>
  </g>
  <g id="Black-M" transform="matrix(1 0 0 1 2872.19 1126)">
   <path d="M31.9824 13.5742L90.4297 13.5742C102.686 13.5742 109.961 6.29883 109.961-5.95703L109.961-64.4043C109.961-76.6602 102.686-83.9355 90.4297-83.9355L31.9824-83.9355C19.7266-83.9355 12.4512-76.6602 12.4512-64.4043L12.4512-5.95703C12.4512 6.29883 19.7266 13.5742 31.9824 13.5742ZM68.75-11.2305C64.4531-11.2305 61.5234-13.6719 61.5234-18.7012L61.5234-18.75L48.9258-18.75C42.6758-18.75 38.7695-22.2656 38.7695-27.8809C38.7695-30.2734 39.2578-32.959 40.625-36.1816C42.1875-39.7461 45.0195-45.0195 47.7539-49.707C51.8066-56.7871 55.8105-59.2285 63.4766-59.2285C70.6055-59.2285 76.0254-54.541 76.0254-48.291L76.0254-31.9824L76.416-31.9824C81.25-31.9824 83.9844-29.4434 83.9844-25.3418C83.9844-21.2891 81.1523-18.75 76.3672-18.75L76.0254-18.75L76.0254-18.7012C76.0254-13.6719 73.0957-11.2305 68.75-11.2305ZM61.5234-31.9824L61.5234-47.5586L61.0352-47.5586C58.6426-42.6758 55.4688-36.084 53.8574-32.3242L53.8574-31.9824Z"/>
  </g>
  <g id="Heavy-M" transform="matrix(1 0 0 1 2576.39 1126)">
   <path d="M31.0059 12.6465L89.6484 12.6465C101.416 12.6465 108.154 5.9082 108.154-5.81055L108.154-64.5508C108.154-76.2695 101.416-83.0566 89.6484-83.0566L31.0059-83.0566C19.2383-83.0566 12.4512-76.3184 12.4512-64.5508L12.4512-5.81055C12.4512 5.9082 19.2383 12.6465 31.0059 12.6465ZM67.627-11.5234C63.7695-11.5234 61.2305-13.7207 61.2305-18.2129L61.2305-19.4336L47.3633-19.4336C41.7969-19.4336 38.3301-22.6074 38.3301-27.5879C38.3301-29.7363 38.8184-32.1289 40.0879-34.9609C42.2852-39.3066 45.8984-45.5078 49.2188-50.9277C52.7832-57.0801 56.3477-59.2285 63.0371-59.2285C69.3359-59.2285 74.0723-55.127 74.0723-49.6094L74.0723-31.1035L75.293-31.1035C79.4434-31.1035 81.8848-28.8574 81.8848-25.2441C81.8848-21.6797 79.3945-19.4336 75.2441-19.4336L74.0723-19.4336L74.0723-18.2129C74.0723-13.7207 71.5332-11.5234 67.627-11.5234ZM61.2305-31.1035L61.2305-48.7793L60.791-48.7793C57.7148-43.1641 53.8086-35.8887 51.6602-31.4453L51.6602-31.1035Z"/>
  </g>
  <g id="Bold-M" transform="matrix(1 0 0 1 2280.68 1126)">
   <path d="M29.8828 11.6699L88.7207 11.6699C99.9512 11.6699 106.152 5.46875 106.152-5.66406L106.152-64.6973C106.152-75.8789 99.9512-82.0312 88.7207-82.0312L29.8828-82.0312C18.6523-82.0312 12.4512-75.8789 12.4512-64.6973L12.4512-5.66406C12.4512 5.51758 18.6523 11.6699 29.8828 11.6699ZM66.3574-11.7676C63.0371-11.7676 60.8887-13.8184 60.8887-17.627L60.8887-20.2148L45.6055-20.2148C40.8203-20.2148 37.8906-22.9492 37.8906-27.2461C37.8906-29.1992 38.2812-31.1523 39.502-33.5938C42.334-38.8184 46.875-45.9961 50.8301-52.3438C53.9062-57.373 56.9824-59.2285 62.5977-59.2285C67.9688-59.2285 71.875-55.8105 71.875-51.123L71.875-30.127L74.0234-30.127C77.4414-30.127 79.4922-28.2227 79.4922-25.1465C79.4922-22.1191 77.3926-20.2148 73.9746-20.2148L71.875-20.2148L71.875-17.627C71.875-13.7695 69.7754-11.7676 66.3574-11.7676ZM60.8887-30.127L60.8887-50.0977L60.498-50.0977C56.6406-43.7012 51.9043-35.6445 49.1211-30.4688L49.1211-30.127Z"/>
  </g>
  <g id="Semibold-M" transform="matrix(1 0 0 1 1984.65 1126)">
   <path d="M29.1016 10.9863L88.0859 10.9863C98.9746 10.9863 104.785 5.17578 104.785-5.56641L104.785-64.8438C104.785-75.5859 98.9746-81.3477 88.0859-81.3477L29.1016-81.3477C18.2617-81.3477 12.4512-75.5859 12.4512-64.8438L12.4512-5.56641C12.4512 5.22461 18.2617 10.9863 29.1016 10.9863ZM65.5273-11.9629C62.5488-11.9629 60.6934-13.8184 60.6934-17.2363L60.6934-20.752L44.3848-20.752C40.1855-20.752 37.5488-23.1934 37.5488-27.002C37.5488-28.8086 37.9395-30.5176 39.1113-32.666C42.4316-38.4766 47.5586-46.3867 52.002-53.2715C54.6387-57.6172 57.4219-59.2285 62.2559-59.2285C66.9922-59.2285 70.4102-56.25 70.4102-52.1484L70.4102-29.4434L73.1445-29.4434C76.0254-29.4434 77.832-27.7344 77.832-25.0977C77.832-22.4609 75.9766-20.752 73.0957-20.752L70.4102-20.752L70.4102-17.2363C70.4102-13.8184 68.5547-11.9629 65.5273-11.9629ZM60.6934-29.4434L60.6934-51.0254L60.3027-51.0254C55.957-44.043 50.5859-35.498 47.4121-29.7852L47.4121-29.4434Z"/>
  </g>
  <g id="Medium-M" transform="matrix(1 0 0 1 1688.47 1126)">
   <path d="M28.5156 10.4492L87.6465 10.4492C98.2422 10.4492 103.711 4.98047 103.711-5.46875L103.711-64.8926C103.711-75.3418 98.2422-80.8105 87.6465-80.8105L28.5156-80.8105C17.9688-80.8105 12.4512-75.3906 12.4512-64.8926L12.4512-5.46875C12.4512 4.98047 17.9688 10.4492 28.5156 10.4492ZM64.8438-12.1094C62.1582-12.1094 60.498-13.8672 60.498-16.9434L60.498-21.1426L43.457-21.1426C39.6973-21.1426 37.3047-23.3887 37.3047-26.8555C37.3047-28.5156 37.6953-30.0293 38.7695-31.9824C42.4805-38.1836 48.0469-46.6797 52.832-54.0039C55.2246-57.7637 57.7637-59.2285 62.0117-59.2285C66.2598-59.2285 69.2871-56.5918 69.2871-52.8809L69.2871-28.9551L72.4609-28.9551C75-28.9551 76.5625-27.3926 76.5625-25.0488C76.5625-22.7051 74.9512-21.1426 72.4609-21.1426L69.2871-21.1426L69.2871-16.9434C69.2871-13.8184 67.627-12.1094 64.8438-12.1094ZM60.498-28.9551L60.498-51.7578L60.1562-51.7578C55.3711-44.3359 49.6094-35.4004 46.1426-29.248L46.1426-28.9551Z"/>
  </g>
  <g id="Regular-M" transform="matrix(1 0 0 1 1392.45 1126)">
   <path d="M27.7832 9.76562L87.0117 9.76562C97.2656 9.76562 102.344 4.6875 102.344-5.37109L102.344-64.9902C102.344-75.0488 97.2656-80.127 87.0117-80.127L27.7832-80.127C17.5781-80.127 12.4512-75.0977 12.4512-64.9902L12.4512-5.37109C12.4512 4.73633 17.5781 9.76562 27.7832 9.76562ZM63.9648-12.3047C61.6699-12.3047 60.3027-13.916 60.3027-16.5527L60.3027-21.6797L42.2363-21.6797C39.0137-21.6797 37.0117-23.6328 37.0117-26.6113C37.0117-28.125 37.3535-29.3457 38.3789-31.0547C42.5293-37.8418 48.7305-47.0215 53.9551-54.9316C55.957-57.959 58.1543-59.2285 61.6699-59.2285C65.332-59.2285 67.7734-57.0801 67.7734-53.9062L67.7734-28.3203L71.582-28.3203C73.6328-28.3203 74.9512-26.9531 74.9512-24.9512C74.9512-22.998 73.584-21.6797 71.582-21.6797L67.7734-21.6797L67.7734-16.5527C67.7734-13.8672 66.4062-12.3047 63.9648-12.3047ZM60.3027-28.3203L60.3027-52.6855L59.9609-52.6855C54.6875-44.7266 48.291-35.2051 44.4336-28.6133L44.4336-28.3203Z"/>
  </g>
  <g id="Light-M" transform="matrix(1 0 0 1 1096.47 1126)">
   <path d="M26.8555 9.0332L86.4746 9.0332C95.9961 9.0332 100.879 4.15039 100.879-5.22461L100.879-65.0879C100.879-74.5117 95.9961-79.3945 86.4746-79.3945L26.8555-79.3945C17.334-79.3945 12.4512-74.5605 12.4512-65.0879L12.4512-5.22461C12.4512 4.19922 17.334 9.0332 26.8555 9.0332ZM62.8906-12.6953C61.1328-12.6953 60.0098-13.9648 60.0098-15.9668L60.0098-22.5586L41.6016-22.5586C38.9648-22.5586 37.3535-24.1211 37.3535-26.5137C37.3535-27.6855 37.6465-28.7109 38.4277-29.9805C42.4805-36.5723 50.0977-47.8516 55.0293-55.1758C56.6406-57.6172 58.3496-58.5938 61.0352-58.5938C63.916-58.5938 65.8691-56.8848 65.8691-54.3945L65.8691-27.7832L70.459-27.7832C72.0215-27.7832 73.0469-26.709 73.0469-25.1465C73.0469-23.6328 71.9727-22.5586 70.459-22.5586L65.8691-22.5586L65.8691-15.9668C65.8691-13.916 64.7461-12.6953 62.8906-12.6953ZM60.0098-27.7832L60.0098-53.2227L59.668-53.2227C55.0781-46.3867 46.8262-34.1309 43.2617-28.0762L43.2617-27.7832Z"/>
  </g>
  <g id="Thin-M" transform="matrix(1 0 0 1 800.758 1126)">
   <path d="M25.6348 8.05664L85.7422 8.05664C94.3848 8.05664 98.877 3.4668 98.877-5.0293L98.877-65.2344C98.877-73.7305 94.3848-78.3691 85.7422-78.3691L25.6348-78.3691C16.9922-78.3691 12.4512-73.877 12.4512-65.2344L12.4512-5.0293C12.4512 3.56445 16.9922 8.05664 25.6348 8.05664ZM61.4258-13.2324C60.3516-13.2324 59.6191-13.9648 59.6191-15.1367L59.6191-23.7305L40.7227-23.7305C38.8672-23.7305 37.793-24.7559 37.793-26.3672C37.793-27.0996 38.0859-27.832 38.4766-28.5156C42.4316-34.9121 51.9043-48.9258 56.4453-55.5176C57.5195-57.1777 58.5938-57.7637 60.2051-57.7637C62.1094-57.7637 63.2812-56.6895 63.2812-55.0293L63.2812-27.0996L68.8965-27.0996C69.9219-27.0996 70.6055-26.3672 70.6055-25.3906C70.6055-24.4629 69.9219-23.7305 68.8965-23.7305L63.2812-23.7305L63.2812-15.1367C63.2812-13.9648 62.5977-13.2324 61.4258-13.2324ZM59.6191-27.0996L59.6191-54.0039L59.375-54.0039C55.6641-48.584 44.9219-32.666 41.748-27.3438L41.748-27.0996Z"/>
  </g>
  <g id="Ultralight-M" transform="matrix(1 0 0 1 504.535 1126)">
   <path d="M25 7.56836L85.3516 7.56836C93.5059 7.56836 97.9004 3.125 97.9004-4.98047L97.9004-65.2832C97.9004-73.3887 93.5059-77.832 85.3516-77.832L25-77.832C16.7969-77.832 12.4512-73.4863 12.4512-65.2832L12.4512-4.98047C12.4512 3.22266 16.7969 7.56836 25 7.56836ZM60.6934-13.4766C60.0098-13.4766 59.4238-14.0137 59.4238-14.7461L59.4238-24.3652L40.2832-24.3652C38.8184-24.3652 38.0371-25.0488 38.0371-26.2695C38.0371-26.8066 38.2812-27.3926 38.5254-27.7832C42.3828-34.082 52.7832-49.4629 57.1289-55.7129C58.0078-56.9336 58.7402-57.373 59.8145-57.373C61.1816-57.373 61.9629-56.543 61.9629-55.3711L61.9629-26.7578L68.1152-26.7578C68.8477-26.7578 69.3359-26.2207 69.3359-25.5371C69.3359-24.9023 68.8477-24.3652 68.1152-24.3652L61.9629-24.3652L61.9629-14.7461C61.9629-14.0137 61.4746-13.4766 60.6934-13.4766ZM59.4238-26.7578L59.4238-54.3457L59.1797-54.3457C55.9082-49.707 43.8965-31.8848 40.9668-27.002L40.9668-26.7578Z"/>
  </g>
  <g id="Black-S" transform="matrix(1 0 0 1 2885.5 696)">
   <path d="M25 2.92969L70.8008 2.92969C80.3711 2.92969 86.0352-2.73438 86.0352-12.3047L86.0352-58.1055C86.0352-67.6758 80.3711-73.3398 70.8008-73.3398L25-73.3398C15.4297-73.3398 9.76562-67.6758 9.76562-58.1055L9.76562-12.3047C9.76562-2.73438 15.4297 2.92969 25 2.92969ZM53.8086-16.4551C50.4395-16.4551 48.1934-18.3594 48.1934-22.2656L48.1934-22.3633L38.2324-22.3633C33.3496-22.3633 30.3223-25.0977 30.3223-29.4434C30.3223-31.2988 30.7129-33.3984 31.7871-35.8887C33.0566-38.7695 35.3027-42.9199 37.5-46.6797C40.6738-52.1484 43.75-54.0527 49.707-54.0527C55.2246-54.0527 59.4238-50.3906 59.4238-45.5566L59.4238-32.6172L59.8145-32.6172C63.5254-32.6172 65.6738-30.6641 65.6738-27.4902C65.6738-24.3164 63.4766-22.3633 59.7656-22.3633L59.4238-22.3633L59.4238-22.2656C59.4238-18.3594 57.1777-16.4551 53.8086-16.4551ZM48.1934-32.6172L48.1934-44.9707L47.8027-44.9707C45.8496-41.0645 43.3594-35.8887 42.041-32.9102L42.041-32.6172Z"/>
  </g>
  <g id="Heavy-S" transform="matrix(1 0 0 1 2589.4 696)">
   <path d="M24.3652 2.34375L70.2637 2.34375C79.541 2.34375 84.8145-2.97852 84.8145-12.207L84.8145-58.2031C84.8145-67.4316 79.541-72.7539 70.2637-72.7539L24.3652-72.7539C15.0879-72.7539 9.76562-67.4316 9.76562-58.2031L9.76562-12.207C9.76562-2.97852 15.0879 2.34375 24.3652 2.34375ZM53.0762-16.6016C50-16.6016 47.998-18.4082 47.998-21.9238L47.998-22.8027L37.1094-22.8027C32.7148-22.8027 29.9805-25.293 29.9805-29.248C29.9805-30.957 30.3223-32.8125 31.3965-35.1074C33.1055-38.5742 35.8398-43.2129 38.5254-47.6074C41.3574-52.3926 44.1406-54.1016 49.4629-54.1016C54.4434-54.1016 58.1543-50.8789 58.1543-46.5332L58.1543-32.0312L59.082-32.0312C62.3047-32.0312 64.2578-30.2246 64.2578-27.3926C64.2578-24.5605 62.2559-22.8027 59.0332-22.8027L58.1543-22.8027L58.1543-21.9238C58.1543-18.4082 56.1523-16.6016 53.0762-16.6016ZM47.998-32.0312L47.998-45.8496L47.6562-45.8496C45.0684-41.2598 42.2363-35.8398 40.4785-32.2754L40.4785-32.0312Z"/>
  </g>
  <g id="Bold-S" transform="matrix(1 0 0 1 2293.35 696)">
   <path d="M23.6328 1.66016L69.6289 1.66016C78.6133 1.66016 83.4961-3.22266 83.4961-12.1094L83.4961-58.3008C83.4961-67.1875 78.6133-72.0703 69.6289-72.0703L23.6328-72.0703C14.6973-72.0703 9.76562-67.1875 9.76562-58.3008L9.76562-12.1094C9.76562-3.22266 14.6973 1.66016 23.6328 1.66016ZM52.2461-16.7969C49.5117-16.7969 47.8027-18.457 47.8027-21.582L47.8027-23.2422L35.791-23.2422C31.9824-23.2422 29.5898-25.4883 29.5898-29.0039C29.5898-30.5664 29.8828-32.1777 30.9082-34.1797C33.2031-38.3301 36.4258-43.5059 39.6484-48.584C42.0898-52.6855 44.6289-54.1992 49.1699-54.1992C53.5156-54.1992 56.7383-51.416 56.7383-47.6074L56.7383-31.3477L58.252-31.3477C60.9863-31.3477 62.6465-29.7852 62.6465-27.2949C62.6465-24.8535 60.9375-23.2422 58.2031-23.2422L56.7383-23.2422L56.7383-21.582C56.7383-18.4082 54.9805-16.7969 52.2461-16.7969ZM47.8027-31.3477L47.8027-46.7773L47.4609-46.7773C44.2383-41.4551 40.9668-35.8398 38.7207-31.5918L38.7207-31.3477Z"/>
  </g>
  <g id="Semibold-S" transform="matrix(1 0 0 1 1997.1 696)">
   <path d="M23.0957 1.17188L69.1895 1.17188C77.9297 1.17188 82.5684-3.36914 82.5684-12.0117L82.5684-58.3984C82.5684-67.041 77.9297-71.582 69.1895-71.582L23.0957-71.582C14.4043-71.582 9.76562-67.041 9.76562-58.3984L9.76562-12.0117C9.76562-3.36914 14.4043 1.17188 23.0957 1.17188ZM51.6602-16.8945C49.1699-16.8945 47.6074-18.457 47.6074-21.3379L47.6074-23.584L34.9121-23.584C31.4941-23.584 29.2969-25.6348 29.2969-28.8086C29.2969-30.3223 29.5898-31.7383 30.6152-33.5938C33.252-38.1836 36.8164-43.7012 40.4297-49.3164C42.627-52.8809 44.9219-54.248 48.9746-54.248C52.9297-54.248 55.7617-51.7578 55.7617-48.3398L55.7617-30.8594L57.666-30.8594C60.0586-30.8594 61.5234-29.4434 61.5234-27.1973C61.5234-25 60.0098-23.584 57.666-23.584L55.7617-23.584L55.7617-21.3379C55.7617-18.4082 54.1992-16.8945 51.6602-16.8945ZM47.6074-30.8594L47.6074-47.4609L47.3145-47.4609C43.6523-41.6016 40.0879-35.791 37.5-31.1035L37.5-30.8594Z"/>
  </g>
  <g id="Medium-S" transform="matrix(1 0 0 1 1700.75 696)">
   <path d="M22.7051 0.830078L68.8965 0.830078C77.4414 0.830078 81.8359-3.51562 81.8359-11.9629L81.8359-58.4473C81.8359-66.8945 77.4414-71.2402 68.8965-71.2402L22.7051-71.2402C14.209-71.2402 9.76562-66.8945 9.76562-58.4473L9.76562-11.9629C9.76562-3.51562 14.209 0.830078 22.7051 0.830078ZM51.2207-16.9922C48.9258-16.9922 47.5098-18.5059 47.5098-21.1426L47.5098-23.8281L34.2773-23.8281C31.1035-23.8281 29.1016-25.7812 29.1016-28.7109C29.1016-30.127 29.3945-31.3965 30.3711-33.1055C33.3008-38.0371 37.1094-43.8477 41.0156-49.8535C43.0176-53.0273 45.166-54.2969 48.8281-54.2969C52.4414-54.2969 55.0293-52.0508 55.0293-48.877L55.0293-30.5176L57.2266-30.5176C59.375-30.5176 60.6934-29.1992 60.6934-27.1484C60.6934-25.1465 59.3262-23.8281 57.2266-23.8281L55.0293-23.8281L55.0293-21.1426C55.0293-18.457 53.6133-16.9922 51.2207-16.9922ZM47.5098-30.5176L47.5098-47.9492L47.2168-47.9492C43.2129-41.6992 39.4043-35.791 36.5723-30.7617L36.5723-30.5176Z"/>
  </g>
  <g id="Regular-S" transform="matrix(1 0 0 1 1404.51 696)">
   <path d="M22.2168 0.390625L68.457 0.390625C76.8066 0.390625 80.9082-3.71094 80.9082-11.9141L80.9082-58.4961C80.9082-66.6992 76.8066-70.8008 68.457-70.8008L22.2168-70.8008C13.916-70.8008 9.76562-66.6992 9.76562-58.4961L9.76562-11.9141C9.76562-3.71094 13.916 0.390625 22.2168 0.390625ZM50.6836-17.0898C48.584-17.0898 47.3633-18.5059 47.3633-20.8984L47.3633-24.1699L33.3984-24.1699C30.6152-24.1699 28.8086-25.9277 28.8086-28.5645C28.8086-29.8828 29.1016-30.957 30.0293-32.5195C33.3496-37.8906 37.5-44.0918 41.748-50.5371C43.5059-53.2227 45.5078-54.3457 48.6328-54.3457C51.8555-54.3457 54.0527-52.3926 54.0527-49.6582L54.0527-30.0293L56.6406-30.0293C58.4473-30.0293 59.6191-28.8574 59.6191-27.0996C59.6191-25.3418 58.3984-24.1699 56.6406-24.1699L54.0527-24.1699L54.0527-20.8984C54.0527-18.457 52.832-17.0898 50.6836-17.0898ZM47.3633-30.0293L47.3633-48.6328L47.0703-48.6328C42.627-41.8457 38.5254-35.7422 35.3516-30.2734L35.3516-30.0293Z"/>
  </g>
  <g id="Light-S" transform="matrix(1 0 0 1 1108.46 696)">
   <path d="M21.3867-0.292969L67.9688-0.292969C75.7324-0.292969 79.5898-4.15039 79.5898-11.7676L79.5898-58.5938C79.5898-66.2109 75.7324-70.1172 67.9688-70.1172L21.3867-70.1172C13.6719-70.1172 9.76562-66.2598 9.76562-58.5938L9.76562-11.7676C9.76562-4.15039 13.6719-0.292969 21.3867-0.292969ZM49.707-17.4316C48.0957-17.4316 47.1191-18.5547 47.1191-20.3613L47.1191-24.9512L32.8125-24.9512C30.5664-24.9512 29.1016-26.3184 29.1016-28.4668C29.1016-29.4922 29.3945-30.3711 30.0781-31.543C33.3008-36.7676 38.7207-44.7754 42.7246-50.7812C44.0918-52.9297 45.6543-53.8086 48.0957-53.8086C50.6348-53.8086 52.3438-52.2461 52.3438-50.0488L52.3438-29.5898L55.6152-29.5898C57.0312-29.5898 57.959-28.6621 57.959-27.2461C57.959-25.8789 56.9824-24.9512 55.6152-24.9512L52.3438-24.9512L52.3438-20.3613C52.3438-18.5059 51.3672-17.4316 49.707-17.4316ZM47.1191-29.5898L47.1191-49.1211L46.875-49.1211C43.0176-43.3105 37.2559-34.7656 34.3262-29.834L34.3262-29.5898Z"/>
  </g>
  <g id="Thin-S" transform="matrix(1 0 0 1 812.599 696)">
   <path d="M20.3125-1.12305L67.334-1.12305C74.2676-1.12305 77.8809-4.78516 77.8809-11.6211L77.8809-58.6914C77.8809-65.5762 74.2676-69.2383 67.334-69.2383L20.3125-69.2383C13.3789-69.2383 9.76562-65.625 9.76562-58.6914L9.76562-11.6211C9.76562-4.6875 13.3789-1.12305 20.3125-1.12305ZM48.4375-17.8711C47.4609-17.8711 46.7773-18.5547 46.7773-19.6289L46.7773-25.9766L32.0801-25.9766C30.4688-25.9766 29.541-26.9043 29.541-28.3203C29.541-29.0039 29.7363-29.5898 30.127-30.2734C33.252-35.3027 40.2832-45.752 43.9453-51.0742C44.9219-52.4902 45.8496-53.0762 47.3633-53.0762C49.0234-53.0762 50.0488-52.0996 50.0488-50.6348L50.0488-29.0039L54.2969-29.0039C55.1758-29.0039 55.7617-28.3691 55.7617-27.4902C55.7617-26.6113 55.1758-25.9766 54.2969-25.9766L50.0488-25.9766L50.0488-19.6289C50.0488-18.5547 49.4629-17.8711 48.4375-17.8711ZM46.7773-29.0039L46.7773-49.7559L46.582-49.7559C43.5059-45.2637 35.5469-33.4961 33.0078-29.1992L33.0078-29.0039Z"/>
  </g>
  <g id="Ultralight-S" transform="matrix(1 0 0 1 516.352 696)">
   <path d="M19.7754-1.5625L66.9922-1.5625C73.5352-1.5625 76.9531-5.12695 76.9531-11.5234L76.9531-58.7891C76.9531-65.2344 73.5352-68.75 66.9922-68.75L19.7754-68.75C13.2324-68.75 9.76562-65.2832 9.76562-58.7891L9.76562-11.5234C9.76562-5.0293 13.2324-1.5625 19.7754-1.5625ZM47.7539-18.1152C47.1191-18.1152 46.6309-18.6035 46.6309-19.2871L46.6309-26.5137L31.6895-26.5137C30.4199-26.5137 29.7363-27.1973 29.7363-28.2227C29.7363-28.7109 29.9316-29.1992 30.1758-29.5898C33.2031-34.5703 41.1133-46.2402 44.5801-51.2207C45.3125-52.2949 45.9473-52.6855 46.9727-52.6855C48.1934-52.6855 48.877-51.9531 48.877-50.9277L48.877-28.6621L53.5645-28.6621C54.1992-28.6621 54.6387-28.2227 54.6387-27.5879C54.6387-27.002 54.1992-26.5137 53.5645-26.5137L48.877-26.5137L48.877-19.2871C48.877-18.6035 48.4863-18.1152 47.7539-18.1152ZM46.6309-28.6621L46.6309-50.0977L46.4355-50.0977C43.75-46.2402 34.668-32.8125 32.2754-28.8574L32.2754-28.6621Z"/>
  </g>
 </g>
</svg>
