<?xml version="1.0" encoding="UTF-8"?>
<!--Generator: Apple Native CoreSVG 149-->
<!DOCTYPE svg
PUBLIC "-//W3C//DTD SVG 1.1//EN"
       "http://www.w3.org/Graphics/SVG/1.1/DTD/svg11.dtd">
<svg version="1.1" xmlns="http://www.w3.org/2000/svg" xmlns:xlink="http://www.w3.org/1999/xlink" width="3300" height="2200">
 <!--glyph: "uni100556.medium", point size: 100.000000, font version: "Version 16.0d18e1", template writer version: "8"-->
 <g id="Notes">
  <rect height="2200" id="artboard" style="fill:white;opacity:1" width="3300" x="0" y="0"/>
  <line id="" style="fill:none;stroke:black;opacity:1;stroke-width:0.5;" x1="263" x2="3036" y1="292" y2="292"/>
  <text style="stroke:none;fill:black;font-family:-apple-system,&quot;SF Pro Display&quot;,&quot;SF Pro Text&quot;,Helvetica,sans-serif;font-weight:bold;" transform="matrix(1 0 0 1 263 322)">Weight/Scale Variations</text>
  <text style="stroke:none;fill:black;font-family:-apple-system,&quot;SF Pro Display&quot;,&quot;SF Pro Text&quot;,Helvetica,sans-serif;text-anchor:middle;" transform="matrix(1 0 0 1 559.711 322)">Ultralight</text>
  <text style="stroke:none;fill:black;font-family:-apple-system,&quot;SF Pro Display&quot;,&quot;SF Pro Text&quot;,Helvetica,sans-serif;text-anchor:middle;" transform="matrix(1 0 0 1 856.422 322)">Thin</text>
  <text style="stroke:none;fill:black;font-family:-apple-system,&quot;SF Pro Display&quot;,&quot;SF Pro Text&quot;,Helvetica,sans-serif;text-anchor:middle;" transform="matrix(1 0 0 1 1153.13 322)">Light</text>
  <text style="stroke:none;fill:black;font-family:-apple-system,&quot;SF Pro Display&quot;,&quot;SF Pro Text&quot;,Helvetica,sans-serif;text-anchor:middle;" transform="matrix(1 0 0 1 1449.84 322)">Regular</text>
  <text style="stroke:none;fill:black;font-family:-apple-system,&quot;SF Pro Display&quot;,&quot;SF Pro Text&quot;,Helvetica,sans-serif;text-anchor:middle;" transform="matrix(1 0 0 1 1746.56 322)">Medium</text>
  <text style="stroke:none;fill:black;font-family:-apple-system,&quot;SF Pro Display&quot;,&quot;SF Pro Text&quot;,Helvetica,sans-serif;text-anchor:middle;" transform="matrix(1 0 0 1 2043.27 322)">Semibold</text>
  <text style="stroke:none;fill:black;font-family:-apple-system,&quot;SF Pro Display&quot;,&quot;SF Pro Text&quot;,Helvetica,sans-serif;text-anchor:middle;" transform="matrix(1 0 0 1 2339.98 322)">Bold</text>
  <text style="stroke:none;fill:black;font-family:-apple-system,&quot;SF Pro Display&quot;,&quot;SF Pro Text&quot;,Helvetica,sans-serif;text-anchor:middle;" transform="matrix(1 0 0 1 2636.69 322)">Heavy</text>
  <text style="stroke:none;fill:black;font-family:-apple-system,&quot;SF Pro Display&quot;,&quot;SF Pro Text&quot;,Helvetica,sans-serif;text-anchor:middle;" transform="matrix(1 0 0 1 2933.4 322)">Black</text>
  <line id="" style="fill:none;stroke:black;opacity:1;stroke-width:0.5;" x1="263" x2="3036" y1="1903" y2="1903"/>
  <g id="" transform="matrix(1 0 0 1 263 1933)">
   <path d="M9.24805 0.830078C13.5547 0.830078 17.1387-2.74414 17.1387-7.05078C17.1387-11.3574 13.5449-14.9316 9.23828-14.9316C4.94141-14.9316 1.36719-11.3574 1.36719-7.05078C1.36719-2.74414 4.95117 0.830078 9.24805 0.830078ZM9.24805-0.654297C5.70312-0.654297 2.87109-3.49609 2.87109-7.05078C2.87109-10.6055 5.69336-13.4473 9.23828-13.4473C12.793-13.4473 15.6348-10.6055 15.6445-7.05078C15.6543-3.49609 12.8027-0.654297 9.24805-0.654297ZM6.39648-6.31836L8.50586-6.31836L8.50586-4.19922C8.50586-3.75977 8.79883-3.45703 9.22852-3.45703C9.67773-3.45703 9.9707-3.75977 9.9707-4.19922L9.9707-6.31836L12.0996-6.31836C12.5391-6.31836 12.8418-6.61133 12.8418-7.04102C12.8418-7.48047 12.5391-7.7832 12.0996-7.7832L9.9707-7.7832L9.9707-9.89258C9.9707-10.3418 9.67773-10.6445 9.22852-10.6445C8.79883-10.6445 8.50586-10.3418 8.50586-9.89258L8.50586-7.7832L6.39648-7.7832C5.94727-7.7832 5.64453-7.48047 5.64453-7.04102C5.64453-6.61133 5.94727-6.31836 6.39648-6.31836Z"/>
  </g>
  <g id="" transform="matrix(1 0 0 1 281.506 1933)">
   <path d="M11.709 2.91016C17.1582 2.91016 21.6699-1.61133 21.6699-7.05078C21.6699-12.5 17.1484-17.0117 11.6992-17.0117C6.25977-17.0117 1.74805-12.5 1.74805-7.05078C1.74805-1.61133 6.26953 2.91016 11.709 2.91016ZM11.709 1.25C7.09961 1.25 3.41797-2.44141 3.41797-7.05078C3.41797-11.6602 7.08984-15.3516 11.6992-15.3516C16.3086-15.3516 20-11.6602 20.0098-7.05078C20.0195-2.44141 16.3184 1.25 11.709 1.25ZM7.98828-6.23047L10.8789-6.23047L10.8789-3.32031C10.8789-2.83203 11.2109-2.5 11.6895-2.5C12.1777-2.5 12.5195-2.83203 12.5195-3.32031L12.5195-6.23047L15.4297-6.23047C15.918-6.23047 16.25-6.5625 16.25-7.04102C16.25-7.5293 15.918-7.87109 15.4297-7.87109L12.5195-7.87109L12.5195-10.7617C12.5195-11.2695 12.1777-11.6016 11.6895-11.6016C11.2109-11.6016 10.8789-11.2598 10.8789-10.7617L10.8789-7.87109L7.98828-7.87109C7.48047-7.87109 7.14844-7.5293 7.14844-7.04102C7.14844-6.5625 7.49023-6.23047 7.98828-6.23047Z"/>
  </g>
  <g id="" transform="matrix(1 0 0 1 304.924 1933)">
   <path d="M14.9707 5.66406C21.9336 5.66406 27.6953-0.0976562 27.6953-7.05078C27.6953-14.0137 21.9238-19.7754 14.9609-19.7754C8.00781-19.7754 2.25586-14.0137 2.25586-7.05078C2.25586-0.0976562 8.01758 5.66406 14.9707 5.66406ZM14.9707 3.84766C8.93555 3.84766 4.08203-1.01562 4.08203-7.05078C4.08203-13.0957 8.92578-17.9492 14.9609-17.9492C21.0059-17.9492 25.8594-13.0957 25.8691-7.05078C25.8789-1.01562 21.0156 3.84766 14.9707 3.84766ZM10.0586-6.14258L14.0625-6.14258L14.0625-2.12891C14.0625-1.5918 14.4336-1.2207 14.9512-1.2207C15.4883-1.2207 15.8594-1.5918 15.8594-2.12891L15.8594-6.14258L19.8828-6.14258C20.4102-6.14258 20.791-6.51367 20.791-7.03125C20.791-7.56836 20.4199-7.94922 19.8828-7.94922L15.8594-7.94922L15.8594-11.9531C15.8594-12.5098 15.4883-12.8809 14.9512-12.8809C14.4336-12.8809 14.0625-12.5 14.0625-11.9531L14.0625-7.94922L10.0586-7.94922C9.50195-7.94922 9.13086-7.56836 9.13086-7.03125C9.13086-6.51367 9.51172-6.14258 10.0586-6.14258Z"/>
  </g>
  <text style="stroke:none;fill:black;font-family:-apple-system,&quot;SF Pro Display&quot;,&quot;SF Pro Text&quot;,Helvetica,sans-serif;font-weight:bold;" transform="matrix(1 0 0 1 263 1953)">Design Variations</text>
  <text style="stroke:none;fill:black;font-family:-apple-system,&quot;SF Pro Display&quot;,&quot;SF Pro Text&quot;,Helvetica,sans-serif;" transform="matrix(1 0 0 1 263 1971)">Symbols are supported in up to nine weights and three scales.</text>
  <text style="stroke:none;fill:black;font-family:-apple-system,&quot;SF Pro Display&quot;,&quot;SF Pro Text&quot;,Helvetica,sans-serif;" transform="matrix(1 0 0 1 263 1989)">For optimal layout with text and other symbols, vertically align</text>
  <text style="stroke:none;fill:black;font-family:-apple-system,&quot;SF Pro Display&quot;,&quot;SF Pro Text&quot;,Helvetica,sans-serif;" transform="matrix(1 0 0 1 263 2007)">symbols with the adjacent text.</text>
  <line id="" style="fill:none;stroke:#00AEEF;stroke-width:0.5;opacity:1.0;" x1="776" x2="776" y1="1919" y2="1933"/>
  <g id="" transform="matrix(1 0 0 1 776 1933)">
   <path d="M3.31055 0.126953C3.82812 0.126953 4.08203-0.0683594 4.26758-0.605469L5.52734-4.0625L11.2891-4.0625L12.5488-0.605469C12.7344-0.0683594 12.9883 0.126953 13.4961 0.126953C14.0137 0.126953 14.3457-0.185547 14.3457-0.673828C14.3457-0.839844 14.3164-0.986328 14.2383-1.20117L9.6582-13.3887C9.43359-13.9941 9.0332-14.2871 8.4082-14.2871C7.80273-14.2871 7.39258-13.9941 7.17773-13.3984L2.59766-1.19141C2.51953-0.976562 2.49023-0.830078 2.49023-0.664062C2.49023-0.175781 2.80273 0.126953 3.31055 0.126953ZM6.00586-5.53711L8.37891-12.1094L8.42773-12.1094L10.8008-5.53711Z"/>
  </g>
  <line id="" style="fill:none;stroke:#00AEEF;stroke-width:0.5;opacity:1.0;" x1="792.836" x2="792.836" y1="1919" y2="1933"/>
  <text style="stroke:none;fill:black;font-family:-apple-system,&quot;SF Pro Display&quot;,&quot;SF Pro Text&quot;,Helvetica,sans-serif;font-weight:bold;" transform="matrix(1 0 0 1 776 1953)">Margins</text>
  <text style="stroke:none;fill:black;font-family:-apple-system,&quot;SF Pro Display&quot;,&quot;SF Pro Text&quot;,Helvetica,sans-serif;" transform="matrix(1 0 0 1 776 1971)">Leading and trailing margins on the left and right side of each symbol</text>
  <text style="stroke:none;fill:black;font-family:-apple-system,&quot;SF Pro Display&quot;,&quot;SF Pro Text&quot;,Helvetica,sans-serif;" transform="matrix(1 0 0 1 776 1989)">can be adjusted by modifying the x-location of the margin guidelines.</text>
  <text style="stroke:none;fill:black;font-family:-apple-system,&quot;SF Pro Display&quot;,&quot;SF Pro Text&quot;,Helvetica,sans-serif;" transform="matrix(1 0 0 1 776 2007)">Modifications are automatically applied proportionally to all</text>
  <text style="stroke:none;fill:black;font-family:-apple-system,&quot;SF Pro Display&quot;,&quot;SF Pro Text&quot;,Helvetica,sans-serif;" transform="matrix(1 0 0 1 776 2025)">scales and weights.</text>
  <g id="" transform="matrix(1 0 0 1 1289 1933)">
   <path d="M2.8418 1.86523L4.54102 3.57422C5.40039 4.44336 6.38672 4.38477 7.31445 3.35938L17.4902-7.85156C17.7539-7.76367 18.0273-7.7832 18.3398-7.8418L19.4043-8.03711L20.0684-7.36328L20.0293-6.80664C19.9902-6.30859 20.1172-5.92773 20.6055-5.44922L21.3672-4.70703C21.8457-4.22852 22.4609-4.19922 22.9297-4.66797L25.8398-7.58789C26.3086-8.05664 26.2891-8.65234 25.8105-9.13086L25.0391-9.89258C24.5605-10.3711 24.1895-10.5273 23.7109-10.4883L23.1348-10.4395L22.4902-11.0742L22.7344-12.1973C22.8613-12.7637 22.7051-13.2031 22.1191-13.7891L19.9219-15.9766C16.582-19.2969 12.1484-19.2188 9.25781-16.3281C8.83789-15.918 8.80859-15.3418 9.04297-14.9512C9.27734-14.5898 9.73633-14.3555 10.3809-14.5215C11.8457-14.8633 13.3691-14.9219 14.7949-13.9844L14.209-12.5293C14.0137-12.0508 13.9844-11.6504 14.1113-11.2891L3.04688-0.898438C2.06055 0.0195312 1.98242 0.996094 2.8418 1.86523ZM10.752-15.957C13.1836-17.7344 16.4746-17.4316 18.7012-15.2051L21.1328-12.793C21.3672-12.5586 21.4062-12.373 21.3379-12.0312L21.0156-10.5469L22.5195-9.0625L23.5059-9.12109C23.7598-9.13086 23.8379-9.11133 24.0332-8.91602L24.6094-8.33984L22.168-5.89844L21.5918-6.47461C21.3965-6.66992 21.3672-6.74805 21.377-7.01172L21.4453-7.98828L19.9512-9.47266L18.4277-9.21875C18.1055-9.15039 17.959-9.17969 17.7148-9.41406L15.7129-11.416C15.459-11.6504 15.4297-11.8164 15.5859-12.1875L16.4648-14.2773C14.9023-15.7324 12.8711-16.3574 10.8398-15.7617C10.6836-15.7227 10.625-15.8496 10.752-15.957ZM5.27344 2.30469L4.10156 1.14258C3.63281 0.683594 3.74023 0.341797 4.14062-0.0195312L14.9512-10.1953L16.416-8.71094L6.42578 2.27539C6.07422 2.67578 5.74219 2.77344 5.27344 2.30469Z"/>
  </g>
  <text style="stroke:none;fill:black;font-family:-apple-system,&quot;SF Pro Display&quot;,&quot;SF Pro Text&quot;,Helvetica,sans-serif;font-weight:bold;" transform="matrix(1 0 0 1 1289 1953)">Exporting</text>
  <text style="stroke:none;fill:black;font-family:-apple-system,&quot;SF Pro Display&quot;,&quot;SF Pro Text&quot;,Helvetica,sans-serif;" transform="matrix(1 0 0 1 1289 1971)">Symbols should be outlined when exporting to ensure the</text>
  <text style="stroke:none;fill:black;font-family:-apple-system,&quot;SF Pro Display&quot;,&quot;SF Pro Text&quot;,Helvetica,sans-serif;" transform="matrix(1 0 0 1 1289 1989)">design is preserved when submitting to Xcode.</text>
  <text id="template-version" style="stroke:none;fill:black;font-family:-apple-system,&quot;SF Pro Display&quot;,&quot;SF Pro Text&quot;,Helvetica,sans-serif;text-anchor:end;" transform="matrix(1 0 0 1 3036 1933)">Template v.2.0</text>
  <text style="stroke:none;fill:black;font-family:-apple-system,&quot;SF Pro Display&quot;,&quot;SF Pro Text&quot;,Helvetica,sans-serif;text-anchor:end;" transform="matrix(1 0 0 1 3036 1951)">Requires Xcode 12 or greater</text>
  <text style="stroke:none;fill:black;font-family:-apple-system,&quot;SF Pro Display&quot;,&quot;SF Pro Text&quot;,Helvetica,sans-serif;text-anchor:end;" transform="matrix(1 0 0 1 3036 1969)">Generated from 14.square.fill</text>
  <text style="stroke:none;fill:black;font-family:-apple-system,&quot;SF Pro Display&quot;,&quot;SF Pro Text&quot;,Helvetica,sans-serif;text-anchor:end;" transform="matrix(1 0 0 1 3036 1987)">Typeset at 100 points</text>
  <text style="stroke:none;fill:black;font-family:-apple-system,&quot;SF Pro Display&quot;,&quot;SF Pro Text&quot;,Helvetica,sans-serif;" transform="matrix(1 0 0 1 263 726)">Small</text>
  <text style="stroke:none;fill:black;font-family:-apple-system,&quot;SF Pro Display&quot;,&quot;SF Pro Text&quot;,Helvetica,sans-serif;" transform="matrix(1 0 0 1 263 1156)">Medium</text>
  <text style="stroke:none;fill:black;font-family:-apple-system,&quot;SF Pro Display&quot;,&quot;SF Pro Text&quot;,Helvetica,sans-serif;" transform="matrix(1 0 0 1 263 1586)">Large</text>
 </g>
 <g id="Guides">
  <g id="H-reference" style="fill:#27AAE1;stroke:none;" transform="matrix(1 0 0 1 339 696)">
   <path d="M0.976562 0L3.66211 0L12.9883-24.4629L45.752-24.4629L55.127 0L57.7637 0L30.6152-70.459L28.125-70.459ZM29.3457-67.1387L29.4434-67.1387L44.873-26.709L13.8672-26.709Z"/>
  </g>
  <line id="Baseline-S" style="fill:none;stroke:#27AAE1;opacity:1;stroke-width:0.5;" x1="263" x2="3036" y1="696" y2="696"/>
  <line id="Capline-S" style="fill:none;stroke:#27AAE1;opacity:1;stroke-width:0.5;" x1="263" x2="3036" y1="625.541" y2="625.541"/>
  <g id="H-reference" style="fill:#27AAE1;stroke:none;" transform="matrix(1 0 0 1 339 1126)">
   <path d="M0.976562 0L3.66211 0L12.9883-24.4629L45.752-24.4629L55.127 0L57.7637 0L30.6152-70.459L28.125-70.459ZM29.3457-67.1387L29.4434-67.1387L44.873-26.709L13.8672-26.709Z"/>
  </g>
  <line id="Baseline-M" style="fill:none;stroke:#27AAE1;opacity:1;stroke-width:0.5;" x1="263" x2="3036" y1="1126" y2="1126"/>
  <line id="Capline-M" style="fill:none;stroke:#27AAE1;opacity:1;stroke-width:0.5;" x1="263" x2="3036" y1="1055.54" y2="1055.54"/>
  <g id="H-reference" style="fill:#27AAE1;stroke:none;" transform="matrix(1 0 0 1 339 1556)">
   <path d="M0.976562 0L3.66211 0L12.9883-24.4629L45.752-24.4629L55.127 0L57.7637 0L30.6152-70.459L28.125-70.459ZM29.3457-67.1387L29.4434-67.1387L44.873-26.709L13.8672-26.709Z"/>
  </g>
  <line id="Baseline-L" style="fill:none;stroke:#27AAE1;opacity:1;stroke-width:0.5;" x1="263" x2="3036" y1="1556" y2="1556"/>
  <line id="Capline-L" style="fill:none;stroke:#27AAE1;opacity:1;stroke-width:0.5;" x1="263" x2="3036" y1="1485.54" y2="1485.54"/>
  <line id="left-margin" style="fill:none;stroke:#00AEEF;stroke-width:0.5;opacity:1.0;" x1="1392.45" x2="1392.45" y1="1030.79" y2="1150.12"/>
  <line id="right-margin" style="fill:none;stroke:#00AEEF;stroke-width:0.5;opacity:1.0;" x1="1507.24" x2="1507.24" y1="1030.79" y2="1150.12"/>
 </g>
 <g id="Symbols">
  <g id="Black-L" transform="matrix(1 0 0 1 2855.62 1556)">
   <path d="M39.9902 26.5137L115.576 26.5137C130.811 26.5137 139.502 17.8711 139.502 2.68555L139.502-73.0957C139.502-88.2812 130.811-96.875 115.576-96.875L39.9902-96.875C24.7559-96.875 16.0645-88.2812 16.0645-73.0957L16.0645 2.68555C16.0645 17.8711 24.7559 26.5137 39.9902 26.5137ZM101.611-8.98438C98.1445-8.98438 95.9961-11.3281 95.9961-14.6973L95.9961-18.8477L83.3984-18.8477C78.418-18.8477 75.6348-21.7285 75.6348-26.5137C75.6348-29.3945 76.416-31.9824 77.3926-34.668C79.4922-39.8926 83.0566-47.9004 86.2793-54.1504C88.8672-59.2285 92.1875-61.5234 97.8516-61.5234C104.102-61.5234 107.275-57.8125 107.275-51.8066L107.275-29.7363L108.447-29.7363C111.621-29.7363 113.525-27.4902 113.525-24.1699C113.525-20.9473 111.621-18.9453 108.447-18.9453L107.275-18.9453L107.275-14.6973C107.275-11.2793 105.078-8.98438 101.611-8.98438ZM61.8652-9.22852C57.666-9.22852 55.5664-11.7188 55.5664-16.5527L55.5664-45.9473L55.2734-45.9473L52.2949-43.0176C50.6836-41.2109 49.4141-40.4297 47.3633-40.4297C44.5312-40.4297 42.2363-42.8711 42.2363-45.7031C42.2363-48.1934 43.2617-49.9512 45.6543-52.1484L52.1484-57.7148C55.3711-60.6934 57.5684-61.4258 60.3027-61.4258C65.4297-61.4258 68.1152-58.3496 68.1152-53.125L68.1152-16.5527C68.1152-11.7188 66.0156-9.22852 61.8652-9.22852ZM95.9961-29.6387L95.9961-49.5605L95.752-49.5605C92.9688-43.457 89.7949-34.8633 87.7441-29.8828L87.7441-29.6387Z"/>
  </g>
  <g id="Heavy-L" transform="matrix(1 0 0 1 2559.93 1556)">
   <path d="M38.8184 25.4883L114.697 25.4883C129.346 25.4883 137.451 17.4316 137.451 2.88086L137.451-73.2422C137.451-87.793 129.346-95.8496 114.697-95.8496L38.8184-95.8496C24.2188-95.8496 16.0645-87.793 16.0645-73.2422L16.0645 2.88086C16.0645 17.4316 24.2188 25.4883 38.8184 25.4883ZM100.732-8.74023C97.5586-8.74023 95.6055-10.8887 95.6055-13.9648L95.6055-19.1406L81.3477-19.1406C76.8555-19.1406 74.2676-21.7285 74.2676-26.123C74.2676-28.7109 74.9023-31.0059 75.8789-33.3984C78.5645-39.2578 83.1055-48.3398 86.8164-55.1758C89.2578-59.7656 92.2852-61.8652 97.3633-61.8652C102.881-61.8652 105.859-58.4961 105.859-53.125L105.859-28.9551L107.764-28.9551C110.693-28.9551 112.402-26.9531 112.402-23.9258C112.402-20.9961 110.693-19.1895 107.764-19.1895L105.859-19.1895L105.859-13.9648C105.859-10.8398 103.906-8.74023 100.732-8.74023ZM60.4004-9.0332C56.6895-9.0332 54.7852-11.2305 54.7852-15.4785L54.7852-47.7051L54.4922-47.7051L50.293-44.1406C48.7793-42.5293 47.7051-41.9434 45.8984-41.9434C43.3105-41.9434 41.2109-44.1895 41.2109-46.7773C41.2109-49.0234 42.1875-50.5859 44.2871-52.4414L51.709-58.3984C54.6387-60.9863 56.5918-61.6699 59.082-61.6699C63.5742-61.6699 66.0156-58.9355 66.0156-54.3945L66.0156-15.4785C66.0156-11.2305 64.1113-9.0332 60.4004-9.0332ZM95.6055-28.8574L95.6055-50.8789L95.3613-50.8789C92.0898-44.2871 87.6953-34.5703 85.3027-29.1016L85.3027-28.8574Z"/>
  </g>
  <g id="Bold-L" transform="matrix(1 0 0 1 2264.37 1556)">
   <path d="M37.5 24.3652L113.721 24.3652C127.637 24.3652 135.156 16.8945 135.156 3.07617L135.156-73.3887C135.156-87.207 127.637-94.7266 113.721-94.7266L37.5-94.7266C23.6328-94.7266 16.0645-87.2559 16.0645-73.3887L16.0645 3.07617C16.0645 16.8945 23.6328 24.3652 37.5 24.3652ZM99.707-8.39844C96.9238-8.39844 95.2148-10.3516 95.2148-13.1836L95.2148-19.4336L79.1016-19.4336C75.1465-19.4336 72.7051-21.7773 72.7051-25.6836C72.7051-27.9297 73.2422-29.8828 74.2188-32.0312C77.4902-38.5254 83.1543-48.8281 87.4023-56.3477C89.6484-60.4492 92.334-62.207 96.7773-62.207C101.562-62.207 104.297-59.2773 104.297-54.6387L104.297-28.0762L107.031-28.0762C109.619-28.0762 111.182-26.3672 111.182-23.6816C111.182-21.0938 109.619-19.4824 107.031-19.4824L104.297-19.4824L104.297-13.1836C104.297-10.3516 102.637-8.39844 99.707-8.39844ZM58.7402-8.78906C55.6152-8.78906 53.8574-10.7422 53.8574-14.2578L53.8574-49.707L53.5645-49.707L48.0957-45.4102C46.6309-44.043 45.752-43.6035 44.2871-43.6035C41.9922-43.6035 40.0879-45.6055 40.0879-47.9492C40.0879-49.9023 40.9668-51.3184 42.7734-52.832L51.2207-59.1309C53.8086-61.3281 55.4688-61.9141 57.7637-61.9141C61.5234-61.9141 63.6719-59.5703 63.6719-55.7617L63.6719-14.2578C63.6719-10.7422 61.9141-8.78906 58.7402-8.78906ZM95.2148-28.0273L95.2148-52.3438L94.9707-52.3438C91.1133-45.2148 85.4004-34.2773 82.5195-28.2715L82.5195-28.0273Z"/>
  </g>
  <g id="Semibold-L" transform="matrix(1 0 0 1 1968.44 1556)">
   <path d="M36.6211 23.584L113.037 23.584C126.514 23.584 133.594 16.5039 133.594 3.17383L133.594-73.5352C133.594-86.8164 126.514-93.9453 113.037-93.9453L36.6211-93.9453C23.1934-93.9453 16.0645-86.8652 16.0645-73.5352L16.0645 3.17383C16.0645 16.5527 23.1934 23.584 36.6211 23.584ZM99.0234-8.20312C96.4844-8.20312 94.9707-10.0098 94.9707-12.5977L94.9707-19.6289L77.5391-19.6289C73.9258-19.6289 71.6309-21.7773 71.6309-25.4395C71.6309-27.3926 72.1191-29.1016 73.0469-31.0547C76.8066-38.0371 83.1543-49.1211 87.8418-57.1289C89.9414-60.8887 92.3828-62.4512 96.4355-62.4512C100.635-62.4512 103.223-59.8145 103.223-55.6641L103.223-27.4902L106.543-27.4902C108.887-27.4902 110.352-25.9277 110.352-23.4863C110.352-21.1426 108.887-19.6777 106.543-19.6777L103.223-19.6777L103.223-12.5977C103.223-10.0098 101.758-8.20312 99.0234-8.20312ZM57.6172-8.64258C54.834-8.64258 53.2227-10.4004 53.2227-13.4277L53.2227-51.0742L52.8809-51.0742L46.5332-46.2891C45.166-45.0684 44.4336-44.7754 43.1641-44.7754C41.1133-44.7754 39.3066-46.582 39.3066-48.7793C39.3066-50.5371 40.0879-51.8066 41.6992-53.0762L50.9277-59.668C53.2715-61.5234 54.7363-62.1094 56.8359-62.1094C60.1074-62.1094 62.0605-60.0098 62.0605-56.7383L62.0605-13.4277C62.0605-10.4004 60.4492-8.64258 57.6172-8.64258ZM94.9707-27.4414L94.9707-53.3691L94.6777-53.3691C90.4297-45.8984 83.8379-34.082 80.6152-27.6855L80.6152-27.4414Z"/>
  </g>
  <g id="Medium-L" transform="matrix(1 0 0 1 1672.31 1556)">
   <path d="M35.9375 22.998L112.5 22.998C125.635 22.998 132.422 16.2109 132.422 3.27148L132.422-73.6328C132.422-86.5234 125.635-93.3105 112.5-93.3105L35.9375-93.3105C22.9004-93.3105 16.0645-86.5723 16.0645-73.6328L16.0645 3.27148C16.0645 16.2598 22.9004 22.998 35.9375 22.998ZM98.5352-8.00781C96.1426-8.00781 94.7266-9.76562 94.7266-12.207L94.7266-19.8242L76.3184-19.8242C73.0469-19.8242 70.8496-21.8262 70.8496-25.1953C70.8496-27.002 71.2402-28.5156 72.168-30.3711C76.2207-37.6465 83.2031-49.4141 88.1348-57.7148C90.1367-61.2305 92.4316-62.6465 96.1426-62.6465C99.9512-62.6465 102.393-60.2051 102.393-56.4453L102.393-27.002L106.152-27.002C108.301-27.002 109.717-25.6348 109.717-23.3887C109.717-21.1914 108.35-19.8242 106.152-19.8242L102.393-19.8242L102.393-12.207C102.393-9.7168 101.074-8.00781 98.5352-8.00781ZM56.7383-8.49609C54.2969-8.49609 52.7344-10.1074 52.7344-12.793L52.7344-52.0996L52.4414-52.0996L45.3613-46.9238C44.043-45.8496 43.4082-45.6543 42.334-45.6543C40.4297-45.6543 38.7207-47.3633 38.7207-49.4141C38.7207-51.0254 39.4531-52.1973 40.918-53.2715L50.6348-60.0586C52.832-61.7188 54.1504-62.2559 56.1523-62.2559C59.0332-62.2559 60.8398-60.3516 60.8398-57.4707L60.8398-12.793C60.8398-10.1074 59.3262-8.49609 56.7383-8.49609ZM94.7266-27.002L94.7266-54.1504L94.4336-54.1504C89.8926-46.3867 82.6172-33.8867 79.1992-27.2461L79.1992-27.002Z"/>
  </g>
  <g id="Regular-L" transform="matrix(1 0 0 1 1376.38 1556)">
   <path d="M35.0586 22.2168L111.816 22.2168C124.463 22.2168 130.859 15.8691 130.859 3.41797L130.859-73.7305C130.859-86.1816 124.463-92.5293 111.816-92.5293L35.0586-92.5293C22.4609-92.5293 16.0645-86.2305 16.0645-73.7305L16.0645 3.41797C16.0645 15.918 22.4609 22.2168 35.0586 22.2168ZM97.8516-7.8125C95.7031-7.8125 94.4824-9.42383 94.4824-11.6211L94.4824-20.0195L74.7559-20.0195C71.875-20.0195 69.7754-21.8262 69.7754-24.9023C69.7754-26.4648 70.1172-27.7344 71.0449-29.3945C75.5371-37.1582 83.2031-49.707 88.5254-58.4961C90.4297-61.6699 92.4805-62.8906 95.752-62.8906C99.0723-62.8906 101.318-60.7422 101.318-57.4707L101.318-26.416L105.664-26.416C107.568-26.416 108.838-25.1953 108.838-23.1934C108.838-21.2402 107.617-20.0195 105.664-20.0195L101.318-20.0195L101.318-11.6211C101.318-9.375 100.195-7.8125 97.8516-7.8125ZM55.6152-8.34961C53.5645-8.34961 52.1484-9.76562 52.1484-11.9629L52.1484-53.4668L51.8066-53.4668L43.8477-47.8027C42.627-46.875 42.0898-46.8262 41.2109-46.8262C39.502-46.8262 37.9395-48.3398 37.9395-50.1953C37.9395-51.6602 38.623-52.6855 39.8438-53.5645L50.3418-60.5957C52.2461-61.9141 53.3691-62.4512 55.2246-62.4512C57.6172-62.4512 59.2285-60.791 59.2285-58.3984L59.2285-11.9629C59.2285-9.76562 57.8613-8.34961 55.6152-8.34961ZM94.4824-26.416L94.4824-55.1758L94.1406-55.1758C89.209-47.0215 81.0547-33.6914 77.2949-26.709L77.2949-26.416Z"/>
  </g>
  <g id="Light-L" transform="matrix(1 0 0 1 1080.5 1556)">
   <path d="M34.0332 21.4355L111.23 21.4355C123.096 21.4355 129.199 15.2344 129.199 3.56445L129.199-73.8281C129.199-85.5469 123.096-91.6992 111.23-91.6992L34.0332-91.6992C22.168-91.6992 16.0645-85.6445 16.0645-73.8281L16.0645 3.56445C16.0645 15.3809 22.168 21.4355 34.0332 21.4355ZM96.582-8.44727C94.9219-8.44727 93.8965-9.7168 93.8965-11.4746L93.8965-20.8984L73.1934-20.8984C70.7031-20.8984 68.9941-22.3633 68.9941-24.8535C68.9941-26.0742 69.3359-27.1973 70.0195-28.418C74.6094-35.9863 83.8867-50.5859 89.1113-58.8379C90.6738-61.377 92.334-62.3535 94.9219-62.3535C97.5586-62.3535 99.3652-60.6445 99.3652-58.0078L99.3652-26.0742L104.736-26.0742C106.25-26.0742 107.324-25.0488 107.324-23.4863C107.324-21.9238 106.299-20.8984 104.736-20.8984L99.3652-20.8984L99.3652-11.4746C99.3652-9.66797 98.4375-8.44727 96.582-8.44727ZM54.8828-8.78906C53.2715-8.78906 52.0996-9.91211 52.0996-11.6699L52.0996-54.7363L51.8066-54.7363L42.4805-48.3887C41.6016-47.7051 41.2109-47.7051 40.5273-47.7051C39.1602-47.7051 37.8906-48.9258 37.8906-50.3906C37.8906-51.5137 38.4277-52.3438 39.4043-53.0273L50.7812-60.5469C52.1973-61.5234 53.0762-61.9141 54.541-61.9141C56.4453-61.9141 57.7637-60.6445 57.7637-58.6914L57.7637-11.6699C57.7637-9.91211 56.6406-8.78906 54.8828-8.78906ZM93.8965-26.0742L93.8965-56.1035L93.6035-56.1035C89.0625-48.877 78.7598-32.8125 75.0977-26.3184L75.0977-26.0742Z"/>
  </g>
  <g id="Thin-L" transform="matrix(1 0 0 1 784.889 1556)">
   <path d="M32.666 20.3613L110.352 20.3613C121.24 20.3613 127.002 14.4531 127.002 3.75977L127.002-73.9746C127.002-84.7168 121.24-90.5762 110.352-90.5762L32.666-90.5762C21.7773-90.5762 16.0645-84.8633 16.0645-73.9746L16.0645 3.75977C16.0645 14.6484 21.7773 20.3613 32.666 20.3613ZM94.9219-9.32617C93.8965-9.32617 93.1152-10.0586 93.1152-11.2305L93.1152-22.0703L71.0938-22.0703C69.2383-22.0703 67.9688-23.0469 67.9688-24.8047C67.9688-25.5859 68.2617-26.4648 68.6523-27.0996C73.4375-34.375 84.7656-51.709 89.8926-59.2773C91.0156-61.0352 92.1387-61.6211 93.7988-61.6211C95.5566-61.6211 96.7773-60.498 96.7773-58.7402L96.7773-25.6348L103.516-25.6348C104.541-25.6348 105.273-24.8535 105.273-23.8281C105.273-22.8027 104.59-22.0703 103.516-22.0703L96.7773-22.0703L96.7773-11.2305C96.7773-10.0586 96.1426-9.32617 94.9219-9.32617ZM53.9062-9.375C52.8809-9.375 52.0508-10.1074 52.0508-11.2305L52.0508-56.4453L51.8066-56.4453L40.6738-49.1211C40.2344-48.877 40.0391-48.877 39.6484-48.877C38.6719-48.877 37.8906-49.707 37.8906-50.6348C37.8906-51.3184 38.1348-51.8555 38.8184-52.3438L51.3184-60.4492C52.1484-60.9863 52.6855-61.1816 53.6621-61.1816C54.8828-61.1816 55.7617-60.4004 55.7617-59.1309L55.7617-11.2305C55.7617-10.1074 55.0781-9.375 53.9062-9.375ZM93.1152-25.6348L93.1152-57.3242L92.9199-57.3242C88.8184-51.3672 75.6836-31.6895 72.168-25.8301L72.168-25.6348Z"/>
  </g>
  <g id="Ultralight-L" transform="matrix(1 0 0 1 488.739 1556)">
   <path d="M31.9824 19.7754L109.961 19.7754C120.312 19.7754 125.879 14.0625 125.879 3.85742L125.879-74.0723C125.879-84.2773 120.312-89.9902 109.961-89.9902L31.9824-89.9902C21.582-89.9902 16.0645-84.4727 16.0645-74.0723L16.0645 3.85742C16.0645 14.2578 21.582 19.7754 31.9824 19.7754ZM94.0918-9.76562C93.3594-9.76562 92.6758-10.2539 92.6758-11.084L92.6758-22.7051L70.0195-22.7051C68.457-22.7051 67.4805-23.3887 67.4805-24.8047C67.4805-25.3418 67.6758-26.0742 67.9199-26.416C72.8027-33.5938 85.2051-52.2949 90.2344-59.5215C91.2109-60.8398 92.041-61.2305 93.2617-61.2305C94.5801-61.2305 95.459-60.4004 95.459-59.082L95.459-25.4395L102.881-25.4395C103.613-25.4395 104.199-24.7559 104.199-24.0234C104.199-23.291 103.711-22.7051 102.881-22.7051L95.459-22.7051L95.459-11.084C95.459-10.2539 94.9707-9.76562 94.0918-9.76562ZM53.418-9.66797C52.6367-9.66797 52.002-10.2051 52.002-11.0352L52.002-57.3242L51.8066-57.3242L39.7461-49.5117C39.5508-49.4629 39.4531-49.4629 39.1602-49.4629C38.3789-49.4629 37.8906-50.0977 37.8906-50.7812C37.8906-51.2207 37.9883-51.6602 38.5254-52.002L51.6113-60.4004C52.0996-60.6934 52.4902-60.8398 53.1738-60.8398C54.0527-60.8398 54.7363-60.3027 54.7363-59.3262L54.7363-11.0352C54.7363-10.2051 54.2969-9.66797 53.418-9.66797ZM92.6758-25.4395L92.6758-57.9102L92.5293-57.9102C88.7207-52.5879 74.1211-31.1523 70.7031-25.5859L70.7031-25.4395Z"/>
  </g>
  <g id="Black-M" transform="matrix(1 0 0 1 2872.19 1126)">
   <path d="M31.9824 13.5742L90.4297 13.5742C102.686 13.5742 109.961 6.29883 109.961-5.95703L109.961-64.4043C109.961-76.6602 102.686-83.9355 90.4297-83.9355L31.9824-83.9355C19.7266-83.9355 12.4512-76.6602 12.4512-64.4043L12.4512-5.95703C12.4512 6.29883 19.7266 13.5742 31.9824 13.5742ZM49.5605-15.625C45.8496-15.625 44.1406-17.6758 44.1406-22.0215L44.1406-41.8457L43.9453-41.8457L42.4805-40.0391C41.3086-38.5254 40.1855-37.6953 38.2812-37.6953C35.8887-37.6953 34.082-39.7461 34.082-41.9922C34.082-44.0918 34.9121-45.6055 36.9629-47.6074L41.2109-51.709C43.8965-54.3457 45.8008-54.8828 47.9492-54.8828C52.5879-54.8828 54.834-52.2461 54.834-47.6074L54.834-22.0215C54.834-17.6758 53.125-15.625 49.5605-15.625ZM79.248-15.625C76.416-15.625 74.5605-17.4316 74.5605-20.166L74.5605-22.6074L66.5527-22.6074C62.2559-22.6074 60.0586-25 60.0586-28.9551C60.0586-31.4453 60.791-33.7891 61.4258-35.9375C62.4023-39.0625 64.6484-44.9219 66.4551-48.6816C68.5059-52.8809 71.2891-54.8828 76.0742-54.8828C81.4453-54.8828 83.9355-51.7578 83.9355-46.5332L83.9355-31.8359L84.4238-31.8359C87.1094-31.8359 88.623-29.8828 88.623-27.1484C88.623-24.4629 87.1094-22.7539 84.4238-22.7539L83.9355-22.7539L83.9355-20.166C83.9355-17.4316 82.0801-15.625 79.248-15.625ZM74.5605-31.7383L74.5605-45.0684L74.4141-45.0684C73.1445-41.5039 71.0938-34.8633 70.166-31.8848L70.166-31.7383Z"/>
  </g>
  <g id="Heavy-M" transform="matrix(1 0 0 1 2576.39 1126)">
   <path d="M31.0059 12.6465L89.6484 12.6465C101.416 12.6465 108.154 5.9082 108.154-5.81055L108.154-64.5508C108.154-76.2695 101.416-83.0566 89.6484-83.0566L31.0059-83.0566C19.2383-83.0566 12.4512-76.3184 12.4512-64.5508L12.4512-5.81055C12.4512 5.9082 19.2383 12.6465 31.0059 12.6465ZM78.6133-15.1367C76.0254-15.1367 74.3164-16.8945 74.3164-19.4336L74.3164-22.7051L64.6973-22.7051C60.8398-22.7051 58.7891-24.9023 58.7891-28.5645C58.7891-30.8105 59.375-32.8125 60.0586-34.8145C61.6211-38.6719 64.5508-45.166 66.8945-49.707C68.8477-53.6133 71.3867-55.3711 75.7324-55.3711C80.5664-55.3711 82.959-52.5391 82.959-47.8516L82.959-31.0547L83.9355-31.0547C86.4258-31.0547 87.8418-29.3457 87.8418-26.8066C87.8418-24.3164 86.4258-22.8027 83.9355-22.8027L82.959-22.8027L82.959-19.4336C82.959-16.8457 81.25-15.1367 78.6133-15.1367ZM48.1445-15.2832C44.873-15.2832 43.2617-17.1387 43.2617-20.9473L43.2617-43.457L43.0664-43.457L40.6738-41.1133C39.502-39.7461 38.5254-39.1113 36.8652-39.1113C34.7168-39.1113 32.959-41.0156 32.959-43.1152C32.959-45.0195 33.7402-46.3867 35.5957-48.0957L40.625-52.4414C43.1152-54.7852 44.7754-55.3223 46.8262-55.3223C50.8789-55.3223 52.9297-52.9297 52.9297-48.877L52.9297-20.9473C52.9297-17.1387 51.3184-15.2832 48.1445-15.2832ZM74.3164-30.957L74.3164-46.2402L74.1699-46.2402C72.2168-41.8945 69.4824-34.8145 68.0176-31.1523L68.0176-30.957Z"/>
  </g>
  <g id="Bold-M" transform="matrix(1 0 0 1 2280.68 1126)">
   <path d="M29.8828 11.6699L88.7207 11.6699C99.9512 11.6699 106.152 5.46875 106.152-5.66406L106.152-64.6973C106.152-75.8789 99.9512-82.0312 88.7207-82.0312L29.8828-82.0312C18.6523-82.0312 12.4512-75.8789 12.4512-64.6973L12.4512-5.66406C12.4512 5.51758 18.6523 11.6699 29.8828 11.6699ZM77.8809-14.5996C75.5371-14.5996 74.0723-16.2598 74.0723-18.6035L74.0723-22.8027L62.6953-22.8027C59.2773-22.8027 57.3242-24.7559 57.3242-28.0762C57.3242-30.0293 57.8125-31.7871 58.5449-33.5938C60.6934-38.2324 64.4043-45.459 67.3828-50.8789C69.2383-54.3945 71.5332-55.957 75.3906-55.957C79.541-55.957 81.7871-53.418 81.7871-49.3652L81.7871-30.2246L83.3984-30.2246C85.5957-30.2246 86.9141-28.7109 86.9141-26.416C86.9141-24.2188 85.6445-22.8516 83.3984-22.8516L81.7871-22.8516L81.7871-18.6035C81.7871-16.2598 80.3711-14.5996 77.8809-14.5996ZM46.5332-14.8926C43.75-14.8926 42.2852-16.5527 42.2852-19.7266L42.2852-45.2148L42.041-45.2148L38.623-42.334C37.4512-41.1133 36.6699-40.6738 35.3027-40.6738C33.3496-40.6738 31.7383-42.3828 31.7383-44.3848C31.7383-46.0449 32.4707-47.2656 34.0332-48.6816L39.9902-53.3203C42.2363-55.2246 43.6523-55.7617 45.5566-55.7617C48.9258-55.7617 50.7812-53.7109 50.7812-50.293L50.7812-19.7266C50.7812-16.5527 49.3164-14.8926 46.5332-14.8926ZM74.0723-30.1758L74.0723-47.6074L73.877-47.6074C71.1914-42.3828 67.627-34.7168 65.6738-30.3711L65.6738-30.1758Z"/>
  </g>
  <g id="Semibold-M" transform="matrix(1 0 0 1 1984.65 1126)">
   <path d="M29.1016 10.9863L88.0859 10.9863C98.9746 10.9863 104.785 5.17578 104.785-5.56641L104.785-64.8438C104.785-75.5859 98.9746-81.3477 88.0859-81.3477L29.1016-81.3477C18.2617-81.3477 12.4512-75.5859 12.4512-64.8438L12.4512-5.56641C12.4512 5.22461 18.2617 10.9863 29.1016 10.9863ZM77.3926-14.2578C75.1953-14.2578 73.877-15.8203 73.877-18.0664L73.877-22.8516L61.2793-22.8516C58.2031-22.8516 56.2988-24.707 56.2988-27.7832C56.2988-29.541 56.6895-31.0547 57.4707-32.7637C60.1074-37.9395 64.3066-45.6543 67.7246-51.6602C69.4824-54.9316 71.582-56.2988 75.0977-56.2988C78.8574-56.2988 81.0059-54.0039 81.0059-50.3906L81.0059-29.6387L83.0566-29.6387C85.0586-29.6387 86.3281-28.2715 86.3281-26.1719C86.3281-24.1211 85.0586-22.9004 83.0566-22.9004L81.0059-22.9004L81.0059-18.0664C81.0059-15.8203 79.7363-14.2578 77.3926-14.2578ZM45.459-14.5996C42.9688-14.5996 41.6016-16.1621 41.6016-18.8477L41.6016-46.4844L41.3574-46.4844L37.207-43.1641C36.0352-42.0898 35.3516-41.7969 34.2285-41.7969C32.4219-41.7969 30.9082-43.3594 30.9082-45.2148C30.9082-46.7773 31.5918-47.9004 33.0078-49.0234L39.5508-53.9062C41.6016-55.5664 42.8711-56.0547 44.7266-56.0547C47.6074-56.0547 49.3164-54.248 49.3164-51.2695L49.3164-18.8477C49.3164-16.1621 47.9492-14.5996 45.459-14.5996ZM73.877-29.5898L73.877-48.5352L73.6328-48.5352C70.459-42.7246 66.3574-34.6191 64.0137-29.7852L64.0137-29.5898Z"/>
  </g>
  <g id="Medium-M" transform="matrix(1 0 0 1 1688.47 1126)">
   <path d="M28.5156 10.4492L87.6465 10.4492C98.2422 10.4492 103.711 4.98047 103.711-5.46875L103.711-64.8926C103.711-75.3418 98.2422-80.8105 87.6465-80.8105L28.5156-80.8105C17.9688-80.8105 12.4512-75.3906 12.4512-64.8926L12.4512-5.46875C12.4512 4.98047 17.9688 10.4492 28.5156 10.4492ZM77.0508-13.9648C74.9512-13.9648 73.7305-15.5273 73.7305-17.627L73.7305-22.9004L60.2539-22.9004C57.373-22.9004 55.5176-24.6094 55.5176-27.5391C55.5176-29.1504 55.8594-30.4688 56.6895-32.1289C59.668-37.6953 64.209-45.8008 67.9688-52.2949C69.6777-55.3223 71.6797-56.5918 74.9023-56.5918C78.3203-56.5918 80.4199-54.4434 80.4199-51.1719L80.4199-29.1992L82.7637-29.1992C84.668-29.1992 85.8398-27.9785 85.8398-25.9766C85.8398-24.0723 84.668-22.9004 82.7637-22.9004L80.4199-22.9004L80.4199-17.627C80.4199-15.4785 79.248-13.9648 77.0508-13.9648ZM44.6289-14.4043C42.4316-14.4043 41.1133-15.8203 41.1133-18.2129L41.1133-47.4121L40.8203-47.4121L36.1816-43.7988C34.9609-42.8223 34.375-42.627 33.3984-42.627C31.7383-42.627 30.2246-44.0918 30.2246-45.8984C30.2246-47.3145 30.957-48.3398 32.1777-49.3164L39.209-54.3457C41.1133-55.8105 42.2852-56.2988 44.043-56.2988C46.6309-56.2988 48.2422-54.6387 48.2422-52.0508L48.2422-18.2129C48.2422-15.8203 46.875-14.4043 44.6289-14.4043ZM73.7305-29.1504L73.7305-49.2188L73.4863-49.2188C69.9219-42.9688 65.3809-34.5703 62.793-29.3945L62.793-29.1504Z"/>
  </g>
  <g id="Regular-M" transform="matrix(1 0 0 1 1392.45 1126)">
   <path d="M27.7832 9.76562L87.0117 9.76562C97.2656 9.76562 102.344 4.6875 102.344-5.37109L102.344-64.9902C102.344-75.0488 97.2656-80.127 87.0117-80.127L27.7832-80.127C17.5781-80.127 12.4512-75.0977 12.4512-64.9902L12.4512-5.37109C12.4512 4.73633 17.5781 9.76562 27.7832 9.76562ZM76.5625-13.623C74.6094-13.623 73.5352-15.0879 73.5352-17.041L73.5352-22.9492L58.8379-22.9492C56.3477-22.9492 54.541-24.5605 54.541-27.2461C54.541-28.6133 54.834-29.7363 55.6641-31.2988C59.0332-37.4023 64.1113-45.9961 68.3105-53.0762C69.9219-55.8594 71.7285-56.9824 74.6582-56.9824C77.6367-56.9824 79.6387-55.0781 79.6387-52.1484L79.6387-28.6133L82.4219-28.6133C84.1309-28.6133 85.2539-27.5391 85.2539-25.7324C85.2539-23.9746 84.1309-22.9492 82.4219-22.9492L79.6387-22.9492L79.6387-17.041C79.6387-15.0391 78.6133-13.623 76.5625-13.623ZM43.5059-14.1602C41.6504-14.1602 40.4297-15.4297 40.4297-17.3828L40.4297-48.6328L40.1367-48.6328L34.7656-44.6777C33.5938-43.75 33.1543-43.7012 32.3242-43.7012C30.8105-43.7012 29.3945-45.0195 29.3945-46.7285C29.3945-48.0469 30.0781-48.9746 31.1523-49.707L38.7695-54.9316C40.5273-56.1523 41.5527-56.6406 43.2129-56.6406C45.3125-56.6406 46.7773-55.127 46.7773-53.0273L46.7773-17.3828C46.7773-15.4297 45.5078-14.1602 43.5059-14.1602ZM73.5352-28.6133L73.5352-50.1465L73.291-50.1465C69.2383-43.3105 64.1113-34.5215 61.1328-28.8086L61.1328-28.6133Z"/>
  </g>
  <g id="Light-M" transform="matrix(1 0 0 1 1096.47 1126)">
   <path d="M26.8555 9.0332L86.4746 9.0332C95.9961 9.0332 100.879 4.15039 100.879-5.22461L100.879-65.0879C100.879-74.5117 95.9961-79.3945 86.4746-79.3945L26.8555-79.3945C17.334-79.3945 12.4512-74.5605 12.4512-65.0879L12.4512-5.22461C12.4512 4.19922 17.334 9.0332 26.8555 9.0332ZM75.4395-14.209C73.877-14.209 72.998-15.332 72.998-16.8945L72.998-23.7305L57.4219-23.7305C55.3223-23.7305 53.8086-25 53.8086-27.2461C53.8086-28.3203 54.1016-29.248 54.7363-30.3711C58.252-36.3281 64.6973-46.7285 68.7988-53.3691C70.166-55.6152 71.6309-56.4941 73.9258-56.4941C76.2695-56.4941 77.8809-54.9805 77.8809-52.6367L77.8809-28.3203L81.5918-28.3203C82.959-28.3203 83.8379-27.3926 83.8379-25.9766C83.8379-24.6094 82.959-23.7305 81.5918-23.7305L77.8809-23.7305L77.8809-16.8945C77.8809-15.2832 77.0508-14.209 75.4395-14.209ZM42.8711-14.5508C41.4062-14.5508 40.3809-15.5762 40.3809-17.0898L40.3809-49.7559L40.1367-49.7559L33.5449-45.166C32.666-44.5312 32.3242-44.4824 31.7383-44.4824C30.5176-44.4824 29.3945-45.5566 29.3945-46.9238C29.3945-47.9004 29.8828-48.6328 30.7617-49.2676L39.1602-54.8828C40.4785-55.8105 41.2598-56.1523 42.5781-56.1523C44.2383-56.1523 45.4102-54.9805 45.4102-53.2715L45.4102-17.0898C45.4102-15.5762 44.4336-14.5508 42.8711-14.5508ZM72.998-28.3203L72.998-50.9766L72.8027-50.9766C69.0918-44.9707 62.0605-33.7402 59.1797-28.4668L59.1797-28.3203Z"/>
  </g>
  <g id="Thin-M" transform="matrix(1 0 0 1 800.758 1126)">
   <path d="M25.6348 8.05664L85.7422 8.05664C94.3848 8.05664 98.877 3.4668 98.877-5.0293L98.877-65.2344C98.877-73.7305 94.3848-78.3691 85.7422-78.3691L25.6348-78.3691C16.9922-78.3691 12.4512-73.877 12.4512-65.2344L12.4512-5.0293C12.4512 3.56445 16.9922 8.05664 25.6348 8.05664ZM73.9258-14.9414C72.998-14.9414 72.3145-15.6738 72.3145-16.6504L72.3145-24.8047L55.5664-24.8047C53.9551-24.8047 52.9297-25.6348 52.9297-27.1973C52.9297-27.8809 53.125-28.6133 53.4668-29.1992C57.1777-34.9121 65.5273-47.7539 69.4824-53.7598C70.459-55.2734 71.4355-55.8105 72.9492-55.8105C74.5117-55.8105 75.5859-54.834 75.5859-53.2715L75.5859-27.8809L80.4688-27.8809C81.3965-27.8809 82.0312-27.2461 82.0312-26.3184C82.0312-25.3906 81.4453-24.8047 80.4688-24.8047L75.5859-24.8047L75.5859-16.6504C75.5859-15.6738 75-14.9414 73.9258-14.9414ZM41.9922-15.0879C41.0645-15.0879 40.332-15.7227 40.332-16.748L40.332-51.3184L40.1367-51.3184L31.9336-45.8496C31.4941-45.5566 31.2988-45.5566 30.9082-45.5566C30.0781-45.5566 29.3457-46.2891 29.3457-47.1191C29.3457-47.7539 29.5898-48.2422 30.2246-48.6328L39.6484-54.7852C40.4297-55.3223 40.918-55.5176 41.748-55.5176C42.8711-55.5176 43.6523-54.7852 43.6523-53.6621L43.6523-16.748C43.6523-15.7227 43.0176-15.0879 41.9922-15.0879ZM72.3145-27.8809L72.3145-52.0508L72.168-52.0508C68.8965-47.168 59.3262-32.7637 56.5918-28.0273L56.5918-27.8809Z"/>
  </g>
  <g id="Ultralight-M" transform="matrix(1 0 0 1 504.535 1126)">
   <path d="M25 7.56836L85.3516 7.56836C93.5059 7.56836 97.9004 3.125 97.9004-4.98047L97.9004-65.2832C97.9004-73.3887 93.5059-77.832 85.3516-77.832L25-77.832C16.7969-77.832 12.4512-73.4863 12.4512-65.2832L12.4512-4.98047C12.4512 3.22266 16.7969 7.56836 25 7.56836ZM73.1445-15.332C72.5098-15.332 71.9727-15.8203 71.9727-16.5527L71.9727-25.3418L54.5898-25.3418C53.2715-25.3418 52.4414-25.9277 52.4414-27.1484C52.4414-27.6367 52.6367-28.2715 52.8809-28.6133C56.5918-34.2285 65.918-48.2422 69.8242-53.9551C70.6055-55.127 71.3379-55.4688 72.4609-55.4688C73.584-55.4688 74.3652-54.7852 74.3652-53.6133L74.3652-27.6855L79.9316-27.6855C80.5664-27.6855 81.0547-27.1484 81.0547-26.4648C81.0547-25.8301 80.6641-25.3418 79.9316-25.3418L74.3652-25.3418L74.3652-16.5527C74.3652-15.8203 73.9746-15.332 73.1445-15.332ZM41.5527-15.332C40.8691-15.332 40.332-15.8203 40.332-16.5527L40.332-52.0996L40.1367-52.0996L31.1035-46.1914C30.8594-46.0938 30.7617-46.0938 30.5176-46.0938C29.834-46.0938 29.3457-46.6309 29.3457-47.2168C29.3457-47.6562 29.4922-47.998 29.9316-48.3398L39.8926-54.7852C40.3809-55.0781 40.7227-55.1758 41.3574-55.1758C42.1387-55.1758 42.7246-54.6875 42.7246-53.8574L42.7246-16.5527C42.7246-15.8203 42.334-15.332 41.5527-15.332ZM71.9727-27.6855L71.9727-52.6367L71.8262-52.6367C68.7988-48.3398 57.9102-32.2266 55.2246-27.832L55.2246-27.6855Z"/>
  </g>
  <g id="Black-S" transform="matrix(1 0 0 1 2885.5 696)">
   <path d="M25 2.92969L70.8008 2.92969C80.3711 2.92969 86.0352-2.73438 86.0352-12.3047L86.0352-58.1055C86.0352-67.6758 80.3711-73.3398 70.8008-73.3398L25-73.3398C15.4297-73.3398 9.76562-67.6758 9.76562-58.1055L9.76562-12.3047C9.76562-2.73438 15.4297 2.92969 25 2.92969ZM38.7207-19.8242C35.8398-19.8242 34.5215-21.4355 34.5215-24.8047L34.5215-40.5273L34.375-40.5273L33.1543-39.0625C32.2266-37.8906 31.3477-37.2559 29.8828-37.2559C28.0273-37.2559 26.6113-38.8672 26.6113-40.625C26.6113-42.2363 27.2461-43.4082 28.8574-44.9707L32.2266-48.1934C34.3262-50.2441 35.791-50.6836 37.5-50.6836C41.0645-50.6836 42.8223-48.6328 42.8223-45.0195L42.8223-24.8047C42.8223-21.4355 41.5039-19.8242 38.7207-19.8242ZM62.0605-19.8242C59.8633-19.8242 58.3984-21.2402 58.3984-23.3887L58.3984-25.3418L52.002-25.3418C48.6816-25.3418 46.9727-27.1973 46.9727-30.2734C46.9727-32.2266 47.5098-34.0332 48.0469-35.6934C48.8281-38.2324 50.6348-42.8223 52.0996-45.8496C53.7109-49.1211 55.8594-50.6836 59.5703-50.6836C63.7695-50.6836 65.7227-48.2422 65.7227-44.1895L65.7227-32.5195L66.1133-32.5195C68.2129-32.5195 69.3848-31.0059 69.3848-28.8574C69.3848-26.7578 68.2129-25.4395 66.1133-25.4395L65.7227-25.4395L65.7227-23.3887C65.7227-21.2402 64.2578-19.8242 62.0605-19.8242ZM58.3984-32.4219L58.3984-43.0176L58.3008-43.0176C57.2266-40.1367 55.6152-34.9609 54.834-32.5684L54.834-32.4219Z"/>
  </g>
  <g id="Heavy-S" transform="matrix(1 0 0 1 2589.4 696)">
   <path d="M24.3652 2.34375L70.2637 2.34375C79.541 2.34375 84.8145-2.97852 84.8145-12.207L84.8145-58.2031C84.8145-67.4316 79.541-72.7539 70.2637-72.7539L24.3652-72.7539C15.0879-72.7539 9.76562-67.4316 9.76562-58.2031L9.76562-12.207C9.76562-2.97852 15.0879 2.34375 24.3652 2.34375ZM61.7188-19.3848C59.6191-19.3848 58.252-20.8008 58.252-22.8516L58.252-25.293L50.7812-25.293C47.7051-25.293 46.0449-27.0508 46.0449-29.9805C46.0449-31.7383 46.5332-33.3496 47.1191-34.9609C48.291-38.0371 50.4883-42.9199 52.3926-46.6309C53.9551-49.707 55.957-51.123 59.4238-51.123C63.2324-51.123 65.1367-48.8281 65.1367-45.166L65.1367-31.9824L65.8203-31.9824C67.8223-31.9824 68.9453-30.6152 68.9453-28.5645C68.9453-26.6113 67.8223-25.3906 65.8203-25.3906L65.1367-25.3906L65.1367-22.8516C65.1367-20.8008 63.8184-19.3848 61.7188-19.3848ZM37.6953-19.5312C35.1074-19.5312 33.8379-20.9961 33.8379-24.0234L33.8379-41.6016L33.6914-41.6016L31.8848-39.8438C30.957-38.7695 30.1758-38.2324 28.8574-38.2324C27.1484-38.2324 25.7812-39.7461 25.7812-41.4551C25.7812-42.9688 26.416-44.043 27.832-45.4102L31.7383-48.7793C33.7402-50.6348 35.0586-51.0254 36.7188-51.0254C39.8926-51.0254 41.5039-49.1699 41.5039-45.9473L41.5039-24.0234C41.5039-20.9961 40.2344-19.5312 37.6953-19.5312ZM58.252-31.8848L58.252-43.8477L58.1543-43.8477C56.543-40.2832 54.5898-34.9609 53.418-32.0312L53.418-31.8848Z"/>
  </g>
  <g id="Bold-S" transform="matrix(1 0 0 1 2293.35 696)">
   <path d="M23.6328 1.66016L69.6289 1.66016C78.6133 1.66016 83.4961-3.22266 83.4961-12.1094L83.4961-58.3008C83.4961-67.1875 78.6133-72.0703 69.6289-72.0703L23.6328-72.0703C14.6973-72.0703 9.76562-67.1875 9.76562-58.3008L9.76562-12.1094C9.76562-3.22266 14.6973 1.66016 23.6328 1.66016ZM61.2793-18.8965C59.3262-18.8965 58.1543-20.2637 58.1543-22.2168L58.1543-25.293L49.4141-25.293C46.6309-25.293 45.0195-26.9043 45.0195-29.6387C45.0195-31.2012 45.4102-32.6172 46.0449-34.1309C47.7539-37.8418 50.293-43.0664 52.6855-47.4609C54.1992-50.3418 56.0547-51.6113 59.2285-51.6113C62.5977-51.6113 64.502-49.5117 64.502-46.2402L64.502-31.3477L65.5273-31.3477C67.334-31.3477 68.4082-30.127 68.4082-28.2715C68.4082-26.416 67.334-25.3418 65.5273-25.3418L64.502-25.3418L64.502-22.2168C64.502-20.2637 63.3301-18.8965 61.2793-18.8965ZM36.5723-19.1895C34.3262-19.1895 33.1055-20.5566 33.1055-23.0957L33.1055-42.8223L32.9102-42.8223L30.5176-40.7227C29.4922-39.6973 28.8574-39.3555 27.7832-39.3555C26.1719-39.3555 24.8047-40.7715 24.8047-42.3828C24.8047-43.7988 25.4395-44.7754 26.709-45.8984L31.2012-49.4141C33.0566-51.0254 34.2285-51.4648 35.8398-51.4648C38.5254-51.4648 40.0391-49.7559 40.0391-47.0215L40.0391-23.0957C40.0391-20.5566 38.8184-19.1895 36.5723-19.1895ZM58.1543-31.2988L58.1543-44.7754L57.959-44.7754C55.7617-40.4297 53.418-35.0098 51.8555-31.4453L51.8555-31.2988Z"/>
  </g>
  <g id="Semibold-S" transform="matrix(1 0 0 1 1997.1 696)">
   <path d="M23.0957 1.17188L69.1895 1.17188C77.9297 1.17188 82.5684-3.36914 82.5684-12.0117L82.5684-58.3984C82.5684-67.041 77.9297-71.582 69.1895-71.582L23.0957-71.582C14.4043-71.582 9.76562-67.041 9.76562-58.3984L9.76562-12.0117C9.76562-3.36914 14.4043 1.17188 23.0957 1.17188ZM60.9863-18.6035C59.1309-18.6035 58.0566-19.9219 58.0566-21.8262L58.0566-25.2441L48.4375-25.2441C45.8984-25.2441 44.2871-26.8066 44.2871-29.3945C44.2871-30.8594 44.6289-32.0801 45.3125-33.5449C47.3633-37.6953 50.1465-43.1152 52.8809-48.0469C54.3457-50.7812 56.1523-51.9531 59.082-51.9531C62.207-51.9531 64.0625-50 64.0625-46.9727L64.0625-30.9082L65.332-30.9082C67.041-30.9082 68.0664-29.834 68.0664-28.0273C68.0664-26.3184 67.041-25.293 65.332-25.293L64.0625-25.293L64.0625-21.8262C64.0625-19.9219 62.9395-18.6035 60.9863-18.6035ZM35.791-18.9453C33.7402-18.9453 32.5684-20.2148 32.5684-22.4609L32.5684-43.7012L32.373-43.7012L29.541-41.3086C28.5156-40.3809 27.9297-40.1367 27.002-40.1367C25.4883-40.1367 24.1699-41.4551 24.1699-43.0176C24.1699-44.3359 24.8047-45.2637 25.9277-46.2402L30.8105-49.9023C32.5684-51.3184 33.6426-51.709 35.2051-51.709C37.6465-51.709 39.0625-50.1953 39.0625-47.7539L39.0625-22.4609C39.0625-20.2148 37.8418-18.9453 35.791-18.9453ZM58.0566-30.9082L58.0566-45.4102L57.8613-45.4102C55.2246-40.5273 52.6367-35.0098 50.7812-31.0547L50.7812-30.9082Z"/>
  </g>
  <g id="Medium-S" transform="matrix(1 0 0 1 1700.75 696)">
   <path d="M22.7051 0.830078L68.8965 0.830078C77.4414 0.830078 81.8359-3.51562 81.8359-11.9629L81.8359-58.4473C81.8359-66.8945 77.4414-71.2402 68.8965-71.2402L22.7051-71.2402C14.209-71.2402 9.76562-66.8945 9.76562-58.4473L9.76562-11.9629C9.76562-3.51562 14.209 0.830078 22.7051 0.830078ZM60.791-18.3594C58.9844-18.3594 57.959-19.6777 57.959-21.4844L57.959-25.2441L47.7539-25.2441C45.3613-25.2441 43.75-26.7578 43.75-29.248C43.75-30.5664 44.043-31.6895 44.7754-33.1543C47.0215-37.5977 50.0488-43.2129 53.0273-48.4863C54.4922-51.0742 56.2012-52.1973 58.9844-52.1973C61.8652-52.1973 63.7207-50.3418 63.7207-47.5098L63.7207-30.6152L65.1855-30.6152C66.7969-30.6152 67.8223-29.5898 67.8223-27.8809C67.8223-26.2207 66.7969-25.2441 65.1855-25.2441L63.7207-25.2441L63.7207-21.4844C63.7207-19.6289 62.6953-18.3594 60.791-18.3594ZM35.2051-18.75C33.3008-18.75 32.1777-19.9707 32.1777-22.0215L32.1777-44.3359L31.9824-44.3359L28.8086-41.748C27.7344-40.8691 27.2461-40.7227 26.416-40.7227C25-40.7227 23.6816-41.9922 23.6816-43.5059C23.6816-44.7754 24.3164-45.6543 25.3418-46.4844L30.5664-50.2441C32.2266-51.5137 33.252-51.9531 34.7168-51.9531C36.9141-51.9531 38.2812-50.4883 38.2812-48.291L38.2812-22.0215C38.2812-19.9707 37.1094-18.75 35.2051-18.75ZM57.959-30.5664L57.959-45.8984L57.7637-45.8984C54.834-40.625 52.0508-35.0098 49.9512-30.7617L49.9512-30.5664Z"/>
  </g>
  <g id="Regular-S" transform="matrix(1 0 0 1 1404.51 696)">
   <path d="M22.2168 0.390625L68.457 0.390625C76.8066 0.390625 80.9082-3.71094 80.9082-11.9141L80.9082-58.4961C80.9082-66.6992 76.8066-70.8008 68.457-70.8008L22.2168-70.8008C13.916-70.8008 9.76562-66.6992 9.76562-58.4961L9.76562-11.9141C9.76562-3.71094 13.916 0.390625 22.2168 0.390625ZM60.498-18.0176C58.7891-18.0176 57.8613-19.3359 57.8613-21.0449L57.8613-25.2441L46.7773-25.2441C44.6289-25.2441 43.0664-26.6113 43.0664-29.0039C43.0664-30.2246 43.3105-31.1523 44.043-32.5684C46.6309-37.4512 49.9512-43.2617 53.2715-49.0723C54.6875-51.5137 56.2988-52.4902 58.8867-52.4902C61.4746-52.4902 63.2324-50.8301 63.2324-48.291L63.2324-30.1758L64.9414-30.1758C66.4551-30.1758 67.4805-29.2969 67.4805-27.6855C67.4805-26.123 66.4551-25.2441 64.9414-25.2441L63.2324-25.2441L63.2324-21.0449C63.2324-19.2871 62.3535-18.0176 60.498-18.0176ZM34.4238-18.5059C32.7637-18.5059 31.6895-19.6289 31.6895-21.3867L31.6895-45.166L31.4453-45.166L27.832-42.3828C26.7578-41.5039 26.3184-41.5039 25.6348-41.5039C24.3164-41.5039 23.0469-42.6758 23.0469-44.1895C23.0469-45.3613 23.6328-46.1426 24.6094-46.8262L30.1758-50.6836C31.7871-51.8066 32.666-52.1973 34.1309-52.1973C36.0352-52.1973 37.3047-50.9277 37.3047-49.0234L37.3047-21.3867C37.3047-19.6289 36.1816-18.5059 34.4238-18.5059ZM57.8613-30.1758L57.8613-46.5332L57.6172-46.5332C54.3457-40.7227 51.2207-35.0586 48.877-30.3711L48.877-30.1758Z"/>
  </g>
  <g id="Light-S" transform="matrix(1 0 0 1 1108.46 696)">
   <path d="M21.3867-0.292969L67.9688-0.292969C75.7324-0.292969 79.5898-4.15039 79.5898-11.7676L79.5898-58.5938C79.5898-66.2109 75.7324-70.1172 67.9688-70.1172L21.3867-70.1172C13.6719-70.1172 9.76562-66.2598 9.76562-58.5938L9.76562-11.7676C9.76562-4.15039 13.6719-0.292969 21.3867-0.292969ZM59.5215-18.5059C58.1543-18.5059 57.4219-19.5312 57.4219-20.8984L57.4219-25.9277L45.5566-25.9277C43.7012-25.9277 42.4316-27.0508 42.4316-28.9551C42.4316-29.9316 42.627-30.7129 43.2129-31.7871C45.9473-36.4746 50.4883-43.9453 53.7109-49.3164C54.8828-51.3184 56.1523-52.0508 58.2031-52.0508C60.2539-52.0508 61.7188-50.7324 61.7188-48.6816L61.7188-29.9316L64.209-29.9316C65.4297-29.9316 66.2109-29.1504 66.2109-27.8809C66.2109-26.6602 65.4297-25.9277 64.209-25.9277L61.7188-25.9277L61.7188-20.8984C61.7188-19.5312 60.9863-18.5059 59.5215-18.5059ZM33.8379-18.8477C32.5195-18.8477 31.6406-19.7754 31.6406-21.1426L31.6406-46.1914L31.4453-46.1914L26.7578-42.8223C25.9766-42.2363 25.6348-42.1875 25.0977-42.1875C24.0234-42.1875 23.0469-43.1152 23.0469-44.3359C23.0469-45.2148 23.4863-45.8496 24.2676-46.3867L30.5176-50.6348C31.7383-51.4648 32.4219-51.8066 33.5938-51.8066C35.0586-51.8066 36.084-50.7812 36.084-49.2676L36.084-21.1426C36.084-19.7754 35.2051-18.8477 33.8379-18.8477ZM57.4219-29.9316L57.4219-47.2656L57.2266-47.2656C54.1992-42.2363 49.4141-34.375 47.1191-30.0781L47.1191-29.9316Z"/>
  </g>
  <g id="Thin-S" transform="matrix(1 0 0 1 812.599 696)">
   <path d="M20.3125-1.12305L67.334-1.12305C74.2676-1.12305 77.8809-4.78516 77.8809-11.6211L77.8809-58.6914C77.8809-65.5762 74.2676-69.2383 67.334-69.2383L20.3125-69.2383C13.3789-69.2383 9.76562-65.625 9.76562-58.6914L9.76562-11.6211C9.76562-4.6875 13.3789-1.12305 20.3125-1.12305ZM58.2031-19.1895C57.373-19.1895 56.7871-19.8242 56.7871-20.752L56.7871-26.8555L43.8965-26.8555C42.5293-26.8555 41.6504-27.5879 41.6504-28.9551C41.6504-29.541 41.7969-30.1758 42.1387-30.7617C44.9707-35.2539 51.1719-44.8242 54.2969-49.6582C55.127-51.0254 56.0059-51.5137 57.3242-51.5137C58.6914-51.5137 59.668-50.6348 59.668-49.2676L59.668-29.5898L63.2812-29.5898C64.0625-29.5898 64.5996-29.0039 64.5996-28.1738C64.5996-27.3926 64.1113-26.8555 63.2812-26.8555L59.668-26.8555L59.668-20.752C59.668-19.8242 59.1797-19.1895 58.2031-19.1895ZM33.0566-19.3359C32.2266-19.3359 31.6406-19.9219 31.6406-20.8008L31.6406-47.5098L31.4453-47.5098L25.3418-43.4082C24.9023-43.1152 24.707-43.1152 24.3652-43.1152C23.6328-43.1152 22.998-43.75 22.998-44.4824C22.998-45.0684 23.2422-45.5078 23.7793-45.8496L30.957-50.5859C31.6895-51.0742 32.1289-51.2207 32.8613-51.2207C33.8379-51.2207 34.5215-50.5859 34.5215-49.6094L34.5215-20.8008C34.5215-19.9219 33.9844-19.3359 33.0566-19.3359ZM56.7871-29.5898L56.7871-48.1934L56.6406-48.1934C54.0039-44.1895 46.9727-33.4961 44.8242-29.6875L44.8242-29.5898Z"/>
  </g>
  <g id="Ultralight-S" transform="matrix(1 0 0 1 516.352 696)">
   <path d="M19.7754-1.5625L66.9922-1.5625C73.5352-1.5625 76.9531-5.12695 76.9531-11.5234L76.9531-58.7891C76.9531-65.2344 73.5352-68.75 66.9922-68.75L19.7754-68.75C13.2324-68.75 9.76562-65.2832 9.76562-58.7891L9.76562-11.5234C9.76562-5.0293 13.2324-1.5625 19.7754-1.5625ZM57.5195-19.5312C56.9336-19.5312 56.4453-19.9707 56.4453-20.6055L56.4453-27.3438L43.0176-27.3438C41.9434-27.3438 41.2109-27.8809 41.2109-28.9062C41.2109-29.3457 41.3574-29.834 41.6016-30.2246C44.4824-34.6191 51.5137-45.3125 54.6387-49.8535C55.2734-50.8789 55.9082-51.1719 56.8848-51.1719C57.9102-51.1719 58.5938-50.5371 58.5938-49.5605L58.5938-29.3945L62.7441-29.3945C63.3301-29.3945 63.7695-28.9062 63.7695-28.3203C63.7695-27.7344 63.3789-27.3438 62.7441-27.3438L58.5938-27.3438L58.5938-20.6055C58.5938-19.9707 58.2031-19.5312 57.5195-19.5312ZM32.666-19.5801C32.0801-19.5801 31.5918-20.0195 31.5918-20.6543L31.5918-48.2422L31.4453-48.2422L24.5605-43.75C24.3652-43.6035 24.2188-43.6035 24.0234-43.6035C23.4375-43.6035 22.998-44.0918 22.998-44.6289C22.998-44.9707 23.1445-45.3125 23.5352-45.5566L31.2012-50.5371C31.6406-50.8301 31.9824-50.9277 32.5195-50.9277C33.2031-50.9277 33.7402-50.4883 33.7402-49.7559L33.7402-20.6543C33.7402-20.0195 33.3496-19.5801 32.666-19.5801ZM56.4453-29.3945L56.4453-48.7305L56.3477-48.7305C53.9062-45.166 45.752-33.0078 43.6523-29.4922L43.6523-29.3945Z"/>
  </g>
 </g>
</svg>
