<?xml version="1.0" encoding="UTF-8"?>
<!--Generator: Apple Native CoreSVG 149-->
<!DOCTYPE svg
PUBLIC "-//W3C//DTD SVG 1.1//EN"
       "http://www.w3.org/Graphics/SVG/1.1/DTD/svg11.dtd">
<svg version="1.1" xmlns="http://www.w3.org/2000/svg" xmlns:xlink="http://www.w3.org/1999/xlink" width="3300" height="2200">
 <!--glyph: "uni1000D7.medium", point size: 100.000000, font version: "Version 16.0d18e1", template writer version: "8"-->
 <g id="Notes">
  <rect height="2200" id="artboard" style="fill:white;opacity:1" width="3300" x="0" y="0"/>
  <line id="" style="fill:none;stroke:black;opacity:1;stroke-width:0.5;" x1="263" x2="3036" y1="292" y2="292"/>
  <text style="stroke:none;fill:black;font-family:-apple-system,&quot;SF Pro Display&quot;,&quot;SF Pro Text&quot;,Helvetica,sans-serif;font-weight:bold;" transform="matrix(1 0 0 1 263 322)">Weight/Scale Variations</text>
  <text style="stroke:none;fill:black;font-family:-apple-system,&quot;SF Pro Display&quot;,&quot;SF Pro Text&quot;,Helvetica,sans-serif;text-anchor:middle;" transform="matrix(1 0 0 1 559.711 322)">Ultralight</text>
  <text style="stroke:none;fill:black;font-family:-apple-system,&quot;SF Pro Display&quot;,&quot;SF Pro Text&quot;,Helvetica,sans-serif;text-anchor:middle;" transform="matrix(1 0 0 1 856.422 322)">Thin</text>
  <text style="stroke:none;fill:black;font-family:-apple-system,&quot;SF Pro Display&quot;,&quot;SF Pro Text&quot;,Helvetica,sans-serif;text-anchor:middle;" transform="matrix(1 0 0 1 1153.13 322)">Light</text>
  <text style="stroke:none;fill:black;font-family:-apple-system,&quot;SF Pro Display&quot;,&quot;SF Pro Text&quot;,Helvetica,sans-serif;text-anchor:middle;" transform="matrix(1 0 0 1 1449.84 322)">Regular</text>
  <text style="stroke:none;fill:black;font-family:-apple-system,&quot;SF Pro Display&quot;,&quot;SF Pro Text&quot;,Helvetica,sans-serif;text-anchor:middle;" transform="matrix(1 0 0 1 1746.56 322)">Medium</text>
  <text style="stroke:none;fill:black;font-family:-apple-system,&quot;SF Pro Display&quot;,&quot;SF Pro Text&quot;,Helvetica,sans-serif;text-anchor:middle;" transform="matrix(1 0 0 1 2043.27 322)">Semibold</text>
  <text style="stroke:none;fill:black;font-family:-apple-system,&quot;SF Pro Display&quot;,&quot;SF Pro Text&quot;,Helvetica,sans-serif;text-anchor:middle;" transform="matrix(1 0 0 1 2339.98 322)">Bold</text>
  <text style="stroke:none;fill:black;font-family:-apple-system,&quot;SF Pro Display&quot;,&quot;SF Pro Text&quot;,Helvetica,sans-serif;text-anchor:middle;" transform="matrix(1 0 0 1 2636.69 322)">Heavy</text>
  <text style="stroke:none;fill:black;font-family:-apple-system,&quot;SF Pro Display&quot;,&quot;SF Pro Text&quot;,Helvetica,sans-serif;text-anchor:middle;" transform="matrix(1 0 0 1 2933.4 322)">Black</text>
  <line id="" style="fill:none;stroke:black;opacity:1;stroke-width:0.5;" x1="263" x2="3036" y1="1903" y2="1903"/>
  <g id="" transform="matrix(1 0 0 1 263 1933)">
   <path d="M9.24805 0.830078C13.5547 0.830078 17.1387-2.74414 17.1387-7.05078C17.1387-11.3574 13.5449-14.9316 9.23828-14.9316C4.94141-14.9316 1.36719-11.3574 1.36719-7.05078C1.36719-2.74414 4.95117 0.830078 9.24805 0.830078ZM9.24805-0.654297C5.70312-0.654297 2.87109-3.49609 2.87109-7.05078C2.87109-10.6055 5.69336-13.4473 9.23828-13.4473C12.793-13.4473 15.6348-10.6055 15.6445-7.05078C15.6543-3.49609 12.8027-0.654297 9.24805-0.654297ZM6.39648-6.31836L8.50586-6.31836L8.50586-4.19922C8.50586-3.75977 8.79883-3.45703 9.22852-3.45703C9.67773-3.45703 9.9707-3.75977 9.9707-4.19922L9.9707-6.31836L12.0996-6.31836C12.5391-6.31836 12.8418-6.61133 12.8418-7.04102C12.8418-7.48047 12.5391-7.7832 12.0996-7.7832L9.9707-7.7832L9.9707-9.89258C9.9707-10.3418 9.67773-10.6445 9.22852-10.6445C8.79883-10.6445 8.50586-10.3418 8.50586-9.89258L8.50586-7.7832L6.39648-7.7832C5.94727-7.7832 5.64453-7.48047 5.64453-7.04102C5.64453-6.61133 5.94727-6.31836 6.39648-6.31836Z"/>
  </g>
  <g id="" transform="matrix(1 0 0 1 281.506 1933)">
   <path d="M11.709 2.91016C17.1582 2.91016 21.6699-1.61133 21.6699-7.05078C21.6699-12.5 17.1484-17.0117 11.6992-17.0117C6.25977-17.0117 1.74805-12.5 1.74805-7.05078C1.74805-1.61133 6.26953 2.91016 11.709 2.91016ZM11.709 1.25C7.09961 1.25 3.41797-2.44141 3.41797-7.05078C3.41797-11.6602 7.08984-15.3516 11.6992-15.3516C16.3086-15.3516 20-11.6602 20.0098-7.05078C20.0195-2.44141 16.3184 1.25 11.709 1.25ZM7.98828-6.23047L10.8789-6.23047L10.8789-3.32031C10.8789-2.83203 11.2109-2.5 11.6895-2.5C12.1777-2.5 12.5195-2.83203 12.5195-3.32031L12.5195-6.23047L15.4297-6.23047C15.918-6.23047 16.25-6.5625 16.25-7.04102C16.25-7.5293 15.918-7.87109 15.4297-7.87109L12.5195-7.87109L12.5195-10.7617C12.5195-11.2695 12.1777-11.6016 11.6895-11.6016C11.2109-11.6016 10.8789-11.2598 10.8789-10.7617L10.8789-7.87109L7.98828-7.87109C7.48047-7.87109 7.14844-7.5293 7.14844-7.04102C7.14844-6.5625 7.49023-6.23047 7.98828-6.23047Z"/>
  </g>
  <g id="" transform="matrix(1 0 0 1 304.924 1933)">
   <path d="M14.9707 5.66406C21.9336 5.66406 27.6953-0.0976562 27.6953-7.05078C27.6953-14.0137 21.9238-19.7754 14.9609-19.7754C8.00781-19.7754 2.25586-14.0137 2.25586-7.05078C2.25586-0.0976562 8.01758 5.66406 14.9707 5.66406ZM14.9707 3.84766C8.93555 3.84766 4.08203-1.01562 4.08203-7.05078C4.08203-13.0957 8.92578-17.9492 14.9609-17.9492C21.0059-17.9492 25.8594-13.0957 25.8691-7.05078C25.8789-1.01562 21.0156 3.84766 14.9707 3.84766ZM10.0586-6.14258L14.0625-6.14258L14.0625-2.12891C14.0625-1.5918 14.4336-1.2207 14.9512-1.2207C15.4883-1.2207 15.8594-1.5918 15.8594-2.12891L15.8594-6.14258L19.8828-6.14258C20.4102-6.14258 20.791-6.51367 20.791-7.03125C20.791-7.56836 20.4199-7.94922 19.8828-7.94922L15.8594-7.94922L15.8594-11.9531C15.8594-12.5098 15.4883-12.8809 14.9512-12.8809C14.4336-12.8809 14.0625-12.5 14.0625-11.9531L14.0625-7.94922L10.0586-7.94922C9.50195-7.94922 9.13086-7.56836 9.13086-7.03125C9.13086-6.51367 9.51172-6.14258 10.0586-6.14258Z"/>
  </g>
  <text style="stroke:none;fill:black;font-family:-apple-system,&quot;SF Pro Display&quot;,&quot;SF Pro Text&quot;,Helvetica,sans-serif;font-weight:bold;" transform="matrix(1 0 0 1 263 1953)">Design Variations</text>
  <text style="stroke:none;fill:black;font-family:-apple-system,&quot;SF Pro Display&quot;,&quot;SF Pro Text&quot;,Helvetica,sans-serif;" transform="matrix(1 0 0 1 263 1971)">Symbols are supported in up to nine weights and three scales.</text>
  <text style="stroke:none;fill:black;font-family:-apple-system,&quot;SF Pro Display&quot;,&quot;SF Pro Text&quot;,Helvetica,sans-serif;" transform="matrix(1 0 0 1 263 1989)">For optimal layout with text and other symbols, vertically align</text>
  <text style="stroke:none;fill:black;font-family:-apple-system,&quot;SF Pro Display&quot;,&quot;SF Pro Text&quot;,Helvetica,sans-serif;" transform="matrix(1 0 0 1 263 2007)">symbols with the adjacent text.</text>
  <line id="" style="fill:none;stroke:#00AEEF;stroke-width:0.5;opacity:1.0;" x1="776" x2="776" y1="1919" y2="1933"/>
  <g id="" transform="matrix(1 0 0 1 776 1933)">
   <path d="M3.31055 0.126953C3.82812 0.126953 4.08203-0.0683594 4.26758-0.605469L5.52734-4.0625L11.2891-4.0625L12.5488-0.605469C12.7344-0.0683594 12.9883 0.126953 13.4961 0.126953C14.0137 0.126953 14.3457-0.185547 14.3457-0.673828C14.3457-0.839844 14.3164-0.986328 14.2383-1.20117L9.6582-13.3887C9.43359-13.9941 9.0332-14.2871 8.4082-14.2871C7.80273-14.2871 7.39258-13.9941 7.17773-13.3984L2.59766-1.19141C2.51953-0.976562 2.49023-0.830078 2.49023-0.664062C2.49023-0.175781 2.80273 0.126953 3.31055 0.126953ZM6.00586-5.53711L8.37891-12.1094L8.42773-12.1094L10.8008-5.53711Z"/>
  </g>
  <line id="" style="fill:none;stroke:#00AEEF;stroke-width:0.5;opacity:1.0;" x1="792.836" x2="792.836" y1="1919" y2="1933"/>
  <text style="stroke:none;fill:black;font-family:-apple-system,&quot;SF Pro Display&quot;,&quot;SF Pro Text&quot;,Helvetica,sans-serif;font-weight:bold;" transform="matrix(1 0 0 1 776 1953)">Margins</text>
  <text style="stroke:none;fill:black;font-family:-apple-system,&quot;SF Pro Display&quot;,&quot;SF Pro Text&quot;,Helvetica,sans-serif;" transform="matrix(1 0 0 1 776 1971)">Leading and trailing margins on the left and right side of each symbol</text>
  <text style="stroke:none;fill:black;font-family:-apple-system,&quot;SF Pro Display&quot;,&quot;SF Pro Text&quot;,Helvetica,sans-serif;" transform="matrix(1 0 0 1 776 1989)">can be adjusted by modifying the x-location of the margin guidelines.</text>
  <text style="stroke:none;fill:black;font-family:-apple-system,&quot;SF Pro Display&quot;,&quot;SF Pro Text&quot;,Helvetica,sans-serif;" transform="matrix(1 0 0 1 776 2007)">Modifications are automatically applied proportionally to all</text>
  <text style="stroke:none;fill:black;font-family:-apple-system,&quot;SF Pro Display&quot;,&quot;SF Pro Text&quot;,Helvetica,sans-serif;" transform="matrix(1 0 0 1 776 2025)">scales and weights.</text>
  <g id="" transform="matrix(1 0 0 1 1289 1933)">
   <path d="M2.8418 1.86523L4.54102 3.57422C5.40039 4.44336 6.38672 4.38477 7.31445 3.35938L17.4902-7.85156C17.7539-7.76367 18.0273-7.7832 18.3398-7.8418L19.4043-8.03711L20.0684-7.36328L20.0293-6.80664C19.9902-6.30859 20.1172-5.92773 20.6055-5.44922L21.3672-4.70703C21.8457-4.22852 22.4609-4.19922 22.9297-4.66797L25.8398-7.58789C26.3086-8.05664 26.2891-8.65234 25.8105-9.13086L25.0391-9.89258C24.5605-10.3711 24.1895-10.5273 23.7109-10.4883L23.1348-10.4395L22.4902-11.0742L22.7344-12.1973C22.8613-12.7637 22.7051-13.2031 22.1191-13.7891L19.9219-15.9766C16.582-19.2969 12.1484-19.2188 9.25781-16.3281C8.83789-15.918 8.80859-15.3418 9.04297-14.9512C9.27734-14.5898 9.73633-14.3555 10.3809-14.5215C11.8457-14.8633 13.3691-14.9219 14.7949-13.9844L14.209-12.5293C14.0137-12.0508 13.9844-11.6504 14.1113-11.2891L3.04688-0.898438C2.06055 0.0195312 1.98242 0.996094 2.8418 1.86523ZM10.752-15.957C13.1836-17.7344 16.4746-17.4316 18.7012-15.2051L21.1328-12.793C21.3672-12.5586 21.4062-12.373 21.3379-12.0312L21.0156-10.5469L22.5195-9.0625L23.5059-9.12109C23.7598-9.13086 23.8379-9.11133 24.0332-8.91602L24.6094-8.33984L22.168-5.89844L21.5918-6.47461C21.3965-6.66992 21.3672-6.74805 21.377-7.01172L21.4453-7.98828L19.9512-9.47266L18.4277-9.21875C18.1055-9.15039 17.959-9.17969 17.7148-9.41406L15.7129-11.416C15.459-11.6504 15.4297-11.8164 15.5859-12.1875L16.4648-14.2773C14.9023-15.7324 12.8711-16.3574 10.8398-15.7617C10.6836-15.7227 10.625-15.8496 10.752-15.957ZM5.27344 2.30469L4.10156 1.14258C3.63281 0.683594 3.74023 0.341797 4.14062-0.0195312L14.9512-10.1953L16.416-8.71094L6.42578 2.27539C6.07422 2.67578 5.74219 2.77344 5.27344 2.30469Z"/>
  </g>
  <text style="stroke:none;fill:black;font-family:-apple-system,&quot;SF Pro Display&quot;,&quot;SF Pro Text&quot;,Helvetica,sans-serif;font-weight:bold;" transform="matrix(1 0 0 1 1289 1953)">Exporting</text>
  <text style="stroke:none;fill:black;font-family:-apple-system,&quot;SF Pro Display&quot;,&quot;SF Pro Text&quot;,Helvetica,sans-serif;" transform="matrix(1 0 0 1 1289 1971)">Symbols should be outlined when exporting to ensure the</text>
  <text style="stroke:none;fill:black;font-family:-apple-system,&quot;SF Pro Display&quot;,&quot;SF Pro Text&quot;,Helvetica,sans-serif;" transform="matrix(1 0 0 1 1289 1989)">design is preserved when submitting to Xcode.</text>
  <text id="template-version" style="stroke:none;fill:black;font-family:-apple-system,&quot;SF Pro Display&quot;,&quot;SF Pro Text&quot;,Helvetica,sans-serif;text-anchor:end;" transform="matrix(1 0 0 1 3036 1933)">Template v.2.0</text>
  <text style="stroke:none;fill:black;font-family:-apple-system,&quot;SF Pro Display&quot;,&quot;SF Pro Text&quot;,Helvetica,sans-serif;text-anchor:end;" transform="matrix(1 0 0 1 3036 1951)">Requires Xcode 12 or greater</text>
  <text style="stroke:none;fill:black;font-family:-apple-system,&quot;SF Pro Display&quot;,&quot;SF Pro Text&quot;,Helvetica,sans-serif;text-anchor:end;" transform="matrix(1 0 0 1 3036 1969)">Generated from 7.square.fill</text>
  <text style="stroke:none;fill:black;font-family:-apple-system,&quot;SF Pro Display&quot;,&quot;SF Pro Text&quot;,Helvetica,sans-serif;text-anchor:end;" transform="matrix(1 0 0 1 3036 1987)">Typeset at 100 points</text>
  <text style="stroke:none;fill:black;font-family:-apple-system,&quot;SF Pro Display&quot;,&quot;SF Pro Text&quot;,Helvetica,sans-serif;" transform="matrix(1 0 0 1 263 726)">Small</text>
  <text style="stroke:none;fill:black;font-family:-apple-system,&quot;SF Pro Display&quot;,&quot;SF Pro Text&quot;,Helvetica,sans-serif;" transform="matrix(1 0 0 1 263 1156)">Medium</text>
  <text style="stroke:none;fill:black;font-family:-apple-system,&quot;SF Pro Display&quot;,&quot;SF Pro Text&quot;,Helvetica,sans-serif;" transform="matrix(1 0 0 1 263 1586)">Large</text>
 </g>
 <g id="Guides">
  <g id="H-reference" style="fill:#27AAE1;stroke:none;" transform="matrix(1 0 0 1 339 696)">
   <path d="M0.976562 0L3.66211 0L12.9883-24.4629L45.752-24.4629L55.127 0L57.7637 0L30.6152-70.459L28.125-70.459ZM29.3457-67.1387L29.4434-67.1387L44.873-26.709L13.8672-26.709Z"/>
  </g>
  <line id="Baseline-S" style="fill:none;stroke:#27AAE1;opacity:1;stroke-width:0.5;" x1="263" x2="3036" y1="696" y2="696"/>
  <line id="Capline-S" style="fill:none;stroke:#27AAE1;opacity:1;stroke-width:0.5;" x1="263" x2="3036" y1="625.541" y2="625.541"/>
  <g id="H-reference" style="fill:#27AAE1;stroke:none;" transform="matrix(1 0 0 1 339 1126)">
   <path d="M0.976562 0L3.66211 0L12.9883-24.4629L45.752-24.4629L55.127 0L57.7637 0L30.6152-70.459L28.125-70.459ZM29.3457-67.1387L29.4434-67.1387L44.873-26.709L13.8672-26.709Z"/>
  </g>
  <line id="Baseline-M" style="fill:none;stroke:#27AAE1;opacity:1;stroke-width:0.5;" x1="263" x2="3036" y1="1126" y2="1126"/>
  <line id="Capline-M" style="fill:none;stroke:#27AAE1;opacity:1;stroke-width:0.5;" x1="263" x2="3036" y1="1055.54" y2="1055.54"/>
  <g id="H-reference" style="fill:#27AAE1;stroke:none;" transform="matrix(1 0 0 1 339 1556)">
   <path d="M0.976562 0L3.66211 0L12.9883-24.4629L45.752-24.4629L55.127 0L57.7637 0L30.6152-70.459L28.125-70.459ZM29.3457-67.1387L29.4434-67.1387L44.873-26.709L13.8672-26.709Z"/>
  </g>
  <line id="Baseline-L" style="fill:none;stroke:#27AAE1;opacity:1;stroke-width:0.5;" x1="263" x2="3036" y1="1556" y2="1556"/>
  <line id="Capline-L" style="fill:none;stroke:#27AAE1;opacity:1;stroke-width:0.5;" x1="263" x2="3036" y1="1485.54" y2="1485.54"/>
  <line id="left-margin" style="fill:none;stroke:#00AEEF;stroke-width:0.5;opacity:1.0;" x1="1392.45" x2="1392.45" y1="1030.79" y2="1150.12"/>
  <line id="right-margin" style="fill:none;stroke:#00AEEF;stroke-width:0.5;opacity:1.0;" x1="1507.24" x2="1507.24" y1="1030.79" y2="1150.12"/>
 </g>
 <g id="Symbols">
  <g id="Black-L" transform="matrix(1 0 0 1 2855.62 1556)">
   <path d="M39.9902 26.5137L115.576 26.5137C130.811 26.5137 139.502 17.8711 139.502 2.68555L139.502-73.0957C139.502-88.2812 130.811-96.875 115.576-96.875L39.9902-96.875C24.7559-96.875 16.0645-88.2812 16.0645-73.0957L16.0645 2.68555C16.0645 17.8711 24.7559 26.5137 39.9902 26.5137ZM72.168-4.15039C66.4551-4.15039 62.5488-7.4707 62.5488-12.6465C62.5488-14.8926 63.1348-16.7969 64.3066-18.6035L83.3496-48.291L83.3496-48.9746L62.0605-48.9746C56.5918-48.9746 53.2715-51.9531 53.2715-56.8359C53.2715-61.7188 56.5918-64.6973 62.0605-64.6973L92.7246-64.6973C100.293-64.6973 104.883-60.5469 104.883-54.0039C104.883-50.5859 104.053-47.7051 101.807-44.043L81.7871-10.791C78.7109-5.76172 76.3672-4.15039 72.168-4.15039Z"/>
  </g>
  <g id="Heavy-L" transform="matrix(1 0 0 1 2559.93 1556)">
   <path d="M38.8184 25.4883L114.697 25.4883C129.346 25.4883 137.451 17.4316 137.451 2.88086L137.451-73.2422C137.451-87.793 129.346-95.8496 114.697-95.8496L38.8184-95.8496C24.2188-95.8496 16.0645-87.793 16.0645-73.2422L16.0645 2.88086C16.0645 17.4316 24.2188 25.4883 38.8184 25.4883ZM70.4102-4.3457C65.4785-4.3457 62.0117-7.27539 62.0117-11.8164C62.0117-13.7695 62.5488-15.4297 63.5254-17.041L83.7891-50.3418L83.7891-50.9277L60.8887-50.9277C56.25-50.9277 53.3691-53.5645 53.3691-57.8125C53.3691-62.0117 56.25-64.5996 60.8887-64.5996L91.748-64.5996C98.4375-64.5996 102.539-60.8887 102.539-55.1758C102.539-52.2461 101.807-49.8047 99.8535-46.4844L78.8574-10.1074C76.2207-5.76172 74.1211-4.3457 70.4102-4.3457Z"/>
  </g>
  <g id="Bold-L" transform="matrix(1 0 0 1 2264.37 1556)">
   <path d="M37.5 24.3652L113.721 24.3652C127.637 24.3652 135.156 16.8945 135.156 3.07617L135.156-73.3887C135.156-87.207 127.637-94.7266 113.721-94.7266L37.5-94.7266C23.6328-94.7266 16.0645-87.2559 16.0645-73.3887L16.0645 3.07617C16.0645 16.8945 23.6328 24.3652 37.5 24.3652ZM68.5059-4.54102C64.4043-4.54102 61.4746-7.08008 61.4746-10.8398C61.4746-12.5 61.8652-13.8672 62.6953-15.2832L84.3262-52.5879L84.3262-53.1738L59.5703-53.1738C55.8594-53.1738 53.5156-55.3711 53.5156-58.8379C53.5156-62.3047 55.8594-64.5508 59.5703-64.5508L90.7227-64.5508C96.3867-64.5508 99.9023-61.2793 99.9023-56.4453C99.9023-54.1016 99.3652-52.1484 97.7051-49.2676L75.4883-9.42383C73.3887-5.81055 71.582-4.54102 68.5059-4.54102Z"/>
  </g>
  <g id="Semibold-L" transform="matrix(1 0 0 1 1968.44 1556)">
   <path d="M36.6211 23.584L113.037 23.584C126.514 23.584 133.594 16.5039 133.594 3.17383L133.594-73.5352C133.594-86.8164 126.514-93.9453 113.037-93.9453L36.6211-93.9453C23.1934-93.9453 16.0645-86.8652 16.0645-73.5352L16.0645 3.17383C16.0645 16.5527 23.1934 23.584 36.6211 23.584ZM67.1387-4.73633C63.623-4.73633 61.084-6.88477 61.084-10.2051C61.084-11.6699 61.4258-12.793 62.1582-14.0625L84.668-54.1504L84.668-54.6875L58.6914-54.6875C55.6152-54.6875 53.5645-56.6406 53.5645-59.5703C53.5645-62.5488 55.5664-64.502 58.6914-64.502L89.9902-64.502C94.9707-64.502 98.0957-61.5723 98.0957-57.373C98.0957-55.4199 97.6562-53.7109 96.1914-51.123L73.1934-8.93555C71.4355-5.81055 69.8242-4.73633 67.1387-4.73633Z"/>
  </g>
  <g id="Medium-L" transform="matrix(1 0 0 1 1672.31 1556)">
   <path d="M35.9375 22.998L112.5 22.998C125.635 22.998 132.422 16.2109 132.422 3.27148L132.422-73.6328C132.422-86.5234 125.635-93.3105 112.5-93.3105L35.9375-93.3105C22.9004-93.3105 16.0645-86.5723 16.0645-73.6328L16.0645 3.27148C16.0645 16.2598 22.9004 22.998 35.9375 22.998ZM66.1133-4.83398C63.0859-4.83398 60.791-6.78711 60.791-9.66797C60.791-10.9863 61.084-11.9629 61.7188-13.1348L84.9121-55.3711L84.9121-55.8594L58.0078-55.8594C55.4199-55.8594 53.6133-57.6172 53.6133-60.1562C53.6133-62.6953 55.3711-64.4531 58.0078-64.4531L89.4531-64.4531C93.8965-64.4531 96.7285-61.7676 96.7285-58.0566C96.7285-56.3965 96.3867-54.9316 95.0684-52.5879L71.4844-8.54492C69.9707-5.85938 68.5059-4.83398 66.1133-4.83398Z"/>
  </g>
  <g id="Regular-L" transform="matrix(1 0 0 1 1376.38 1556)">
   <path d="M35.0586 22.2168L111.816 22.2168C124.463 22.2168 130.859 15.8691 130.859 3.41797L130.859-73.7305C130.859-86.1816 124.463-92.5293 111.816-92.5293L35.0586-92.5293C22.4609-92.5293 16.0645-86.2305 16.0645-73.7305L16.0645 3.41797C16.0645 15.918 22.4609 22.2168 35.0586 22.2168ZM64.7949-4.98047C62.3535-4.98047 60.4004-6.64062 60.4004-9.0332C60.4004-10.1562 60.5957-10.9375 61.1328-11.9629L85.3027-56.8848L85.3027-57.373L57.0801-57.373C55.127-57.373 53.7109-58.8379 53.7109-60.8398C53.7109-62.9395 55.0781-64.4043 57.0801-64.4043L88.7207-64.4043C92.4805-64.4043 94.9707-62.0605 94.9707-58.9355C94.9707-57.666 94.6777-56.543 93.6035-54.4434L69.1895-8.05664C68.0664-5.85938 66.748-4.98047 64.7949-4.98047Z"/>
  </g>
  <g id="Light-L" transform="matrix(1 0 0 1 1080.5 1556)">
   <path d="M34.0332 21.4355L111.23 21.4355C123.096 21.4355 129.199 15.2344 129.199 3.56445L129.199-73.8281C129.199-85.5469 123.096-91.6992 111.23-91.6992L34.0332-91.6992C22.168-91.6992 16.0645-85.6445 16.0645-73.8281L16.0645 3.56445C16.0645 15.3809 22.168 21.4355 34.0332 21.4355ZM64.1113-5.81055C62.1582-5.81055 60.6445-7.03125 60.6445-8.93555C60.6445-9.81445 60.8398-10.4004 61.2793-11.2305L85.791-57.8613L85.791-58.3008L56.7871-58.3008C55.1758-58.3008 54.0527-59.4727 54.0527-61.084C54.0527-62.6953 55.1758-63.8672 56.7871-63.8672L88.1836-63.8672C91.2109-63.8672 93.2129-62.0605 93.2129-59.5703C93.2129-58.4961 93.0176-57.6172 92.1387-55.957L67.4805-8.20312C66.6016-6.44531 65.625-5.81055 64.1113-5.81055Z"/>
  </g>
  <g id="Thin-L" transform="matrix(1 0 0 1 784.889 1556)">
   <path d="M32.666 20.3613L110.352 20.3613C121.24 20.3613 127.002 14.4531 127.002 3.75977L127.002-73.9746C127.002-84.7168 121.24-90.5762 110.352-90.5762L32.666-90.5762C21.7773-90.5762 16.0645-84.8633 16.0645-73.9746L16.0645 3.75977C16.0645 14.6484 21.7773 20.3613 32.666 20.3613ZM63.1348-6.83594C61.9141-6.83594 61.0352-7.61719 61.0352-8.78906C61.0352-9.32617 61.1328-9.7168 61.4258-10.2539L86.4258-59.1309L86.4258-59.4727L56.3477-59.4727C55.2246-59.4727 54.4922-60.3027 54.4922-61.3281C54.4922-62.3535 55.2246-63.1836 56.3477-63.1836L87.4512-63.1836C89.5508-63.1836 90.918-62.0605 90.918-60.4004C90.918-59.5703 90.7227-59.0332 90.2344-57.959L65.2344-8.34961C64.6973-7.22656 64.1113-6.83594 63.1348-6.83594Z"/>
  </g>
  <g id="Ultralight-L" transform="matrix(1 0 0 1 488.739 1556)">
   <path d="M31.9824 19.7754L109.961 19.7754C120.312 19.7754 125.879 14.0625 125.879 3.85742L125.879-74.0723C125.879-84.2773 120.312-89.9902 109.961-89.9902L31.9824-89.9902C21.582-89.9902 16.0645-84.4727 16.0645-74.0723L16.0645 3.85742C16.0645 14.2578 21.582 19.7754 31.9824 19.7754ZM62.6465-7.37305C61.7676-7.37305 61.2305-7.91016 61.2305-8.69141C61.2305-9.08203 61.2793-9.375 61.4746-9.76562L86.7676-59.8145L86.7676-60.1074L56.1035-60.1074C55.2734-60.1074 54.7363-60.7422 54.7363-61.4746C54.7363-62.207 55.2734-62.8418 56.1035-62.8418L87.0605-62.8418C88.6719-62.8418 89.7461-62.0605 89.7461-60.791C89.7461-60.1562 89.5996-59.7656 89.2578-58.9844L64.1113-8.44727C63.7207-7.61719 63.3301-7.37305 62.6465-7.37305Z"/>
  </g>
  <g id="Black-M" transform="matrix(1 0 0 1 2872.19 1126)">
   <path d="M31.9824 13.5742L90.4297 13.5742C102.686 13.5742 109.961 6.29883 109.961-5.95703L109.961-64.4043C109.961-76.6602 102.686-83.9355 90.4297-83.9355L31.9824-83.9355C19.7266-83.9355 12.4512-76.6602 12.4512-64.4043L12.4512-5.95703C12.4512 6.29883 19.7266 13.5742 31.9824 13.5742ZM57.8613-11.2793C52.6855-11.2793 49.3164-14.2578 49.3164-18.8477C49.3164-20.8008 49.8535-22.5586 50.8789-24.0723L64.209-43.1152L64.209-43.7012L49.4629-43.7012C44.3359-43.7012 41.3086-46.3379 41.3086-50.8301C41.3086-55.2246 44.3359-57.8613 49.4629-57.8613L72.8027-57.8613C79.541-57.8613 83.4961-54.3457 83.4961-48.584C83.4961-45.3125 82.666-42.6758 80.7129-39.5508L66.5039-17.1875C63.5742-12.6465 61.6699-11.2793 57.8613-11.2793Z"/>
  </g>
  <g id="Heavy-M" transform="matrix(1 0 0 1 2576.39 1126)">
   <path d="M31.0059 12.6465L89.6484 12.6465C101.416 12.6465 108.154 5.9082 108.154-5.81055L108.154-64.5508C108.154-76.2695 101.416-83.0566 89.6484-83.0566L31.0059-83.0566C19.2383-83.0566 12.4512-76.3184 12.4512-64.5508L12.4512-5.81055C12.4512 5.9082 19.2383 12.6465 31.0059 12.6465ZM56.1523-11.2793C51.709-11.2793 48.6816-13.916 48.6816-17.9199C48.6816-19.6777 49.1699-21.1914 50.0488-22.5098L64.5996-45.0684L64.5996-45.6055L48.291-45.6055C43.9453-45.6055 41.3574-47.9492 41.3574-51.8066C41.3574-55.6152 43.9453-57.9102 48.291-57.9102L71.9238-57.9102C77.8809-57.9102 81.3965-54.7363 81.3965-49.6582C81.3965-46.9238 80.7129-44.6777 79.0039-41.8457L63.6719-16.4551C61.2305-12.5488 59.4727-11.2793 56.1523-11.2793Z"/>
  </g>
  <g id="Bold-M" transform="matrix(1 0 0 1 2280.68 1126)">
   <path d="M29.8828 11.6699L88.7207 11.6699C99.9512 11.6699 106.152 5.46875 106.152-5.66406L106.152-64.6973C106.152-75.8789 99.9512-82.0312 88.7207-82.0312L29.8828-82.0312C18.6523-82.0312 12.4512-75.8789 12.4512-64.6973L12.4512-5.66406C12.4512 5.51758 18.6523 11.6699 29.8828 11.6699ZM54.248-11.3281C50.5371-11.3281 47.9492-13.5254 47.9492-16.8945C47.9492-18.4082 48.3398-19.6289 49.1211-20.8496L65.0391-47.3145L65.0391-47.8027L46.9727-47.8027C43.5547-47.8027 41.4062-49.7559 41.4062-52.8809C41.4062-56.0059 43.5059-58.0078 46.9727-58.0078L70.9473-58.0078C75.9766-58.0078 79.0527-55.1758 79.0527-50.8789C79.0527-48.7305 78.5156-46.9238 77.0508-44.3848L60.5469-15.6738C58.5938-12.4023 57.0312-11.3281 54.248-11.3281Z"/>
  </g>
  <g id="Semibold-M" transform="matrix(1 0 0 1 1984.65 1126)">
   <path d="M29.1016 10.9863L88.0859 10.9863C98.9746 10.9863 104.785 5.17578 104.785-5.56641L104.785-64.8438C104.785-75.5859 98.9746-81.3477 88.0859-81.3477L29.1016-81.3477C18.2617-81.3477 12.4512-75.5859 12.4512-64.8438L12.4512-5.56641C12.4512 5.22461 18.2617 10.9863 29.1016 10.9863ZM52.9297-11.3281C49.7559-11.3281 47.4609-13.2812 47.4609-16.2109C47.4609-17.5293 47.8027-18.5547 48.4375-19.6289L65.2832-48.8281L65.2832-49.2676L46.0449-49.2676C43.2617-49.2676 41.4062-50.9766 41.4062-53.6621C41.4062-56.3477 43.2129-58.0566 46.0449-58.0566L70.2637-58.0566C74.6582-58.0566 77.4414-55.4688 77.4414-51.7578C77.4414-49.9512 77.002-48.4375 75.6836-46.1914L58.3984-15.0879C56.7871-12.3047 55.3223-11.3281 52.9297-11.3281Z"/>
  </g>
  <g id="Medium-M" transform="matrix(1 0 0 1 1688.47 1126)">
   <path d="M28.5156 10.4492L87.6465 10.4492C98.2422 10.4492 103.711 4.98047 103.711-5.46875L103.711-64.8926C103.711-75.3418 98.2422-80.8105 87.6465-80.8105L28.5156-80.8105C17.9688-80.8105 12.4512-75.3906 12.4512-64.8926L12.4512-5.46875C12.4512 4.98047 17.9688 10.4492 28.5156 10.4492ZM51.9531-11.3281C49.1699-11.3281 47.1191-13.0859 47.1191-15.6738C47.1191-16.8457 47.4121-17.7246 47.9492-18.75L65.5273-50L65.5273-50.3906L45.3613-50.3906C43.0176-50.3906 41.4062-51.9531 41.4062-54.248C41.4062-56.543 42.9688-58.1055 45.3613-58.1055L69.7754-58.1055C73.6816-58.1055 76.1719-55.7129 76.1719-52.3926C76.1719-50.9277 75.8789-49.6094 74.707-47.5098L56.7383-14.6484C55.3711-12.207 54.0527-11.3281 51.9531-11.3281Z"/>
  </g>
  <g id="Regular-M" transform="matrix(1 0 0 1 1392.45 1126)">
   <path d="M27.7832 9.76562L87.0117 9.76562C97.2656 9.76562 102.344 4.6875 102.344-5.37109L102.344-64.9902C102.344-75.0488 97.2656-80.127 87.0117-80.127L27.7832-80.127C17.5781-80.127 12.4512-75.0977 12.4512-64.9902L12.4512-5.37109C12.4512 4.73633 17.5781 9.76562 27.7832 9.76562ZM50.6348-11.3281C48.4375-11.3281 46.6309-12.8418 46.6309-14.9902C46.6309-16.0156 46.8262-16.6992 47.3145-17.5781L65.8203-51.4648L65.8203-51.8555L44.4336-51.8555C42.7246-51.8555 41.4551-53.1738 41.4551-54.9805C41.4551-56.8359 42.6758-58.1055 44.4336-58.1055L69.0918-58.1055C72.3633-58.1055 74.5605-56.0059 74.5605-53.2227C74.5605-52.1484 74.3652-51.123 73.3398-49.2676L54.5898-14.1113C53.6133-12.1582 52.3926-11.3281 50.6348-11.3281Z"/>
  </g>
  <g id="Light-M" transform="matrix(1 0 0 1 1096.47 1126)">
   <path d="M26.8555 9.0332L86.4746 9.0332C95.9961 9.0332 100.879 4.15039 100.879-5.22461L100.879-65.0879C100.879-74.5117 95.9961-79.3945 86.4746-79.3945L26.8555-79.3945C17.334-79.3945 12.4512-74.5605 12.4512-65.0879L12.4512-5.22461C12.4512 4.19922 17.334 9.0332 26.8555 9.0332ZM50-12.0605C48.2422-12.0605 46.875-13.1836 46.875-14.8926C46.875-15.6738 47.0215-16.2109 47.4121-16.9434L66.2598-52.3438L66.2598-52.6855L44.1406-52.6855C42.7734-52.6855 41.748-53.7109 41.748-55.1758C41.748-56.6406 42.7246-57.666 44.1406-57.666L68.6035-57.666C71.2402-57.666 72.998-56.0059 72.998-53.8086C72.998-52.8809 72.8516-52.0996 72.0703-50.6348L53.0762-14.209C52.2949-12.6465 51.3672-12.0605 50-12.0605Z"/>
  </g>
  <g id="Thin-M" transform="matrix(1 0 0 1 800.758 1126)">
   <path d="M25.6348 8.05664L85.7422 8.05664C94.3848 8.05664 98.877 3.4668 98.877-5.0293L98.877-65.2344C98.877-73.7305 94.3848-78.3691 85.7422-78.3691L25.6348-78.3691C16.9922-78.3691 12.4512-73.877 12.4512-65.2344L12.4512-5.0293C12.4512 3.56445 16.9922 8.05664 25.6348 8.05664ZM49.1211-12.9883C48.0469-12.9883 47.2168-13.7207 47.2168-14.7461C47.2168-15.2832 47.3145-15.625 47.5586-16.1133L66.8457-53.4668L66.8457-53.7598L43.75-53.7598C42.7734-53.7598 42.1387-54.4922 42.1387-55.4199C42.1387-56.3477 42.7734-57.0312 43.75-57.0312L67.9199-57.0312C69.7754-57.0312 70.9473-56.0059 70.9473-54.541C70.9473-53.8574 70.8008-53.3691 70.3613-52.4414L51.0742-14.3555C50.5371-13.3789 50-12.9883 49.1211-12.9883Z"/>
  </g>
  <g id="Ultralight-M" transform="matrix(1 0 0 1 504.535 1126)">
   <path d="M25 7.56836L85.3516 7.56836C93.5059 7.56836 97.9004 3.125 97.9004-4.98047L97.9004-65.2832C97.9004-73.3887 93.5059-77.832 85.3516-77.832L25-77.832C16.7969-77.832 12.4512-73.4863 12.4512-65.2832L12.4512-4.98047C12.4512 3.22266 16.7969 7.56836 25 7.56836ZM48.6816-13.4766C47.9004-13.4766 47.3633-13.9648 47.3633-14.6973C47.3633-15.0391 47.4609-15.2832 47.6074-15.6738L67.1387-54.0527L67.1387-54.2969L43.5547-54.2969C42.8223-54.2969 42.334-54.8828 42.334-55.5176C42.334-56.2012 42.8223-56.7383 43.5547-56.7383L67.5781-56.7383C68.9941-56.7383 69.9219-56.0059 69.9219-54.9316C69.9219-54.3945 69.7754-54.0039 69.4824-53.3691L50.0488-14.4531C49.6582-13.7207 49.3164-13.4766 48.6816-13.4766Z"/>
  </g>
  <g id="Black-S" transform="matrix(1 0 0 1 2885.5 696)">
   <path d="M25 2.92969L70.8008 2.92969C80.3711 2.92969 86.0352-2.73438 86.0352-12.3047L86.0352-58.1055C86.0352-67.6758 80.3711-73.3398 70.8008-73.3398L25-73.3398C15.4297-73.3398 9.76562-67.6758 9.76562-58.1055L9.76562-12.3047C9.76562-2.73438 15.4297 2.92969 25 2.92969ZM45.2148-16.4551C41.2109-16.4551 38.5742-18.75 38.5742-22.3145C38.5742-23.8281 39.0137-25.1953 39.7949-26.3672L50.3418-41.5527L50.3418-41.9922L38.6719-41.9922C34.7168-41.9922 32.373-44.043 32.373-47.5098C32.373-50.9277 34.7168-52.9785 38.6719-52.9785L56.9824-52.9785C62.207-52.9785 65.2832-50.2441 65.2832-45.752C65.2832-43.2617 64.6484-41.2109 63.1348-38.7695L51.9043-21.0449C49.6582-17.5293 48.1445-16.4551 45.2148-16.4551Z"/>
  </g>
  <g id="Heavy-S" transform="matrix(1 0 0 1 2589.4 696)">
   <path d="M24.3652 2.34375L70.2637 2.34375C79.541 2.34375 84.8145-2.97852 84.8145-12.207L84.8145-58.2031C84.8145-67.4316 79.541-72.7539 70.2637-72.7539L24.3652-72.7539C15.0879-72.7539 9.76562-67.4316 9.76562-58.2031L9.76562-12.207C9.76562-2.97852 15.0879 2.34375 24.3652 2.34375ZM43.9941-16.4062C40.4785-16.4062 38.0859-18.457 38.0859-21.6309C38.0859-22.998 38.4277-24.1699 39.1602-25.293L50.5859-42.9688L50.5859-43.3594L37.793-43.3594C34.4238-43.3594 32.373-45.2148 32.373-48.2422C32.373-51.2207 34.4238-53.0762 37.793-53.0762L56.3477-53.0762C61.0352-53.0762 63.8672-50.5371 63.8672-46.5332C63.8672-44.3848 63.3301-42.627 61.9629-40.3809L49.9023-20.459C47.998-17.3828 46.582-16.4062 43.9941-16.4062Z"/>
  </g>
  <g id="Bold-S" transform="matrix(1 0 0 1 2293.35 696)">
   <path d="M23.6328 1.66016L69.6289 1.66016C78.6133 1.66016 83.4961-3.22266 83.4961-12.1094L83.4961-58.3008C83.4961-67.1875 78.6133-72.0703 69.6289-72.0703L23.6328-72.0703C14.6973-72.0703 9.76562-67.1875 9.76562-58.3008L9.76562-12.1094C9.76562-3.22266 14.6973 1.66016 23.6328 1.66016ZM42.5781-16.3086C39.5996-16.3086 37.5-18.1152 37.5-20.8496C37.5-22.0703 37.793-23.0469 38.4277-24.0234L50.8301-44.5312L50.8301-44.9219L36.8164-44.9219C34.082-44.9219 32.3242-46.5332 32.3242-49.0723C32.3242-51.6113 34.082-53.1738 36.8164-53.1738L55.6641-53.1738C59.7168-53.1738 62.2559-50.8789 62.2559-47.4121C62.2559-45.7031 61.8164-44.2383 60.5957-42.1875L47.7051-19.8242C46.1426-17.1875 44.8242-16.3086 42.5781-16.3086Z"/>
  </g>
  <g id="Semibold-S" transform="matrix(1 0 0 1 1997.1 696)">
   <path d="M23.0957 1.17188L69.1895 1.17188C77.9297 1.17188 82.5684-3.36914 82.5684-12.0117L82.5684-58.3984C82.5684-67.041 77.9297-71.582 69.1895-71.582L23.0957-71.582C14.4043-71.582 9.76562-67.041 9.76562-58.3984L9.76562-12.0117C9.76562-3.36914 14.4043 1.17188 23.0957 1.17188ZM41.6504-16.2598C39.0137-16.2598 37.1094-17.8711 37.1094-20.3613C37.1094-21.4355 37.3535-22.2656 37.8906-23.1934L51.0254-45.6543L51.0254-45.9961L36.1328-45.9961C33.8379-45.9961 32.3242-47.4121 32.3242-49.6094C32.3242-51.8555 33.8379-53.2715 36.1328-53.2715L55.1758-53.2715C58.8379-53.2715 61.1328-51.123 61.1328-47.998C61.1328-46.582 60.791-45.3125 59.7168-43.4082L46.1914-19.3848C44.873-17.0898 43.6523-16.2598 41.6504-16.2598Z"/>
  </g>
  <g id="Medium-S" transform="matrix(1 0 0 1 1700.75 696)">
   <path d="M22.7051 0.830078L68.8965 0.830078C77.4414 0.830078 81.8359-3.51562 81.8359-11.9629L81.8359-58.4473C81.8359-66.8945 77.4414-71.2402 68.8965-71.2402L22.7051-71.2402C14.209-71.2402 9.76562-66.8945 9.76562-58.4473L9.76562-11.9629C9.76562-3.51562 14.209 0.830078 22.7051 0.830078ZM40.918-16.2109C38.5742-16.2109 36.8164-17.7246 36.8164-19.9219C36.8164-20.9473 37.0605-21.6797 37.5488-22.5586L51.1719-46.4844L51.1719-46.8262L35.6445-46.8262C33.6914-46.8262 32.3242-48.0957 32.3242-50.0488C32.3242-52.002 33.6426-53.3203 35.6445-53.3203L54.834-53.3203C58.1543-53.3203 60.3027-51.2695 60.3027-48.4863C60.3027-47.2168 60.0098-46.1426 58.9844-44.3359L45.0195-19.043C43.8965-16.9922 42.7246-16.2109 40.918-16.2109Z"/>
  </g>
  <g id="Regular-S" transform="matrix(1 0 0 1 1404.51 696)">
   <path d="M22.2168 0.390625L68.457 0.390625C76.8066 0.390625 80.9082-3.71094 80.9082-11.9141L80.9082-58.4961C80.9082-66.6992 76.8066-70.8008 68.457-70.8008L22.2168-70.8008C13.916-70.8008 9.76562-66.6992 9.76562-58.4961L9.76562-11.9141C9.76562-3.71094 13.916 0.390625 22.2168 0.390625ZM39.9902-16.1621C37.9883-16.1621 36.4258-17.4805 36.4258-19.4336C36.4258-20.3125 36.6211-20.9473 37.0117-21.7285L51.3184-47.5586L51.3184-47.9004L34.9609-47.9004C33.4473-47.9004 32.3242-49.0234 32.3242-50.6348C32.3242-52.2461 33.3984-53.418 34.9609-53.418L54.3457-53.418C57.2266-53.418 59.1797-51.5137 59.1797-49.0723C59.1797-48.0957 58.9844-47.2168 58.1055-45.5566L43.5059-18.6035C42.627-16.8945 41.5527-16.1621 39.9902-16.1621Z"/>
  </g>
  <g id="Light-S" transform="matrix(1 0 0 1 1108.46 696)">
   <path d="M21.3867-0.292969L67.9688-0.292969C75.7324-0.292969 79.5898-4.15039 79.5898-11.7676L79.5898-58.5938C79.5898-66.2109 75.7324-70.1172 67.9688-70.1172L21.3867-70.1172C13.6719-70.1172 9.76562-66.2598 9.76562-58.5938L9.76562-11.7676C9.76562-4.15039 13.6719-0.292969 21.3867-0.292969ZM39.4043-16.7969C37.8418-16.7969 36.6211-17.8223 36.6211-19.3359C36.6211-20.0195 36.7676-20.5078 37.1094-21.1426L51.7578-48.291L51.7578-48.584L34.7168-48.584C33.4961-48.584 32.5684-49.5117 32.5684-50.7812C32.5684-52.0508 33.4473-52.9785 34.7168-52.9785L53.9062-52.9785C56.25-52.9785 57.8125-51.5137 57.8125-49.5605C57.8125-48.7793 57.666-48.0469 56.9336-46.7773L42.1875-18.7012C41.4551-17.334 40.625-16.7969 39.4043-16.7969Z"/>
  </g>
  <g id="Thin-S" transform="matrix(1 0 0 1 812.599 696)">
   <path d="M20.3125-1.12305L67.334-1.12305C74.2676-1.12305 77.8809-4.78516 77.8809-11.6211L77.8809-58.6914C77.8809-65.5762 74.2676-69.2383 67.334-69.2383L20.3125-69.2383C13.3789-69.2383 9.76562-65.625 9.76562-58.6914L9.76562-11.6211C9.76562-4.6875 13.3789-1.12305 20.3125-1.12305ZM38.6719-17.627C37.6953-17.627 36.9141-18.2617 36.9141-19.2383C36.9141-19.6777 37.0117-19.9707 37.207-20.4102L52.2461-49.3164L52.2461-49.5605L34.375-49.5605C33.4961-49.5605 32.9102-50.1465 32.9102-50.9766C32.9102-51.8066 33.4961-52.4414 34.375-52.4414L53.3691-52.4414C54.9316-52.4414 56.0059-51.5137 56.0059-50.1953C56.0059-49.6582 55.8594-49.1699 55.4688-48.3398L40.3809-18.8477C39.9414-17.9688 39.4531-17.627 38.6719-17.627Z"/>
  </g>
  <g id="Ultralight-S" transform="matrix(1 0 0 1 516.352 696)">
   <path d="M19.7754-1.5625L66.9922-1.5625C73.5352-1.5625 76.9531-5.12695 76.9531-11.5234L76.9531-58.7891C76.9531-65.2344 73.5352-68.75 66.9922-68.75L19.7754-68.75C13.2324-68.75 9.76562-65.2832 9.76562-58.7891L9.76562-11.5234C9.76562-5.0293 13.2324-1.5625 19.7754-1.5625ZM38.2812-18.0664C37.5488-18.0664 37.0605-18.5059 37.0605-19.1406C37.0605-19.4824 37.1094-19.6777 37.3047-20.0195L52.5391-49.8535L52.5391-50.0488L34.1797-50.0488C33.5449-50.0488 33.1055-50.4883 33.1055-51.0742C33.1055-51.709 33.5449-52.1484 34.1797-52.1484L53.0273-52.1484C54.248-52.1484 55.0293-51.5137 55.0293-50.5371C55.0293-50.0977 54.9316-49.7559 54.6875-49.1699L39.4531-18.9453C39.1602-18.3105 38.8184-18.0664 38.2812-18.0664Z"/>
  </g>
 </g>
</svg>
