<?xml version="1.0" encoding="UTF-8"?>
<!--Generator: Apple Native CoreSVG 149-->
<!DOCTYPE svg
PUBLIC "-//W3C//DTD SVG 1.1//EN"
       "http://www.w3.org/Graphics/SVG/1.1/DTD/svg11.dtd">
<svg version="1.1" xmlns="http://www.w3.org/2000/svg" xmlns:xlink="http://www.w3.org/1999/xlink" width="3300" height="2200">
 <!--glyph: "uni100553.medium", point size: 100.000000, font version: "Version 16.0d18e1", template writer version: "8"-->
 <g id="Notes">
  <rect height="2200" id="artboard" style="fill:white;opacity:1" width="3300" x="0" y="0"/>
  <line id="" style="fill:none;stroke:black;opacity:1;stroke-width:0.5;" x1="263" x2="3036" y1="292" y2="292"/>
  <text style="stroke:none;fill:black;font-family:-apple-system,&quot;SF Pro Display&quot;,&quot;SF Pro Text&quot;,Helvetica,sans-serif;font-weight:bold;" transform="matrix(1 0 0 1 263 322)">Weight/Scale Variations</text>
  <text style="stroke:none;fill:black;font-family:-apple-system,&quot;SF Pro Display&quot;,&quot;SF Pro Text&quot;,Helvetica,sans-serif;text-anchor:middle;" transform="matrix(1 0 0 1 559.711 322)">Ultralight</text>
  <text style="stroke:none;fill:black;font-family:-apple-system,&quot;SF Pro Display&quot;,&quot;SF Pro Text&quot;,Helvetica,sans-serif;text-anchor:middle;" transform="matrix(1 0 0 1 856.422 322)">Thin</text>
  <text style="stroke:none;fill:black;font-family:-apple-system,&quot;SF Pro Display&quot;,&quot;SF Pro Text&quot;,Helvetica,sans-serif;text-anchor:middle;" transform="matrix(1 0 0 1 1153.13 322)">Light</text>
  <text style="stroke:none;fill:black;font-family:-apple-system,&quot;SF Pro Display&quot;,&quot;SF Pro Text&quot;,Helvetica,sans-serif;text-anchor:middle;" transform="matrix(1 0 0 1 1449.84 322)">Regular</text>
  <text style="stroke:none;fill:black;font-family:-apple-system,&quot;SF Pro Display&quot;,&quot;SF Pro Text&quot;,Helvetica,sans-serif;text-anchor:middle;" transform="matrix(1 0 0 1 1746.56 322)">Medium</text>
  <text style="stroke:none;fill:black;font-family:-apple-system,&quot;SF Pro Display&quot;,&quot;SF Pro Text&quot;,Helvetica,sans-serif;text-anchor:middle;" transform="matrix(1 0 0 1 2043.27 322)">Semibold</text>
  <text style="stroke:none;fill:black;font-family:-apple-system,&quot;SF Pro Display&quot;,&quot;SF Pro Text&quot;,Helvetica,sans-serif;text-anchor:middle;" transform="matrix(1 0 0 1 2339.98 322)">Bold</text>
  <text style="stroke:none;fill:black;font-family:-apple-system,&quot;SF Pro Display&quot;,&quot;SF Pro Text&quot;,Helvetica,sans-serif;text-anchor:middle;" transform="matrix(1 0 0 1 2636.69 322)">Heavy</text>
  <text style="stroke:none;fill:black;font-family:-apple-system,&quot;SF Pro Display&quot;,&quot;SF Pro Text&quot;,Helvetica,sans-serif;text-anchor:middle;" transform="matrix(1 0 0 1 2933.4 322)">Black</text>
  <line id="" style="fill:none;stroke:black;opacity:1;stroke-width:0.5;" x1="263" x2="3036" y1="1903" y2="1903"/>
  <g id="" transform="matrix(1 0 0 1 263 1933)">
   <path d="M9.24805 0.830078C13.5547 0.830078 17.1387-2.74414 17.1387-7.05078C17.1387-11.3574 13.5449-14.9316 9.23828-14.9316C4.94141-14.9316 1.36719-11.3574 1.36719-7.05078C1.36719-2.74414 4.95117 0.830078 9.24805 0.830078ZM9.24805-0.654297C5.70312-0.654297 2.87109-3.49609 2.87109-7.05078C2.87109-10.6055 5.69336-13.4473 9.23828-13.4473C12.793-13.4473 15.6348-10.6055 15.6445-7.05078C15.6543-3.49609 12.8027-0.654297 9.24805-0.654297ZM6.39648-6.31836L8.50586-6.31836L8.50586-4.19922C8.50586-3.75977 8.79883-3.45703 9.22852-3.45703C9.67773-3.45703 9.9707-3.75977 9.9707-4.19922L9.9707-6.31836L12.0996-6.31836C12.5391-6.31836 12.8418-6.61133 12.8418-7.04102C12.8418-7.48047 12.5391-7.7832 12.0996-7.7832L9.9707-7.7832L9.9707-9.89258C9.9707-10.3418 9.67773-10.6445 9.22852-10.6445C8.79883-10.6445 8.50586-10.3418 8.50586-9.89258L8.50586-7.7832L6.39648-7.7832C5.94727-7.7832 5.64453-7.48047 5.64453-7.04102C5.64453-6.61133 5.94727-6.31836 6.39648-6.31836Z"/>
  </g>
  <g id="" transform="matrix(1 0 0 1 281.506 1933)">
   <path d="M11.709 2.91016C17.1582 2.91016 21.6699-1.61133 21.6699-7.05078C21.6699-12.5 17.1484-17.0117 11.6992-17.0117C6.25977-17.0117 1.74805-12.5 1.74805-7.05078C1.74805-1.61133 6.26953 2.91016 11.709 2.91016ZM11.709 1.25C7.09961 1.25 3.41797-2.44141 3.41797-7.05078C3.41797-11.6602 7.08984-15.3516 11.6992-15.3516C16.3086-15.3516 20-11.6602 20.0098-7.05078C20.0195-2.44141 16.3184 1.25 11.709 1.25ZM7.98828-6.23047L10.8789-6.23047L10.8789-3.32031C10.8789-2.83203 11.2109-2.5 11.6895-2.5C12.1777-2.5 12.5195-2.83203 12.5195-3.32031L12.5195-6.23047L15.4297-6.23047C15.918-6.23047 16.25-6.5625 16.25-7.04102C16.25-7.5293 15.918-7.87109 15.4297-7.87109L12.5195-7.87109L12.5195-10.7617C12.5195-11.2695 12.1777-11.6016 11.6895-11.6016C11.2109-11.6016 10.8789-11.2598 10.8789-10.7617L10.8789-7.87109L7.98828-7.87109C7.48047-7.87109 7.14844-7.5293 7.14844-7.04102C7.14844-6.5625 7.49023-6.23047 7.98828-6.23047Z"/>
  </g>
  <g id="" transform="matrix(1 0 0 1 304.924 1933)">
   <path d="M14.9707 5.66406C21.9336 5.66406 27.6953-0.0976562 27.6953-7.05078C27.6953-14.0137 21.9238-19.7754 14.9609-19.7754C8.00781-19.7754 2.25586-14.0137 2.25586-7.05078C2.25586-0.0976562 8.01758 5.66406 14.9707 5.66406ZM14.9707 3.84766C8.93555 3.84766 4.08203-1.01562 4.08203-7.05078C4.08203-13.0957 8.92578-17.9492 14.9609-17.9492C21.0059-17.9492 25.8594-13.0957 25.8691-7.05078C25.8789-1.01562 21.0156 3.84766 14.9707 3.84766ZM10.0586-6.14258L14.0625-6.14258L14.0625-2.12891C14.0625-1.5918 14.4336-1.2207 14.9512-1.2207C15.4883-1.2207 15.8594-1.5918 15.8594-2.12891L15.8594-6.14258L19.8828-6.14258C20.4102-6.14258 20.791-6.51367 20.791-7.03125C20.791-7.56836 20.4199-7.94922 19.8828-7.94922L15.8594-7.94922L15.8594-11.9531C15.8594-12.5098 15.4883-12.8809 14.9512-12.8809C14.4336-12.8809 14.0625-12.5 14.0625-11.9531L14.0625-7.94922L10.0586-7.94922C9.50195-7.94922 9.13086-7.56836 9.13086-7.03125C9.13086-6.51367 9.51172-6.14258 10.0586-6.14258Z"/>
  </g>
  <text style="stroke:none;fill:black;font-family:-apple-system,&quot;SF Pro Display&quot;,&quot;SF Pro Text&quot;,Helvetica,sans-serif;font-weight:bold;" transform="matrix(1 0 0 1 263 1953)">Design Variations</text>
  <text style="stroke:none;fill:black;font-family:-apple-system,&quot;SF Pro Display&quot;,&quot;SF Pro Text&quot;,Helvetica,sans-serif;" transform="matrix(1 0 0 1 263 1971)">Symbols are supported in up to nine weights and three scales.</text>
  <text style="stroke:none;fill:black;font-family:-apple-system,&quot;SF Pro Display&quot;,&quot;SF Pro Text&quot;,Helvetica,sans-serif;" transform="matrix(1 0 0 1 263 1989)">For optimal layout with text and other symbols, vertically align</text>
  <text style="stroke:none;fill:black;font-family:-apple-system,&quot;SF Pro Display&quot;,&quot;SF Pro Text&quot;,Helvetica,sans-serif;" transform="matrix(1 0 0 1 263 2007)">symbols with the adjacent text.</text>
  <line id="" style="fill:none;stroke:#00AEEF;stroke-width:0.5;opacity:1.0;" x1="776" x2="776" y1="1919" y2="1933"/>
  <g id="" transform="matrix(1 0 0 1 776 1933)">
   <path d="M3.31055 0.126953C3.82812 0.126953 4.08203-0.0683594 4.26758-0.605469L5.52734-4.0625L11.2891-4.0625L12.5488-0.605469C12.7344-0.0683594 12.9883 0.126953 13.4961 0.126953C14.0137 0.126953 14.3457-0.185547 14.3457-0.673828C14.3457-0.839844 14.3164-0.986328 14.2383-1.20117L9.6582-13.3887C9.43359-13.9941 9.0332-14.2871 8.4082-14.2871C7.80273-14.2871 7.39258-13.9941 7.17773-13.3984L2.59766-1.19141C2.51953-0.976562 2.49023-0.830078 2.49023-0.664062C2.49023-0.175781 2.80273 0.126953 3.31055 0.126953ZM6.00586-5.53711L8.37891-12.1094L8.42773-12.1094L10.8008-5.53711Z"/>
  </g>
  <line id="" style="fill:none;stroke:#00AEEF;stroke-width:0.5;opacity:1.0;" x1="792.836" x2="792.836" y1="1919" y2="1933"/>
  <text style="stroke:none;fill:black;font-family:-apple-system,&quot;SF Pro Display&quot;,&quot;SF Pro Text&quot;,Helvetica,sans-serif;font-weight:bold;" transform="matrix(1 0 0 1 776 1953)">Margins</text>
  <text style="stroke:none;fill:black;font-family:-apple-system,&quot;SF Pro Display&quot;,&quot;SF Pro Text&quot;,Helvetica,sans-serif;" transform="matrix(1 0 0 1 776 1971)">Leading and trailing margins on the left and right side of each symbol</text>
  <text style="stroke:none;fill:black;font-family:-apple-system,&quot;SF Pro Display&quot;,&quot;SF Pro Text&quot;,Helvetica,sans-serif;" transform="matrix(1 0 0 1 776 1989)">can be adjusted by modifying the x-location of the margin guidelines.</text>
  <text style="stroke:none;fill:black;font-family:-apple-system,&quot;SF Pro Display&quot;,&quot;SF Pro Text&quot;,Helvetica,sans-serif;" transform="matrix(1 0 0 1 776 2007)">Modifications are automatically applied proportionally to all</text>
  <text style="stroke:none;fill:black;font-family:-apple-system,&quot;SF Pro Display&quot;,&quot;SF Pro Text&quot;,Helvetica,sans-serif;" transform="matrix(1 0 0 1 776 2025)">scales and weights.</text>
  <g id="" transform="matrix(1 0 0 1 1289 1933)">
   <path d="M2.8418 1.86523L4.54102 3.57422C5.40039 4.44336 6.38672 4.38477 7.31445 3.35938L17.4902-7.85156C17.7539-7.76367 18.0273-7.7832 18.3398-7.8418L19.4043-8.03711L20.0684-7.36328L20.0293-6.80664C19.9902-6.30859 20.1172-5.92773 20.6055-5.44922L21.3672-4.70703C21.8457-4.22852 22.4609-4.19922 22.9297-4.66797L25.8398-7.58789C26.3086-8.05664 26.2891-8.65234 25.8105-9.13086L25.0391-9.89258C24.5605-10.3711 24.1895-10.5273 23.7109-10.4883L23.1348-10.4395L22.4902-11.0742L22.7344-12.1973C22.8613-12.7637 22.7051-13.2031 22.1191-13.7891L19.9219-15.9766C16.582-19.2969 12.1484-19.2188 9.25781-16.3281C8.83789-15.918 8.80859-15.3418 9.04297-14.9512C9.27734-14.5898 9.73633-14.3555 10.3809-14.5215C11.8457-14.8633 13.3691-14.9219 14.7949-13.9844L14.209-12.5293C14.0137-12.0508 13.9844-11.6504 14.1113-11.2891L3.04688-0.898438C2.06055 0.0195312 1.98242 0.996094 2.8418 1.86523ZM10.752-15.957C13.1836-17.7344 16.4746-17.4316 18.7012-15.2051L21.1328-12.793C21.3672-12.5586 21.4062-12.373 21.3379-12.0312L21.0156-10.5469L22.5195-9.0625L23.5059-9.12109C23.7598-9.13086 23.8379-9.11133 24.0332-8.91602L24.6094-8.33984L22.168-5.89844L21.5918-6.47461C21.3965-6.66992 21.3672-6.74805 21.377-7.01172L21.4453-7.98828L19.9512-9.47266L18.4277-9.21875C18.1055-9.15039 17.959-9.17969 17.7148-9.41406L15.7129-11.416C15.459-11.6504 15.4297-11.8164 15.5859-12.1875L16.4648-14.2773C14.9023-15.7324 12.8711-16.3574 10.8398-15.7617C10.6836-15.7227 10.625-15.8496 10.752-15.957ZM5.27344 2.30469L4.10156 1.14258C3.63281 0.683594 3.74023 0.341797 4.14062-0.0195312L14.9512-10.1953L16.416-8.71094L6.42578 2.27539C6.07422 2.67578 5.74219 2.77344 5.27344 2.30469Z"/>
  </g>
  <text style="stroke:none;fill:black;font-family:-apple-system,&quot;SF Pro Display&quot;,&quot;SF Pro Text&quot;,Helvetica,sans-serif;font-weight:bold;" transform="matrix(1 0 0 1 1289 1953)">Exporting</text>
  <text style="stroke:none;fill:black;font-family:-apple-system,&quot;SF Pro Display&quot;,&quot;SF Pro Text&quot;,Helvetica,sans-serif;" transform="matrix(1 0 0 1 1289 1971)">Symbols should be outlined when exporting to ensure the</text>
  <text style="stroke:none;fill:black;font-family:-apple-system,&quot;SF Pro Display&quot;,&quot;SF Pro Text&quot;,Helvetica,sans-serif;" transform="matrix(1 0 0 1 1289 1989)">design is preserved when submitting to Xcode.</text>
  <text id="template-version" style="stroke:none;fill:black;font-family:-apple-system,&quot;SF Pro Display&quot;,&quot;SF Pro Text&quot;,Helvetica,sans-serif;text-anchor:end;" transform="matrix(1 0 0 1 3036 1933)">Template v.2.0</text>
  <text style="stroke:none;fill:black;font-family:-apple-system,&quot;SF Pro Display&quot;,&quot;SF Pro Text&quot;,Helvetica,sans-serif;text-anchor:end;" transform="matrix(1 0 0 1 3036 1951)">Requires Xcode 12 or greater</text>
  <text style="stroke:none;fill:black;font-family:-apple-system,&quot;SF Pro Display&quot;,&quot;SF Pro Text&quot;,Helvetica,sans-serif;text-anchor:end;" transform="matrix(1 0 0 1 3036 1969)">Generated from 11.square.fill</text>
  <text style="stroke:none;fill:black;font-family:-apple-system,&quot;SF Pro Display&quot;,&quot;SF Pro Text&quot;,Helvetica,sans-serif;text-anchor:end;" transform="matrix(1 0 0 1 3036 1987)">Typeset at 100 points</text>
  <text style="stroke:none;fill:black;font-family:-apple-system,&quot;SF Pro Display&quot;,&quot;SF Pro Text&quot;,Helvetica,sans-serif;" transform="matrix(1 0 0 1 263 726)">Small</text>
  <text style="stroke:none;fill:black;font-family:-apple-system,&quot;SF Pro Display&quot;,&quot;SF Pro Text&quot;,Helvetica,sans-serif;" transform="matrix(1 0 0 1 263 1156)">Medium</text>
  <text style="stroke:none;fill:black;font-family:-apple-system,&quot;SF Pro Display&quot;,&quot;SF Pro Text&quot;,Helvetica,sans-serif;" transform="matrix(1 0 0 1 263 1586)">Large</text>
 </g>
 <g id="Guides">
  <g id="H-reference" style="fill:#27AAE1;stroke:none;" transform="matrix(1 0 0 1 339 696)">
   <path d="M0.976562 0L3.66211 0L12.9883-24.4629L45.752-24.4629L55.127 0L57.7637 0L30.6152-70.459L28.125-70.459ZM29.3457-67.1387L29.4434-67.1387L44.873-26.709L13.8672-26.709Z"/>
  </g>
  <line id="Baseline-S" style="fill:none;stroke:#27AAE1;opacity:1;stroke-width:0.5;" x1="263" x2="3036" y1="696" y2="696"/>
  <line id="Capline-S" style="fill:none;stroke:#27AAE1;opacity:1;stroke-width:0.5;" x1="263" x2="3036" y1="625.541" y2="625.541"/>
  <g id="H-reference" style="fill:#27AAE1;stroke:none;" transform="matrix(1 0 0 1 339 1126)">
   <path d="M0.976562 0L3.66211 0L12.9883-24.4629L45.752-24.4629L55.127 0L57.7637 0L30.6152-70.459L28.125-70.459ZM29.3457-67.1387L29.4434-67.1387L44.873-26.709L13.8672-26.709Z"/>
  </g>
  <line id="Baseline-M" style="fill:none;stroke:#27AAE1;opacity:1;stroke-width:0.5;" x1="263" x2="3036" y1="1126" y2="1126"/>
  <line id="Capline-M" style="fill:none;stroke:#27AAE1;opacity:1;stroke-width:0.5;" x1="263" x2="3036" y1="1055.54" y2="1055.54"/>
  <g id="H-reference" style="fill:#27AAE1;stroke:none;" transform="matrix(1 0 0 1 339 1556)">
   <path d="M0.976562 0L3.66211 0L12.9883-24.4629L45.752-24.4629L55.127 0L57.7637 0L30.6152-70.459L28.125-70.459ZM29.3457-67.1387L29.4434-67.1387L44.873-26.709L13.8672-26.709Z"/>
  </g>
  <line id="Baseline-L" style="fill:none;stroke:#27AAE1;opacity:1;stroke-width:0.5;" x1="263" x2="3036" y1="1556" y2="1556"/>
  <line id="Capline-L" style="fill:none;stroke:#27AAE1;opacity:1;stroke-width:0.5;" x1="263" x2="3036" y1="1485.54" y2="1485.54"/>
  <line id="left-margin" style="fill:none;stroke:#00AEEF;stroke-width:0.5;opacity:1.0;" x1="1392.45" x2="1392.45" y1="1030.79" y2="1150.12"/>
  <line id="right-margin" style="fill:none;stroke:#00AEEF;stroke-width:0.5;opacity:1.0;" x1="1507.24" x2="1507.24" y1="1030.79" y2="1150.12"/>
 </g>
 <g id="Symbols">
  <g id="Black-L" transform="matrix(1 0 0 1 2855.62 1556)">
   <path d="M39.9902 26.5137L115.576 26.5137C130.811 26.5137 139.502 17.8711 139.502 2.68555L139.502-73.0957C139.502-88.2812 130.811-96.875 115.576-96.875L39.9902-96.875C24.7559-96.875 16.0645-88.2812 16.0645-73.0957L16.0645 2.68555C16.0645 17.8711 24.7559 26.5137 39.9902 26.5137ZM65.8691-9.22852C61.6699-9.22852 59.5703-11.7188 59.5703-16.5527L59.5703-45.9473L59.2773-45.9473L56.2988-42.9688C54.6387-41.2109 53.418-40.4297 51.3184-40.4297C48.4863-40.4297 46.1914-42.8711 46.1914-45.7031C46.1914-48.1934 47.2656-49.9512 49.6582-52.1484L56.1035-57.7148C59.375-60.6934 61.5234-61.4258 64.2578-61.4258C69.4336-61.4258 72.0703-58.3496 72.0703-53.125L72.0703-16.5527C72.0703-11.7188 69.9707-9.22852 65.8691-9.22852ZM100.586-9.22852C96.4355-9.22852 94.3359-11.7188 94.3359-16.5527L94.3359-45.9473L94.043-45.9473L91.0645-42.9688C89.4043-41.2109 88.1836-40.4297 86.084-40.4297C83.3008-40.4297 81.0059-42.8711 81.0059-45.7031C81.0059-48.1934 82.0312-49.9512 84.375-52.1484L90.8203-57.7148C94.1406-60.6934 96.3379-61.4258 99.0723-61.4258C104.199-61.4258 106.885-58.3496 106.885-53.125L106.885-16.5527C106.885-11.7188 104.785-9.22852 100.586-9.22852Z"/>
  </g>
  <g id="Heavy-L" transform="matrix(1 0 0 1 2559.93 1556)">
   <path d="M38.8184 25.4883L114.697 25.4883C129.346 25.4883 137.451 17.4316 137.451 2.88086L137.451-73.2422C137.451-87.793 129.346-95.8496 114.697-95.8496L38.8184-95.8496C24.2188-95.8496 16.0645-87.793 16.0645-73.2422L16.0645 2.88086C16.0645 17.4316 24.2188 25.4883 38.8184 25.4883ZM64.502-9.0332C60.791-9.0332 58.8867-11.2305 58.8867-15.4785L58.8867-47.7051L58.5449-47.7051L54.3945-44.0918C52.8809-42.5293 51.8066-41.9434 49.9512-41.9434C47.4121-41.9434 45.3125-44.1895 45.3125-46.7773C45.3125-49.0234 46.2891-50.5859 48.3887-52.4414L55.8105-58.3984C58.7402-60.9863 60.6934-61.6699 63.1836-61.6699C67.7246-61.6699 70.1172-58.9355 70.1172-54.3945L70.1172-15.4785C70.1172-11.2305 68.1641-9.0332 64.502-9.0332ZM98.9746-9.0332C95.2637-9.0332 93.3594-11.2305 93.3594-15.4785L93.3594-47.7051L93.0664-47.7051L88.916-44.0918C87.3535-42.5293 86.2793-41.9434 84.4727-41.9434C81.9336-41.9434 79.834-44.1895 79.834-46.7773C79.834-49.0234 80.7617-50.5859 82.8613-52.4414L90.2344-58.3984C93.2617-60.9863 95.166-61.6699 97.6562-61.6699C102.148-61.6699 104.639-58.9355 104.639-54.3945L104.639-15.4785C104.639-11.2305 102.686-9.0332 98.9746-9.0332Z"/>
  </g>
  <g id="Bold-L" transform="matrix(1 0 0 1 2264.37 1556)">
   <path d="M37.5 24.3652L113.721 24.3652C127.637 24.3652 135.156 16.8945 135.156 3.07617L135.156-73.3887C135.156-87.207 127.637-94.7266 113.721-94.7266L37.5-94.7266C23.6328-94.7266 16.0645-87.2559 16.0645-73.3887L16.0645 3.07617C16.0645 16.8945 23.6328 24.3652 37.5 24.3652ZM62.9883-8.78906C59.8145-8.78906 58.1055-10.7422 58.1055-14.2578L58.1055-49.707L57.7637-49.707L52.2949-45.3613C50.8789-44.043 50-43.6035 48.4863-43.6035C46.2402-43.6035 44.2871-45.6055 44.2871-47.9492C44.2871-49.9023 45.166-51.2695 46.9727-52.832L55.4688-59.1309C58.0566-61.3281 59.7168-61.9141 61.9629-61.9141C65.7227-61.9141 67.8711-59.5703 67.8711-55.7617L67.8711-14.2578C67.8711-10.7422 66.1133-8.78906 62.9883-8.78906ZM97.168-8.78906C93.9941-8.78906 92.2363-10.7422 92.2363-14.2578L92.2363-49.707L91.9434-49.707L86.5234-45.3613C85.0586-44.043 84.1309-43.6035 82.666-43.6035C80.4199-43.6035 78.5156-45.6055 78.5156-47.9492C78.5156-49.9023 79.3457-51.2695 81.1523-52.832L89.5996-59.1309C92.2363-61.3281 93.8477-61.9141 96.1426-61.9141C99.9023-61.9141 102.1-59.5703 102.1-55.7617L102.1-14.2578C102.1-10.7422 100.342-8.78906 97.168-8.78906Z"/>
  </g>
  <g id="Semibold-L" transform="matrix(1 0 0 1 1968.44 1556)">
   <path d="M36.6211 23.584L113.037 23.584C126.514 23.584 133.594 16.5039 133.594 3.17383L133.594-73.5352C133.594-86.8164 126.514-93.9453 113.037-93.9453L36.6211-93.9453C23.1934-93.9453 16.0645-86.8652 16.0645-73.5352L16.0645 3.17383C16.0645 16.5527 23.1934 23.584 36.6211 23.584ZM61.9141-8.64258C59.1797-8.64258 57.5684-10.4004 57.5684-13.4277L57.5684-51.0742L57.2266-51.0742L50.8789-46.2402C49.5117-45.0684 48.7305-44.7754 47.4609-44.7754C45.4102-44.7754 43.6035-46.582 43.6035-48.7793C43.6035-50.5371 44.4336-51.8066 45.9961-53.0762L55.2246-59.668C57.5684-61.5234 59.0332-62.1094 61.1328-62.1094C64.4043-62.1094 66.3574-60.0098 66.3574-56.7383L66.3574-13.4277C66.3574-10.4004 64.7461-8.64258 61.9141-8.64258ZM95.8984-8.64258C93.1152-8.64258 91.5039-10.4004 91.5039-13.4277L91.5039-51.0742L91.1621-51.0742L84.8633-46.2402C83.4473-45.0684 82.666-44.7754 81.4453-44.7754C79.3945-44.7754 77.5879-46.582 77.5879-48.7793C77.5879-50.5371 78.3691-51.8066 79.9805-53.0762L89.1602-59.668C91.5039-61.5234 92.9688-62.1094 95.0684-62.1094C98.3398-62.1094 100.342-60.0098 100.342-56.7383L100.342-13.4277C100.342-10.4004 98.6816-8.64258 95.8984-8.64258Z"/>
  </g>
  <g id="Medium-L" transform="matrix(1 0 0 1 1672.31 1556)">
   <path d="M35.9375 22.998L112.5 22.998C125.635 22.998 132.422 16.2109 132.422 3.27148L132.422-73.6328C132.422-86.5234 125.635-93.3105 112.5-93.3105L35.9375-93.3105C22.9004-93.3105 16.0645-86.5723 16.0645-73.6328L16.0645 3.27148C16.0645 16.2598 22.9004 22.998 35.9375 22.998ZM61.1328-8.49609C58.6914-8.49609 57.1289-10.1074 57.1289-12.793L57.1289-52.0996L56.7871-52.0996L49.7559-46.9238C48.4375-45.8496 47.8027-45.6543 46.6797-45.6543C44.7754-45.6543 43.0664-47.3633 43.0664-49.4141C43.0664-51.0254 43.8477-52.1484 45.2637-53.2715L55.0293-60.0586C57.2266-61.7188 58.5449-62.2559 60.5469-62.2559C63.3789-62.2559 65.1855-60.3516 65.1855-57.4707L65.1855-12.793C65.1855-10.1074 63.6719-8.49609 61.1328-8.49609ZM94.9219-8.49609C92.4316-8.49609 90.918-10.1074 90.918-12.793L90.918-52.0996L90.5762-52.0996L83.5938-46.9238C82.2266-45.8496 81.5918-45.6543 80.4688-45.6543C78.6133-45.6543 76.9043-47.3633 76.9043-49.4141C76.9043-51.0254 77.6367-52.1484 79.0527-53.2715L88.8184-60.0586C90.9668-61.7188 92.2852-62.2559 94.2871-62.2559C97.168-62.2559 99.0234-60.3516 99.0234-57.4707L99.0234-12.793C99.0234-10.1074 97.4609-8.49609 94.9219-8.49609Z"/>
  </g>
  <g id="Regular-L" transform="matrix(1 0 0 1 1376.38 1556)">
   <path d="M35.0586 22.2168L111.816 22.2168C124.463 22.2168 130.859 15.8691 130.859 3.41797L130.859-73.7305C130.859-86.1816 124.463-92.5293 111.816-92.5293L35.0586-92.5293C22.4609-92.5293 16.0645-86.2305 16.0645-73.7305L16.0645 3.41797C16.0645 15.918 22.4609 22.2168 35.0586 22.2168ZM60.1074-8.34961C58.0078-8.34961 56.5918-9.76562 56.5918-11.9629L56.5918-53.4668L56.25-53.4668L48.3398-47.7539C47.0703-46.875 46.582-46.8262 45.6543-46.8262C43.9941-46.8262 42.3828-48.3398 42.3828-50.1953C42.3828-51.6602 43.1152-52.6367 44.2871-53.5645L54.7852-60.5957C56.7383-61.9141 57.8613-62.4512 59.7168-62.4512C62.0117-62.4512 63.6719-60.791 63.6719-58.3984L63.6719-11.9629C63.6719-9.76562 62.2559-8.34961 60.1074-8.34961ZM93.7012-8.34961C91.5527-8.34961 90.1367-9.76562 90.1367-11.9629L90.1367-53.4668L89.7949-53.4668L81.9336-47.7539C80.6641-46.875 80.127-46.8262 79.248-46.8262C77.5879-46.8262 75.9766-48.3398 75.9766-50.1953C75.9766-51.6602 76.6602-52.6367 77.8809-53.5645L88.3301-60.5957C90.2832-61.9141 91.4062-62.4512 93.2617-62.4512C95.6055-62.4512 97.2656-60.791 97.2656-58.3984L97.2656-11.9629C97.2656-9.76562 95.8496-8.34961 93.7012-8.34961Z"/>
  </g>
  <g id="Light-L" transform="matrix(1 0 0 1 1080.5 1556)">
   <path d="M34.0332 21.4355L111.23 21.4355C123.096 21.4355 129.199 15.2344 129.199 3.56445L129.199-73.8281C129.199-85.5469 123.096-91.6992 111.23-91.6992L34.0332-91.6992C22.168-91.6992 16.0645-85.6445 16.0645-73.8281L16.0645 3.56445C16.0645 15.3809 22.168 21.4355 34.0332 21.4355ZM59.5703-8.78906C57.959-8.78906 56.7871-9.91211 56.7871-11.6699L56.7871-54.7363L56.4941-54.7363L47.2168-48.3398C46.2891-47.7051 45.8984-47.7051 45.2148-47.7051C43.8477-47.7051 42.627-48.9258 42.627-50.3906C42.627-51.5137 43.1152-52.2949 44.0918-53.0273L55.4688-60.5469C56.8848-61.5234 57.7637-61.9141 59.2285-61.9141C61.084-61.9141 62.4023-60.6445 62.4023-58.6914L62.4023-11.6699C62.4023-9.91211 61.3281-8.78906 59.5703-8.78906ZM92.4805-8.78906C90.8203-8.78906 89.6484-9.91211 89.6484-11.6699L89.6484-54.7363L89.3555-54.7363L80.127-48.3398C79.1992-47.7051 78.8086-47.7051 78.125-47.7051C76.7578-47.7051 75.5371-48.9258 75.5371-50.3906C75.5371-51.5137 75.9766-52.2949 77.002-53.0273L88.3301-60.5469C89.7949-61.5234 90.6738-61.9141 92.1387-61.9141C93.9941-61.9141 95.3125-60.6445 95.3125-58.6914L95.3125-11.6699C95.3125-9.91211 94.2383-8.78906 92.4805-8.78906Z"/>
  </g>
  <g id="Thin-L" transform="matrix(1 0 0 1 784.889 1556)">
   <path d="M32.666 20.3613L110.352 20.3613C121.24 20.3613 127.002 14.4531 127.002 3.75977L127.002-73.9746C127.002-84.7168 121.24-90.5762 110.352-90.5762L32.666-90.5762C21.7773-90.5762 16.0645-84.8633 16.0645-73.9746L16.0645 3.75977C16.0645 14.6484 21.7773 20.3613 32.666 20.3613ZM58.8867-9.375C57.8613-9.375 57.0312-10.1074 57.0312-11.2305L57.0312-56.4453L56.7871-56.4453L45.6543-49.1211C45.2148-48.877 45.0195-48.877 44.6289-48.877C43.6523-48.877 42.8711-49.707 42.8711-50.6348C42.8711-51.3184 43.1152-51.8555 43.7988-52.3438L56.2988-60.4492C57.1289-60.9863 57.666-61.1816 58.6426-61.1816C59.8633-61.1816 60.7422-60.4004 60.7422-59.1309L60.7422-11.2305C60.7422-10.1074 60.0586-9.375 58.8867-9.375ZM90.8691-9.375C89.8438-9.375 89.0137-10.1074 89.0137-11.2305L89.0137-56.4453L88.7695-56.4453L77.6855-49.1211C77.2461-48.877 77.002-48.877 76.6113-48.877C75.6348-48.877 74.9023-49.707 74.9023-50.6348C74.9023-51.3184 75.0977-51.8555 75.8301-52.3438L88.3301-60.4492C89.1113-60.9863 89.6973-61.1816 90.625-61.1816C91.8457-61.1816 92.7734-60.4004 92.7734-59.1309L92.7734-11.2305C92.7734-10.1074 92.0898-9.375 90.8691-9.375Z"/>
  </g>
  <g id="Ultralight-L" transform="matrix(1 0 0 1 488.739 1556)">
   <path d="M31.9824 19.7754L109.961 19.7754C120.312 19.7754 125.879 14.0625 125.879 3.85742L125.879-74.0723C125.879-84.2773 120.312-89.9902 109.961-89.9902L31.9824-89.9902C21.582-89.9902 16.0645-84.4727 16.0645-74.0723L16.0645 3.85742C16.0645 14.2578 21.582 19.7754 31.9824 19.7754ZM58.5449-9.66797C57.8125-9.66797 57.1777-10.2051 57.1777-11.0352L57.1777-57.3242L56.9336-57.3242L44.9219-49.5605C44.6777-49.4629 44.5801-49.4629 44.3359-49.4629C43.5547-49.4629 43.0176-50.0977 43.0176-50.7812C43.0176-51.2207 43.1152-51.6602 43.7012-52.002L56.7383-60.4004C57.2266-60.6934 57.6172-60.8398 58.3008-60.8398C59.1797-60.8398 59.9121-60.3027 59.9121-59.3262L59.9121-11.0352C59.9121-10.2051 59.4238-9.66797 58.5449-9.66797ZM90.0879-9.66797C89.3555-9.66797 88.7207-10.2051 88.7207-11.0352L88.7207-57.3242L88.4766-57.3242L76.4648-49.5605C76.2207-49.4629 76.123-49.4629 75.8789-49.4629C75.0977-49.4629 74.5605-50.0977 74.5605-50.7812C74.5605-51.2207 74.6582-51.6602 75.2441-52.002L88.2812-60.4004C88.7695-60.6934 89.209-60.8398 89.8438-60.8398C90.7227-60.8398 91.4551-60.3027 91.4551-59.3262L91.4551-11.0352C91.4551-10.2051 90.9668-9.66797 90.0879-9.66797Z"/>
  </g>
  <g id="Black-M" transform="matrix(1 0 0 1 2872.19 1126)">
   <path d="M31.9824 13.5742L90.4297 13.5742C102.686 13.5742 109.961 6.29883 109.961-5.95703L109.961-64.4043C109.961-76.6602 102.686-83.9355 90.4297-83.9355L31.9824-83.9355C19.7266-83.9355 12.4512-76.6602 12.4512-64.4043L12.4512-5.95703C12.4512 6.29883 19.7266 13.5742 31.9824 13.5742ZM52.5879-15.625C48.877-15.625 47.2168-17.6758 47.2168-22.0215L47.2168-41.8457L47.0215-41.8457L45.5078-40.0391C44.3359-38.5254 43.2129-37.6953 41.3086-37.6953C38.916-37.6953 37.1094-39.7461 37.1094-41.9922C37.1094-44.0918 37.9395-45.6055 40.0879-47.6074L44.2383-51.709C46.9238-54.3457 48.8281-54.8828 51.0254-54.8828C55.6641-54.8828 57.8613-52.2461 57.8613-47.6074L57.8613-22.0215C57.8613-17.6758 56.2012-15.625 52.5879-15.625ZM79.541-15.625C75.8789-15.625 74.1699-17.6758 74.1699-22.0215L74.1699-41.8457L74.0234-41.8457L72.5098-40.0391C71.2891-38.5254 70.2148-37.6953 68.3105-37.6953C65.918-37.6953 64.1113-39.7461 64.1113-41.9922C64.1113-44.0918 64.9414-45.6055 66.9922-47.6074L71.1914-51.709C73.9258-54.3457 75.8301-54.8828 78.0273-54.8828C82.6172-54.8828 84.8633-52.2461 84.8633-47.6074L84.8633-22.0215C84.8633-17.6758 83.1543-15.625 79.541-15.625Z"/>
  </g>
  <g id="Heavy-M" transform="matrix(1 0 0 1 2576.39 1126)">
   <path d="M31.0059 12.6465L89.6484 12.6465C101.416 12.6465 108.154 5.9082 108.154-5.81055L108.154-64.5508C108.154-76.2695 101.416-83.0566 89.6484-83.0566L31.0059-83.0566C19.2383-83.0566 12.4512-76.3184 12.4512-64.5508L12.4512-5.81055C12.4512 5.9082 19.2383 12.6465 31.0059 12.6465ZM51.2695-15.2832C47.998-15.2832 46.3867-17.1387 46.3867-20.9473L46.3867-43.457L46.1914-43.457L43.7988-41.1133C42.5781-39.7461 41.6016-39.1113 39.9902-39.1113C37.793-39.1113 36.084-41.0156 36.084-43.1152C36.084-45.0195 36.8652-46.3867 38.7695-48.0957L43.75-52.4414C46.2402-54.7852 47.9004-55.3223 49.9512-55.3223C54.0039-55.3223 56.0547-52.9297 56.0547-48.877L56.0547-20.9473C56.0547-17.1387 54.4434-15.2832 51.2695-15.2832ZM78.0762-15.2832C74.8047-15.2832 73.2422-17.1387 73.2422-20.9473L73.2422-43.457L73.0469-43.457L70.6543-41.1133C69.3848-39.7461 68.457-39.1113 66.8457-39.1113C64.6484-39.1113 62.9395-41.0156 62.9395-43.1152C62.9395-45.0195 63.7207-46.3867 65.5762-48.0957L70.5566-52.4414C73.0469-54.7852 74.7559-55.3223 76.8066-55.3223C80.8105-55.3223 82.9102-52.9297 82.9102-48.877L82.9102-20.9473C82.9102-17.1387 81.2988-15.2832 78.0762-15.2832Z"/>
  </g>
  <g id="Bold-M" transform="matrix(1 0 0 1 2280.68 1126)">
   <path d="M29.8828 11.6699L88.7207 11.6699C99.9512 11.6699 106.152 5.46875 106.152-5.66406L106.152-64.6973C106.152-75.8789 99.9512-82.0312 88.7207-82.0312L29.8828-82.0312C18.6523-82.0312 12.4512-75.8789 12.4512-64.6973L12.4512-5.66406C12.4512 5.51758 18.6523 11.6699 29.8828 11.6699ZM49.7559-14.8926C46.9727-14.8926 45.459-16.5527 45.459-19.7266L45.459-45.2148L45.2637-45.2148L41.8457-42.334C40.625-41.1133 39.8438-40.6738 38.4766-40.6738C36.5723-40.6738 34.9609-42.3828 34.9609-44.3848C34.9609-46.0449 35.6934-47.2656 37.2559-48.6816L43.1641-53.3203C45.4102-55.2246 46.875-55.7617 48.7793-55.7617C52.1484-55.7617 53.9551-53.7109 53.9551-50.293L53.9551-19.7266C53.9551-16.5527 52.4902-14.8926 49.7559-14.8926ZM76.416-14.8926C73.6328-14.8926 72.168-16.5527 72.168-19.7266L72.168-45.2148L71.9238-45.2148L68.5059-42.334C67.334-41.1133 66.5039-40.6738 65.1855-40.6738C63.2812-40.6738 61.6211-42.3828 61.6211-44.3848C61.6211-46.0449 62.3535-47.2656 63.916-48.6816L69.8242-53.3203C72.0703-55.2246 73.5352-55.7617 75.4395-55.7617C78.8086-55.7617 80.6641-53.7109 80.6641-50.293L80.6641-19.7266C80.6641-16.5527 79.1992-14.8926 76.416-14.8926Z"/>
  </g>
  <g id="Semibold-M" transform="matrix(1 0 0 1 1984.65 1126)">
   <path d="M29.1016 10.9863L88.0859 10.9863C98.9746 10.9863 104.785 5.17578 104.785-5.56641L104.785-64.8438C104.785-75.5859 98.9746-81.3477 88.0859-81.3477L29.1016-81.3477C18.2617-81.3477 12.4512-75.5859 12.4512-64.8438L12.4512-5.56641C12.4512 5.22461 18.2617 10.9863 29.1016 10.9863ZM48.6816-14.5996C46.2402-14.5996 44.873-16.1621 44.873-18.8477L44.873-46.4844L44.5801-46.4844L40.4785-43.1641C39.3066-42.0898 38.623-41.7969 37.4512-41.7969C35.6934-41.7969 34.1309-43.3594 34.1309-45.2148C34.1309-46.7773 34.8633-47.8516 36.2305-49.0234L42.7734-53.9062C44.873-55.5664 46.1426-56.0547 47.9492-56.0547C50.8789-56.0547 52.5391-54.248 52.5391-51.2695L52.5391-18.8477C52.5391-16.1621 51.123-14.5996 48.6816-14.5996ZM75.293-14.5996C72.8027-14.5996 71.4355-16.1621 71.4355-18.8477L71.4355-46.4844L71.1914-46.4844L67.0898-43.1641C65.8691-42.0898 65.1855-41.7969 64.0625-41.7969C62.3047-41.7969 60.7422-43.3594 60.7422-45.2148C60.7422-46.7773 61.4258-47.8516 62.8418-49.0234L69.3359-53.9062C71.4355-55.5664 72.7051-56.0547 74.5117-56.0547C77.4414-56.0547 79.1504-54.248 79.1504-51.2695L79.1504-18.8477C79.1504-16.1621 77.7344-14.5996 75.293-14.5996Z"/>
  </g>
  <g id="Medium-M" transform="matrix(1 0 0 1 1688.47 1126)">
   <path d="M28.5156 10.4492L87.6465 10.4492C98.2422 10.4492 103.711 4.98047 103.711-5.46875L103.711-64.8926C103.711-75.3418 98.2422-80.8105 87.6465-80.8105L28.5156-80.8105C17.9688-80.8105 12.4512-75.3906 12.4512-64.8926L12.4512-5.46875C12.4512 4.98047 17.9688 10.4492 28.5156 10.4492ZM47.9004-14.4043C45.7031-14.4043 44.3848-15.8203 44.3848-18.2129L44.3848-47.4121L44.0918-47.4121L39.4531-43.7988C38.2812-42.8223 37.6953-42.627 36.6699-42.627C35.0098-42.627 33.5449-44.0918 33.5449-45.8984C33.5449-47.3145 34.2285-48.3398 35.4492-49.3164L42.4805-54.3457C44.4336-55.8105 45.6055-56.2988 47.3145-56.2988C49.9023-56.2988 51.4648-54.6387 51.4648-52.0508L51.4648-18.2129C51.4648-15.8203 50.1465-14.4043 47.9004-14.4043ZM74.4141-14.4043C72.168-14.4043 70.8496-15.8203 70.8496-18.2129L70.8496-47.4121L70.6055-47.4121L65.9668-43.7988C64.7949-42.8223 64.1602-42.627 63.1836-42.627C61.5723-42.627 60.0586-44.0918 60.0586-45.8984C60.0586-47.3145 60.6934-48.3398 61.9629-49.3164L68.9453-54.3457C70.8984-55.8105 72.0703-56.2988 73.8281-56.2988C76.416-56.2988 77.9785-54.6387 77.9785-52.0508L77.9785-18.2129C77.9785-15.8203 76.6602-14.4043 74.4141-14.4043Z"/>
  </g>
  <g id="Regular-M" transform="matrix(1 0 0 1 1392.45 1126)">
   <path d="M27.7832 9.76562L87.0117 9.76562C97.2656 9.76562 102.344 4.6875 102.344-5.37109L102.344-64.9902C102.344-75.0488 97.2656-80.127 87.0117-80.127L27.7832-80.127C17.5781-80.127 12.4512-75.0977 12.4512-64.9902L12.4512-5.37109C12.4512 4.73633 17.5781 9.76562 27.7832 9.76562ZM46.875-14.1602C45.0195-14.1602 43.75-15.4297 43.75-17.3828L43.75-48.6328L43.457-48.6328L38.1348-44.6289C36.9141-43.75 36.4746-43.7012 35.6445-43.7012C34.1797-43.7012 32.7637-45.0195 32.7637-46.7285C32.7637-48.0469 33.3984-48.9258 34.4238-49.707L42.0898-54.9316C43.8965-56.1523 44.873-56.6406 46.5332-56.6406C48.6328-56.6406 50.0488-55.127 50.0488-53.0273L50.0488-17.3828C50.0488-15.4297 48.7793-14.1602 46.875-14.1602ZM73.291-14.1602C71.3867-14.1602 70.1172-15.4297 70.1172-17.3828L70.1172-48.6328L69.873-48.6328L64.5508-44.6289C63.3789-43.75 62.8418-43.7012 62.0605-43.7012C60.5957-43.7012 59.1797-45.0195 59.1797-46.7285C59.1797-48.0469 59.7656-48.9258 60.8887-49.707L68.457-54.9316C70.2637-56.1523 71.2402-56.6406 72.9004-56.6406C75.0488-56.6406 76.4648-55.127 76.4648-53.0273L76.4648-17.3828C76.4648-15.4297 75.1953-14.1602 73.291-14.1602Z"/>
  </g>
  <g id="Light-M" transform="matrix(1 0 0 1 1096.47 1126)">
   <path d="M26.8555 9.0332L86.4746 9.0332C95.9961 9.0332 100.879 4.15039 100.879-5.22461L100.879-65.0879C100.879-74.5117 95.9961-79.3945 86.4746-79.3945L26.8555-79.3945C17.334-79.3945 12.4512-74.5605 12.4512-65.0879L12.4512-5.22461C12.4512 4.19922 17.334 9.0332 26.8555 9.0332ZM46.3867-14.5508C44.9219-14.5508 43.9453-15.5762 43.9453-17.0898L43.9453-49.7559L43.6523-49.7559L37.1094-45.1172C36.2305-44.5312 35.8887-44.4824 35.2539-44.4824C34.0332-44.4824 32.9102-45.5566 32.9102-46.9238C32.9102-47.9004 33.3984-48.6328 34.2773-49.2676L42.6758-54.8828C44.043-55.8105 44.8242-56.1523 46.0938-56.1523C47.7539-56.1523 48.9258-54.9805 48.9258-53.2715L48.9258-17.0898C48.9258-15.5762 47.9492-14.5508 46.3867-14.5508ZM72.2168-14.5508C70.7031-14.5508 69.7266-15.5762 69.7266-17.0898L69.7266-49.7559L69.4336-49.7559L62.8906-45.1172C62.0117-44.5312 61.6699-44.4824 61.0352-44.4824C59.8633-44.4824 58.7402-45.5566 58.7402-46.9238C58.7402-47.9004 59.1797-48.6328 60.0586-49.2676L68.457-54.8828C69.8242-55.8105 70.6055-56.1523 71.875-56.1523C73.584-56.1523 74.7559-54.9805 74.7559-53.2715L74.7559-17.0898C74.7559-15.5762 73.7793-14.5508 72.2168-14.5508Z"/>
  </g>
  <g id="Thin-M" transform="matrix(1 0 0 1 800.758 1126)">
   <path d="M25.6348 8.05664L85.7422 8.05664C94.3848 8.05664 98.877 3.4668 98.877-5.0293L98.877-65.2344C98.877-73.7305 94.3848-78.3691 85.7422-78.3691L25.6348-78.3691C16.9922-78.3691 12.4512-73.877 12.4512-65.2344L12.4512-5.0293C12.4512 3.56445 16.9922 8.05664 25.6348 8.05664ZM45.8008-15.0879C44.873-15.0879 44.1406-15.7227 44.1406-16.748L44.1406-51.3184L43.9453-51.3184L35.7422-45.8496C35.3027-45.5566 35.1074-45.5566 34.7168-45.5566C33.8379-45.5566 33.1543-46.2891 33.1543-47.1191C33.1543-47.7539 33.3984-48.2422 34.0332-48.6328L43.457-54.7852C44.2383-55.3223 44.7266-55.5176 45.5566-55.5176C46.6309-55.5176 47.4609-54.7852 47.4609-53.6621L47.4609-16.748C47.4609-15.7227 46.8262-15.0879 45.8008-15.0879ZM70.8008-15.0879C69.8242-15.0879 69.1406-15.7227 69.1406-16.748L69.1406-51.3184L68.9453-51.3184L60.7422-45.8496C60.3027-45.5566 60.0586-45.5566 59.7168-45.5566C58.8379-45.5566 58.1543-46.2891 58.1543-47.1191C58.1543-47.7539 58.3984-48.2422 59.0332-48.6328L68.457-54.7852C69.1895-55.3223 69.7266-55.5176 70.5566-55.5176C71.6309-55.5176 72.4609-54.7852 72.4609-53.6621L72.4609-16.748C72.4609-15.7227 71.8262-15.0879 70.8008-15.0879Z"/>
  </g>
  <g id="Ultralight-M" transform="matrix(1 0 0 1 504.535 1126)">
   <path d="M25 7.56836L85.3516 7.56836C93.5059 7.56836 97.9004 3.125 97.9004-4.98047L97.9004-65.2832C97.9004-73.3887 93.5059-77.832 85.3516-77.832L25-77.832C16.7969-77.832 12.4512-73.4863 12.4512-65.2832L12.4512-4.98047C12.4512 3.22266 16.7969 7.56836 25 7.56836ZM45.459-15.332C44.8242-15.332 44.2383-15.8203 44.2383-16.5527L44.2383-52.0996L44.0918-52.0996L35.0098-46.1914C34.8145-46.0938 34.668-46.0938 34.4238-46.0938C33.7891-46.0938 33.3008-46.6309 33.3008-47.2168C33.3008-47.6562 33.3984-47.998 33.8867-48.3398L43.8477-54.7852C44.3359-55.0781 44.6777-55.1758 45.2637-55.1758C46.0938-55.1758 46.6797-54.6875 46.6797-53.8574L46.6797-16.5527C46.6797-15.8203 46.2402-15.332 45.459-15.332ZM70.0684-15.332C69.3848-15.332 68.8477-15.8203 68.8477-16.5527L68.8477-52.0996L68.6523-52.0996L59.6191-46.1914C59.375-46.0938 59.2773-46.0938 59.0332-46.0938C58.3496-46.0938 57.8613-46.6309 57.8613-47.2168C57.8613-47.6562 58.0078-47.998 58.4961-48.3398L68.4082-54.7852C68.8965-55.0781 69.2871-55.1758 69.873-55.1758C70.6543-55.1758 71.2891-54.6875 71.2891-53.8574L71.2891-16.5527C71.2891-15.8203 70.8496-15.332 70.0684-15.332Z"/>
  </g>
  <g id="Black-S" transform="matrix(1 0 0 1 2885.5 696)">
   <path d="M25 2.92969L70.8008 2.92969C80.3711 2.92969 86.0352-2.73438 86.0352-12.3047L86.0352-58.1055C86.0352-67.6758 80.3711-73.3398 70.8008-73.3398L25-73.3398C15.4297-73.3398 9.76562-67.6758 9.76562-58.1055L9.76562-12.3047C9.76562-2.73438 15.4297 2.92969 25 2.92969ZM41.1133-19.8242C38.2324-19.8242 36.9141-21.4355 36.9141-24.8047L36.9141-40.5273L36.7676-40.5273L35.5469-39.0625C34.6191-37.8906 33.7402-37.2559 32.2754-37.2559C30.4199-37.2559 29.0039-38.8672 29.0039-40.625C29.0039-42.2363 29.6387-43.4082 31.2988-44.9707L34.6191-48.1934C36.7188-50.2441 38.1836-50.6836 39.8926-50.6836C43.5059-50.6836 45.2148-48.6328 45.2148-45.0195L45.2148-24.8047C45.2148-21.4355 43.8965-19.8242 41.1133-19.8242ZM62.207-19.8242C59.375-19.8242 58.0566-21.4355 58.0566-24.8047L58.0566-40.5273L57.9102-40.5273L56.6895-39.0625C55.7129-37.8906 54.8828-37.2559 53.418-37.2559C51.5625-37.2559 50.1465-38.8672 50.1465-40.625C50.1465-42.2363 50.7812-43.4082 52.3926-44.9707L55.7129-48.1934C57.8613-50.2441 59.3262-50.6836 61.0352-50.6836C64.5996-50.6836 66.3574-48.6328 66.3574-45.0195L66.3574-24.8047C66.3574-21.4355 65.0391-19.8242 62.207-19.8242Z"/>
  </g>
  <g id="Heavy-S" transform="matrix(1 0 0 1 2589.4 696)">
   <path d="M24.3652 2.34375L70.2637 2.34375C79.541 2.34375 84.8145-2.97852 84.8145-12.207L84.8145-58.2031C84.8145-67.4316 79.541-72.7539 70.2637-72.7539L24.3652-72.7539C15.0879-72.7539 9.76562-67.4316 9.76562-58.2031L9.76562-12.207C9.76562-2.97852 15.0879 2.34375 24.3652 2.34375ZM40.1367-19.5312C37.5488-19.5312 36.2793-20.9961 36.2793-24.0234L36.2793-41.6016L36.084-41.6016L34.3262-39.8438C33.3496-38.7695 32.5684-38.2324 31.2988-38.2324C29.5898-38.2324 28.1738-39.7461 28.1738-41.4551C28.1738-42.9688 28.8086-44.043 30.3223-45.4102L34.1797-48.7793C36.1328-50.6348 37.5-51.0254 39.1113-51.0254C42.334-51.0254 43.9453-49.1699 43.9453-45.9473L43.9453-24.0234C43.9453-20.9961 42.6758-19.5312 40.1367-19.5312ZM61.1816-19.5312C58.6426-19.5312 57.373-20.9961 57.373-24.0234L57.373-41.6016L57.2266-41.6016L55.4199-39.8438C54.4434-38.7695 53.7109-38.2324 52.3926-38.2324C50.6836-38.2324 49.3164-39.7461 49.3164-41.4551C49.3164-42.9688 49.9023-44.043 51.3672-45.4102L55.2246-48.7793C57.2266-50.6348 58.5938-51.0254 60.2051-51.0254C63.3789-51.0254 65.0391-49.1699 65.0391-45.9473L65.0391-24.0234C65.0391-20.9961 63.7695-19.5312 61.1816-19.5312Z"/>
  </g>
  <g id="Bold-S" transform="matrix(1 0 0 1 2293.35 696)">
   <path d="M23.6328 1.66016L69.6289 1.66016C78.6133 1.66016 83.4961-3.22266 83.4961-12.1094L83.4961-58.3008C83.4961-67.1875 78.6133-72.0703 69.6289-72.0703L23.6328-72.0703C14.6973-72.0703 9.76562-67.1875 9.76562-58.3008L9.76562-12.1094C9.76562-3.22266 14.6973 1.66016 23.6328 1.66016ZM39.0137-19.1895C36.7676-19.1895 35.5469-20.5566 35.5469-23.0957L35.5469-42.8223L35.3516-42.8223L32.959-40.6738C31.9336-39.6973 31.2988-39.3555 30.1758-39.3555C28.6133-39.3555 27.2949-40.7715 27.2949-42.3828C27.2949-43.7988 27.9297-44.7754 29.1992-45.8984L33.6426-49.4141C35.498-51.0254 36.6699-51.4648 38.2812-51.4648C41.0156-51.4648 42.4805-49.7559 42.4805-47.0215L42.4805-23.0957C42.4805-20.5566 41.2598-19.1895 39.0137-19.1895ZM60.0586-19.1895C57.8125-19.1895 56.5918-20.5566 56.5918-23.0957L56.5918-42.8223L56.3965-42.8223L54.0039-40.6738C52.9785-39.6973 52.3438-39.3555 51.2695-39.3555C49.707-39.3555 48.3398-40.7715 48.3398-42.3828C48.3398-43.7988 48.9746-44.7754 50.2441-45.8984L54.6875-49.4141C56.543-51.0254 57.7148-51.4648 59.3262-51.4648C62.0605-51.4648 63.5742-49.7559 63.5742-47.0215L63.5742-23.0957C63.5742-20.5566 62.3535-19.1895 60.0586-19.1895Z"/>
  </g>
  <g id="Semibold-S" transform="matrix(1 0 0 1 1997.1 696)">
   <path d="M23.0957 1.17188L69.1895 1.17188C77.9297 1.17188 82.5684-3.36914 82.5684-12.0117L82.5684-58.3984C82.5684-67.041 77.9297-71.582 69.1895-71.582L23.0957-71.582C14.4043-71.582 9.76562-67.041 9.76562-58.3984L9.76562-12.0117C9.76562-3.36914 14.4043 1.17188 23.0957 1.17188ZM38.2812-18.9453C36.2305-18.9453 35.0586-20.2148 35.0586-22.4609L35.0586-43.7012L34.8633-43.7012L32.0312-41.2598C30.957-40.3809 30.4199-40.1367 29.4434-40.1367C27.9785-40.1367 26.6602-41.4551 26.6602-43.0176C26.6602-44.3359 27.2949-45.2637 28.418-46.2402L33.3008-49.9023C35.0586-51.3184 36.1328-51.709 37.6953-51.709C40.0879-51.709 41.5039-50.1953 41.5039-47.7539L41.5039-22.4609C41.5039-20.2148 40.332-18.9453 38.2812-18.9453ZM59.2773-18.9453C57.2266-18.9453 56.1035-20.2148 56.1035-22.4609L56.1035-43.7012L55.8594-43.7012L53.0762-41.2598C52.002-40.3809 51.416-40.1367 50.4883-40.1367C49.0234-40.1367 47.7051-41.4551 47.7051-43.0176C47.7051-44.3359 48.291-45.2637 49.4629-46.2402L54.2969-49.9023C56.1035-51.3184 57.1777-51.709 58.6914-51.709C61.1328-51.709 62.5488-50.1953 62.5488-47.7539L62.5488-22.4609C62.5488-20.2148 61.377-18.9453 59.2773-18.9453Z"/>
  </g>
  <g id="Medium-S" transform="matrix(1 0 0 1 1700.75 696)">
   <path d="M22.7051 0.830078L68.8965 0.830078C77.4414 0.830078 81.8359-3.51562 81.8359-11.9629L81.8359-58.4473C81.8359-66.8945 77.4414-71.2402 68.8965-71.2402L22.7051-71.2402C14.209-71.2402 9.76562-66.8945 9.76562-58.4473L9.76562-11.9629C9.76562-3.51562 14.209 0.830078 22.7051 0.830078ZM37.6953-18.75C35.8398-18.75 34.7168-19.9707 34.7168-22.0215L34.7168-44.3359L34.4727-44.3359L31.2988-41.748C30.2246-40.8691 29.7363-40.7227 28.8574-40.7227C27.4902-40.7227 26.1719-41.9922 26.1719-43.5059C26.1719-44.7754 26.8066-45.6055 27.832-46.4844L33.0566-50.2441C34.7168-51.5137 35.7422-51.9531 37.2559-51.9531C39.4043-51.9531 40.7715-50.4883 40.7715-48.291L40.7715-22.0215C40.7715-19.9707 39.5996-18.75 37.6953-18.75ZM58.6914-18.75C56.7871-18.75 55.6641-19.9707 55.6641-22.0215L55.6641-44.3359L55.4688-44.3359L52.2949-41.748C51.2695-40.8691 50.7324-40.7227 49.9023-40.7227C48.4863-40.7227 47.2168-41.9922 47.2168-43.5059C47.2168-44.7754 47.8027-45.6055 48.8281-46.4844L54.0527-50.2441C55.7129-51.5137 56.7383-51.9531 58.2031-51.9531C60.4004-51.9531 61.7676-50.4883 61.7676-48.291L61.7676-22.0215C61.7676-19.9707 60.5957-18.75 58.6914-18.75Z"/>
  </g>
  <g id="Regular-S" transform="matrix(1 0 0 1 1404.51 696)">
   <path d="M22.2168 0.390625L68.457 0.390625C76.8066 0.390625 80.9082-3.71094 80.9082-11.9141L80.9082-58.4961C80.9082-66.6992 76.8066-70.8008 68.457-70.8008L22.2168-70.8008C13.916-70.8008 9.76562-66.6992 9.76562-58.4961L9.76562-11.9141C9.76562-3.71094 13.916 0.390625 22.2168 0.390625ZM36.9629-18.5059C35.3027-18.5059 34.2285-19.6289 34.2285-21.3867L34.2285-45.166L33.9844-45.166L30.3711-42.334C29.2969-41.5039 28.8574-41.5039 28.125-41.5039C26.8555-41.5039 25.5859-42.6758 25.5859-44.1895C25.5859-45.3613 26.1719-46.0938 27.0508-46.8262L32.7148-50.6836C34.2773-51.8066 35.2051-52.1973 36.6699-52.1973C38.4766-52.1973 39.7461-50.9277 39.7461-49.0234L39.7461-21.3867C39.7461-19.6289 38.623-18.5059 36.9629-18.5059ZM57.959-18.5059C56.25-18.5059 55.1758-19.6289 55.1758-21.3867L55.1758-45.166L54.9316-45.166L51.3672-42.334C50.293-41.5039 49.8047-41.5039 49.1211-41.5039C47.8516-41.5039 46.582-42.6758 46.582-44.1895C46.582-45.3613 47.1191-46.0938 48.0469-46.8262L53.6621-50.6836C55.2734-51.8066 56.1523-52.1973 57.6172-52.1973C59.4727-52.1973 60.7422-50.9277 60.7422-49.0234L60.7422-21.3867C60.7422-19.6289 59.6191-18.5059 57.959-18.5059Z"/>
  </g>
  <g id="Light-S" transform="matrix(1 0 0 1 1108.46 696)">
   <path d="M21.3867-0.292969L67.9688-0.292969C75.7324-0.292969 79.5898-4.15039 79.5898-11.7676L79.5898-58.5938C79.5898-66.2109 75.7324-70.1172 67.9688-70.1172L21.3867-70.1172C13.6719-70.1172 9.76562-66.2598 9.76562-58.5938L9.76562-11.7676C9.76562-4.15039 13.6719-0.292969 21.3867-0.292969ZM36.5234-18.8477C35.2539-18.8477 34.375-19.7754 34.375-21.1426L34.375-46.1914L34.1309-46.1914L29.4434-42.7734C28.6621-42.2363 28.3203-42.1875 27.7832-42.1875C26.709-42.1875 25.7324-43.1152 25.7324-44.3359C25.7324-45.2148 26.1719-45.8496 26.9043-46.3867L33.2031-50.6348C34.4238-51.4648 35.1562-51.8066 36.2793-51.8066C37.7441-51.8066 38.7695-50.7812 38.7695-49.2676L38.7695-21.1426C38.7695-19.7754 37.8906-18.8477 36.5234-18.8477ZM56.9824-18.8477C55.6641-18.8477 54.7852-19.7754 54.7852-21.1426L54.7852-46.1914L54.5898-46.1914L49.9023-42.7734C49.1211-42.2363 48.7793-42.1875 48.1934-42.1875C47.168-42.1875 46.1914-43.1152 46.1914-44.3359C46.1914-45.2148 46.582-45.8496 47.3633-46.3867L53.6621-50.6348C54.834-51.4648 55.5664-51.8066 56.6895-51.8066C58.2031-51.8066 59.2285-50.7812 59.2285-49.2676L59.2285-21.1426C59.2285-19.7754 58.3496-18.8477 56.9824-18.8477Z"/>
  </g>
  <g id="Thin-S" transform="matrix(1 0 0 1 812.599 696)">
   <path d="M20.3125-1.12305L67.334-1.12305C74.2676-1.12305 77.8809-4.78516 77.8809-11.6211L77.8809-58.6914C77.8809-65.5762 74.2676-69.2383 67.334-69.2383L20.3125-69.2383C13.3789-69.2383 9.76562-65.625 9.76562-58.6914L9.76562-11.6211C9.76562-4.6875 13.3789-1.12305 20.3125-1.12305ZM35.9863-19.3359C35.1562-19.3359 34.5215-19.9219 34.5215-20.8008L34.5215-47.5098L34.375-47.5098L28.2715-43.4082C27.832-43.1152 27.6367-43.1152 27.2949-43.1152C26.5625-43.1152 25.9277-43.75 25.9277-44.4824C25.9277-45.0684 26.1719-45.5078 26.709-45.8496L33.8867-50.5859C34.6191-51.0742 35.0586-51.2207 35.791-51.2207C36.7676-51.2207 37.4512-50.5859 37.4512-49.6094L37.4512-20.8008C37.4512-19.9219 36.9141-19.3359 35.9863-19.3359ZM55.7129-19.3359C54.8828-19.3359 54.2969-19.9219 54.2969-20.8008L54.2969-47.5098L54.1016-47.5098L47.998-43.4082C47.5586-43.1152 47.3633-43.1152 47.0215-43.1152C46.2891-43.1152 45.7031-43.75 45.7031-44.4824C45.7031-45.0684 45.8984-45.5078 46.4355-45.8496L53.6133-50.5859C54.3457-51.0742 54.7852-51.2207 55.5176-51.2207C56.4941-51.2207 57.1777-50.5859 57.1777-49.6094L57.1777-20.8008C57.1777-19.9219 56.6406-19.3359 55.7129-19.3359Z"/>
  </g>
  <g id="Ultralight-S" transform="matrix(1 0 0 1 516.352 696)">
   <path d="M19.7754-1.5625L66.9922-1.5625C73.5352-1.5625 76.9531-5.12695 76.9531-11.5234L76.9531-58.7891C76.9531-65.2344 73.5352-68.75 66.9922-68.75L19.7754-68.75C13.2324-68.75 9.76562-65.2832 9.76562-58.7891L9.76562-11.5234C9.76562-5.0293 13.2324-1.5625 19.7754-1.5625ZM35.6934-19.5801C35.1074-19.5801 34.668-20.0195 34.668-20.6543L34.668-48.2422L34.4727-48.2422L27.6367-43.75C27.3926-43.6035 27.2949-43.6035 27.0508-43.6035C26.4648-43.6035 26.0254-44.0918 26.0254-44.6289C26.0254-44.9707 26.1719-45.3125 26.6113-45.5566L34.2285-50.5371C34.7168-50.8301 35.0098-50.9277 35.5469-50.9277C36.2305-50.9277 36.7676-50.4883 36.7676-49.7559L36.7676-20.6543C36.7676-20.0195 36.377-19.5801 35.6934-19.5801ZM55.0781-19.5801C54.4922-19.5801 54.0039-20.0195 54.0039-20.6543L54.0039-48.2422L53.8574-48.2422L47.0215-43.75C46.7773-43.6035 46.6309-43.6035 46.4355-43.6035C45.8496-43.6035 45.4102-44.0918 45.4102-44.6289C45.4102-44.9707 45.5566-45.3125 45.9473-45.5566L53.6133-50.5371C54.0527-50.8301 54.3945-50.9277 54.9316-50.9277C55.6152-50.9277 56.1523-50.4883 56.1523-49.7559L56.1523-20.6543C56.1523-20.0195 55.7617-19.5801 55.0781-19.5801Z"/>
  </g>
 </g>
</svg>
