<?xml version="1.0" encoding="UTF-8"?>
<!--Generator: Apple Native CoreSVG 149-->
<!DOCTYPE svg
PUBLIC "-//W3C//DTD SVG 1.1//EN"
       "http://www.w3.org/Graphics/SVG/1.1/DTD/svg11.dtd">
<svg version="1.1" xmlns="http://www.w3.org/2000/svg" xmlns:xlink="http://www.w3.org/1999/xlink" width="3300" height="2200">
 <!--glyph: "uni100557.medium", point size: 100.000000, font version: "Version 16.0d18e1", template writer version: "8"-->
 <g id="Notes">
  <rect height="2200" id="artboard" style="fill:white;opacity:1" width="3300" x="0" y="0"/>
  <line id="" style="fill:none;stroke:black;opacity:1;stroke-width:0.5;" x1="263" x2="3036" y1="292" y2="292"/>
  <text style="stroke:none;fill:black;font-family:-apple-system,&quot;SF Pro Display&quot;,&quot;SF Pro Text&quot;,Helvetica,sans-serif;font-weight:bold;" transform="matrix(1 0 0 1 263 322)">Weight/Scale Variations</text>
  <text style="stroke:none;fill:black;font-family:-apple-system,&quot;SF Pro Display&quot;,&quot;SF Pro Text&quot;,Helvetica,sans-serif;text-anchor:middle;" transform="matrix(1 0 0 1 559.711 322)">Ultralight</text>
  <text style="stroke:none;fill:black;font-family:-apple-system,&quot;SF Pro Display&quot;,&quot;SF Pro Text&quot;,Helvetica,sans-serif;text-anchor:middle;" transform="matrix(1 0 0 1 856.422 322)">Thin</text>
  <text style="stroke:none;fill:black;font-family:-apple-system,&quot;SF Pro Display&quot;,&quot;SF Pro Text&quot;,Helvetica,sans-serif;text-anchor:middle;" transform="matrix(1 0 0 1 1153.13 322)">Light</text>
  <text style="stroke:none;fill:black;font-family:-apple-system,&quot;SF Pro Display&quot;,&quot;SF Pro Text&quot;,Helvetica,sans-serif;text-anchor:middle;" transform="matrix(1 0 0 1 1449.84 322)">Regular</text>
  <text style="stroke:none;fill:black;font-family:-apple-system,&quot;SF Pro Display&quot;,&quot;SF Pro Text&quot;,Helvetica,sans-serif;text-anchor:middle;" transform="matrix(1 0 0 1 1746.56 322)">Medium</text>
  <text style="stroke:none;fill:black;font-family:-apple-system,&quot;SF Pro Display&quot;,&quot;SF Pro Text&quot;,Helvetica,sans-serif;text-anchor:middle;" transform="matrix(1 0 0 1 2043.27 322)">Semibold</text>
  <text style="stroke:none;fill:black;font-family:-apple-system,&quot;SF Pro Display&quot;,&quot;SF Pro Text&quot;,Helvetica,sans-serif;text-anchor:middle;" transform="matrix(1 0 0 1 2339.98 322)">Bold</text>
  <text style="stroke:none;fill:black;font-family:-apple-system,&quot;SF Pro Display&quot;,&quot;SF Pro Text&quot;,Helvetica,sans-serif;text-anchor:middle;" transform="matrix(1 0 0 1 2636.69 322)">Heavy</text>
  <text style="stroke:none;fill:black;font-family:-apple-system,&quot;SF Pro Display&quot;,&quot;SF Pro Text&quot;,Helvetica,sans-serif;text-anchor:middle;" transform="matrix(1 0 0 1 2933.4 322)">Black</text>
  <line id="" style="fill:none;stroke:black;opacity:1;stroke-width:0.5;" x1="263" x2="3036" y1="1903" y2="1903"/>
  <g id="" transform="matrix(1 0 0 1 263 1933)">
   <path d="M9.24805 0.830078C13.5547 0.830078 17.1387-2.74414 17.1387-7.05078C17.1387-11.3574 13.5449-14.9316 9.23828-14.9316C4.94141-14.9316 1.36719-11.3574 1.36719-7.05078C1.36719-2.74414 4.95117 0.830078 9.24805 0.830078ZM9.24805-0.654297C5.70312-0.654297 2.87109-3.49609 2.87109-7.05078C2.87109-10.6055 5.69336-13.4473 9.23828-13.4473C12.793-13.4473 15.6348-10.6055 15.6445-7.05078C15.6543-3.49609 12.8027-0.654297 9.24805-0.654297ZM6.39648-6.31836L8.50586-6.31836L8.50586-4.19922C8.50586-3.75977 8.79883-3.45703 9.22852-3.45703C9.67773-3.45703 9.9707-3.75977 9.9707-4.19922L9.9707-6.31836L12.0996-6.31836C12.5391-6.31836 12.8418-6.61133 12.8418-7.04102C12.8418-7.48047 12.5391-7.7832 12.0996-7.7832L9.9707-7.7832L9.9707-9.89258C9.9707-10.3418 9.67773-10.6445 9.22852-10.6445C8.79883-10.6445 8.50586-10.3418 8.50586-9.89258L8.50586-7.7832L6.39648-7.7832C5.94727-7.7832 5.64453-7.48047 5.64453-7.04102C5.64453-6.61133 5.94727-6.31836 6.39648-6.31836Z"/>
  </g>
  <g id="" transform="matrix(1 0 0 1 281.506 1933)">
   <path d="M11.709 2.91016C17.1582 2.91016 21.6699-1.61133 21.6699-7.05078C21.6699-12.5 17.1484-17.0117 11.6992-17.0117C6.25977-17.0117 1.74805-12.5 1.74805-7.05078C1.74805-1.61133 6.26953 2.91016 11.709 2.91016ZM11.709 1.25C7.09961 1.25 3.41797-2.44141 3.41797-7.05078C3.41797-11.6602 7.08984-15.3516 11.6992-15.3516C16.3086-15.3516 20-11.6602 20.0098-7.05078C20.0195-2.44141 16.3184 1.25 11.709 1.25ZM7.98828-6.23047L10.8789-6.23047L10.8789-3.32031C10.8789-2.83203 11.2109-2.5 11.6895-2.5C12.1777-2.5 12.5195-2.83203 12.5195-3.32031L12.5195-6.23047L15.4297-6.23047C15.918-6.23047 16.25-6.5625 16.25-7.04102C16.25-7.5293 15.918-7.87109 15.4297-7.87109L12.5195-7.87109L12.5195-10.7617C12.5195-11.2695 12.1777-11.6016 11.6895-11.6016C11.2109-11.6016 10.8789-11.2598 10.8789-10.7617L10.8789-7.87109L7.98828-7.87109C7.48047-7.87109 7.14844-7.5293 7.14844-7.04102C7.14844-6.5625 7.49023-6.23047 7.98828-6.23047Z"/>
  </g>
  <g id="" transform="matrix(1 0 0 1 304.924 1933)">
   <path d="M14.9707 5.66406C21.9336 5.66406 27.6953-0.0976562 27.6953-7.05078C27.6953-14.0137 21.9238-19.7754 14.9609-19.7754C8.00781-19.7754 2.25586-14.0137 2.25586-7.05078C2.25586-0.0976562 8.01758 5.66406 14.9707 5.66406ZM14.9707 3.84766C8.93555 3.84766 4.08203-1.01562 4.08203-7.05078C4.08203-13.0957 8.92578-17.9492 14.9609-17.9492C21.0059-17.9492 25.8594-13.0957 25.8691-7.05078C25.8789-1.01562 21.0156 3.84766 14.9707 3.84766ZM10.0586-6.14258L14.0625-6.14258L14.0625-2.12891C14.0625-1.5918 14.4336-1.2207 14.9512-1.2207C15.4883-1.2207 15.8594-1.5918 15.8594-2.12891L15.8594-6.14258L19.8828-6.14258C20.4102-6.14258 20.791-6.51367 20.791-7.03125C20.791-7.56836 20.4199-7.94922 19.8828-7.94922L15.8594-7.94922L15.8594-11.9531C15.8594-12.5098 15.4883-12.8809 14.9512-12.8809C14.4336-12.8809 14.0625-12.5 14.0625-11.9531L14.0625-7.94922L10.0586-7.94922C9.50195-7.94922 9.13086-7.56836 9.13086-7.03125C9.13086-6.51367 9.51172-6.14258 10.0586-6.14258Z"/>
  </g>
  <text style="stroke:none;fill:black;font-family:-apple-system,&quot;SF Pro Display&quot;,&quot;SF Pro Text&quot;,Helvetica,sans-serif;font-weight:bold;" transform="matrix(1 0 0 1 263 1953)">Design Variations</text>
  <text style="stroke:none;fill:black;font-family:-apple-system,&quot;SF Pro Display&quot;,&quot;SF Pro Text&quot;,Helvetica,sans-serif;" transform="matrix(1 0 0 1 263 1971)">Symbols are supported in up to nine weights and three scales.</text>
  <text style="stroke:none;fill:black;font-family:-apple-system,&quot;SF Pro Display&quot;,&quot;SF Pro Text&quot;,Helvetica,sans-serif;" transform="matrix(1 0 0 1 263 1989)">For optimal layout with text and other symbols, vertically align</text>
  <text style="stroke:none;fill:black;font-family:-apple-system,&quot;SF Pro Display&quot;,&quot;SF Pro Text&quot;,Helvetica,sans-serif;" transform="matrix(1 0 0 1 263 2007)">symbols with the adjacent text.</text>
  <line id="" style="fill:none;stroke:#00AEEF;stroke-width:0.5;opacity:1.0;" x1="776" x2="776" y1="1919" y2="1933"/>
  <g id="" transform="matrix(1 0 0 1 776 1933)">
   <path d="M3.31055 0.126953C3.82812 0.126953 4.08203-0.0683594 4.26758-0.605469L5.52734-4.0625L11.2891-4.0625L12.5488-0.605469C12.7344-0.0683594 12.9883 0.126953 13.4961 0.126953C14.0137 0.126953 14.3457-0.185547 14.3457-0.673828C14.3457-0.839844 14.3164-0.986328 14.2383-1.20117L9.6582-13.3887C9.43359-13.9941 9.0332-14.2871 8.4082-14.2871C7.80273-14.2871 7.39258-13.9941 7.17773-13.3984L2.59766-1.19141C2.51953-0.976562 2.49023-0.830078 2.49023-0.664062C2.49023-0.175781 2.80273 0.126953 3.31055 0.126953ZM6.00586-5.53711L8.37891-12.1094L8.42773-12.1094L10.8008-5.53711Z"/>
  </g>
  <line id="" style="fill:none;stroke:#00AEEF;stroke-width:0.5;opacity:1.0;" x1="792.836" x2="792.836" y1="1919" y2="1933"/>
  <text style="stroke:none;fill:black;font-family:-apple-system,&quot;SF Pro Display&quot;,&quot;SF Pro Text&quot;,Helvetica,sans-serif;font-weight:bold;" transform="matrix(1 0 0 1 776 1953)">Margins</text>
  <text style="stroke:none;fill:black;font-family:-apple-system,&quot;SF Pro Display&quot;,&quot;SF Pro Text&quot;,Helvetica,sans-serif;" transform="matrix(1 0 0 1 776 1971)">Leading and trailing margins on the left and right side of each symbol</text>
  <text style="stroke:none;fill:black;font-family:-apple-system,&quot;SF Pro Display&quot;,&quot;SF Pro Text&quot;,Helvetica,sans-serif;" transform="matrix(1 0 0 1 776 1989)">can be adjusted by modifying the x-location of the margin guidelines.</text>
  <text style="stroke:none;fill:black;font-family:-apple-system,&quot;SF Pro Display&quot;,&quot;SF Pro Text&quot;,Helvetica,sans-serif;" transform="matrix(1 0 0 1 776 2007)">Modifications are automatically applied proportionally to all</text>
  <text style="stroke:none;fill:black;font-family:-apple-system,&quot;SF Pro Display&quot;,&quot;SF Pro Text&quot;,Helvetica,sans-serif;" transform="matrix(1 0 0 1 776 2025)">scales and weights.</text>
  <g id="" transform="matrix(1 0 0 1 1289 1933)">
   <path d="M2.8418 1.86523L4.54102 3.57422C5.40039 4.44336 6.38672 4.38477 7.31445 3.35938L17.4902-7.85156C17.7539-7.76367 18.0273-7.7832 18.3398-7.8418L19.4043-8.03711L20.0684-7.36328L20.0293-6.80664C19.9902-6.30859 20.1172-5.92773 20.6055-5.44922L21.3672-4.70703C21.8457-4.22852 22.4609-4.19922 22.9297-4.66797L25.8398-7.58789C26.3086-8.05664 26.2891-8.65234 25.8105-9.13086L25.0391-9.89258C24.5605-10.3711 24.1895-10.5273 23.7109-10.4883L23.1348-10.4395L22.4902-11.0742L22.7344-12.1973C22.8613-12.7637 22.7051-13.2031 22.1191-13.7891L19.9219-15.9766C16.582-19.2969 12.1484-19.2188 9.25781-16.3281C8.83789-15.918 8.80859-15.3418 9.04297-14.9512C9.27734-14.5898 9.73633-14.3555 10.3809-14.5215C11.8457-14.8633 13.3691-14.9219 14.7949-13.9844L14.209-12.5293C14.0137-12.0508 13.9844-11.6504 14.1113-11.2891L3.04688-0.898438C2.06055 0.0195312 1.98242 0.996094 2.8418 1.86523ZM10.752-15.957C13.1836-17.7344 16.4746-17.4316 18.7012-15.2051L21.1328-12.793C21.3672-12.5586 21.4062-12.373 21.3379-12.0312L21.0156-10.5469L22.5195-9.0625L23.5059-9.12109C23.7598-9.13086 23.8379-9.11133 24.0332-8.91602L24.6094-8.33984L22.168-5.89844L21.5918-6.47461C21.3965-6.66992 21.3672-6.74805 21.377-7.01172L21.4453-7.98828L19.9512-9.47266L18.4277-9.21875C18.1055-9.15039 17.959-9.17969 17.7148-9.41406L15.7129-11.416C15.459-11.6504 15.4297-11.8164 15.5859-12.1875L16.4648-14.2773C14.9023-15.7324 12.8711-16.3574 10.8398-15.7617C10.6836-15.7227 10.625-15.8496 10.752-15.957ZM5.27344 2.30469L4.10156 1.14258C3.63281 0.683594 3.74023 0.341797 4.14062-0.0195312L14.9512-10.1953L16.416-8.71094L6.42578 2.27539C6.07422 2.67578 5.74219 2.77344 5.27344 2.30469Z"/>
  </g>
  <text style="stroke:none;fill:black;font-family:-apple-system,&quot;SF Pro Display&quot;,&quot;SF Pro Text&quot;,Helvetica,sans-serif;font-weight:bold;" transform="matrix(1 0 0 1 1289 1953)">Exporting</text>
  <text style="stroke:none;fill:black;font-family:-apple-system,&quot;SF Pro Display&quot;,&quot;SF Pro Text&quot;,Helvetica,sans-serif;" transform="matrix(1 0 0 1 1289 1971)">Symbols should be outlined when exporting to ensure the</text>
  <text style="stroke:none;fill:black;font-family:-apple-system,&quot;SF Pro Display&quot;,&quot;SF Pro Text&quot;,Helvetica,sans-serif;" transform="matrix(1 0 0 1 1289 1989)">design is preserved when submitting to Xcode.</text>
  <text id="template-version" style="stroke:none;fill:black;font-family:-apple-system,&quot;SF Pro Display&quot;,&quot;SF Pro Text&quot;,Helvetica,sans-serif;text-anchor:end;" transform="matrix(1 0 0 1 3036 1933)">Template v.2.0</text>
  <text style="stroke:none;fill:black;font-family:-apple-system,&quot;SF Pro Display&quot;,&quot;SF Pro Text&quot;,Helvetica,sans-serif;text-anchor:end;" transform="matrix(1 0 0 1 3036 1951)">Requires Xcode 12 or greater</text>
  <text style="stroke:none;fill:black;font-family:-apple-system,&quot;SF Pro Display&quot;,&quot;SF Pro Text&quot;,Helvetica,sans-serif;text-anchor:end;" transform="matrix(1 0 0 1 3036 1969)">Generated from 15.square.fill</text>
  <text style="stroke:none;fill:black;font-family:-apple-system,&quot;SF Pro Display&quot;,&quot;SF Pro Text&quot;,Helvetica,sans-serif;text-anchor:end;" transform="matrix(1 0 0 1 3036 1987)">Typeset at 100 points</text>
  <text style="stroke:none;fill:black;font-family:-apple-system,&quot;SF Pro Display&quot;,&quot;SF Pro Text&quot;,Helvetica,sans-serif;" transform="matrix(1 0 0 1 263 726)">Small</text>
  <text style="stroke:none;fill:black;font-family:-apple-system,&quot;SF Pro Display&quot;,&quot;SF Pro Text&quot;,Helvetica,sans-serif;" transform="matrix(1 0 0 1 263 1156)">Medium</text>
  <text style="stroke:none;fill:black;font-family:-apple-system,&quot;SF Pro Display&quot;,&quot;SF Pro Text&quot;,Helvetica,sans-serif;" transform="matrix(1 0 0 1 263 1586)">Large</text>
 </g>
 <g id="Guides">
  <g id="H-reference" style="fill:#27AAE1;stroke:none;" transform="matrix(1 0 0 1 339 696)">
   <path d="M0.976562 0L3.66211 0L12.9883-24.4629L45.752-24.4629L55.127 0L57.7637 0L30.6152-70.459L28.125-70.459ZM29.3457-67.1387L29.4434-67.1387L44.873-26.709L13.8672-26.709Z"/>
  </g>
  <line id="Baseline-S" style="fill:none;stroke:#27AAE1;opacity:1;stroke-width:0.5;" x1="263" x2="3036" y1="696" y2="696"/>
  <line id="Capline-S" style="fill:none;stroke:#27AAE1;opacity:1;stroke-width:0.5;" x1="263" x2="3036" y1="625.541" y2="625.541"/>
  <g id="H-reference" style="fill:#27AAE1;stroke:none;" transform="matrix(1 0 0 1 339 1126)">
   <path d="M0.976562 0L3.66211 0L12.9883-24.4629L45.752-24.4629L55.127 0L57.7637 0L30.6152-70.459L28.125-70.459ZM29.3457-67.1387L29.4434-67.1387L44.873-26.709L13.8672-26.709Z"/>
  </g>
  <line id="Baseline-M" style="fill:none;stroke:#27AAE1;opacity:1;stroke-width:0.5;" x1="263" x2="3036" y1="1126" y2="1126"/>
  <line id="Capline-M" style="fill:none;stroke:#27AAE1;opacity:1;stroke-width:0.5;" x1="263" x2="3036" y1="1055.54" y2="1055.54"/>
  <g id="H-reference" style="fill:#27AAE1;stroke:none;" transform="matrix(1 0 0 1 339 1556)">
   <path d="M0.976562 0L3.66211 0L12.9883-24.4629L45.752-24.4629L55.127 0L57.7637 0L30.6152-70.459L28.125-70.459ZM29.3457-67.1387L29.4434-67.1387L44.873-26.709L13.8672-26.709Z"/>
  </g>
  <line id="Baseline-L" style="fill:none;stroke:#27AAE1;opacity:1;stroke-width:0.5;" x1="263" x2="3036" y1="1556" y2="1556"/>
  <line id="Capline-L" style="fill:none;stroke:#27AAE1;opacity:1;stroke-width:0.5;" x1="263" x2="3036" y1="1485.54" y2="1485.54"/>
  <line id="left-margin" style="fill:none;stroke:#00AEEF;stroke-width:0.5;opacity:1.0;" x1="1392.45" x2="1392.45" y1="1030.79" y2="1150.12"/>
  <line id="right-margin" style="fill:none;stroke:#00AEEF;stroke-width:0.5;opacity:1.0;" x1="1507.24" x2="1507.24" y1="1030.79" y2="1150.12"/>
 </g>
 <g id="Symbols">
  <g id="Black-L" transform="matrix(1 0 0 1 2855.62 1556)">
   <path d="M39.9902 26.5137L115.576 26.5137C130.811 26.5137 139.502 17.8711 139.502 2.68555L139.502-73.0957C139.502-88.2812 130.811-96.875 115.576-96.875L39.9902-96.875C24.7559-96.875 16.0645-88.2812 16.0645-73.0957L16.0645 2.68555C16.0645 17.8711 24.7559 26.5137 39.9902 26.5137ZM62.207-9.22852C58.0078-9.22852 55.9082-11.7188 55.9082-16.5527L55.9082-45.9473L55.6152-45.9473L52.6367-43.0176C51.0254-41.2109 49.8047-40.4297 47.6562-40.4297C44.8242-40.4297 42.5293-42.8711 42.5293-45.7031C42.5293-48.1934 43.5547-49.9512 45.9961-52.1484L52.4414-57.7148C55.7129-60.6934 57.8613-61.4258 60.5957-61.4258C65.8203-61.4258 68.457-58.3496 68.457-53.125L68.457-16.5527C68.457-11.7188 66.3086-9.22852 62.207-9.22852ZM94.6777-8.98438C86.9629-8.98438 81.4941-13.2812 79.7363-17.0898C79.1504-18.4082 79.0039-19.5312 79.0039-20.7031C79.0039-23.9258 81.3965-26.2695 84.3262-26.2695C86.9629-26.2695 88.0371-24.6582 89.2578-23.4375C90.8691-21.7285 92.5293-20.0195 95.4102-20.0195C98.9746-20.0195 101.416-22.7539 101.416-26.8555C101.416-30.3223 99.0723-33.1543 95.9473-33.1543C93.9941-33.1543 92.8223-32.5684 91.0645-31.2988C89.5508-30.1758 87.9883-29.3945 85.0098-29.3945C81.25-29.3945 78.7598-32.0312 78.9062-36.1816L79.9316-53.0762C80.1758-57.7148 82.5195-60.4492 86.7188-60.4492L105.957-60.4492C109.473-60.4492 111.475-58.5449 111.475-55.0781C111.475-51.6113 109.375-49.6094 105.957-49.6094L90.4785-49.6094L89.6484-38.4277L89.8438-38.4277C91.6992-41.2109 95.3125-42.9199 99.0723-42.9199C106.738-42.9199 113.184-37.1582 113.184-27.3926C113.184-16.1133 106.299-8.98438 94.6777-8.98438Z"/>
  </g>
  <g id="Heavy-L" transform="matrix(1 0 0 1 2559.93 1556)">
   <path d="M38.8184 25.4883L114.697 25.4883C129.346 25.4883 137.451 17.4316 137.451 2.88086L137.451-73.2422C137.451-87.793 129.346-95.8496 114.697-95.8496L38.8184-95.8496C24.2188-95.8496 16.0645-87.793 16.0645-73.2422L16.0645 2.88086C16.0645 17.4316 24.2188 25.4883 38.8184 25.4883ZM60.6934-9.0332C56.9824-9.0332 55.0293-11.2305 55.0293-15.4785L55.0293-47.7051L54.7363-47.7051L50.5859-44.1406C49.0723-42.5293 47.998-41.9434 46.1914-41.9434C43.6035-41.9434 41.5039-44.1895 41.5039-46.7773C41.5039-49.0234 42.4316-50.5859 44.5801-52.4414L51.9531-58.3984C54.9316-60.9863 56.8359-61.6699 59.375-61.6699C63.916-61.6699 66.3086-58.9355 66.3086-54.3945L66.3086-15.4785C66.3086-11.2305 64.3555-9.0332 60.6934-9.0332ZM93.457-8.69141C85.6445-8.69141 79.9805-12.9883 78.1738-17.1875C77.6367-18.3594 77.5391-19.4336 77.5391-20.5566C77.5391-23.4375 79.6387-25.5859 82.3242-25.5859C84.668-25.5859 85.7422-24.1699 86.8652-22.8027C88.5254-20.5566 90.7715-18.6035 94.0918-18.6035C98.3887-18.6035 101.367-21.7773 101.367-26.5625C101.367-30.7129 98.584-33.9844 94.7266-33.9844C92.4805-33.9844 91.0156-33.3008 88.9648-31.6895C87.4023-30.4688 85.9863-29.7363 83.3008-29.7363C79.7852-29.7363 77.4902-32.2266 77.6855-36.1328L78.8574-53.9551C79.0527-58.252 81.3477-60.7422 85.2539-60.7422L105.322-60.7422C108.398-60.7422 110.156-58.9844 110.156-55.9082C110.156-52.7832 108.252-50.9277 105.322-50.9277L88.3301-50.9277L87.3535-38.2324L87.5488-38.2324C89.502-41.1133 93.3594-42.9199 97.2656-42.9199C105.469-42.9199 112.012-36.8164 112.012-27.002C112.012-15.7715 104.98-8.69141 93.457-8.69141Z"/>
  </g>
  <g id="Bold-L" transform="matrix(1 0 0 1 2264.37 1556)">
   <path d="M37.5 24.3652L113.721 24.3652C127.637 24.3652 135.156 16.8945 135.156 3.07617L135.156-73.3887C135.156-87.207 127.637-94.7266 113.721-94.7266L37.5-94.7266C23.6328-94.7266 16.0645-87.2559 16.0645-73.3887L16.0645 3.07617C16.0645 16.8945 23.6328 24.3652 37.5 24.3652ZM58.9844-8.78906C55.8594-8.78906 54.1016-10.7422 54.1016-14.2578L54.1016-49.707L53.7598-49.707L48.3398-45.4102C46.9238-44.043 45.9961-43.6035 44.5312-43.6035C42.2852-43.6035 40.332-45.6055 40.332-47.9492C40.332-49.9023 41.1621-51.3184 43.0176-52.832L51.4648-59.1309C54.1016-61.3281 55.7129-61.9629 57.959-61.9629C61.7676-61.9629 63.916-59.5703 63.916-55.7617L63.916-14.2578C63.916-10.7422 62.1582-8.78906 58.9844-8.78906ZM92.0898-8.30078C84.1309-8.30078 78.2715-12.6465 76.4648-17.2852C75.9766-18.3105 75.8301-19.3359 75.8301-20.4102C75.8301-22.9492 77.6855-24.8047 80.127-24.8047C82.1289-24.8047 83.2031-23.584 84.2285-22.1191C85.8887-19.2383 88.7695-17.0898 92.627-17.0898C97.7539-17.0898 101.27-20.7031 101.27-26.2207C101.27-31.1523 97.998-34.9609 93.3594-34.9609C90.7715-34.9609 88.9648-34.082 86.6211-32.0801C85.0098-30.7617 83.6914-30.1758 81.3477-30.1758C78.1738-30.1758 76.123-32.4219 76.2695-35.9863L77.6367-54.9805C77.832-58.7891 79.9805-61.084 83.5938-61.084L104.59-61.084C107.178-61.084 108.74-59.4727 108.74-56.8359C108.74-54.1504 107.08-52.4414 104.59-52.4414L85.8887-52.4414L84.8145-38.0371L85.0098-38.0371C87.0117-41.0156 91.1621-42.9199 95.2637-42.9199C104.053-42.9199 110.693-36.4258 110.693-26.5625C110.693-15.3809 103.467-8.30078 92.0898-8.30078Z"/>
  </g>
  <g id="Semibold-L" transform="matrix(1 0 0 1 1968.44 1556)">
   <path d="M36.6211 23.584L113.037 23.584C126.514 23.584 133.594 16.5039 133.594 3.17383L133.594-73.5352C133.594-86.8164 126.514-93.9453 113.037-93.9453L36.6211-93.9453C23.1934-93.9453 16.0645-86.8652 16.0645-73.5352L16.0645 3.17383C16.0645 16.5527 23.1934 23.584 36.6211 23.584ZM57.8613-8.64258C55.0781-8.64258 53.418-10.4004 53.418-13.4277L53.418-51.0742L53.0762-51.0742L46.7773-46.2891C45.4102-45.0684 44.6289-44.7754 43.3594-44.7754C41.3574-44.7754 39.5508-46.582 39.5508-48.7793C39.5508-50.5371 40.2832-51.8066 41.8945-53.0762L51.0742-59.668C53.4668-61.5234 54.8828-62.1582 57.0312-62.1582C60.3027-62.1582 62.2559-60.0098 62.2559-56.7383L62.2559-13.4277C62.2559-10.4004 60.6445-8.64258 57.8613-8.64258ZM91.1621-8.05664C83.1055-8.05664 77.0996-12.4023 75.2441-17.334C74.8535-18.3105 74.707-19.2383 74.707-20.2637C74.707-22.6074 76.3184-24.3164 78.5645-24.3164C80.3223-24.3164 81.4453-23.1934 82.373-21.6309C84.082-18.3105 87.4023-16.0156 91.6504-16.0156C97.3145-16.0156 101.221-19.9219 101.221-26.0254C101.221-31.4453 97.5586-35.5957 92.4316-35.5957C89.5996-35.5957 87.5977-34.668 85.0586-32.373C83.3496-31.0059 82.1289-30.4688 79.9805-30.4688C77.002-30.4688 75.1465-32.5684 75.3418-35.9375L76.8066-55.6641C77.002-59.1797 79.0527-61.2793 82.4219-61.2793L104.053-61.2793C106.299-61.2793 107.715-59.7656 107.715-57.4219C107.715-55.0781 106.25-53.5156 104.053-53.5156L84.2285-53.5156L83.0566-37.8906L83.252-37.8906C85.3027-40.918 89.6484-42.9199 93.8965-42.9199C103.076-42.9199 109.766-36.1328 109.766-26.2695C109.766-15.0879 102.49-8.05664 91.1621-8.05664Z"/>
  </g>
  <g id="Medium-L" transform="matrix(1 0 0 1 1672.31 1556)">
   <path d="M35.9375 22.998L112.5 22.998C125.635 22.998 132.422 16.2109 132.422 3.27148L132.422-73.6328C132.422-86.5234 125.635-93.3105 112.5-93.3105L35.9375-93.3105C22.9004-93.3105 16.0645-86.5723 16.0645-73.6328L16.0645 3.27148C16.0645 16.2598 22.9004 22.998 35.9375 22.998ZM56.9824-8.49609C54.4922-8.49609 52.9297-10.1074 52.9297-12.793L52.9297-52.0996L52.5879-52.0996L45.6055-46.9238C44.2871-45.8496 43.6035-45.6543 42.5293-45.6543C40.625-45.6543 38.916-47.3633 38.916-49.4141C38.916-51.0254 39.6484-52.1973 41.0645-53.2715L50.8301-60.0586C53.0273-61.7188 54.2969-62.3047 56.2988-62.3047C59.1797-62.3047 61.0352-60.3516 61.0352-57.4707L61.0352-12.793C61.0352-10.1074 59.4727-8.49609 56.9824-8.49609ZM90.4297-7.91016C82.3242-7.91016 76.2207-12.207 74.3652-17.4316C73.9746-18.3105 73.8281-19.1895 73.8281-20.166C73.8281-22.3145 75.293-23.877 77.3926-23.877C79.0039-23.877 80.0781-22.9004 81.0059-21.2891C82.7148-17.627 86.377-15.2344 90.8691-15.2344C96.9727-15.2344 101.172-19.3359 101.172-25.8301C101.172-31.6895 97.2656-36.084 91.6992-36.084C88.7207-36.084 86.5234-35.0586 83.8379-32.6172C82.1289-31.1523 80.957-30.6641 79.0039-30.6641C76.1719-30.6641 74.4141-32.7148 74.6094-35.8887L76.1719-56.2012C76.3672-59.4727 78.3691-61.4746 81.5918-61.4746L103.662-61.4746C105.664-61.4746 106.982-60.0586 106.982-57.9102C106.982-55.7617 105.615-54.2969 103.662-54.2969L82.959-54.2969L81.6895-37.793L81.9336-37.793C84.0332-40.8203 88.5254-42.9199 92.8223-42.9199C102.344-42.9199 109.082-35.9375 109.082-26.0742C109.082-14.8926 101.709-7.91016 90.4297-7.91016Z"/>
  </g>
  <g id="Regular-L" transform="matrix(1 0 0 1 1376.38 1556)">
   <path d="M35.0586 22.2168L111.816 22.2168C124.463 22.2168 130.859 15.8691 130.859 3.41797L130.859-73.7305C130.859-86.1816 124.463-92.5293 111.816-92.5293L35.0586-92.5293C22.4609-92.5293 16.0645-86.2305 16.0645-73.7305L16.0645 3.41797C16.0645 15.918 22.4609 22.2168 35.0586 22.2168ZM55.8105-8.34961C53.7109-8.34961 52.2949-9.76562 52.2949-11.9629L52.2949-53.4668L51.9531-53.4668L44.043-47.8027C42.7734-46.875 42.2363-46.8262 41.3574-46.8262C39.6973-46.8262 38.1348-48.3398 38.1348-50.1953C38.1348-51.6602 38.7695-52.6855 39.9902-53.5645L50.4883-60.5957C52.4414-61.9141 53.5156-62.5 55.3711-62.5C57.7637-62.5 59.375-60.791 59.375-58.3984L59.375-11.9629C59.375-9.76562 58.0078-8.34961 55.8105-8.34961ZM89.502-7.66602C81.2988-7.66602 75.0977-12.0117 73.1445-17.4805C72.8516-18.2617 72.6562-19.1406 72.6562-20.0684C72.6562-21.9727 73.9258-23.3887 75.8789-23.3887C77.2461-23.3887 78.3203-22.5098 79.1504-20.8008C80.957-16.748 85.0586-14.1602 89.8926-14.1602C96.4844-14.1602 101.123-18.6035 101.123-25.6348C101.123-31.9824 96.875-36.7188 90.7715-36.7188C87.5488-36.7188 85.1562-35.6445 82.2266-32.8613C80.4688-31.3965 79.3945-30.957 77.6855-30.957C75.0488-30.957 73.4863-32.8613 73.6328-35.791L75.3418-56.8848C75.4883-59.8633 77.4414-61.7188 80.4199-61.7188L103.174-61.7188C104.834-61.7188 106.006-60.3516 106.006-58.5449C106.006-56.6406 104.785-55.3223 103.174-55.3223L81.2988-55.3223L79.9316-37.6465L80.1758-37.6465C82.3242-40.7715 87.0117-42.9199 91.4551-42.9199C101.416-42.9199 108.154-35.6445 108.154-25.7324C108.154-14.6484 100.684-7.66602 89.502-7.66602Z"/>
  </g>
  <g id="Light-L" transform="matrix(1 0 0 1 1080.5 1556)">
   <path d="M34.0332 21.4355L111.23 21.4355C123.096 21.4355 129.199 15.2344 129.199 3.56445L129.199-73.8281C129.199-85.5469 123.096-91.6992 111.23-91.6992L34.0332-91.6992C22.168-91.6992 16.0645-85.6445 16.0645-73.8281L16.0645 3.56445C16.0645 15.3809 22.168 21.4355 34.0332 21.4355ZM54.834-8.78906C53.1738-8.78906 52.0508-9.91211 52.0508-11.6699L52.0508-54.7363L51.709-54.7363L42.4805-48.3887C41.5527-47.7051 41.1621-47.7051 40.4785-47.7051C39.1113-47.7051 37.8906-48.9258 37.8906-50.3906C37.8906-51.5137 38.3301-52.3438 39.3555-53.0273L50.6836-60.5469C52.1973-61.5234 53.0273-61.9141 54.4922-61.9141C56.3477-61.9141 57.7148-60.6445 57.7148-58.6914L57.7148-11.6699C57.7148-9.91211 56.5918-8.78906 54.834-8.78906ZM88.2324-8.20312C80.0293-8.20312 74.0723-12.6465 72.168-18.2617C71.875-18.8965 71.7285-19.5801 71.7285-20.3125C71.7285-21.875 72.8027-22.9492 74.3164-22.9492C75.5371-22.9492 76.3672-22.168 77.002-20.752C78.6133-16.4062 83.2031-13.4766 88.623-13.4766C95.7031-13.4766 100.781-18.4082 100.781-25.7812C100.781-32.666 96.0449-37.7441 89.3066-37.7441C85.6445-37.7441 82.7637-36.4258 79.4922-33.0566C78.1738-31.9336 77.3438-31.543 75.9277-31.543C73.877-31.543 72.5586-33.0078 72.7051-35.3516L74.5117-57.5684C74.6582-59.9609 76.1719-61.4258 78.5156-61.4258L101.758-61.4258C103.125-61.4258 104.15-60.3516 104.15-58.8867C104.15-57.373 103.076-56.2988 101.758-56.2988L79.3945-56.2988L77.8809-37.1582L78.0762-37.1582C80.5176-40.5762 85.2539-42.7734 89.8438-42.7734C99.6094-42.7734 106.396-35.5957 106.396-25.8789C106.396-15.1367 99.0723-8.20312 88.2324-8.20312Z"/>
  </g>
  <g id="Thin-L" transform="matrix(1 0 0 1 784.889 1556)">
   <path d="M32.666 20.3613L110.352 20.3613C121.24 20.3613 127.002 14.4531 127.002 3.75977L127.002-73.9746C127.002-84.7168 121.24-90.5762 110.352-90.5762L32.666-90.5762C21.7773-90.5762 16.0645-84.8633 16.0645-73.9746L16.0645 3.75977C16.0645 14.6484 21.7773 20.3613 32.666 20.3613ZM53.5645-9.375C52.5391-9.375 51.709-10.1074 51.709-11.2305L51.709-56.4453L51.4648-56.4453L40.3809-49.1211C39.9414-48.877 39.6973-48.877 39.3066-48.877C38.3301-48.877 37.5488-49.707 37.5488-50.6348C37.5488-51.3184 37.793-51.8555 38.5254-52.3438L50.9766-60.4492C51.8066-60.9863 52.3438-61.1816 53.3203-61.1816C54.541-61.1816 55.4199-60.4004 55.4199-59.1309L55.4199-11.2305C55.4199-10.1074 54.7852-9.375 53.5645-9.375ZM86.5723-8.93555C78.3203-8.93555 72.7539-13.4766 70.8008-19.2383C70.6055-19.7754 70.5078-20.166 70.5078-20.6055C70.5078-21.7285 71.3379-22.4121 72.2656-22.4121C73.2422-22.4121 73.7793-21.7285 74.1211-20.7031C75.5371-15.918 80.7617-12.5977 86.9629-12.5977C94.6289-12.5977 100.342-18.2129 100.342-25.9766C100.342-33.5938 94.9219-39.1113 87.3535-39.1113C83.1055-39.1113 79.5898-37.5 75.8301-33.3496C75.0977-32.6172 74.5605-32.3242 73.6328-32.3242C72.3145-32.3242 71.3867-33.252 71.4844-34.7656L73.3887-58.4961C73.4863-60.1074 74.4629-61.084 76.0254-61.084L99.9023-61.084C100.879-61.084 101.66-60.3516 101.66-59.375C101.66-58.3496 100.879-57.6172 99.9023-57.6172L76.8555-57.6172L75.1953-36.5723L75.293-36.5723C78.0762-40.332 82.9102-42.5781 87.7441-42.5781C97.2656-42.5781 104.053-35.5469 104.053-26.0742C104.053-15.7715 96.9238-8.93555 86.5723-8.93555Z"/>
  </g>
  <g id="Ultralight-L" transform="matrix(1 0 0 1 488.739 1556)">
   <path d="M31.9824 19.7754L109.961 19.7754C120.312 19.7754 125.879 14.0625 125.879 3.85742L125.879-74.0723C125.879-84.2773 120.312-89.9902 109.961-89.9902L31.9824-89.9902C21.582-89.9902 16.0645-84.4727 16.0645-74.0723L16.0645 3.85742C16.0645 14.2578 21.582 19.7754 31.9824 19.7754ZM85.7422-9.32617C77.4414-9.32617 72.0215-13.916 70.1172-19.7754C69.9707-20.2148 69.9219-20.459 69.9219-20.8008C69.9219-21.6309 70.5566-22.1191 71.2402-22.1191C72.0703-22.1191 72.4609-21.4844 72.6074-20.7031C73.9258-15.6738 79.4922-12.1094 86.1328-12.1094C94.043-12.1094 100.098-18.0664 100.098-26.0742C100.098-34.0332 94.3848-39.7949 86.377-39.7949C81.7871-39.7949 77.9297-38.0371 73.9746-33.4961C73.5352-32.959 73.1445-32.7148 72.4609-32.7148C71.4844-32.7148 70.8008-33.3984 70.8496-34.4727L72.8516-58.9844C72.9004-60.1562 73.584-60.9375 74.707-60.9375L98.9258-60.9375C99.707-60.9375 100.391-60.3516 100.391-59.5703C100.391-58.8379 99.7559-58.252 98.9258-58.252L75.5371-58.252L73.7793-36.2305L73.877-36.2305C76.8555-40.1855 81.6895-42.4805 86.6699-42.4805C96.0938-42.4805 102.832-35.498 102.832-26.123C102.832-16.1133 95.8008-9.32617 85.7422-9.32617ZM52.9297-9.66797C52.1973-9.66797 51.5625-10.2051 51.5625-11.0352L51.5625-57.3242L51.3184-57.3242L39.3066-49.5117C39.0625-49.4629 38.9648-49.4629 38.7207-49.4629C37.9395-49.4629 37.4023-50.0977 37.4023-50.7812C37.4023-51.2207 37.5-51.6602 38.0859-52.002L51.123-60.4004C51.6113-60.6934 52.0508-60.8398 52.6855-60.8398C53.5645-60.8398 54.2969-60.3027 54.2969-59.3262L54.2969-11.0352C54.2969-10.2051 53.8086-9.66797 52.9297-9.66797Z"/>
  </g>
  <g id="Black-M" transform="matrix(1 0 0 1 2872.19 1126)">
   <path d="M31.9824 13.5742L90.4297 13.5742C102.686 13.5742 109.961 6.29883 109.961-5.95703L109.961-64.4043C109.961-76.6602 102.686-83.9355 90.4297-83.9355L31.9824-83.9355C19.7266-83.9355 12.4512-76.6602 12.4512-64.4043L12.4512-5.95703C12.4512 6.29883 19.7266 13.5742 31.9824 13.5742ZM49.7559-15.625C46.0938-15.625 44.3359-17.6758 44.3359-22.0215L44.3359-41.8457L44.1406-41.8457L42.6758-40.0391C41.5039-38.5254 40.4297-37.6953 38.4766-37.6953C36.084-37.6953 34.2773-39.7461 34.2773-41.9922C34.2773-44.0918 35.0586-45.6055 37.207-47.6074L41.4062-51.709C44.0918-54.3457 45.9473-54.8828 48.1445-54.8828C52.832-54.8828 55.0293-52.2461 55.0293-47.6074L55.0293-22.0215C55.0293-17.6758 53.3203-15.625 49.7559-15.625ZM74.3652-15.625C68.5059-15.625 64.6484-18.9941 63.3301-21.4355C62.8418-22.5586 62.7441-23.4375 62.7441-24.3164C62.7441-27.002 64.8438-28.9551 67.2363-28.9551C69.5312-28.9551 70.2637-27.5879 71.2402-26.9043C72.3145-26.1719 73.0957-24.9023 75-24.9023C77.0508-24.9023 78.5156-26.8066 78.5156-29.1992C78.5156-31.25 77.0508-33.0078 75.2441-33.0078C73.877-33.0078 73.0957-32.6172 71.9238-31.7871C71.0449-31.2012 69.8242-30.5176 67.2852-30.5176C64.3066-30.5176 62.2559-32.5684 62.3535-35.8887L62.9883-48.2422C63.1348-52.0508 64.8926-54.248 68.2129-54.248L82.2754-54.248C85.4492-54.248 87.1094-52.7344 87.1094-49.707C87.1094-46.6797 85.3027-45.0684 82.2754-45.0684L72.0215-45.0684L71.4844-37.6953L71.582-37.6953C73.0957-39.9414 75.5371-41.1133 78.3691-41.1133C83.4473-41.1133 88.3789-37.1582 88.3789-29.7852C88.3789-21.1914 83.3008-15.625 74.3652-15.625Z"/>
  </g>
  <g id="Heavy-M" transform="matrix(1 0 0 1 2576.39 1126)">
   <path d="M31.0059 12.6465L89.6484 12.6465C101.416 12.6465 108.154 5.9082 108.154-5.81055L108.154-64.5508C108.154-76.2695 101.416-83.0566 89.6484-83.0566L31.0059-83.0566C19.2383-83.0566 12.4512-76.3184 12.4512-64.5508L12.4512-5.81055C12.4512 5.9082 19.2383 12.6465 31.0059 12.6465ZM48.3398-15.2832C45.1172-15.2832 43.457-17.1387 43.457-20.9473L43.457-43.457L43.2617-43.457L40.8691-41.1133C39.6973-39.7461 38.7695-39.1113 37.0605-39.1113C34.9121-39.1113 33.1543-41.0156 33.1543-43.1152C33.1543-45.0195 33.9355-46.3867 35.8398-48.0957L40.8203-52.4414C43.3105-54.7852 44.9707-55.3223 47.0215-55.3223C51.0742-55.3223 53.125-52.9297 53.125-48.877L53.125-20.9473C53.125-17.1387 51.5137-15.2832 48.3398-15.2832ZM73.3398-15.1367C67.3828-15.1367 63.2324-18.5059 61.9141-21.3379C61.4258-22.3633 61.377-23.2422 61.377-24.0723C61.377-26.5625 63.2324-28.3203 65.4297-28.3203C67.4805-28.3203 68.3105-27.0996 69.1895-26.2207C70.3613-24.9512 71.6309-23.584 73.9258-23.584C76.6113-23.584 78.5156-25.7812 78.5156-28.8574C78.5156-31.4941 76.709-33.6914 74.2676-33.6914C72.7051-33.6914 71.7285-33.2031 70.3613-32.1289C69.3359-31.3965 68.1152-30.7617 65.8691-30.7617C63.0371-30.7617 61.084-32.7148 61.2305-35.8887L62.0117-49.0234C62.1582-52.5879 63.916-54.6387 67.0898-54.6387L81.9336-54.6387C84.668-54.6387 86.1816-53.1738 86.1816-50.4883C86.1816-47.8027 84.5703-46.2891 81.9336-46.2891L70.166-46.2891L69.4824-37.5977L69.6289-37.5977C71.1426-39.8438 73.877-41.1621 76.8066-41.1621C82.5195-41.1621 87.5488-36.8164 87.5488-29.2969C87.5488-20.6543 82.2754-15.1367 73.3398-15.1367Z"/>
  </g>
  <g id="Bold-M" transform="matrix(1 0 0 1 2280.68 1126)">
   <path d="M29.8828 11.6699L88.7207 11.6699C99.9512 11.6699 106.152 5.46875 106.152-5.66406L106.152-64.6973C106.152-75.8789 99.9512-82.0312 88.7207-82.0312L29.8828-82.0312C18.6523-82.0312 12.4512-75.8789 12.4512-64.6973L12.4512-5.66406C12.4512 5.51758 18.6523 11.6699 29.8828 11.6699ZM46.7773-14.8926C43.9941-14.8926 42.4805-16.5527 42.4805-19.7266L42.4805-45.2148L42.2363-45.2148L38.8672-42.334C37.6953-41.1133 36.8652-40.6738 35.498-40.6738C33.5938-40.6738 31.9824-42.3828 31.9824-44.3848C31.9824-46.0449 32.666-47.2656 34.2773-48.6816L40.1855-53.3203C42.4316-55.2246 43.8477-55.7617 45.8008-55.7617C49.1699-55.7617 50.9766-53.7109 50.9766-50.293L50.9766-19.7266C50.9766-16.5527 49.5117-14.8926 46.7773-14.8926ZM72.2168-14.5996C66.1133-14.5996 61.7188-17.9199 60.3027-21.2402C59.9121-22.168 59.8145-22.9492 59.8145-23.8281C59.8145-26.0254 61.377-27.6367 63.4766-27.6367C65.1855-27.6367 66.0645-26.5625 66.8945-25.4883C68.1641-23.6328 70.0195-22.1191 72.7051-22.1191C76.1719-22.1191 78.5645-24.6094 78.5645-28.4668C78.5645-31.7871 76.3184-34.4238 73.1934-34.4238C71.4355-34.4238 70.2148-33.8379 68.6035-32.5684C67.3828-31.5918 66.2598-31.0547 64.2578-31.0547C61.5723-31.0547 59.8145-32.9102 59.9609-35.8887L60.8887-49.9023C61.084-53.1738 62.8418-55.0781 65.8203-55.0781L81.4941-55.0781C83.8379-55.0781 85.1562-53.7109 85.1562-51.416C85.1562-49.0723 83.7402-47.6562 81.4941-47.6562L68.0664-47.6562L67.2852-37.5L67.4805-37.5C68.9453-39.7949 71.9727-41.2109 75.0977-41.2109C81.543-41.2109 86.6211-36.377 86.6211-28.8086C86.6211-20.0684 81.1035-14.5996 72.2168-14.5996Z"/>
  </g>
  <g id="Semibold-M" transform="matrix(1 0 0 1 1984.65 1126)">
   <path d="M29.1016 10.9863L88.0859 10.9863C98.9746 10.9863 104.785 5.17578 104.785-5.56641L104.785-64.8438C104.785-75.5859 98.9746-81.3477 88.0859-81.3477L29.1016-81.3477C18.2617-81.3477 12.4512-75.5859 12.4512-64.8438L12.4512-5.56641C12.4512 5.22461 18.2617 10.9863 29.1016 10.9863ZM45.7031-14.5996C43.2129-14.5996 41.7969-16.1621 41.7969-18.8477L41.7969-46.4844L41.5527-46.4844L37.4512-43.1641C36.2793-42.0898 35.5957-41.7969 34.4238-41.7969C32.666-41.7969 31.1523-43.3594 31.1523-45.2148C31.1523-46.7773 31.7871-47.9004 33.252-49.0234L39.7461-53.9062C41.8457-55.5664 43.1152-56.1035 44.9219-56.1035C47.8516-56.1035 49.5605-54.248 49.5605-51.2695L49.5605-18.8477C49.5605-16.1621 48.1445-14.5996 45.7031-14.5996ZM71.4355-14.209C65.2832-14.209 60.6445-17.5293 59.1797-21.1914C58.8379-21.9727 58.7402-22.8027 58.7402-23.6328C58.7402-25.6348 60.1562-27.1484 62.0605-27.1484C63.623-27.1484 64.502-26.1719 65.332-25C66.6992-22.7051 68.8965-21.0938 71.8262-21.0938C75.8301-21.0938 78.5645-23.8281 78.5645-28.1738C78.5645-31.9824 76.0254-34.9121 72.4609-34.9121C70.5078-34.9121 69.1895-34.2773 67.3828-32.8125C66.0156-31.7383 64.9902-31.25 63.1348-31.25C60.5957-31.25 58.9844-33.0566 59.1309-35.9375L60.1562-50.5371C60.3516-53.5645 62.0605-55.3711 64.9414-55.3711L81.25-55.3711C83.252-55.3711 84.4727-54.0527 84.4727-52.002C84.4727-49.9023 83.1543-48.584 81.25-48.584L66.6016-48.584L65.7715-37.4512L65.9668-37.4512C67.4805-39.6973 70.7031-41.2109 73.877-41.2109C80.8105-41.2109 85.9375-36.084 85.9375-28.418C85.9375-19.6777 80.3223-14.209 71.4355-14.209Z"/>
  </g>
  <g id="Medium-M" transform="matrix(1 0 0 1 1688.47 1126)">
   <path d="M28.5156 10.4492L87.6465 10.4492C98.2422 10.4492 103.711 4.98047 103.711-5.46875L103.711-64.8926C103.711-75.3418 98.2422-80.8105 87.6465-80.8105L28.5156-80.8105C17.9688-80.8105 12.4512-75.3906 12.4512-64.8926L12.4512-5.46875C12.4512 4.98047 17.9688 10.4492 28.5156 10.4492ZM44.873-14.4043C42.627-14.4043 41.3086-15.8203 41.3086-18.2129L41.3086-47.4121L41.0645-47.4121L36.4258-43.7988C35.2539-42.8223 34.6191-42.627 33.6426-42.627C31.9824-42.627 30.5176-44.0918 30.5176-45.8984C30.5176-47.3145 31.1523-48.3398 32.4219-49.3164L39.4043-54.3457C41.4062-55.8105 42.5293-56.3477 44.2871-56.3477C46.875-56.3477 48.4375-54.6387 48.4375-52.0508L48.4375-18.2129C48.4375-15.8203 47.1191-14.4043 44.873-14.4043ZM70.8496-13.916C64.5996-13.916 59.8145-17.2363 58.3496-21.0938C58.0566-21.875 57.9102-22.6562 57.9102-23.5352C57.9102-25.3906 59.1797-26.7578 61.0352-26.7578C62.4512-26.7578 63.3301-25.9277 64.1602-24.6094C65.5273-22.0215 68.0664-20.3125 71.1914-20.3125C75.5859-20.3125 78.5645-23.1934 78.5645-27.9785C78.5645-32.1289 75.8301-35.3027 71.875-35.3027C69.8242-35.3027 68.4082-34.668 66.5039-33.0078C65.0391-31.8359 64.0137-31.3965 62.2559-31.3965C59.8145-31.3965 58.3008-33.1543 58.4473-35.9375L59.5703-50.9766C59.7656-53.8574 61.5234-55.5664 64.3066-55.5664L81.0059-55.5664C82.8125-55.5664 83.9355-54.3457 83.9355-52.4902C83.9355-50.5859 82.7148-49.3164 81.0059-49.3164L65.5273-49.3164L64.6484-37.4023L64.8438-37.4023C66.3086-39.6484 69.7266-41.2109 72.998-41.2109C80.2734-41.2109 85.4492-35.8887 85.4492-28.1738C85.4492-19.3848 79.7363-13.916 70.8496-13.916Z"/>
  </g>
  <g id="Regular-M" transform="matrix(1 0 0 1 1392.45 1126)">
   <path d="M27.7832 9.76562L87.0117 9.76562C97.2656 9.76562 102.344 4.6875 102.344-5.37109L102.344-64.9902C102.344-75.0488 97.2656-80.127 87.0117-80.127L27.7832-80.127C17.5781-80.127 12.4512-75.0977 12.4512-64.9902L12.4512-5.37109C12.4512 4.73633 17.5781 9.76562 27.7832 9.76562ZM43.7988-14.1602C41.8945-14.1602 40.625-15.4297 40.625-17.3828L40.625-48.6328L40.3809-48.6328L35.0586-44.6777C33.8867-43.75 33.3496-43.7012 32.5684-43.7012C31.1035-43.7012 29.6875-45.0195 29.6875-46.7285C29.6875-48.0469 30.2734-48.9746 31.3965-49.707L39.0137-54.9316C40.8203-56.1523 41.748-56.6895 43.4082-56.6895C45.5566-56.6895 46.9727-55.127 46.9727-53.0273L46.9727-17.3828C46.9727-15.4297 45.752-14.1602 43.7988-14.1602ZM70.0684-13.5254C63.7695-13.5254 58.7891-16.8457 57.2754-21.0449C57.0312-21.7285 56.8359-22.5098 56.8359-23.3398C56.8359-25 57.959-26.2695 59.668-26.2695C60.8887-26.2695 61.8164-25.5371 62.5977-24.0723C64.0625-21.0938 66.9434-19.2871 70.3613-19.2871C75.2441-19.2871 78.5645-22.4121 78.5645-27.6855C78.5645-32.3242 75.5371-35.8398 71.1426-35.8398C68.9453-35.8398 67.3828-35.1074 65.2832-33.3008C63.6719-31.9824 62.7441-31.5918 61.1816-31.5918C58.8379-31.5918 57.4219-33.3008 57.6172-35.9375L58.8379-51.6113C58.9844-54.2969 60.7422-55.9082 63.4277-55.9082L80.7617-55.9082C82.2266-55.9082 83.2031-54.6875 83.2031-53.0762C83.2031-51.416 82.1777-50.2441 80.7617-50.2441L64.1113-50.2441L63.1348-37.3535L63.3301-37.3535C64.8438-39.5996 68.457-41.2598 71.8262-41.2598C79.5898-41.2598 84.8145-35.5957 84.8145-27.832C84.8145-18.9941 78.9551-13.5254 70.0684-13.5254Z"/>
  </g>
  <g id="Light-M" transform="matrix(1 0 0 1 1096.47 1126)">
   <path d="M26.8555 9.0332L86.4746 9.0332C95.9961 9.0332 100.879 4.15039 100.879-5.22461L100.879-65.0879C100.879-74.5117 95.9961-79.3945 86.4746-79.3945L26.8555-79.3945C17.334-79.3945 12.4512-74.5605 12.4512-65.0879L12.4512-5.22461C12.4512 4.19922 17.334 9.0332 26.8555 9.0332ZM42.9199-14.5508C41.4551-14.5508 40.4297-15.5762 40.4297-17.0898L40.4297-49.7559L40.1855-49.7559L33.6426-45.166C32.7637-44.5312 32.373-44.4824 31.7871-44.4824C30.5664-44.4824 29.4434-45.5566 29.4434-46.9238C29.4434-47.9004 29.9316-48.6328 30.8105-49.2676L39.209-54.8828C40.5762-55.8105 41.3086-56.1523 42.627-56.1523C44.2871-56.1523 45.459-54.9805 45.459-53.2715L45.459-17.0898C45.459-15.5762 44.4824-14.5508 42.9199-14.5508ZM68.9453-14.0625C62.5977-14.0625 57.8613-17.4316 56.3477-21.7285C56.1523-22.3145 56.0059-22.9004 56.0059-23.584C56.0059-24.9023 56.9336-25.9277 58.3008-25.9277C59.3262-25.9277 60.0586-25.2441 60.6445-24.0234C61.9629-20.8008 65.2832-18.7012 69.2383-18.7012C74.5117-18.7012 78.2715-22.2656 78.2715-27.832C78.2715-32.959 74.8047-36.7188 69.873-36.7188C67.2363-36.7188 65.1855-35.791 62.8418-33.4961C61.6211-32.4219 60.8398-32.1289 59.6191-32.1289C57.7637-32.1289 56.6406-33.4473 56.7871-35.5469L58.1055-52.2461C58.252-54.3457 59.5703-55.6641 61.7188-55.6641L79.4922-55.6641C80.6641-55.6641 81.543-54.6875 81.543-53.418C81.543-52.0996 80.6641-51.123 79.4922-51.123L62.3535-51.123L61.2793-36.9629L61.4258-36.9629C63.2324-39.4531 66.8457-41.1133 70.3613-41.1133C78.0273-41.1133 83.252-35.5469 83.252-27.9297C83.252-19.4336 77.4902-14.0625 68.9453-14.0625Z"/>
  </g>
  <g id="Thin-M" transform="matrix(1 0 0 1 800.758 1126)">
   <path d="M25.6348 8.05664L85.7422 8.05664C94.3848 8.05664 98.877 3.4668 98.877-5.0293L98.877-65.2344C98.877-73.7305 94.3848-78.3691 85.7422-78.3691L25.6348-78.3691C16.9922-78.3691 12.4512-73.877 12.4512-65.2344L12.4512-5.0293C12.4512 3.56445 16.9922 8.05664 25.6348 8.05664ZM41.7969-15.0879C40.8691-15.0879 40.1367-15.7227 40.1367-16.748L40.1367-51.3184L39.9414-51.3184L31.7383-45.8496C31.2988-45.5566 31.1035-45.5566 30.7129-45.5566C29.8828-45.5566 29.1992-46.2891 29.1992-47.1191C29.1992-47.7539 29.3945-48.2422 30.0293-48.6328L39.4531-54.7852C40.2344-55.3223 40.7227-55.5176 41.5527-55.5176C42.6758-55.5176 43.457-54.7852 43.457-53.6621L43.457-16.748C43.457-15.7227 42.8223-15.0879 41.7969-15.0879ZM67.4316-14.6973C61.0352-14.6973 56.6406-18.2129 55.1758-22.6074C55.0293-23.0469 54.9316-23.4375 54.9316-23.8281C54.9316-24.8047 55.6152-25.3906 56.4453-25.3906C57.2266-25.3906 57.7637-24.8535 58.0566-24.0234C59.1797-20.3613 63.0859-17.8711 67.7734-17.8711C73.584-17.8711 77.832-22.0703 77.832-28.0273C77.832-33.7402 73.8281-37.9395 68.1152-37.9395C64.9414-37.9395 62.3535-36.7676 59.5703-33.6914C58.8867-33.0566 58.3984-32.8125 57.5684-32.8125C56.3965-32.8125 55.5664-33.6426 55.6641-35.0098L57.1289-53.0762C57.1777-54.4434 58.0566-55.3711 59.4727-55.3711L77.832-55.3711C78.6621-55.3711 79.2969-54.6875 79.2969-53.8086C79.2969-52.9297 78.6621-52.2949 77.832-52.2949L60.1074-52.2949L58.8379-36.377L58.9355-36.377C61.0352-39.209 64.7461-40.9668 68.457-40.9668C75.9277-40.9668 81.1523-35.498 81.1523-28.0762C81.1523-20.0195 75.5859-14.6973 67.4316-14.6973Z"/>
  </g>
  <g id="Ultralight-M" transform="matrix(1 0 0 1 504.535 1126)">
   <path d="M25 7.56836L85.3516 7.56836C93.5059 7.56836 97.9004 3.125 97.9004-4.98047L97.9004-65.2832C97.9004-73.3887 93.5059-77.832 85.3516-77.832L25-77.832C16.7969-77.832 12.4512-73.4863 12.4512-65.2832L12.4512-4.98047C12.4512 3.22266 16.7969 7.56836 25 7.56836ZM66.6992-15.0391C60.2539-15.0391 56.0547-18.6035 54.541-23.0957C54.4434-23.4375 54.3457-23.6816 54.3457-23.9746C54.3457-24.707 54.9316-25.1465 55.5176-25.1465C56.2012-25.1465 56.543-24.6582 56.7383-23.9746C57.7637-20.166 61.9629-17.4805 66.9922-17.4805C73.0469-17.4805 77.6367-21.9727 77.6367-28.125C77.6367-34.1797 73.291-38.5742 67.2363-38.5742C63.7695-38.5742 60.8887-37.2559 57.9102-33.8379C57.4707-33.3496 57.1289-33.1543 56.4941-33.1543C55.6641-33.1543 55.0293-33.7891 55.127-34.7168L56.5918-53.5156C56.6895-54.541 57.2754-55.1758 58.3008-55.1758L76.9531-55.1758C77.6367-55.1758 78.1738-54.6875 78.1738-54.0527C78.1738-53.3691 77.6367-52.8809 76.9531-52.8809L58.9355-52.8809L57.6172-36.1328L57.666-36.1328C59.9121-39.1113 63.6719-40.8691 67.4805-40.8691C74.8047-40.8691 80.0781-35.4492 80.0781-28.1738C80.0781-20.3125 74.5605-15.0391 66.6992-15.0391ZM41.2109-15.332C40.5273-15.332 39.9902-15.8203 39.9902-16.5527L39.9902-52.0996L39.7949-52.0996L30.7617-46.1914C30.5176-46.0938 30.4199-46.0938 30.1758-46.0938C29.4922-46.0938 29.0527-46.6309 29.0527-47.2168C29.0527-47.6562 29.1504-47.998 29.6387-48.3398L39.5996-54.7852C40.0391-55.0781 40.4297-55.1758 41.0156-55.1758C41.7969-55.1758 42.4316-54.6875 42.4316-53.8574L42.4316-16.5527C42.4316-15.8203 41.9922-15.332 41.2109-15.332Z"/>
  </g>
  <g id="Black-S" transform="matrix(1 0 0 1 2885.5 696)">
   <path d="M25 2.92969L70.8008 2.92969C80.3711 2.92969 86.0352-2.73438 86.0352-12.3047L86.0352-58.1055C86.0352-67.6758 80.3711-73.3398 70.8008-73.3398L25-73.3398C15.4297-73.3398 9.76562-67.6758 9.76562-58.1055L9.76562-12.3047C9.76562-2.73438 15.4297 2.92969 25 2.92969ZM38.8672-19.8242C36.0352-19.8242 34.668-21.4355 34.668-24.8047L34.668-40.5273L34.5215-40.5273L33.3008-39.0625C32.373-37.8906 31.543-37.2559 30.0293-37.2559C28.1738-37.2559 26.7578-38.8672 26.7578-40.625C26.7578-42.2363 27.3926-43.4082 29.0527-44.9707L32.373-48.1934C34.4727-50.2441 35.9375-50.6836 37.6465-50.6836C41.2598-50.6836 42.9688-48.6328 42.9688-45.0195L42.9688-24.8047C42.9688-21.4355 41.6504-19.8242 38.8672-19.8242ZM58.2031-19.8242C53.6133-19.8242 50.5371-22.4609 49.5117-24.4141C49.1211-25.293 49.0723-25.9766 49.0723-26.6602C49.0723-28.7598 50.6836-30.2734 52.5391-30.2734C54.3457-30.2734 54.9316-29.1992 55.6641-28.6621C56.543-28.0273 57.1777-27.0508 58.6914-27.0508C60.3516-27.0508 61.5234-28.5645 61.5234-30.4688C61.5234-32.1289 60.3516-33.5449 58.8867-33.5449C57.8125-33.5449 57.1777-33.2031 56.25-32.5684C55.5664-32.0801 54.5898-31.543 52.6367-31.543C50.293-31.543 48.6816-33.1543 48.7793-35.7422L49.2676-45.459C49.4141-48.4375 50.7812-50.1465 53.3691-50.1465L64.4531-50.1465C66.8945-50.1465 68.2129-48.9746 68.2129-46.6309C68.2129-44.2871 66.7969-43.0176 64.4531-43.0176L56.2988-43.0176L55.8594-37.1582L55.957-37.1582C57.1289-38.916 59.082-39.8438 61.2793-39.8438C65.332-39.8438 69.1895-36.7188 69.1895-30.9082C69.1895-24.1699 65.1855-19.8242 58.2031-19.8242Z"/>
  </g>
  <g id="Heavy-S" transform="matrix(1 0 0 1 2589.4 696)">
   <path d="M24.3652 2.34375L70.2637 2.34375C79.541 2.34375 84.8145-2.97852 84.8145-12.207L84.8145-58.2031C84.8145-67.4316 79.541-72.7539 70.2637-72.7539L24.3652-72.7539C15.0879-72.7539 9.76562-67.4316 9.76562-58.2031L9.76562-12.207C9.76562-2.97852 15.0879 2.34375 24.3652 2.34375ZM37.8906-19.5312C35.3516-19.5312 34.0332-20.9961 34.0332-24.0234L34.0332-41.6016L33.8379-41.6016L32.0801-39.8438C31.1035-38.7695 30.3711-38.2324 29.0527-38.2324C27.3438-38.2324 25.9766-39.7461 25.9766-41.4551C25.9766-42.9688 26.5625-44.043 28.0762-45.4102L31.9336-48.7793C33.8867-50.6348 35.2539-51.0742 36.8652-51.0742C40.0879-51.0742 41.6992-49.1699 41.6992-45.9473L41.6992-24.0234C41.6992-20.9961 40.4297-19.5312 37.8906-19.5312ZM57.5684-19.3848C52.8809-19.3848 49.5605-22.0215 48.5352-24.2676C48.1445-25.0488 48.0957-25.7812 48.0957-26.4648C48.0957-28.418 49.5605-29.834 51.3184-29.834C52.9297-29.834 53.6133-28.8574 54.3457-28.1738C55.2734-27.1484 56.25-26.123 57.959-26.123C60.1074-26.123 61.5723-27.7832 61.5723-30.1758C61.5723-32.2754 60.1562-33.9355 58.3008-33.9355C57.1289-33.9355 56.3965-33.5938 55.3223-32.8125C54.4434-32.1777 53.5156-31.6895 51.709-31.6895C49.4141-31.6895 47.9004-33.252 47.998-35.791L48.584-45.9961C48.7305-48.8281 50.1465-50.4883 52.6855-50.4883L64.3066-50.4883C66.5039-50.4883 67.6758-49.3164 67.6758-47.2168C67.6758-45.0684 66.4062-43.8477 64.3066-43.8477L55.0781-43.8477L54.541-37.1582L54.6875-37.1582C55.8105-38.8672 57.959-39.8926 60.2539-39.8926C64.7949-39.8926 68.75-36.4258 68.75-30.5664C68.75-23.7305 64.5508-19.3848 57.5684-19.3848Z"/>
  </g>
  <g id="Bold-S" transform="matrix(1 0 0 1 2293.35 696)">
   <path d="M23.6328 1.66016L69.6289 1.66016C78.6133 1.66016 83.4961-3.22266 83.4961-12.1094L83.4961-58.3008C83.4961-67.1875 78.6133-72.0703 69.6289-72.0703L23.6328-72.0703C14.6973-72.0703 9.76562-67.1875 9.76562-58.3008L9.76562-12.1094C9.76562-3.22266 14.6973 1.66016 23.6328 1.66016ZM36.8164-19.1895C34.5215-19.1895 33.3008-20.5566 33.3008-23.0957L33.3008-42.8223L33.1055-42.8223L30.7129-40.7227C29.7363-39.6973 29.0527-39.3555 27.9785-39.3555C26.416-39.3555 25.0488-40.7715 25.0488-42.3828C25.0488-43.7988 25.6348-44.7754 26.9531-45.8984L31.3965-49.4141C33.3008-51.0254 34.4238-51.4648 36.0352-51.4648C38.7695-51.4648 40.2832-49.7559 40.2832-47.0215L40.2832-23.0957C40.2832-20.5566 39.0625-19.1895 36.8164-19.1895ZM56.8359-18.8965C52.0508-18.8965 48.5352-21.4844 47.4121-24.1211C47.1191-24.8047 47.0215-25.5371 47.0215-26.2207C47.0215-28.0273 48.291-29.3457 50-29.3457C51.416-29.3457 52.0996-28.5156 52.832-27.5879C53.8574-26.1719 55.2246-25.0488 57.1777-25.0488C59.8145-25.0488 61.6211-26.9043 61.6211-29.8828C61.6211-32.373 59.9609-34.375 57.6172-34.375C56.3477-34.375 55.5176-33.9844 54.2969-33.1055C53.2227-32.2754 52.3438-31.8359 50.6836-31.8359C48.4375-31.8359 47.0215-33.3984 47.168-35.8398L47.8516-46.6309C47.998-49.2676 49.4629-50.8301 51.9531-50.8301L64.1602-50.8301C66.0156-50.8301 67.0898-49.7559 67.0898-47.8516C67.0898-45.9473 65.9668-44.7754 64.1602-44.7754L53.6621-44.7754L53.125-37.1094L53.2715-37.1094C54.3457-38.8184 56.7383-39.9414 59.1309-39.9414C64.209-39.9414 68.2129-36.1328 68.2129-30.127C68.2129-23.2422 63.8672-18.8965 56.8359-18.8965Z"/>
  </g>
  <g id="Semibold-S" transform="matrix(1 0 0 1 1997.1 696)">
   <path d="M23.0957 1.17188L69.1895 1.17188C77.9297 1.17188 82.5684-3.36914 82.5684-12.0117L82.5684-58.3984C82.5684-67.041 77.9297-71.582 69.1895-71.582L23.0957-71.582C14.4043-71.582 9.76562-67.041 9.76562-58.3984L9.76562-12.0117C9.76562-3.36914 14.4043 1.17188 23.0957 1.17188ZM36.0352-18.9453C33.9844-18.9453 32.8125-20.2148 32.8125-22.4609L32.8125-43.7012L32.6172-43.7012L29.7852-41.3086C28.7598-40.3809 28.1738-40.1367 27.1973-40.1367C25.7324-40.1367 24.4141-41.4551 24.4141-43.0176C24.4141-44.3359 25-45.2637 26.1719-46.2402L31.0547-49.9023C32.8613-51.3184 33.8867-51.7578 35.4492-51.7578C37.8418-51.7578 39.2578-50.1953 39.2578-47.7539L39.2578-22.4609C39.2578-20.2148 38.0859-18.9453 36.0352-18.9453ZM56.2988-18.5547C51.5137-18.5547 47.7539-21.1426 46.6309-23.9746C46.3867-24.6582 46.2402-25.3418 46.2402-26.0742C46.2402-27.7344 47.4121-29.0039 49.0723-29.0039C50.3418-29.0039 51.0742-28.2227 51.8066-27.1973C52.8809-25.4883 54.4922-24.3164 56.6406-24.3164C59.6191-24.3164 61.6699-26.3184 61.6699-29.6387C61.6699-32.4707 59.8145-34.7168 57.1777-34.7168C55.8105-34.7168 54.8828-34.2773 53.6133-33.3008C52.3926-32.3242 51.5137-31.9336 49.9512-31.9336C47.8027-31.9336 46.4355-33.4473 46.582-35.8887L47.3633-47.0215C47.5098-49.5605 48.9746-51.0742 51.416-51.0742L64.0625-51.0742C65.7227-51.0742 66.6992-50 66.6992-48.291C66.6992-46.5332 65.625-45.459 64.0625-45.459L52.7344-45.459L52.0996-37.1094L52.2461-37.1094C53.3691-38.8184 55.8594-39.9414 58.3496-39.9414C63.8184-39.9414 67.8711-35.9375 67.8711-29.834C67.8711-22.9004 63.3789-18.5547 56.2988-18.5547Z"/>
  </g>
  <g id="Medium-S" transform="matrix(1 0 0 1 1700.75 696)">
   <path d="M22.7051 0.830078L68.8965 0.830078C77.4414 0.830078 81.8359-3.51562 81.8359-11.9629L81.8359-58.4473C81.8359-66.8945 77.4414-71.2402 68.8965-71.2402L22.7051-71.2402C14.209-71.2402 9.76562-66.8945 9.76562-58.4473L9.76562-11.9629C9.76562-3.51562 14.209 0.830078 22.7051 0.830078ZM35.498-18.75C33.5938-18.75 32.4219-19.9707 32.4219-22.0215L32.4219-44.3359L32.2266-44.3359L29.0527-41.748C28.0273-40.8691 27.4902-40.7227 26.6602-40.7227C25.2441-40.7227 23.9746-41.9922 23.9746-43.5059C23.9746-44.7754 24.5605-45.6543 25.6348-46.4844L30.8105-50.2441C32.5195-51.5137 33.4961-52.002 34.9609-52.002C37.1582-52.002 38.5254-50.4883 38.5254-48.291L38.5254-22.0215C38.5254-19.9707 37.3535-18.75 35.498-18.75ZM55.957-18.3105C51.0742-18.3105 47.2168-20.8984 46.0938-23.877C45.8008-24.5117 45.7031-25.2441 45.7031-25.9766C45.7031-27.5391 46.7285-28.7598 48.3398-28.7598C49.5117-28.7598 50.293-28.0273 51.0254-26.9043C52.1484-25 53.9551-23.7793 56.25-23.7793C59.5215-23.7793 61.6699-25.8789 61.6699-29.4922C61.6699-32.5684 59.7168-34.9609 56.8359-34.9609C55.3711-34.9609 54.4434-34.4727 53.0762-33.4473C51.7578-32.373 50.8789-32.0312 49.4141-32.0312C47.2656-32.0312 45.9961-33.5449 46.0938-35.9375L46.9727-47.3633C47.1191-49.8047 48.6328-51.2695 51.0254-51.2695L63.9648-51.2695C65.4785-51.2695 66.4062-50.1953 66.4062-48.6328C66.4062-47.0215 65.3809-45.9473 63.9648-45.9473L52.002-45.9473L51.3184-37.1094L51.5137-37.1094C52.5879-38.7695 55.2246-39.9902 57.7148-39.9902C63.5254-39.9902 67.5781-35.7422 67.5781-29.6387C67.5781-22.6074 63.0371-18.3105 55.957-18.3105Z"/>
  </g>
  <g id="Regular-S" transform="matrix(1 0 0 1 1404.51 696)">
   <path d="M22.2168 0.390625L68.457 0.390625C76.8066 0.390625 80.9082-3.71094 80.9082-11.9141L80.9082-58.4961C80.9082-66.6992 76.8066-70.8008 68.457-70.8008L22.2168-70.8008C13.916-70.8008 9.76562-66.6992 9.76562-58.4961L9.76562-11.9141C9.76562-3.71094 13.916 0.390625 22.2168 0.390625ZM34.7168-18.5059C33.0566-18.5059 31.9336-19.6289 31.9336-21.3867L31.9336-45.166L31.6895-45.166L28.125-42.3828C27.0508-41.5039 26.6113-41.5039 25.8789-41.5039C24.6094-41.5039 23.3398-42.6758 23.3398-44.1895C23.3398-45.3613 23.9258-46.1426 24.8535-46.8262L30.4688-50.6836C32.0801-51.8066 32.959-52.2461 34.375-52.2461C36.2793-52.2461 37.5488-50.9277 37.5488-49.0234L37.5488-21.3867C37.5488-19.6289 36.4258-18.5059 34.7168-18.5059ZM55.4199-18.0176C50.4883-18.0176 46.4844-20.5566 45.3125-23.7793C45.0684-24.3652 44.9219-25.0488 44.9219-25.8301C44.9219-27.2949 45.8984-28.418 47.4609-28.418C48.4375-28.418 49.2676-27.7832 50-26.5137C51.1719-24.3164 53.2715-23.0469 55.6641-23.0469C59.3262-23.0469 61.7188-25.293 61.7188-29.248C61.7188-32.666 59.5703-35.2539 56.3965-35.2539C54.8828-35.2539 53.8086-34.7656 52.3438-33.6426C50.8789-32.4219 50.0488-32.1289 48.6816-32.1289C46.6309-32.1289 45.3613-33.6426 45.5078-35.9863L46.4844-47.7539C46.6309-50.0977 48.1445-51.5137 50.5371-51.5137L63.8672-51.5137C65.1367-51.5137 66.0156-50.4883 66.0156-49.0723C66.0156-47.6074 65.0879-46.582 63.8672-46.582L51.0742-46.582L50.3418-37.1094L50.5371-37.1094C51.6113-38.7207 54.3945-40.0391 56.9336-40.0391C63.1348-40.0391 67.2363-35.5469 67.2363-29.3457C67.2363-22.2656 62.5488-18.0176 55.4199-18.0176Z"/>
  </g>
  <g id="Light-S" transform="matrix(1 0 0 1 1108.46 696)">
   <path d="M21.3867-0.292969L67.9688-0.292969C75.7324-0.292969 79.5898-4.15039 79.5898-11.7676L79.5898-58.5938C79.5898-66.2109 75.7324-70.1172 67.9688-70.1172L21.3867-70.1172C13.6719-70.1172 9.76562-66.2598 9.76562-58.5938L9.76562-11.7676C9.76562-4.15039 13.6719-0.292969 21.3867-0.292969ZM33.9844-18.8477C32.6172-18.8477 31.7383-19.7754 31.7383-21.1426L31.7383-46.1914L31.543-46.1914L26.9043-42.8223C26.0742-42.2363 25.7324-42.1875 25.1953-42.1875C24.1699-42.1875 23.1445-43.1152 23.1445-44.3359C23.1445-45.2148 23.584-45.8496 24.3652-46.3867L30.6152-50.6348C31.8848-51.4648 32.5195-51.8066 33.6914-51.8066C35.2051-51.8066 36.2305-50.7812 36.2305-49.2676L36.2305-21.1426C36.2305-19.7754 35.3516-18.8477 33.9844-18.8477ZM54.4434-18.457C49.4629-18.457 45.7031-21.0449 44.5312-24.3652C44.3359-24.8535 44.1895-25.3906 44.1895-26.0254C44.1895-27.1973 44.9707-28.0762 46.1914-28.0762C47.0703-28.0762 47.7539-27.5391 48.2422-26.4648C49.3652-24.0234 51.8066-22.5098 54.6875-22.5098C58.6426-22.5098 61.4258-25.1465 61.4258-29.3945C61.4258-33.2031 58.8867-36.0352 55.2246-36.0352C53.3203-36.0352 51.9043-35.4004 50.1465-33.7891C49.0723-32.8613 48.3887-32.5684 47.3145-32.5684C45.6543-32.5684 44.6777-33.7891 44.7754-35.6445L45.8008-48.291C45.8984-50.1953 47.1191-51.3184 49.0234-51.3184L62.7441-51.3184C63.8184-51.3184 64.502-50.4883 64.502-49.3652C64.502-48.1934 63.7695-47.3633 62.7441-47.3633L49.5117-47.3633L48.7305-36.7188L48.877-36.7188C50.1465-38.5742 52.9785-39.8926 55.6641-39.8926C61.7188-39.8926 65.8203-35.498 65.8203-29.4434C65.8203-22.7051 61.2793-18.457 54.4434-18.457Z"/>
  </g>
  <g id="Thin-S" transform="matrix(1 0 0 1 812.599 696)">
   <path d="M20.3125-1.12305L67.334-1.12305C74.2676-1.12305 77.8809-4.78516 77.8809-11.6211L77.8809-58.6914C77.8809-65.5762 74.2676-69.2383 67.334-69.2383L20.3125-69.2383C13.3789-69.2383 9.76562-65.625 9.76562-58.6914L9.76562-11.6211C9.76562-4.6875 13.3789-1.12305 20.3125-1.12305ZM32.959-19.3359C32.1289-19.3359 31.4941-19.9219 31.4941-20.8008L31.4941-47.5098L31.3477-47.5098L25.2441-43.4082C24.8047-43.1152 24.6094-43.1152 24.2676-43.1152C23.5352-43.1152 22.9004-43.75 22.9004-44.4824C22.9004-45.0684 23.1445-45.5078 23.6816-45.8496L30.8594-50.5859C31.5918-51.0742 32.0312-51.2695 32.7637-51.2695C33.7402-51.2695 34.4238-50.5859 34.4238-49.6094L34.4238-20.8008C34.4238-19.9219 33.8867-19.3359 32.959-19.3359ZM53.125-18.9941C48.1445-18.9941 44.6289-21.7285 43.457-25.1953C43.3105-25.5371 43.2617-25.8789 43.2617-26.2695C43.2617-27.0996 43.7988-27.6367 44.5801-27.6367C45.2637-27.6367 45.7031-27.1973 45.9961-26.4648C46.9238-23.6816 49.8535-21.7773 53.3691-21.7773C57.8125-21.7773 61.084-24.9512 61.084-29.541C61.084-33.9355 58.0078-37.1094 53.7109-37.1094C51.3184-37.1094 49.4141-36.2305 47.2656-33.9844C46.6309-33.3984 46.1914-33.2031 45.5078-33.2031C44.4336-33.2031 43.75-33.9355 43.8477-35.1562L44.9219-49.0234C45.0195-50.293 45.8008-51.0742 47.0215-51.0742L61.2793-51.0742C62.0117-51.0742 62.5488-50.4883 62.5488-49.707C62.5488-48.9258 62.0117-48.3887 61.2793-48.3887L47.5098-48.3887L46.582-36.2305L46.6797-36.2305C48.2422-38.4277 51.123-39.7461 54.0039-39.7461C59.8633-39.7461 63.9648-35.4492 63.9648-29.5898C63.9648-23.1934 59.5703-18.9941 53.125-18.9941Z"/>
  </g>
  <g id="Ultralight-S" transform="matrix(1 0 0 1 516.352 696)">
   <path d="M19.7754-1.5625L66.9922-1.5625C73.5352-1.5625 76.9531-5.12695 76.9531-11.5234L76.9531-58.7891C76.9531-65.2344 73.5352-68.75 66.9922-68.75L19.7754-68.75C13.2324-68.75 9.76562-65.2832 9.76562-58.7891L9.76562-11.5234C9.76562-5.0293 13.2324-1.5625 19.7754-1.5625ZM32.4219-19.5801C31.8359-19.5801 31.3965-20.0195 31.3965-20.6543L31.3965-48.2422L31.25-48.2422L24.3652-43.75C24.1211-43.6035 24.0234-43.6035 23.7793-43.6035C23.1934-43.6035 22.8027-44.0918 22.8027-44.6289C22.8027-44.9707 22.9004-45.3125 23.3398-45.5566L30.957-50.5371C31.4453-50.8301 31.7383-50.9277 32.2754-50.9277C33.0078-50.9277 33.4961-50.4883 33.4961-49.7559L33.4961-20.6543C33.4961-20.0195 33.1543-19.5801 32.4219-19.5801ZM52.4414-19.3359C47.4121-19.3359 44.0918-22.0703 42.9199-25.5859C42.7734-25.8789 42.7246-26.123 42.7246-26.3672C42.7246-27.002 43.2129-27.3926 43.75-27.3926C44.2871-27.3926 44.6289-27.002 44.8242-26.416C45.6543-23.4863 48.877-21.4355 52.6855-21.4355C57.373-21.4355 60.8887-24.8535 60.8887-29.6387C60.8887-34.2773 57.5684-37.6465 52.9297-37.6465C50.293-37.6465 48.0957-36.6699 45.8008-34.082C45.4102-33.6914 45.0684-33.5449 44.5312-33.5449C43.7988-33.5449 43.2617-34.082 43.3105-34.9121L44.4824-49.4141C44.5312-50.3418 45.0684-50.9277 45.9961-50.9277L60.5469-50.9277C61.084-50.9277 61.5723-50.4883 61.5723-49.9023C61.5723-49.3164 61.084-48.9258 60.5469-48.9258L46.4844-48.9258L45.459-35.9863L45.5078-35.9863C47.2656-38.2812 50.1465-39.6484 53.125-39.6484C58.8867-39.6484 62.9883-35.4004 62.9883-29.6875C62.9883-23.4863 58.6914-19.3359 52.4414-19.3359Z"/>
  </g>
 </g>
</svg>
