<?xml version="1.0" encoding="UTF-8"?>
<!--Generator: Apple Native CoreSVG 175-->
<!DOCTYPE svg
PUBLIC "-//W3C//DTD SVG 1.1//EN"
       "http://www.w3.org/Graphics/SVG/1.1/DTD/svg11.dtd">
<svg version="1.1" xmlns="http://www.w3.org/2000/svg" xmlns:xlink="http://www.w3.org/1999/xlink" width="3300" height="2200">
 <!--glyph: "uni10044E.medium", point size: 100.0, font version: "17.1d1e1", template writer version: "65.1"-->
 <g id="Notes">
  <rect height="2200" id="artboard" style="fill:white;opacity:1" width="3300" x="0" y="0"/>
  <line style="fill:none;stroke:black;opacity:1;stroke-width:0.5;" x1="263" x2="3036" y1="292" y2="292"/>
  <text style="stroke:none;fill:black;font-family:sans-serif;font-size:13;font-weight:bold;" transform="matrix(1 0 0 1 263 322)">Weight/Scale Variations</text>
  <text style="stroke:none;fill:black;font-family:sans-serif;font-size:13;text-anchor:middle;" transform="matrix(1 0 0 1 559.711 322)">Ultralight</text>
  <text style="stroke:none;fill:black;font-family:sans-serif;font-size:13;text-anchor:middle;" transform="matrix(1 0 0 1 856.422 322)">Thin</text>
  <text style="stroke:none;fill:black;font-family:sans-serif;font-size:13;text-anchor:middle;" transform="matrix(1 0 0 1 1153.13 322)">Light</text>
  <text style="stroke:none;fill:black;font-family:sans-serif;font-size:13;text-anchor:middle;" transform="matrix(1 0 0 1 1449.84 322)">Regular</text>
  <text style="stroke:none;fill:black;font-family:sans-serif;font-size:13;text-anchor:middle;" transform="matrix(1 0 0 1 1746.56 322)">Medium</text>
  <text style="stroke:none;fill:black;font-family:sans-serif;font-size:13;text-anchor:middle;" transform="matrix(1 0 0 1 2043.27 322)">Semibold</text>
  <text style="stroke:none;fill:black;font-family:sans-serif;font-size:13;text-anchor:middle;" transform="matrix(1 0 0 1 2339.98 322)">Bold</text>
  <text style="stroke:none;fill:black;font-family:sans-serif;font-size:13;text-anchor:middle;" transform="matrix(1 0 0 1 2636.69 322)">Heavy</text>
  <text style="stroke:none;fill:black;font-family:sans-serif;font-size:13;text-anchor:middle;" transform="matrix(1 0 0 1 2933.4 322)">Black</text>
  <line style="fill:none;stroke:black;opacity:1;stroke-width:0.5;" x1="263" x2="3036" y1="1903" y2="1903"/>
  <g transform="matrix(1 0 0 1 263 1933)">
   <path d="M9.24805 0.830078Q10.8691 0.830078 12.2949 0.214844Q13.7207-0.400391 14.8096-1.49414Q15.8984-2.58789 16.5186-4.01367Q17.1387-5.43945 17.1387-7.05078Q17.1387-8.66211 16.5186-10.0879Q15.8984-11.5137 14.8047-12.6074Q13.7109-13.7012 12.2852-14.3164Q10.8594-14.9316 9.23828-14.9316Q7.62695-14.9316 6.20117-14.3164Q4.77539-13.7012 3.69141-12.6074Q2.60742-11.5137 1.9873-10.0879Q1.36719-8.66211 1.36719-7.05078Q1.36719-5.43945 1.9873-4.01367Q2.60742-2.58789 3.69629-1.49414Q4.78516-0.400391 6.21094 0.214844Q7.63672 0.830078 9.24805 0.830078ZM9.24805-0.654297Q7.91992-0.654297 6.7627-1.14746Q5.60547-1.64062 4.73145-2.51953Q3.85742-3.39844 3.36426-4.56055Q2.87109-5.72266 2.87109-7.05078Q2.87109-8.37891 3.35938-9.54102Q3.84766-10.7031 4.72168-11.582Q5.5957-12.4609 6.75293-12.9541Q7.91016-13.4473 9.23828-13.4473Q10.5762-13.4473 11.7334-12.9541Q12.8906-12.4609 13.7695-11.582Q14.6484-10.7031 15.1465-9.54102Q15.6445-8.37891 15.6445-7.05078Q15.6445-5.72266 15.1514-4.56055Q14.6582-3.39844 13.7842-2.51953Q12.9102-1.64062 11.748-1.14746Q10.5859-0.654297 9.24805-0.654297ZM5.6543-7.05078Q5.6543-6.72852 5.85938-6.52832Q6.06445-6.32812 6.40625-6.32812L8.51562-6.32812L8.51562-4.20898Q8.51562-3.88672 8.71094-3.67676Q8.90625-3.4668 9.23828-3.4668Q9.56055-3.4668 9.77051-3.67676Q9.98047-3.88672 9.98047-4.20898L9.98047-6.32812L12.0898-6.32812Q12.4219-6.32812 12.627-6.52832Q12.832-6.72852 12.832-7.05078Q12.832-7.38281 12.627-7.58789Q12.4219-7.79297 12.0898-7.79297L9.98047-7.79297L9.98047-9.90234Q9.98047-10.2344 9.77051-10.4443Q9.56055-10.6543 9.23828-10.6543Q8.90625-10.6543 8.71094-10.4443Q8.51562-10.2344 8.51562-9.90234L8.51562-7.79297L6.40625-7.79297Q6.06445-7.79297 5.85938-7.58789Q5.6543-7.38281 5.6543-7.05078Z"/>
  </g>
  <g transform="matrix(1 0 0 1 281.867 1933)">
   <path d="M11.709 2.91016Q13.75 2.91016 15.5518 2.12891Q17.3535 1.34766 18.7305-0.0292969Q20.1074-1.40625 20.8887-3.20801Q21.6699-5.00977 21.6699-7.05078Q21.6699-9.0918 20.8887-10.8936Q20.1074-12.6953 18.7305-14.0723Q17.3535-15.4492 15.5469-16.2305Q13.7402-17.0117 11.6992-17.0117Q9.6582-17.0117 7.85645-16.2305Q6.05469-15.4492 4.68262-14.0723Q3.31055-12.6953 2.5293-10.8936Q1.74805-9.0918 1.74805-7.05078Q1.74805-5.00977 2.5293-3.20801Q3.31055-1.40625 4.6875-0.0292969Q6.06445 1.34766 7.86621 2.12891Q9.66797 2.91016 11.709 2.91016ZM11.709 1.25Q9.98047 1.25 8.47656 0.605469Q6.97266-0.0390625 5.83496-1.17676Q4.69727-2.31445 4.05762-3.81836Q3.41797-5.32227 3.41797-7.05078Q3.41797-8.7793 4.05762-10.2832Q4.69727-11.7871 5.83008-12.9297Q6.96289-14.0723 8.4668-14.7119Q9.9707-15.3516 11.6992-15.3516Q13.4277-15.3516 14.9316-14.7119Q16.4355-14.0723 17.5781-12.9297Q18.7207-11.7871 19.3652-10.2832Q20.0098-8.7793 20.0098-7.05078Q20.0098-5.32227 19.3701-3.81836Q18.7305-2.31445 17.5928-1.17676Q16.4551-0.0390625 14.9463 0.605469Q13.4375 1.25 11.709 1.25ZM7.17773-7.05078Q7.17773-6.69922 7.41211-6.47461Q7.64648-6.25 8.01758-6.25L10.8887-6.25L10.8887-3.36914Q10.8887-2.99805 11.1133-2.76855Q11.3379-2.53906 11.6895-2.53906Q12.0605-2.53906 12.29-2.76855Q12.5195-2.99805 12.5195-3.36914L12.5195-6.25L15.4004-6.25Q15.7715-6.25 16.001-6.47461Q16.2305-6.69922 16.2305-7.05078Q16.2305-7.42188 16.001-7.65137Q15.7715-7.88086 15.4004-7.88086L12.5195-7.88086L12.5195-10.752Q12.5195-11.1328 12.29-11.3623Q12.0605-11.5918 11.6895-11.5918Q11.3379-11.5918 11.1133-11.3574Q10.8887-11.123 10.8887-10.752L10.8887-7.88086L8.01758-7.88086Q7.63672-7.88086 7.40723-7.65137Q7.17773-7.42188 7.17773-7.05078Z"/>
  </g>
  <g transform="matrix(1 0 0 1 305.646 1933)">
   <path d="M14.9707 5.66406Q17.0605 5.66406 18.96 5.01465Q20.8594 4.36523 22.4512 3.19336Q24.043 2.02148 25.2197 0.429688Q26.3965-1.16211 27.0459-3.06641Q27.6953-4.9707 27.6953-7.05078Q27.6953-9.14062 27.0459-11.04Q26.3965-12.9395 25.2197-14.5312Q24.043-16.123 22.4512-17.2998Q20.8594-18.4766 18.9551-19.126Q17.0508-19.7754 14.9609-19.7754Q12.8711-19.7754 10.9717-19.126Q9.07227-18.4766 7.48535-17.2998Q5.89844-16.123 4.72168-14.5312Q3.54492-12.9395 2.90039-11.04Q2.25586-9.14062 2.25586-7.05078Q2.25586-4.9707 2.90527-3.06641Q3.55469-1.16211 4.72656 0.429688Q5.89844 2.02148 7.49023 3.19336Q9.08203 4.36523 10.9814 5.01465Q12.8809 5.66406 14.9707 5.66406ZM14.9707 3.84766Q13.1641 3.84766 11.5283 3.2959Q9.89258 2.74414 8.53516 1.74805Q7.17773 0.751953 6.17676-0.610352Q5.17578-1.97266 4.62891-3.6084Q4.08203-5.24414 4.08203-7.05078Q4.08203-8.86719 4.62891-10.5029Q5.17578-12.1387 6.17188-13.501Q7.16797-14.8633 8.52539-15.8594Q9.88281-16.8555 11.5186-17.4023Q13.1543-17.9492 14.9609-17.9492Q16.7773-17.9492 18.4131-17.4023Q20.0488-16.8555 21.4111-15.8594Q22.7734-14.8633 23.7695-13.501Q24.7656-12.1387 25.3174-10.5029Q25.8691-8.86719 25.8691-7.05078Q25.8789-5.24414 25.332-3.6084Q24.7852-1.97266 23.7842-0.610352Q22.7832 0.751953 21.4209 1.74805Q20.0586 2.74414 18.4229 3.2959Q16.7871 3.84766 14.9707 3.84766ZM9.19922-7.05078Q9.19922-6.66992 9.45801-6.4209Q9.7168-6.17188 10.1172-6.17188L14.0625-6.17188L14.0625-2.2168Q14.0625-1.81641 14.3115-1.55762Q14.5605-1.29883 14.9512-1.29883Q15.3516-1.29883 15.6104-1.55273Q15.8691-1.80664 15.8691-2.2168L15.8691-6.17188L19.8242-6.17188Q20.2246-6.17188 20.4785-6.4209Q20.7324-6.66992 20.7324-7.05078Q20.7324-7.46094 20.4785-7.71484Q20.2246-7.96875 19.8242-7.96875L15.8691-7.96875L15.8691-11.9141Q15.8691-12.3242 15.6104-12.583Q15.3516-12.8418 14.9512-12.8418Q14.5605-12.8418 14.3115-12.583Q14.0625-12.3242 14.0625-11.9141L14.0625-7.96875L10.1172-7.96875Q9.70703-7.96875 9.45312-7.71484Q9.19922-7.46094 9.19922-7.05078Z"/>
  </g>
  <text style="stroke:none;fill:black;font-family:sans-serif;font-size:13;font-weight:bold;" transform="matrix(1 0 0 1 263 1953)">Design Variations</text>
  <text style="stroke:none;fill:black;font-family:sans-serif;font-size:13;" transform="matrix(1 0 0 1 263 1971)">Symbols are supported in up to nine weights and three scales.</text>
  <text style="stroke:none;fill:black;font-family:sans-serif;font-size:13;" transform="matrix(1 0 0 1 263 1989)">For optimal layout with text and other symbols, vertically align</text>
  <text style="stroke:none;fill:black;font-family:sans-serif;font-size:13;" transform="matrix(1 0 0 1 263 2007)">symbols with the adjacent text.</text>
  <line style="fill:none;stroke:#00AEEF;stroke-width:0.5;opacity:1.0;" x1="776" x2="776" y1="1919" y2="1933"/>
  <g transform="matrix(1 0 0 1 776 1933)">
   <path d="M3.31055 0.15625Q3.70117 0.15625 3.91602-0.00976562Q4.13086-0.175781 4.26758-0.585938L5.52734-4.0332L11.2891-4.0332L12.5488-0.585938Q12.6855-0.175781 12.9004-0.00976562Q13.1152 0.15625 13.4961 0.15625Q13.8867 0.15625 14.1162-0.0585938Q14.3457-0.273438 14.3457-0.644531Q14.3457-0.869141 14.2383-1.17188L9.6582-13.3691Q9.48242-13.8184 9.17969-14.043Q8.87695-14.2676 8.4082-14.2676Q7.5-14.2676 7.17773-13.3789L2.59766-1.16211Q2.49023-0.859375 2.49023-0.634766Q2.49023-0.263672 2.70996-0.0537109Q2.92969 0.15625 3.31055 0.15625ZM6.00586-5.51758L8.37891-12.0898L8.42773-12.0898L10.8008-5.51758Z"/>
  </g>
  <line style="fill:none;stroke:#00AEEF;stroke-width:0.5;opacity:1.0;" x1="793.197" x2="793.197" y1="1919" y2="1933"/>
  <text style="stroke:none;fill:black;font-family:sans-serif;font-size:13;font-weight:bold;" transform="matrix(1 0 0 1 776 1953)">Margins</text>
  <text style="stroke:none;fill:black;font-family:sans-serif;font-size:13;" transform="matrix(1 0 0 1 776 1971)">Leading and trailing margins on the left and right side of each symbol</text>
  <text style="stroke:none;fill:black;font-family:sans-serif;font-size:13;" transform="matrix(1 0 0 1 776 1989)">can be adjusted by modifying the x-location of the margin guidelines.</text>
  <text style="stroke:none;fill:black;font-family:sans-serif;font-size:13;" transform="matrix(1 0 0 1 776 2007)">Modifications are automatically applied proportionally to all</text>
  <text style="stroke:none;fill:black;font-family:sans-serif;font-size:13;" transform="matrix(1 0 0 1 776 2025)">scales and weights.</text>
  <g transform="matrix(1 0 0 1 1289 1933)">
   <path d="M2.8418 1.86523L4.54102 3.57422Q5.18555 4.22852 5.90332 4.17969Q6.62109 4.13086 7.31445 3.35938L18.0078-8.42773L17.041-9.4043L6.42578 2.27539Q6.16211 2.57812 5.89355 2.61719Q5.625 2.65625 5.27344 2.30469L4.10156 1.14258Q3.75 0.791016 3.79395 0.522461Q3.83789 0.253906 4.14062-0.0195312L15.6152-10.8203L14.6387-11.7871L3.04688-0.898438Q2.30469-0.214844 2.25098 0.498047Q2.19727 1.21094 2.8418 1.86523ZM9.25781-16.3281Q8.94531-16.0254 8.90625-15.6348Q8.86719-15.2441 9.04297-14.9512Q9.21875-14.6777 9.55566-14.541Q9.89258-14.4043 10.3809-14.5215Q11.4746-14.7754 12.5977-14.7314Q13.7207-14.6875 14.7949-13.9844L14.209-12.5293Q13.9551-11.9043 14.0674-11.4404Q14.1797-10.9766 14.5801-10.5664L16.875-8.25195Q17.2363-7.88086 17.5781-7.82227Q17.9199-7.76367 18.3398-7.8418L19.4043-8.03711L20.0684-7.36328L20.0293-6.80664Q20-6.43555 20.1221-6.12305Q20.2441-5.81055 20.6055-5.44922L21.3672-4.70703Q21.7285-4.3457 22.1533-4.33105Q22.5781-4.31641 22.9297-4.66797L25.8398-7.58789Q26.1914-7.93945 26.1816-8.35449Q26.1719-8.76953 25.8105-9.13086L25.0391-9.89258Q24.6875-10.2539 24.3799-10.3857Q24.0723-10.5176 23.7109-10.4883L23.1348-10.4395L22.4902-11.0742L22.7344-12.1973Q22.832-12.6172 22.6953-12.9834Q22.5586-13.3496 22.1191-13.7891L19.9219-15.9766Q18.6719-17.2168 17.2607-17.8369Q15.8496-18.457 14.4189-18.4814Q12.9883-18.5059 11.665-17.959Q10.3418-17.4121 9.25781-16.3281ZM10.752-15.957Q11.6602-16.6211 12.7002-16.9043Q13.7402-17.1875 14.8047-17.085Q15.8691-16.9824 16.8701-16.5137Q17.8711-16.0449 18.7012-15.2051L21.1328-12.793Q21.3086-12.6172 21.3525-12.4512Q21.3965-12.2852 21.3379-12.0312L21.0156-10.5469L22.5195-9.0625L23.5059-9.12109Q23.6914-9.13086 23.7891-9.09668Q23.8867-9.0625 24.0332-8.91602L24.6094-8.33984L22.168-5.89844L21.5918-6.47461Q21.4453-6.62109 21.4062-6.71875Q21.3672-6.81641 21.377-7.01172L21.4453-7.98828L19.9512-9.47266L18.4277-9.21875Q18.1836-9.16992 18.042-9.2041Q17.9004-9.23828 17.7148-9.41406L15.7129-11.416Q15.5176-11.5918 15.4932-11.7529Q15.4688-11.9141 15.5859-12.1875L16.4648-14.2773Q15.293-15.3711 13.8281-15.791Q12.3633-16.2109 10.8398-15.7617Q10.7227-15.7324 10.6885-15.8057Q10.6543-15.8789 10.752-15.957Z"/>
  </g>
  <text style="stroke:none;fill:black;font-family:sans-serif;font-size:13;font-weight:bold;" transform="matrix(1 0 0 1 1289 1953)">Exporting</text>
  <text style="stroke:none;fill:black;font-family:sans-serif;font-size:13;" transform="matrix(1 0 0 1 1289 1971)">Symbols should be outlined when exporting to ensure the</text>
  <text style="stroke:none;fill:black;font-family:sans-serif;font-size:13;" transform="matrix(1 0 0 1 1289 1989)">design is preserved when submitting to Xcode.</text>
  <text id="template-version" style="stroke:none;fill:black;font-family:sans-serif;font-size:13;text-anchor:end;" transform="matrix(1 0 0 1 3036 1933)">Template v.3.0</text>
  <text style="stroke:none;fill:black;font-family:sans-serif;font-size:13;text-anchor:end;" transform="matrix(1 0 0 1 3036 1951)">Requires Xcode 13 or greater</text>
  <text id="descriptive-name" style="stroke:none;fill:black;font-family:sans-serif;font-size:13;text-anchor:end;" transform="matrix(1 0 0 1 3036 1969)">Generated from plus.app.fill</text>
  <text style="stroke:none;fill:black;font-family:sans-serif;font-size:13;text-anchor:end;" transform="matrix(1 0 0 1 3036 1987)">Typeset at 100 points</text>
  <text style="stroke:none;fill:black;font-family:sans-serif;font-size:13;" transform="matrix(1 0 0 1 263 726)">Small</text>
  <text style="stroke:none;fill:black;font-family:sans-serif;font-size:13;" transform="matrix(1 0 0 1 263 1156)">Medium</text>
  <text style="stroke:none;fill:black;font-family:sans-serif;font-size:13;" transform="matrix(1 0 0 1 263 1586)">Large</text>
 </g>
 <g id="Guides">
  <g id="H-reference" style="fill:#27AAE1;stroke:none;" transform="matrix(1 0 0 1 339 696)">
   <path d="M0.993347 0L3.6377 0L29.3282-67.1326L30.0301-67.1326L30.0301-70.459L28.1227-70.459ZM11.6882-24.4797L46.9818-24.4797L46.2311-26.7288L12.4382-26.7288ZM55.1193 0L57.7637 0L30.6381-70.459L29.4327-70.459L29.4327-67.1326Z"/>
  </g>
  <line id="Baseline-S" style="fill:none;stroke:#27AAE1;opacity:1;stroke-width:0.5;" x1="263" x2="3036" y1="696" y2="696"/>
  <line id="Capline-S" style="fill:none;stroke:#27AAE1;opacity:1;stroke-width:0.5;" x1="263" x2="3036" y1="625.541" y2="625.541"/>
  <g id="H-reference" style="fill:#27AAE1;stroke:none;" transform="matrix(1 0 0 1 339 1126)">
   <path d="M0.993347 0L3.6377 0L29.3282-67.1326L30.0301-67.1326L30.0301-70.459L28.1227-70.459ZM11.6882-24.4797L46.9818-24.4797L46.2311-26.7288L12.4382-26.7288ZM55.1193 0L57.7637 0L30.6381-70.459L29.4327-70.459L29.4327-67.1326Z"/>
  </g>
  <line id="Baseline-M" style="fill:none;stroke:#27AAE1;opacity:1;stroke-width:0.5;" x1="263" x2="3036" y1="1126" y2="1126"/>
  <line id="Capline-M" style="fill:none;stroke:#27AAE1;opacity:1;stroke-width:0.5;" x1="263" x2="3036" y1="1055.54" y2="1055.54"/>
  <g id="H-reference" style="fill:#27AAE1;stroke:none;" transform="matrix(1 0 0 1 339 1556)">
   <path d="M0.993347 0L3.6377 0L29.3282-67.1326L30.0301-67.1326L30.0301-70.459L28.1227-70.459ZM11.6882-24.4797L46.9818-24.4797L46.2311-26.7288L12.4382-26.7288ZM55.1193 0L57.7637 0L30.6381-70.459L29.4327-70.459L29.4327-67.1326Z"/>
  </g>
  <line id="Baseline-L" style="fill:none;stroke:#27AAE1;opacity:1;stroke-width:0.5;" x1="263" x2="3036" y1="1556" y2="1556"/>
  <line id="Capline-L" style="fill:none;stroke:#27AAE1;opacity:1;stroke-width:0.5;" x1="263" x2="3036" y1="1485.54" y2="1485.54"/>
  <line id="left-margin-Regular-M" style="fill:none;stroke:#00AEEF;stroke-width:0.5;opacity:1.0;" x1="1392.97" x2="1392.97" y1="1030.79" y2="1150.12"/>
  <line id="right-margin-Regular-M" style="fill:none;stroke:#00AEEF;stroke-width:0.5;opacity:1.0;" x1="1506.72" x2="1506.72" y1="1030.79" y2="1150.12"/>
 </g>
 <g id="Symbols">
  <g id="Black-L" transform="matrix(1 0 0 1 2856.48 1556)">
   <path d="M129.108-87.3249Q124.045-92.3305 117.084-94.1935Q110.123-96.0565 99.8055-96.0565L54.0257-96.0565Q43.7188-96.0565 36.7298-94.1929Q29.7408-92.3292 24.7365-87.3236Q19.7529-82.34 17.9184-75.4503Q16.084-68.5605 16.084-58.1355L16.084-12.3363Q16.084-1.89967 17.9178 4.99136Q19.7516 11.8824 24.7352 16.8867Q29.7992 21.8703 36.7596 23.7443Q43.7201 25.6183 54.0386 25.6183L99.8055 25.6183Q110.123 25.6183 117.123 23.7443Q124.124 21.8703 129.108 16.8867Q134.093 11.8811 135.926 4.99071Q137.759-1.89967 137.759-12.3363L137.759-58.1032Q137.759-68.5592 135.926-75.4801Q134.093-82.401 129.108-87.3249ZM45.8777-35.249Q45.8777-38.966 48.2987-41.4467Q50.7197-43.9274 54.3419-43.9274L68.2547-43.9274L68.2547-57.8608Q68.2547-61.5194 70.725-63.9125Q73.1953-66.3056 76.8903-66.3056Q80.6268-66.3056 83.0977-63.9131Q85.5687-61.5207 85.5687-57.8608L85.5687-43.9274L99.5229-43.9274Q103.162-43.9274 105.564-41.4467Q107.966-38.966 107.966-35.249Q107.966-31.5539 105.564-29.0843Q103.161-26.6146 99.5229-26.6146L85.5687-26.6146L85.5687-12.6812Q85.5687-9.07965 83.0977-6.65803Q80.6268-4.23641 76.8903-4.23641Q73.1953-4.23641 70.725-6.65867Q68.2547-9.08094 68.2547-12.6812L68.2547-26.6146L54.3419-26.6146Q50.721-26.6146 48.2994-29.0843Q45.8777-31.5539 45.8777-35.249Z"/>
  </g>
  <g id="Heavy-L" transform="matrix(1 0 0 1 2560.66 1556)">
   <path d="M127.64-86.7642Q122.659-91.7071 115.795-93.4372Q108.931-95.1674 99.1202-95.1674L52.8724-95.1674Q43.1102-95.1674 36.23-93.4342Q29.3497-91.7011 24.4128-86.7581Q19.5057-81.851 17.7948-75.0586Q16.084-68.2662 16.084-58.4087L16.084-12.1372Q16.084-2.22539 17.7918 4.57303Q19.4996 11.3715 24.4068 16.3084Q29.3944 21.2155 36.2553 22.9636Q43.1163 24.7116 52.9327 24.7116L99.1202 24.7116Q108.931 24.7116 115.832 22.9636Q122.733 21.2155 127.64 16.3084Q132.553 11.3654 134.258 4.57001Q135.963-2.22539 135.963-12.1372L135.963-58.3247Q135.963-68.2602 134.258-75.0839Q132.553-81.9077 127.64-86.7642ZM45.1158-35.2399Q45.1158-38.6177 47.3047-40.8572Q49.4935-43.0967 52.8178-43.0967L68.1876-43.0967L68.1876-58.4963Q68.1876-61.8294 70.4122-64.002Q72.6369-66.1746 75.9788-66.1746Q79.3803-66.1746 81.608-64.005Q83.8356-61.8354 83.8356-58.4963L83.8356-43.0967L99.2649-43.0967Q102.574-43.0967 104.756-40.8572Q106.937-38.6177 106.937-35.2399Q106.937-31.898 104.753-29.6764Q102.568-27.4547 99.2649-27.4547L83.8356-27.4547L83.8356-12.0552Q83.8356-8.76065 81.608-6.56878Q79.3803-4.37692 75.9788-4.37692Q72.6369-4.37692 70.4122-6.5718Q68.1876-8.76668 68.1876-12.0552L68.1876-27.4547L52.8178-27.4547Q49.4995-27.4547 47.3077-29.6764Q45.1158-31.898 45.1158-35.2399Z"/>
  </g>
  <g id="Bold-L" transform="matrix(1 0 0 1 2265.08 1556)">
   <path d="M125.794-86.0477Q120.961-90.8658 114.26-92.4545Q107.56-94.0433 98.2558-94.0433L51.4095-94.0433Q42.2193-94.0433 35.5183-92.4474Q28.8173-90.8516 24.0134-86.0334Q19.2464-81.2665 17.6652-74.642Q16.084-68.0175 16.084-58.7547L16.084-11.8856Q16.084-2.49478 17.6581 4.14393Q19.2322 10.7826 23.9992 15.5866Q28.8465 20.3535 35.54 21.9679Q42.2336 23.5822 51.5518 23.5822L98.2558 23.5822Q107.56 23.5822 114.294 21.9679Q121.027 20.3535 125.794 15.5866Q130.575 10.7684 132.142 4.13681Q133.709-2.49478 133.709-11.8856L133.709-58.5897Q133.709-68.0033 132.142-74.6637Q130.575-81.3241 125.794-86.0477ZM44.2779-35.2327Q44.2779-38.159 46.1624-40.087Q48.047-42.015 50.9661-42.015L68.1471-42.015L68.1471-59.233Q68.1471-62.1301 70.0566-64.0143Q71.9661-65.8985 74.8412-65.8985Q77.7903-65.8985 79.7069-64.0214Q81.6235-62.1443 81.6235-59.233L81.6235-42.015L98.8785-42.015Q101.753-42.015 103.641-40.087Q105.53-38.159 105.53-35.2327Q105.53-32.3576 103.634-30.4552Q101.739-28.5528 98.8785-28.5528L81.6235-28.5528L81.6235-11.3348Q81.6235-8.45273 79.7069-6.56104Q77.7903-4.66936 74.8412-4.66936Q71.9661-4.66936 70.0566-6.56816Q68.1471-8.46695 68.1471-11.3348L68.1471-28.5528L50.9661-28.5528Q48.0612-28.5528 46.1695-30.4552Q44.2779-32.3576 44.2779-35.2327Z"/>
  </g>
  <g id="Semibold-L" transform="matrix(1 0 0 1 1969.14 1556)">
   <path d="M124.522-85.5537Q119.791-90.2859 113.203-91.7771Q106.615-93.2683 97.6599-93.2683L50.4011-93.2683Q41.6052-93.2683 35.0277-91.7671Q28.4503-90.266 23.738-85.5338Q19.0677-80.8635 17.5758-74.3548Q16.084-67.8461 16.084-58.9932L16.084-11.7122Q16.084-2.68049 17.5659 3.84811Q19.0478 10.3767 23.7181 15.089Q28.4689 19.7593 35.0469 21.2814Q41.625 22.8035 50.5998 22.8035L97.6599 22.8035Q106.615 22.8035 113.233 21.2814Q119.851 19.7593 124.522 15.089Q129.212 10.3568 130.684 3.83817Q132.156-2.68049 132.156-11.7122L132.156-58.7724Q132.156-67.8262 130.684-74.374Q129.212-80.9219 124.522-85.5537ZM43.7002-35.2277Q43.7002-37.8428 45.375-39.556Q47.0498-41.2693 49.6895-41.2693L68.1192-41.2693L68.1192-59.7409Q68.1192-62.3374 69.8115-64.0228Q71.5037-65.7082 74.0569-65.7082Q76.6941-65.7082 78.3963-64.0327Q80.0985-62.3573 80.0985-59.7409L80.0985-41.2693L98.6121-41.2693Q101.186-41.2693 102.873-39.556Q104.559-37.8428 104.559-35.2277Q104.559-32.6745 102.863-30.9922Q101.167-29.3099 98.6121-29.3099L80.0985-29.3099L80.0985-10.8382Q80.0985-8.24045 78.3963-6.55571Q76.6941-4.87097 74.0569-4.87097Q71.5037-4.87097 69.8115-6.56564Q68.1192-8.26032 68.1192-10.8382L68.1192-29.3099L49.6895-29.3099Q47.0697-29.3099 45.3849-30.9922Q43.7002-32.6745 43.7002-35.2277Z"/>
  </g>
  <g id="Medium-L" transform="matrix(1 0 0 1 1673.02 1556)">
   <path d="M123.557-85.1792Q118.903-89.8461 112.401-91.2634Q105.898-92.6807 97.208-92.6807L49.6364-92.6807Q41.1395-92.6807 34.6557-91.2513Q28.172-89.822 23.5292-85.155Q18.9322-80.558 17.5081-74.1371Q16.084-67.7161 16.084-59.174L16.084-11.5808Q16.084-2.82131 17.496 3.6238Q18.908 10.0689 23.5051 14.7117Q28.1825 19.3087 34.6731 20.7609Q41.1636 22.2132 49.8779 22.2132L97.208 22.2132Q105.898 22.2132 112.429 20.7609Q118.96 19.3087 123.557 14.7117Q128.178 10.0448 129.578 3.61173Q130.978-2.82131 130.978-11.5808L130.978-58.9109Q130.978-67.692 129.578-74.1544Q128.178-80.6168 123.557-85.1792ZM43.2622-35.2239Q43.2622-37.603 44.7779-39.1534Q46.2937-40.7038 48.7216-40.7038L68.098-40.7038L68.098-60.126Q68.098-62.4946 69.6256-64.0292Q71.1531-65.5639 73.4623-65.5639Q75.8629-65.5639 77.4026-64.0413Q78.9422-62.5187 78.9422-60.126L78.9422-40.7038L98.4101-40.7038Q100.757-40.7038 102.29-39.1534Q103.824-37.603 103.824-35.2239Q103.824-32.9148 102.278-31.3993Q100.733-29.8839 98.4101-29.8839L78.9422-29.8839L78.9422-10.4617Q78.9422-8.07949 77.4026-6.55166Q75.8629-5.02383 73.4623-5.02383Q71.1531-5.02383 69.6256-6.56374Q68.098-8.10365 68.098-10.4617L68.098-29.8839L48.7216-29.8839Q46.3178-29.8839 44.79-31.3993Q43.2622-32.9148 43.2622-35.2239Z"/>
  </g>
  <g id="Regular-L" transform="matrix(1 0 0 1 1377.08 1556)">
   <path d="M122.298-84.6907Q117.746-89.2725 111.355-90.5934Q104.963-91.9142 96.6187-91.9142L48.639-91.9142Q40.5321-91.9142 34.1705-90.5785Q27.809-89.2428 23.2569-84.6609Q18.7554-80.1595 17.4197-73.853Q16.084-67.5466 16.084-59.4099L16.084-11.4093Q16.084-3.00498 17.4048 3.33123Q18.7257 9.66744 23.2271 14.2195Q27.809 18.721 34.1854 20.082Q40.5618 21.4431 48.9364 21.4431L96.6187 21.4431Q104.963 21.4431 111.38 20.082Q117.797 18.721 122.298 14.2195Q126.829 9.6377 128.135 3.31636Q129.441-3.00498 129.441-11.4093L129.441-59.0916Q129.441-67.5168 128.135-73.8679Q126.829-80.219 122.298-84.6907ZM42.6908-35.219Q42.6908-37.2903 43.9991-38.6283Q45.3074-39.9663 47.4591-39.9663L68.0704-39.9663L68.0704-60.6284Q68.0704-62.6996 69.3831-64.0376Q70.6958-65.3757 72.6866-65.3757Q74.7788-65.3757 76.1064-64.0525Q77.4339-62.7293 77.4339-60.6284L77.4339-39.9663L98.1467-39.9663Q100.197-39.9663 101.531-38.6283Q102.864-37.2903 102.864-35.219Q102.864-33.2282 101.516-31.9304Q100.167-30.6326 98.1467-30.6326L77.4339-30.6326L77.4339-9.97052Q77.4339-7.86955 76.1064-6.54639Q74.7788-5.22323 72.6866-5.22323Q70.6958-5.22323 69.3831-6.56126Q68.0704-7.89928 68.0704-9.97052L68.0704-30.6326L47.4591-30.6326Q45.3372-30.6326 44.014-31.9304Q42.6908-33.2282 42.6908-35.219Z"/>
  </g>
  <g id="Light-L" transform="matrix(1 0 0 1 1081.23 1556)">
   <path d="M120.841-84.0545Q116.699-88.2464 110.698-89.6186Q104.697-90.9907 95.9209-90.9907L47.4077-90.9907Q39.034-90.9907 33.0828-89.5935Q27.1317-88.1962 22.9901-84.0042Q18.8786-79.8927 17.4813-74.007Q16.084-68.1212 16.084-59.6972L16.084-11.2041Q16.084-2.32775 17.4561 3.60828Q18.8283 9.54431 22.9398 13.686Q27.1317 17.7975 33.108 19.2098Q39.0842 20.6222 47.9103 20.6222L95.9209 20.6222Q104.697 20.6222 110.713 19.2098Q116.73 17.7975 120.841 13.686Q125.003 9.49405 126.35 3.58315Q127.697-2.32775 127.697-11.2041L127.697-59.2147Q127.697-68.0709 126.35-74.0321Q125.003-79.9933 120.841-84.0545ZM42.7934-35.2395Q42.7934-36.7977 43.7836-37.8382Q44.7738-38.8786 46.4124-38.8786L68.3167-38.8786L68.3167-60.8131Q68.3167-62.3712 69.3421-63.4117Q70.3675-64.4522 71.8452-64.4522Q73.3833-64.4522 74.4338-63.4368Q75.4843-62.4215 75.4843-60.8131L75.4843-38.8786L97.4489-38.8786Q99.0272-38.8786 100.032-37.8382Q101.038-36.7977 101.038-35.2395Q101.038-33.7618 100.007-32.7615Q98.9769-31.7613 97.4489-31.7613L75.4843-31.7613L75.4843-9.82686Q75.4843-8.21842 74.4338-7.20309Q73.3833-6.18776 71.8452-6.18776Q70.3675-6.18776 69.3421-7.22822Q68.3167-8.26868 68.3167-9.82686L68.3167-31.7613L46.4124-31.7613Q44.8241-31.7613 43.8088-32.7615Q42.7934-33.7618 42.7934-35.2395Z"/>
  </g>
  <g id="Thin-L" transform="matrix(1 0 0 1 785.671 1556)">
   <path d="M118.914-83.2131Q115.315-86.8893 109.83-88.3293Q104.344-89.7694 94.9981-89.7694L45.7791-89.7694Q37.0526-89.7694 31.6443-88.2906Q26.236-86.8119 22.6372-83.1357Q19.0414-79.5399 17.5627-74.2105Q16.084-68.8812 16.084-60.0772L16.084-10.9326Q16.084-1.43207 17.524 3.97469Q18.964 9.38146 22.5598 12.9803Q26.236 16.5761 31.683 18.0563Q37.13 19.5365 46.5532 19.5365L94.9981 19.5365Q104.344 19.5365 109.831 18.0563Q115.318 16.5761 118.914 12.9803Q122.587 9.30406 123.989 3.93599Q125.39-1.43207 125.39-10.9326L125.39-59.3776Q125.39-68.8038 123.989-74.2492Q122.587-79.6947 118.914-83.2131ZM42.9292-35.2667Q42.9292-36.1463 43.4987-36.7932Q44.0682-37.4401 45.0282-37.4401L68.6424-37.4401L68.6424-61.0573Q68.6424-61.937 69.2878-62.5839Q69.9332-63.2308 70.7324-63.2308Q71.5377-63.2308 72.2217-62.6226Q72.9058-62.0144 72.9058-61.0573L72.9058-37.4401L96.5261-37.4401Q97.4801-37.4401 98.0511-36.7932Q98.6221-36.1463 98.6221-35.2667Q98.6221-34.4675 98.0124-33.8608Q97.4027-33.2541 96.5261-33.2541L72.9058-33.2541L72.9058-9.63687Q72.9058-8.67983 72.2217-8.07163Q71.5377-7.46343 70.7324-7.46343Q69.9332-7.46343 69.2878-8.11033Q68.6424-8.75723 68.6424-9.63687L68.6424-33.2541L45.0282-33.2541Q44.1456-33.2541 43.5374-33.8608Q42.9292-34.4675 42.9292-35.2667Z"/>
  </g>
  <g id="Ultralight-L" transform="matrix(1 0 0 1 489.548 1556)">
   <path d="M117.927-82.7821Q114.606-86.1942 109.385-87.669Q104.163-89.1438 94.5254-89.1438L44.945-89.1438Q36.0378-89.1438 30.9075-87.6233Q25.7773-86.1029 22.4565-82.6908Q19.1248-79.3592 17.6044-74.3148Q16.084-69.2704 16.084-60.2718L16.084-10.7936Q16.084-0.973305 17.5588 4.16237Q19.0335 9.29805 22.3652 12.6188Q25.7773 15.9505 30.9532 17.4655Q36.1291 18.9805 45.8581 18.9805L94.5254 18.9805Q104.163 18.9805 109.379 17.4655Q114.595 15.9505 117.927 12.6188Q121.35 9.20674 122.779 4.11672Q124.208-0.973305 124.208-10.7936L124.208-59.461Q124.208-69.1791 122.779-74.3604Q121.35-79.5418 117.927-82.7821ZM42.9987-35.2806Q42.9987-35.8127 43.3527-36.258Q43.7067-36.7033 44.3192-36.7033L68.8092-36.7033L68.8092-61.1825Q68.8092-61.7145 69.26-62.1599Q69.7108-62.6052 70.1624-62.6052Q70.5923-62.6052 71.0887-62.2055Q71.5852-61.8058 71.5852-61.1825L71.5852-36.7033L96.0534-36.7033Q96.6877-36.7033 97.0363-36.258Q97.3848-35.8127 97.3848-35.2806Q97.3848-34.8289 96.9906-34.4238Q96.5964-34.0187 96.0534-34.0187L71.5852-34.0187L71.5852-9.53956Q71.5852-8.91617 71.0887-8.51649Q70.5923-8.11682 70.1624-8.11682Q69.7108-8.11682 69.26-8.56215Q68.8092-9.00747 68.8092-9.53956L68.8092-34.0187L44.3192-34.0187Q43.798-34.0187 43.3983-34.4238Q42.9987-34.8289 42.9987-35.2806Z"/>
  </g>
  <g id="Black-M" transform="matrix(1 0 0 1 2873.15 1126)">
   <path d="M101.089-75.9857Q97.1524-79.8648 91.7287-81.4293Q86.305-82.9937 77.8179-82.9937L42.6804-82.9937Q34.1908-82.9937 28.7383-81.4294Q23.2858-79.8651 19.4064-75.986Q15.5325-72.1121 13.9967-66.7477Q12.4609-61.3832 12.4609-52.7798L12.4609-17.6365Q12.4609-9.03579 13.9969-3.67165Q15.5328 1.69248 19.4067 5.57188Q23.3429 9.44576 28.7667 11.0128Q34.1905 12.5799 42.6773 12.5799L77.8179 12.5799Q86.305 12.5799 91.76 11.0128Q97.215 9.44576 101.089 5.57188Q104.962 1.69279 106.499-3.6715Q108.035-9.03579 108.035-17.6365L108.035-52.777Q108.035-61.3835 106.499-66.7761Q104.962-72.1686 101.089-75.9857ZM36.2122-35.2551Q36.2122-38.3569 38.2442-40.4458Q40.2762-42.5346 43.269-42.5346L52.9708-42.5346L52.9708-52.2418Q52.9708-55.2865 55.0568-57.2897Q57.1429-59.2929 60.2395-59.2929Q63.3471-59.2929 65.433-57.2896Q67.519-55.2862 67.519-52.2418L67.519-42.5346L77.2317-42.5346Q80.2706-42.5346 82.2768-40.4458Q84.2831-38.3569 84.2831-35.2551Q84.2831-32.1585 82.277-30.0723Q80.2709-27.9861 77.2317-27.9861L67.519-27.9861L67.519-18.2789Q67.519-15.2915 65.433-13.2597Q63.3471-11.2278 60.2395-11.2278Q57.1429-11.2278 55.0568-13.2595Q52.9708-15.2912 52.9708-18.2789L52.9708-27.9861L43.269-27.9861Q40.2759-27.9861 38.244-30.0723Q36.2122-32.1585 36.2122-35.2551Z"/>
  </g>
  <g id="Heavy-M" transform="matrix(1 0 0 1 2577.24 1126)">
   <path d="M99.7887-75.4962Q95.8938-79.35 90.529-80.7799Q85.1643-82.2098 77.2124-82.2098L41.6665-82.2098Q33.7341-82.2098 28.35-80.7787Q22.966-79.3476 19.1146-75.4938Q15.2795-71.6587 13.8702-66.3506Q12.4609-61.0425 12.4609-53.0204L12.4609-17.4608Q12.4609-9.41668 13.869-4.10615Q15.277 1.20437 19.1122 5.05573Q23.0096 8.89085 28.3731 10.3301Q33.7366 11.7693 41.691 11.7693L77.2124 11.7693Q85.1643 11.7693 90.559 10.3301Q95.9536 8.89085 99.7887 5.05573Q103.626 1.20193 105.033-4.10738Q106.44-9.41668 106.44-17.4608L106.44-52.9822Q106.44-61.0401 105.033-66.3736Q103.626-71.7072 99.7887-75.4962ZM35.4578-35.2444Q35.4578-38.0619 37.2923-39.9424Q39.1267-41.8229 41.8757-41.8229L52.8825-41.8229L52.8825-52.846Q52.8825-55.6198 54.7549-57.4349Q56.6273-59.25 59.4261-59.25Q62.2574-59.25 64.131-57.4362Q66.0046-55.6223 66.0046-52.846L66.0046-41.8229L77.0439-41.8229Q79.804-41.8229 81.6247-39.9424Q83.4455-38.0619 83.4455-35.2444Q83.4455-32.4456 81.6235-30.5744Q79.8015-28.7032 77.0439-28.7032L66.0046-28.7032L66.0046-17.6802Q66.0046-14.9475 64.131-13.1118Q62.2574-11.2762 59.4261-11.2762Q56.6273-11.2762 54.7549-13.1131Q52.8825-14.95 52.8825-17.6802L52.8825-28.7032L41.8757-28.7032Q39.1292-28.7032 37.2935-30.5744Q35.4578-32.4456 35.4578-35.2444Z"/>
  </g>
  <g id="Bold-M" transform="matrix(1 0 0 1 2281.42 1126)">
   <path d="M98.3343-74.9487Q94.4858-78.7742 89.1871-80.0535Q83.8883-81.3328 76.535-81.3328L40.5323-81.3328Q33.2232-81.3328 27.9157-80.0507Q22.6082-78.7687 18.7882-74.9432Q14.9965-71.1514 13.7287-65.9064Q12.4609-60.6613 12.4609-53.2896L12.4609-17.2642Q12.4609-9.84276 13.7259-4.59221Q14.9909 0.658349 18.7827 4.47834Q22.6368 8.2701 27.9328 9.56626Q33.2287 10.8624 40.5876 10.8624L76.535 10.8624Q83.8883 10.8624 89.2155 9.56626Q94.5426 8.2701 98.3343 4.47834Q102.132 0.652828 103.394-4.59497Q104.656-9.84276 104.656-17.2642L104.656-53.2117Q104.656-60.6558 103.394-65.9234Q102.132-71.191 98.3343-74.9487ZM34.614-35.2324Q34.614-37.7318 36.2275-39.3793Q37.8409-41.0268 40.317-41.0268L52.7837-41.0268L52.7837-53.5218Q52.7837-55.9927 54.4171-57.5974Q56.0505-59.2021 58.5162-59.2021Q61.0383-59.2021 62.6745-57.6001Q64.3106-55.9982 64.3106-53.5218L64.3106-41.0268L76.8338-41.0268Q79.282-41.0268 80.8953-39.3793Q82.5085-37.7318 82.5085-35.2324Q82.5085-32.7667 80.8925-31.1361Q79.2765-29.5055 76.8338-29.5055L64.3106-29.5055L64.3106-17.0105Q64.3106-14.5627 62.6745-12.9465Q61.0383-11.3303 58.5162-11.3303Q56.0505-11.3303 54.4171-12.9492Q52.7837-14.5682 52.7837-17.0105L52.7837-29.5055L40.317-29.5055Q37.8464-29.5055 36.2302-31.1361Q34.614-32.7667 34.614-35.2324Z"/>
  </g>
  <g id="Semibold-M" transform="matrix(1 0 0 1 1985.32 1126)">
   <path d="M97.3317-74.5712Q93.5152-78.3772 88.2619-79.5527Q83.0087-80.7282 76.0681-80.7282L39.7505-80.7282Q32.871-80.7282 27.6163-79.5489Q22.3616-78.3696 18.5632-74.5636Q14.8014-70.8017 13.6311-65.6001Q12.4609-60.3986 12.4609-53.4751L12.4609-17.1287Q12.4609-10.1365 13.6273-4.92729Q14.7937 0.281923 18.5556 4.0803Q22.3798 7.84216 27.6292 9.0397Q32.8786 10.2372 39.8269 10.2372L76.0681 10.2372Q83.0087 10.2372 88.2892 9.0397Q93.5698 7.84216 97.3317 4.0803Q101.101 0.274283 102.264-4.93111Q103.426-10.1365 103.426-17.1287L103.426-53.3699Q103.426-60.3909 102.264-65.613Q101.101-70.8351 97.3317-74.5712ZM34.0323-35.2241Q34.0323-37.5043 35.4934-38.9912Q36.9545-40.478 39.2424-40.478L52.7156-40.478L52.7156-53.9877Q52.7156-56.2497 54.1843-57.7094Q55.6529-59.169 57.8889-59.169Q60.1979-59.169 61.6703-57.7132Q63.1428-56.2574 63.1428-53.9877L63.1428-40.478L76.689-40.478Q78.9221-40.478 80.3924-38.9912Q81.8626-37.5043 81.8626-35.2241Q81.8626-32.9881 80.3886-31.5233Q78.9145-30.0585 76.689-30.0585L63.1428-30.0585L63.1428-16.5488Q63.1428-14.2974 61.6703-12.8325Q60.1979-11.3676 57.8889-11.3676Q55.6529-11.3676 54.1843-12.8363Q52.7156-14.305 52.7156-16.5488L52.7156-30.0585L39.2424-30.0585Q36.9621-30.0585 35.4972-31.5233Q34.0323-32.9881 34.0323-35.2241Z"/>
  </g>
  <g id="Medium-M" transform="matrix(1 0 0 1 1689.08 1126)">
   <path d="M96.5715-74.285Q92.7792-78.0762 87.5604-79.173Q82.3417-80.2697 75.714-80.2697L39.1576-80.2697Q32.6039-80.2697 27.3893-79.1684Q22.1746-78.067 18.3926-74.2758Q14.6534-70.5366 13.5572-65.3679Q12.4609-60.1993 12.4609-53.6158L12.4609-17.0259Q12.4609-10.3592 13.5526-5.18136Q14.6442-0.00349793 18.3834 3.77848Q22.1849 7.51768 27.399 8.64045Q32.6132 9.76322 39.2501 9.76322L75.714 9.76322Q82.3417 9.76322 87.587 8.64045Q92.8323 7.51768 96.5715 3.77848Q100.32-0.0127463 101.407-5.18598Q102.494-10.3592 102.494-17.0259L102.494-53.4898Q102.494-60.1901 101.407-65.3777Q100.32-70.5653 96.5715-74.285ZM33.5912-35.2179Q33.5912-37.3318 34.9368-38.6968Q36.2823-40.0619 38.4277-40.0619L52.664-40.0619L52.664-54.341Q52.664-56.4446 54.0077-57.7943Q55.3514-59.1439 57.4132-59.1439Q59.5607-59.1439 60.909-57.7989Q62.2573-56.4539 62.2573-54.341L62.2573-40.0619L76.5792-40.0619Q78.6493-40.0619 80.0111-38.6968Q81.3728-37.3318 81.3728-35.2179Q81.3728-33.156 80.0064-31.8169Q78.64-30.4779 76.5792-30.4779L62.2573-30.4779L62.2573-16.1988Q62.2573-14.0962 60.909-12.746Q59.5607-11.3958 57.4132-11.3958Q55.3514-11.3958 54.0077-12.7506Q52.664-14.1054 52.664-16.1988L52.664-30.4779L38.4277-30.4779Q36.2916-30.4779 34.9414-31.8169Q33.5912-33.156 33.5912-35.2179Z"/>
  </g>
  <g id="Regular-M" transform="matrix(1 0 0 1 1392.97 1126)">
   <path d="M95.5798-73.9117Q91.8192-77.6836 86.6454-78.6777Q81.4717-79.6718 75.2522-79.6718L38.3843-79.6718Q32.2556-79.6718 27.0931-78.672Q21.9307-77.6723 18.1701-73.9003Q14.4605-70.1907 13.4607-65.0651Q12.4609-59.9394 12.4609-53.7994L12.4609-16.8919Q12.4609-10.6497 13.455-5.51276Q14.4491-0.375787 18.1587 3.38481Q21.9307 7.09444 27.0988 8.11968Q32.2669 9.14492 38.4978 9.14492L75.2522 9.14492Q81.4717 9.14492 86.6709 8.11968Q91.8702 7.09444 95.5798 3.38481Q99.3008-0.387132 100.289-5.51843Q101.278-10.6497 101.278-16.8919L101.278-53.6463Q101.278-59.9281 100.289-65.0707Q99.3008-70.2134 95.5798-73.9117ZM33.0159-35.2097Q33.0159-37.1067 34.2108-38.3129Q35.4056-39.5191 37.3649-39.5191L52.5967-39.5191L52.5967-54.8018Q52.5967-56.6988 53.7774-57.905Q54.9581-59.1112 56.7929-59.1112Q58.7295-59.1112 59.9159-57.9107Q61.1023-56.7102 61.1023-54.8018L61.1023-39.5191L76.4359-39.5191Q78.2934-39.5191 79.5137-38.3129Q80.734-37.1067 80.734-35.2097Q80.734-33.375 79.508-32.1999Q78.282-31.0249 76.4359-31.0249L61.1023-31.0249L61.1023-15.7422Q61.1023-13.8338 59.9159-12.6333Q58.7295-11.4327 56.7929-11.4327Q54.9581-11.4327 53.7774-12.6389Q52.5967-13.8451 52.5967-15.7422L52.5967-31.0249L37.3649-31.0249Q35.417-31.0249 34.2164-32.1999Q33.0159-33.375 33.0159-35.2097Z"/>
  </g>
  <g id="Light-M" transform="matrix(1 0 0 1 1097.04 1126)">
   <path d="M94.2735-73.3413Q90.8809-76.7637 86.0567-77.8037Q81.2325-78.8438 74.6266-78.8438L37.2804-78.8438Q30.9125-78.8438 26.118-77.7889Q21.3235-76.7339 17.9309-73.3116Q14.5708-69.9515 13.5159-65.2031Q12.4609-60.4546 12.4609-54.0569L12.4609-16.7079Q12.4609-10.0426 13.501-5.26437Q14.5411-0.486181 17.9012 2.90643Q21.3235 6.26649 26.1329 7.33772Q30.9422 8.40896 37.5778 8.40896L74.6266 8.40896Q81.2325 8.40896 86.073 7.33772Q90.9135 6.26649 94.2735 2.90643Q97.6633-0.515925 98.6885-5.27924Q99.7137-10.0426 99.7137-16.7079L99.7137-53.7567Q99.7137-60.4249 98.6885-65.2179Q97.6633-70.011 94.2735-73.3413ZM33.1079-35.2281Q33.1079-36.6651 34.0176-37.6046Q34.9272-38.544 36.4266-38.544L52.8175-38.544L52.8175-54.9674Q52.8175-56.4045 53.7406-57.3439Q54.6637-58.2833 56.0385-58.2833Q57.4784-58.2833 58.4164-57.3587Q59.3544-56.4342 59.3544-54.9674L59.3544-38.544L75.8104-38.544Q77.2446-38.544 78.1706-37.6046Q79.0965-36.6651 79.0965-35.2281Q79.0965-33.8533 78.1557-32.9451Q77.2149-32.0368 75.8104-32.0368L59.3544-32.0368L59.3544-15.6134Q59.3544-14.1466 58.4164-13.222Q57.4784-12.2975 56.0385-12.2975Q54.6637-12.2975 53.7406-13.2369Q52.8175-14.1763 52.8175-15.6134L52.8175-32.0368L36.4266-32.0368Q34.957-32.0368 34.0324-32.9451Q33.1079-33.8533 33.1079-35.2281Z"/>
  </g>
  <g id="Thin-M" transform="matrix(1 0 0 1 801.359 1126)">
   <path d="M92.5458-72.5869Q89.6399-75.547 85.278-76.6479Q80.9161-77.7488 73.7992-77.7488L35.8203-77.7488Q29.1361-77.7488 24.8283-76.6208Q20.5205-75.4929 17.6146-72.5329Q14.7169-69.6352 13.5889-65.3856Q12.4609-61.136 12.4609-54.3976L12.4609-16.4646Q12.4609-9.23953 13.5619-4.93586Q14.6628-0.632186 17.5605 2.27375Q20.5205 5.17145 24.8553 6.30352Q29.1901 7.43559 36.3611 7.43559L73.7992 7.43559Q80.9161 7.43559 85.2821 6.30352Q89.6481 5.17145 92.5458 2.27375Q95.4976-0.686264 96.5714-4.9629Q97.6453-9.23953 97.6453-16.4646L97.6453-53.9027Q97.6453-61.0819 96.5714-65.4126Q95.4976-69.7433 92.5458-72.5869ZM33.2296-35.2524Q33.2296-36.0811 33.7621-36.6677Q34.2945-37.2543 35.1856-37.2543L53.1095-37.2543L53.1095-55.1864Q53.1095-56.0151 53.6919-56.6017Q54.2744-57.1882 55.0408-57.1882Q55.8236-57.1882 56.4331-56.6287Q57.0426-56.0692 57.0426-55.1864L57.0426-37.2543L74.983-37.2543Q75.8576-37.2543 76.3942-36.6677Q76.9308-36.0811 76.9308-35.2524Q76.9308-34.486 76.3671-33.9306Q75.8035-33.3752 74.983-33.3752L57.0426-33.3752L57.0426-15.443Q57.0426-14.5603 56.4331-14.0007Q55.8236-13.4412 55.0408-13.4412Q54.2744-13.4412 53.6919-14.0278Q53.1095-14.6143 53.1095-15.443L53.1095-33.3752L35.1856-33.3752Q34.3486-33.3752 33.7891-33.9306Q33.2296-34.486 33.2296-35.2524Z"/>
  </g>
  <g id="Ultralight-M" transform="matrix(1 0 0 1 505.175 1126)">
   <path d="M91.6608-72.2006Q89.0042-74.9238 84.8791-76.0558Q80.7541-77.1879 73.3755-77.1879L35.0725-77.1879Q28.2262-77.1879 24.1677-76.0226Q20.1092-74.8572 17.4525-72.134Q14.7916-69.4731 13.6263-65.479Q12.4609-61.485 12.4609-54.5721L12.4609-16.3399Q12.4609-8.82823 13.593-4.7676Q14.7251-0.706969 17.386 1.94969Q20.1092 4.61058 24.201 5.77381Q28.2927 6.93704 35.7379 6.93704L73.3755 6.93704Q80.7541 6.93704 84.877 5.77381Q89 4.61058 91.6608 1.94969Q94.3883-0.773511 95.4871-4.80087Q96.5859-8.82823 96.5859-16.3399L96.5859-53.9775Q96.5859-61.4184 95.4871-65.5123Q94.3883-69.6062 91.6608-72.2006ZM33.2919-35.2649Q33.2919-35.782 33.6312-36.1878Q33.9705-36.5937 34.5499-36.5937L53.2591-36.5937L53.2591-55.2986Q53.2591-55.8157 53.667-56.2215Q54.075-56.6274 54.5298-56.6274Q54.9761-56.6274 55.4173-56.2548Q55.8586-55.8822 55.8586-55.2986L55.8586-36.5937L74.5592-36.5937Q75.1471-36.5937 75.4843-36.1878Q75.8215-35.782 75.8215-35.2649Q75.8215-34.8101 75.451-34.4354Q75.0806-34.0607 74.5592-34.0607L55.8586-34.0607L55.8586-15.3558Q55.8586-14.7721 55.4173-14.3996Q54.9761-14.027 54.5298-14.027Q54.075-14.027 53.667-14.4328Q53.2591-14.8387 53.2591-15.3558L53.2591-34.0607L34.5499-34.0607Q34.037-34.0607 33.6645-34.4354Q33.2919-34.8101 33.2919-35.2649Z"/>
  </g>
  <g id="Black-S" transform="matrix(1 0 0 1 2885.99 696)">
   <path d="M79.541-67.2852Q76.4648-70.3125 72.2168-71.582Q67.9688-72.8516 61.1328-72.8516L33.6914-72.8516Q26.8555-72.8516 22.583-71.582Q18.3105-70.3125 15.2832-67.2852Q12.2559-64.2578 11.0107-60.0586Q9.76562-55.8594 9.76562-48.9258L9.76562-21.4844Q9.76562-14.5508 11.0107-10.3516Q12.2559-6.15234 15.2832-3.125Q18.3594-0.0976562 22.6074 1.17188Q26.8555 2.44141 33.6914 2.44141L61.1328 2.44141Q67.9688 2.44141 72.2412 1.17188Q76.5137-0.0976562 79.541-3.125Q82.5684-6.15234 83.8135-10.3516Q85.0586-14.5508 85.0586-21.4844L85.0586-48.9258Q85.0586-55.8594 83.8135-60.083Q82.5684-64.3066 79.541-67.2852ZM28.6133-35.2539Q28.6133-37.7441 30.249-39.4287Q31.8848-41.1133 34.2773-41.1133L41.5527-41.1133L41.5527-48.3887Q41.5527-50.8301 43.2373-52.4414Q44.9219-54.0527 47.4121-54.0527Q49.9023-54.0527 51.5869-52.4414Q53.2715-50.8301 53.2715-48.3887L53.2715-41.1133L60.5469-41.1133Q62.9883-41.1133 64.5996-39.4287Q66.2109-37.7441 66.2109-35.2539Q66.2109-32.7637 64.5996-31.0791Q62.9883-29.3945 60.5469-29.3945L53.2715-29.3945L53.2715-22.1191Q53.2715-19.7266 51.5869-18.0908Q49.9023-16.4551 47.4121-16.4551Q44.9219-16.4551 43.2373-18.0908Q41.5527-19.7266 41.5527-22.1191L41.5527-29.3945L34.2773-29.3945Q31.8848-29.3945 30.249-31.0791Q28.6133-32.7637 28.6133-35.2539Z"/>
  </g>
  <g id="Heavy-S" transform="matrix(1 0 0 1 2589.86 696)">
   <path d="M78.596-66.9394Q75.5083-69.9898 71.266-71.1383Q67.0237-72.2869 60.6949-72.2869L32.9654-72.2869Q26.6365-72.2869 22.3756-71.1383Q18.1146-69.9898 15.0642-66.9394Q12.0254-63.9006 10.8955-59.7013Q9.76562-55.5021 9.76562-49.0986L9.76562-21.3576Q9.76562-14.9541 10.8955-10.7549Q12.0254-6.5557 15.0642-3.50531Q18.1519-0.466439 22.3942 0.687847Q26.6365 1.84213 32.9654 1.84213L60.6949 1.84213Q67.0237 1.84213 71.2904 0.687847Q75.5571-0.466439 78.596-3.50531Q81.6349-6.5557 82.7648-10.7549Q83.8946-14.9541 83.8946-21.3576L83.8946-49.0871Q83.8946-55.5021 82.7648-59.72Q81.6349-63.9379 78.596-66.9394ZM27.9564-35.2424Q27.9564-37.5482 29.4596-39.0887Q30.9628-40.6293 33.2056-40.6293L41.449-40.6293L41.449-48.8842Q41.449-51.1528 42.9838-52.6373Q44.5185-54.1219 46.8128-54.1219Q49.1302-54.1219 50.665-52.6373Q52.1997-51.1528 52.1997-48.8842L52.1997-40.6293L60.4662-40.6293Q62.7232-40.6293 64.2135-39.0887Q65.7039-37.5482 65.7039-35.2424Q65.7039-32.9481 64.2135-31.4133Q62.7232-29.8786 60.4662-29.8786L52.1997-29.8786L52.1997-21.6236Q52.1997-19.3924 50.665-17.8891Q49.1302-16.3859 46.8128-16.3859Q44.5185-16.3859 42.9838-17.8891Q41.449-19.3924 41.449-21.6236L41.449-29.8786L33.2056-29.8786Q30.9628-29.8786 29.4596-31.4133Q27.9564-32.9481 27.9564-35.2424Z"/>
  </g>
  <g id="Bold-S" transform="matrix(1 0 0 1 2293.8 696)">
   <path d="M77.5391-66.5527Q74.4385-69.6289 70.2026-70.6421Q65.9668-71.6553 60.2051-71.6553L32.1533-71.6553Q26.3916-71.6553 22.1436-70.6421Q17.8955-69.6289 14.8193-66.5527Q11.7676-63.501 10.7666-59.3018Q9.76562-55.1025 9.76562-49.292L9.76562-21.2158Q9.76562-15.4053 10.7666-11.2061Q11.7676-7.00684 14.8193-3.93066Q17.9199-0.878906 22.1558 0.146484Q26.3916 1.17188 32.1533 1.17188L60.2051 1.17188Q65.9668 1.17188 70.2271 0.146484Q74.4873-0.878906 77.5391-3.93066Q80.5908-7.00684 81.5918-11.2061Q82.5928-15.4053 82.5928-21.2158L82.5928-49.2676Q82.5928-55.1025 81.5918-59.314Q80.5908-63.5254 77.5391-66.5527ZM27.2217-35.2295Q27.2217-37.3291 28.5767-38.7085Q29.9316-40.0879 32.0068-40.0879L41.333-40.0879L41.333-49.4385Q41.333-51.5137 42.7002-52.8564Q44.0674-54.1992 46.1426-54.1992Q48.2666-54.1992 49.6338-52.8564Q51.001-51.5137 51.001-49.4385L51.001-40.0879L60.376-40.0879Q62.4268-40.0879 63.7817-38.7085Q65.1367-37.3291 65.1367-35.2295Q65.1367-33.1543 63.7817-31.7871Q62.4268-30.4199 60.376-30.4199L51.001-30.4199L51.001-21.0693Q51.001-19.0186 49.6338-17.6636Q48.2666-16.3086 46.1426-16.3086Q44.0674-16.3086 42.7002-17.6636Q41.333-19.0186 41.333-21.0693L41.333-30.4199L32.0068-30.4199Q29.9316-30.4199 28.5767-31.7871Q27.2217-33.1543 27.2217-35.2295Z"/>
  </g>
  <g id="Semibold-S" transform="matrix(1 0 0 1 1997.54 696)">
   <path d="M76.8104-66.2861Q73.7009-69.3801 69.4695-70.3Q65.2381-71.2198 59.8674-71.2198L31.5935-71.2198Q26.2228-71.2198 21.9836-70.3Q17.7444-69.3801 14.6505-66.2861Q11.5898-63.2255 10.6777-59.0263Q9.76562-54.8271 9.76562-49.4253L9.76562-21.1181Q9.76562-15.7163 10.6777-11.5171Q11.5898-7.31787 14.6505-4.22393Q17.76-1.16328 21.9914-0.226758Q26.2228 0.709766 31.5935 0.709766L59.8674 0.709766Q65.2381 0.709766 69.4939-0.226758Q73.7497-1.16328 76.8104-4.22393Q79.871-7.31787 80.7831-11.5171Q81.6952-15.7163 81.6952-21.1181L81.6952-49.392Q81.6952-54.8271 80.7831-59.034Q79.871-63.241 76.8104-66.2861ZM26.7151-35.2206Q26.7151-37.178 27.9679-38.4463Q29.2207-39.7146 31.1804-39.7146L41.253-39.7146L41.253-49.8206Q41.253-51.7625 42.5047-53.0075Q43.7563-54.2525 45.6805-54.2525Q47.6712-54.2525 48.9229-53.0075Q50.1745-51.7625 50.1745-49.8206L50.1745-39.7146L60.3138-39.7146Q62.2224-39.7146 63.484-38.4463Q64.7457-37.178 64.7457-35.2206Q64.7457-33.2965 63.484-32.0448Q62.2224-30.7932 60.3138-30.7932L50.1745-30.7932L50.1745-20.6872Q50.1745-18.7608 48.9229-17.5081Q47.6712-16.2553 45.6805-16.2553Q43.7563-16.2553 42.5047-17.5081Q41.253-18.7608 41.253-20.6872L41.253-30.7932L31.1804-30.7932Q29.2207-30.7932 27.9679-32.0448Q26.7151-33.2965 26.7151-35.2206Z"/>
  </g>
  <g id="Medium-S" transform="matrix(1 0 0 1 1701.17 696)">
   <path d="M76.2578-66.084Q73.1416-69.1914 68.9136-70.0405Q64.6855-70.8896 59.6113-70.8896L31.1689-70.8896Q26.0947-70.8896 21.8623-70.0405Q17.6299-69.1914 14.5225-66.084Q11.4551-63.0166 10.6104-58.8174Q9.76562-54.6182 9.76562-49.5264L9.76562-21.0439Q9.76562-15.9521 10.6104-11.7529Q11.4551-7.55371 14.5225-4.44629Q17.6387-1.37891 21.8667-0.509766Q26.0947 0.359375 31.1689 0.359375L59.6113 0.359375Q64.6855 0.359375 68.938-0.509766Q73.1904-1.37891 76.2578-4.44629Q79.3252-7.55371 80.1699-11.7529Q81.0146-15.9521 81.0146-21.0439L81.0146-49.4863Q81.0146-54.6182 80.1699-58.8218Q79.3252-63.0254 76.2578-66.084ZM26.3311-35.2139Q26.3311-37.0635 27.5063-38.2476Q28.6816-39.4316 30.5537-39.4316L41.1924-39.4316L41.1924-50.1104Q41.1924-51.9512 42.3564-53.1221Q43.5205-54.293 45.3301-54.293Q47.2197-54.293 48.3838-53.1221Q49.5479-51.9512 49.5479-50.1104L49.5479-39.4316L60.2666-39.4316Q62.0674-39.4316 63.2583-38.2476Q64.4492-37.0635 64.4492-35.2139Q64.4492-33.4043 63.2583-32.2402Q62.0674-31.0762 60.2666-31.0762L49.5479-31.0762L49.5479-20.3975Q49.5479-18.5654 48.3838-17.3901Q47.2197-16.2148 45.3301-16.2148Q43.5205-16.2148 42.3564-17.3901Q41.1924-18.5654 41.1924-20.3975L41.1924-31.0762L30.5537-31.0762Q28.6816-31.0762 27.5063-32.2402Q26.3311-33.4043 26.3311-35.2139Z"/>
  </g>
  <g id="Regular-S" transform="matrix(1 0 0 1 1404.9 696)">
   <path d="M75.5371-65.8203Q72.4121-68.9453 68.1885-69.7021Q63.9648-70.459 59.2773-70.459L30.6152-70.459Q25.9277-70.459 21.7041-69.7021Q17.4805-68.9453 14.3555-65.8203Q11.2793-62.7441 10.5225-58.5449Q9.76562-54.3457 9.76562-49.6582L9.76562-20.9473Q9.76562-16.2598 10.5225-12.0605Q11.2793-7.86133 14.3555-4.73633Q17.4805-1.66016 21.7041-0.878906Q25.9277-0.0976562 30.6152-0.0976562L59.2773-0.0976562Q63.9648-0.0976562 68.2129-0.878906Q72.4609-1.66016 75.5371-4.73633Q78.6133-7.86133 79.3701-12.0605Q80.127-16.2598 80.127-20.9473L80.127-49.6094Q80.127-54.3457 79.3701-58.5449Q78.6133-62.7441 75.5371-65.8203ZM25.8301-35.2051Q25.8301-36.9141 26.9043-37.9883Q27.9785-39.0625 29.7363-39.0625L41.1133-39.0625L41.1133-50.4883Q41.1133-52.1973 42.1631-53.2715Q43.2129-54.3457 44.873-54.3457Q46.6309-54.3457 47.6807-53.2715Q48.7305-52.1973 48.7305-50.4883L48.7305-39.0625L60.2051-39.0625Q61.8652-39.0625 62.9639-37.9883Q64.0625-36.9141 64.0625-35.2051Q64.0625-33.5449 62.9639-32.4951Q61.8652-31.4453 60.2051-31.4453L48.7305-31.4453L48.7305-20.0195Q48.7305-18.3105 47.6807-17.2363Q46.6309-16.1621 44.873-16.1621Q43.2129-16.1621 42.1631-17.2363Q41.1133-18.3105 41.1133-20.0195L41.1133-31.4453L29.7363-31.4453Q27.9785-31.4453 26.9043-32.4951Q25.8301-33.5449 25.8301-35.2051Z"/>
  </g>
  <g id="Light-S" transform="matrix(1 0 0 1 1108.88 696)">
   <path d="M74.3815-65.3158Q71.582-68.1315 67.6676-68.929Q63.7533-69.7266 58.724-69.7266L29.6387-69.7266Q24.7396-69.7266 20.8415-68.9209Q16.9434-68.1152 14.1439-65.2995Q11.377-62.5326 10.5713-58.667Q9.76562-54.8014 9.76562-49.8861L9.76562-20.7845Q9.76562-15.7227 10.5632-11.8408Q11.3607-7.95898 14.1276-5.15951Q16.9434-2.39258 20.8496-1.57064Q24.7559-0.748698 29.8014-0.748698L58.724-0.748698Q63.7533-0.748698 67.6839-1.57064Q71.6146-2.39258 74.3815-5.15951Q77.1647-7.97526 77.9541-11.849Q78.7435-15.7227 78.7435-20.7845L78.7435-49.707Q78.7435-54.7852 77.9541-58.6751Q77.1647-62.5651 74.3815-65.3158ZM25.9115-35.2214Q25.9115-36.5234 26.7334-37.3617Q27.5553-38.1999 28.9062-38.1999L41.3086-38.1999L41.3086-50.6348Q41.3086-51.9368 42.1305-52.7751Q42.9525-53.6133 44.2057-53.6133Q45.5241-53.6133 46.3542-52.7832Q47.1842-51.9531 47.1842-50.6348L47.1842-38.1999L59.6517-38.1999Q60.9375-38.1999 61.7757-37.3617Q62.6139-36.5234 62.6139-35.2214Q62.6139-33.9681 61.7676-33.1543Q60.9212-32.3405 59.6517-32.3405L47.1842-32.3405L47.1842-19.9056Q47.1842-18.5872 46.3542-17.7572Q45.5241-16.9271 44.2057-16.9271Q42.9525-16.9271 42.1305-17.7653Q41.3086-18.6035 41.3086-19.9056L41.3086-32.3405L28.9062-32.3405Q27.5716-32.3405 26.7415-33.1543Q25.9115-33.9681 25.9115-35.2214Z"/>
  </g>
  <g id="Thin-S" transform="matrix(1 0 0 1 813.076 696)">
   <path d="M72.8531-64.6484Q70.4842-67.0552 66.9788-67.9065Q63.4734-68.7579 57.9921-68.7579L28.3471-68.7579Q23.1682-68.7579 19.7006-67.8876Q16.233-67.0174 13.864-64.6106Q11.5061-62.2527 10.6359-58.8284Q9.76562-55.4042 9.76562-50.1874L9.76562-20.5692Q9.76562-15.0123 10.617-11.5502Q11.4683-8.08814 13.8262-5.71919Q16.233-3.36127 19.7195-2.48551Q23.206-1.60975 28.7251-1.60975L57.9921-1.60975Q63.4734-1.60975 66.9843-2.48551Q70.4952-3.36127 72.8531-5.71919Q75.2489-8.12595 76.0813-11.5691Q76.9137-15.0123 76.9137-20.5692L76.9137-49.8362Q76.9137-55.3664 76.0813-58.8473Q75.2489-62.3283 72.8531-64.6484ZM26.0191-35.2429Q26.0191-36.0068 26.5074-36.5329Q26.9957-37.059 27.8084-37.059L41.5669-37.059L41.5669-50.8285Q41.5669-51.5924 42.0875-52.1185Q42.6081-52.6446 43.3231-52.6446Q44.0603-52.6446 44.5998-52.1374Q45.1392-51.6302 45.1392-50.8285L45.1392-37.059L58.9198-37.059Q59.7105-37.059 60.2043-36.5329Q60.6981-36.0068 60.6981-35.2429Q60.6981-34.5278 60.1854-34.0261Q59.6727-33.5244 58.9198-33.5244L45.1392-33.5244L45.1392-19.7549Q45.1392-18.9532 44.5998-18.446Q44.0603-17.9388 43.3231-17.9388Q42.6081-17.9388 42.0875-18.4649Q41.5669-18.991 41.5669-19.7549L41.5669-33.5244L27.8084-33.5244Q27.0335-33.5244 26.5263-34.0261Q26.0191-34.5278 26.0191-35.2429Z"/>
  </g>
  <g id="Ultralight-S" transform="matrix(1 0 0 1 516.831 696)">
   <path d="M72.0703-64.3066Q69.9219-66.5039 66.626-67.3828Q63.3301-68.2617 57.6172-68.2617L27.6855-68.2617Q22.3633-68.2617 19.1162-67.3584Q15.8691-66.4551 13.7207-64.2578Q11.5723-62.1094 10.6689-58.9111Q9.76562-55.7129 9.76562-50.3418L9.76562-20.459Q9.76562-14.6484 10.6445-11.4014Q11.5234-8.1543 13.6719-6.00586Q15.8691-3.85742 19.1406-2.9541Q22.4121-2.05078 28.1738-2.05078L57.6172-2.05078Q63.3301-2.05078 66.626-2.9541Q69.9219-3.85742 72.0703-6.00586Q74.2676-8.20312 75.1221-11.4258Q75.9766-14.6484 75.9766-20.459L75.9766-49.9023Q75.9766-55.6641 75.1221-58.9355Q74.2676-62.207 72.0703-64.3066ZM26.0742-35.2539Q26.0742-35.7422 26.3916-36.1084Q26.709-36.4746 27.2461-36.4746L41.6992-36.4746L41.6992-50.9277Q41.6992-51.416 42.0654-51.7822Q42.4316-52.1484 42.8711-52.1484Q43.3105-52.1484 43.7012-51.8066Q44.0918-51.4648 44.0918-50.9277L44.0918-36.4746L58.5449-36.4746Q59.082-36.4746 59.3994-36.1084Q59.7168-35.7422 59.7168-35.2539Q59.7168-34.8145 59.375-34.4727Q59.0332-34.1309 58.5449-34.1309L44.0918-34.1309L44.0918-19.6777Q44.0918-19.1406 43.7012-18.7988Q43.3105-18.457 42.8711-18.457Q42.4316-18.457 42.0654-18.8232Q41.6992-19.1895 41.6992-19.6777L41.6992-34.1309L27.2461-34.1309Q26.7578-34.1309 26.416-34.4727Q26.0742-34.8145 26.0742-35.2539Z"/>
  </g>
 </g>
</svg>
